<?xml version="1.0" encoding="UTF-8" standalone="no"?>
<!-- Created with Inkscape (http://www.inkscape.org/) -->
<svg
   xmlns:dc="http://purl.org/dc/elements/1.1/"
   xmlns:cc="http://creativecommons.org/ns#"
   xmlns:rdf="http://www.w3.org/1999/02/22-rdf-syntax-ns#"
   xmlns:svg="http://www.w3.org/2000/svg"
   xmlns="http://www.w3.org/2000/svg"
   xmlns:xlink="http://www.w3.org/1999/xlink"
   xmlns:sodipodi="http://sodipodi.sourceforge.net/DTD/sodipodi-0.dtd"
   xmlns:inkscape="http://www.inkscape.org/namespaces/inkscape"
   width="16px"
   height="16px"
   id="svg3282"
   sodipodi:version="0.32"
   inkscape:version="0.46"
   sodipodi:docname="16.svg"
   inkscape:output_extension="org.inkscape.output.svg.inkscape"
   inkscape:export-filename="D:\Adrenaline\Icons\tango eset nod32\16.png"
   inkscape:export-xdpi="90"
   inkscape:export-ydpi="90">
  <defs
     id="defs3284">
    <linearGradient
       inkscape:collect="always"
       id="linearGradient3200">
      <stop
         style="stop-color:#006157;stop-opacity:1"
         offset="0"
         id="stop3202" />
      <stop
         style="stop-color:#009dc8;stop-opacity:1"
         offset="1"
         id="stop3204" />
    </linearGradient>
    <linearGradient
       inkscape:collect="always"
       xlink:href="#linearGradient3200"
       id="linearGradient3206"
       x1="4.9265499"
       y1="54.513439"
       x2="-21.773153"
       y2="-2.9756863"
       gradientUnits="userSpaceOnUse"
       gradientTransform="matrix(0.326193,0,0,0.3251155,7.7255609,0.783035)" />
    <linearGradient
       inkscape:collect="always"
       id="linearGradient3190">
      <stop
         style="stop-color:#e5f9f9;stop-opacity:1"
         offset="0"
         id="stop3192" />
      <stop
         style="stop-color:#cbeded;stop-opacity:1"
         offset="1"
         id="stop3194" />
    </linearGradient>
    <radialGradient
       inkscape:collect="always"
       xlink:href="#linearGradient3190"
       id="radialGradient3198"
       cx="-9.2100866"
       cy="23.6937"
       fx="-9.2100866"
       fy="23.6937"
       r="14.980627"
       gradientTransform="matrix(0.3318581,0,0,0.3339428,11.127417,0.1468197)"
       gradientUnits="userSpaceOnUse" />
    <linearGradient
       inkscape:collect="always"
       id="linearGradient3242">
      <stop
         style="stop-color:#08799c;stop-opacity:1"
         offset="0"
         id="stop3244" />
      <stop
         style="stop-color:#5bdeec;stop-opacity:1"
         offset="1"
         id="stop3246" />
    </linearGradient>
    <linearGradient
       inkscape:collect="always"
       xlink:href="#linearGradient3242"
       id="linearGradient3248"
       x1="23.698503"
       y1="13.465401"
       x2="24.405584"
       y2="32.648682"
       gradientUnits="userSpaceOnUse" />
    <linearGradient
       inkscape:collect="always"
       id="linearGradient3264">
      <stop
         style="stop-color:#00849e;stop-opacity:1;"
         offset="0"
         id="stop3266" />
      <stop
         style="stop-color:#00849e;stop-opacity:0;"
         offset="1"
         id="stop3268" />
    </linearGradient>
    <radialGradient
       inkscape:collect="always"
       xlink:href="#linearGradient3264"
       id="radialGradient3270"
       cx="-22.289145"
       cy="14.657632"
       fx="-22.289145"
       fy="14.657632"
       r="7.8598775"
       gradientUnits="userSpaceOnUse" />
    <linearGradient
       id="linearGradient3274">
      <stop
         style="stop-color:#ffffff;stop-opacity:1;"
         offset="0"
         id="stop3276" />
      <stop
         style="stop-color:#ffffff;stop-opacity:0;"
         offset="1"
         id="stop3278" />
    </linearGradient>
    <linearGradient
       inkscape:collect="always"
       xlink:href="#linearGradient3274"
       id="linearGradient3280"
       x1="18.562307"
       y1="16.078796"
       x2="19.009048"
       y2="24.270399"
       gradientUnits="userSpaceOnUse" />
    <inkscape:perspective
       sodipodi:type="inkscape:persp3d"
       inkscape:vp_x="0 : 8 : 1"
       inkscape:vp_y="0 : 1000 : 0"
       inkscape:vp_z="16 : 8 : 1"
       inkscape:persp3d-origin="8 : 5.3333333 : 1"
       id="perspective3290" />
  </defs>
  <sodipodi:namedview
     id="base"
     pagecolor="#ffffff"
     bordercolor="#666666"
     borderopacity="1.0"
     inkscape:pageopacity="0.0"
     inkscape:pageshadow="2"
     inkscape:zoom="28.095184"
     inkscape:cx="13.620249"
     inkscape:cy="7.8088746"
     inkscape:current-layer="layer1"
     showgrid="true"
     inkscape:grid-bbox="true"
     inkscape:document-units="px"
     inkscape:window-width="1436"
     inkscape:window-height="849"
     inkscape:window-x="0"
     inkscape:window-y="13">
    <inkscape:grid
       type="xygrid"
       id="grid2406" />
  </sodipodi:namedview>
  <metadata
     id="metadata3287">
    <rdf:RDF>
      <cc:Work
         rdf:about="">
        <dc:format>image/svg+xml</dc:format>
        <dc:type
           rdf:resource="http://purl.org/dc/dcmitype/StillImage" />
      </cc:Work>
    </rdf:RDF>
  </metadata>
  <g
     id="layer1"
     inkscape:label="Layer 1"
     inkscape:groupmode="layer">
    <path
       style="fill:url(#linearGradient3206);fill-opacity:1;fill-rule:evenodd;stroke:#004241;stroke-width:1;stroke-linecap:butt;stroke-linejoin:miter;stroke-miterlimit:4;stroke-dasharray:none;stroke-opacity:1"
       d="M 0.49734979,15.499575 C 0.51636295,12.750486 0.48041537,11.250496 0.54869902,8.5033159 C 0.41804046,3.8440248 4.3812377,0.52460742 8.5160032,0.52460742 C 10.72412,0.52460742 13.293941,0.49943917 15.502058,0.49943917 C 15.478919,3.2520413 15.592945,4.7208699 15.510107,7.4704809 C 15.510107,12.497127 12.463458,15.510282 7.5056049,15.510282 C 5.3855473,15.487836 2.6174078,15.522021 0.49734979,15.499575 z"
       id="path2408"
       sodipodi:nodetypes="ccccccc" />
    <path
       id="path3186"
       d="M 3.5176895,12.530416 C 3.5299831,10.747001 3.4571676,9.2641684 3.5013182,7.4819921 C 3.5013182,5.0367113 5.019149,3.5035797 7.5217236,3.5035797 C 8.9494613,3.5035797 11.062371,3.4946813 12.49011,3.4946813 C 12.469807,5.1762246 12.500875,5.9854859 12.484634,8.4969646 C 12.484634,11.035712 11.016045,12.502911 8.5199247,12.502911 C 7.1491237,12.488351 4.8884904,12.544977 3.5176895,12.530416 z"
       style="fill:url(#radialGradient3198);fill-opacity:1;fill-rule:evenodd;stroke:#004241;stroke-width:1;stroke-linecap:butt;stroke-linejoin:miter;stroke-miterlimit:4;stroke-dasharray:none;stroke-opacity:1"
       sodipodi:nodetypes="ccccccc" />
    <path
       sodipodi:type="arc"
       style="opacity:1;fill:url(#linearGradient3248);fill-opacity:1;stroke:#0086a2;stroke-width:4.54895735;stroke-linecap:round;stroke-linejoin:round;stroke-miterlimit:4;stroke-dasharray:none;stroke-dashoffset:0;stroke-opacity:1"
       id="path3188"
       sodipodi:cx="25.604977"
       sodipodi:cy="24.335926"
       sodipodi:rx="11.272161"
       sodipodi:ry="11.272161"
       d="M 36.877137,24.335926 A 11.272161,11.272161 0 1 1 14.332816,24.335926 A 11.272161,11.272161 0 1 1 36.877137,24.335926 z"
       transform="matrix(0.2202777,0,0,0.2202777,2.3636647,2.6591692)" />
    <path
       id="path3230"
       d="M 1.507572,14.504405 C 1.5242268,12.092786 1.4681397,10.998454 1.5279533,8.5885103 C 1.5279533,4.0492279 5.0025762,1.5138103 8.5284746,1.5138103 C 10.462152,1.5138103 12.566293,1.5050808 14.500505,1.5050808 C 14.480237,3.9197818 14.554122,5.4086833 14.48156,7.820759 C 14.48156,12.00742 12.001267,14.549496 7.5002599,14.549496 C 5.6431836,14.529807 3.3646481,14.524096 1.507572,14.504405 z"
       style="opacity:0.50000000000000000;fill:none;fill-opacity:1;fill-rule:evenodd;stroke:#ffffff;stroke-width:1;stroke-linecap:butt;stroke-linejoin:miter;stroke-miterlimit:4;stroke-dasharray:none;stroke-opacity:1"
       sodipodi:nodetypes="ccscccc" />
    <path
       sodipodi:type="star"
       style="opacity:0.75;fill:url(#radialGradient3270);fill-opacity:1;stroke:none;stroke-width:3.46244431;stroke-linecap:round;stroke-linejoin:round;stroke-miterlimit:4;stroke-dasharray:none;stroke-dashoffset:0;stroke-opacity:1"
       id="path3262"
       sodipodi:sides="20"
       sodipodi:cx="-22.289145"
       sodipodi:cy="14.657632"
       sodipodi:r1="7.9578519"
       sodipodi:r2="3.9789259"
       sodipodi:arg1="0.78539816"
       sodipodi:arg2="0.94247779"
       inkscape:flatsided="false"
       inkscape:rounded="0"
       inkscape:randomized="0"
       d="M -16.662093,20.284683 L -19.950391,17.876651 L -18.676355,21.74813 L -21.059589,18.441815 L -21.044262,22.517509 L -22.289144,18.636558 L -23.534027,22.517509 L -23.5187,18.441815 L -25.901934,21.74813 L -24.627898,17.876651 L -27.916196,20.284683 L -25.508163,16.996386 L -29.379642,18.270421 L -26.073328,15.887188 L -30.149022,15.902514 L -26.26807,14.657632 L -30.149022,13.41275 L -26.073328,13.428076 L -29.379642,11.044843 L -25.508163,12.318878 L -27.916196,9.0305809 L -24.627899,11.438613 L -25.901934,7.5671339 L -23.5187,10.873448 L -23.534027,6.7977544 L -22.289145,10.678706 L -21.044262,6.7977543 L -21.059589,10.873448 L -18.676355,7.5671339 L -19.950391,11.438613 L -16.662094,9.0305808 L -19.070126,12.318878 L -15.198647,11.044843 L -18.504961,13.428076 L -14.429267,13.41275 L -18.310219,14.657632 L -14.429267,15.902514 L -18.504961,15.887188 L -15.198647,18.270421 L -19.070126,16.996386 L -16.662093,20.284683 z"
       transform="matrix(0.2368501,0,0,0.2368501,13.249452,4.4707474)" />
    <path
       sodipodi:type="arc"
       style="opacity:1;fill:#00849e;fill-opacity:1;stroke:none;stroke-width:4.54895735;stroke-linecap:round;stroke-linejoin:round;stroke-miterlimit:4;stroke-dasharray:none;stroke-dashoffset:0;stroke-opacity:1"
       id="path3250"
       sodipodi:cx="-23.522356"
       sodipodi:cy="24.386295"
       sodipodi:rx="4.2477264"
       sodipodi:ry="4.2477264"
       d="M -19.27463,24.386295 A 4.2477264,4.2477264 0 1 1 -27.770082,24.386295 A 4.2477264,4.2477264 0 1 1 -19.27463,24.386295 z"
       transform="matrix(0.1802787,0,0,0.1802787,12.23555,3.7076589)" />
    <path
       sodipodi:type="arc"
       style="opacity:0.75;fill:url(#linearGradient3280);fill-opacity:1;stroke:none;stroke-width:3.81297517;stroke-linecap:round;stroke-linejoin:round;stroke-miterlimit:4;stroke-dasharray:none;stroke-dashoffset:0;stroke-opacity:1"
       id="path3272"
       sodipodi:cx="19.009048"
       sodipodi:cy="19.088057"
       sodipodi:rx="7.3163829"
       sodipodi:ry="4.5217733"
       d="M 26.325431,19.088057 A 7.3163829,4.5217733 0 1 1 11.692666,19.088057 A 7.3163829,4.5217733 0 1 1 26.325431,19.088057 z"
       transform="matrix(0.2061639,0,0,0.2243739,4.1814578,3.0210862)" />
  </g>
</svg>
