<?xml version="1.0" encoding="UTF-8"?>
<svg xmlns="http://www.w3.org/2000/svg" xmlns:xlink="http://www.w3.org/1999/xlink" contentScriptType="text/ecmascript" width="84.002" baseProfile="tiny" zoomAndPan="magnify" contentStyleType="text/css" viewBox="0 0 84.002 72" height="72" preserveAspectRatio="xMidYMid meet" version="1.1">
    <defs>
        <radialGradient gradientTransform="matrix(1.952381,0,0,1.952381,-12.96362,-11.03238)" id="radialGradient2584" gradientUnits="userSpaceOnUse" xlink:show="other" xlink:type="simple" r="1.8561553" cx="13.611806" fx="13.611806" cy="11.584001" fy="11.584001" xlink:actuate="onLoad">
            <stop stop-opacity="1" stop-color="#ffffff" offset="0"/>
            <stop stop-opacity="0" stop-color="#ffffff" offset="1"/>
        </radialGradient>
        <radialGradient gradientUnits="userSpaceOnUse" xlink:type="simple" r="1.767767" xlink:actuate="onLoad" cx="16.086679" id="radialGradient2582" cy="13.970486" xlink:show="other" fx="16.086679" fy="13.970486">
            <stop stop-opacity="1" stop-color="#fee964" offset="0"/>
            <stop stop-opacity="0" stop-color="#fee964" offset="1"/>
        </radialGradient>
        <radialGradient gradientTransform="matrix(1.952381,0,0,1.952381,-12.96362,-11.03238)" id="radialGradient2571" gradientUnits="userSpaceOnUse" xlink:show="other" xlink:type="simple" r="1.8561553" cx="13.611806" fx="13.611806" cy="11.584001" fy="11.584001" xlink:actuate="onLoad">
            <stop stop-opacity="1" stop-color="#ffffff" offset="0"/>
            <stop stop-opacity="0" stop-color="#ffffff" offset="1"/>
        </radialGradient>
        <radialGradient gradientUnits="userSpaceOnUse" xlink:type="simple" r="1.767767" xlink:actuate="onLoad" cx="16.086679" id="radialGradient2569" cy="13.970486" xlink:show="other" fx="16.086679" fy="13.970486">
            <stop stop-opacity="1" stop-color="#fee964" offset="0"/>
            <stop stop-opacity="0" stop-color="#fee964" offset="1"/>
        </radialGradient>
        <radialGradient gradientTransform="matrix(1.952381,0,0,1.952381,-12.96362,-11.03238)" id="radialGradient2561" gradientUnits="userSpaceOnUse" xlink:show="other" xlink:type="simple" r="1.8561553" cx="13.611806" fx="13.611806" cy="11.584001" fy="11.584001" xlink:actuate="onLoad">
            <stop stop-opacity="1" stop-color="#ffffff" offset="0"/>
            <stop stop-opacity="0" stop-color="#ffffff" offset="1"/>
        </radialGradient>
        <radialGradient gradientUnits="userSpaceOnUse" xlink:type="simple" r="1.767767" xlink:actuate="onLoad" cx="16.086679" id="radialGradient2559" cy="13.970486" xlink:show="other" fx="16.086679" fy="13.970486">
            <stop stop-opacity="1" stop-color="#fee964" offset="0"/>
            <stop stop-opacity="0" stop-color="#fee964" offset="1"/>
        </radialGradient>
        <radialGradient gradientUnits="userSpaceOnUse" xlink:type="simple" r="1.767767" xlink:actuate="onLoad" cx="16.086679" id="radialGradient2547" cy="13.970486" xlink:show="other" fx="16.086679" fy="13.970486">
            <stop stop-opacity="1" stop-color="#fee964" offset="0"/>
            <stop stop-opacity="0" stop-color="#fee964" offset="1"/>
        </radialGradient>
        <radialGradient gradientTransform="matrix(1.952381,0,0,1.952381,-12.96362,-11.03238)" id="radialGradient2529" gradientUnits="userSpaceOnUse" xlink:show="other" xlink:type="simple" r="1.8561553" cx="13.611806" fx="13.611806" cy="11.584001" fy="11.584001" xlink:actuate="onLoad">
            <stop stop-opacity="1" stop-color="#ffffff" offset="0"/>
            <stop stop-opacity="0" stop-color="#ffffff" offset="1"/>
        </radialGradient>
        <linearGradient x1="11.492236" gradientTransform="matrix(1.238977,0,0,0.895955,5.267331,1.543476)" y1="1.6537577" x2="17.199417" gradientUnits="userSpaceOnUse" y2="26.729263" xlink:type="simple" xlink:actuate="onLoad" id="linearGradient2315" xlink:show="other">
            <stop stop-opacity="1.0000000" stop-color="#ffffff" offset="0.0000000"/>
            <stop stop-opacity="0.0000000" stop-color="#fcfcff" offset="1.0000000"/>
        </linearGradient>
        <linearGradient x1="-35.122688" y1="34.242237" x2="-35.074745" gradientUnits="userSpaceOnUse" y2="30.962345" xlink:type="simple" xlink:actuate="onLoad" id="linearGradient2337" xlink:show="other">
            <stop stop-opacity="1.0000000" stop-color="#ffffff" offset="0.0000000"/>
            <stop stop-opacity="0.0000000" stop-color="#ffffff" offset="1.0000000"/>
        </linearGradient>
        <linearGradient x1="-35.658386" y1="33.416473" x2="-35.658386" gradientUnits="userSpaceOnUse" y2="28.205938" xlink:type="simple" xlink:actuate="onLoad" id="linearGradient2327" xlink:show="other">
            <stop stop-opacity="1" stop-color="#7b7f7a" offset="0"/>
            <stop stop-opacity="0" stop-color="#7b7f7a" offset="1"/>
        </linearGradient>
        <linearGradient x1="10.390738" gradientTransform="matrix(1.104397,0,0,0.905471,4.5,2.875)" y1="5.3817744" x2="32.536823" gradientUnits="userSpaceOnUse" y2="31.246054" xlink:type="simple" xlink:actuate="onLoad" id="linearGradient1561" xlink:show="other">
            <stop stop-opacity="1.0000000" stop-color="#8f8f8f" offset="0.0000000"/>
            <stop stop-opacity="1.0000000" stop-color="#494949" offset="1.0000000"/>
        </linearGradient>
        <linearGradient x1="34.300991" y1="3.9384086" x2="35.520542" gradientUnits="userSpaceOnUse" y2="3.8451097" xlink:type="simple" xlink:actuate="onLoad" id="linearGradient2733" xlink:show="other">
            <stop stop-opacity="1.0000000" stop-color="#909090" offset="0.0000000"/>
            <stop stop-opacity="0.0000000" stop-color="#bebebe" offset="1.0000000"/>
        </linearGradient>
        <linearGradient x1="34.300991" y1="3.9384086" x2="35.520542" gradientUnits="userSpaceOnUse" y2="3.8451097" xlink:type="simple" xlink:actuate="onLoad" id="linearGradient2729" xlink:show="other">
            <stop stop-opacity="1.0000000" stop-color="#909090" offset="0.0000000"/>
            <stop stop-opacity="0.0000000" stop-color="#bebebe" offset="1.0000000"/>
        </linearGradient>
        <linearGradient x1="34.300991" y1="3.9384086" x2="35.520542" gradientUnits="userSpaceOnUse" y2="3.8451097" xlink:type="simple" xlink:actuate="onLoad" id="linearGradient2725" xlink:show="other">
            <stop stop-opacity="1.0000000" stop-color="#909090" offset="0.0000000"/>
            <stop stop-opacity="0.0000000" stop-color="#bebebe" offset="1.0000000"/>
        </linearGradient>
        <linearGradient x1="34.300991" y1="3.9384086" x2="35.520542" gradientUnits="userSpaceOnUse" y2="3.8451097" xlink:type="simple" xlink:actuate="onLoad" id="linearGradient2721" xlink:show="other">
            <stop stop-opacity="1.0000000" stop-color="#909090" offset="0.0000000"/>
            <stop stop-opacity="0.0000000" stop-color="#bebebe" offset="1.0000000"/>
        </linearGradient>
        <linearGradient x1="34.300991" y1="3.9384086" x2="35.520542" gradientUnits="userSpaceOnUse" y2="3.8451097" xlink:type="simple" xlink:actuate="onLoad" id="linearGradient2717" xlink:show="other">
            <stop stop-opacity="1.0000000" stop-color="#909090" offset="0.0000000"/>
            <stop stop-opacity="0.0000000" stop-color="#bebebe" offset="1.0000000"/>
        </linearGradient>
        <linearGradient x1="12.206709" gradientTransform="matrix(1.816345,0,0,1.278927,2.5,-40.24508)" y1="53.535141" x2="12.127711" gradientUnits="userSpaceOnUse" y2="64.892525" xlink:type="simple" xlink:actuate="onLoad" id="linearGradient2707" xlink:show="other">
            <stop stop-opacity="1.0000000" stop-color="#585956" offset="0.0000000"/>
            <stop stop-opacity="1.0000000" stop-color="#bbbeb8" offset="1.0000000"/>
        </linearGradient>
        <linearGradient x1="3.7069976" gradientTransform="matrix(5.705159,0,0,0.17528,5.5,2.195627)" y1="171.29134" x2="3.7069974" gradientUnits="userSpaceOnUse" y2="162.45061" xlink:type="simple" xlink:actuate="onLoad" id="linearGradient2689" xlink:show="other">
            <stop stop-opacity="1" stop-color="#000000" offset="0"/>
            <stop stop-opacity="0" stop-color="#000000" offset="1"/>
        </linearGradient>
        <linearGradient x1="19.150396" gradientTransform="matrix(1.174139,0,0,0.945431,5.221825,1.543476)" y1="32.622238" x2="16.315819" gradientUnits="userSpaceOnUse" y2="8.8666229" xlink:type="simple" xlink:actuate="onLoad" id="linearGradient2681" xlink:show="other">
            <stop stop-opacity="1.0000000" stop-color="#5b5b97" offset="0.0000000"/>
            <stop stop-opacity="1.0000000" stop-color="#1b1b43" offset="1.0000000"/>
        </linearGradient>
        <radialGradient gradientTransform="scale(1.925808,0.519262)" id="radialGradient2460" gradientUnits="userSpaceOnUse" xlink:show="other" xlink:type="simple" r="8.7662794" cx="12.575710" fx="12.575710" cy="67.501709" fy="67.501709" xlink:actuate="onLoad">
            <stop stop-opacity="1" stop-color="#000000" offset="0"/>
            <stop stop-opacity="0" stop-color="#000000" offset="1"/>
        </radialGradient>
        <linearGradient x1="17.698339" gradientTransform="matrix(1.108069,0,0,0.902471,5.5,3.875)" y1="13.004725" x2="34.974548" gradientUnits="userSpaceOnUse" y2="55.200756" xlink:type="simple" xlink:actuate="onLoad" id="linearGradient2421" xlink:show="other">
            <stop stop-opacity="1" stop-color="#ffffff" offset="0"/>
            <stop stop-opacity="0" stop-color="#ffffff" offset="1"/>
        </linearGradient>
        <linearGradient x1="8.6116238" gradientTransform="matrix(1.129863,0,0,0.885063,2.875,1.570628)" y1="7.2293582" x2="34.784473" gradientUnits="userSpaceOnUse" y2="33.339787" xlink:type="simple" xlink:actuate="onLoad" id="linearGradient2251" xlink:show="other">
            <stop stop-opacity="1.0000000" stop-color="#dde1d9" offset="0.0000000"/>
            <stop stop-opacity="1.0000000" stop-color="#cacdc6" offset="1.0000000"/>
        </linearGradient>
        <linearGradient xlink:type="simple" xlink:actuate="onLoad" xlink:show="other">
            <stop stop-opacity="1.0000000" stop-color="#dde1d9" offset="0.0000000"/>
            <stop stop-opacity="1.0000000" stop-color="#cacdc6" offset="1.0000000"/>
        </linearGradient>
        <linearGradient xlink:type="simple" xlink:actuate="onLoad" xlink:show="other">
            <stop stop-opacity="1.0000000" stop-color="#8f8f8f" offset="0.0000000"/>
            <stop stop-opacity="1.0000000" stop-color="#494949" offset="1.0000000"/>
        </linearGradient>
        <linearGradient xlink:type="simple" xlink:actuate="onLoad" xlink:show="other">
            <stop stop-opacity="1" stop-color="#ffffff" offset="0"/>
            <stop stop-opacity="0" stop-color="#ffffff" offset="1"/>
        </linearGradient>
        <linearGradient xlink:type="simple" xlink:actuate="onLoad" xlink:show="other">
            <stop stop-opacity="1" stop-color="#000000" offset="0"/>
            <stop stop-opacity="0" stop-color="#000000" offset="1"/>
        </linearGradient>
        <linearGradient xlink:type="simple" xlink:actuate="onLoad" xlink:show="other">
            <stop stop-opacity="1.0000000" stop-color="#ffffff" offset="0.0000000"/>
            <stop stop-opacity="0.0000000" stop-color="#fcfcff" offset="1.0000000"/>
        </linearGradient>
        <linearGradient xlink:type="simple" xlink:actuate="onLoad" xlink:show="other">
            <stop stop-opacity="1.0000000" stop-color="#5b5b97" offset="0.0000000"/>
            <stop stop-opacity="1.0000000" stop-color="#1b1b43" offset="1.0000000"/>
        </linearGradient>
        <linearGradient xlink:type="simple" xlink:actuate="onLoad" xlink:show="other">
            <stop stop-opacity="1" stop-color="#000000" offset="0"/>
            <stop stop-opacity="0" stop-color="#000000" offset="1"/>
        </linearGradient>
        <linearGradient xlink:type="simple" xlink:actuate="onLoad" xlink:show="other">
            <stop stop-opacity="1.0000000" stop-color="#585956" offset="0.0000000"/>
            <stop stop-opacity="1.0000000" stop-color="#bbbeb8" offset="1.0000000"/>
        </linearGradient>
        <linearGradient xlink:type="simple" xlink:actuate="onLoad" xlink:show="other">
            <stop stop-opacity="1.0000000" stop-color="#909090" offset="0.0000000"/>
            <stop stop-opacity="0.0000000" stop-color="#bebebe" offset="1.0000000"/>
        </linearGradient>
        <linearGradient xlink:type="simple" xlink:actuate="onLoad" xlink:show="other">
            <stop stop-opacity="1" stop-color="#7b7f7a" offset="0"/>
            <stop stop-opacity="0" stop-color="#7b7f7a" offset="1"/>
        </linearGradient>
        <linearGradient xlink:type="simple" xlink:actuate="onLoad" xlink:show="other">
            <stop stop-opacity="1.0000000" stop-color="#ffffff" offset="0.0000000"/>
            <stop stop-opacity="0.0000000" stop-color="#ffffff" offset="1.0000000"/>
        </linearGradient>
        <linearGradient xlink:type="simple" xlink:actuate="onLoad" xlink:show="other">
            <stop stop-opacity="1" stop-color="#ffffff" offset="0"/>
            <stop stop-opacity="0" stop-color="#ffffff" offset="1"/>
        </linearGradient>
        <linearGradient xlink:type="simple" xlink:actuate="onLoad" xlink:show="other">
            <stop stop-opacity="1" stop-color="#fee964" offset="0"/>
            <stop stop-opacity="0" stop-color="#fee964" offset="1"/>
        </linearGradient>
        <linearGradient gradientTransform="matrix(1.104397,0,0,0.905471,-9.6431925,2.875)" id="linearGradient1561" gradientUnits="userSpaceOnUse" xlink:show="other" xlink:type="simple" x1="10.390738" y1="5.3817744" x2="32.536823" y2="31.246054" xlink:actuate="onLoad">
            <stop stop-opacity="1.0000000" stop-color="#8f8f8f" offset="0.0000000"/>
            <stop stop-opacity="1.0000000" stop-color="#494949" offset="1.0000000"/>
        </linearGradient>
        <linearGradient gradientTransform="matrix(1.104397,0,0,0.905471,4.5,2.875)" id="linearGradient3378" gradientUnits="userSpaceOnUse" xlink:show="other" xlink:type="simple" x1="10.390738" y1="5.3817744" y2="31.246054" x2="32.536823" xlink:actuate="onLoad">
            <stop stop-opacity="1.0000000" stop-color="#8f8f8f" offset="0.0000000"/>
            <stop stop-opacity="1.0000000" stop-color="#494949" offset="1.0000000"/>
        </linearGradient>
        <linearGradient gradientTransform="matrix(1.108069,0,0,0.902471,5.5,3.875)" id="linearGradient3385" gradientUnits="userSpaceOnUse" xlink:show="other" xlink:type="simple" x1="17.698339" y1="13.004725" y2="55.200756" x2="34.974548" xlink:actuate="onLoad">
            <stop stop-opacity="1" stop-color="#ffffff" offset="0"/>
            <stop stop-opacity="0" stop-color="#ffffff" offset="1"/>
        </linearGradient>
        <linearGradient gradientTransform="matrix(0.837548,0,0,0.852655,54.17811,11.00615)" id="linearGradient3392" gradientUnits="userSpaceOnUse" xlink:show="other" xlink:type="simple" x1="-35.122688" y1="34.242237" y2="30.962345" x2="-35.074745" xlink:actuate="onLoad">
            <stop stop-opacity="1.0000000" stop-color="#ffffff" offset="0.0000000"/>
            <stop stop-opacity="0.0000000" stop-color="#ffffff" offset="1.0000000"/>
        </linearGradient>
        <linearGradient gradientTransform="matrix(0.902373,0,0,0.82765,56.55215,12.86792)" id="linearGradient3399" gradientUnits="userSpaceOnUse" xlink:show="other" xlink:type="simple" x1="-35.658386" y1="33.416473" y2="28.205938" x2="-35.658386" xlink:actuate="onLoad">
            <stop stop-opacity="1" stop-color="#7b7f7a" offset="0"/>
            <stop stop-opacity="0" stop-color="#7b7f7a" offset="1"/>
        </linearGradient>
    </defs>
    <g transform="matrix(1.4141079,0,0,1.4141079,6.8644525,3.16685)">
        <path fill-opacity="0.50857143" display="inline" stroke="none" d="M 41.10058 35.051105 C 41.102844 36.677784 37.885616 38.181164 32.661324 38.99468 C 27.43703 39.808197 20.99978 39.808197 15.775488 38.99468 C 10.551194 38.181164 7.3339663 36.677784 7.3362336 35.051105 C 7.3339663 33.424427 10.551194 31.92105 15.775488 31.107533 C 20.99978 30.294016 27.43703 30.294016 32.661324 31.107533 C 37.885616 31.92105 41.102844 33.424427 41.10058 35.051105 z " visibility="visible" stroke-linecap="round" transform="matrix(1.050251,0,0,1.867888,-0.945558,-28.10611)" stroke-miterlimit="4" stroke-opacity="0.70063692" fill="url(#radialGradient2460)" stroke-width="1" color="#000000" stroke-linejoin="miter" stroke-dashoffset="0" fill-rule="evenodd"/>
        <path fill-opacity="1" display="inline" stroke="#4b4d4a" d="M -26.263968 29.716238 C -26.261827 31.124315 -28.051926 32.42582 -30.959448 33.13012 C -33.86697 33.83442 -37.4498 33.83442 -40.357323 33.13012 C -43.264843 32.42582 -45.054943 31.124315 -45.052803 29.716238 C -45.054943 28.30816 -43.264843 27.006657 -40.357323 26.302357 C -37.4498 25.59806 -33.86697 25.59806 -30.959448 26.302357 C -28.051926 27.006657 -26.261827 28.30816 -26.263968 29.716238 z " visibility="visible" stroke-linecap="butt" transform="translate(60.03339,8.07843)" stroke-miterlimit="4" stroke-opacity="1" fill="#adb0aa" stroke-width="1" color="#000000" stroke-linejoin="miter" stroke-dashoffset="0" fill-rule="evenodd"/>
        <path fill-opacity="1" display="inline" stroke="none" d="M 24.376911 33.71435 C 22.87512 33.71435 21.365566 33.877857 20.006044 34.17991 C 18.64652 34.48196 17.546549 34.906025 16.734941 35.447247 C 15.923334 35.98847 15.38008 36.6788 15.381382 37.464645 C 15.38008 38.25049 15.923334 38.94082 16.734941 39.48204 C 17.546549 40.02326 18.64652 40.447327 20.006044 40.74938 C 22.725088 41.353485 26.028736 41.353485 28.747782 40.74938 C 30.107304 40.447327 31.207275 40.02326 32.018883 39.48204 C 32.83049 38.94082 33.373745 38.25049 33.372444 37.464645 C 33.37375 36.6788 32.83049 35.98847 32.018883 35.447247 C 31.207275 34.906025 30.107304 34.48196 28.747782 34.17991 C 27.38826 33.877857 25.878704 33.71435 24.376911 33.71435 z M 24.376911 34.671326 C 25.80348 34.671326 27.229843 34.83015 28.49399 35.111015 C 29.758137 35.391876 30.747005 35.78872 31.398504 36.223167 C 32.05 36.65762 32.329704 37.08509 32.329075 37.464645 C 32.329704 37.844196 32.05 38.271667 31.398504 38.70612 C 30.747005 39.140568 29.758137 39.53741 28.49399 39.81827 C 25.965696 40.38 22.788128 40.379997 20.259836 39.81827 C 18.99569 39.53741 17.97862 39.140568 17.327124 38.70612 C 16.675627 38.271667 16.424122 37.844196 16.424751 37.464645 C 16.424122 37.08509 16.675627 36.65762 17.327124 36.223167 C 17.97862 35.78872 18.995691 35.391876 20.259836 35.111015 C 21.523981 34.83015 22.950344 34.671326 24.376911 34.671326 z " visibility="visible" stroke-linecap="butt" stroke-miterlimit="4" stroke-opacity="1" fill="url(#linearGradient3399)" stroke-width="1.15713382" color="#000000" stroke-linejoin="miter" stroke-dashoffset="0" fill-rule="evenodd"/>
        <path fill-opacity="1" display="inline" stroke="none" d="M 24.314287 32.4824 C 22.919592 32.4824 21.520275 32.623947 20.257416 32.93537 C 18.994558 33.246796 17.950115 33.708824 17.195131 34.267643 C 16.440145 34.826466 15.937594 35.531666 15.938809 36.345993 C 15.937594 37.160316 16.440145 37.86552 17.195131 38.424335 C 17.950115 38.983154 18.994558 39.445183 20.257416 39.75661 C 22.783134 40.37946 25.845444 40.37946 28.371162 39.75661 C 29.63402 39.445183 30.652288 38.983154 31.407274 38.424335 C 32.16226 37.86552 32.66481 37.160316 32.663597 36.345993 C 32.66481 35.531666 32.16226 34.826466 31.407274 34.267643 C 30.652288 33.708824 29.63402 33.246796 28.371162 32.93537 C 27.108303 32.623947 25.708984 32.4824 24.314287 32.4824 z M 24.314287 33.494926 C 25.637585 33.494926 26.963272 33.632153 28.135603 33.921253 C 29.307932 34.210354 30.228449 34.620674 30.83146 35.06701 C 31.434471 35.51334 31.695759 35.95971 31.69518 36.345993 C 31.695759 36.732273 31.434471 37.17864 30.83146 37.624973 C 30.228449 38.071304 29.307932 38.48163 28.135603 38.77073 C 25.790941 39.348927 22.837637 39.348927 20.492975 38.77073 C 19.320648 38.48163 18.40013 38.071304 17.79712 37.624973 C 17.194107 37.17864 16.93282 36.732273 16.933395 36.345993 C 16.93282 35.95971 17.194107 35.51334 17.79712 35.06701 C 18.40013 34.620674 19.320648 34.210354 20.492975 33.921253 C 21.665306 33.632153 22.990992 33.494926 24.314287 33.494926 z " visibility="visible" stroke-linecap="butt" stroke-miterlimit="4" stroke-opacity="1" fill="url(#linearGradient3392)" stroke-width="1.18333709" color="#000000" stroke-linejoin="miter" stroke-dashoffset="0" fill-rule="evenodd"/>
        <rect fill-opacity="1" display="inline" stroke="none" visibility="visible" stroke-linecap="butt" width="9.0396729" stroke-miterlimit="4" stroke-opacity="1" fill="url(#linearGradient2707)" stroke-width="0.60872948" color="#000000" height="6.3650389" x="19.972397" stroke-linejoin="miter" y="31.078613" stroke-dashoffset="0" fill-rule="evenodd"/>
        <path fill-opacity="1" display="inline" stroke="none" d="M 7.5809026 4.570622 L 41.169098 4.570622 C 42.08044 4.570622 42.793243 5.154104 42.83585 5.972209 L 44.167892 31.550323 C 44.226105 32.668056 43.26683 33.57063 42.147587 33.57063 L 6.602412 33.57063 C 5.483163 33.57063 4.523898 32.668056 4.5821066 31.550323 L 5.91415 5.972209 C 5.9544344 5.198674 6.461653 4.570622 7.5809026 4.570622 z " visibility="visible" stroke-linecap="butt" stroke-miterlimit="4" stroke-opacity="1" fill="url(#linearGradient2251)" stroke-width="1" color="#000000" stroke-linejoin="miter" stroke-dashoffset="0" fill-rule="evenodd"/>
        <path stroke-linecap="butt" fill-opacity="1" fill="url(#linearGradient2681)" fill-rule="evenodd" stroke-linejoin="round" stroke-dasharray="none" d="M 8.910535 7.180827 L 7.6683393 29.226145 L 39.31873 29.226145 L 37.98371 7.274256 L 8.910535 7.180827 z " stroke="#000079" stroke-width="0.5" stroke-opacity="1" stroke-miterlimit="4"/>
        <path stroke-linecap="round" fill-opacity="0.75" fill="none" fill-rule="evenodd" stroke-linejoin="miter" d="M 6.677433 31.610788 L 42.10591 31.610788 " stroke="url(#linearGradient2689)" stroke-width="0.99618119" stroke-opacity="0.24840764" stroke-miterlimit="4"/>
        <path fill-opacity="0.70063692" display="inline" stroke="none" d="M 41.25 5.03125 L 7.40625 5.09375 C 7.1257305 5.094063 6.7628417 5.246695 6.59375 5.53125 C 6.424659 5.815805 6.395808 6.0838366 6.375 6.46875 L 5.03125 30.96875 C 4.9978094 31.587362 5.141486 32.15828 5.5 32.59375 C 5.858514 33.02922 6.4497 33.281254 7.09375 33.28125 L 41.59375 33.28125 C 42.23781 33.28125 42.81208 33.05487 43.1875 32.625 C 43.56292 32.19513 43.753265 31.597376 43.71875 30.96875 L 42.34375 6.15625 C 42.309425 5.531164 41.81319 5.0306206 41.25 5.03125 z M 41.25 6.03125 C 41.254208 6.031245 41.332462 6.013248 41.34375 6.21875 L 42.71875 31.03125 C 42.74227 31.459652 42.61112 31.769943 42.4375 31.96875 C 42.26388 32.167557 42.008312 32.28125 41.59375 32.28125 L 7.09375 32.28125 C 6.6791778 32.281254 6.4403024 32.161945 6.28125 31.96875 C 6.1221976 31.775557 6.0075474 31.469719 6.03125 31.03125 L 7.375 6.53125 C 7.390687 6.2410617 7.42684 6.129657 7.4375 6.09375 L 41.25 6.03125 z " visibility="visible" stroke-linecap="butt" stroke-miterlimit="4" stroke-opacity="1" fill="url(#linearGradient3385)" stroke-width="0.99999964" color="#000000" stroke-linejoin="miter" stroke-dashoffset="0" fill-rule="evenodd"/>
        <path stroke-linecap="butt" fill-opacity="0.53142856" fill="url(#linearGradient2315)" fill-rule="evenodd" stroke-linejoin="miter" d="M 9.388312 7.621363 L 8.585783 25.491692 C 19.63042 23.091064 24.007246 14.999494 37.739815 12.344943 L 37.578342 7.687427 L 9.388312 7.621363 z " stroke="none" stroke-width="0.25pt" stroke-opacity="1"/>
        <path fill-opacity="1" display="inline" stroke="none" d="M 35.620502 3.9384089 C 35.621143 4.2388268 35.46124 4.5166984 35.201176 4.6670923 C 34.941113 4.8174863 34.62052 4.8174863 34.360455 4.6670923 C 34.10039 4.5166984 33.940487 4.2388268 33.941128 3.9384089 C 33.940487 3.6379912 34.10039 3.360119 34.360455 3.2097254 C 34.62052 3.0593314 34.941113 3.0593314 35.201176 3.2097254 C 35.46124 3.360119 35.621143 3.6379912 35.620502 3.9384089 z " visibility="visible" stroke-linecap="butt" transform="matrix(1.331237,0,0,0.658449,-5.91933,5.728866)" stroke-miterlimit="4" stroke-opacity="1" fill="url(#linearGradient2717)" stroke-width="0.5" color="#000000" stroke-linejoin="miter" stroke-dashoffset="0" fill-rule="evenodd"/>
        <path fill-opacity="1" display="inline" stroke="none" d="M 35.620502 3.9384089 C 35.621143 4.2388268 35.46124 4.5166984 35.201176 4.6670923 C 34.941113 4.8174863 34.62052 4.8174863 34.360455 4.6670923 C 34.10039 4.5166984 33.940487 4.2388268 33.941128 3.9384089 C 33.940487 3.6379912 34.10039 3.360119 34.360455 3.2097254 C 34.62052 3.0593314 34.941113 3.0593314 35.201176 3.2097254 C 35.46124 3.360119 35.621143 3.6379912 35.620502 3.9384089 z " visibility="visible" stroke-linecap="butt" transform="matrix(1.331237,0,0,0.658449,-5.80573,7.83465)" stroke-miterlimit="4" stroke-opacity="1" fill="url(#linearGradient2721)" stroke-width="0.5" color="#000000" stroke-linejoin="miter" stroke-dashoffset="0" fill-rule="evenodd"/>
        <path fill-opacity="1" display="inline" stroke="none" d="M 35.620502 3.9384089 C 35.621143 4.2388268 35.46124 4.5166984 35.201176 4.6670923 C 34.941113 4.8174863 34.62052 4.8174863 34.360455 4.6670923 C 34.10039 4.5166984 33.940487 4.2388268 33.941128 3.9384089 C 33.940487 3.6379912 34.10039 3.360119 34.360455 3.2097254 C 34.62052 3.0593314 34.941113 3.0593314 35.201176 3.2097254 C 35.46124 3.360119 35.621143 3.6379912 35.620502 3.9384089 z " visibility="visible" stroke-linecap="butt" transform="matrix(1.331237,0,0,0.658449,-5.69213,9.83465)" stroke-miterlimit="4" stroke-opacity="1" fill="url(#linearGradient2725)" stroke-width="0.5" color="#000000" stroke-linejoin="miter" stroke-dashoffset="0" fill-rule="evenodd"/>
        <path fill-opacity="1" display="inline" stroke="none" d="M 35.620502 3.9384089 C 35.621143 4.2388268 35.46124 4.5166984 35.201176 4.6670923 C 34.941113 4.8174863 34.62052 4.8174863 34.360455 4.6670923 C 34.10039 4.5166984 33.940487 4.2388268 33.941128 3.9384089 C 33.940487 3.6379912 34.10039 3.360119 34.360455 3.2097254 C 34.62052 3.0593314 34.941113 3.0593314 35.201176 3.2097254 C 35.46124 3.360119 35.621143 3.6379912 35.620502 3.9384089 z " visibility="visible" stroke-linecap="butt" transform="matrix(1.331237,0,0,0.658449,-5.57853,11.83465)" stroke-miterlimit="4" stroke-opacity="1" fill="url(#linearGradient2729)" stroke-width="0.5" color="#000000" stroke-linejoin="miter" stroke-dashoffset="0" fill-rule="evenodd"/>
        <path fill-opacity="1" display="inline" stroke="none" d="M 35.620502 3.9384089 C 35.621143 4.2388268 35.46124 4.5166984 35.201176 4.6670923 C 34.941113 4.8174863 34.62052 4.8174863 34.360455 4.6670923 C 34.10039 4.5166984 33.940487 4.2388268 33.941128 3.9384089 C 33.940487 3.6379912 34.10039 3.360119 34.360455 3.2097254 C 34.62052 3.0593314 34.941113 3.0593314 35.201176 3.2097254 C 35.46124 3.360119 35.621143 3.6379912 35.620502 3.9384089 z " visibility="visible" stroke-linecap="butt" transform="matrix(1.331237,0,0,0.658449,-5.46493,13.83465)" stroke-miterlimit="4" stroke-opacity="1" fill="url(#linearGradient2733)" stroke-width="0.5" color="#000000" stroke-linejoin="miter" stroke-dashoffset="0" fill-rule="evenodd"/>
        <path text-anchor="start" fill-opacity="1" stroke="none" d="M 22.5 30.192663 L 22.781715 30.192663 C 22.86548 30.192669 22.9297 30.21133 22.974377 30.248655 C 23.019344 30.28569 23.041828 30.338594 23.04183 30.40737 C 23.041828 30.47644 23.019344 30.529638 22.974377 30.566963 C 22.9297 30.603998 22.86548 30.622517 22.781715 30.622517 L 22.669737 30.622517 L 22.669737 30.850883 L 22.5 30.850883 L 22.5 30.192663 M 22.669737 30.315668 L 22.669737 30.499512 L 22.76364 30.499512 C 22.796558 30.499512 22.82198 30.491575 22.839912 30.475704 C 22.85784 30.45954 22.866804 30.436762 22.866804 30.40737 C 22.866804 30.37798 22.85784 30.355349 22.839912 30.339476 C 22.82198 30.323605 22.796558 30.315668 22.76364 30.315668 L 22.669737 30.315668 M 23.46198 30.303764 C 23.41025 30.303766 23.370132 30.32287 23.34162 30.361078 C 23.313112 30.399288 23.298857 30.453074 23.298857 30.522436 C 23.298857 30.591509 23.313112 30.645144 23.34162 30.683355 C 23.370132 30.721563 23.41025 30.740667 23.46198 30.740667 C 23.514 30.740667 23.554268 30.721563 23.58278 30.683355 C 23.611288 30.645144 23.62554 30.591509 23.625542 30.522436 C 23.62554 30.453074 23.611288 30.399288 23.58278 30.361078 C 23.554268 30.32287 23.514 30.303766 23.46198 30.303764 M 23.46198 30.18076 C 23.567787 30.180763 23.650673 30.211037 23.71063 30.271582 C 23.770588 30.332129 23.800568 30.415749 23.800568 30.522436 C 23.800568 30.628834 23.770588 30.712303 23.71063 30.772852 C 23.650673 30.8334 23.567787 30.863672 23.46198 30.863672 C 23.356464 30.863672 23.27358 30.8334 23.213327 30.772852 C 23.15337 30.712303 23.123392 30.628834 23.123392 30.522436 C 23.123392 30.415749 23.15337 30.332129 23.213327 30.271582 C 23.27358 30.211037 23.356464 30.180763 23.46198 30.18076 M 23.92842 30.192663 L 24.117994 30.192663 L 24.357388 30.644115 L 24.357388 30.192663 L 24.518305 30.192663 L 24.518305 30.850883 L 24.32873 30.850883 L 24.089338 30.399431 L 24.089338 30.850883 L 23.92842 30.850883 L 23.92842 30.192663 M 24.591488 30.192663 L 24.777096 30.192663 L 24.926992 30.427208 L 25.076887 30.192663 L 25.262936 30.192663 L 25.01208 30.573578 L 25.01208 30.850883 L 24.842344 30.850883 L 24.842344 30.573578 L 24.591488 30.192663 " font-variant="normal" stroke-linecap="butt" stroke-opacity="1" fill="#4a4a4a" font-weight="bold" stroke-width="1pt" font-family="Bitstream Vera Sans" font-style="normal" stroke-linejoin="miter" font-stretch="normal" font-size="0.9029026px"/>
        <path fill-opacity="1" display="inline" stroke="#edd400" d="M 32.80312 13.315819 C 34.47257 20.995363 29.513748 25.454548 21.3557 20.989296 C 21.982796 23.339369 23.622335 25.369877 26.108051 26.170364 C 29.996365 27.422537 34.167355 25.283571 35.41953 21.395262 C 36.407272 18.32807 35.229874 15.16364 32.80312 13.315819 z " visibility="visible" stroke-linecap="butt" stroke-miterlimit="4" stroke-opacity="1" fill="#fce94f" stroke-dasharray="none" stroke-width="0.99999958" color="#000000" stroke-linejoin="miter" stroke-dashoffset="0" fill-rule="nonzero"/>
        <g>
            <path fill-opacity="1" display="inline" stroke="none" d="M 17.854446 13.970486 C 17.85491 14.602357 17.518078 15.186429 16.970938 15.502499 C 16.4238 15.818568 15.749561 15.818568 15.202422 15.502499 C 14.655282 15.186429 14.318449 14.602357 14.318913 13.970486 C 14.318449 13.338614 14.655282 12.754542 15.202422 12.438473 C 15.749561 12.122403 16.4238 12.122403 16.970938 12.438473 C 17.518078 12.754542 17.85491 13.338614 17.854446 13.970486 z " visibility="visible" stroke-linecap="butt" transform="translate(-2.474874,-2.386485)" stroke-miterlimit="4" stroke-opacity="1" fill="url(#radialGradient2547)" stroke-dasharray="none" stroke-width="2" color="#000000" stroke-linejoin="miter" stroke-dashoffset="0" fill-rule="nonzero"/>
            <path fill-opacity="1" display="inline" stroke="none" d="M 16.970564 11.584001 L 13.930592 11.85101 L 13.611806 14.942758 L 13.344797 11.902786 L 10.253049 11.584001 L 13.29302 11.316992 L 13.611806 8.225244 L 13.878815 11.265215 L 16.970564 11.584001 z " visibility="visible" stroke-linecap="butt" stroke-miterlimit="4" stroke-opacity="1" fill="url(#radialGradient2529)" stroke-dasharray="none" stroke-width="1" color="#000000" stroke-linejoin="miter" stroke-dashoffset="0" fill-rule="nonzero"/>
        </g>
        <g transform="matrix(0.631579,0,0,0.631579,12.96983,3.73746)">
            <path fill-opacity="1" display="inline" stroke="none" d="M 17.854446 13.970486 C 17.85491 14.602357 17.518078 15.186429 16.970938 15.502499 C 16.4238 15.818568 15.749561 15.818568 15.202422 15.502499 C 14.655282 15.186429 14.318449 14.602357 14.318913 13.970486 C 14.318449 13.338614 14.655282 12.754542 15.202422 12.438473 C 15.749561 12.122403 16.4238 12.122403 16.970938 12.438473 C 17.518078 12.754542 17.85491 13.338614 17.854446 13.970486 z " visibility="visible" stroke-linecap="butt" transform="translate(-2.474874,-2.386485)" stroke-miterlimit="4" stroke-opacity="1" fill="url(#radialGradient2559)" stroke-dasharray="none" stroke-width="2" color="#000000" stroke-linejoin="miter" stroke-dashoffset="0" fill-rule="nonzero"/>
            <path fill-opacity="1" display="inline" stroke="none" d="M 16.970564 11.584001 L 13.930592 11.85101 L 13.611806 14.942758 L 13.344797 11.902786 L 10.253049 11.584001 L 13.29302 11.316992 L 13.611806 8.225244 L 13.878815 11.265215 L 16.970564 11.584001 z " visibility="visible" stroke-linecap="butt" stroke-miterlimit="4" stroke-opacity="1" fill="url(#radialGradient2561)" stroke-dasharray="none" stroke-width="1" color="#000000" stroke-linejoin="miter" stroke-dashoffset="0" fill-rule="nonzero"/>
        </g>
        <g transform="matrix(0.631579,0,0,0.631579,9.611074,9.836256)">
            <path fill-opacity="1" display="inline" stroke="none" d="M 17.854446 13.970486 C 17.85491 14.602357 17.518078 15.186429 16.970938 15.502499 C 16.4238 15.818568 15.749561 15.818568 15.202422 15.502499 C 14.655282 15.186429 14.318449 14.602357 14.318913 13.970486 C 14.318449 13.338614 14.655282 12.754542 15.202422 12.438473 C 15.749561 12.122403 16.4238 12.122403 16.970938 12.438473 C 17.518078 12.754542 17.85491 13.338614 17.854446 13.970486 z " visibility="visible" stroke-linecap="butt" transform="translate(-2.474874,-2.386485)" stroke-miterlimit="4" stroke-opacity="1" fill="url(#radialGradient2569)" stroke-dasharray="none" stroke-width="2" color="#000000" stroke-linejoin="miter" stroke-dashoffset="0" fill-rule="nonzero"/>
            <path fill-opacity="1" display="inline" stroke="none" d="M 16.970564 11.584001 L 13.930592 11.85101 L 13.611806 14.942758 L 13.344797 11.902786 L 10.253049 11.584001 L 13.29302 11.316992 L 13.611806 8.225244 L 13.878815 11.265215 L 16.970564 11.584001 z " visibility="visible" stroke-linecap="butt" stroke-miterlimit="4" stroke-opacity="1" fill="url(#radialGradient2571)" stroke-dasharray="none" stroke-width="1" color="#000000" stroke-linejoin="miter" stroke-dashoffset="0" fill-rule="nonzero"/>
        </g>
        <g transform="matrix(0.631579,0,0,0.631579,4.484549,11.51563)">
            <path fill-opacity="1" display="inline" stroke="none" d="M 17.854446 13.970486 C 17.85491 14.602357 17.518078 15.186429 16.970938 15.502499 C 16.4238 15.818568 15.749561 15.818568 15.202422 15.502499 C 14.655282 15.186429 14.318449 14.602357 14.318913 13.970486 C 14.318449 13.338614 14.655282 12.754542 15.202422 12.438473 C 15.749561 12.122403 16.4238 12.122403 16.970938 12.438473 C 17.518078 12.754542 17.85491 13.338614 17.854446 13.970486 z " visibility="visible" stroke-linecap="butt" transform="translate(-2.474874,-2.386485)" stroke-miterlimit="4" stroke-opacity="1" fill="url(#radialGradient2582)" stroke-dasharray="none" stroke-width="2" color="#000000" stroke-linejoin="miter" stroke-dashoffset="0" fill-rule="nonzero"/>
            <path fill-opacity="1" display="inline" stroke="none" d="M 16.970564 11.584001 L 13.930592 11.85101 L 13.611806 14.942758 L 13.344797 11.902786 L 10.253049 11.584001 L 13.29302 11.316992 L 13.611806 8.225244 L 13.878815 11.265215 L 16.970564 11.584001 z " visibility="visible" stroke-linecap="butt" stroke-miterlimit="4" stroke-opacity="1" fill="url(#radialGradient2584)" stroke-dasharray="none" stroke-width="1" color="#000000" stroke-linejoin="miter" stroke-dashoffset="0" fill-rule="nonzero"/>
        </g>
        <path fill-opacity="1" display="inline" stroke="none" d="M 7.580693 4.0625 C 6.9275446 4.0625 6.3653307 4.2717333 5.9869423 4.625 C 5.6085544 4.9782667 5.4498873 5.4489083 5.4244423 5.9375 L 4.0806923 31.53125 C 4.0069194 32.947857 5.22389 34.0625 6.6119423 34.0625 L 42.143192 34.0625 C 43.531242 34.0625 44.748222 32.94786 44.674442 31.53125 L 43.330692 5.9375 C 43.273663 4.8424754 42.2992 4.0625 41.174442 4.0625 L 7.580693 4.0625 z M 7.580693 5.0625 L 41.174442 5.0625 C 41.872368 5.0625 42.30251 5.4588146 42.330692 6.0 L 43.674442 31.5625 C 43.71709 32.381355 42.993637 33.0625 42.143192 33.0625 L 6.6119423 33.0625 C 5.761497 33.0625 5.0380483 32.38136 5.0806923 31.5625 L 6.4244423 6.0 C 6.4392815 5.715057 6.509338 5.497893 6.6744423 5.34375 C 6.839547 5.189607 7.11459 5.0625 7.580693 5.0625 z " visibility="visible" stroke-linecap="butt" stroke-miterlimit="4" stroke-opacity="1" fill="url(#linearGradient3378)" stroke-width="1" color="#000000" stroke-linejoin="miter" stroke-dashoffset="0" fill-rule="evenodd"/>
    </g>
</svg>
