<?xml version="1.0" encoding="UTF-8"?>
<svg xmlns="http://www.w3.org/2000/svg" xmlns:xlink="http://www.w3.org/1999/xlink" contentScriptType="text/ecmascript" width="88" baseProfile="tiny" zoomAndPan="magnify" contentStyleType="text/css" viewBox="0 0 88 88" height="88" preserveAspectRatio="xMidYMid meet" version="1.0">
    <defs>
        <radialGradient gradientTransform="matrix(1.000000,0.000000,0.000000,0.242494,1.565588e-16,31.50606)" gradientUnits="userSpaceOnUse" xlink:type="simple" r="19.136078" xlink:actuate="onLoad" cx="24.35099" cy="41.591846" xlink:show="other" fx="24.35099" fy="41.591846">
            <stop stop-opacity="1" stop-color="#000000" offset="0"/>
            <stop stop-opacity="0" stop-color="#000000" offset="1"/>
        </radialGradient>
        <linearGradient x1="22.175976" y1="36.987999" x2="22.065331" gradientUnits="userSpaceOnUse" y2="32.050499" xlink:type="simple" xlink:actuate="onLoad" xlink:show="other">
            <stop stop-opacity="1" stop-color="#6194cb" offset="0"/>
            <stop stop-opacity="1" stop-color="#729fcf" offset="1"/>
        </linearGradient>
        <linearGradient x1="18.112709" y1="31.367750" x2="15.514889" gradientUnits="userSpaceOnUse" y2="6.1802502" xlink:type="simple" xlink:actuate="onLoad" xlink:show="other">
            <stop stop-opacity="1" stop-color="#424242" offset="0"/>
            <stop stop-opacity="1.0000000" stop-color="#777777" offset="1.0000000"/>
        </linearGradient>
        <linearGradient x1="13.035696" gradientTransform="matrix(1.317489,0,0,0.816256,-0.879573,-1.3181659)" y1="32.567184" x2="12.853771" gradientUnits="userSpaceOnUse" y2="46.689312" xlink:type="simple" xlink:actuate="onLoad" xlink:show="other">
            <stop stop-opacity="0.35051546" stop-color="#ffffff" offset="0"/>
            <stop stop-opacity="0" stop-color="#ffffff" offset="1"/>
        </linearGradient>
        <linearGradient x1="6.2297964" gradientTransform="matrix(1.516844,0,0,0.708978,-0.879573,-1.318166)" y1="13.773066" x2="9.8980894" gradientUnits="userSpaceOnUse" y2="66.834053" xlink:type="simple" xlink:actuate="onLoad" xlink:show="other">
            <stop stop-opacity="0.87628865" stop-color="#ffffff" offset="0.0000000"/>
            <stop stop-opacity="0.0000000" stop-color="#fffffe" offset="1.0000000"/>
        </linearGradient>
        <linearGradient xlink:type="simple" xlink:actuate="onLoad" xlink:show="other">
            <stop stop-opacity="0.87628865" stop-color="#ffffff" offset="0.0000000"/>
            <stop stop-opacity="0.0000000" stop-color="#fffffe" offset="1.0000000"/>
        </linearGradient>
        <radialGradient gradientTransform="matrix(1.055022,-2.734504e-2,0.177703,1.190929,-3.572177,-7.125301)" gradientUnits="userSpaceOnUse" xlink:type="simple" r="30.905205" xlink:actuate="onLoad" cx="20.706017" cy="37.517986" xlink:show="other" fx="20.706017" fy="37.517986">
            <stop stop-opacity="1.0000000" stop-color="#202020" offset="0.0000000"/>
            <stop stop-opacity="1.0000000" stop-color="#b9b9b9" offset="1.0000000"/>
        </radialGradient>
        <linearGradient xlink:type="simple" xlink:actuate="onLoad" xlink:show="other">
            <stop stop-opacity="1.0000000" stop-color="#202020" offset="0.0000000"/>
            <stop stop-opacity="1.0000000" stop-color="#b9b9b9" offset="1.0000000"/>
        </linearGradient>
        <linearGradient xlink:type="simple" xlink:actuate="onLoad" xlink:show="other">
            <stop stop-opacity="1" stop-color="#ffffff" offset="0"/>
            <stop stop-opacity="0" stop-color="#ffffff" offset="1"/>
        </linearGradient>
        <linearGradient xlink:type="simple" xlink:actuate="onLoad" xlink:show="other">
            <stop stop-opacity="1" stop-color="#424242" offset="0"/>
            <stop stop-opacity="1.0000000" stop-color="#777777" offset="1.0000000"/>
        </linearGradient>
        <linearGradient xlink:type="simple" xlink:actuate="onLoad" xlink:show="other">
            <stop stop-opacity="1" stop-color="#6194cb" offset="0"/>
            <stop stop-opacity="1" stop-color="#729fcf" offset="1"/>
        </linearGradient>
        <linearGradient xlink:type="simple" xlink:actuate="onLoad" xlink:show="other">
            <stop stop-opacity="1" stop-color="#000000" offset="0"/>
            <stop stop-opacity="0" stop-color="#000000" offset="1"/>
        </linearGradient>
        <linearGradient x1="302.85715" gradientTransform="matrix(2.774389,0,0,1.969706,-1892.179,-872.8854)" y1="366.64789" x2="302.85715" gradientUnits="userSpaceOnUse" y2="609.50507" xlink:type="simple" xlink:actuate="onLoad" xlink:show="other">
            <stop stop-opacity="0" stop-color="#000000" offset="0"/>
            <stop stop-opacity="1" stop-color="#000000" offset="0.5"/>
            <stop stop-opacity="0" stop-color="#000000" offset="1"/>
        </linearGradient>
        <linearGradient xlink:type="simple" xlink:actuate="onLoad" xlink:show="other">
            <stop stop-opacity="0" stop-color="#000000" offset="0"/>
            <stop stop-opacity="1" stop-color="#000000" offset="0.5"/>
            <stop stop-opacity="0" stop-color="#000000" offset="1"/>
        </linearGradient>
        <radialGradient gradientTransform="matrix(2.774389,0,0,1.969706,-1891.633,-872.8854)" gradientUnits="userSpaceOnUse" xlink:type="simple" r="117.14286" xlink:actuate="onLoad" cx="605.71429" cy="486.64789" xlink:show="other" fx="605.71429" fy="486.64789">
            <stop stop-opacity="1" stop-color="#000000" offset="0"/>
            <stop stop-opacity="0" stop-color="#000000" offset="1"/>
        </radialGradient>
        <linearGradient xlink:type="simple" xlink:actuate="onLoad" xlink:show="other">
            <stop stop-opacity="1" stop-color="#000000" offset="0"/>
            <stop stop-opacity="0" stop-color="#000000" offset="1"/>
        </linearGradient>
        <radialGradient gradientTransform="matrix(-2.774389,0,0,1.969706,112.7623,-872.8854)" gradientUnits="userSpaceOnUse" xlink:type="simple" r="117.14286" xlink:actuate="onLoad" cx="605.71429" cy="486.64789" xlink:show="other" fx="605.71429" fy="486.64789">
            <stop stop-opacity="1" stop-color="#000000" offset="0"/>
            <stop stop-opacity="0" stop-color="#000000" offset="1"/>
        </radialGradient>
        <linearGradient x1="302.85715" gradientTransform="matrix(2.774389,0,0,1.969706,-1892.179,-872.8854)" y1="366.64789" x2="302.85715" gradientUnits="userSpaceOnUse" y2="609.50507" xlink:type="simple" xlink:actuate="onLoad" id="linearGradient3266" xlink:show="other">
            <stop stop-opacity="0" stop-color="#000000" offset="0"/>
            <stop stop-opacity="1" stop-color="#000000" offset="0.5"/>
            <stop stop-opacity="0" stop-color="#000000" offset="1"/>
        </linearGradient>
        <radialGradient gradientTransform="matrix(2.774389,0,0,1.969706,-1891.633,-872.8854)" id="radialGradient3268" gradientUnits="userSpaceOnUse" xlink:show="other" xlink:type="simple" r="117.14286" cx="605.71429" fx="605.71429" cy="486.64789" fy="486.64789" xlink:actuate="onLoad">
            <stop stop-opacity="1" stop-color="#000000" offset="0"/>
            <stop stop-opacity="0" stop-color="#000000" offset="1"/>
        </radialGradient>
        <radialGradient gradientTransform="matrix(-2.774389,0,0,1.969706,112.7623,-872.8854)" id="radialGradient3270" gradientUnits="userSpaceOnUse" xlink:show="other" xlink:type="simple" r="117.14286" cx="605.71429" fx="605.71429" cy="486.64789" fy="486.64789" xlink:actuate="onLoad">
            <stop stop-opacity="1" stop-color="#000000" offset="0"/>
            <stop stop-opacity="0" stop-color="#000000" offset="1"/>
        </radialGradient>
        <radialGradient gradientTransform="matrix(1.055022,-2.734504e-2,0.177703,1.190929,-3.572177,-7.125301)" gradientUnits="userSpaceOnUse" xlink:type="simple" r="30.905205" xlink:actuate="onLoad" cx="20.706017" cy="37.517986" xlink:show="other" fx="20.706017" fy="37.517986">
            <stop stop-opacity="1.0000000" stop-color="#202020" offset="0.0000000"/>
            <stop stop-opacity="1.0000000" stop-color="#b9b9b9" offset="1.0000000"/>
        </radialGradient>
        <linearGradient x1="18.112709" y1="31.367750" x2="15.514889" gradientUnits="userSpaceOnUse" y2="6.1802502" xlink:type="simple" xlink:actuate="onLoad" xlink:show="other">
            <stop stop-opacity="1" stop-color="#424242" offset="0"/>
            <stop stop-opacity="1.0000000" stop-color="#777777" offset="1.0000000"/>
        </linearGradient>
        <linearGradient x1="6.2297964" gradientTransform="matrix(1.516844,0,0,0.708978,-0.879573,-1.318166)" y1="13.773066" x2="9.8980894" gradientUnits="userSpaceOnUse" y2="66.834053" xlink:type="simple" xlink:actuate="onLoad" xlink:show="other">
            <stop stop-opacity="0.87628865" stop-color="#ffffff" offset="0.0000000"/>
            <stop stop-opacity="0.0000000" stop-color="#fffffe" offset="1.0000000"/>
        </linearGradient>
        <linearGradient x1="22.175976" y1="36.987999" x2="22.065331" gradientUnits="userSpaceOnUse" y2="32.050499" xlink:type="simple" xlink:actuate="onLoad" xlink:show="other">
            <stop stop-opacity="1" stop-color="#6194cb" offset="0"/>
            <stop stop-opacity="1" stop-color="#729fcf" offset="1"/>
        </linearGradient>
        <linearGradient x1="13.035696" gradientTransform="matrix(1.317489,0,0,0.816256,-0.879573,-1.3181659)" y1="32.567184" x2="12.853771" gradientUnits="userSpaceOnUse" y2="46.689312" xlink:type="simple" xlink:actuate="onLoad" xlink:show="other">
            <stop stop-opacity="0.35051546" stop-color="#ffffff" offset="0"/>
            <stop stop-opacity="0" stop-color="#ffffff" offset="1"/>
        </linearGradient>
        <linearGradient x1="13.035696" gradientTransform="matrix(2.294468,0,0,1.4215475,2.9580917,2.4571958)" y1="32.567184" x2="12.853771" gradientUnits="userSpaceOnUse" y2="46.689312" xlink:type="simple" xlink:actuate="onLoad" xlink:show="other">
            <stop stop-opacity="0.35051546" stop-color="#ffffff" offset="0"/>
            <stop stop-opacity="0" stop-color="#ffffff" offset="1"/>
        </linearGradient>
        <linearGradient x1="22.175976" gradientTransform="matrix(1.7415462,0,0,1.7415462,4.4899087,4.7528426)" y1="36.987999" x2="22.065331" gradientUnits="userSpaceOnUse" y2="32.050499" xlink:type="simple" xlink:actuate="onLoad" id="linearGradient3287" xlink:show="other">
            <stop stop-opacity="1" stop-color="#6194cb" offset="0"/>
            <stop stop-opacity="1" stop-color="#729fcf" offset="1"/>
        </linearGradient>
        <linearGradient x1="6.2297964" gradientTransform="matrix(2.6416539,0,0,1.2347179,2.9580917,2.4571956)" y1="13.773066" x2="9.8980894" gradientUnits="userSpaceOnUse" y2="66.834053" xlink:type="simple" xlink:actuate="onLoad" id="linearGradient3292" xlink:show="other">
            <stop stop-opacity="0.87628865" stop-color="#ffffff" offset="0.0000000"/>
            <stop stop-opacity="0.0000000" stop-color="#fffffe" offset="1.0000000"/>
        </linearGradient>
        <radialGradient gradientTransform="matrix(1.8373696,-4.7622651e-2,0.309478,2.0740579,-1.7312026,-7.6561983)" id="radialGradient3295" gradientUnits="userSpaceOnUse" xlink:show="other" xlink:type="simple" r="30.905205" cx="20.706017" fx="20.706017" cy="37.517986" fy="37.517986" xlink:actuate="onLoad">
            <stop stop-opacity="1.0000000" stop-color="#202020" offset="0.0000000"/>
            <stop stop-opacity="1.0000000" stop-color="#b9b9b9" offset="1.0000000"/>
        </radialGradient>
        <linearGradient x1="18.112709" gradientTransform="matrix(1.7415462,0,0,1.7415462,4.4899087,4.7528426)" y1="31.367750" x2="15.514889" gradientUnits="userSpaceOnUse" y2="6.1802502" xlink:type="simple" xlink:actuate="onLoad" xlink:show="other">
            <stop stop-opacity="1" stop-color="#424242" offset="0"/>
            <stop stop-opacity="1.0000000" stop-color="#777777" offset="1.0000000"/>
        </linearGradient>
        <linearGradient x1="18.112709" gradientTransform="matrix(1.7415462,0,0,1.7415462,4.489909,4.7528426)" y1="31.367750" x2="15.514889" gradientUnits="userSpaceOnUse" y2="6.1802502" xlink:type="simple" xlink:actuate="onLoad" id="linearGradient3309" xlink:show="other">
            <stop stop-opacity="1" stop-color="#424242" offset="0"/>
            <stop stop-opacity="1.0000000" stop-color="#777777" offset="1.0000000"/>
        </linearGradient>
        <linearGradient x1="13.035696" gradientTransform="matrix(2.294468,0,0,1.4215475,2.9580917,2.4571958)" y1="32.567184" x2="12.853771" gradientUnits="userSpaceOnUse" y2="46.689312" xlink:type="simple" xlink:actuate="onLoad" id="linearGradient3315" xlink:show="other">
            <stop stop-opacity="0.35051546" stop-color="#ffffff" offset="0"/>
            <stop stop-opacity="0" stop-color="#ffffff" offset="1"/>
        </linearGradient>
        <linearGradient x1="16.125" y1="13" x2="27.375" gradientUnits="userSpaceOnUse" y2="28.875" xlink:type="simple" xlink:actuate="onLoad" id="linearGradient5991" xlink:show="other">
            <stop stop-opacity="0.87628865" stop-color="#ffffff" offset="0.0000000"/>
            <stop stop-opacity="0.0000000" stop-color="#fffffe" offset="1.0000000"/>
        </linearGradient>
        <linearGradient x1="-18.213005" y1="7.8469815" x2="-23.30942" gradientUnits="userSpaceOnUse" y2="-4.3756437" xlink:type="simple" xlink:actuate="onLoad" id="linearGradient5094" xlink:show="other">
            <stop stop-opacity="1" stop-color="#edd400" offset="0"/>
            <stop stop-opacity="1" stop-color="#ffef66" offset="1"/>
        </linearGradient>
        <radialGradient gradientTransform="matrix(1,0,0,0.242494,0,31.50606)" id="radialGradient4199" gradientUnits="userSpaceOnUse" xlink:show="other" xlink:type="simple" r="19.136078" cx="24.35099" fx="24.35099" cy="41.591846" fy="41.591846" xlink:actuate="onLoad">
            <stop stop-opacity="1" stop-color="#000000" offset="0"/>
            <stop stop-opacity="0" stop-color="#000000" offset="1"/>
        </radialGradient>
        <linearGradient xlink:type="simple" xlink:actuate="onLoad" id="linearGradient9806" xlink:show="other">
            <stop stop-opacity="1" stop-color="#000000" offset="0"/>
            <stop stop-opacity="0" stop-color="#000000" offset="1"/>
        </linearGradient>
        <linearGradient xlink:type="simple" xlink:actuate="onLoad" id="linearGradient3983" xlink:show="other">
            <stop stop-opacity="0.87628865" stop-color="#ffffff" offset="0.0000000"/>
            <stop stop-opacity="0.0000000" stop-color="#fffffe" offset="1.0000000"/>
        </linearGradient>
        <linearGradient xlink:type="simple" xlink:actuate="onLoad" id="linearGradient3125" xlink:show="other">
            <stop stop-opacity="1" stop-color="#edd400" offset="0"/>
            <stop stop-opacity="1" stop-color="#ffef66" offset="1"/>
        </linearGradient>
    </defs>
    <g transform="matrix(3.9400445e-2,0,0,3.6341855e-2,80.044156,68.092216)" display="inline">
        <rect fill-opacity="0.40206185" display="inline" stroke="none" visibility="visible" stroke-linecap="round" width="1339.6335" stroke-miterlimit="4" stroke-opacity="1" fill="url(#linearGradient3266)" stroke-dasharray="none" stroke-width="1" color="#000000" height="478.35718" x="-1559.2523" stroke-linejoin="miter" y="-150.69685" stroke-dashoffset="0" fill-rule="nonzero"/>
        <path fill-opacity="0.40206185" display="inline" stroke="none" d="M -219.61876 -150.68037 C -219.61876 -150.68037 -219.61876 327.6504 -219.61876 327.6504 C -76.74459 328.55087 125.78146 220.48076 125.78138 88.45424 C 125.78138 -43.572304 -33.655437 -150.68036 -219.61876 -150.68037 z " visibility="visible" stroke-linecap="round" stroke-miterlimit="4" stroke-opacity="1" fill="url(#radialGradient3268)" stroke-dasharray="none" stroke-width="1" color="#000000" stroke-linejoin="miter" stroke-dashoffset="0" fill-rule="nonzero"/>
        <path fill-opacity="0.40206185" display="inline" stroke="none" d="M -1559.2523 -150.68037 C -1559.2523 -150.68037 -1559.2523 327.6504 -1559.2523 327.6504 C -1702.1263 328.55087 -1904.6523 220.48076 -1904.6523 88.45424 C -1904.6523 -43.572304 -1745.2156 -150.68036 -1559.2523 -150.68037 z " visibility="visible" stroke-linecap="round" stroke-miterlimit="4" stroke-opacity="1" fill="url(#radialGradient3270)" stroke-dasharray="none" stroke-width="1" color="#000000" stroke-linejoin="miter" stroke-dashoffset="0" fill-rule="nonzero"/>
    </g>
    <path stroke-linecap="round" fill-opacity="1" fill="url(#radialGradient3295)" fill-rule="nonzero" stroke-linejoin="round" stroke-dasharray="none" d="M 12.364798 72.12877 C 12.402757 72.853775 13.165744 73.57879 13.890758 73.57879 L 68.44823 73.57879 C 69.17322 73.57879 69.86028 72.853775 69.82232 72.12877 L 68.19146 24.71215 C 68.153496 23.98714 67.390526 23.262112 66.66552 23.262112 L 43.55368 23.262112 C 42.708927 23.262112 41.403786 22.712498 41.11265 21.33486 L 40.04789 16.296442 C 39.77713 15.015234 38.511467 14.488917 37.786457 14.488917 L 12.048389 14.488917 C 11.323361 14.488917 10.636307 15.213929 10.674266 15.938941 L 12.364798 72.12877 z " stroke="none" stroke-width="1.74154615" stroke-opacity="1" stroke-miterlimit="4"/>
    <path stroke-linecap="round" fill-opacity="1" fill="url(#linearGradient3309)" fill-rule="nonzero" stroke-linejoin="round" stroke-dasharray="none" d="M 12.0625 13.625 C 11.409735 13.625 10.835402 13.923868 10.4375 14.34375 C 10.039598 14.763632 9.778386 15.348425 9.8125 16.0 L 11.5 72.15625 C 11.499813 72.166664 11.499813 72.177086 11.5 72.1875 C 11.534115 72.83908 11.86201 73.35162 12.28125 73.75 C 12.70049 74.14838 13.253487 74.4375 13.90625 74.4375 L 68.4375 74.4375 C 69.09026 74.43751 69.664604 74.13863 70.0625 73.71875 C 70.4604 73.298874 70.72162 72.74533 70.6875 72.09375 L 69.0625 24.6875 C 69.06269 24.677084 69.06269 24.666666 69.0625 24.65625 C 69.02838 24.004684 68.70048 23.492132 68.28125 23.09375 C 67.862015 22.695368 67.30902 22.40625 66.65625 22.40625 L 43.5625 22.40625 C 43.32897 22.40625 42.90519 22.299664 42.59375 22.09375 C 42.28231 21.887836 42.064735 21.610449 41.96875 21.15625 L 40.90625 16.125 C 40.71911 15.239449 40.15439 14.579146 39.5625 14.1875 C 38.97061 13.795854 38.35447 13.625 37.78125 13.625 L 12.0625 13.625 z M 12.0625 15.375 L 37.78125 15.375 C 37.93305 15.375 38.303864 15.433186 38.59375 15.625 C 38.883636 15.816814 39.10389 16.073093 39.1875 16.46875 L 40.25 21.5 C 40.44515 22.42344 41.031143 23.117949 41.65625 23.53125 C 42.281357 23.944551 42.951275 24.125 43.5625 24.125 L 66.65625 24.125 C 66.728485 24.125 66.94076 24.198364 67.09375 24.34375 C 67.24674 24.489136 67.308655 24.676556 67.3125 24.75 L 68.9375 72.15625 C 68.93731 72.166664 68.93731 72.177086 68.9375 72.1875 C 68.941345 72.26093 68.89864 72.40738 68.78125 72.53125 C 68.66386 72.65513 68.50973 72.71875 68.4375 72.71875 L 13.90625 72.71875 C 13.833999 72.71875 13.621746 72.645386 13.46875 72.5 C 13.315754 72.354614 13.253845 72.16718 13.25 72.09375 L 11.53125 15.90625 C 11.527405 15.832813 11.601358 15.655127 11.71875 15.53125 C 11.836142 15.407373 11.990237 15.375 12.0625 15.375 z " stroke="none" stroke-width="1.74154615" stroke-opacity="1" stroke-miterlimit="4"/>
    <path fill-opacity="0.45142858" display="block" stroke="none" d="M 15.058208 72.43633 C 15.08667 72.980095 14.743143 73.34259 14.1899 73.16135 L 14.1899 73.16135 C 13.636643 72.980095 13.255158 72.61759 13.226681 72.07382 L 11.576184 16.232042 C 11.547722 15.688283 11.863863 15.359927 12.407622 15.359927 L 37.52429 15.276866 C 38.068047 15.276866 39.147312 15.800154 39.497353 17.579508 L 40.496105 22.482891 C 39.752373 21.672625 39.76606 21.647612 39.385773 20.468431 L 38.678535 18.27551 C 38.29705 17.00828 37.462593 16.826715 36.918827 16.826715 L 14.474174 16.826715 C 13.930414 16.826715 13.586888 17.189224 13.615365 17.732998 L 15.248944 72.61759 L 15.058208 72.43633 z " visibility="visible" stroke-linecap="butt" stroke-miterlimit="4" stroke-opacity="1" fill="url(#linearGradient3292)" stroke-width="1.21380496" color="#000000" stroke-linejoin="miter" stroke-dashoffset="0" fill-rule="nonzero"/>
    <g transform="matrix(1.8125386,0,9.4901241e-2,1.8125386,-10.609643,9.4038054)" fill-opacity="0.75706213" fill="#ffffff" fill-rule="nonzero" stroke="none" stroke-width="0.99946535" stroke-miterlimit="4">
        <path fill="#ffffff" d="M 42.417183 8.515178 C 42.422268 8.418064 42.289024 8.268189 42.182064 8.268172 L 29.150663 8.266053 C 29.150663 8.266053 30.06238 8.854007 31.352476 8.862296 L 42.405975 8.933317 C 42.41706 8.721589 42.408695 8.677285 42.417183 8.515178 z " fill-opacity="0.50847461"/>
    </g>
    <path fill-opacity="1" display="block" stroke="#3465a4" d="M 73.774765 73.562416 C 75.76691 73.48568 77.19356 71.65316 77.339775 69.52028 C 78.718704 49.407703 80.22963 32.543858 80.22963 32.543858 C 80.355286 32.11285 79.93721 31.681849 79.39345 31.681849 L 19.534485 31.681849 C 19.534485 31.681849 16.312065 69.76405 16.312065 69.76405 C 16.112562 71.474365 15.500493 72.90705 13.612957 73.567085 L 73.774765 73.562416 z " visibility="visible" stroke-linecap="butt" stroke-miterlimit="4" stroke-opacity="1" fill="url(#linearGradient3287)" stroke-dasharray="none" stroke-width="1.19999993" color="#000000" stroke-linejoin="round" stroke-dashoffset="0" fill-rule="nonzero"/>
    <path stroke-linecap="round" fill-opacity="1" fill="url(#linearGradient3315)" fill-rule="evenodd" stroke-linejoin="miter" d="M 20.4375 32.5625 L 20.375 33.34375 L 17.375 68.96875 C 17.37042 68.99689 17.385056 69.040634 17.375 69.09375 C 17.354883 69.19999 17.322365 69.34202 17.28125 69.5 C 17.19902 69.81596 17.037771 70.18646 16.96875 70.28125 L 15.96875 71.6875 L 17.6875 71.6875 C 22.411964 71.6875 69.074394 71.71875 72.34375 71.71875 C 73.654785 71.71875 74.653824 71.59982 75.40625 71.0 C 76.15868 70.40018 76.38818 69.461334 76.46875 68.4375 L 79.21875 33.59375 L 79.28125 32.65625 L 78.34375 32.65625 L 21.25 32.5625 L 20.4375 32.5625 z M 22.0625 34.28125 L 77.40625 34.40625 L 74.75 68.3125 C 74.68372 69.15475 74.53491 69.44769 74.3125 69.625 C 74.09009 69.80231 73.50916 70.0 72.34375 70.0 C 69.17066 70.0 25.470814 69.940025 18.96875 69.9375 C 19.022388 69.73141 19.03654 69.574615 19.0625 69.4375 C 19.07548 69.36894 19.086756 69.29298 19.09375 69.25 C 19.097248 69.22852 19.122725 69.202896 19.125 69.1875 C 19.127275 69.17211 19.11654 69.2259 19.125 69.125 L 22.0625 34.28125 z " stroke="none" stroke-width="1.74154568px" stroke-opacity="1"/>
    <path stroke-linecap="butt" fill-opacity="0.0892857" fill="#ffffff" fill-rule="evenodd" stroke-linejoin="miter" d="M 21.244017 33.006264 L 19.212248 60.24974 C 19.212248 60.24974 33.660385 53.025677 51.720547 53.025677 C 69.78073 53.025677 78.810814 33.006264 78.810814 33.006264 L 21.244017 33.006264 z " stroke="none" stroke-width="1px" stroke-opacity="1"/>
    <g transform="translate(36.021864,35.397854)">
        <g>
            <path fill-opacity="0.55681817" display="inline" stroke="none" d="M 43.48707 41.591846 C 43.48707 44.154663 34.919556 46.232235 24.35099 46.232235 C 13.782426 46.232235 5.2149124 44.154663 5.2149124 41.591846 C 5.2149124 39.02903 13.782426 36.951458 24.35099 36.951458 C 34.919556 36.951458 43.48707 39.02903 43.48707 41.591846 z " visibility="visible" stroke-linecap="round" transform="matrix(1.230947,0,0,1.010469,-5.93315,1.151861)" stroke-miterlimit="4" stroke-opacity="1" fill="url(#radialGradient4199)" stroke-dasharray="none" stroke-width="1" color="#000000" stroke-linejoin="round" stroke-dashoffset="0" fill-rule="nonzero"/>
            <g transform="translate(-84.89701,-10.34514)"/>
            <path fill-opacity="1" stroke="#ce9500" d="M -2.8284285 20.422836 L -17.601885 14.361198 L -30.970612 23.094784 L -29.770903 7.171243 L -42.2082 -2.8443472 L -26.693281 -6.623999 L -21.011227 -21.54756 L -12.62219 -7.959973 L 3.3268113 -7.16765 L -7.003397 5.009592 L -2.8284285 20.422836 z " stroke-linecap="round" transform="matrix(0.822443,7.855798e-2,-7.855798e-2,0.822443,39.46276,25.9915)" stroke-miterlimit="4" stroke-opacity="1" fill="url(#linearGradient5094)" stroke-dasharray="none" stroke-width="1.21038067" stroke-linejoin="miter" stroke-dashoffset="0"/>
            <path fill-opacity="1" stroke="#ffffff" d="M -2.8284285 20.422836 L -17.601885 14.361198 L -30.970612 23.094784 L -29.770903 7.171243 L -42.2082 -2.8443472 L -26.693281 -6.623999 L -21.011227 -21.54756 L -12.62219 -7.959973 L 3.3268113 -7.16765 L -7.003397 5.009592 L -2.8284285 20.422836 z " stroke-linecap="round" transform="matrix(0.743551,7.003386e-2,-7.102237e-2,0.733202,37.96677,26.08972)" stroke-miterlimit="4" stroke-opacity="0.46296297" fill="none" stroke-dasharray="none" stroke-width="1.3782469" stroke-linejoin="miter" stroke-dashoffset="0"/>
            <path stroke-linecap="butt" fill-opacity="1" fill="url(#linearGradient5991)" fill-rule="evenodd" stroke-linejoin="miter" d="M 15.75 29.0 L 7.5 21.25 L 19.0 19.625 L 24.0 9.375 L 29.0 20.0 L 39.75 21.5 C 20.75 22.708332 27.125 32.416668 15.75 29.0 z " stroke="none" stroke-width="1px" stroke-opacity="1"/>
        </g>
    </g>
</svg>
