<?xml version="1.0" encoding="UTF-8"?>
<svg xmlns="http://www.w3.org/2000/svg" xmlns:xlink="http://www.w3.org/1999/xlink" contentScriptType="text/ecmascript" width="44" baseProfile="tiny" zoomAndPan="magnify" contentStyleType="text/css" viewBox="0 0 44 44" height="44" preserveAspectRatio="xMidYMid meet" version="1.1">
    <defs>
        <radialGradient gradientTransform="matrix(1,0,0,0.398649,0,21.2728)" id="radialGradient2078" gradientUnits="userSpaceOnUse" xlink:show="other" xlink:type="simple" r="18.500000" cx="23.250000" fx="23.250000" cy="35.375000" fy="35.375000" xlink:actuate="onLoad">
            <stop stop-opacity="1" stop-color="#000000" offset="0"/>
            <stop stop-opacity="0" stop-color="#000000" offset="1"/>
        </radialGradient>
        <radialGradient gradientTransform="matrix(1,0,0,0.509804,0,16.05392)" id="radialGradient1360" gradientUnits="userSpaceOnUse" xlink:show="other" xlink:type="simple" r="6.3750000" cx="4.3920336" fx="4.3920336" cy="32.307854" fy="32.307854" xlink:actuate="onLoad">
            <stop stop-opacity="1" stop-color="#ffffff" offset="0"/>
            <stop stop-opacity="0" stop-color="#ffffff" offset="1"/>
        </radialGradient>
        <radialGradient gradientTransform="matrix(1,0,0,0.509804,0,16.05392)" id="radialGradient1358" gradientUnits="userSpaceOnUse" xlink:show="other" xlink:type="simple" r="6.3750000" cx="4.3920336" fx="4.3920336" cy="32.307854" fy="32.307854" xlink:actuate="onLoad">
            <stop stop-opacity="1" stop-color="#ffffff" offset="0"/>
            <stop stop-opacity="0" stop-color="#ffffff" offset="1"/>
        </radialGradient>
        <linearGradient xlink:type="simple" xlink:actuate="onLoad" id="linearGradient2315" xlink:show="other">
            <stop stop-opacity="1" stop-color="#ffffff" offset="0"/>
            <stop stop-opacity="0" stop-color="#ffffff" offset="1"/>
        </linearGradient>
        <linearGradient xlink:type="simple" xlink:actuate="onLoad" id="linearGradient2072" xlink:show="other">
            <stop stop-opacity="1" stop-color="#000000" offset="0"/>
            <stop stop-opacity="0" stop-color="#000000" offset="1"/>
        </linearGradient>
        <radialGradient gradientTransform="matrix(1.000000,0.000000,0.000000,0.398649,0.000000,21.27280)" id="linearGradient2072" gradientUnits="userSpaceOnUse" xlink:show="other" xlink:type="simple" r="18.500000" cx="23.250000" fx="23.250000" cy="35.375000" fy="35.375000" xlink:actuate="onLoad">
            <stop stop-opacity="1" stop-color="#000000" offset="0"/>
            <stop stop-opacity="0" stop-color="#000000" offset="1"/>
        </radialGradient>
        <radialGradient gradientTransform="matrix(1.000000,-1.083254e-16,1.454372e-17,0.509804,1.185203e-14,16.05392)" id="linearGradient2315" gradientUnits="userSpaceOnUse" xlink:show="other" xlink:type="simple" r="6.3750000" cx="4.3920336" fx="4.3920336" cy="32.307854" fy="32.307854" xlink:actuate="onLoad">
            <stop stop-opacity="1" stop-color="#ffffff" offset="0"/>
            <stop stop-opacity="0" stop-color="#ffffff" offset="1"/>
        </radialGradient>
        <radialGradient gradientTransform="matrix(1.000000,-2.843321e-17,5.340760e-18,0.509804,5.770894e-16,16.05392)" id="linearGradient2315" gradientUnits="userSpaceOnUse" xlink:show="other" xlink:type="simple" r="6.3750000" cx="4.3920336" fx="4.3920336" cy="32.307854" fy="32.307854" xlink:actuate="onLoad">
            <stop stop-opacity="1" stop-color="#ffffff" offset="0"/>
            <stop stop-opacity="0" stop-color="#ffffff" offset="1"/>
        </radialGradient>
    </defs>
    <path fill-opacity="0.3" display="inline" stroke="none" d="M 41.75 35.375 C 41.75 39.4481 33.467266 42.75 23.25 42.75 C 13.032732 42.75 4.75 39.4481 4.75 35.375 C 4.75 31.3019 13.032732 28.0 23.25 28.0 C 33.467266 28.0 41.75 31.3019 41.75 35.375 z " visibility="visible" stroke-linecap="round" transform="matrix(1.0364806,0,0,1.0364806,-2.3191083,-0.3711504)" stroke-miterlimit="4" stroke-opacity="1" fill="url(#radialGradient2078)" stroke-dasharray="none" stroke-width="2" color="#000000" stroke-linejoin="round" stroke-dashoffset="0" fill-rule="evenodd"/>
    <path fill-opacity="1" display="block" stroke="#596616" d="M 40.824394 4.770318 C 40.824394 4.770318 16.920565 7.7083735 16.920565 7.7083735 L 16.920565 30.284216 C 15.214562 29.706223 12.845344 29.555126 10.248219 30.089876 C 5.732984 31.019567 2.497562 33.50973 2.9928548 35.62857 C 3.4881475 37.74741 7.546824 38.728394 12.06206 37.7987 C 16.328878 36.92016 20.026505 34.65008 19.942041 32.6163 L 20.103992 12.890776 C 20.103992 12.890776 37.65208 9.889848 37.65208 9.889848 L 37.65208 27.805016 C 27.028156 26.250294 23.874971 30.803799 24.370268 32.922638 C 24.86556 35.041477 28.924236 36.02246 33.439472 35.09277 C 37.44586 34.26785 40.313835 32.228756 40.597668 30.299046 L 40.824394 4.770318 z " visibility="visible" stroke-linecap="round" stroke-miterlimit="4" stroke-opacity="1" fill="#9db029" stroke-width="1.03648055" color="#000000" stroke-linejoin="round" stroke-dashoffset="0" fill-rule="nonzero"/>
    <path fill-opacity="1" display="block" stroke="#ffffff" d="M 39.89575 5.91095 C 39.89575 5.91095 17.941256 8.849006 17.941256 8.849006 L 17.941256 31.484018 C 10.100015 29.509201 3.7071593 33.38535 4.178168 35.400303 C 4.9082975 38.840416 19.081076 36.542744 19.000751 32.147038 L 19.154762 11.96348 C 19.154762 11.96348 38.692806 8.965633 38.692806 8.965633 L 38.692806 29.11188 C 30.850502 27.114948 24.943378 30.538473 25.414389 32.55343 C 26.014956 35.863983 38.24418 34.74389 39.680134 29.79935 L 39.89575 5.91095 z " visibility="visible" stroke-linecap="butt" stroke-miterlimit="4" stroke-opacity="0.34868422" fill="none" stroke-dasharray="none" stroke-width="1.03648055" color="#000000" stroke-linejoin="miter" stroke-dashoffset="0" fill-rule="nonzero"/>
    <path fill-opacity="0.51176471" display="block" stroke="none" d="M 12.25 32.75 C 12.25 34.544926 9.395815 36.0 5.875 36.0 C 2.3541846 36.0 -0.5 34.544926 -0.5 32.75 C -0.5 30.955074 2.3541846 29.5 5.875 29.5 C 9.395815 29.5 12.25 30.955074 12.25 32.75 z " visibility="visible" stroke-linecap="butt" transform="matrix(0.7613116,-0.1157179,0.1157179,0.7613116,1.7266507,9.3622979)" stroke-miterlimit="4" stroke-opacity="1" fill="url(#radialGradient1358)" stroke-dasharray="none" stroke-width="1" color="#000000" stroke-linejoin="miter" stroke-dashoffset="0" fill-rule="nonzero"/>
    <path fill-opacity="0.51176471" display="block" stroke="none" d="M 12.25 32.75 C 12.25 34.544926 9.395815 36.0 5.875 36.0 C 2.3541846 36.0 -0.5 34.544926 -0.5 32.75 C -0.5 30.955074 2.3541846 29.5 5.875 29.5 C 9.395815 29.5 12.25 30.955074 12.25 32.75 z " visibility="visible" stroke-linecap="butt" transform="matrix(0.7613116,-0.1157179,0.1157179,0.7613116,22.293025,6.4242424)" stroke-miterlimit="4" stroke-opacity="1" fill="url(#radialGradient1360)" stroke-dasharray="none" stroke-width="1" color="#000000" stroke-linejoin="miter" stroke-dashoffset="0" fill-rule="nonzero"/>
</svg>
