<?xml version="1.0" encoding="UTF-8"?>
<svg xmlns="http://www.w3.org/2000/svg" xmlns:xlink="http://www.w3.org/1999/xlink" contentScriptType="text/ecmascript" width="88" baseProfile="tiny" zoomAndPan="magnify" contentStyleType="text/css" viewBox="0 0 88 88" height="88" preserveAspectRatio="xMidYMid meet" version="1.0">
    <defs>
        <radialGradient gradientTransform="matrix(1,0,0,1.035714,0,-0.810268)" gradientUnits="userSpaceOnUse" xlink:type="simple" r="1.75" xlink:actuate="onLoad" cx="14.75" cy="22.6875" xlink:show="other" fx="14.75" fy="22.6875">
            <stop stop-opacity="1" stop-color="#ffffff" offset="0"/>
            <stop stop-opacity="0" stop-color="#ffffff" offset="1"/>
        </radialGradient>
        <linearGradient x1="7.8705277" gradientTransform="matrix(1.035758,0,0,1,-0.162473,0.20203)" y1="29.718750" x2="14.843750" gradientUnits="userSpaceOnUse" y2="29.718750" xlink:type="simple" xlink:actuate="onLoad" xlink:show="other">
            <stop stop-opacity="1" stop-color="#555753" offset="0"/>
            <stop stop-opacity="1.0000000" stop-color="#313330" offset="1.0000000"/>
        </linearGradient>
        <linearGradient x1="16.353432" y1="26.093410" x2="30.130077" gradientUnits="userSpaceOnUse" y2="26.093410" xlink:type="simple" xlink:actuate="onLoad" xlink:show="other">
            <stop stop-opacity="1.0000000" stop-color="#353633" offset="0.0000000"/>
            <stop stop-opacity="1.0000000" stop-color="#676964" offset="1.0000000"/>
        </linearGradient>
        <linearGradient x1="7.8705277" gradientTransform="matrix(1.024993,0,0,1,-6.795098e-2,0)" y1="29.718750" x2="14.843750" gradientUnits="userSpaceOnUse" y2="29.718750" xlink:type="simple" xlink:actuate="onLoad" xlink:show="other">
            <stop stop-opacity="1" stop-color="#555753" offset="0"/>
            <stop stop-opacity="1.0000000" stop-color="#313330" offset="1.0000000"/>
        </linearGradient>
        <linearGradient x1="16.666620" y1="16.124990" x2="35.888493" gradientUnits="userSpaceOnUse" y2="57.124992" xlink:type="simple" xlink:actuate="onLoad" xlink:show="other">
            <stop stop-opacity="0.41237113" stop-color="#ffffff" offset="0"/>
            <stop stop-opacity="0" stop-color="#ffffff" offset="1"/>
        </linearGradient>
        <linearGradient x1="29.395439" y1="9.4121714" x2="29.395439" gradientUnits="userSpaceOnUse" y2="12.846690" xlink:type="simple" xlink:actuate="onLoad" xlink:show="other">
            <stop stop-opacity="1" stop-color="#555753" offset="0"/>
            <stop stop-opacity="1.0000000" stop-color="#141514" offset="1.0000000"/>
        </linearGradient>
        <linearGradient x1="7.9151335" gradientTransform="matrix(1.318423,0,0,0.773191,18.70736,-14.22023)" y1="30.816841" x2="7.9151335" gradientUnits="userSpaceOnUse" y2="24.700985" xlink:type="simple" xlink:actuate="onLoad" xlink:show="other">
            <stop stop-opacity="1" stop-color="#eeeeee" offset="0"/>
            <stop stop-opacity="1.0000000" stop-color="#a2a2a2" offset="1.0000000"/>
        </linearGradient>
        <linearGradient x1="6.5595827" gradientTransform="matrix(1.477785,0,0,1.982181,18.56747,-51.60768)" y1="29.373810" x2="6.5595827" gradientUnits="userSpaceOnUse" y2="30.191154" xlink:type="simple" xlink:actuate="onLoad" xlink:show="other">
            <stop stop-opacity="1.0000000" stop-color="#ffffff" offset="0.0000000"/>
            <stop stop-opacity="1.0000000" stop-color="#cbcbcb" offset="1.0000000"/>
        </linearGradient>
        <linearGradient x1="6.5595827" gradientTransform="matrix(0.655244,0,0,1.898477,14.94194,-35.5518)" y1="29.373810" x2="6.5595827" gradientUnits="userSpaceOnUse" y2="30.191154" xlink:type="simple" xlink:actuate="onLoad" xlink:show="other">
            <stop stop-opacity="1.0000000" stop-color="#ffffff" offset="0.0000000"/>
            <stop stop-opacity="1.0000000" stop-color="#cbcbcb" offset="1.0000000"/>
        </linearGradient>
        <linearGradient x1="12.835793" y1="18.849401" x2="18.422049" gradientUnits="userSpaceOnUse" y2="27.072878" xlink:type="simple" xlink:actuate="onLoad" xlink:show="other">
            <stop stop-opacity="1.0000000" stop-color="#010101" offset="0.0000000"/>
            <stop stop-opacity="1.0000000" stop-color="#959595" offset="1.0000000"/>
        </linearGradient>
        <radialGradient gradientTransform="matrix(1,0,0,1.013514,0,-0.304899)" gradientUnits="userSpaceOnUse" xlink:type="simple" r="4.6250000" xlink:actuate="onLoad" cx="16.875000" cy="23.672499" xlink:show="other" fx="16.875000" fy="23.672499">
            <stop stop-opacity="1.0000000" stop-color="#7a7a7a" offset="0.0000000"/>
            <stop stop-opacity="1.0000000" stop-color="#000000" offset="1.0000000"/>
        </radialGradient>
        <linearGradient x1="23.660564" y1="35.302856" x2="33.904015" gradientUnits="userSpaceOnUse" y2="30.916578" xlink:type="simple" xlink:actuate="onLoad" xlink:show="other">
            <stop stop-opacity="1.0000000" stop-color="#8b8b8b" offset="0.0000000"/>
            <stop stop-opacity="1.0000000" stop-color="#d3d9da" offset="0.50000000"/>
            <stop stop-opacity="1.0000000" stop-color="#828282" offset="1.0000000"/>
        </linearGradient>
        <linearGradient x1="22.549892" y1="39.051506" x2="38.416191" gradientUnits="userSpaceOnUse" y2="30.566227" xlink:type="simple" xlink:actuate="onLoad" xlink:show="other">
            <stop stop-opacity="1.0000000" stop-color="#363d40" offset="0.0000000"/>
            <stop stop-opacity="1.0000000" stop-color="#818f95" offset="0.50000000"/>
            <stop stop-opacity="1.0000000" stop-color="#31383b" offset="1.0000000"/>
        </linearGradient>
        <radialGradient gradientTransform="matrix(1.000000,0.000000,0.000000,0.453571,-1.856804e-15,20.11540)" gradientUnits="userSpaceOnUse" xlink:type="simple" r="17.500000" xlink:actuate="onLoad" cx="25.375000" cy="36.812500" xlink:show="other" fx="25.375000" fy="36.812500">
            <stop stop-opacity="1" stop-color="#000000" offset="0"/>
            <stop stop-opacity="0" stop-color="#000000" offset="1"/>
        </radialGradient>
        <radialGradient gradientTransform="matrix(1,0,0,0.453571,0,20.1154)" gradientUnits="userSpaceOnUse" xlink:type="simple" r="17.500000" xlink:actuate="onLoad" cx="25.375000" cy="36.812500" xlink:show="other" fx="25.375000" fy="36.812500">
            <stop stop-opacity="1" stop-color="#000000" offset="0"/>
            <stop stop-opacity="0" stop-color="#000000" offset="1"/>
        </radialGradient>
        <linearGradient xlink:type="simple" xlink:actuate="onLoad" xlink:show="other">
            <stop stop-opacity="1.0000000" stop-color="#7a7a7a" offset="0.0000000"/>
            <stop stop-opacity="1.0000000" stop-color="#000000" offset="1.0000000"/>
        </linearGradient>
        <linearGradient xlink:type="simple" xlink:actuate="onLoad" xlink:show="other">
            <stop stop-opacity="1.0000000" stop-color="#ffffff" offset="0.0000000"/>
            <stop stop-opacity="1.0000000" stop-color="#cbcbcb" offset="1.0000000"/>
        </linearGradient>
        <linearGradient xlink:type="simple" xlink:actuate="onLoad" xlink:show="other">
            <stop stop-opacity="1" stop-color="#eeeeee" offset="0"/>
            <stop stop-opacity="1.0000000" stop-color="#a2a2a2" offset="1.0000000"/>
        </linearGradient>
        <linearGradient xlink:type="simple" xlink:actuate="onLoad" xlink:show="other">
            <stop stop-opacity="1" stop-color="#555753" offset="0"/>
            <stop stop-opacity="1.0000000" stop-color="#141514" offset="1.0000000"/>
        </linearGradient>
        <linearGradient xlink:type="simple" xlink:actuate="onLoad" xlink:show="other">
            <stop stop-opacity="1" stop-color="#555753" offset="0"/>
            <stop stop-opacity="1.0000000" stop-color="#313330" offset="1.0000000"/>
        </linearGradient>
        <linearGradient xlink:type="simple" xlink:actuate="onLoad" xlink:show="other">
            <stop stop-opacity="1.0000000" stop-color="#353633" offset="0.0000000"/>
            <stop stop-opacity="1.0000000" stop-color="#676964" offset="1.0000000"/>
        </linearGradient>
        <linearGradient xlink:type="simple" xlink:actuate="onLoad" xlink:show="other">
            <stop stop-opacity="1.0000000" stop-color="#363d40" offset="0.0000000"/>
            <stop stop-opacity="1.0000000" stop-color="#818f95" offset="0.50000000"/>
            <stop stop-opacity="1.0000000" stop-color="#31383b" offset="1.0000000"/>
        </linearGradient>
        <linearGradient xlink:type="simple" xlink:actuate="onLoad" xlink:show="other">
            <stop stop-opacity="1.0000000" stop-color="#010101" offset="0.0000000"/>
            <stop stop-opacity="1.0000000" stop-color="#959595" offset="1.0000000"/>
        </linearGradient>
        <linearGradient xlink:type="simple" xlink:actuate="onLoad" xlink:show="other">
            <stop stop-opacity="1" stop-color="#000000" offset="0"/>
            <stop stop-opacity="0" stop-color="#000000" offset="1"/>
        </linearGradient>
        <linearGradient xlink:type="simple" xlink:actuate="onLoad" xlink:show="other">
            <stop stop-opacity="1.0000000" stop-color="#8b8b8b" offset="0.0000000"/>
            <stop stop-opacity="1.0000000" stop-color="#d3d9da" offset="0.50000000"/>
            <stop stop-opacity="1.0000000" stop-color="#828282" offset="1.0000000"/>
        </linearGradient>
        <linearGradient xlink:type="simple" xlink:actuate="onLoad" xlink:show="other">
            <stop stop-opacity="1" stop-color="#ffffff" offset="0"/>
            <stop stop-opacity="0" stop-color="#ffffff" offset="1"/>
        </linearGradient>
        <linearGradient xlink:type="simple" xlink:actuate="onLoad" xlink:show="other">
            <stop stop-opacity="1" stop-color="#ffffff" offset="0"/>
            <stop stop-opacity="0" stop-color="#ffffff" offset="1"/>
        </linearGradient>
        <linearGradient x1="302.85715" gradientTransform="matrix(2.774389,0,0,1.969706,-1892.179,-872.8854)" y1="366.64789" x2="302.85715" gradientUnits="userSpaceOnUse" y2="609.50507" xlink:type="simple" xlink:actuate="onLoad" id="linearGradient6715" xlink:show="other">
            <stop stop-opacity="0" stop-color="#000000" offset="0"/>
            <stop stop-opacity="1" stop-color="#000000" offset="0.5"/>
            <stop stop-opacity="0" stop-color="#000000" offset="1"/>
        </linearGradient>
        <linearGradient xlink:type="simple" xlink:actuate="onLoad" xlink:show="other">
            <stop stop-opacity="0" stop-color="#000000" offset="0"/>
            <stop stop-opacity="1" stop-color="#000000" offset="0.5"/>
            <stop stop-opacity="0" stop-color="#000000" offset="1"/>
        </linearGradient>
        <radialGradient gradientTransform="matrix(2.774389,0,0,1.969706,-1891.633,-872.8854)" id="radialGradient6717" gradientUnits="userSpaceOnUse" xlink:show="other" xlink:type="simple" r="117.14286" cx="605.71429" fx="605.71429" cy="486.64789" fy="486.64789" xlink:actuate="onLoad">
            <stop stop-opacity="1" stop-color="#000000" offset="0"/>
            <stop stop-opacity="0" stop-color="#000000" offset="1"/>
        </radialGradient>
        <linearGradient xlink:type="simple" xlink:actuate="onLoad" xlink:show="other">
            <stop stop-opacity="1" stop-color="#000000" offset="0"/>
            <stop stop-opacity="0" stop-color="#000000" offset="1"/>
        </linearGradient>
        <radialGradient gradientTransform="matrix(-2.774389,0,0,1.969706,112.7623,-872.8854)" id="radialGradient6719" gradientUnits="userSpaceOnUse" xlink:show="other" xlink:type="simple" r="117.14286" cx="605.71429" fx="605.71429" cy="486.64789" fy="486.64789" xlink:actuate="onLoad">
            <stop stop-opacity="1" stop-color="#000000" offset="0"/>
            <stop stop-opacity="0" stop-color="#000000" offset="1"/>
        </radialGradient>
        <linearGradient x1="6.5595827" gradientTransform="matrix(1.0350618,0,0,2.9989453,30.975397,-51.723746)" y1="29.373810" x2="6.5595827" gradientUnits="userSpaceOnUse" y2="30.191154" xlink:type="simple" xlink:actuate="onLoad" id="linearGradient3374" xlink:show="other">
            <stop stop-opacity="1.0000000" stop-color="#ffffff" offset="0.0000000"/>
            <stop stop-opacity="1.0000000" stop-color="#cbcbcb" offset="1.0000000"/>
        </linearGradient>
        <linearGradient x1="6.5595827" gradientTransform="matrix(2.3343956,0,0,3.1311691,36.702497,-77.086553)" y1="29.373810" x2="6.5595827" gradientUnits="userSpaceOnUse" y2="30.191154" xlink:type="simple" xlink:actuate="onLoad" id="linearGradient3379" xlink:show="other">
            <stop stop-opacity="1.0000000" stop-color="#ffffff" offset="0.0000000"/>
            <stop stop-opacity="1.0000000" stop-color="#cbcbcb" offset="1.0000000"/>
        </linearGradient>
        <linearGradient x1="7.9151335" gradientTransform="matrix(2.0826581,0,0,1.2213777,36.923475,-18.02715)" y1="30.816841" x2="7.9151335" gradientUnits="userSpaceOnUse" y2="24.700985" xlink:type="simple" xlink:actuate="onLoad" id="linearGradient3381" xlink:show="other">
            <stop stop-opacity="1" stop-color="#eeeeee" offset="0"/>
            <stop stop-opacity="1.0000000" stop-color="#a2a2a2" offset="1.0000000"/>
        </linearGradient>
        <linearGradient x1="29.395439" gradientTransform="matrix(1.5796585,0,0,1.5796585,7.3722347,4.4359572)" y1="9.4121714" x2="29.395439" gradientUnits="userSpaceOnUse" y2="12.846690" xlink:type="simple" xlink:actuate="onLoad" id="linearGradient3384" xlink:show="other">
            <stop stop-opacity="1" stop-color="#555753" offset="0"/>
            <stop stop-opacity="1.0000000" stop-color="#141514" offset="1.0000000"/>
        </linearGradient>
        <radialGradient gradientTransform="matrix(0.6519725,0,0,0.675257,50.736009,49.6893)" id="radialGradient3387" gradientUnits="userSpaceOnUse" xlink:show="other" xlink:type="simple" r="1.75" cx="14.75" fx="14.75" cy="22.6875" fy="22.6875" xlink:actuate="onLoad">
            <stop stop-opacity="1" stop-color="#ffffff" offset="0"/>
            <stop stop-opacity="0" stop-color="#ffffff" offset="1"/>
        </radialGradient>
        <radialGradient gradientTransform="matrix(2.649062,0,0,2.6848614,12.882745,-1.1905285)" id="radialGradient3392" gradientUnits="userSpaceOnUse" xlink:show="other" xlink:type="simple" r="4.6250000" cx="16.875000" fx="16.875000" cy="23.672499" fy="23.672499" xlink:actuate="onLoad">
            <stop stop-opacity="1.0000000" stop-color="#7a7a7a" offset="0.0000000"/>
            <stop stop-opacity="1.0000000" stop-color="#000000" offset="1.0000000"/>
        </radialGradient>
        <linearGradient x1="12.835793" gradientTransform="matrix(2.649062,0,0,2.649062,12.882745,-0.3828321)" y1="18.849401" x2="18.422049" gradientUnits="userSpaceOnUse" y2="27.072878" xlink:type="simple" xlink:actuate="onLoad" id="linearGradient3394" xlink:show="other">
            <stop stop-opacity="1.0000000" stop-color="#010101" offset="0.0000000"/>
            <stop stop-opacity="1.0000000" stop-color="#959595" offset="1.0000000"/>
        </linearGradient>
        <linearGradient x1="16.666620" gradientTransform="matrix(1.5796585,0,0,1.5796585,7.3722347,4.4359572)" y1="16.124990" x2="35.888493" gradientUnits="userSpaceOnUse" y2="57.124992" xlink:type="simple" xlink:actuate="onLoad" id="linearGradient3398" xlink:show="other">
            <stop stop-opacity="0.41237113" stop-color="#ffffff" offset="0"/>
            <stop stop-opacity="0" stop-color="#ffffff" offset="1"/>
        </linearGradient>
        <linearGradient x1="7.8705277" gradientTransform="matrix(1.6191389,0,0,1.5796585,7.2648954,4.4359572)" y1="29.718750" x2="14.843750" gradientUnits="userSpaceOnUse" y2="29.718750" xlink:type="simple" xlink:actuate="onLoad" id="linearGradient3404" xlink:show="other">
            <stop stop-opacity="1" stop-color="#555753" offset="0"/>
            <stop stop-opacity="1.0000000" stop-color="#313330" offset="1.0000000"/>
        </linearGradient>
        <linearGradient x1="23.660564" gradientTransform="matrix(1.7106485,0,0,1.7106485,2.3883505,0.4932402)" y1="35.302856" x2="33.904015" gradientUnits="userSpaceOnUse" y2="30.916578" xlink:type="simple" xlink:actuate="onLoad" id="linearGradient3407" xlink:show="other">
            <stop stop-opacity="1.0000000" stop-color="#8b8b8b" offset="0.0000000"/>
            <stop stop-opacity="1.0000000" stop-color="#d3d9da" offset="0.50000000"/>
            <stop stop-opacity="1.0000000" stop-color="#828282" offset="1.0000000"/>
        </linearGradient>
        <linearGradient x1="22.549892" gradientTransform="matrix(1.7106485,0,0,1.7106485,2.1269771,-2.4919258)" y1="39.051506" x2="38.416191" gradientUnits="userSpaceOnUse" y2="30.566227" xlink:type="simple" xlink:actuate="onLoad" id="linearGradient3410" xlink:show="other">
            <stop stop-opacity="1.0000000" stop-color="#363d40" offset="0.0000000"/>
            <stop stop-opacity="1.0000000" stop-color="#818f95" offset="0.50000000"/>
            <stop stop-opacity="1.0000000" stop-color="#31383b" offset="1.0000000"/>
        </linearGradient>
        <linearGradient x1="16.353432" gradientTransform="matrix(1.5796585,0,0,1.5796585,7.3722347,4.4359572)" y1="26.093410" x2="30.130077" gradientUnits="userSpaceOnUse" y2="26.093410" xlink:type="simple" xlink:actuate="onLoad" id="linearGradient3415" xlink:show="other">
            <stop stop-opacity="1.0000000" stop-color="#353633" offset="0.0000000"/>
            <stop stop-opacity="1.0000000" stop-color="#676964" offset="1.0000000"/>
        </linearGradient>
        <linearGradient x1="7.8705277" gradientTransform="matrix(1.6361439,0,0,1.5796585,7.1155828,4.7550956)" y1="29.718750" x2="14.843750" gradientUnits="userSpaceOnUse" y2="29.718750" xlink:type="simple" xlink:actuate="onLoad" id="linearGradient3418" xlink:show="other">
            <stop stop-opacity="1" stop-color="#555753" offset="0"/>
            <stop stop-opacity="1.0000000" stop-color="#313330" offset="1.0000000"/>
        </linearGradient>
        <radialGradient gradientTransform="matrix(1.0950098,0,0,0.5810877,29.345585,45.934758)" id="radialGradient3421" gradientUnits="userSpaceOnUse" xlink:show="other" xlink:type="simple" r="17.500000" cx="25.375000" fx="25.375000" cy="36.812500" fy="36.812500" xlink:actuate="onLoad">
            <stop stop-opacity="1" stop-color="#000000" offset="0"/>
            <stop stop-opacity="0" stop-color="#000000" offset="1"/>
        </radialGradient>
        <linearGradient gradientTransform="matrix(1.5796585,0,0,1.5796585,7.3722347,4.4359572)" id="linearGradient3458" gradientUnits="userSpaceOnUse" xlink:show="other" xlink:type="simple" x1="16.666620" y1="16.124990" y2="57.124992" x2="35.888493" xlink:actuate="onLoad">
            <stop stop-opacity="0.41237113" stop-color="#ffffff" offset="0"/>
            <stop stop-opacity="0" stop-color="#ffffff" offset="1"/>
        </linearGradient>
        <linearGradient gradientTransform="matrix(2.649062,0,0,2.649062,52.882745,-0.3828321)" id="linearGradient3394" gradientUnits="userSpaceOnUse" xlink:show="other" xlink:type="simple" x1="12.835793" y1="18.849401" x2="18.422049" y2="27.072878" xlink:actuate="onLoad">
            <stop stop-opacity="1.0000000" stop-color="#010101" offset="0.0000000"/>
            <stop stop-opacity="1.0000000" stop-color="#959595" offset="1.0000000"/>
        </linearGradient>
        <linearGradient gradientTransform="matrix(2.649062,0,0,2.649062,12.882745,-0.3828321)" id="linearGradient3470" gradientUnits="userSpaceOnUse" xlink:show="other" xlink:type="simple" x1="12.835793" y1="18.849401" y2="27.072878" x2="18.422049" xlink:actuate="onLoad">
            <stop stop-opacity="1.0000000" stop-color="#010101" offset="0.0000000"/>
            <stop stop-opacity="1.0000000" stop-color="#959595" offset="1.0000000"/>
        </linearGradient>
        <linearGradient gradientTransform="matrix(2.0826581,0,0,1.2213777,36.923475,-18.02715)" id="linearGradient3381" gradientUnits="userSpaceOnUse" xlink:show="other" xlink:type="simple" x1="7.9151335" y1="30.816841" x2="7.9151335" y2="24.700985" xlink:actuate="onLoad">
            <stop stop-opacity="1" stop-color="#eeeeee" offset="0"/>
            <stop stop-opacity="1.0000000" stop-color="#a2a2a2" offset="1.0000000"/>
        </linearGradient>
        <linearGradient gradientTransform="matrix(2.0826581,0,0,1.2213777,36.923475,-18.02715)" id="linearGradient3482" gradientUnits="userSpaceOnUse" xlink:show="other" xlink:type="simple" x1="7.9151335" y1="30.816841" y2="24.700985" x2="7.9151335" xlink:actuate="onLoad">
            <stop stop-opacity="1" stop-color="#eeeeee" offset="0"/>
            <stop stop-opacity="1.0000000" stop-color="#a2a2a2" offset="1.0000000"/>
        </linearGradient>
    </defs>
    <g transform="matrix(3.8744916e-2,0,0,3.296365e-2,78.693911,63.380535)">
        <rect fill-opacity="0.40206185" display="inline" stroke="none" visibility="visible" stroke-linecap="round" width="1339.6335" stroke-miterlimit="4" stroke-opacity="1" fill="url(#linearGradient6715)" stroke-dasharray="none" stroke-width="1" color="#000000" height="478.35718" x="-1559.2523" stroke-linejoin="miter" y="-150.69685" stroke-dashoffset="0" fill-rule="nonzero"/>
        <path fill-opacity="0.40206185" display="inline" stroke="none" d="M -219.61876 -150.68037 C -219.61876 -150.68037 -219.61876 327.6504 -219.61876 327.6504 C -76.74459 328.55087 125.78146 220.48076 125.78138 88.45424 C 125.78138 -43.572304 -33.655437 -150.68036 -219.61876 -150.68037 z " visibility="visible" stroke-linecap="round" stroke-miterlimit="4" stroke-opacity="1" fill="url(#radialGradient6717)" stroke-dasharray="none" stroke-width="1" color="#000000" stroke-linejoin="miter" stroke-dashoffset="0" fill-rule="nonzero"/>
        <path fill-opacity="0.40206185" display="inline" stroke="none" d="M -1559.2523 -150.68037 C -1559.2523 -150.68037 -1559.2523 327.6504 -1559.2523 327.6504 C -1702.1263 328.55087 -1904.6523 220.48076 -1904.6523 88.45424 C -1904.6523 -43.572304 -1745.2156 -150.68036 -1559.2523 -150.68037 z " visibility="visible" stroke-linecap="round" stroke-miterlimit="4" stroke-opacity="1" fill="url(#radialGradient6719)" stroke-dasharray="none" stroke-width="1" color="#000000" stroke-linejoin="miter" stroke-dashoffset="0" fill-rule="nonzero"/>
    </g>
    <path fill-opacity="0.39873418" display="block" stroke="none" d="M 76.29413 67.32607 C 76.29413 72.94228 67.71471 77.49512 57.13146 77.49512 C 46.548206 77.49512 37.96879 72.94228 37.96879 67.32607 C 37.96879 61.709866 46.548206 57.15703 57.13146 57.15703 C 67.71471 57.15703 76.29413 61.709866 76.29413 67.32607 z " visibility="visible" stroke-linecap="butt" stroke-miterlimit="4" stroke-opacity="1" fill="url(#radialGradient3421)" stroke-dasharray="none" stroke-width="1" color="#000000" stroke-linejoin="miter" stroke-dashoffset="0" fill-rule="nonzero"/>
    <path fill-opacity="1" display="block" stroke="#282828" d="M 21.48297 34.32433 C 15.999551 34.32433 11.563848 36.093544 11.563848 38.27347 C 11.563848 38.521152 11.811869 38.729492 11.921754 38.964577 C 11.905663 39.042664 11.768366 39.029625 11.768366 39.112667 C 11.768366 39.112667 11.563848 64.87999 11.563848 65.12767 C 11.563848 67.3076 15.999551 69.07681 21.48297 69.07681 C 26.966393 69.07681 31.402092 67.3076 31.402092 65.12767 L 31.197577 39.112667 C 31.197577 39.029625 31.06028 39.042664 31.044188 38.964577 C 31.154072 38.729492 31.402092 38.521152 31.402092 38.27347 C 31.402092 36.093544 26.966393 34.32433 21.48297 34.32433 z " visibility="visible" stroke-linecap="butt" stroke-miterlimit="4" stroke-opacity="1" fill="url(#linearGradient3418)" stroke-dasharray="none" stroke-width="3.15931749" color="#000000" stroke-linejoin="miter" stroke-dashoffset="0" fill-rule="nonzero"/>
    <path fill-opacity="1" display="block" stroke="#282828" d="M 10.757217 65.48649 L 74.16923 65.48649 C 75.924484 65.64606 77.67506 63.669823 77.67506 62.55284 L 77.67506 34.675137 C 77.51549 32.91987 71.40543 30.84643 69.969315 30.68686 L 66.127396 30.68686 L 61.509228 25.813671 L 44.83271 25.813671 L 39.40584 30.60226 C 39.40584 30.60226 28.779772 30.936602 20.542969 32.445854 C 12.306162 33.955112 10.531552 36.532867 10.531552 38.447704 L 10.757217 65.48649 z " visibility="visible" stroke-linecap="butt" stroke-miterlimit="4" stroke-opacity="1" fill="url(#linearGradient3415)" stroke-dasharray="none" stroke-width="1.57965851" color="#000000" stroke-linejoin="miter" stroke-dashoffset="0" fill-rule="nonzero"/>
    <path fill-opacity="1" display="block" stroke="none" d="M 60.907837 26.404823 L 63.06203 32.388683 L 66.01406 31.670622 L 60.907837 26.404823 z " visibility="visible" stroke-linecap="butt" stroke-miterlimit="4" stroke-opacity="1" fill="#3f413e" stroke-dasharray="none" stroke-width="1" color="#000000" stroke-linejoin="miter" stroke-dashoffset="0" fill-rule="nonzero"/>
    <path fill-opacity="1" display="block" stroke="#a7a7a7" d="M 74.55253 55.92511 C 74.5547 57.323837 73.809746 58.617233 72.59878 59.317223 C 71.38781 60.017212 69.89521 60.017212 68.68424 59.317223 C 67.473274 58.617233 66.72832 57.323837 66.73049 55.92511 C 66.72832 54.526382 67.473274 53.232983 68.68424 52.53299 C 69.89521 51.833004 71.38781 51.833004 72.59878 52.53299 C 73.809746 53.232983 74.5547 54.526382 74.55253 55.92511 z " visibility="visible" stroke-linecap="butt" stroke-miterlimit="4" stroke-opacity="1" fill="#585b57" stroke-dasharray="none" stroke-width="1.57965863" color="#000000" stroke-linejoin="miter" stroke-dashoffset="0" fill-rule="nonzero"/>
    <path fill-opacity="1" display="block" stroke="none" d="M 71.77482 54.936993 C 71.77482 64.51961 64.00657 72.28786 54.423943 72.28786 C 44.84133 72.28786 37.07309 64.51961 37.07309 54.936993 C 37.07309 45.354378 44.84133 37.58613 54.423943 37.58613 C 64.00657 37.58613 71.77482 45.354378 71.77482 54.936993 z " visibility="visible" stroke-linecap="butt" stroke-miterlimit="4" stroke-opacity="1" fill="url(#linearGradient3410)" stroke-dasharray="none" stroke-width="1" color="#000000" stroke-linejoin="miter" stroke-dashoffset="0" fill-rule="nonzero"/>
    <path fill-opacity="1" display="block" stroke="none" d="M 72.03619 57.922157 C 72.03619 67.504776 64.26794 75.27302 54.68532 75.27302 C 45.102703 75.27302 37.334457 67.504776 37.334457 57.922157 C 37.334457 48.33954 45.102703 40.571297 54.68532 40.571297 C 64.26794 40.571297 72.03619 48.33954 72.03619 57.922157 z " visibility="visible" stroke-linecap="butt" stroke-miterlimit="4" stroke-opacity="1" fill="url(#linearGradient3407)" stroke-dasharray="none" stroke-width="1" color="#000000" stroke-linejoin="miter" stroke-dashoffset="0" fill-rule="nonzero"/>
    <path fill-opacity="1" display="block" stroke="none" d="M 21.482964 34.00519 C 16.056534 34.00519 11.666931 35.774406 11.666931 37.954334 C 11.666931 38.202015 11.912375 38.410355 12.021118 38.645435 C 12.005194 38.72352 11.869324 38.710487 11.869324 38.79353 C 11.869324 38.79353 11.666931 64.56086 11.666931 64.80853 C 11.666931 66.98846 16.056534 68.75768 21.482964 68.75768 C 26.909395 68.75768 31.299 66.98846 31.299 64.80853 L 31.096607 38.79353 C 31.096607 38.710487 30.960735 38.72352 30.944813 38.645435 C 31.053556 38.410355 31.299 38.202015 31.299 37.954334 C 31.299 35.774406 26.909395 34.00519 21.482964 34.00519 z " visibility="visible" stroke-linecap="butt" stroke-miterlimit="4" stroke-opacity="1" fill="url(#linearGradient3404)" stroke-dasharray="none" stroke-width="1" color="#000000" stroke-linejoin="miter" stroke-dashoffset="0" fill-rule="nonzero"/>
    <path fill-opacity="1" display="block" stroke="none" d="M 45.668938 26.803747 L 44.47217 32.548256 L 43.913673 34.46309 L 39.52551 31.191908 L 45.668938 26.803747 z " visibility="visible" stroke-linecap="butt" stroke-miterlimit="4" stroke-opacity="1" fill="#7b7e79" stroke-dasharray="none" stroke-width="1" color="#000000" stroke-linejoin="miter" stroke-dashoffset="0" fill-rule="nonzero"/>
    <path fill-opacity="1" display="block" stroke="none" d="M 37.433266 48.658978 L 45.19023 35.101368 L 62.90246 35.101368 L 70.54576 46.3412 L 63.06203 32.548256 L 44.392384 32.548256 L 37.433266 48.658978 z " visibility="visible" stroke-linecap="butt" stroke-miterlimit="4" stroke-opacity="1" fill="#a7aba7" stroke-dasharray="none" stroke-width="1" color="#000000" stroke-linejoin="miter" stroke-dashoffset="0" fill-rule="nonzero"/>
    <path fill-opacity="1" display="block" stroke="none" d="M 39.45905 31.092691 C 39.45905 31.092691 20.27268 32.100616 13.93769 35.436756 C 12.591758 36.145554 11.587147 36.76463 11.587147 37.714985 C 11.587147 39.89491 16.048227 42.495857 21.34234 42.495857 C 26.636452 42.495857 30.820292 40.134266 30.820292 37.954334 C 30.820292 37.457787 30.53606 36.960648 30.12919 36.52277 L 43.753742 33.65964 L 39.45905 31.092691 z " visibility="visible" stroke-linecap="butt" stroke-miterlimit="4" stroke-opacity="1" fill="#888a85" stroke-width="1" color="#000000" stroke-linejoin="miter" stroke-dashoffset="0" fill-rule="nonzero"/>
    <path fill-opacity="1" display="block" stroke="none" d="M 45.90625 26.53125 L 45.6875 26.65625 L 39.6875 30.96875 C 39.326992 30.993238 29.589952 31.651972 22.0625 33.03125 C 18.23164 33.733192 15.723809 34.463535 14.0625 35.3125 C 12.401191 36.161465 11.535565 37.248627 11.40625 38.46875 L 11.375 38.53125 L 11.375 38.5625 L 11.75 64.78125 L 11.75 64.875 L 11.78125 64.96875 C 11.96917 65.70598 12.491421 66.26379 13.15625 66.71875 C 13.821079 67.17371 14.638708 67.5326 15.59375 67.84375 C 17.503832 68.46606 19.926603 68.84375 22.375 68.84375 C 24.883762 68.84375 27.153719 68.17062 28.90625 67.25 C 30.376028 66.477905 31.3747 65.53497 31.90625 64.46875 L 73.375 64.65625 C 74.66195 64.68318 75.59947 64.36209 76.1875 63.75 C 76.775536 63.137913 76.90625 62.37391 76.90625 61.75 L 76.90625 35.40625 C 76.90625 35.00297 76.72053 34.706917 76.53125 34.46875 C 76.341965 34.230583 76.13064 34.035458 75.875 33.84375 C 75.36373 33.460335 74.7053 33.102665 74.03125 32.78125 C 72.68317 32.138416 71.29474 31.63344 70.375 31.53125 L 70.34375 31.53125 L 70.28125 31.53125 L 66.0 31.625 L 61.09375 26.75 L 60.875 26.53125 L 60.53125 26.53125 L 46.15625 26.53125 L 45.90625 26.53125 z M 46.4375 28.09375 L 60.21875 28.09375 L 65.09375 32.96875 L 65.34375 33.21875 L 65.6875 33.1875 L 70.21875 33.09375 C 70.62225 33.138584 72.116615 33.60234 73.34375 34.1875 C 73.95732 34.48008 74.53452 34.814976 74.90625 35.09375 C 75.09212 35.233135 75.21988 35.36028 75.28125 35.4375 C 75.34262 35.51472 75.3125 35.528355 75.3125 35.40625 L 75.3125 61.75 C 75.3125 62.15528 75.233986 62.445225 75.03125 62.65625 C 74.82852 62.867275 74.39645 63.115124 73.375 63.09375 L 31.53125 62.90625 L 30.90625 62.90625 L 30.78125 63.5 C 30.657677 63.984783 29.712849 65.042465 28.1875 65.84375 C 26.662151 66.645035 24.602873 67.25 22.375 67.25 C 20.086765 67.25 17.802137 66.900345 16.09375 66.34375 C 15.239556 66.06545 14.546218 65.737274 14.0625 65.40625 C 13.578782 65.075226 13.358339 64.74233 13.3125 64.5625 L 12.96875 38.65625 C 13.036892 38.01332 13.37771 37.43599 14.78125 36.71875 C 16.18479 36.00151 18.585243 35.282436 22.34375 34.59375 C 29.855324 33.21738 40.03125 32.5 40.03125 32.5 L 40.25 32.5 L 40.4375 32.375 L 46.4375 28.09375 z " visibility="visible" stroke-linecap="butt" stroke-miterlimit="4" stroke-opacity="1" fill="url(#linearGradient3458)" stroke-width="1.57965851" color="#000000" stroke-linejoin="miter" stroke-dashoffset="0" fill-rule="nonzero"/>
    <path fill-opacity="1" display="block" stroke="none" d="M 72.20071 59.386623 C 72.20071 68.969246 64.43246 76.73749 54.84984 76.73749 C 45.267223 76.73749 37.498978 68.969246 37.498978 59.386623 C 37.498978 49.80401 45.267223 42.035763 54.84983 42.035763 C 64.43246 42.035763 72.20071 49.80401 72.20071 59.386623 z " visibility="visible" stroke-linecap="butt" stroke-miterlimit="4" stroke-opacity="1" fill="#2e3436" stroke-dasharray="none" stroke-width="1" color="#000000" stroke-linejoin="miter" stroke-dashoffset="0" fill-rule="nonzero"/>
    <path fill-opacity="1" display="inline" stroke="none" d="M 65.53285 59.386627 C 65.53285 65.5131 60.640495 70.479576 54.605473 70.479576 C 48.57045 70.479576 43.678093 65.5131 43.678093 59.386627 C 43.678093 53.26016 48.57045 48.29368 54.605473 48.29368 C 60.640495 48.29368 65.53285 53.26016 65.53285 59.386627 z " visibility="visible" stroke-linecap="butt" stroke-miterlimit="4" stroke-opacity="1" fill="url(#radialGradient3392)" stroke-width="1.57965887" color="#000000" font-family="Bitstream Vera Sans" stroke-linejoin="miter" stroke-dashoffset="0" fill-rule="nonzero"/>
    <path fill-opacity="0.52866247" display="inline" stroke="none" d="M 59.76979 59.48927 C 59.76979 62.141026 57.694252 64.290695 55.133938 64.290695 C 52.573624 64.290695 50.49808 62.141026 50.49808 59.48927 C 50.49808 56.837513 52.573624 54.687843 55.133938 54.687843 C 57.694252 54.687843 59.76979 56.837513 59.76979 59.48927 z " visibility="visible" stroke-linecap="butt" stroke-miterlimit="4" stroke-opacity="1" fill="#ffffff" stroke-width="1" color="#000000" font-family="Bitstream Vera Sans" stroke-linejoin="miter" stroke-dashoffset="0" fill-rule="nonzero"/>
    <path fill-opacity="0.37341769" display="inline" stroke="none" d="M 56.25079 56.503395 C 56.25079 59.14924 54.17987 61.294117 51.625267 61.294117 C 49.070663 61.294117 46.999744 59.14924 46.999744 56.503395 C 46.999744 53.85755 49.070663 51.712677 51.625267 51.712677 C 54.17987 51.712677 56.25079 53.85755 56.25079 56.503395 z " visibility="visible" stroke-linecap="butt" stroke-miterlimit="4" stroke-opacity="1" fill="#ffffff" stroke-width="1" color="#000000" font-family="Bitstream Vera Sans" stroke-linejoin="miter" stroke-dashoffset="0" fill-rule="nonzero"/>
    <path fill-opacity="1" display="inline" stroke="none" d="M 61.493557 65.0092 C 61.493557 65.661835 60.98273 66.190895 60.352604 66.190895 C 59.722473 66.190895 59.21165 65.661835 59.21165 65.0092 C 59.21165 64.35657 59.722473 63.827496 60.352604 63.827496 C 60.98273 63.827496 61.493557 64.35657 61.493557 65.0092 z " visibility="visible" stroke-linecap="butt" stroke-miterlimit="4" stroke-opacity="1" fill="url(#radialGradient3387)" stroke-width="1" color="#000000" font-family="Bitstream Vera Sans" stroke-linejoin="miter" stroke-dashoffset="0" fill-rule="nonzero"/>
    <path fill-opacity="1" display="block" stroke="none" d="M 42.477547 29.03772 L 47.105064 25.68676 L 48.54119 21.85709 L 58.59407 21.85709 L 60.668488 26.484608 L 65.13643 30.314278 L 61.14719 13.080761 L 45.509373 13.080761 L 42.477547 29.03772 z " visibility="visible" stroke-linecap="butt" stroke-miterlimit="4" stroke-opacity="1" fill="url(#linearGradient3384)" stroke-dasharray="none" stroke-width="1" color="#000000" stroke-linejoin="miter" stroke-dashoffset="0" fill-rule="nonzero"/>
    <rect fill-opacity="1" display="inline" stroke="none" visibility="visible" stroke-linecap="butt" width="14.735869" stroke-miterlimit="4" stroke-opacity="1" fill="url(#linearGradient3379)" stroke-width="1.5796591" color="#000000" height="7.240828" font-family="Bitstream Vera Sans" x="46.040054" stroke-linejoin="miter" rx="2.3750868" y="11.760324" ry="2.3750882" stroke-dashoffset="0" fill-rule="nonzero"/>
    <path fill-opacity="1" display="block" stroke="none" d="M 27.969185 38.014626 C 27.969185 38.79675 27.312124 39.519455 26.245508 39.910515 C 25.178896 40.30157 23.864773 40.30157 22.79816 39.910515 C 21.731544 39.519455 21.074484 38.79675 21.074484 38.014626 C 21.074484 37.232506 21.731544 36.509792 22.79816 36.118736 C 23.864773 35.727676 25.178896 35.727676 26.245508 36.118736 C 27.312124 36.509792 27.969185 37.232506 27.969185 38.014626 z " visibility="visible" stroke-linecap="butt" stroke-miterlimit="4" stroke-opacity="1" fill="#2f302e" stroke-dasharray="none" stroke-width="1" color="#000000" stroke-linejoin="miter" stroke-dashoffset="0" fill-rule="nonzero"/>
    <path fill-opacity="1" display="block" stroke="none" d="M 11.642727 38.004593 C 11.4286 40.825333 15.503168 44.133987 21.429296 44.13599 C 27.45415 44.138 30.669395 40.6863 30.988537 37.654484 L 38.169167 34.9418 L 30.031118 36.53749 C 30.190687 39.569317 27.342796 42.58831 21.437311 42.494392 C 14.982249 42.390167 12.630013 39.880436 11.642727 38.004593 z " visibility="visible" stroke-linecap="butt" stroke-miterlimit="4" stroke-opacity="1" fill="#c4c6c3" stroke-dasharray="none" stroke-width="1" color="#000000" stroke-linejoin="miter" stroke-dashoffset="0" fill-rule="nonzero"/>
    <rect fill-opacity="1" display="inline" stroke="#464646" visibility="visible" stroke-linecap="butt" width="6.533833" stroke-miterlimit="4" stroke-opacity="1" fill="url(#linearGradient3374)" stroke-width="1.57965803" color="#000000" height="6.9350605" font-family="Bitstream Vera Sans" x="35.115643" stroke-linejoin="miter" rx="1.0985315" y="33.371311" ry="1.0985317" stroke-dashoffset="0" fill-rule="nonzero"/>
    <path fill-opacity="0.43037971" display="inline" stroke="none" d="M 24.56643 37.97364 C 24.56643 38.590076 24.083944 39.08979 23.488768 39.08979 C 22.893597 39.08979 22.411108 38.590076 22.411108 37.97364 C 22.411108 37.35721 22.893597 36.85749 23.488768 36.85749 C 24.083944 36.85749 24.56643 37.35721 24.56643 37.97364 z " visibility="visible" stroke-linecap="butt" stroke-miterlimit="4" stroke-opacity="1" fill="#ffffff" stroke-width="1" color="#000000" font-family="Bitstream Vera Sans" stroke-linejoin="miter" stroke-dashoffset="0" fill-rule="nonzero"/>
    <path fill-opacity="1" display="inline" stroke="none" d="M 51.331768 54.5763 C 51.331768 55.29753 50.767258 55.8822 50.070896 55.8822 C 49.374535 55.8822 48.810024 55.29753 48.810024 54.5763 C 48.810024 53.85507 49.374535 53.2704 50.070896 53.2704 C 50.767258 53.2704 51.331768 53.85507 51.331768 54.5763 z " visibility="visible" stroke-linecap="butt" stroke-miterlimit="4" stroke-opacity="1" fill="#ffffff" stroke-width="1" color="#000000" font-family="Bitstream Vera Sans" stroke-linejoin="miter" stroke-dashoffset="0" fill-rule="nonzero"/>
    <path fill-opacity="0.52866247" display="block" stroke="none" d="M 74.80393 37.510063 C 74.80393 38.49154 73.61047 39.28718 72.13827 39.28718 C 70.66605 39.28718 69.472595 38.49154 69.472595 37.510063 C 69.472595 36.528587 70.66605 35.73295 72.13827 35.73295 C 73.61047 35.73295 74.80393 36.528587 74.80393 37.510063 z " visibility="visible" stroke-linecap="butt" stroke-miterlimit="4" stroke-opacity="1" fill="#c5c5c5" stroke-dasharray="none" stroke-width="2" color="#000000" stroke-linejoin="miter" stroke-dashoffset="0" fill-rule="nonzero"/>
    <path fill-opacity="1" display="block" stroke="none" d="M 74.902664 38.102436 C 74.902664 39.08391 73.7092 39.87955 72.23699 39.87955 C 70.764786 39.87955 69.57132 39.08391 69.57132 38.102436 C 69.57132 37.12096 70.764786 36.32532 72.23699 36.32532 C 73.7092 36.32532 74.902664 37.12096 74.902664 38.102436 z " visibility="visible" stroke-linecap="butt" stroke-miterlimit="4" stroke-opacity="1" fill="#565656" stroke-dasharray="none" stroke-width="2" color="#000000" stroke-linejoin="miter" stroke-dashoffset="0" fill-rule="nonzero"/>
    <path fill-opacity="1" display="block" stroke="#777777" d="M 44.133034 49.33328 C 48.24447 44.01356 57.96399 42.71023 63.523212 47.68848 " visibility="visible" stroke-linecap="butt" stroke-miterlimit="4" stroke-opacity="1" fill="none" stroke-dasharray="none" stroke-width="1.57965958" color="#000000" stroke-linejoin="miter" stroke-dashoffset="0" fill-rule="nonzero"/>
    <path fill-opacity="0.67088611" display="inline" stroke="none" d="M 55.10949 54.69761 C 52.55049 54.69761 50.51212 56.85842 50.51212 59.508812 C 50.51212 60.11515 50.901848 60.52478 51.10015 61.05909 C 51.300262 61.086494 51.427425 61.27292 51.63473 61.27292 C 54.188015 61.27292 56.232098 59.15965 56.232098 56.51517 C 56.232098 55.8934 55.79903 55.4567 55.590603 54.91145 C 55.409008 54.889015 55.29688 54.69761 55.10949 54.69761 z " visibility="visible" stroke-linecap="butt" stroke-miterlimit="4" stroke-opacity="1" fill="#ffffff" stroke-width="1" color="#000000" font-family="Bitstream Vera Sans" stroke-linejoin="miter" stroke-dashoffset="0" fill-rule="nonzero"/>
    <path fill-opacity="1" display="inline" stroke="none" d="M 54.59375 47.5 C 48.125404 47.5 42.875 52.82805 42.875 59.375 C 42.875 65.92196 48.1254 71.28125 54.59375 71.28125 C 61.0621 71.28125 66.3125 65.92196 66.3125 59.375 C 66.3125 52.82805 61.0621 47.5 54.59375 47.5 z M 54.59375 49.09375 C 60.19545 49.093754 64.75 53.669018 64.75 59.375 C 64.75 65.080986 60.19545 69.6875 54.59375 69.6875 C 48.992046 69.6875 44.46875 65.080986 44.46875 59.375 C 44.46875 53.669018 48.99205 49.09375 54.59375 49.09375 z " visibility="visible" stroke-linecap="butt" stroke-miterlimit="4" stroke-opacity="1" fill="url(#linearGradient3470)" stroke-width="1.57965887" color="#000000" font-family="Bitstream Vera Sans" stroke-linejoin="miter" stroke-dashoffset="0" fill-rule="nonzero"/>
    <path fill-opacity="1" display="inline" stroke="none" d="M 48.40625 10.96875 C 46.66655 10.96875 45.25 12.385297 45.25 14.125 L 45.25 16.625 C 45.25 18.364702 46.66655 19.781248 48.40625 19.78125 L 58.40625 19.78125 C 60.14595 19.78125 61.5625 18.3647 61.5625 16.625 L 61.5625 14.125 C 61.5625 12.385298 60.14595 10.96875 58.40625 10.96875 L 48.40625 10.96875 z M 48.40625 12.5625 L 58.40625 12.5625 C 59.298145 12.5625 60.0 13.233105 60.0 14.125 L 60.0 16.625 C 60.0 17.516893 59.298145 18.21875 58.40625 18.21875 L 48.40625 18.21875 C 47.51435 18.21875 46.84375 17.516895 46.84375 16.625 L 46.84375 14.125 C 46.84375 13.233104 47.514355 12.5625 48.40625 12.5625 z " visibility="visible" stroke-linecap="butt" stroke-miterlimit="4" stroke-opacity="1" fill="url(#linearGradient3482)" stroke-width="1.5796591" color="#000000" font-family="Bitstream Vera Sans" stroke-linejoin="miter" stroke-dashoffset="0" fill-rule="nonzero"/>
</svg>
