<?xml version="1.0" encoding="UTF-8"?>
<svg xmlns="http://www.w3.org/2000/svg" xmlns:xlink="http://www.w3.org/1999/xlink" contentScriptType="text/ecmascript" width="60" baseProfile="tiny" zoomAndPan="magnify" contentStyleType="text/css" viewBox="0 0 60 80" height="80" preserveAspectRatio="xMidYMid meet" version="1.0">
    <defs>
        <linearGradient gradientTransform="matrix(0.899009,0,0,0.934235,1.875108,1.193645)" id="linearGradient3948" gradientUnits="userSpaceOnUse" xlink:show="other" xlink:type="simple" x1="8.5469341" y1="30.281681" y2="48.301884" x2="30.85088" xlink:actuate="onLoad">
            <stop stop-opacity="0.2783505" stop-color="#ffffff" offset="0"/>
            <stop stop-opacity="0.34020618" stop-color="#ffffff" offset="1"/>
        </linearGradient>
        <linearGradient x1="4.1914" y1="11.1133" x2="47.3197" gradientUnits="userSpaceOnUse" y2="56.0523" xlink:type="simple" xlink:actuate="onLoad" id="linearGradient3946" xlink:show="other">
            <stop offset="0" stop-color="#d4d4d4"/>
            <stop offset="0.3982" stop-color="#e2e2e2"/>
            <stop offset="1" stop-color="#ffffff"/>
        </linearGradient>
        <linearGradient x1="4.1914" y1="11.1133" x2="47.3197" gradientUnits="userSpaceOnUse" y2="56.0523" xlink:type="simple" xlink:actuate="onLoad" id="aigrd1" xlink:show="other">
            <stop offset="0" stop-color="#d4d4d4"/>
            <stop offset="0.3982" stop-color="#e2e2e2"/>
            <stop offset="1" stop-color="#ffffff"/>
        </linearGradient>
        <linearGradient gradientTransform="matrix(0.899009,0,0,0.934235,1.875108,1.193645)" id="linearGradient6525" gradientUnits="userSpaceOnUse" xlink:show="other" xlink:type="simple" x1="8.5469341" y1="30.281681" x2="30.85088" y2="48.301884" xlink:actuate="onLoad">
            <stop stop-opacity="0.2783505" stop-color="#ffffff" offset="0"/>
            <stop stop-opacity="0.34020618" stop-color="#ffffff" offset="1"/>
        </linearGradient>
        <linearGradient gradientTransform="matrix(0.899009,0,0,0.934235,1.875108,1.193645)" id="linearGradient6525" gradientUnits="userSpaceOnUse" xlink:show="other" xlink:type="simple" x1="8.5469341" y1="30.281681" x2="30.85088" y2="48.301884" xlink:actuate="onLoad">
            <stop stop-opacity="0.2783505" stop-color="#ffffff" offset="0"/>
            <stop stop-opacity="0.34020618" stop-color="#ffffff" offset="1"/>
        </linearGradient>
        <linearGradient x1="4.1914" y1="11.1133" x2="47.3197" gradientUnits="userSpaceOnUse" y2="56.0523" xlink:type="simple" xlink:actuate="onLoad" id="aigrd1" xlink:show="other">
            <stop offset="0" stop-color="#d4d4d4"/>
            <stop offset="0.3982" stop-color="#e2e2e2"/>
            <stop offset="1" stop-color="#ffffff"/>
        </linearGradient>
        <linearGradient gradientTransform="matrix(0.899009,0,0,0.934235,1.875108,1.193645)" id="linearGradient6525" gradientUnits="userSpaceOnUse" xlink:show="other" xlink:type="simple" x1="8.5469341" y1="30.281681" x2="30.85088" y2="48.301884" xlink:actuate="onLoad">
            <stop stop-opacity="0.2783505" stop-color="#ffffff" offset="0"/>
            <stop stop-opacity="0.34020618" stop-color="#ffffff" offset="1"/>
        </linearGradient>
        <radialGradient gradientTransform="matrix(1,0,0,0.5,2.139286e-14,20)" id="linearGradient4126" gradientUnits="userSpaceOnUse" xlink:show="other" xlink:type="simple" r="17.142857" cx="23.857143" fx="23.857143" cy="40.000000" fy="40.000000" xlink:actuate="onLoad">
            <stop stop-opacity="1" stop-color="#000000" offset="0"/>
            <stop stop-opacity="0" stop-color="#000000" offset="1"/>
        </radialGradient>
        <linearGradient xlink:type="simple" xlink:actuate="onLoad" id="linearGradient4126" xlink:show="other">
            <stop stop-opacity="1" stop-color="#000000" offset="0"/>
            <stop stop-opacity="0" stop-color="#000000" offset="1"/>
        </linearGradient>
        <linearGradient x1="4.1914" y1="11.1133" x2="47.3197" gradientUnits="userSpaceOnUse" y2="56.0523" xlink:type="simple" xlink:actuate="onLoad" id="aigrd1" xlink:show="other">
            <stop offset="0" stop-color="#d4d4d4"/>
            <stop offset="0.3982" stop-color="#e2e2e2"/>
            <stop offset="1" stop-color="#ffffff"/>
        </linearGradient>
        <linearGradient x1="4.1914" y1="11.1133" x2="47.3197" gradientUnits="userSpaceOnUse" y2="56.0523" xlink:type="simple" xlink:actuate="onLoad" id="aigrd1" xlink:show="other">
            <stop stop-color="#d4d4d4" offset="0"/>
            <stop stop-color="#e2e2e2" offset="0.3982"/>
            <stop stop-color="#ffffff" offset="1"/>
        </linearGradient>
        <linearGradient gradientTransform="matrix(2.774389,0,0,1.969706,-1892.179,-872.8854)" id="linearGradient6715" gradientUnits="userSpaceOnUse" xlink:show="other" xlink:type="simple" x1="302.85715" y1="366.64789" y2="609.50507" x2="302.85715" xlink:actuate="onLoad">
            <stop stop-opacity="0" stop-color="#000000" offset="0"/>
            <stop stop-opacity="1" stop-color="#000000" offset="0.5"/>
            <stop stop-opacity="0" stop-color="#000000" offset="1"/>
        </linearGradient>
        <linearGradient xlink:type="simple" xlink:actuate="onLoad" id="linearGradient5048" xlink:show="other">
            <stop stop-opacity="0" stop-color="#000000" offset="0"/>
            <stop stop-opacity="1" stop-color="#000000" offset="0.5"/>
            <stop stop-opacity="0" stop-color="#000000" offset="1"/>
        </linearGradient>
        <radialGradient gradientTransform="matrix(2.774389,0,0,1.969706,-1891.633,-872.8854)" id="radialGradient6717" gradientUnits="userSpaceOnUse" xlink:show="other" xlink:type="simple" r="117.14286" cx="605.71429" fx="605.71429" cy="486.64789" fy="486.64789" xlink:actuate="onLoad">
            <stop stop-opacity="1" stop-color="#000000" offset="0"/>
            <stop stop-opacity="0" stop-color="#000000" offset="1"/>
        </radialGradient>
        <linearGradient xlink:type="simple" xlink:actuate="onLoad" id="linearGradient5060" xlink:show="other">
            <stop stop-opacity="1" stop-color="#000000" offset="0"/>
            <stop stop-opacity="0" stop-color="#000000" offset="1"/>
        </linearGradient>
        <radialGradient gradientTransform="matrix(-2.774389,0,0,1.969706,112.7623,-872.8854)" id="radialGradient6719" gradientUnits="userSpaceOnUse" xlink:show="other" xlink:type="simple" r="117.14286" cx="605.71429" fx="605.71429" cy="486.64789" fy="486.64789" xlink:actuate="onLoad">
            <stop stop-opacity="1" stop-color="#000000" offset="0"/>
            <stop stop-opacity="0" stop-color="#000000" offset="1"/>
        </radialGradient>
    </defs>
    <g transform="matrix(1.2856504,0,0,1.2856504,-0.2758648,10.057726)">
        <g transform="matrix(1.566667,0,0,1.566667,-8.925566,-23.94764)">
            <g transform="matrix(1.444074e-2,0,0,1.331973e-2,33.38871,40.40337)" display="inline">
                <rect fill-opacity="0.40206185" display="inline" stroke="none" visibility="visible" stroke-linecap="round" width="1339.6335" stroke-miterlimit="4" stroke-opacity="1" fill="url(#linearGradient6715)" stroke-dasharray="none" stroke-width="1" color="#000000" height="478.35718" x="-1559.2523" stroke-linejoin="miter" y="-150.69685" stroke-dashoffset="0" fill-rule="nonzero"/>
                <path fill-opacity="0.40206185" display="inline" stroke="none" d="M -219.61876 -150.68037 C -219.61876 -150.68037 -219.61876 327.6504 -219.61876 327.6504 C -76.74459 328.55087 125.78146 220.48076 125.78138 88.45424 C 125.78138 -43.572304 -33.655437 -150.68036 -219.61876 -150.68037 z " visibility="visible" stroke-linecap="round" stroke-miterlimit="4" stroke-opacity="1" fill="url(#radialGradient6717)" stroke-dasharray="none" stroke-width="1" color="#000000" stroke-linejoin="miter" stroke-dashoffset="0" fill-rule="nonzero"/>
                <path fill-opacity="0.40206185" display="inline" stroke="none" d="M -1559.2523 -150.68037 C -1559.2523 -150.68037 -1559.2523 327.6504 -1559.2523 327.6504 C -1702.1263 328.55087 -1904.6523 220.48076 -1904.6523 88.45424 C -1904.6523 -43.572304 -1745.2156 -150.68036 -1559.2523 -150.68037 z " visibility="visible" stroke-linecap="round" stroke-miterlimit="4" stroke-opacity="1" fill="url(#radialGradient6719)" stroke-dasharray="none" stroke-width="1" color="#000000" stroke-linejoin="miter" stroke-dashoffset="0" fill-rule="nonzero"/>
            </g>
            <g transform="matrix(1,0,4.537846e-3,1,-0.138907,0)">
                <path transform="matrix(1,0,-8.726683e-3,1,0.328074,1.276596)" fill="#cc0000" fill-rule="nonzero" stroke-dasharray="none" d="M 33.28278 38.644745 L 22.407791 18.394764 C 22.095291 17.832266 21.532791 17.519768 20.907791 17.519768 C 20.282791 17.519768 19.720295 17.894764 19.407797 18.457264 L 8.7828045 38.707245 C 8.5328045 39.207245 8.5328045 39.894745 8.8453045 40.394745 C 9.157804 40.894745 9.657804 41.144745 10.282804 41.144745 L 31.782782 41.144745 C 32.40778 41.144745 32.97028 40.832245 33.22028 40.332245 C 33.53278 39.832245 33.53278 39.207245 33.28278 38.644745 z " stroke="#9f0000" stroke-width="0.6382978" stroke-opacity="1" stroke-miterlimit="4"/>
                <g stroke-miterlimit="4" fill-rule="nonzero" transform="matrix(0.625,0,-5.534934e-3,0.634254,6.164053,15.76055)" stroke="#000000">
                    <linearGradient x1="4.1914001" y1="11.1133" x2="47.319698" gradientUnits="userSpaceOnUse" y2="56.052299" xlink:type="simple" xlink:actuate="onLoad" id="linearGradient6525" xlink:show="other">
                        <stop stop-opacity="0.2783505" stop-color="#ffffff" offset="0"/>
                        <stop stop-opacity="0.34020618" stop-color="#ffffff" offset="1"/>
                    </linearGradient>
                    <path fill="url(#linearGradient3946)" d="M 9.5 37.6 C 9.2 38.1 9.5 38.5 10.0 38.5 L 38.2 38.5 C 38.7 38.5 39.0 38.1 38.7 37.6 L 24.4 11.0 C 24.1 10.5 23.7 10.5 23.5 11.0 L 9.5 37.6 z " stroke="none"/>
                </g>
                <path transform="matrix(1,0,-8.726683e-3,1,0.318277,1.276596)" fill-opacity="1" fill="none" fill-rule="nonzero" stroke-dasharray="none" d="M 32.323105 38.183903 L 22.150272 19.265665 C 21.71698 18.45069 21.561699 18.189213 20.908405 18.189213 C 20.346523 18.189213 20.054129 18.57002 19.651304 19.339293 L 9.748929 38.242294 C 9.173765 39.30359 9.112824 39.580227 9.3937645 40.047344 C 9.674704 40.514465 10.032797 40.48902 11.356441 40.519493 L 30.974592 40.519493 C 32.206825 40.53473 32.48399 40.440838 32.70874 39.97372 C 32.98968 39.5066 32.8678 39.136 32.323105 38.183903 z " stroke="url(#linearGradient3948)" stroke-width="0.63829792" stroke-opacity="1" stroke-miterlimit="4"/>
            </g>
            <g stroke-miterlimit="4" fill-rule="nonzero" transform="matrix(0.555088,0,0,0.555052,7.749711,17.80196)" stroke="#000000">
                <path d="M 23.9 36.5 C 22.6 36.5 21.6 35.5 21.6 34.2 C 21.6 32.8 22.5 31.9 23.9 31.9 C 25.3 31.9 26.1 32.8 26.2 34.2 C 26.2 35.5 25.3 36.5 23.9 36.5 L 23.9 36.5 z M 22.5 30.6 L 21.9 19.1 L 25.9 19.1 L 25.3 30.6 L 22.4 30.6 L 22.5 30.6 z " stroke="none"/>
            </g>
        </g>
    </g>
</svg>
