<?xml version="1.0" encoding="utf-8"?>
<!-- Generator: Adobe Illustrator 14.0.0, SVG Export Plug-In . SVG Version: 6.00 Build 43363)  -->
<!DOCTYPE svg PUBLIC "-//W3C//DTD SVG 1.1//EN" "http://www.w3.org/Graphics/SVG/1.1/DTD/svg11.dtd">
<svg version="1.1" id="Capa_1" xmlns="http://www.w3.org/2000/svg" xmlns:xlink="http://www.w3.org/1999/xlink" x="0px" y="0px"
	 width="54px" height="54px" viewBox="0 0 54 54" enable-background="new 0 0 54 54" xml:space="preserve">
<g id="g6707_1_" transform="matrix(2.105461e-2,0,0,2.086758e-2,42.60172,35.4036)">
	
		<linearGradient id="rect6709_2_" gradientUnits="userSpaceOnUse" x1="245214.3594" y1="-457078.6875" x2="245214.3594" y2="-457321.5625" gradientTransform="matrix(0.0584 0 0 -0.0411 -15010.9229 -18499.7871)">
		<stop  offset="0" style="stop-color:#000000;stop-opacity:0"/>
		<stop  offset="0.5" style="stop-color:#000000"/>
		<stop  offset="1" style="stop-color:#000000;stop-opacity:0"/>
	</linearGradient>
	
		<rect id="rect6709_1_" x="-1356.852" y="287.508" opacity="0.4021" fill="url(#rect6709_2_)" enable-background="new    " width="1339.59" height="478.36"/>
	
		<radialGradient id="path6711_2_" cx="256816.5156" cy="-462830" r="117.1372" gradientTransform="matrix(0.0584 0 0 -0.0411 -15010.3896 -18499.7871)" gradientUnits="userSpaceOnUse">
		<stop  offset="0" style="stop-color:#000000"/>
		<stop  offset="1" style="stop-color:#000000;stop-opacity:0"/>
	</radialGradient>
	<path id="path6711_1_" sodipodi:nodetypes="cccc" opacity="0.4021" fill="url(#path6711_2_)" enable-background="new    " d="
		M-17.261,287.602v478.267c142.901,0.936,345.403-107.165,345.403-239.133C328.142,394.674,168.682,287.602-17.261,287.602z"/>
	
		<radialGradient id="path6713_2_" cx="-202994.4063" cy="-462830" r="117.137" gradientTransform="matrix(-0.0584 0 0 -0.0411 -13222.9971 -18499.7871)" gradientUnits="userSpaceOnUse">
		<stop  offset="0" style="stop-color:#000000"/>
		<stop  offset="1" style="stop-color:#000000;stop-opacity:0"/>
	</radialGradient>
	<path id="path6713_1_" sodipodi:nodetypes="cccc" opacity="0.4021" fill="url(#path6713_2_)" enable-background="new    " d="
		M-1356.852,287.602v478.267c-142.878,0.936-345.403-107.165-345.403-239.133C-1702.255,394.674-1542.819,287.602-1356.852,287.602z
		"/>
</g>
<g id="g6707" transform="matrix(2.105461e-2,0,0,2.086758e-2,43.59174,43.447512)">
	
		<linearGradient id="rect6709_3_" gradientUnits="userSpaceOnUse" x1="245565.7656" y1="-448429.625" x2="245565.7656" y2="-448672.5" gradientTransform="matrix(0.0584 0 0 -0.0411 -15055.1973 -18901.0977)">
		<stop  offset="0" style="stop-color:#000000;stop-opacity:0"/>
		<stop  offset="0.5" style="stop-color:#000000"/>
		<stop  offset="1" style="stop-color:#000000;stop-opacity:0"/>
	</linearGradient>
	
		<rect id="rect6709" x="-1380.612" y="-83.825" opacity="0.4021" fill="url(#rect6709_3_)" enable-background="new    " width="1339.614" height="478.36"/>
	
		<radialGradient id="path6711_3_" cx="256363" cy="-454179.125" r="117.1448" gradientTransform="matrix(0.0584 0 0 -0.0411 -15054.6631 -18901.0977)" gradientUnits="userSpaceOnUse">
		<stop  offset="0" style="stop-color:#000000"/>
		<stop  offset="1" style="stop-color:#000000;stop-opacity:0"/>
	</radialGradient>
	<path id="path6711" sodipodi:nodetypes="cccc" opacity="0.4021" fill="url(#path6711_3_)" enable-background="new    " d="
		M-40.998-83.825v478.36c142.901,0.889,345.403-107.165,345.403-239.227C304.405,23.293,144.945-83.825-40.998-83.825z"/>
	
		<radialGradient id="path6713_3_" cx="-202634.8906" cy="-454179.125" r="117.1462" gradientTransform="matrix(-0.0584 0 0 -0.0411 -13272.7646 -18901.0977)" gradientUnits="userSpaceOnUse">
		<stop  offset="0" style="stop-color:#000000"/>
		<stop  offset="1" style="stop-color:#000000;stop-opacity:0"/>
	</radialGradient>
	<path id="path6713" sodipodi:nodetypes="cccc" opacity="0.4021" fill="url(#path6713_3_)" enable-background="new    " d="
		M-1380.612-83.825v478.36c-142.878,0.889-345.38-107.165-345.38-239.227C-1725.992,23.293-1566.579-83.825-1380.612-83.825z"/>
</g>
<linearGradient id="rect3115_1_" gradientUnits="userSpaceOnUse" x1="310.2021" y1="-352.4004" x2="310.2021" y2="-340.9812" gradientTransform="matrix(1 0 0 -1 -282 -317)">
	<stop  offset="0" style="stop-color:#EABA6F"/>
	<stop  offset="1" style="stop-color:#B97A1B"/>
</linearGradient>
<path id="rect3115" fill="url(#rect3115_1_)" stroke="#A0670C" stroke-width="1" d="M14.637,24.715h27.13
	c1.339,0,2.424,1.072,2.424,2.395v18.323c0,1.323-1.085,2.395-2.424,2.395h-27.13c-1.339,0-2.424-1.071-2.424-2.395V27.109
	C12.213,25.787,13.298,24.715,14.637,24.715z"/>
<linearGradient id="path4162_1_" gradientUnits="userSpaceOnUse" x1="301.9092" y1="-324.8262" x2="319.9539" y2="-324.8262" gradientTransform="matrix(1 0 0 -1.0392 -282 -315.0229)">
	<stop  offset="0" style="stop-color:#A36D18"/>
	<stop  offset="1" style="stop-color:#D79020"/>
</linearGradient>
<linearGradient id="path4162_2_" gradientUnits="userSpaceOnUse" x1="25.4067" y1="41.7422" x2="25.5717" y2="35.4792">
	<stop  offset="0" style="stop-color:#A0670C"/>
	<stop  offset="1" style="stop-color:#A0670C;stop-opacity:0"/>
</linearGradient>
<path id="path4162" sodipodi:nodetypes="ccccc" fill="url(#path4162_1_)" stroke="url(#path4162_2_)" stroke-width="1" d="
	M13.521,25.987l5.05-6.812l18.796-0.101l5.22,6.773L13.521,25.987z"/>
<path id="path4180" sodipodi:nodetypes="ccccc" fill="#F8E8CF" stroke="#A0670C" stroke-linecap="round" stroke-linejoin="round" d="
	M18.369,19.154l-3.976,6.721L5.258,30.26l8.115-8.913L18.369,19.154z"/>
<linearGradient id="rect4220_1_" gradientUnits="userSpaceOnUse" x1="22.2065" y1="31.5879" x2="33.5147" y2="4.1117">
	<stop  offset="0" style="stop-color:#FFFFFF"/>
	<stop  offset="1" style="stop-color:#FFFFFF;stop-opacity:0.6864"/>
</linearGradient>
<path id="rect4220" opacity="0.481" fill="none" stroke="url(#rect4220_1_)" stroke-width="1" enable-background="new    " d="
	M14.535,25.683h27.234c0.71,0,1.285,0.576,1.285,1.285v18.506c0,0.709-0.575,1.285-1.285,1.285H14.535
	c-0.709,0-1.285-0.576-1.285-1.285V26.968C13.25,26.259,13.825,25.683,14.535,25.683z"/>
<linearGradient id="path4178_1_" gradientUnits="userSpaceOnUse" x1="321.5791" y1="-341.4321" x2="332.3557" y2="-342.0382" gradientTransform="matrix(1 0 0 -1 -282 -317)">
	<stop  offset="0" style="stop-color:#DE9523"/>
	<stop  offset="1" style="stop-color:#A36D18"/>
</linearGradient>
<path id="path4178" sodipodi:nodetypes="ccccc" fill="url(#path4178_1_)" stroke="#A0670C" stroke-width="1" stroke-linecap="round" stroke-linejoin="round" d="
	M37.601,19.054l4.683,6.922l9.033,4.385l-8.114-8.913L37.601,19.054z"/>
<linearGradient id="path4966_1_" gradientUnits="userSpaceOnUse" x1="33.5625" y1="38.0557" x2="21.1962" y2="39.1668">
	<stop  offset="0" style="stop-color:#FBF0E0"/>
	<stop  offset="1" style="stop-color:#F0CE99"/>
</linearGradient>
<path id="path4966" sodipodi:nodetypes="ccccc" opacity="0.8797" fill="none" stroke="url(#path4966_1_)" stroke-linecap="round" stroke-linejoin="round" enable-background="new    " d="
	M14.403,25.811l3.384-5.779l20.478-0.075l3.842,5.852L14.403,25.811z"/>
<linearGradient id="path3523_1_" gradientUnits="userSpaceOnUse" x1="17.7319" y1="21.0591" x2="23.5075" y2="0.9172">
	<stop  offset="0" style="stop-color:#FF7217"/>
	<stop  offset="0.2304" style="stop-color:#FD7317"/>
	<stop  offset="0.3134" style="stop-color:#F67517"/>
	<stop  offset="0.3725" style="stop-color:#EB7A17"/>
	<stop  offset="0.4204" style="stop-color:#DA8017"/>
	<stop  offset="0.4613" style="stop-color:#C48817"/>
	<stop  offset="0.4976" style="stop-color:#A89218"/>
	<stop  offset="0.5305" style="stop-color:#889E18"/>
	<stop  offset="0.5606" style="stop-color:#62AC18"/>
	<stop  offset="0.5887" style="stop-color:#37BC19"/>
	<stop  offset="0.6136" style="stop-color:#09CD19"/>
	<stop  offset="0.6182" style="stop-color:#00D019"/>
	<stop  offset="0.6658" style="stop-color:#00AF48"/>
	<stop  offset="0.7697" style="stop-color:#005FB9"/>
	<stop  offset="0.7994" style="stop-color:#2F819C"/>
	<stop  offset="0.8374" style="stop-color:#64A77B"/>
	<stop  offset="0.8746" style="stop-color:#90C65F"/>
	<stop  offset="0.9102" style="stop-color:#B2DF4A"/>
	<stop  offset="0.9438" style="stop-color:#CBF13A"/>
	<stop  offset="0.9746" style="stop-color:#DAFB31"/>
	<stop  offset="1" style="stop-color:#DFFF2E"/>
</linearGradient>
<path id="path3523" sodipodi:nodetypes="czzzcscczzzcccsc" fill="url(#path3523_1_)" d="M6.613,6.367
	c8.157,4.693,8.5,9.874,8.755,10.661c0.236,0.729-0.056,2.154,0.865,1.854c0.862-0.28-0.222-1.291-0.39-2.009
	c-0.153-0.657-1.328-4.694-1.328-4.694s0.683-0.124,0.7-1.082c0.017-0.958-0.631-2.752-0.631-2.752l0.708,0.559
	c2.998,5.992,3.86,10.148,4.04,10.615c0.158,0.409,0.06,2.51,1.041,2.191c1.249-0.405-0.251-1.931-0.377-2.375
	c-0.134-0.474-1.126-3.955-1.756-8.235c1.542,1.191,5.129-2.174,8.365,3.741l9.613-2.748c-2.285-6.223-5.465-9.002-7.239-9.608
	C28.979,2.486,3.583,0.3,6.613,6.367z"/>
<g id="g2427" transform="matrix(1.1110003,0.1759651,-0.1759651,1.1110003,-0.9895435,-15.633518)">
	<path id="text2735" fill="#4A4A4A" d="M27.081,30.895l0.281,0c0.084,0,0.148,0.019,0.193,0.056c0.045,0.037,0.067,0.09,0.067,0.159
		s-0.022,0.122-0.067,0.16c-0.045,0.037-0.109,0.056-0.192,0.056l-0.112,0l0,0.229l-0.17,0L27.081,30.895 M27.25,31.018l0,0.184
		l0.094,0c0.033,0,0.058-0.008,0.076-0.024c0.018-0.016,0.027-0.039,0.027-0.068c0-0.029-0.009-0.052-0.027-0.068
		c-0.018-0.016-0.043-0.024-0.076-0.024L27.25,31.018 M28.043,31.006c-0.051,0-0.092,0.019-0.12,0.057
		c-0.029,0.038-0.043,0.092-0.043,0.161c0,0.069,0.015,0.123,0.043,0.161c0.028,0.038,0.068,0.057,0.12,0.057
		c0.052,0,0.092-0.019,0.121-0.057c0.029-0.038,0.043-0.092,0.043-0.161c0-0.069-0.014-0.123-0.043-0.161
		C28.135,31.025,28.095,31.006,28.043,31.006 M28.043,30.883c0.105,0,0.189,0.03,0.249,0.091c0.06,0.06,0.09,0.144,0.09,0.251
		c0,0.106-0.03,0.19-0.09,0.251c-0.06,0.06-0.143,0.091-0.248,0.091c-0.106,0-0.189-0.03-0.249-0.091
		c-0.06-0.06-0.09-0.144-0.09-0.25c0-0.107,0.03-0.19,0.09-0.251C27.854,30.914,27.938,30.883,28.043,30.883 M28.509,30.895l0.189,0
		l0.239,0.452l0-0.451l0.161,0l0,0.658l-0.19,0l-0.239-0.452l0,0.452l-0.161,0L28.509,30.895 M29.172,30.895l0.186,0l0.15,0.234
		l0.15-0.234h0.186l-0.251,0.381l0,0.277l-0.17,0l0-0.277L29.172,30.895"/>
	
		<radialGradient id="path3994_1_" cx="96.1138" cy="-882.1619" r="8.7664" gradientTransform="matrix(1.1147 -0.2374 -0.2374 -0.3466 -277.1184 -234.5904)" gradientUnits="userSpaceOnUse">
		<stop  offset="0" style="stop-color:#000000"/>
		<stop  offset="1" style="stop-color:#000000;stop-opacity:0"/>
	</radialGradient>
	
		<path id="path3994" sodipodi:ry="4.552" sodipodi:cy="35.051105" sodipodi:cx="24.218407" sodipodi:rx="16.882174" sodipodi:type="arc" opacity="0.2047" fill="url(#path3994_1_)" enable-background="new    " d="
		M43.301,42.207c0.002,1.654-4.018,2.994-8.977,2.995c-4.96,0-8.982-1.34-8.984-2.993c0-0.001,0-0.002,0-0.002
		c-0.001-1.654,4.018-2.996,8.977-2.995c4.96-0.002,8.983,1.339,8.984,2.993C43.301,42.205,43.301,42.206,43.301,42.207z"/>
	
		<linearGradient id="path4900_1_" gradientUnits="userSpaceOnUse" x1="205.2961" y1="-280.736" x2="207.9068" y2="-280.736" gradientTransform="matrix(1.0698 -0.3476 -0.3476 -1.0698 -289.6303 -206.5331)">
		<stop  offset="0" style="stop-color:#6A6352"/>
		<stop  offset="1" style="stop-color:#3B372E"/>
	</linearGradient>
	<path id="path4900" sodipodi:nodetypes="cczccsccsccscsc" fill="url(#path4900_1_)" stroke="#3A3A3A" stroke-width="0.889" d="
		M26.893,25.202l13,0c0,0,0.187-4.75-1.063-5.938c-1.186-1.127-2.875-0.875-2.875-0.875l-0.063,0.5c0,0-0.625-0.437-1.749-0.5
		c-1.125-0.063-1.938,0.063-1.938,0.063l0.376,0.375c0,0-1.563-0.625-3.063-0.625c-1.5,0-1.813,0.063-1.813,0.063l0.562,0.312
		c0,0-1.25-0.562-2.25-0.562c-1,0-1.875,0.437-1.875,0.437s1.437,0.75,2,1.75C26.706,21.202,26.893,25.202,26.893,25.202z"/>
	
		<radialGradient id="rect4400_1_" cx="217.4274" cy="-238.2453" r="7.5002" gradientTransform="matrix(1.0621 -0.3965 -0.3965 -1.3784 -288.1567 -197.2291)" gradientUnits="userSpaceOnUse">
		<stop  offset="0" style="stop-color:#E5D28F"/>
		<stop  offset="1" style="stop-color:#AB8F2A"/>
	</radialGradient>
	<path id="rect4400" sodipodi:nodetypes="ccccszsccccc" fill="url(#rect4400_1_)" stroke="#80754C" stroke-width="0.889" d="
		M26.206,25.233l0,4.375c0,0.948,0.771,1.719,1.719,1.719l3.25,0c-0.239,2.398-0.816,3.554-0.697,5.638
		c0.075,1.306,1.754,0.128,3.548,0.129c1.608,0,2.776,1.327,2.888-0.231c0.125-1.738-1.111-3.133-1.457-5.536l3.031,0
		c0.948,0,1.719-0.77,1.72-1.719l0-4.375L26.206,25.233z"/>
	<linearGradient id="path4890_1_" gradientUnits="userSpaceOnUse" x1="33.0631" y1="21.1971" x2="32.9716" y2="28.1346">
		<stop  offset="0" style="stop-color:#FFFFFF"/>
		<stop  offset="1" style="stop-color:#FFFFFF;stop-opacity:0"/>
	</linearGradient>
	
		<path id="path4890" sodipodi:nodetypes="cszscc" opacity="0.5731" fill="none" stroke="url(#path4890_1_)" stroke-width="0.889" enable-background="new    " d="
		M32.206,30.118c-0.191,1.919-0.594,4.484-0.796,7.09c-0.081,1.043,0.551,0.38,1.986,0.38c1.286,0,2.063,0.83,2.153-0.417
		c0.101-1.391-0.765-5.131-1.042-7.053L32.206,30.118z"/>
	<path id="path4880" sodipodi:nodetypes="ccccccc" fill="#E8DAA5" d="M26.706,25.685l0,3.797c0,0.83,0.612,1.348,1.441,1.348
		l10.18,0c0.83,0,1.379-0.518,1.379-1.348l0-3.797L26.706,25.685z"/>
	
		<linearGradient id="rect3119_1_" gradientUnits="userSpaceOnUse" x1="26.1146" y1="-603.062" x2="31.7013" y2="-603.062" gradientTransform="matrix(2.2948 -0.4482 -0.4482 -0.4638 -301.1029 -240.3692)">
		<stop  offset="0" style="stop-color:#FFFFFF"/>
		<stop  offset="1" style="stop-color:#FFFFFF;stop-opacity:0"/>
	</linearGradient>
	<path id="rect3119" sodipodi:nodetypes="ccccccc" fill="url(#rect3119_1_)" d="M39.081,25.734l-0.001,1.917
		c0,0.41-0.376,0.739-0.844,0.739l-10.062,0c-0.468,0-0.844-0.33-0.844-0.739l0-1.917L39.081,25.734z"/>
	<linearGradient id="path4918_1_" gradientUnits="userSpaceOnUse" x1="25.6463" y1="20.765" x2="40.4813" y2="20.765">
		<stop  offset="0.0225" style="stop-color:#EEF8E7"/>
		<stop  offset="0.0238" style="stop-color:#EBF7E3"/>
		<stop  offset="0.0451" style="stop-color:#C3E7AB"/>
		<stop  offset="0.0647" style="stop-color:#A4DA7E"/>
		<stop  offset="0.0821" style="stop-color:#8DD15E"/>
		<stop  offset="0.0968" style="stop-color:#7FCB4A"/>
		<stop  offset="0.1067" style="stop-color:#7AC943"/>
		<stop  offset="0.1755" style="stop-color:#98D56D"/>
		<stop  offset="0.2932" style="stop-color:#C8E8B1"/>
		<stop  offset="0.3483" style="stop-color:#DBF0CC"/>
		<stop  offset="0.3839" style="stop-color:#C7E4B3"/>
		<stop  offset="0.4635" style="stop-color:#9FCD7F"/>
		<stop  offset="0.5329" style="stop-color:#82BB59"/>
		<stop  offset="0.5886" style="stop-color:#70B142"/>
		<stop  offset="0.6236" style="stop-color:#69AD3A"/>
		<stop  offset="0.9326" style="stop-color:#589130"/>
		<stop  offset="1" style="stop-color:#7AC943"/>
	</linearGradient>
	<path id="path4918" sodipodi:nodetypes="cscccccccccccccsccsccsccsccsc" fill="url(#path4918_1_)" d="M25.3,18.578
		c0,0,1.156,0.719,1.437,1.781c0.282,1.062,0.438,2.094,0.438,2.094l0.781-1.719l0.875,0.844l0.313-1.375l1.875,0.5l-0.5-1.031
		l2.001,0.937l-0.063-0.687l0.844,0.75l0.688-0.625l1.5,0.656l0.875-0.844l1.249,0.813c0,0-0.218-0.563-0.094-0.531
		c0.124,0.031,1.219,0.406,1.219,0.406l0.281,0.344c0,0-0.191-0.957-0.626-1.344c-0.843-0.75-2.03-0.688-2.03-0.688l-0.125,0.875
		c0,0-1.032-0.719-1.907-0.844c-0.875-0.125-1.75,0.032-1.75,0.032l-0.187,0.375c0,0-1.094-0.437-2.063-0.531
		c-0.969-0.094-2.219-0.063-2.219-0.063l-0.062,0.344c0,0-0.906-0.438-1.313-0.468C26.331,18.546,25.331,18.609,25.3,18.578z"/>
	
		<path id="path4928" sodipodi:ry="1.125" sodipodi:cy="36.5" sodipodi:cx="29.125" sodipodi:rx="1.125" sodipodi:type="arc" opacity="0.5146" fill="#FFFFFF" enable-background="new    " d="
		M34.033,37.202c0,0.552-0.448,1.001-1,1s-1-0.448-1-1c0-0.552,0.447-1,1-1C33.585,36.202,34.033,36.65,34.033,37.202z"/>
</g>
<linearGradient id="path344_1_" gradientUnits="userSpaceOnUse" x1="264.2832" y1="-421.7695" x2="272.0217" y2="-445.2392" gradientTransform="matrix(1.1722 0 0 -0.8601 -282.3484 -324.8601)">
	<stop  offset="0" style="stop-color:#FFFFFF;stop-opacity:0.1031"/>
	<stop  offset="1" style="stop-color:#FFFFFF;stop-opacity:0"/>
</linearGradient>
<path id="path344" inkscape:r_cx="true" inkscape:r_cy="true" sodipodi:nodetypes="cccssssc" fill="url(#path344_1_)" d="
	M43.944,35.248c-4.78,1.318-11.328,2.638-16.667,2.665c-5.87,0.031-10.195,1.785-14.576,3.132c0.175,1.626,0.368,2.763,0.605,4.585
	c0.119,0.908,0.573,0.887,2.639,0.887c8.178,0,18.907,0.008,25.362,0.008c1.58,0,1.399-0.707,1.485-1.385
	C43.207,41.862,43.579,38.538,43.944,35.248z"/>
<linearGradient id="path4164_1_" gradientUnits="userSpaceOnUse" x1="309.4746" y1="-348.4795" x2="308.2125" y2="-339.9292" gradientTransform="matrix(1 0 0 -0.9864 -282 -317.3864)">
	<stop  offset="0" style="stop-color:#E9B96E"/>
	<stop  offset="1" style="stop-color:#F1D19E"/>
</linearGradient>
<path id="path4164" sodipodi:nodetypes="ccccc" fill="url(#path4164_1_)" stroke="#A0670C" stroke-width="1" stroke-linecap="round" stroke-linejoin="round" d="
	M43.026,25.765l5.193,7.195H8.712l4.664-7.2L43.026,25.765z"/>
<path id="path4954" sodipodi:nodetypes="ccccc" fill="none" stroke="#F4E3CA" d="M41.776,25.875l4.453,6.057H10.399l4.141-6.181
	L41.776,25.875z"/>
<path id="path4938" sodipodi:ry="1.125" sodipodi:cy="36.5" sodipodi:cx="29.125" sodipodi:rx="1.125" sodipodi:type="arc" opacity="0.5146" fill="#FFFFFF" enable-background="new    " d="
	M20.469,20.998c0,0.208-0.168,0.375-0.375,0.375s-0.375-0.167-0.375-0.375c0-0.207,0.168-0.375,0.375-0.375
	S20.469,20.791,20.469,20.998z"/>
<path id="path4940" sodipodi:ry="1.125" sodipodi:cy="36.5" sodipodi:cx="29.125" sodipodi:rx="1.125" sodipodi:type="arc" opacity="0.5146" fill="#FFFFFF" enable-background="new    " d="
	M16.167,18.3c0,0.155-0.126,0.281-0.281,0.281s-0.281-0.126-0.281-0.281s0.126-0.281,0.281-0.281S16.167,18.145,16.167,18.3z"/>
<linearGradient id="path41_1_" gradientUnits="userSpaceOnUse" x1="308.5586" y1="-357.2368" x2="310.3841" y2="-359.7739" gradientTransform="matrix(1 0 0 -1 -282 -317)">
	<stop  offset="0" style="stop-color:#FBF0E0"/>
	<stop  offset="1" style="stop-color:#F0CE99"/>
</linearGradient>
<path id="path41" inkscape:r_cx="true" inkscape:r_cy="true" sodipodi:nodetypes="cccc" fill="url(#path41_1_)" d="M24.286,44.118
	c1.141,1.643,6.516,1.701,7.902,0.032c0.044-0.013-3.812-8.493-4.146-8.886C28.043,35.265,24.278,44.112,24.286,44.118z"/>
</svg>
