<?xml version="1.0" encoding="UTF-8" standalone="no"?>
<!-- Created with Inkscape (http://www.inkscape.org/) -->

<svg
   xmlns:dc="http://purl.org/dc/elements/1.1/"
   xmlns:cc="http://creativecommons.org/ns#"
   xmlns:rdf="http://www.w3.org/1999/02/22-rdf-syntax-ns#"
   xmlns:svg="http://www.w3.org/2000/svg"
   xmlns="http://www.w3.org/2000/svg"
   xmlns:xlink="http://www.w3.org/1999/xlink"
   xmlns:sodipodi="http://sodipodi.sourceforge.net/DTD/sodipodi-0.dtd"
   xmlns:inkscape="http://www.inkscape.org/namespaces/inkscape"
   width="32"
   height="32"
   id="svg2"
   version="1.1"
   inkscape:version="0.48.2 r9819"
   sodipodi:docname="as-neighbors-32.svg"
   inkscape:export-filename="F:\Chamilo-Images\Icons-Tango\32x32\as-neighbors.png"
   inkscape:export-xdpi="90"
   inkscape:export-ydpi="90">
  <defs
     id="defs4">
    <linearGradient
       id="linearGradient4449">
      <stop
         id="stop4451"
         offset="0"
         style="stop-color:#ffffff;stop-opacity:0.74774772;" />
      <stop
         id="stop4453"
         offset="1"
         style="stop-color:#ffffff;stop-opacity:0;" />
    </linearGradient>
    <linearGradient
       id="linearGradient3893">
      <stop
         id="stop3895"
         offset="0"
         style="stop-color:#f83b3b;stop-opacity:1;" />
      <stop
         id="stop3897"
         offset="1"
         style="stop-color:#b30000;stop-opacity:1;" />
    </linearGradient>
    <linearGradient
       id="linearGradient3807">
      <stop
         style="stop-color:#ffffff;stop-opacity:0.53153151;"
         offset="0"
         id="stop3809" />
      <stop
         style="stop-color:#ffffff;stop-opacity:0;"
         offset="1"
         id="stop3811" />
    </linearGradient>
    <linearGradient
       id="linearGradient3791">
      <stop
         style="stop-color:#f83b3b;stop-opacity:1;"
         offset="0"
         id="stop3793" />
      <stop
         style="stop-color:#b30000;stop-opacity:1;"
         offset="1"
         id="stop3795" />
    </linearGradient>
    <linearGradient
       inkscape:collect="always"
       xlink:href="#linearGradient4449"
       id="linearGradient3935"
       gradientUnits="userSpaceOnUse"
       x1="56"
       y1="20.700001"
       x2="56"
       y2="33.148792" />
    <linearGradient
       inkscape:collect="always"
       xlink:href="#linearGradient4449"
       id="linearGradient3937"
       gradientUnits="userSpaceOnUse"
       x1="71"
       y1="3.0321777"
       x2="71"
       y2="12.265603" />
    <radialGradient
       gradientUnits="userSpaceOnUse"
       r="7.8289828"
       fy="74.20993"
       fx="14.772334"
       cy="74.20993"
       cx="14.772334"
       gradientTransform="scale(1.764278,0.566804)"
       id="radialGradient20216"
       xlink:href="#linearGradient20210"
       inkscape:collect="always" />
    <linearGradient
       id="linearGradient20210">
      <stop
         id="stop20212"
         offset="0.0000000"
         style="stop-color:#000000;stop-opacity:0.51546389;" />
      <stop
         style="stop-color:#000000;stop-opacity:0.14432989;"
         offset="0.55172414"
         id="stop20218" />
      <stop
         id="stop20214"
         offset="1"
         style="stop-color:#000000;stop-opacity:0;" />
    </linearGradient>
    <radialGradient
       r="7.8289828"
       fy="74.20993"
       fx="14.772334"
       cy="74.20993"
       cx="14.772334"
       gradientTransform="scale(1.764278,0.566804)"
       gradientUnits="userSpaceOnUse"
       id="radialGradient4385"
       xlink:href="#linearGradient20210"
       inkscape:collect="always" />
    <radialGradient
       inkscape:collect="always"
       xlink:href="#linearGradient20210"
       id="radialGradient4427"
       gradientUnits="userSpaceOnUse"
       gradientTransform="scale(1.764278,0.566804)"
       cx="14.772334"
       cy="74.20993"
       fx="14.772334"
       fy="74.20993"
       r="7.8289828" />
    <radialGradient
       inkscape:collect="always"
       xlink:href="#linearGradient20210"
       id="radialGradient4433"
       gradientUnits="userSpaceOnUse"
       gradientTransform="scale(1.764278,0.566804)"
       cx="14.772334"
       cy="74.20993"
       fx="14.772334"
       fy="74.20993"
       r="7.8289828" />
    <linearGradient
       inkscape:collect="always"
       xlink:href="#linearGradient3791"
       id="linearGradient4437"
       gradientUnits="userSpaceOnUse"
       x1="71"
       y1="43"
       x2="71"
       y2="20.700001" />
    <linearGradient
       inkscape:collect="always"
       xlink:href="#linearGradient4449"
       id="linearGradient4439"
       gradientUnits="userSpaceOnUse"
       x1="71"
       y1="22.245617"
       x2="71.049721"
       y2="41.521347" />
    <linearGradient
       inkscape:collect="always"
       xlink:href="#linearGradient3791"
       id="linearGradient4441"
       gradientUnits="userSpaceOnUse"
       x1="71"
       y1="14.924109"
       x2="71"
       y2="3.0079622" />
    <linearGradient
       inkscape:collect="always"
       xlink:href="#linearGradient4449"
       id="linearGradient4443"
       gradientUnits="userSpaceOnUse"
       x1="70.950157"
       y1="4.0833006"
       x2="71"
       y2="13.43459" />
    <linearGradient
       inkscape:collect="always"
       xlink:href="#linearGradient4449"
       id="linearGradient4445"
       gradientUnits="userSpaceOnUse"
       x1="56"
       y1="20.700001"
       x2="56"
       y2="33.148792" />
    <linearGradient
       inkscape:collect="always"
       xlink:href="#linearGradient4449"
       id="linearGradient4447"
       gradientUnits="userSpaceOnUse"
       x1="71"
       y1="3.0321777"
       x2="71"
       y2="12.265603" />
  </defs>
  <sodipodi:namedview
     id="base"
     pagecolor="#ffffff"
     bordercolor="#666666"
     borderopacity="1.0"
     inkscape:pageopacity="0.0"
     inkscape:pageshadow="2"
     inkscape:zoom="8"
     inkscape:cx="26.024222"
     inkscape:cy="2.1834206"
     inkscape:document-units="px"
     inkscape:current-layer="g3923"
     showgrid="false"
     inkscape:window-width="1440"
     inkscape:window-height="838"
     inkscape:window-x="-8"
     inkscape:window-y="-8"
     inkscape:window-maximized="1"
     showguides="false"
     inkscape:guide-bbox="true"
     showborder="true">
    <sodipodi:guide
       orientation="1,0"
       position="18,15"
       id="guide3007" />
    <sodipodi:guide
       orientation="1,0"
       position="30,15"
       id="guide3009" />
    <sodipodi:guide
       orientation="0,1"
       position="65,5"
       id="guide3011" />
    <sodipodi:guide
       orientation="0,1"
       position="65,27.3"
       id="guide3013" />
    <sodipodi:guide
       orientation="1,0"
       position="24,27.5"
       id="guide3015" />
    <sodipodi:guide
       orientation="0,1"
       position="98.660715,20.535714"
       id="guide3787" />
    <sodipodi:guide
       orientation="0,1"
       position="100.53571,24.642857"
       id="guide3789" />
    <sodipodi:guide
       orientation="1,0"
       position="4,22"
       id="guide3857" />
    <sodipodi:guide
       orientation="1,0"
       position="14,22"
       id="guide3859" />
    <sodipodi:guide
       orientation="0,1"
       position="60,11"
       id="guide3865" />
    <sodipodi:guide
       orientation="0,1"
       position="49.055533,25"
       id="guide3867" />
    <sodipodi:guide
       orientation="1,0"
       position="9,25"
       id="guide3869" />
    <sodipodi:guide
       orientation="0,1"
       position="43.373425,20"
       id="guide3871" />
  </sodipodi:namedview>
  <metadata
     id="metadata7">
    <rdf:RDF>
      <cc:Work
         rdf:about="">
        <dc:format>image/svg+xml</dc:format>
        <dc:type
           rdf:resource="http://purl.org/dc/dcmitype/StillImage" />
        <dc:title></dc:title>
      </cc:Work>
    </rdf:RDF>
  </metadata>
  <g
     inkscape:label="Layer 1"
     inkscape:groupmode="layer"
     id="layer1"
     transform="translate(0,-1020.3622)"
     style="display:none"
     sodipodi:insensitive="true">
    <image
       y="1004.3622"
       x="-48"
       id="image2993"
       xlink:href="file:///F:/Chamilo-Images/Icons-Tango/48x48/podcast_003.png"
       height="48"
       width="48" />
    <image
       y="1006.3622"
       x="50"
       id="image3004"
       xlink:href="file:///F:/Chamilo-Images/Icons-Tango/22x22/as-neighbors.png"
       height="44"
       width="44" />
  </g>
  <g
     inkscape:groupmode="layer"
     id="layer3"
     inkscape:label="Shadows"
     style="display:inline"
     transform="translate(0,-16)">
    <path
       transform="matrix(0.79812599,0,0,0.73239766,-4.0894401,13.764649)"
       d="m 39.875,42.0625 a 13.8125,4.4375 0 1 1 -27.625,0 13.8125,4.4375 0 1 1 27.625,0 z"
       sodipodi:ry="4.4375"
       sodipodi:rx="13.8125"
       sodipodi:cy="42.0625"
       sodipodi:cx="26.0625"
       id="path20208"
       style="opacity:0.8;color:#000000;fill:url(#radialGradient4385);fill-opacity:1;fill-rule:nonzero;stroke:none;stroke-width:2;marker:none;visibility:visible;display:inline;overflow:visible"
       sodipodi:type="arc"
       inkscape:r_cx="true"
       inkscape:r_cy="true" />
    <path
       inkscape:r_cy="true"
       inkscape:r_cx="true"
       sodipodi:type="arc"
       style="opacity:0.8;color:#000000;fill:url(#radialGradient4427);fill-opacity:1;fill-rule:nonzero;stroke:none;stroke-width:2;marker:none;visibility:visible;display:inline;overflow:visible"
       id="path4425"
       sodipodi:cx="26.0625"
       sodipodi:cy="42.0625"
       sodipodi:rx="13.8125"
       sodipodi:ry="4.4375"
       d="m 39.875,42.0625 a 13.8125,4.4375 0 1 1 -27.625,0 13.8125,4.4375 0 1 1 27.625,0 z"
       transform="matrix(0.38612561,0,0,0.35433041,-4.0184004,25.583747)" />
    <path
       transform="matrix(0.38612561,0,0,0.35433041,15.9817,25.583747)"
       d="m 39.875,42.0625 a 13.8125,4.4375 0 1 1 -27.625,0 13.8125,4.4375 0 1 1 27.625,0 z"
       sodipodi:ry="4.4375"
       sodipodi:rx="13.8125"
       sodipodi:cy="42.0625"
       sodipodi:cx="26.0625"
       id="path4429"
       style="opacity:0.8;color:#000000;fill:url(#radialGradient4433);fill-opacity:1;fill-rule:nonzero;stroke:none;stroke-width:2;marker:none;visibility:visible;display:inline;overflow:visible"
       sodipodi:type="arc"
       inkscape:r_cx="true"
       inkscape:r_cy="true" />
  </g>
  <g
     inkscape:groupmode="layer"
     id="layer2"
     inkscape:label="Middle"
     style="display:inline"
     transform="translate(0,-16)">
    <g
       id="g3851"
       transform="matrix(0.66667,0,0,0.66667,-31.288521,15.82098)">
      <path
         sodipodi:nodetypes="czzzcc"
         inkscape:connector-curvature="0"
         id="path3017"
         d="M 77,43 C 77,43 77,31.571429 77,27.464286 77,23.357143 73.885581,20.7 71,20.7 c -2.885581,0 -6,2.657143 -6,6.764286 C 65,31.571429 65,43 65,43 z"
         style="fill:url(#linearGradient4437);fill-opacity:1;stroke:#a50404;stroke-width:1.4999925;stroke-linecap:butt;stroke-linejoin:miter;stroke-opacity:1;display:inline;stroke-miterlimit:4;stroke-dasharray:none" />
      <path
         d="m 71,22.21875 c -1.941699,0 -4.46875,1.915198 -4.46875,5.25 l 0,14 8.9375,0 0,-14 c 0,-3.334802 -2.527051,-5.25 -4.46875,-5.25 z"
         id="path3805"
         style="fill:none;stroke:url(#linearGradient4439);stroke-width:1.49999248999999990;stroke-linecap:butt;stroke-linejoin:miter;stroke-miterlimit:4;stroke-opacity:1;stroke-dasharray:none;display:inline"
         inkscape:original="M 71 20.6875 C 68.114419 20.6875 65 23.361607 65 27.46875 L 65 43 L 77 43 L 77 27.46875 C 77 23.361607 73.885581 20.6875 71 20.6875 z "
         inkscape:radius="-1.5277888"
         sodipodi:type="inkscape:offset" />
      <path
         transform="matrix(0.99748361,0,0,1.0639825,0.17866349,1.7281525)"
         d="m 77,8.7142859 c 0,3.1066021 -2.686292,5.6250001 -6,5.6250001 -3.313708,0 -6,-2.518398 -6,-5.6250001 0,-3.1066018 2.686292,-5.625 6,-5.625 3.313708,0 6,2.5183982 6,5.625 z"
         sodipodi:ry="5.625"
         sodipodi:rx="6"
         sodipodi:cy="8.7142859"
         sodipodi:cx="71"
         id="path3817"
         style="fill:url(#linearGradient4441);fill-opacity:1;stroke:#a50404;stroke-width:1.45602543;stroke-linejoin:round;stroke-miterlimit:4;stroke-opacity:1;stroke-dasharray:none"
         sodipodi:type="arc" />
      <path
         transform="matrix(0.99748361,0,0,1.0639825,0.17866349,1.7281525)"
         d="m 71,4.5625 c -2.568942,0 -4.53125,1.8970266 -4.53125,4.15625 0,2.259224 1.962308,4.15625 4.53125,4.15625 2.568942,0 4.53125,-1.897026 4.53125,-4.15625 C 75.53125,6.4595266 73.568942,4.5625 71,4.5625 z"
         id="path3837"
         style="fill:none;stroke:url(#linearGradient4443);stroke-width:1.45602548;stroke-linejoin:round;stroke-miterlimit:4;stroke-opacity:1;stroke-dasharray:none"
         inkscape:original="M 71 3.09375 C 67.686292 3.09375 65 5.6121483 65 8.71875 C 65 11.825352 67.686292 14.34375 71 14.34375 C 74.313708 14.34375 77 11.825352 77 8.71875 C 77 5.6121483 74.313708 3.09375 71 3.09375 z "
         inkscape:radius="-1.4699445"
         sodipodi:type="inkscape:offset" />
    </g>
  </g>
  <g
     style="display:inline"
     inkscape:label="Left"
     id="g3841"
     inkscape:groupmode="layer"
     transform="translate(0,-16)">
    <g
       id="g3917"
       transform="matrix(0.66667,0,0,0.66667,-31.288521,15.82098)">
      <path
         style="fill:#ef2929;fill-opacity:1;stroke:#cc0000;stroke-width:1.4999925;stroke-linecap:butt;stroke-linejoin:miter;stroke-miterlimit:4;stroke-opacity:1;stroke-dasharray:none;display:inline"
         d="m 61,37 c 0,0 0,-5.840659 0,-9 0,-3.159341 -2.780322,-5 -5,-5 -2.219678,0 -5,1.840659 -5,5 0,3.159341 0,9 0,9 z"
         id="path3843"
         inkscape:connector-curvature="0"
         sodipodi:nodetypes="czzzcc" />
      <path
         sodipodi:type="arc"
         style="fill:#ef2e2e;fill-opacity:1;stroke:#ce0505;stroke-opacity:0.90980392000000021;stroke-width:1.7428338;stroke-miterlimit:4;stroke-dasharray:none"
         id="path3847"
         sodipodi:cx="71"
         sodipodi:cy="8.7142859"
         sodipodi:rx="6"
         sodipodi:ry="5.625"
         d="m 77,8.7142859 c 0,3.1066021 -2.686292,5.6250001 -6,5.6250001 -3.313708,0 -6,-2.518398 -6,-5.6250001 0,-3.1066018 2.686292,-5.625 6,-5.625 3.313708,0 6,2.5183982 6,5.625 z"
         transform="matrix(0.83333333,0,0,0.88888888,-3.1666667,6.3236368)" />
      <path
         d="m 56,24.5 c -0.691454,0 -1.651979,0.329277 -2.34375,0.9375 C 52.964479,26.045723 52.5,26.864338 52.5,28 l 0,7.5 7,0 0,-7.5 c 0,-1.135662 -0.464479,-1.954277 -1.15625,-2.5625 C 57.651979,24.829277 56.691454,24.5 56,24.5 z"
         id="path3883"
         style="fill:none;stroke:url(#linearGradient4445);stroke-width:1.49999249;stroke-linecap:butt;stroke-linejoin:miter;stroke-miterlimit:4;stroke-opacity:1;stroke-dasharray:none;display:inline"
         inkscape:original="M 56 23 C 53.780322 23 51 24.840659 51 28 L 51 37 L 61 37 L 61 28 C 61 24.840659 58.219678 23 56 23 z "
         inkscape:radius="-1.5136102"
         sodipodi:type="inkscape:offset" />
      <path
         transform="matrix(0.83333333,0,0,0.88888888,-3.1666667,6.3236368)"
         d="m 71,4.8125 c -2.439681,0 -4.28125,1.7940967 -4.28125,3.90625 0,2.112154 1.841569,3.90625 4.28125,3.90625 2.439681,0 4.28125,-1.794096 4.28125,-3.90625 C 75.28125,6.6065967 73.439681,4.8125 71,4.8125 z"
         id="path3913"
         style="fill:none;stroke:url(#linearGradient4447);stroke-width:1.74283385;stroke-miterlimit:4;stroke-opacity:0.90980392;stroke-dasharray:none"
         inkscape:original="M 71 3.09375 C 67.686292 3.09375 65 5.6121483 65 8.71875 C 65 11.825352 67.686292 14.34375 71 14.34375 C 74.313708 14.34375 77 11.825352 77 8.71875 C 77 5.6121483 74.313708 3.09375 71 3.09375 z "
         inkscape:radius="-1.7250665"
         sodipodi:type="inkscape:offset" />
    </g>
  </g>
  <g
     inkscape:groupmode="layer"
     id="g3923"
     inkscape:label="Right"
     style="display:inline"
     transform="translate(0,-16)">
    <g
       id="g3925"
       transform="matrix(0.66667,0,0,0.66667,-11.288421,15.82098)">
      <path
         sodipodi:nodetypes="czzzcc"
         inkscape:connector-curvature="0"
         id="path3927"
         d="m 61,37 c 0,0 0,-5.840659 0,-9 0,-3.159341 -2.780322,-5 -5,-5 -2.219678,0 -5,1.840659 -5,5 0,3.159341 0,9 0,9 z"
         style="fill:#ef2929;fill-opacity:1;stroke:#cc0000;stroke-width:1.4999925;stroke-linecap:butt;stroke-linejoin:miter;stroke-miterlimit:4;stroke-opacity:1;stroke-dasharray:none;display:inline" />
      <path
         transform="matrix(0.83333333,0,0,0.88888888,-3.1666667,6.3236368)"
         d="m 77,8.7142859 c 0,3.1066021 -2.686292,5.6250001 -6,5.6250001 -3.313708,0 -6,-2.518398 -6,-5.6250001 0,-3.1066018 2.686292,-5.625 6,-5.625 3.313708,0 6,2.5183982 6,5.625 z"
         sodipodi:ry="5.625"
         sodipodi:rx="6"
         sodipodi:cy="8.7142859"
         sodipodi:cx="71"
         id="path3929"
         style="fill:#ef2e2e;fill-opacity:1;stroke:#ce0505;stroke-opacity:0.90980391999999999;stroke-width:1.7428338;stroke-miterlimit:4;stroke-dasharray:none"
         sodipodi:type="arc" />
      <path
         sodipodi:type="inkscape:offset"
         inkscape:radius="-1.4843587"
         inkscape:original="M 56 23 C 53.780322 23 51 24.840659 51 28 L 51 37 L 61 37 L 61 28 C 61 24.840659 58.219678 23 56 23 z "
         style="fill:none;stroke:url(#linearGradient3935);stroke-width:1.49999249;stroke-linecap:butt;stroke-linejoin:miter;stroke-miterlimit:4;stroke-opacity:1;stroke-dasharray:none;display:inline"
         id="path3931"
         d="m 56,24.46875 c -0.69954,0 -1.646553,0.355756 -2.34375,0.96875 -0.697197,0.612994 -1.1875,1.418257 -1.1875,2.5625 l 0,7.53125 7.0625,0 0,-7.53125 c 0,-1.144243 -0.490303,-1.949506 -1.1875,-2.5625 C 57.646553,24.824506 56.69954,24.46875 56,24.46875 z" />
      <path
         sodipodi:type="inkscape:offset"
         inkscape:radius="-1.7088317"
         inkscape:original="M 71 3.09375 C 67.686292 3.09375 65 5.6121483 65 8.71875 C 65 11.825352 67.686292 14.34375 71 14.34375 C 74.313708 14.34375 77 11.825352 77 8.71875 C 77 5.6121483 74.313708 3.09375 71 3.09375 z "
         style="fill:none;stroke:url(#linearGradient3937);stroke-width:1.74283385;stroke-miterlimit:4;stroke-opacity:0.90980392;stroke-dasharray:none"
         id="path3933"
         d="m 71,4.8125 c -2.447907,0 -4.28125,1.7847377 -4.28125,3.90625 0,2.121513 1.833343,3.90625 4.28125,3.90625 2.447907,0 4.28125,-1.784737 4.28125,-3.90625 C 75.28125,6.5972377 73.447907,4.8125 71,4.8125 z"
         transform="matrix(0.83333333,0,0,0.88888888,-3.1666667,6.3236368)" />
    </g>
  </g>
</svg>
