<?xml version="1.0" encoding="UTF-8" standalone="no"?>
<!-- Created with Inkscape (http://www.inkscape.org/) -->

<svg
   xmlns:dc="http://purl.org/dc/elements/1.1/"
   xmlns:cc="http://creativecommons.org/ns#"
   xmlns:rdf="http://www.w3.org/1999/02/22-rdf-syntax-ns#"
   xmlns:svg="http://www.w3.org/2000/svg"
   xmlns="http://www.w3.org/2000/svg"
   xmlns:xlink="http://www.w3.org/1999/xlink"
   xmlns:sodipodi="http://sodipodi.sourceforge.net/DTD/sodipodi-0.dtd"
   xmlns:inkscape="http://www.inkscape.org/namespaces/inkscape"
   width="48"
   height="48"
   id="svg2"
   version="1.1"
   inkscape:version="0.48.2 r9819"
   sodipodi:docname="as-neighbors.svg">
  <defs
     id="defs4">
    <linearGradient
       id="linearGradient4449">
      <stop
         id="stop4451"
         offset="0"
         style="stop-color:#ffffff;stop-opacity:0.74774772;" />
      <stop
         id="stop4453"
         offset="1"
         style="stop-color:#ffffff;stop-opacity:0;" />
    </linearGradient>
    <linearGradient
       id="linearGradient3893">
      <stop
         id="stop3895"
         offset="0"
         style="stop-color:#f83b3b;stop-opacity:1;" />
      <stop
         id="stop3897"
         offset="1"
         style="stop-color:#b30000;stop-opacity:1;" />
    </linearGradient>
    <linearGradient
       id="linearGradient3807">
      <stop
         style="stop-color:#ffffff;stop-opacity:0.53153151;"
         offset="0"
         id="stop3809" />
      <stop
         style="stop-color:#ffffff;stop-opacity:0;"
         offset="1"
         id="stop3811" />
    </linearGradient>
    <linearGradient
       id="linearGradient3791">
      <stop
         style="stop-color:#f83b3b;stop-opacity:1;"
         offset="0"
         id="stop3793" />
      <stop
         style="stop-color:#b30000;stop-opacity:1;"
         offset="1"
         id="stop3795" />
    </linearGradient>
    <linearGradient
       inkscape:collect="always"
       xlink:href="#linearGradient4449"
       id="linearGradient3935"
       gradientUnits="userSpaceOnUse"
       x1="56"
       y1="20.700001"
       x2="56"
       y2="33.148792" />
    <linearGradient
       inkscape:collect="always"
       xlink:href="#linearGradient4449"
       id="linearGradient3937"
       gradientUnits="userSpaceOnUse"
       x1="71"
       y1="3.0321777"
       x2="71"
       y2="12.265603" />
    <radialGradient
       gradientUnits="userSpaceOnUse"
       r="7.8289828"
       fy="74.20993"
       fx="14.772334"
       cy="74.20993"
       cx="14.772334"
       gradientTransform="scale(1.764278,0.566804)"
       id="radialGradient20216"
       xlink:href="#linearGradient20210"
       inkscape:collect="always" />
    <linearGradient
       id="linearGradient20210">
      <stop
         id="stop20212"
         offset="0.0000000"
         style="stop-color:#000000;stop-opacity:0.51546389;" />
      <stop
         style="stop-color:#000000;stop-opacity:0.14432989;"
         offset="0.55172414"
         id="stop20218" />
      <stop
         id="stop20214"
         offset="1"
         style="stop-color:#000000;stop-opacity:0;" />
    </linearGradient>
    <radialGradient
       r="7.8289828"
       fy="74.20993"
       fx="14.772334"
       cy="74.20993"
       cx="14.772334"
       gradientTransform="scale(1.764278,0.566804)"
       gradientUnits="userSpaceOnUse"
       id="radialGradient4385"
       xlink:href="#linearGradient20210"
       inkscape:collect="always" />
    <radialGradient
       inkscape:collect="always"
       xlink:href="#linearGradient20210"
       id="radialGradient4427"
       gradientUnits="userSpaceOnUse"
       gradientTransform="scale(1.764278,0.566804)"
       cx="14.772334"
       cy="74.20993"
       fx="14.772334"
       fy="74.20993"
       r="7.8289828" />
    <radialGradient
       inkscape:collect="always"
       xlink:href="#linearGradient20210"
       id="radialGradient4433"
       gradientUnits="userSpaceOnUse"
       gradientTransform="scale(1.764278,0.566804)"
       cx="14.772334"
       cy="74.20993"
       fx="14.772334"
       fy="74.20993"
       r="7.8289828" />
    <linearGradient
       inkscape:collect="always"
       xlink:href="#linearGradient3791"
       id="linearGradient4437"
       gradientUnits="userSpaceOnUse"
       x1="71"
       y1="43"
       x2="71"
       y2="20.700001" />
    <linearGradient
       inkscape:collect="always"
       xlink:href="#linearGradient4449"
       id="linearGradient4439"
       gradientUnits="userSpaceOnUse"
       x1="71"
       y1="21.682144"
       x2="71"
       y2="42.08482" />
    <linearGradient
       inkscape:collect="always"
       xlink:href="#linearGradient3791"
       id="linearGradient4441"
       gradientUnits="userSpaceOnUse"
       x1="71"
       y1="14.924109"
       x2="71"
       y2="3.0079622" />
    <linearGradient
       inkscape:collect="always"
       xlink:href="#linearGradient4449"
       id="linearGradient4443"
       gradientUnits="userSpaceOnUse"
       x1="71"
       y1="4.098877"
       x2="71"
       y2="13.43459" />
    <linearGradient
       inkscape:collect="always"
       xlink:href="#linearGradient4449"
       id="linearGradient4445"
       gradientUnits="userSpaceOnUse"
       x1="56"
       y1="20.700001"
       x2="56"
       y2="33.148792" />
    <linearGradient
       inkscape:collect="always"
       xlink:href="#linearGradient4449"
       id="linearGradient4447"
       gradientUnits="userSpaceOnUse"
       x1="71"
       y1="3.0321777"
       x2="71"
       y2="12.265603" />
  </defs>
  <sodipodi:namedview
     id="base"
     pagecolor="#ffffff"
     bordercolor="#666666"
     borderopacity="1.0"
     inkscape:pageopacity="0.0"
     inkscape:pageshadow="2"
     inkscape:zoom="1"
     inkscape:cx="-377.55329"
     inkscape:cy="91.052478"
     inkscape:document-units="px"
     inkscape:current-layer="g3841"
     showgrid="false"
     inkscape:window-width="1440"
     inkscape:window-height="838"
     inkscape:window-x="-8"
     inkscape:window-y="-8"
     inkscape:window-maximized="1"
     showguides="false"
     inkscape:guide-bbox="true"
     showborder="true">
    <sodipodi:guide
       orientation="1,0"
       position="18,15"
       id="guide3007" />
    <sodipodi:guide
       orientation="1,0"
       position="30,15"
       id="guide3009" />
    <sodipodi:guide
       orientation="0,1"
       position="65,5"
       id="guide3011" />
    <sodipodi:guide
       orientation="0,1"
       position="65,27.3"
       id="guide3013" />
    <sodipodi:guide
       orientation="1,0"
       position="24,27.5"
       id="guide3015" />
    <sodipodi:guide
       orientation="0,1"
       position="98.660715,20.535714"
       id="guide3787" />
    <sodipodi:guide
       orientation="0,1"
       position="100.53571,24.642857"
       id="guide3789" />
    <sodipodi:guide
       orientation="1,0"
       position="4,22"
       id="guide3857" />
    <sodipodi:guide
       orientation="1,0"
       position="14,22"
       id="guide3859" />
    <sodipodi:guide
       orientation="0,1"
       position="60,11"
       id="guide3865" />
    <sodipodi:guide
       orientation="0,1"
       position="49.055533,25"
       id="guide3867" />
    <sodipodi:guide
       orientation="1,0"
       position="9,25"
       id="guide3869" />
    <sodipodi:guide
       orientation="0,1"
       position="43.373425,20"
       id="guide3871" />
  </sodipodi:namedview>
  <metadata
     id="metadata7">
    <rdf:RDF>
      <cc:Work
         rdf:about="">
        <dc:format>image/svg+xml</dc:format>
        <dc:type
           rdf:resource="http://purl.org/dc/dcmitype/StillImage" />
        <dc:title></dc:title>
      </cc:Work>
    </rdf:RDF>
  </metadata>
  <g
     inkscape:label="Layer 1"
     inkscape:groupmode="layer"
     id="layer1"
     transform="translate(0,-1004.3622)"
     style="display:none"
     sodipodi:insensitive="true">
    <image
       y="1004.3622"
       x="-48"
       id="image2993"
       xlink:href="file:///F:/Chamilo-Images/Icons-Tango/48x48/podcast_003.png"
       height="48"
       width="48" />
    <image
       y="1006.3622"
       x="50"
       id="image3004"
       xlink:href="file:///F:/Chamilo-Images/Icons-Tango/22x22/as-neighbors.png"
       height="44"
       width="44" />
  </g>
  <g
     inkscape:groupmode="layer"
     id="layer3"
     inkscape:label="Shadows"
     style="display:inline"
     sodipodi:insensitive="true">
    <path
       transform="matrix(1.197183,0,0,1.098591,-6.201582,-3.0844815)"
       d="m 39.875,42.0625 a 13.8125,4.4375 0 1 1 -27.625,0 13.8125,4.4375 0 1 1 27.625,0 z"
       sodipodi:ry="4.4375"
       sodipodi:rx="13.8125"
       sodipodi:cy="42.0625"
       sodipodi:cx="26.0625"
       id="path20208"
       style="opacity:0.8;color:#000000;fill:url(#radialGradient4385);fill-opacity:1;fill-rule:nonzero;stroke:none;stroke-width:2;marker:none;visibility:visible;display:inline;overflow:visible"
       sodipodi:type="arc"
       inkscape:r_cx="true"
       inkscape:r_cy="true" />
    <path
       inkscape:r_cy="true"
       inkscape:r_cx="true"
       sodipodi:type="arc"
       style="opacity:0.8;color:#000000;fill:url(#radialGradient4427);fill-opacity:1;fill-rule:nonzero;stroke:none;stroke-width:2;marker:none;visibility:visible;display:inline;overflow:visible"
       id="path4425"
       sodipodi:cx="26.0625"
       sodipodi:cy="42.0625"
       sodipodi:rx="13.8125"
       sodipodi:ry="4.4375"
       d="m 39.875,42.0625 a 13.8125,4.4375 0 1 1 -27.625,0 13.8125,4.4375 0 1 1 27.625,0 z"
       transform="matrix(0.57918552,0,0,0.53149296,-6.095023,14.644077)" />
    <path
       transform="matrix(0.57918552,0,0,0.53149296,23.904977,14.644077)"
       d="m 39.875,42.0625 a 13.8125,4.4375 0 1 1 -27.625,0 13.8125,4.4375 0 1 1 27.625,0 z"
       sodipodi:ry="4.4375"
       sodipodi:rx="13.8125"
       sodipodi:cy="42.0625"
       sodipodi:cx="26.0625"
       id="path4429"
       style="opacity:0.8;color:#000000;fill:url(#radialGradient4433);fill-opacity:1;fill-rule:nonzero;stroke:none;stroke-width:2;marker:none;visibility:visible;display:inline;overflow:visible"
       sodipodi:type="arc"
       inkscape:r_cx="true"
       inkscape:r_cy="true" />
  </g>
  <g
     inkscape:groupmode="layer"
     id="layer2"
     inkscape:label="Middle"
     style="display:inline"
     sodipodi:insensitive="true">
    <g
       id="g3851"
       transform="translate(-47,0)">
      <path
         sodipodi:nodetypes="czzzcc"
         inkscape:connector-curvature="0"
         id="path3017"
         d="M 77,43 C 77,43 77,31.571429 77,27.464286 77,23.357143 73.885581,20.7 71,20.7 c -2.885581,0 -6,2.657143 -6,6.764286 C 65,31.571429 65,43 65,43 z"
         style="fill:url(#linearGradient4437);fill-opacity:1;stroke:#a50404;stroke-width:1px;stroke-linecap:butt;stroke-linejoin:miter;stroke-opacity:1;display:inline" />
      <path
         d="m 71,21.6875 c -2.263651,0 -5,2.183008 -5,5.78125 L 66,42 76,42 76,27.46875 C 76,23.870508 73.263651,21.6875 71,21.6875 z"
         id="path3805"
         style="fill:none;stroke:url(#linearGradient4439);stroke-width:1;stroke-linecap:butt;stroke-linejoin:miter;stroke-miterlimit:4;stroke-opacity:1;stroke-dasharray:none;display:inline"
         inkscape:original="M 71 20.6875 C 68.114419 20.6875 65 23.361607 65 27.46875 L 65 43 L 77 43 L 77 27.46875 C 77 23.361607 73.885581 20.6875 71 20.6875 z "
         inkscape:radius="-1.00667"
         sodipodi:type="inkscape:offset" />
      <path
         transform="matrix(0.99748361,0,0,1.0639825,0.17866349,1.7281525)"
         d="m 77,8.7142859 a 6,5.625 0 1 1 -12,0 6,5.625 0 1 1 12,0 z"
         sodipodi:ry="5.625"
         sodipodi:rx="6"
         sodipodi:cy="8.7142859"
         sodipodi:cx="71"
         id="path3817"
         style="fill:url(#linearGradient4441);fill-opacity:1;stroke:#a50404;stroke-width:1;stroke-linejoin:round;stroke-miterlimit:4;stroke-opacity:1;stroke-dasharray:none"
         sodipodi:type="arc" />
      <path
         transform="matrix(0.99748361,0,0,1.0639825,0.17866349,1.7281525)"
         d="m 71,4.09375 c -2.801667,0 -5,2.1009867 -5,4.625 0,2.524014 2.198332,4.625 5,4.625 2.801668,0 5,-2.100986 5,-4.625 0,-2.5240133 -2.198333,-4.625 -5,-4.625 z"
         id="path3837"
         style="fill:none;stroke:url(#linearGradient4443);stroke-width:1;stroke-linejoin:round;stroke-miterlimit:4;stroke-opacity:1;stroke-dasharray:none"
         inkscape:original="M 71 3.09375 C 67.686292 3.09375 65 5.6121483 65 8.71875 C 65 11.825352 67.686292 14.34375 71 14.34375 C 74.313708 14.34375 77 11.825352 77 8.71875 C 77 5.6121483 74.313708 3.09375 71 3.09375 z "
         inkscape:radius="-1.0106143"
         sodipodi:type="inkscape:offset" />
    </g>
  </g>
  <g
     style="display:inline"
     inkscape:label="Left"
     id="g3841"
     inkscape:groupmode="layer"
     sodipodi:insensitive="true">
    <g
       id="g3917"
       transform="translate(-47,0)">
      <path
         style="fill:#ef2929;fill-opacity:1;stroke:#cc0000;stroke-width:1;stroke-linecap:butt;stroke-linejoin:miter;stroke-miterlimit:4;stroke-opacity:1;stroke-dasharray:none;display:inline"
         d="m 61,37 c 0,0 0,-5.840659 0,-9 0,-3.159341 -2.780322,-5 -5,-5 -2.219678,0 -5,1.840659 -5,5 0,3.159341 0,9 0,9 z"
         id="path3843"
         inkscape:connector-curvature="0"
         sodipodi:nodetypes="czzzcc" />
      <path
         sodipodi:type="arc"
         style="fill:#ef2e2e;fill-opacity:1;stroke:#ce0505;stroke-opacity:0.90980392"
         id="path3847"
         sodipodi:cx="71"
         sodipodi:cy="8.7142859"
         sodipodi:rx="6"
         sodipodi:ry="5.625"
         d="m 77,8.7142859 a 6,5.625 0 1 1 -12,0 6,5.625 0 1 1 12,0 z"
         transform="matrix(0.83333333,0,0,0.88888888,-3.1666667,6.3236368)" />
      <path
         d="m 56,24 c -0.830648,0 -1.871069,0.372148 -2.65625,1.0625 C 52.558569,25.752852 52,26.716619 52,28 l 0,8 8,0 0,-8 C 60,26.716619 59.441431,25.752852 58.65625,25.0625 57.871069,24.372148 56.830648,24 56,24 z"
         id="path3883"
         style="fill:none;stroke:url(#linearGradient4445);stroke-width:1;stroke-linecap:butt;stroke-linejoin:miter;stroke-miterlimit:4;stroke-opacity:1;stroke-dasharray:none;display:inline"
         inkscape:original="M 56 23 C 53.780322 23 51 24.840659 51 28 L 51 37 L 61 37 L 61 28 C 61 24.840659 58.219678 23 56 23 z "
         inkscape:radius="-1.010042"
         sodipodi:type="inkscape:offset" />
      <path
         transform="matrix(0.83333333,0,0,0.88888888,-3.1666667,6.3236368)"
         d="m 71,4.1875 c -2.76654,0 -4.90625,2.0472043 -4.90625,4.53125 0,2.484046 2.13971,4.53125 4.90625,4.53125 2.76654,0 4.90625,-2.047204 4.90625,-4.53125 C 75.90625,6.2347043 73.76654,4.1875 71,4.1875 z"
         id="path3913"
         style="fill:none;stroke:url(#linearGradient4447);stroke-width:1.16189504;stroke-miterlimit:4;stroke-opacity:0.90980392;stroke-dasharray:none"
         inkscape:original="M 71 3.09375 C 67.686292 3.09375 65 5.6121483 65 8.71875 C 65 11.825352 67.686292 14.34375 71 14.34375 C 74.313708 14.34375 77 11.825352 77 8.71875 C 77 5.6121483 74.313708 3.09375 71 3.09375 z "
         inkscape:radius="-1.079946"
         sodipodi:type="inkscape:offset" />
    </g>
  </g>
  <g
     inkscape:groupmode="layer"
     id="g3923"
     inkscape:label="Right"
     style="display:inline"
     sodipodi:insensitive="true">
    <g
       id="g3925"
       transform="translate(-17,0)">
      <path
         sodipodi:nodetypes="czzzcc"
         inkscape:connector-curvature="0"
         id="path3927"
         d="m 61,37 c 0,0 0,-5.840659 0,-9 0,-3.159341 -2.780322,-5 -5,-5 -2.219678,0 -5,1.840659 -5,5 0,3.159341 0,9 0,9 z"
         style="fill:#ef2929;fill-opacity:1;stroke:#cc0000;stroke-width:1;stroke-linecap:butt;stroke-linejoin:miter;stroke-miterlimit:4;stroke-opacity:1;stroke-dasharray:none;display:inline" />
      <path
         transform="matrix(0.83333333,0,0,0.88888888,-3.1666667,6.3236368)"
         d="m 77,8.7142859 a 6,5.625 0 1 1 -12,0 6,5.625 0 1 1 12,0 z"
         sodipodi:ry="5.625"
         sodipodi:rx="6"
         sodipodi:cy="8.7142859"
         sodipodi:cx="71"
         id="path3929"
         style="fill:#ef2e2e;fill-opacity:1;stroke:#ce0505;stroke-opacity:0.90980392"
         sodipodi:type="arc" />
      <path
         sodipodi:type="inkscape:offset"
         inkscape:radius="-1.010042"
         inkscape:original="M 56 23 C 53.780322 23 51 24.840659 51 28 L 51 37 L 61 37 L 61 28 C 61 24.840659 58.219678 23 56 23 z "
         style="fill:none;stroke:url(#linearGradient3935);stroke-width:1;stroke-linecap:butt;stroke-linejoin:miter;stroke-miterlimit:4;stroke-opacity:1;stroke-dasharray:none;display:inline"
         id="path3931"
         d="m 56,24 c -0.830648,0 -1.871069,0.372148 -2.65625,1.0625 C 52.558569,25.752852 52,26.716619 52,28 l 0,8 8,0 0,-8 C 60,26.716619 59.441431,25.752852 58.65625,25.0625 57.871069,24.372148 56.830648,24 56,24 z" />
      <path
         sodipodi:type="inkscape:offset"
         inkscape:radius="-0.98443943"
         inkscape:original="M 71 3.09375 C 67.686292 3.09375 65 5.6121483 65 8.71875 C 65 11.825352 67.686292 14.34375 71 14.34375 C 74.313708 14.34375 77 11.825352 77 8.71875 C 77 5.6121483 74.313708 3.09375 71 3.09375 z "
         style="fill:none;stroke:url(#linearGradient3937);stroke-opacity:0.90980392"
         id="path3933"
         d="m 71,4.09375 c -2.814929,0 -5,2.0858977 -5,4.625 0,2.539103 2.185071,4.625 5,4.625 2.814929,0 5,-2.085897 5,-4.625 0,-2.5391023 -2.185071,-4.625 -5,-4.625 z"
         transform="matrix(0.83333333,0,0,0.88888888,-3.1666667,6.3236368)" />
    </g>
  </g>
</svg>
