<?xml version="1.0" encoding="UTF-8" standalone="no"?>
<!-- Created with Inkscape (http://www.inkscape.org/) -->

<svg
   xmlns:dc="http://purl.org/dc/elements/1.1/"
   xmlns:cc="http://creativecommons.org/ns#"
   xmlns:rdf="http://www.w3.org/1999/02/22-rdf-syntax-ns#"
   xmlns:svg="http://www.w3.org/2000/svg"
   xmlns="http://www.w3.org/2000/svg"
   xmlns:xlink="http://www.w3.org/1999/xlink"
   xmlns:sodipodi="http://sodipodi.sourceforge.net/DTD/sodipodi-0.dtd"
   xmlns:inkscape="http://www.inkscape.org/namespaces/inkscape"
   width="48"
   height="48"
   id="svg2"
   version="1.1"
   inkscape:version="0.48.0 r9654"
   sodipodi:docname="DivX.svg"
   inkscape:export-filename="G:\Документы\Иконки\DivX\DivX Conv.png"
   inkscape:export-xdpi="90"
   inkscape:export-ydpi="90">
  <defs
     id="defs4">
    <linearGradient
       inkscape:collect="always"
       id="linearGradient8199">
      <stop
         style="stop-color:#eeeeec;stop-opacity:1"
         offset="0"
         id="stop8201" />
      <stop
         style="stop-color:#babdb6;stop-opacity:1"
         offset="1"
         id="stop8203" />
    </linearGradient>
    <linearGradient
       inkscape:collect="always"
       id="linearGradient8167">
      <stop
         style="stop-color:#aac5e2;stop-opacity:1"
         offset="0"
         id="stop8169" />
      <stop
         style="stop-color:#aac5e2;stop-opacity:0.22413793"
         offset="1"
         id="stop8171" />
    </linearGradient>
    <linearGradient
       inkscape:collect="always"
       id="linearGradient14388">
      <stop
         style="stop-color:#3465a4;stop-opacity:1"
         offset="0"
         id="stop14390" />
      <stop
         style="stop-color:#729fcf;stop-opacity:1"
         offset="1"
         id="stop14392" />
    </linearGradient>
    <linearGradient
       inkscape:collect="always"
       id="linearGradient14265">
      <stop
         style="stop-color:#eeeeec;stop-opacity:1;"
         offset="0"
         id="stop14267" />
      <stop
         style="stop-color:#eeeeec;stop-opacity:0;"
         offset="1"
         id="stop14269" />
    </linearGradient>
    <linearGradient
       inkscape:collect="always"
       id="linearGradient14255">
      <stop
         style="stop-color:#3465a4;stop-opacity:1"
         offset="0"
         id="stop14257" />
      <stop
         style="stop-color:#729fcf;stop-opacity:1"
         offset="1"
         id="stop14259" />
    </linearGradient>
    <linearGradient
       id="linearGradient14191">
      <stop
         offset="0"
         style="stop-color:#729fcf;stop-opacity:1"
         id="stop14193" />
      <stop
         offset="1"
         style="stop-color:#3465a4;stop-opacity:1"
         id="stop14195" />
    </linearGradient>
    <linearGradient
       inkscape:collect="always"
       id="linearGradient2223">
      <stop
         offset="0"
         id="stop2225"
         style="stop-color:#eeeeec;stop-opacity:1" />
      <stop
         offset="1"
         id="stop2229"
         style="stop-color:#888a85;stop-opacity:1" />
    </linearGradient>
    <linearGradient
       inkscape:collect="always"
       id="linearGradient2238">
      <stop
         offset="0"
         id="stop2240"
         style="stop-color:#ffffff;stop-opacity:1;" />
      <stop
         offset="1"
         id="stop2242"
         style="stop-color:#ffffff;stop-opacity:0;" />
    </linearGradient>
    <linearGradient
       id="linearGradient2206">
      <stop
         offset="0.0000000"
         id="stop2208"
         style="stop-color:#bababa;stop-opacity:1" />
      <stop
         offset="1.0000000"
         id="stop2210"
         style="stop-color:#eeeeec;stop-opacity:1" />
    </linearGradient>
    <linearGradient
       id="linearGradient2214">
      <stop
         offset="0.0000000"
         id="stop2216"
         style="stop-color:#9c9c9c;stop-opacity:1" />
      <stop
         offset="1.0000000"
         id="stop2218"
         style="stop-color:#808080;stop-opacity:1" />
    </linearGradient>
    <linearGradient
       inkscape:collect="always"
       xlink:href="#linearGradient5048"
       id="linearGradient9740"
       gradientUnits="userSpaceOnUse"
       gradientTransform="matrix(2.774389,0,0,1.969706,-1892.179,-872.8854)"
       x1="302.85715"
       y1="366.64789"
       x2="302.85715"
       y2="609.50507" />
    <linearGradient
       id="linearGradient5048">
      <stop
         offset="0"
         id="stop5050"
         style="stop-color:black;stop-opacity:0;" />
      <stop
         offset="0.5"
         id="stop5056"
         style="stop-color:black;stop-opacity:1;" />
      <stop
         offset="1"
         id="stop5052"
         style="stop-color:black;stop-opacity:0;" />
    </linearGradient>
    <radialGradient
       inkscape:collect="always"
       xlink:href="#linearGradient5060"
       id="radialGradient9743"
       gradientUnits="userSpaceOnUse"
       gradientTransform="matrix(2.774389,0,0,1.969706,-1891.633,-872.8854)"
       cx="605.71429"
       cy="486.64789"
       fx="605.71429"
       fy="486.64789"
       r="117.14286" />
    <linearGradient
       inkscape:collect="always"
       id="linearGradient5060">
      <stop
         offset="0"
         id="stop5062"
         style="stop-color:black;stop-opacity:1;" />
      <stop
         offset="1"
         id="stop5064"
         style="stop-color:black;stop-opacity:0;" />
    </linearGradient>
    <radialGradient
       r="117.14286"
       fy="486.64789"
       fx="605.71429"
       cy="486.64789"
       cx="605.71429"
       gradientTransform="matrix(-2.774389,0,0,1.969706,112.7623,-872.8854)"
       gradientUnits="userSpaceOnUse"
       id="radialGradient10312"
       xlink:href="#linearGradient5060"
       inkscape:collect="always" />
    <linearGradient
       id="linearGradient4873"
       inkscape:collect="always">
      <stop
         id="stop4875"
         offset="0"
         style="stop-color:#ffffff;stop-opacity:1;" />
      <stop
         id="stop4877"
         offset="1"
         style="stop-color:#ffffff;stop-opacity:0;" />
    </linearGradient>
    <linearGradient
       inkscape:collect="always"
       xlink:href="#linearGradient4873"
       id="linearGradient14197"
       gradientUnits="userSpaceOnUse"
       gradientTransform="matrix(0.15220884,-0.56798801,0.56825897,0.15224763,127.38899,1039.5063)"
       x1="41.852539"
       y1="10.272838"
       x2="6.3670197"
       y2="29.417051" />
    <linearGradient
       inkscape:collect="always"
       xlink:href="#linearGradient14191"
       id="linearGradient14199"
       gradientUnits="userSpaceOnUse"
       gradientTransform="matrix(0.15220884,-0.56798801,0.56825897,0.15224763,127.38899,1039.5063)"
       x1="41.261032"
       y1="8.7263689"
       x2="9.6409016"
       y2="32.568653" />
    <linearGradient
       inkscape:collect="always"
       xlink:href="#linearGradient14255"
       id="linearGradient14261"
       x1="29.9375"
       y1="1039.1636"
       x2="20.625"
       y2="1016.2261"
       gradientUnits="userSpaceOnUse"
       gradientTransform="matrix(0.93939391,0,0,1.0326775,-58.54545,-32.947428)" />
    <linearGradient
       inkscape:collect="always"
       xlink:href="#linearGradient14265"
       id="linearGradient14271"
       x1="19.087107"
       y1="1017.1793"
       x2="28.725069"
       y2="1044.7565"
       gradientUnits="userSpaceOnUse"
       gradientTransform="matrix(0.93939391,0,0,1.0326775,-58.54545,-32.947428)" />
    <linearGradient
       inkscape:collect="always"
       xlink:href="#linearGradient3219"
       id="linearGradient3228"
       gradientUnits="userSpaceOnUse"
       x1="-66.22525"
       y1="-79.241585"
       x2="-46.223351"
       y2="-36.449364"
       gradientTransform="matrix(0.75443276,0,0,0.75388941,65.68865,1073.707)" />
    <linearGradient
       inkscape:collect="always"
       id="linearGradient3219">
      <stop
         style="stop-color:#ffffff;stop-opacity:1;"
         offset="0"
         id="stop3221" />
      <stop
         style="stop-color:#ffffff;stop-opacity:0;"
         offset="1"
         id="stop3223" />
    </linearGradient>
    <linearGradient
       inkscape:collect="always"
       xlink:href="#linearGradient14388"
       id="linearGradient14394"
       x1="-56.133743"
       y1="-50.774242"
       x2="-63.064087"
       y2="-73.914772"
       gradientUnits="userSpaceOnUse" />
    <linearGradient
       inkscape:collect="always"
       xlink:href="#linearGradient5048"
       id="linearGradient14414"
       gradientUnits="userSpaceOnUse"
       gradientTransform="matrix(2.774389,0,0,1.969706,-1892.179,-872.8854)"
       x1="302.85715"
       y1="366.64789"
       x2="302.85715"
       y2="609.50507" />
    <radialGradient
       inkscape:collect="always"
       xlink:href="#linearGradient5060"
       id="radialGradient14416"
       gradientUnits="userSpaceOnUse"
       gradientTransform="matrix(2.774389,0,0,1.969706,-1891.633,-872.8854)"
       cx="605.71429"
       cy="486.64789"
       fx="605.71429"
       fy="486.64789"
       r="117.14286" />
    <radialGradient
       inkscape:collect="always"
       xlink:href="#linearGradient5060"
       id="radialGradient14418"
       gradientUnits="userSpaceOnUse"
       gradientTransform="matrix(-2.774389,0,0,1.969706,112.7623,-872.8854)"
       cx="605.71429"
       cy="486.64789"
       fx="605.71429"
       fy="486.64789"
       r="117.14286" />
    <linearGradient
       inkscape:collect="always"
       xlink:href="#linearGradient2206"
       id="linearGradient14420"
       gradientUnits="userSpaceOnUse"
       gradientTransform="matrix(0.91213245,0,0,1.0526084,2.04929,1003.0166)"
       x1="28.410345"
       y1="45.056278"
       x2="22.049141"
       y2="3.9257917" />
    <linearGradient
       inkscape:collect="always"
       xlink:href="#linearGradient2214"
       id="linearGradient14422"
       gradientUnits="userSpaceOnUse"
       gradientTransform="matrix(0.91213245,0,0,1.0526084,2.04929,1003.0166)"
       x1="24.065258"
       y1="3.1011577"
       x2="24.065258"
       y2="45.056278" />
    <linearGradient
       inkscape:collect="always"
       xlink:href="#linearGradient2238"
       id="linearGradient14424"
       gradientUnits="userSpaceOnUse"
       gradientTransform="matrix(0.91227463,0,0,1.0478466,2.03866,1004.0972)"
       x1="25.286486"
       y1="-1.1464647"
       x2="25.122681"
       y2="48.519287" />
    <linearGradient
       inkscape:collect="always"
       xlink:href="#linearGradient2223"
       id="linearGradient14426"
       gradientUnits="userSpaceOnUse"
       gradientTransform="matrix(0.95658258,0,0,1.2278331,0.96277,1003.2917)"
       x1="25.062595"
       y1="36.450726"
       x2="24.978094"
       y2="4.7250991" />
    <linearGradient
       inkscape:collect="always"
       xlink:href="#linearGradient2223"
       id="linearGradient14428"
       gradientUnits="userSpaceOnUse"
       gradientTransform="matrix(0.95658258,0,0,1.2278331,0.96277,1003.2917)"
       x1="25.062595"
       y1="36.450726"
       x2="24.978094"
       y2="4.7250991" />
    <linearGradient
       inkscape:collect="always"
       xlink:href="#linearGradient5048"
       id="linearGradient14482"
       gradientUnits="userSpaceOnUse"
       gradientTransform="matrix(2.774389,0,0,1.969706,-1892.179,-872.8854)"
       x1="302.85715"
       y1="366.64789"
       x2="302.85715"
       y2="609.50507" />
    <radialGradient
       inkscape:collect="always"
       xlink:href="#linearGradient5060"
       id="radialGradient14484"
       gradientUnits="userSpaceOnUse"
       gradientTransform="matrix(2.774389,0,0,1.969706,-1891.633,-872.8854)"
       cx="605.71429"
       cy="486.64789"
       fx="605.71429"
       fy="486.64789"
       r="117.14286" />
    <radialGradient
       inkscape:collect="always"
       xlink:href="#linearGradient5060"
       id="radialGradient14486"
       gradientUnits="userSpaceOnUse"
       gradientTransform="matrix(-2.774389,0,0,1.969706,112.7623,-872.8854)"
       cx="605.71429"
       cy="486.64789"
       fx="605.71429"
       fy="486.64789"
       r="117.14286" />
    <linearGradient
       inkscape:collect="always"
       xlink:href="#linearGradient2206"
       id="linearGradient8519"
       gradientUnits="userSpaceOnUse"
       gradientTransform="matrix(0.91213245,0,0,1.0526084,-57.95071,1003.0166)"
       x1="28.410345"
       y1="45.056278"
       x2="22.049141"
       y2="3.9257917" />
    <linearGradient
       inkscape:collect="always"
       xlink:href="#linearGradient2214"
       id="linearGradient8521"
       gradientUnits="userSpaceOnUse"
       gradientTransform="matrix(0.91213245,0,0,1.0526084,-57.95071,1003.0166)"
       x1="24.065258"
       y1="3.1011577"
       x2="24.065258"
       y2="45.056278" />
    <linearGradient
       inkscape:collect="always"
       xlink:href="#linearGradient2238"
       id="linearGradient8523"
       gradientUnits="userSpaceOnUse"
       gradientTransform="matrix(0.91227463,0,0,1.0478466,-57.96134,1004.0972)"
       x1="25.286486"
       y1="-1.1464647"
       x2="25.122681"
       y2="48.519287" />
    <linearGradient
       inkscape:collect="always"
       xlink:href="#linearGradient2223"
       id="linearGradient8525"
       gradientUnits="userSpaceOnUse"
       gradientTransform="matrix(0.95658258,0,0,1.2278331,-59.03723,1003.2917)"
       x1="25.062595"
       y1="36.450726"
       x2="24.978094"
       y2="4.7250991" />
    <linearGradient
       inkscape:collect="always"
       xlink:href="#linearGradient2223"
       id="linearGradient8529"
       gradientUnits="userSpaceOnUse"
       gradientTransform="matrix(0.95658258,0,0,1.2278331,-59.03723,1003.2917)"
       x1="25.062595"
       y1="36.450726"
       x2="24.978094"
       y2="4.7250991" />
    <linearGradient
       inkscape:collect="always"
       xlink:href="#linearGradient2206"
       id="linearGradient8541"
       gradientUnits="userSpaceOnUse"
       gradientTransform="matrix(0.91213245,0,0,1.0526084,122.0493,1003.0166)"
       x1="28.410345"
       y1="45.056278"
       x2="22.049141"
       y2="3.9257917" />
    <linearGradient
       inkscape:collect="always"
       xlink:href="#linearGradient2214"
       id="linearGradient8543"
       gradientUnits="userSpaceOnUse"
       gradientTransform="matrix(0.91213245,0,0,1.0526084,122.0493,1003.0166)"
       x1="24.065258"
       y1="3.1011577"
       x2="24.065258"
       y2="45.056278" />
    <linearGradient
       inkscape:collect="always"
       xlink:href="#linearGradient2238"
       id="linearGradient8545"
       gradientUnits="userSpaceOnUse"
       gradientTransform="matrix(0.91227463,0,0,1.0478466,122.03866,1004.0972)"
       x1="25.286486"
       y1="-1.1464647"
       x2="25.122681"
       y2="48.519287" />
    <linearGradient
       inkscape:collect="always"
       xlink:href="#linearGradient2223"
       id="linearGradient8547"
       gradientUnits="userSpaceOnUse"
       gradientTransform="matrix(0.95658258,0,0,1.2278331,120.96277,1003.2917)"
       x1="25.062595"
       y1="36.450726"
       x2="24.978094"
       y2="4.7250991" />
    <linearGradient
       inkscape:collect="always"
       xlink:href="#linearGradient2223"
       id="linearGradient8549"
       gradientUnits="userSpaceOnUse"
       gradientTransform="matrix(0.95658258,0,0,1.2278331,120.96277,1003.2917)"
       x1="25.062595"
       y1="36.450726"
       x2="24.978094"
       y2="4.7250991" />
    <linearGradient
       inkscape:collect="always"
       xlink:href="#linearGradient5048"
       id="linearGradient8569"
       gradientUnits="userSpaceOnUse"
       gradientTransform="matrix(2.774389,0,0,1.969706,-1892.179,-872.8854)"
       x1="302.85715"
       y1="366.64789"
       x2="302.85715"
       y2="609.50507" />
    <radialGradient
       inkscape:collect="always"
       xlink:href="#linearGradient5060"
       id="radialGradient8571"
       gradientUnits="userSpaceOnUse"
       gradientTransform="matrix(2.774389,0,0,1.969706,-1891.633,-872.8854)"
       cx="605.71429"
       cy="486.64789"
       fx="605.71429"
       fy="486.64789"
       r="117.14286" />
    <radialGradient
       inkscape:collect="always"
       xlink:href="#linearGradient5060"
       id="radialGradient8573"
       gradientUnits="userSpaceOnUse"
       gradientTransform="matrix(-2.774389,0,0,1.969706,112.7623,-872.8854)"
       cx="605.71429"
       cy="486.64789"
       fx="605.71429"
       fy="486.64789"
       r="117.14286" />
    <linearGradient
       inkscape:collect="always"
       xlink:href="#linearGradient2206"
       id="linearGradient8575"
       gradientUnits="userSpaceOnUse"
       gradientTransform="matrix(0.91213245,0,0,1.0526084,62.0493,1003.0166)"
       x1="28.410345"
       y1="45.056278"
       x2="22.049141"
       y2="3.9257917" />
    <linearGradient
       inkscape:collect="always"
       xlink:href="#linearGradient2214"
       id="linearGradient8577"
       gradientUnits="userSpaceOnUse"
       gradientTransform="matrix(0.91213245,0,0,1.0526084,62.0493,1003.0166)"
       x1="24.065258"
       y1="3.1011577"
       x2="24.065258"
       y2="45.056278" />
    <linearGradient
       inkscape:collect="always"
       xlink:href="#linearGradient2238"
       id="linearGradient8579"
       gradientUnits="userSpaceOnUse"
       gradientTransform="matrix(0.91227463,0,0,1.0478466,62.03866,1004.0972)"
       x1="25.286486"
       y1="-1.1464647"
       x2="25.122681"
       y2="48.519287" />
    <linearGradient
       inkscape:collect="always"
       xlink:href="#linearGradient2223"
       id="linearGradient8581"
       gradientUnits="userSpaceOnUse"
       gradientTransform="matrix(0.95658258,0,0,1.2278331,60.96277,1003.2917)"
       x1="25.062595"
       y1="36.450726"
       x2="24.978094"
       y2="4.7250991" />
    <linearGradient
       inkscape:collect="always"
       xlink:href="#linearGradient2223"
       id="linearGradient8583"
       gradientUnits="userSpaceOnUse"
       gradientTransform="matrix(0.95658258,0,0,1.2278331,60.96277,1003.2917)"
       x1="25.062595"
       y1="36.450726"
       x2="24.978094"
       y2="4.7250991" />
    <linearGradient
       inkscape:collect="always"
       xlink:href="#linearGradient14191"
       id="linearGradient8619"
       gradientUnits="userSpaceOnUse"
       gradientTransform="matrix(1,0,0,0.95833333,0.5,1006.3205)"
       x1="80"
       y1="11"
       x2="88"
       y2="35" />
    <linearGradient
       inkscape:collect="always"
       xlink:href="#linearGradient8167"
       id="linearGradient8173"
       x1="80.634331"
       y1="1017.6672"
       x2="86.658562"
       y2="1039.3224"
       gradientUnits="userSpaceOnUse" />
    <radialGradient
       inkscape:collect="always"
       xlink:href="#linearGradient8199"
       id="radialGradient8205"
       cx="55.709248"
       cy="265.31509"
       fx="55.709248"
       fy="265.31509"
       r="140.71425"
       gradientTransform="matrix(1.0072045,0.02899965,0.01692708,0.97812891,-6.1206328,832.31166)"
       gradientUnits="userSpaceOnUse" />
  </defs>
  <sodipodi:namedview
     id="base"
     pagecolor="#ffffff"
     bordercolor="#666666"
     borderopacity="1.0"
     inkscape:pageopacity="0.0"
     inkscape:pageshadow="2"
     inkscape:zoom="2.8284271"
     inkscape:cx="65.818322"
     inkscape:cy="-5.3181666"
     inkscape:document-units="px"
     inkscape:current-layer="layer1"
     showgrid="false"
     inkscape:showpageshadow="false"
     inkscape:window-width="1440"
     inkscape:window-height="853"
     inkscape:window-x="-4"
     inkscape:window-y="22"
     inkscape:window-maximized="1">
    <inkscape:grid
       type="xygrid"
       id="grid11175"
       empspacing="5"
       visible="true"
       enabled="true"
       snapvisiblegridlinesonly="true" />
  </sodipodi:namedview>
  <metadata
     id="metadata7">
    <rdf:RDF>
      <cc:Work
         rdf:about="">
        <dc:format>image/svg+xml</dc:format>
        <dc:type
           rdf:resource="http://purl.org/dc/dcmitype/StillImage" />
        <dc:title></dc:title>
      </cc:Work>
    </rdf:RDF>
  </metadata>
  <g
     inkscape:label="Layer 1"
     inkscape:groupmode="layer"
     id="layer1"
     transform="translate(0,-1004.3622)">
    <g
       id="g14464"
       transform="matrix(0.02364027,0,0,0.02090488,165.0265,1045.5125)"
       inkscape:export-filename="G:\Документы\Иконки\DivX\prew3.png"
       inkscape:export-xdpi="180"
       inkscape:export-ydpi="180">
      <rect
         style="opacity:0.40206185;fill:url(#linearGradient14482);fill-opacity:1;fill-rule:nonzero;stroke:none;stroke-width:1;marker:none;visibility:visible;display:inline;overflow:visible"
         height="478.35718"
         width="1339.6335"
         y="-150.69685"
         x="-1559.2523"
         id="rect14466" />
      <path
         sodipodi:nodetypes="cccc"
         style="opacity:0.40206185;fill:url(#radialGradient14484);fill-opacity:1;fill-rule:nonzero;stroke:none;stroke-width:1;marker:none;visibility:visible;display:inline;overflow:visible"
         id="path14468"
         d="m -219.61876,-150.68038 c 0,0 0,478.33079 0,478.33079 142.874166,0.90045 345.40022,-107.16966 345.40014,-239.196175 0,-132.026537 -159.436816,-239.134595 -345.40014,-239.134615 z"
         inkscape:connector-curvature="0" />
      <path
         sodipodi:nodetypes="cccc"
         style="opacity:0.40206185;fill:url(#radialGradient14486);fill-opacity:1;fill-rule:nonzero;stroke:none;stroke-width:1;marker:none;visibility:visible;display:inline;overflow:visible"
         d="m -1559.2523,-150.68038 c 0,0 0,478.33079 0,478.33079 -142.8742,0.90045 -345.4002,-107.16966 -345.4002,-239.196175 0,-132.026537 159.4368,-239.134595 345.4002,-239.134615 z"
         id="path14470"
         inkscape:connector-curvature="0" />
    </g>
    <g
       transform="matrix(0.02364027,0,0,0.02090488,-14.9735,1045.5125)"
       id="g5022"
       inkscape:export-filename="G:\Документы\Иконки\DivX\prew3.png"
       inkscape:export-xdpi="180"
       inkscape:export-ydpi="180">
      <rect
         id="rect4173"
         x="-1559.2523"
         y="-150.69685"
         width="1339.6335"
         height="478.35718"
         style="opacity:0.40206185;fill:url(#linearGradient9740);fill-opacity:1;fill-rule:nonzero;stroke:none;stroke-width:1;marker:none;visibility:visible;display:inline;overflow:visible" />
      <path
         inkscape:connector-curvature="0"
         d="m -219.61876,-150.68038 c 0,0 0,478.33079 0,478.33079 142.874166,0.90045 345.40022,-107.16966 345.40014,-239.196175 0,-132.026537 -159.436816,-239.134595 -345.40014,-239.134615 z"
         id="path5058"
         style="opacity:0.40206185;fill:url(#radialGradient9743);fill-opacity:1;fill-rule:nonzero;stroke:none;stroke-width:1;marker:none;visibility:visible;display:inline;overflow:visible"
         sodipodi:nodetypes="cccc" />
      <path
         inkscape:connector-curvature="0"
         id="path5018"
         d="m -1559.2523,-150.68038 c 0,0 0,478.33079 0,478.33079 -142.8742,0.90045 -345.4002,-107.16966 -345.4002,-239.196175 0,-132.026537 159.4368,-239.134595 345.4002,-239.134615 z"
         style="opacity:0.40206185;fill:url(#radialGradient10312);fill-opacity:1;fill-rule:nonzero;stroke:none;stroke-width:1;marker:none;visibility:visible;display:inline;overflow:visible"
         sodipodi:nodetypes="cccc" />
    </g>
    <path
       inkscape:export-ydpi="180"
       inkscape:export-xdpi="180"
       inkscape:export-filename="G:\Документы\Иконки\DivX\prew3.png"
       style="fill:url(#linearGradient8519);fill-opacity:1;fill-rule:evenodd;stroke:url(#linearGradient8521);stroke-width:0.99991316;stroke-linecap:round;stroke-linejoin:round;stroke-miterlimit:4;stroke-opacity:1;stroke-dashoffset:0"
       d="m -53.23317,1006.8195 34.46634,0 c 2.38744,0 4.30946,2.1691 4.30946,4.8634 l 0,33.3584 c 0,2.6943 -1.92202,4.8634 -4.30946,4.8634 l -34.46634,0 c -2.38377,-0.1324 -4.30947,-2.1691 -4.30947,-4.8634 l 0,-33.3584 c 0.15441,-2.6899 1.92202,-4.8634 4.30947,-4.8634 z"
       id="path8511"
       inkscape:connector-curvature="0"
       sodipodi:nodetypes="ccccccccc" />
    <path
       inkscape:export-ydpi="180"
       inkscape:export-xdpi="180"
       inkscape:export-filename="G:\Документы\Иконки\DivX\prew3.png"
       style="fill:none;stroke:url(#linearGradient8523);stroke-width:1.00000012;stroke-linecap:round;stroke-linejoin:round;stroke-miterlimit:4;stroke-opacity:1;stroke-dashoffset:0"
       d="m -53.229,1007.8969 34.458,0 c 1.85564,0.116 3.35608,1.6956 3.35608,3.8018 l 0,33.3272 c -0.12083,2.1027 -1.49681,3.8018 -3.35608,3.8018 l -34.458,0 c -1.85565,-0.116 -3.35608,-1.6956 -3.35608,-3.8018 l 0,-33.3272 c 0.12082,-2.1027 1.49681,-3.8018 3.35608,-3.8018 z"
       id="path8513"
       inkscape:connector-curvature="0"
       sodipodi:nodetypes="ccccccccc" />
    <path
       inkscape:export-ydpi="180"
       inkscape:export-xdpi="180"
       inkscape:export-filename="G:\Документы\Иконки\DivX\prew3.png"
       style="fill:#2e3436;fill-opacity:1;stroke:url(#linearGradient8529);stroke-width:1.00001895;stroke-linecap:round;stroke-linejoin:round;stroke-miterlimit:4;stroke-opacity:1;stroke-dashoffset:0"
       d="m -52.27965,1009.6919 32.55929,0 c 1.32439,0 2.3906,1.304 2.3906,2.9236 l 0,31.4932 c -0.0983,1.6168 -1.06621,2.9237 -2.3906,2.9237 l -32.55929,0 c -1.32439,0 -2.39059,-1.3039 -2.39059,-2.9237 l 0,-31.4932 c 0,-1.6196 1.0662,-2.9236 2.39059,-2.9236 z"
       id="path8527"
       inkscape:connector-curvature="0"
       sodipodi:nodetypes="ccccccccc" />
    <path
       inkscape:export-ydpi="180"
       inkscape:export-xdpi="180"
       inkscape:export-filename="G:\Документы\Иконки\DivX\prew3.png"
       sodipodi:nodetypes="scccsccs"
       inkscape:connector-curvature="0"
       id="path8515"
       d="m -52.27965,1009.6916 c 0,0 10.8531,-0.3294 16.27965,-0.3294 l -18,19 18,19 c -5.42655,0 -16.27965,-0.3301 -16.27965,-0.3301 -1.32439,0 -2.39059,-1.3039 -2.39059,-2.9237 l 0,-31.4932 c 0,-1.6196 1.0662,-2.9236 2.39059,-2.9236 z"
       style="fill:#000000;fill-opacity:1;stroke:none" />
    <path
       style="fill:url(#linearGradient14261);fill-opacity:1;stroke:#204a87;stroke-width:1px;stroke-linecap:butt;stroke-linejoin:miter;stroke-opacity:1"
       d="m -51.5,1016.8622 9.98442,0 5.69349,6.2772 5.49871,-6.2772 9.82338,0 -10.36673,11.6539 10.36673,11.3461 -9.9039,0 -5.48735,-6.051 -5.22174,6.051 -9.82337,0 7.00099,-7.5814 6.52628,-0.086 z"
       id="path14245"
       inkscape:connector-curvature="0"
       sodipodi:nodetypes="cccccccccccccc"
       inkscape:export-filename="G:\Документы\Иконки\DivX\prew3.png"
       inkscape:export-xdpi="180"
       inkscape:export-ydpi="180" />
    <path
       inkscape:export-ydpi="180"
       inkscape:export-xdpi="180"
       inkscape:export-filename="G:\Документы\Иконки\DivX\prew3.png"
       sodipodi:nodetypes="ccccccccc"
       inkscape:connector-curvature="0"
       id="path8517"
       d="m -52.27965,1009.6919 32.55929,0 c 1.32439,0 2.3906,1.304 2.3906,2.9236 l 0,31.4932 c -0.0983,1.6168 -1.06621,2.9237 -2.3906,2.9237 l -32.55929,0 c -1.32439,0 -2.39059,-1.3039 -2.39059,-2.9237 l 0,-31.4932 c 0,-1.6196 1.0662,-2.9236 2.39059,-2.9236 z"
       style="fill:none;stroke:url(#linearGradient8525);stroke-width:1.00001895;stroke-linecap:round;stroke-linejoin:round;stroke-miterlimit:4;stroke-opacity:1;stroke-dashoffset:0" />
    <path
       sodipodi:nodetypes="ccccccccccccccc"
       inkscape:connector-curvature="0"
       id="path14263"
       d="m -49.27891,1017.8951 7.36893,0 6.08789,6.7552 5.96841,-6.8198 7.20524,0.064 -9.55717,10.6323 9.40149,10.2965 -7.17424,0.011 -5.8882,-6.4539 z m 7.7819,20.9397 -7.12485,-0.011 5.04975,-5.5049 6.88043,-0.093 z"
       style="opacity:0.34913791;fill:none;stroke:url(#linearGradient14271);stroke-width:1px;stroke-linecap:butt;stroke-linejoin:miter;stroke-opacity:1"
       inkscape:export-filename="G:\Документы\Иконки\DivX\prew3.png"
       inkscape:export-xdpi="180"
       inkscape:export-ydpi="180" />
    <g
       id="g14396"
       transform="matrix(0.02364027,0,0,0.02090488,45.0265,1045.5125)"
       inkscape:export-filename="G:\Документы\Иконки\DivX\prew3.png"
       inkscape:export-xdpi="180"
       inkscape:export-ydpi="180">
      <rect
         style="opacity:0.40206185;fill:url(#linearGradient14414);fill-opacity:1;fill-rule:nonzero;stroke:none;stroke-width:1;marker:none;visibility:visible;display:inline;overflow:visible"
         height="478.35718"
         width="1339.6335"
         y="-150.69685"
         x="-1559.2523"
         id="rect14398" />
      <path
         sodipodi:nodetypes="cccc"
         style="opacity:0.40206185;fill:url(#radialGradient14416);fill-opacity:1;fill-rule:nonzero;stroke:none;stroke-width:1;marker:none;visibility:visible;display:inline;overflow:visible"
         id="path14400"
         d="m -219.61876,-150.68038 c 0,0 0,478.33079 0,478.33079 142.874166,0.90045 345.40022,-107.16966 345.40014,-239.196175 0,-132.026537 -159.436816,-239.134595 -345.40014,-239.134615 z"
         inkscape:connector-curvature="0" />
      <path
         sodipodi:nodetypes="cccc"
         style="opacity:0.40206185;fill:url(#radialGradient14418);fill-opacity:1;fill-rule:nonzero;stroke:none;stroke-width:1;marker:none;visibility:visible;display:inline;overflow:visible"
         d="m -1559.2523,-150.68038 c 0,0 0,478.33079 0,478.33079 -142.8742,0.90045 -345.4002,-107.16966 -345.4002,-239.196175 0,-132.026537 159.4368,-239.134595 345.4002,-239.134615 z"
         id="path14402"
         inkscape:connector-curvature="0" />
    </g>
    <path
       sodipodi:nodetypes="ccccccccc"
       inkscape:connector-curvature="0"
       id="path14404"
       d="m 6.76683,1006.8195 34.46634,0 c 2.38744,0 4.30946,2.1691 4.30946,4.8634 l 0,33.3584 c 0,2.6943 -1.92202,4.8634 -4.30946,4.8634 l -34.46634,0 c -2.38377,-0.1324 -4.30947,-2.1691 -4.30947,-4.8634 l 0,-33.3584 c 0.15441,-2.6899 1.92202,-4.8634 4.30947,-4.8634 z"
       style="fill:url(#linearGradient14420);fill-opacity:1;fill-rule:evenodd;stroke:url(#linearGradient14422);stroke-width:0.99991316;stroke-linecap:round;stroke-linejoin:round;stroke-miterlimit:4;stroke-opacity:1;stroke-dashoffset:0"
       inkscape:export-filename="G:\Документы\Иконки\DivX\prew3.png"
       inkscape:export-xdpi="180"
       inkscape:export-ydpi="180" />
    <path
       sodipodi:nodetypes="ccccccccc"
       inkscape:connector-curvature="0"
       id="path14406"
       d="m 6.771,1007.8969 34.458,0 c 1.85564,0.116 3.35608,1.6956 3.35608,3.8018 l 0,33.3272 c -0.12082,2.1027 -1.49681,3.8018 -3.35608,3.8018 l -34.458,0 c -1.85565,-0.116 -3.35608,-1.6956 -3.35608,-3.8018 l 0,-33.3272 c 0.12082,-2.1027 1.49681,-3.8018 3.35608,-3.8018 z"
       style="fill:none;stroke:url(#linearGradient14424);stroke-width:1.00000012;stroke-linecap:round;stroke-linejoin:round;stroke-miterlimit:4;stroke-opacity:1;stroke-dashoffset:0"
       inkscape:export-filename="G:\Документы\Иконки\DivX\prew3.png"
       inkscape:export-xdpi="180"
       inkscape:export-ydpi="180" />
    <path
       sodipodi:nodetypes="ccccccccc"
       inkscape:connector-curvature="0"
       id="path14408"
       d="m 7.72035,1009.6919 32.55929,0 c 1.32439,0 2.3906,1.304 2.3906,2.9236 l 0,31.4932 c -0.0983,1.6168 -1.06621,2.9237 -2.3906,2.9237 l -32.55929,0 c -1.32439,0 -2.39059,-1.3039 -2.39059,-2.9237 l 0,-31.4932 c 0,-1.6196 1.0662,-2.9236 2.39059,-2.9236 z"
       style="fill:#2e3436;fill-opacity:1;stroke:url(#linearGradient14426);stroke-width:1.00001895;stroke-linecap:round;stroke-linejoin:round;stroke-miterlimit:4;stroke-opacity:1;stroke-dashoffset:0"
       inkscape:export-filename="G:\Документы\Иконки\DivX\prew3.png"
       inkscape:export-xdpi="180"
       inkscape:export-ydpi="180" />
    <path
       style="fill:#000000;fill-opacity:1;stroke:none"
       d="m 7.72035,1009.6916 c 0,0 10.8531,-0.3294 16.279648,-0.3294 l -17.999998,19 17.999998,19 c -5.426548,0 -16.279648,-0.3301 -16.279648,-0.3301 -1.32439,0 -2.39059,-1.3039 -2.39059,-2.9237 l 0,-31.4932 c 0,-1.6196 1.0662,-2.9236 2.39059,-2.9236 z"
       id="path14410"
       inkscape:connector-curvature="0"
       sodipodi:nodetypes="scccsccs"
       inkscape:export-filename="G:\Документы\Иконки\DivX\prew3.png"
       inkscape:export-xdpi="180"
       inkscape:export-ydpi="180" />
    <path
       style="fill:none;stroke:url(#linearGradient14428);stroke-width:1.00001895;stroke-linecap:round;stroke-linejoin:round;stroke-miterlimit:4;stroke-opacity:1;stroke-dashoffset:0"
       d="m 7.72035,1009.6919 32.55929,0 c 1.32439,0 2.3906,1.304 2.3906,2.9236 l 0,31.4932 c -0.0983,1.6168 -1.06621,2.9237 -2.3906,2.9237 l -32.55929,0 c -1.32439,0 -2.39059,-1.3039 -2.39059,-2.9237 l 0,-31.4932 c 0,-1.6196 1.0662,-2.9236 2.39059,-2.9236 z"
       id="path14412"
       inkscape:connector-curvature="0"
       sodipodi:nodetypes="ccccccccc"
       inkscape:export-filename="G:\Документы\Иконки\DivX\prew3.png"
       inkscape:export-xdpi="180"
       inkscape:export-ydpi="180" />
    <path
       inkscape:export-ydpi="180"
       inkscape:export-xdpi="180"
       inkscape:export-filename="G:\Документы\Иконки\DivX\prew3.png"
       style="fill:url(#linearGradient8541);fill-opacity:1;fill-rule:evenodd;stroke:url(#linearGradient8543);stroke-width:0.99991316;stroke-linecap:round;stroke-linejoin:round;stroke-miterlimit:4;stroke-opacity:1;stroke-dashoffset:0"
       d="m 126.76683,1006.8195 34.46634,0 c 2.38744,0 4.30946,2.1691 4.30946,4.8634 l 0,33.3584 c 0,2.6943 -1.92202,4.8634 -4.30946,4.8634 l -34.46634,0 c -2.38377,-0.1324 -4.30947,-2.1691 -4.30947,-4.8634 l 0,-33.3584 c 0.15441,-2.6899 1.92203,-4.8634 4.30947,-4.8634 z"
       id="path8531"
       inkscape:connector-curvature="0"
       sodipodi:nodetypes="ccccccccc" />
    <path
       inkscape:export-ydpi="180"
       inkscape:export-xdpi="180"
       inkscape:export-filename="G:\Документы\Иконки\DivX\prew3.png"
       style="fill:none;stroke:url(#linearGradient8545);stroke-width:1.00000012;stroke-linecap:round;stroke-linejoin:round;stroke-miterlimit:4;stroke-opacity:1;stroke-dashoffset:0"
       d="m 126.771,1007.8969 34.458,0 c 1.85564,0.116 3.35608,1.6956 3.35608,3.8018 l 0,33.3272 c -0.12082,2.1027 -1.49681,3.8018 -3.35608,3.8018 l -34.458,0 c -1.85565,-0.116 -3.35608,-1.6956 -3.35608,-3.8018 l 0,-33.3272 c 0.12082,-2.1027 1.49681,-3.8018 3.35608,-3.8018 z"
       id="path8533"
       inkscape:connector-curvature="0"
       sodipodi:nodetypes="ccccccccc" />
    <path
       inkscape:export-ydpi="180"
       inkscape:export-xdpi="180"
       inkscape:export-filename="G:\Документы\Иконки\DivX\prew3.png"
       style="fill:#2e3436;fill-opacity:1;stroke:url(#linearGradient8547);stroke-width:1.00001895;stroke-linecap:round;stroke-linejoin:round;stroke-miterlimit:4;stroke-opacity:1;stroke-dashoffset:0"
       d="m 127.72035,1009.6919 32.55929,0 c 1.32439,0 2.3906,1.304 2.3906,2.9236 l 0,31.4932 c -0.0983,1.6168 -1.06621,2.9237 -2.3906,2.9237 l -32.55929,0 c -1.32439,0 -2.39059,-1.3039 -2.39059,-2.9237 l 0,-31.4932 c 0,-1.6196 1.0662,-2.9236 2.39059,-2.9236 z"
       id="path8535"
       inkscape:connector-curvature="0"
       sodipodi:nodetypes="ccccccccc" />
    <path
       sodipodi:type="star"
       style="fill:url(#linearGradient14394);fill-opacity:1;fill-rule:evenodd;stroke:#204a87;stroke-width:1.1522851;stroke-linecap:round;stroke-linejoin:round;stroke-miterlimit:4;stroke-opacity:1;stroke-dasharray:none"
       id="path2768"
       sodipodi:sides="3"
       sodipodi:cx="-58.689861"
       sodipodi:cy="-60.18734"
       sodipodi:r1="15.239751"
       sodipodi:r2="7.6198754"
       sodipodi:arg1="0"
       sodipodi:arg2="1.0471976"
       inkscape:flatsided="true"
       inkscape:rounded="0.07"
       inkscape:randomized="0"
       d="m -43.45011,-60.18734 c 0,1.847722 -21.259453,14.121872 -22.859627,13.198012 -1.600174,-0.923861 -1.600174,-25.472162 0,-26.396023 1.600174,-0.923861 22.859627,11.35029 22.859627,13.198011 z"
       transform="matrix(0.86759774,0,0,0.86808324,72.07141,1080.6098)"
       inkscape:export-filename="G:\Документы\Иконки\DivX\prew3.png"
       inkscape:export-xdpi="180"
       inkscape:export-ydpi="180" />
    <path
       inkscape:connector-curvature="0"
       style="opacity:0.49568966;fill:none;stroke:url(#linearGradient3228);stroke-width:0.99999976;stroke-linecap:round;stroke-linejoin:round;stroke-miterlimit:4;stroke-opacity:1"
       d="m 32.908462,1028.3324 c 0,1.393 -16.359702,10.9673 -17.566932,10.2709 -1.20722,-0.6965 -1.28744,-19.8452 -0.0802,-20.5417 1.20723,-0.6965 17.647151,8.8779 17.647151,10.2708 z"
       id="path2245"
       sodipodi:nodetypes="cssc"
       inkscape:export-filename="G:\Документы\Иконки\DivX\prew3.png"
       inkscape:export-xdpi="180"
       inkscape:export-ydpi="180" />
    <path
       inkscape:export-ydpi="180"
       inkscape:export-xdpi="180"
       inkscape:export-filename="G:\Документы\Иконки\DivX\prew3.png"
       sodipodi:nodetypes="scccsccs"
       inkscape:connector-curvature="0"
       id="path8537"
       d="m 127.72035,1009.6916 c 0,0 10.8531,-0.3294 16.27965,-0.3294 l -18,19 18,19 c -5.42655,0 -16.27965,-0.3301 -16.27965,-0.3301 -1.32439,0 -2.39059,-1.3039 -2.39059,-2.9237 l 0,-31.4932 c 0,-1.6196 1.0662,-2.9236 2.39059,-2.9236 z"
       style="fill:#000000;fill-opacity:1;stroke:none" />
    <path
       style="fill:url(#linearGradient14199);fill-opacity:1;stroke:#204a87;stroke-width:1;stroke-linecap:butt;stroke-linejoin:round;stroke-miterlimit:4;stroke-opacity:1;stroke-dasharray:none"
       d="m 136.24368,1015.0892 1.41199,3.2176 c -2.76113,1.6256 -4.57499,3.8773 -5.48378,7.1248 -1.84873,6.6065 2.15437,13.3604 8.73464,15.2019 6.49069,1.8164 12.95845,-1.9623 14.90799,-8.4053 l 0.0328,0 c 0.0179,-0.064 0.0161,-0.1325 0.0328,-0.197 0.006,-0.023 0.027,-0.043 0.0328,-0.065 1.39226,-5.4924 -1.2802,-12.6354 -8.57046,-14.578 l -1.60901,5.8444 c 2.93004,0.8984 4.32336,4.5636 3.61207,7.1576 -0.0149,0.055 -0.0161,0.1109 -0.0328,0.1642 -0.87841,2.7981 -3.82751,4.2746 -6.66591,3.4803 -2.89299,-0.8096 -4.72036,-3.8918 -3.9076,-6.7965 0.39223,-1.4027 0.98695,-2.5671 2.23291,-3.3162 l 2.23292,3.2506 2.56128,-9.5546 -9.52272,-2.5281 z"
       id="path3372"
       inkscape:connector-curvature="0"
       inkscape:export-filename="G:\Документы\Иконки\DivX\prew3.png"
       inkscape:export-xdpi="180"
       inkscape:export-ydpi="180" />
    <path
       inkscape:export-ydpi="180"
       inkscape:export-xdpi="180"
       inkscape:export-filename="G:\Документы\Иконки\DivX\prew3.png"
       sodipodi:nodetypes="ccccccccc"
       inkscape:connector-curvature="0"
       id="path8539"
       d="m 127.72035,1009.6919 32.55929,0 c 1.32439,0 2.3906,1.304 2.3906,2.9236 l 0,31.4932 c -0.0983,1.6168 -1.06621,2.9237 -2.3906,2.9237 l -32.55929,0 c -1.32439,0 -2.39059,-1.3039 -2.39059,-2.9237 l 0,-31.4932 c 0,-1.6196 1.0662,-2.9236 2.39059,-2.9236 z"
       style="fill:none;stroke:url(#linearGradient8549);stroke-width:1.00001895;stroke-linecap:round;stroke-linejoin:round;stroke-miterlimit:4;stroke-opacity:1;stroke-dashoffset:0" />
    <path
       style="opacity:0.4;fill:none;stroke:url(#linearGradient14197);stroke-width:1;stroke-linecap:butt;stroke-linejoin:miter;stroke-miterlimit:4;stroke-opacity:1;stroke-dasharray:none"
       d="m 139.00199,1018.8322 c -2.91732,1.4777 -4.8627,3.5736 -5.77931,6.8622 -1.75314,6.2903 1.87924,11.9192 8.11073,13.9869 7.1006,1.7372 11.9884,-2.5991 13.48987,-7.7405 1.50147,-5.1412 -0.98138,-10.8855 -6.75828,-13.2726 l -1.01795,3.94 c 2.64703,1.386 4.10555,4.8383 3.41451,7.7606 -0.82238,3.2835 -4.31501,5.7442 -8.04453,4.7486 -3.21401,-0.858 -5.83767,-4.5994 -4.69568,-8.3069 0.44966,-1.5846 1.86961,-3.3673 3.54639,-4.2026 l 1.47766,2.167 1.74036,-6.4353 -6.50172,-1.7566 z"
       id="path3370"
       inkscape:connector-curvature="0"
       sodipodi:nodetypes="ccczcccscccccc"
       inkscape:export-filename="G:\Документы\Иконки\DivX\prew3.png"
       inkscape:export-xdpi="180"
       inkscape:export-ydpi="180" />
    <g
       inkscape:export-ydpi="180"
       inkscape:export-xdpi="180"
       inkscape:export-filename="G:\Документы\Иконки\DivX\prew3.png"
       transform="matrix(0.02364027,0,0,0.02090488,105.0265,1045.5125)"
       id="g8551">
      <rect
         id="rect8553"
         x="-1559.2523"
         y="-150.69685"
         width="1339.6335"
         height="478.35718"
         style="opacity:0.40206185;fill:url(#linearGradient8569);fill-opacity:1;fill-rule:nonzero;stroke:none;stroke-width:1;marker:none;visibility:visible;display:inline;overflow:visible" />
      <path
         inkscape:connector-curvature="0"
         d="m -219.61876,-150.68038 c 0,0 0,478.33079 0,478.33079 142.874166,0.90045 345.40022,-107.16966 345.40014,-239.196175 0,-132.026537 -159.436816,-239.134595 -345.40014,-239.134615 z"
         id="path8555"
         style="opacity:0.40206185;fill:url(#radialGradient8571);fill-opacity:1;fill-rule:nonzero;stroke:none;stroke-width:1;marker:none;visibility:visible;display:inline;overflow:visible"
         sodipodi:nodetypes="cccc" />
      <path
         inkscape:connector-curvature="0"
         id="path8557"
         d="m -1559.2523,-150.68038 c 0,0 0,478.33079 0,478.33079 -142.8742,0.90045 -345.4002,-107.16966 -345.4002,-239.196175 0,-132.026537 159.4368,-239.134595 345.4002,-239.134615 z"
         style="opacity:0.40206185;fill:url(#radialGradient8573);fill-opacity:1;fill-rule:nonzero;stroke:none;stroke-width:1;marker:none;visibility:visible;display:inline;overflow:visible"
         sodipodi:nodetypes="cccc" />
    </g>
    <path
       sodipodi:nodetypes="ccccccccc"
       inkscape:connector-curvature="0"
       id="path8559"
       d="m 66.76683,1006.8195 34.46634,0 c 2.38744,0 4.30946,2.1691 4.30946,4.8634 l 0,33.3584 c 0,2.6943 -1.92202,4.8634 -4.30946,4.8634 l -34.46634,0 c -2.38377,-0.1324 -4.30947,-2.1691 -4.30947,-4.8634 l 0,-33.3584 c 0.15441,-2.6899 1.92203,-4.8634 4.30947,-4.8634 z"
       style="fill:url(#linearGradient8575);fill-opacity:1;fill-rule:evenodd;stroke:url(#linearGradient8577);stroke-width:0.99991316;stroke-linecap:round;stroke-linejoin:round;stroke-miterlimit:4;stroke-opacity:1;stroke-dashoffset:0"
       inkscape:export-filename="G:\Документы\Иконки\DivX\prew3.png"
       inkscape:export-xdpi="180"
       inkscape:export-ydpi="180" />
    <path
       sodipodi:nodetypes="ccccccccc"
       inkscape:connector-curvature="0"
       id="path8561"
       d="m 66.771,1007.8969 34.458,0 c 1.85564,0.116 3.35608,1.6956 3.35608,3.8018 l 0,33.3272 c -0.12082,2.1027 -1.49681,3.8018 -3.35608,3.8018 l -34.458,0 c -1.85565,-0.116 -3.35608,-1.6956 -3.35608,-3.8018 l 0,-33.3272 c 0.12082,-2.1027 1.49681,-3.8018 3.35608,-3.8018 z"
       style="fill:none;stroke:url(#linearGradient8579);stroke-width:1.00000012;stroke-linecap:round;stroke-linejoin:round;stroke-miterlimit:4;stroke-opacity:1;stroke-dashoffset:0"
       inkscape:export-filename="G:\Документы\Иконки\DivX\prew3.png"
       inkscape:export-xdpi="180"
       inkscape:export-ydpi="180" />
    <path
       sodipodi:nodetypes="ccccccccc"
       inkscape:connector-curvature="0"
       id="path8563"
       d="m 67.72035,1009.6919 32.55929,0 c 1.32439,0 2.3906,1.304 2.3906,2.9236 l 0,31.4932 c -0.0983,1.6168 -1.06621,2.9237 -2.3906,2.9237 l -32.55929,0 c -1.32439,0 -2.39059,-1.3039 -2.39059,-2.9237 l 0,-31.4932 c 0,-1.6196 1.0662,-2.9236 2.39059,-2.9236 z"
       style="fill:#2e3436;fill-opacity:1;stroke:url(#linearGradient8581);stroke-width:1.00001895;stroke-linecap:round;stroke-linejoin:round;stroke-miterlimit:4;stroke-opacity:1;stroke-dashoffset:0"
       inkscape:export-filename="G:\Документы\Иконки\DivX\prew3.png"
       inkscape:export-xdpi="180"
       inkscape:export-ydpi="180" />
    <path
       style="fill:#000000;fill-opacity:1;stroke:none"
       d="m 67.72035,1009.6916 c 0,0 10.8531,-0.3294 16.27965,-0.3294 l -18,19 18,19 c -5.42655,0 -16.27965,-0.3301 -16.27965,-0.3301 -1.32439,0 -2.39059,-1.3039 -2.39059,-2.9237 l 0,-31.4932 c 0,-1.6196 1.0662,-2.9236 2.39059,-2.9236 z"
       id="path8565"
       inkscape:connector-curvature="0"
       sodipodi:nodetypes="scccsccs"
       inkscape:export-filename="G:\Документы\Иконки\DivX\prew3.png"
       inkscape:export-xdpi="180"
       inkscape:export-ydpi="180" />
    <path
       style="fill:none;stroke:url(#linearGradient8583);stroke-width:1.00001895;stroke-linecap:round;stroke-linejoin:round;stroke-miterlimit:4;stroke-opacity:1;stroke-dashoffset:0"
       d="m 67.72035,1009.6919 32.55929,0 c 1.32439,0 2.3906,1.304 2.3906,2.9236 l 0,31.4932 c -0.0983,1.6168 -1.06621,2.9237 -2.3906,2.9237 l -32.55929,0 c -1.32439,0 -2.39059,-1.3039 -2.39059,-2.9237 l 0,-31.4932 c 0,-1.6196 1.0662,-2.9236 2.39059,-2.9236 z"
       id="path8567"
       inkscape:connector-curvature="0"
       sodipodi:nodetypes="ccccccccc"
       inkscape:export-filename="G:\Документы\Иконки\DivX\prew3.png"
       inkscape:export-xdpi="180"
       inkscape:export-ydpi="180" />
    <path
       style="fill:url(#linearGradient8619);fill-opacity:1;stroke:#204a87;stroke-width:1;stroke-linecap:round;stroke-linejoin:miter;stroke-miterlimit:4;stroke-opacity:1;stroke-dasharray:none;stroke-dashoffset:0"
       d="m 73,1016.8622 c -1.38325,0 -2.5,1.3163 -2.5,2.9375 l 0,2.0625 27,0 0,-2.0625 c 0,-1.6212 -1.11675,-2.9375 -2.5,-2.9375 z m -2.5,8 0,12.0625 c 0,1.6212 1.11675,2.9375 2.5,2.9375 l 22,0 c 1.38325,0 2.5,-1.3163 2.5,-2.9375 l 0,-12.0625 z m 10.6875,3.125 c 1.21502,0.199 7.4375,3.8573 7.4375,4.4375 0,0.6189 -7.06168,4.7157 -7.59375,4.4063 -0.53207,-0.3095 -0.53207,-8.5031 0,-8.8125 0.0332,-0.019 0.0752,-0.045 0.15625,-0.031 z"
       id="rect8585"
       inkscape:connector-curvature="0"
       sodipodi:nodetypes="ssccssscssssccsssss"
       inkscape:export-filename="G:\Документы\Иконки\DivX\prew3.png"
       inkscape:export-xdpi="180"
       inkscape:export-ydpi="180" />
    <path
       sodipodi:nodetypes="ssccssscsssscc"
       inkscape:connector-curvature="0"
       id="path8608"
       d="m 73.392935,1017.8622 c -1.28078,0 -1.892935,0.6862 -1.892935,2.1664 l 0,0.8363 25,0 0,-0.7269 c 0,-1.4802 -0.59653,-2.2758 -1.87732,-2.2758 z m -1.892935,7.9919 0,10.6385 c 0,1.4802 0.56528,2.3696 1.84606,2.3696 l 21.33912,0 c 1.28079,0 1.81482,-0.8894 1.81482,-2.3696 l 0,-10.6385 z"
       style="fill:none;stroke:url(#linearGradient8173);stroke-width:1;stroke-linecap:round;stroke-linejoin:miter;stroke-miterlimit:4;stroke-opacity:1;stroke-dasharray:none;stroke-dashoffset:0"
       inkscape:export-filename="G:\Документы\Иконки\DivX\prew3.png"
       inkscape:export-xdpi="180"
       inkscape:export-ydpi="180" />
  </g>
</svg>
