<?xml version="1.0" encoding="UTF-8" standalone="no"?>
<!-- Created with Inkscape (http://www.inkscape.org/) -->
<svg
   xmlns:dc="http://purl.org/dc/elements/1.1/"
   xmlns:cc="http://creativecommons.org/ns#"
   xmlns:rdf="http://www.w3.org/1999/02/22-rdf-syntax-ns#"
   xmlns:svg="http://www.w3.org/2000/svg"
   xmlns="http://www.w3.org/2000/svg"
   xmlns:xlink="http://www.w3.org/1999/xlink"
   xmlns:sodipodi="http://sodipodi.sourceforge.net/DTD/sodipodi-0.dtd"
   xmlns:inkscape="http://www.inkscape.org/namespaces/inkscape"
   width="48"
   height="48"
   id="svg2"
   sodipodi:version="0.32"
   inkscape:version="0.46"
   version="1.0"
   sodipodi:docname="feather.svg"
   inkscape:output_extension="org.inkscape.output.svg.inkscape"
   inkscape:export-filename="E:\Personal Projects\Icons\Tango CS4\feather.png"
   inkscape:export-xdpi="960"
   inkscape:export-ydpi="960">
  <defs
     id="defs4">
    <linearGradient
       id="linearGradient3848">
      <stop
         style="stop-color:#888a85;stop-opacity:0;"
         offset="0"
         id="stop3850" />
      <stop
         id="stop3296"
         offset="0.5"
         style="stop-color:#5b5f5d;stop-opacity:1;" />
      <stop
         style="stop-color:#2e3436;stop-opacity:1"
         offset="1"
         id="stop3852" />
    </linearGradient>
    <linearGradient
       inkscape:collect="always"
       id="linearGradient3475">
      <stop
         style="stop-color:#000000;stop-opacity:1;"
         offset="0"
         id="stop3477" />
      <stop
         style="stop-color:#000000;stop-opacity:0;"
         offset="1"
         id="stop3479" />
    </linearGradient>
    <linearGradient
       inkscape:collect="always"
       id="linearGradient3429">
      <stop
         style="stop-color:#3c94e3;stop-opacity:1"
         offset="0"
         id="stop3431" />
      <stop
         style="stop-color:#0063ac;stop-opacity:1"
         offset="1"
         id="stop3433" />
    </linearGradient>
    <inkscape:perspective
       sodipodi:type="inkscape:persp3d"
       inkscape:vp_x="0 : 526.18109 : 1"
       inkscape:vp_y="0 : 1000 : 0"
       inkscape:vp_z="744.09448 : 526.18109 : 1"
       inkscape:persp3d-origin="372.04724 : 350.78739 : 1"
       id="perspective10" />
    <inkscape:perspective
       id="perspective2390"
       inkscape:persp3d-origin="372.04724 : 350.78739 : 1"
       inkscape:vp_z="744.09448 : 526.18109 : 1"
       inkscape:vp_y="0 : 1000 : 0"
       inkscape:vp_x="0 : 526.18109 : 1"
       sodipodi:type="inkscape:persp3d" />
    <inkscape:perspective
       sodipodi:type="inkscape:persp3d"
       inkscape:vp_x="0 : 526.18109 : 1"
       inkscape:vp_y="0 : 1000 : 0"
       inkscape:vp_z="744.09448 : 526.18109 : 1"
       inkscape:persp3d-origin="372.04724 : 350.78739 : 1"
       id="perspective2518" />
    <inkscape:perspective
       sodipodi:type="inkscape:persp3d"
       inkscape:vp_x="0 : 526.18109 : 1"
       inkscape:vp_y="0 : 1000 : 0"
       inkscape:vp_z="744.09448 : 526.18109 : 1"
       inkscape:persp3d-origin="372.04724 : 350.78739 : 1"
       id="perspective2505" />
    <inkscape:perspective
       sodipodi:type="inkscape:persp3d"
       inkscape:vp_x="0 : 500 : 1"
       inkscape:vp_y="0 : 1000 : 0"
       inkscape:vp_z="1000 : 500 : 1"
       inkscape:persp3d-origin="500 : 333.33333 : 1"
       id="perspective2502" />
    <inkscape:perspective
       id="perspective2391"
       inkscape:persp3d-origin="24 : 16 : 1"
       inkscape:vp_z="48 : 24 : 1"
       inkscape:vp_y="0 : 1000 : 0"
       inkscape:vp_x="0 : 24 : 1"
       sodipodi:type="inkscape:persp3d" />
    <linearGradient
       id="linearGradient3403">
      <stop
         id="stop3405"
         offset="0"
         style="stop-color:#4fa4f4;stop-opacity:1" />
      <stop
         id="stop3407"
         offset="1"
         style="stop-color:#0063ac;stop-opacity:1" />
    </linearGradient>
    <radialGradient
       inkscape:collect="always"
       xlink:href="#linearGradient3429"
       id="radialGradient3435"
       cx="280.50256"
       cy="350.58047"
       fx="280.50256"
       fy="350.58047"
       r="17.416855"
       gradientTransform="matrix(0.9821949,0,0,1.2160754,5.6618151,-77.890647)"
       gradientUnits="userSpaceOnUse" />
    <radialGradient
       inkscape:collect="always"
       xlink:href="#linearGradient3475"
       id="radialGradient3481"
       cx="24.6416"
       cy="44.946583"
       fx="24.6416"
       fy="44.946583"
       r="18.106218"
       gradientTransform="matrix(1,0,0,0.1153846,0,39.760439)"
       gradientUnits="userSpaceOnUse" />
    <inkscape:perspective
       sodipodi:type="inkscape:persp3d"
       inkscape:vp_x="0 : 526.18109 : 1"
       inkscape:vp_y="0 : 1000 : 0"
       inkscape:vp_z="744.09448 : 526.18109 : 1"
       inkscape:persp3d-origin="372.04724 : 350.78739 : 1"
       id="perspective3346" />
    <inkscape:perspective
       sodipodi:type="inkscape:persp3d"
       inkscape:vp_x="0 : 526.18109 : 1"
       inkscape:vp_y="0 : 1000 : 0"
       inkscape:vp_z="744.09448 : 526.18109 : 1"
       inkscape:persp3d-origin="372.04724 : 350.78739 : 1"
       id="perspective3344" />
    <inkscape:perspective
       sodipodi:type="inkscape:persp3d"
       inkscape:vp_x="0 : 500 : 1"
       inkscape:vp_y="0 : 1000 : 0"
       inkscape:vp_z="1000 : 500 : 1"
       inkscape:persp3d-origin="500 : 333.33333 : 1"
       id="perspective3341" />
    <inkscape:perspective
       id="perspective3339"
       inkscape:persp3d-origin="24 : 16 : 1"
       inkscape:vp_z="48 : 24 : 1"
       inkscape:vp_y="0 : 1000 : 0"
       inkscape:vp_x="0 : 24 : 1"
       sodipodi:type="inkscape:persp3d" />
    <linearGradient
       id="linearGradient3333">
      <stop
         id="stop3335"
         offset="0"
         style="stop-color:#4fa4f4;stop-opacity:1" />
      <stop
         id="stop3337"
         offset="1"
         style="stop-color:#0063ac;stop-opacity:1" />
    </linearGradient>
    <linearGradient
       inkscape:collect="always"
       xlink:href="#linearGradient3848"
       id="linearGradient3864"
       x1="279.28876"
       y1="349.2515"
       x2="316.65784"
       y2="387.37949"
       gradientUnits="userSpaceOnUse"
       gradientTransform="matrix(0.9821949,0,0,0.9821949,5.6618151,6.9081865)" />
  </defs>
  <sodipodi:namedview
     id="base"
     pagecolor="#ffffff"
     bordercolor="#666666"
     borderopacity="1.0"
     gridtolerance="10000"
     guidetolerance="10"
     objecttolerance="10"
     inkscape:pageopacity="0.0"
     inkscape:pageshadow="2"
     inkscape:zoom="13.520833"
     inkscape:cx="12.758089"
     inkscape:cy="23.999999"
     inkscape:document-units="px"
     inkscape:current-layer="layer1"
     showgrid="true"
     showguides="true"
     inkscape:guide-bbox="true"
     inkscape:window-width="1440"
     inkscape:window-height="855"
     inkscape:window-x="0"
     inkscape:window-y="16" />
  <metadata
     id="metadata7">
    <rdf:RDF>
      <cc:Work
         rdf:about="">
        <dc:format>image/svg+xml</dc:format>
        <dc:type
           rdf:resource="http://purl.org/dc/dcmitype/StillImage" />
        <dc:title>Tango CS4</dc:title>
        <dc:creator>
          <cc:Agent>
            <dc:title>STATiK-04</dc:title>
          </cc:Agent>
        </dc:creator>
      </cc:Work>
    </rdf:RDF>
  </metadata>
  <g
     inkscape:label="Layer 1"
     inkscape:groupmode="layer"
     id="layer1"
     transform="translate(-274.07144,-340.93362)">
    <path
       sodipodi:type="arc"
       style="opacity:0.35;fill:url(#radialGradient3481);fill-opacity:1;stroke:none;stroke-width:1;stroke-linecap:square;stroke-linejoin:round;stroke-miterlimit:0;stroke-dasharray:none;stroke-opacity:1"
       id="path3441"
       sodipodi:cx="24.6416"
       sodipodi:cy="44.946583"
       sodipodi:rx="18.106218"
       sodipodi:ry="2.089179"
       d="M 42.747818,44.946583 A 18.106218,2.089179 0 1 1 6.5353813,44.946583 A 18.106218,2.089179 0 1 1 42.747818,44.946583 z"
       transform="matrix(1.3014241,0,0,1.0112215,266.3161,340.8578)" />
    <image
       y="479.7215"
       x="348.01083"
       id="image2392"
       height="280"
       width="269"
       sodipodi:absref="E:\Graphics\Icons\Dock Icons\Adobe Photoshop CS2 bold.png"
       xlink:href="E:\Graphics\Icons\Dock Icons\Adobe Photoshop CS2 bold.png" />
    <path
       style="fill:url(#radialGradient3435);fill-opacity:1;fill-rule:evenodd;stroke:#000000;stroke-width:1;stroke-linecap:butt;stroke-linejoin:round;stroke-miterlimit:8;stroke-dasharray:none;stroke-opacity:1"
       d="M 281.92055,358.17503 C 280.9057,357.77607 278.56362,357.27947 276.50123,353.98729 C 277.73417,366.03129 290.01083,376.46463 301.21615,377.57783 C 298.44266,377.67865 295.56048,378.00996 292.64676,376.70842 C 295.56738,379.69878 298.68272,381.90799 302.72321,381.13617 C 302.54795,381.79736 303.11683,382.38411 303.3601,382.69652 C 304.04344,382.39837 304.2889,382.41639 304.70007,382.05019 C 304.77296,382.66255 304.72355,383.03135 304.29808,383.7149 C 307.01124,382.93901 308.25766,381.89115 308.184,380.25777 C 309.37815,378.61292 309.94523,376.71723 310.43515,374.79069 C 309.88791,375.26646 309.34199,375.74092 308.93439,376.07706 C 309.40216,374.30627 309.12564,372.9638 309.06839,371.52116 C 308.58565,373.19334 308.00439,374.90002 306.46884,376.29146 C 306.54792,370.78864 308.11604,365.24884 303.16442,359.74602 L 302.60972,363.1036 C 299.76656,351.07651 289.88515,340.73474 283.20693,342.52417 C 277.9309,344.59984 274.76552,351.03817 281.92055,358.17503 z"
       id="path2402"
       sodipodi:nodetypes="ccccccccccccccccc" />
    <path
       sodipodi:nodetypes="cccscccccccscsccsccsc"
       id="path3437"
       d="M 281.96841,359.12326 C 280.59789,358.71316 279.52472,358.77515 277.53798,356.49114 C 281.11061,367.66368 292.34459,376.03639 301.5137,376.64478 C 302.46325,377.19771 302.48715,378.11898 301.23787,378.55241 C 300.50675,378.80606 297.147,378.45128 294.98893,378.1151 C 298.00998,380.12832 299.816,380.78343 303.65557,380.09639 C 303.49009,380.72064 303.36905,381.36664 303.59873,381.66158 C 304.5415,381.23127 304.56264,381.40933 305.1087,381.19511 C 305.70366,382.32572 305.50033,381.85506 305.50033,382.42677 C 308.07557,380.88123 306.74786,380.19944 307.82088,379.03066 C 308.1386,378.59553 308.90731,377.48526 309.50041,376.48724 C 309.34564,376.90821 307.99321,376.59706 308.51002,376.42307 C 309.72433,376.01424 308.06249,375.38632 308.60167,374.35423 C 308.42994,374.48241 307.55139,377.08785 306.78631,377.2446 C 306.40208,377.32333 306.02793,377.12479 305.54671,376.77556 C 305.595,372.30346 307.04693,366.41295 303.51672,361.46299 C 303.83612,363.25434 303.61081,363.64683 303.13451,363.92182 C 302.73462,364.15269 302.63714,364.15137 301.86844,363.94539 C 298.62848,349.01728 288.16093,341.47994 283.2676,343.52798 C 277.30668,346.45874 277.33923,352.18463 282.28604,357.16391 C 283.17924,358.06297 282.90623,358.79052 281.96841,359.12326 z"
       style="opacity:0.34999999999999998;fill:none;fill-opacity:1;fill-rule:evenodd;stroke:#ffffff;stroke-width:1;stroke-linecap:square;stroke-linejoin:round;stroke-miterlimit:8;stroke-dasharray:none;stroke-opacity:1" />
    <path
       sodipodi:nodetypes="ccccccccccccccccc"
       id="path3170"
       d="M 281.92055,358.17503 C 280.9057,357.77607 278.56362,357.27947 276.50123,353.98729 C 277.73417,366.03129 290.01083,376.46463 301.21615,377.57783 C 298.44266,377.67865 295.56048,378.00996 292.64676,376.70842 C 295.56738,379.69878 298.68272,381.90799 302.72321,381.13617 C 302.54795,381.79736 303.11683,382.38411 303.3601,382.69652 C 304.04344,382.39837 304.2889,382.41639 304.70007,382.05019 C 304.77296,382.66255 304.72355,383.03135 304.29808,383.7149 C 307.01124,382.93901 308.25766,381.89115 308.184,380.25777 C 309.37815,378.61292 309.94523,376.71723 310.43515,374.79069 C 309.88791,375.26646 309.34199,375.74092 308.93439,376.07706 C 309.40216,374.30627 309.12564,372.9638 309.06839,371.52116 C 308.58565,373.19334 308.00439,374.90002 306.46884,376.29146 C 306.54792,370.78864 308.11604,365.24884 303.16442,359.74602 L 302.60972,363.1036 C 299.76656,351.07651 289.88515,340.73474 283.20693,342.52417 C 277.9309,344.59984 274.76552,351.03817 281.92055,358.17503 z"
       style="fill:none;fill-opacity:1;fill-rule:evenodd;stroke:#204a87;stroke-width:1;stroke-linecap:butt;stroke-linejoin:round;stroke-miterlimit:8;stroke-dasharray:none;stroke-opacity:1" />
    <g
       id="g2505"
       transform="matrix(0.1636408,0,0,0.1636408,311.45686,334.3035)">
      <path
         id="rect139_1_"
         d="M 164.5164,135.3145 L 176.6932,135.3145 C 179.6698,135.3145 182.0828,137.7295 182.0828,140.7071 L 182.0828,152.8829 C 182.0828,155.8604 179.6697,158.2735 176.6932,158.2735 L 164.5164,158.2735 C 161.5398,158.2735 159.1248,155.8604 159.1248,152.8829 L 159.1248,140.7071 C 159.1248,137.7295 161.5398,135.3145 164.5164,135.3145 z"
         style="fill:#8ae234;fill-opacity:1" />
      <path
         id="rect145_1_"
         d="M 194.1248,135.3145 L 206.2996,135.3145 C 209.2781,135.3145 211.6912,137.7295 211.6912,140.7071 L 211.6912,152.8829 C 211.6912,155.8604 209.2781,158.2735 206.2996,158.2735 L 194.1248,158.2735 C 191.1463,158.2735 188.7322,155.8604 188.7322,152.8829 L 188.7322,140.7071 C 188.7322,137.7295 191.1462,135.3145 194.1248,135.3145 z"
         style="fill:#73d216;fill-opacity:1" />
      <path
         id="rect157_1_"
         d="M 223.7312,135.3145 L 235.907,135.3145 C 238.8845,135.3145 241.2976,137.7295 241.2976,140.7071 L 241.2976,152.8829 C 241.2976,155.8604 238.8845,158.2735 235.907,158.2735 L 223.7312,158.2735 C 220.7537,158.2735 218.3396,155.8604 218.3396,152.8829 L 218.3396,140.7071 C 218.3396,137.7295 220.7537,135.3145 223.7312,135.3145 z"
         style="fill:#4e9a06;fill-opacity:1" />
      <path
         id="rect140_1_"
         d="M 164.5164,76.099602 L 176.6932,76.099602 C 179.6698,76.099602 182.0828,78.514602 182.0828,81.492202 L 182.0828,93.668002 C 182.0828,96.645502 179.6697,99.058602 176.6932,99.058602 L 164.5164,99.058602 C 161.5398,99.058602 159.1248,96.645502 159.1248,93.668002 L 159.1248,81.492202 C 159.1248,78.514702 161.5398,76.099602 164.5164,76.099602 z"
         style="fill:#fcaf3e" />
      <path
         id="rect146_1_"
         d="M 194.1248,76.099602 L 206.2996,76.099602 C 209.2781,76.099602 211.6912,78.514602 211.6912,81.492202 L 211.6912,93.668002 C 211.6912,96.645502 209.2781,99.058602 206.2996,99.058602 L 194.1248,99.058602 C 191.1463,99.058602 188.7322,96.645502 188.7322,93.668002 L 188.7322,81.492202 C 188.7322,78.514702 191.1462,76.099602 194.1248,76.099602 z"
         style="fill:#f57900" />
      <path
         id="rect158_1_"
         d="M 223.7312,76.099602 L 235.907,76.099602 C 238.8845,76.099602 241.2976,78.514602 241.2976,81.492202 L 241.2976,93.668002 C 241.2976,96.645502 238.8845,99.058602 235.907,99.058602 L 223.7312,99.058602 C 220.7537,99.058602 218.3396,96.645502 218.3396,93.668002 L 218.3396,81.492202 C 218.3396,78.514702 220.7537,76.099602 223.7312,76.099602 z"
         style="fill:#ce5c00" />
      <path
         id="rect141_3_"
         d="M 164.5164,164.9238 L 176.6932,164.9238 C 179.6698,164.9238 182.0828,167.3369 182.0828,170.3144 L 182.0828,182.4892 C 182.0828,185.4677 179.6697,187.8818 176.6932,187.8818 L 164.5164,187.8818 C 161.5398,187.8818 159.1248,185.4677 159.1248,182.4892 L 159.1248,170.3144 C 159.1248,167.3369 161.5398,164.9238 164.5164,164.9238 z"
         style="fill:#729fcf" />
      <path
         id="rect147_3_"
         d="M 194.1248,164.9238 L 206.2996,164.9238 C 209.2781,164.9238 211.6912,167.3369 211.6912,170.3144 L 211.6912,182.4892 C 211.6912,185.4677 209.2781,187.8818 206.2996,187.8818 L 194.1248,187.8818 C 191.1463,187.8818 188.7322,185.4677 188.7322,182.4892 L 188.7322,170.3144 C 188.7322,167.3369 191.1462,164.9238 194.1248,164.9238 z"
         style="fill:#3465a4" />
      <path
         id="rect159_3_"
         d="M 223.7312,164.9238 L 235.907,164.9238 C 238.8845,164.9238 241.2976,167.3369 241.2976,170.3144 L 241.2976,182.4892 C 241.2976,185.4677 238.8845,187.8818 235.907,187.8818 L 223.7312,187.8818 C 220.7537,187.8818 218.3396,185.4677 218.3396,182.4892 L 218.3396,170.3144 C 218.3396,167.3369 220.7537,164.9238 223.7312,164.9238 z"
         style="fill:#204a87" />
      <path
         id="rect168_1_"
         d="M 164.5164,268.9414 L 176.6932,268.9414 C 179.6698,268.9414 182.0828,271.3545 182.0828,274.333 L 182.0828,286.5098 C 182.0828,289.4864 179.6697,291.9014 176.6932,291.9014 L 164.5164,291.9014 C 161.5398,291.9014 159.1248,289.4864 159.1248,286.5098 L 159.1248,274.333 C 159.1248,271.3545 161.5398,268.9414 164.5164,268.9414 z"
         style="fill:#eeeeec" />
      <path
         id="rect169_1_"
         d="M 194.1248,268.9414 L 206.2996,268.9414 C 209.2781,268.9414 211.6912,271.3545 211.6912,274.333 L 211.6912,286.5098 C 211.6912,289.4864 209.2781,291.9014 206.2996,291.9014 L 194.1248,291.9014 C 191.1463,291.9014 188.7322,289.4864 188.7322,286.5098 L 188.7322,274.333 C 188.7322,271.3545 191.1462,268.9414 194.1248,268.9414 z"
         style="fill:#d3d7cf" />
      <path
         id="rect181_1_"
         d="M 223.7312,268.9414 L 235.907,268.9414 C 238.8845,268.9414 241.2976,271.3545 241.2976,274.333 L 241.2976,286.5098 C 241.2976,289.4864 238.8845,291.9014 235.907,291.9014 L 223.7312,291.9014 C 220.7537,291.9014 218.3396,289.4864 218.3396,286.5098 L 218.3396,274.333 C 218.3396,271.3545 220.7537,268.9414 223.7312,268.9414 z"
         style="fill:#babdb6" />
      <path
         id="rect171_1_"
         d="M 194.1248,298.5488 L 206.2996,298.5488 C 209.2781,298.5488 211.6912,300.9648 211.6912,303.9404 L 211.6912,316.1162 C 211.6912,319.0947 209.2781,321.5068 206.2996,321.5068 L 194.1248,321.5068 C 191.1463,321.5068 188.7322,319.0947 188.7322,316.1162 L 188.7322,303.9404 C 188.7322,300.9648 191.1462,298.5488 194.1248,298.5488 z"
         style="fill:#555753" />
      <path
         id="rect183_1_"
         d="M 223.7312,298.5488 L 235.907,298.5488 C 238.8845,298.5488 241.2976,300.9648 241.2976,303.9404 L 241.2976,316.1162 C 241.2976,319.0947 238.8845,321.5068 235.907,321.5068 L 223.7312,321.5068 C 220.7537,321.5068 218.3396,319.0947 218.3396,316.1162 L 218.3396,303.9404 C 218.3396,300.9648 220.7537,298.5488 223.7312,298.5488 z"
         style="fill:#2e3436" />
      <path
         id="rect193_1_"
         d="M 164.5164,298.5488 L 176.6932,298.5488 C 179.6698,298.5488 182.0828,300.9648 182.0828,303.9404 L 182.0828,316.1162 C 182.0828,319.0947 179.6697,321.5068 176.6932,321.5068 L 164.5164,321.5068 C 161.5398,321.5068 159.1248,319.0947 159.1248,316.1162 L 159.1248,303.9404 C 159.1248,300.9648 161.5398,298.5488 164.5164,298.5488 z"
         style="fill:#888a85" />
      <path
         id="rect301_1_"
         d="M 164.5164,46.493202 L 176.6932,46.493202 C 179.6698,46.493202 182.0828,48.906302 182.0828,51.883802 L 182.0828,64.059602 C 182.0828,67.037102 179.6697,69.451202 176.6932,69.451202 L 164.5164,69.451202 C 161.5398,69.451202 159.1248,67.037102 159.1248,64.059602 L 159.1248,51.883802 C 159.1248,48.906302 161.5398,46.493202 164.5164,46.493202 z"
         style="fill:#fce94f" />
      <path
         id="rect302_1_"
         d="M 194.1248,46.493202 L 206.2996,46.493202 C 209.2781,46.493202 211.6912,48.906302 211.6912,51.883802 L 211.6912,64.059602 C 211.6912,67.037102 209.2781,69.451202 206.2996,69.451202 L 194.1248,69.451202 C 191.1463,69.451202 188.7322,67.037102 188.7322,64.059602 L 188.7322,51.883802 C 188.7322,48.906302 191.1462,46.493202 194.1248,46.493202 z"
         style="fill:#edd400" />
      <path
         id="rect303_1_"
         d="M 223.7312,46.493202 L 235.907,46.493202 C 238.8845,46.493202 241.2976,48.906302 241.2976,51.883802 L 241.2976,64.059602 C 241.2976,67.037102 238.8845,69.451202 235.907,69.451202 L 223.7312,69.451202 C 220.7537,69.451202 218.3396,67.037102 218.3396,64.059602 L 218.3396,51.883802 C 218.3396,48.906302 220.7537,46.493202 223.7312,46.493202 z"
         style="fill:#c4a000" />
      <path
         id="rect305_1_"
         d="M 164.5164,105.708 L 176.6932,105.708 C 179.6698,105.708 182.0828,108.1211 182.0828,111.0996 L 182.0828,123.2744 C 182.0828,126.2519 179.6697,128.666 176.6932,128.666 L 164.5164,128.666 C 161.5398,128.666 159.1248,126.2519 159.1248,123.2744 L 159.1248,111.0996 C 159.1248,108.1211 161.5398,105.708 164.5164,105.708 z"
         style="fill:#e9b96e" />
      <path
         id="rect306_1_"
         d="M 194.1248,105.708 L 206.2996,105.708 C 209.2781,105.708 211.6912,108.1211 211.6912,111.0996 L 211.6912,123.2744 C 211.6912,126.2519 209.2781,128.666 206.2996,128.666 L 194.1248,128.666 C 191.1463,128.666 188.7322,126.2519 188.7322,123.2744 L 188.7322,111.0996 C 188.7322,108.1211 191.1462,105.708 194.1248,105.708 z"
         style="fill:#c17d11" />
      <path
         id="rect307_1_"
         d="M 223.7312,105.708 L 235.907,105.708 C 238.8845,105.708 241.2976,108.1211 241.2976,111.0996 L 241.2976,123.2744 C 241.2976,126.2519 238.8845,128.666 235.907,128.666 L 223.7312,128.666 C 220.7537,128.666 218.3396,126.2519 218.3396,123.2744 L 218.3396,111.0996 C 218.3396,108.1211 220.7537,105.708 223.7312,105.708 z"
         style="fill:#8f5902" />
      <path
         id="rect141_2_"
         d="M 164.5164,194.9238 L 176.6932,194.9238 C 179.6698,194.9238 182.0828,197.3369 182.0828,200.3144 L 182.0828,212.4892 C 182.0828,215.4677 179.6697,217.8818 176.6932,217.8818 L 164.5164,217.8818 C 161.5398,217.8818 159.1248,215.4677 159.1248,212.4892 L 159.1248,200.3144 C 159.1248,197.3369 161.5398,194.9238 164.5164,194.9238 z"
         style="fill:#ad7fa8" />
      <path
         id="rect147_2_"
         d="M 194.1248,194.9238 L 206.2996,194.9238 C 209.2781,194.9238 211.6912,197.3369 211.6912,200.3144 L 211.6912,212.4892 C 211.6912,215.4677 209.2781,217.8818 206.2996,217.8818 L 194.1248,217.8818 C 191.1463,217.8818 188.7322,215.4677 188.7322,212.4892 L 188.7322,200.3144 C 188.7322,197.3369 191.1462,194.9238 194.1248,194.9238 z"
         style="fill:#75507b" />
      <path
         id="rect159_2_"
         d="M 223.7312,194.9238 L 235.907,194.9238 C 238.8845,194.9238 241.2976,197.3369 241.2976,200.3144 L 241.2976,212.4892 C 241.2976,215.4677 238.8845,217.8818 235.907,217.8818 L 223.7312,217.8818 C 220.7537,217.8818 218.3396,215.4677 218.3396,212.4892 L 218.3396,200.3144 C 218.3396,197.3369 220.7537,194.9238 223.7312,194.9238 z"
         style="fill:#5c3566" />
      <text
         id="text1529"
         x="142.30692"
         y="178.88181"
         style="fill:#a7a7a7;fill-opacity:1">
        <tspan
           x="142.30692"
           y="178.88181"
           font-size="8"
           id="tspan1531"
           style="font-size:8px" />
      </text>
      <text
         id="text1533"
         x="106.27762"
         y="60.861805"
         style="font-size:12px;font-style:normal;font-variant:normal;font-weight:bold;font-stretch:normal;line-height:100%;writing-mode:lr-tb;text-anchor:start;fill:#a7a7a7;fill-opacity:1;font-family:Trebuchet MS"
         sodipodi:linespacing="100%">
        <tspan
           x="106.27762"
           y="60.861805"
           font-size="11"
           id="tspan1535"
           style="font-size:11px;font-family:Trebuchet MS">Butter</tspan>
      </text>
      <text
         id="text1537"
         x="106.36356"
         y="90.468803"
         style="font-size:12px;font-style:normal;font-variant:normal;font-weight:bold;font-stretch:normal;line-height:100%;writing-mode:lr-tb;text-anchor:start;fill:#a7a7a7;fill-opacity:1;font-family:Trebuchet MS"
         sodipodi:linespacing="100%">
        <tspan
           x="106.36356"
           y="90.468803"
           font-size="11"
           id="tspan1539"
           style="font-size:11px;font-family:Trebuchet MS">Orange</tspan>
      </text>
      <text
         id="text1541"
         x="91.517853"
         y="120.07671"
         style="font-size:12px;font-style:normal;font-variant:normal;font-weight:bold;font-stretch:normal;line-height:100%;writing-mode:lr-tb;text-anchor:start;fill:#a7a7a7;fill-opacity:1;font-family:Trebuchet MS"
         sodipodi:linespacing="100%">
        <tspan
           x="91.517853"
           y="120.07671"
           font-size="11"
           id="tspan1543"
           style="font-size:11px;font-family:Trebuchet MS">Chocolate</tspan>
      </text>
      <text
         id="text1545"
         x="85.85672"
         y="149.68359"
         style="font-size:12px;font-style:normal;font-variant:normal;font-weight:bold;font-stretch:normal;line-height:100%;writing-mode:lr-tb;text-anchor:start;fill:#a7a7a7;fill-opacity:1;font-family:Trebuchet MS"
         sodipodi:linespacing="100%">
        <tspan
           x="85.85672"
           y="149.68359"
           font-size="11"
           id="tspan1547"
           style="font-size:11px;font-family:Trebuchet MS">Chameleon</tspan>
      </text>
      <text
         id="text1549"
         x="99.187775"
         y="179.29199"
         style="font-size:12px;font-style:normal;font-variant:normal;font-weight:bold;font-stretch:normal;line-height:100%;writing-mode:lr-tb;text-anchor:start;fill:#a7a7a7;fill-opacity:1;font-family:Trebuchet MS"
         sodipodi:linespacing="100%">
        <tspan
           x="99.187775"
           y="179.29199"
           font-size="11"
           id="tspan1551"
           style="font-size:11px;font-family:Trebuchet MS">Sky Blue</tspan>
      </text>
      <text
         id="text1553"
         x="142.30692"
         y="208.88181"
         style="fill:#a7a7a7;fill-opacity:1">
        <tspan
           x="142.30692"
           y="208.88181"
           font-size="8"
           id="tspan1555"
           style="font-size:8px" />
      </text>
      <text
         id="text1557"
         x="117.35818"
         y="209.29199"
         style="font-size:12px;font-style:normal;font-variant:normal;font-weight:bold;font-stretch:normal;line-height:100%;writing-mode:lr-tb;text-anchor:start;fill:#a7a7a7;fill-opacity:1;font-family:Trebuchet MS"
         sodipodi:linespacing="100%">
        <tspan
           x="117.35818"
           y="209.29199"
           font-size="11"
           id="tspan1559"
           style="font-size:11px;font-family:Trebuchet MS">Plum</tspan>
      </text>
      <text
         id="text1561"
         x="84.438751"
         y="238.89841"
         style="font-size:12px;font-style:normal;font-variant:normal;font-weight:bold;font-stretch:normal;line-height:100%;writing-mode:lr-tb;text-anchor:start;fill:#a7a7a7;fill-opacity:1;font-family:Trebuchet MS"
         sodipodi:linespacing="100%">
        <tspan
           x="84.438751"
           y="238.89841"
           font-size="11"
           id="tspan1563"
           style="font-size:11px;font-family:Trebuchet MS">Scarlet Red</tspan>
      </text>
      <text
         id="text1565"
         x="87.838654"
         y="283.3096"
         style="font-size:12px;font-style:normal;font-variant:normal;font-weight:bold;font-stretch:normal;line-height:100%;writing-mode:lr-tb;text-anchor:start;fill:#a7a7a7;fill-opacity:1;font-family:Trebuchet MS"
         sodipodi:linespacing="100%">
        <tspan
           x="87.838654"
           y="283.3096"
           font-size="11"
           id="tspan1567"
           style="font-size:11px;font-family:Trebuchet MS">Aluminium</tspan>
      </text>
      <path
         id="rect170_1_"
         d="M 164.5164,224.5293 L 176.6932,224.5293 C 179.6698,224.5293 182.0828,226.9443 182.0828,229.9219 L 182.0828,242.0977 C 182.0828,245.0743 179.6697,247.4903 176.6932,247.4903 L 164.5164,247.4903 C 161.5398,247.4903 159.1248,245.0743 159.1248,242.0977 L 159.1248,229.9219 C 159.1248,226.9443 161.5398,224.5293 164.5164,224.5293 z"
         style="fill:#ef2929" />
      <path
         id="rect182_1_"
         d="M 194.1248,224.5293 L 206.2996,224.5293 C 209.2781,224.5293 211.6912,226.9443 211.6912,229.9219 L 211.6912,242.0977 C 211.6912,245.0743 209.2781,247.4903 206.2996,247.4903 L 194.1248,247.4903 C 191.1463,247.4903 188.7322,245.0743 188.7322,242.0977 L 188.7322,229.9219 C 188.7322,226.9443 191.1462,224.5293 194.1248,224.5293 z"
         style="fill:#cc0000" />
      <path
         id="rect344_1_"
         d="M 223.3259,224.5293 L 235.5007,224.5293 C 238.4782,224.5293 240.8943,226.9443 240.8943,229.9219 L 240.8943,242.0977 C 240.8943,245.0743 238.4783,247.4903 235.5007,247.4903 L 223.3259,247.4903 C 220.3484,247.4903 217.9343,245.0743 217.9343,242.0977 L 217.9343,229.9219 C 217.9343,226.9443 220.3484,224.5293 223.3259,224.5293 z"
         style="fill:#a40000" />
      <g
         inkscape:label="hex triplets"
         id="g2554">
        <text
           sodipodi:linespacing="100%"
           id="text2362"
           y="66.332603"
           x="162.72771"
           style="font-size:3.68000007px;font-style:normal;font-variant:normal;font-weight:normal;font-stretch:normal;text-align:start;line-height:100%;writing-mode:lr-tb;text-anchor:start;fill:#000000;fill-opacity:1;stroke:none;stroke-width:1px;stroke-linecap:butt;stroke-linejoin:miter;stroke-opacity:1;font-family:Segoe"
           xml:space="preserve"><tspan
             y="66.332603"
             x="162.72771"
             id="tspan2364"
             sodipodi:role="line">#fce94f</tspan></text>
        <text
           xml:space="preserve"
           style="font-size:3.68000007px;font-style:normal;font-variant:normal;font-weight:normal;font-stretch:normal;text-align:start;line-height:100%;writing-mode:lr-tb;text-anchor:start;fill:#000000;fill-opacity:1;stroke:none;stroke-width:1px;stroke-linecap:butt;stroke-linejoin:miter;stroke-opacity:1;font-family:Segoe"
           x="162.72771"
           y="95.582596"
           id="text2366"
           sodipodi:linespacing="100%"><tspan
             sodipodi:role="line"
             id="tspan2368"
             x="162.72771"
             y="95.582596">#fcaf3e</tspan></text>
        <text
           sodipodi:linespacing="100%"
           id="text2370"
           y="125.0826"
           x="162.72771"
           style="font-size:3.68000007px;font-style:normal;font-variant:normal;font-weight:normal;font-stretch:normal;text-align:start;line-height:100%;writing-mode:lr-tb;text-anchor:start;fill:#000000;fill-opacity:1;stroke:none;stroke-width:1px;stroke-linecap:butt;stroke-linejoin:miter;stroke-opacity:1;font-family:Segoe"
           xml:space="preserve"><tspan
             y="125.0826"
             x="162.72771"
             id="tspan2372"
             sodipodi:role="line">#e9b96e</tspan></text>
        <text
           xml:space="preserve"
           style="font-size:3.68000007px;font-style:normal;font-variant:normal;font-weight:normal;font-stretch:normal;text-align:start;line-height:100%;writing-mode:lr-tb;text-anchor:start;fill:#000000;fill-opacity:1;stroke:none;stroke-width:1px;stroke-linecap:butt;stroke-linejoin:miter;stroke-opacity:1;font-family:Segoe"
           x="162.72771"
           y="154.3326"
           id="text2374"
           sodipodi:linespacing="100%"><tspan
             sodipodi:role="line"
             id="tspan2376"
             x="162.72771"
             y="154.3326">#8ae234</tspan></text>
        <text
           sodipodi:linespacing="100%"
           id="text2378"
           y="183.8326"
           x="162.72771"
           style="font-size:3.68000007px;font-style:normal;font-variant:normal;font-weight:normal;font-stretch:normal;text-align:start;line-height:100%;writing-mode:lr-tb;text-anchor:start;fill:#000000;fill-opacity:1;stroke:none;stroke-width:1px;stroke-linecap:butt;stroke-linejoin:miter;stroke-opacity:1;font-family:Segoe"
           xml:space="preserve"><tspan
             y="183.8326"
             x="162.72771"
             id="tspan2380"
             sodipodi:role="line">#729fcf</tspan></text>
        <text
           xml:space="preserve"
           style="font-size:3.68000007px;font-style:normal;font-variant:normal;font-weight:normal;font-stretch:normal;text-align:start;line-height:100%;writing-mode:lr-tb;text-anchor:start;fill:#ffffff;fill-opacity:1;stroke:none;stroke-width:1px;stroke-linecap:butt;stroke-linejoin:miter;stroke-opacity:1;font-family:Segoe"
           x="162.72771"
           y="214.0826"
           id="text2382"
           sodipodi:linespacing="100%"><tspan
             sodipodi:role="line"
             id="tspan2384"
             x="162.72771"
             y="214.0826">#ad7fa8</tspan></text>
        <text
           sodipodi:linespacing="100%"
           id="text2386"
           y="243.5826"
           x="162.72771"
           style="font-size:3.68000007px;font-style:normal;font-variant:normal;font-weight:normal;font-stretch:normal;text-align:start;line-height:100%;writing-mode:lr-tb;text-anchor:start;fill:#ffffff;fill-opacity:1;stroke:none;stroke-width:1px;stroke-linecap:butt;stroke-linejoin:miter;stroke-opacity:1;font-family:Segoe"
           xml:space="preserve"><tspan
             y="243.5826"
             x="162.72771"
             id="tspan2388"
             sodipodi:role="line">#ef2929</tspan></text>
        <text
           xml:space="preserve"
           style="font-size:3.68000007px;font-style:normal;font-variant:normal;font-weight:normal;font-stretch:normal;text-align:start;line-height:100%;writing-mode:lr-tb;text-anchor:start;fill:#000000;fill-opacity:1;stroke:none;stroke-width:1px;stroke-linecap:butt;stroke-linejoin:miter;stroke-opacity:1;font-family:Segoe"
           x="162.72771"
           y="288.58264"
           id="text2390"
           sodipodi:linespacing="100%"><tspan
             sodipodi:role="line"
             id="tspan2392"
             x="162.72771"
             y="288.58264">#eeeeec</tspan></text>
        <text
           sodipodi:linespacing="100%"
           id="text2394"
           y="317.58264"
           x="162.72771"
           style="font-size:3.68000007px;font-style:normal;font-variant:normal;font-weight:normal;font-stretch:normal;text-align:start;line-height:100%;writing-mode:lr-tb;text-anchor:start;fill:#ffffff;fill-opacity:1;stroke:none;stroke-width:1px;stroke-linecap:butt;stroke-linejoin:miter;stroke-opacity:1;font-family:Segoe"
           xml:space="preserve"><tspan
             y="317.58264"
             x="162.72771"
             id="tspan2396"
             sodipodi:role="line">#888a85</tspan></text>
        <text
           xml:space="preserve"
           style="font-size:3.68000007px;font-style:normal;font-variant:normal;font-weight:normal;font-stretch:normal;text-align:start;line-height:100%;writing-mode:lr-tb;text-anchor:start;fill:#000000;fill-opacity:1;stroke:none;stroke-width:1px;stroke-linecap:butt;stroke-linejoin:miter;stroke-opacity:1;font-family:Segoe"
           x="192.72771"
           y="66.332603"
           id="text2398"
           sodipodi:linespacing="100%"><tspan
             sodipodi:role="line"
             id="tspan2400"
             x="192.72771"
             y="66.332603">#edd400</tspan></text>
        <text
           sodipodi:linespacing="100%"
           id="text2402"
           y="95.582596"
           x="192.72771"
           style="font-size:3.68000007px;font-style:normal;font-variant:normal;font-weight:normal;font-stretch:normal;text-align:start;line-height:100%;writing-mode:lr-tb;text-anchor:start;fill:#ffffff;fill-opacity:1;stroke:none;stroke-width:1px;stroke-linecap:butt;stroke-linejoin:miter;stroke-opacity:1;font-family:Segoe"
           xml:space="preserve"><tspan
             y="95.582596"
             x="192.72771"
             id="tspan2404"
             sodipodi:role="line">#f57900</tspan></text>
        <text
           xml:space="preserve"
           style="font-size:3.68000007px;font-style:normal;font-variant:normal;font-weight:normal;font-stretch:normal;text-align:start;line-height:100%;writing-mode:lr-tb;text-anchor:start;fill:#ffffff;fill-opacity:1;stroke:none;stroke-width:1px;stroke-linecap:butt;stroke-linejoin:miter;stroke-opacity:1;font-family:Segoe"
           x="192.72771"
           y="125.0826"
           id="text2406"
           sodipodi:linespacing="100%"><tspan
             sodipodi:role="line"
             id="tspan2408"
             x="192.72771"
             y="125.0826">#c17d11</tspan></text>
        <text
           sodipodi:linespacing="100%"
           id="text2410"
           y="154.3326"
           x="192.72771"
           style="font-size:3.68000007px;font-style:normal;font-variant:normal;font-weight:normal;font-stretch:normal;text-align:start;line-height:100%;writing-mode:lr-tb;text-anchor:start;fill:#000000;fill-opacity:1;stroke:none;stroke-width:1px;stroke-linecap:butt;stroke-linejoin:miter;stroke-opacity:1;font-family:Segoe"
           xml:space="preserve"><tspan
             y="154.3326"
             x="192.72771"
             id="tspan2412"
             sodipodi:role="line">#73d216</tspan></text>
        <text
           xml:space="preserve"
           style="font-size:3.68000007px;font-style:normal;font-variant:normal;font-weight:normal;font-stretch:normal;text-align:start;line-height:100%;writing-mode:lr-tb;text-anchor:start;fill:#ffffff;fill-opacity:1;stroke:none;stroke-width:1px;stroke-linecap:butt;stroke-linejoin:miter;stroke-opacity:1;font-family:Segoe"
           x="192.72771"
           y="183.8326"
           id="text2414"
           sodipodi:linespacing="100%"><tspan
             sodipodi:role="line"
             id="tspan2416"
             x="192.72771"
             y="183.8326">#3465a4</tspan></text>
        <text
           sodipodi:linespacing="100%"
           id="text2418"
           y="214.0826"
           x="192.72771"
           style="font-size:3.68000007px;font-style:normal;font-variant:normal;font-weight:normal;font-stretch:normal;text-align:start;line-height:100%;writing-mode:lr-tb;text-anchor:start;fill:#ffffff;fill-opacity:1;stroke:none;stroke-width:1px;stroke-linecap:butt;stroke-linejoin:miter;stroke-opacity:1;font-family:Segoe"
           xml:space="preserve"><tspan
             y="214.0826"
             x="192.72771"
             id="tspan2420"
             sodipodi:role="line">#75507b</tspan></text>
        <text
           xml:space="preserve"
           style="font-size:3.68000007px;font-style:normal;font-variant:normal;font-weight:normal;font-stretch:normal;text-align:start;line-height:100%;writing-mode:lr-tb;text-anchor:start;fill:#ffffff;fill-opacity:1;stroke:none;stroke-width:1px;stroke-linecap:butt;stroke-linejoin:miter;stroke-opacity:1;font-family:Segoe"
           x="192.72771"
           y="243.5826"
           id="text2422"
           sodipodi:linespacing="100%"><tspan
             sodipodi:role="line"
             id="tspan2424"
             x="192.72771"
             y="243.5826">#cc0000</tspan></text>
        <text
           sodipodi:linespacing="100%"
           id="text2426"
           y="288.58264"
           x="192.72771"
           style="font-size:3.68000007px;font-style:normal;font-variant:normal;font-weight:normal;font-stretch:normal;text-align:start;line-height:100%;writing-mode:lr-tb;text-anchor:start;fill:#000000;fill-opacity:1;stroke:none;stroke-width:1px;stroke-linecap:butt;stroke-linejoin:miter;stroke-opacity:1;font-family:Segoe"
           xml:space="preserve"><tspan
             y="288.58264"
             x="192.72771"
             id="tspan2428"
             sodipodi:role="line">#d3d7cf</tspan></text>
        <text
           xml:space="preserve"
           style="font-size:3.68000007px;font-style:normal;font-variant:normal;font-weight:normal;font-stretch:normal;text-align:start;line-height:100%;writing-mode:lr-tb;text-anchor:start;fill:#ffffff;fill-opacity:1;stroke:none;stroke-width:1px;stroke-linecap:butt;stroke-linejoin:miter;stroke-opacity:1;font-family:Segoe"
           x="192.72771"
           y="317.58264"
           id="text2430"
           sodipodi:linespacing="100%"><tspan
             sodipodi:role="line"
             id="tspan2432"
             x="192.72771"
             y="317.58264">#555753</tspan></text>
        <text
           sodipodi:linespacing="100%"
           id="text2434"
           y="66.332603"
           x="222.72771"
           style="font-size:3.68000007px;font-style:normal;font-variant:normal;font-weight:normal;font-stretch:normal;text-align:start;line-height:100%;writing-mode:lr-tb;text-anchor:start;fill:#ffffff;fill-opacity:1;stroke:none;stroke-width:1px;stroke-linecap:butt;stroke-linejoin:miter;stroke-opacity:1;font-family:Segoe"
           xml:space="preserve"><tspan
             y="66.332603"
             x="222.72771"
             id="tspan2436"
             sodipodi:role="line">#c4a000</tspan></text>
        <text
           xml:space="preserve"
           style="font-size:3.68000007px;font-style:normal;font-variant:normal;font-weight:normal;font-stretch:normal;text-align:start;line-height:100%;writing-mode:lr-tb;text-anchor:start;fill:#ffffff;fill-opacity:1;stroke:none;stroke-width:1px;stroke-linecap:butt;stroke-linejoin:miter;stroke-opacity:1;font-family:Segoe"
           x="222.72771"
           y="95.582596"
           id="text2438"
           sodipodi:linespacing="100%"><tspan
             sodipodi:role="line"
             id="tspan2440"
             x="222.72771"
             y="95.582596">#ce5c00</tspan></text>
        <text
           sodipodi:linespacing="100%"
           id="text2442"
           y="125.0826"
           x="222.72771"
           style="font-size:3.68000007px;font-style:normal;font-variant:normal;font-weight:normal;font-stretch:normal;text-align:start;line-height:100%;writing-mode:lr-tb;text-anchor:start;fill:#ffffff;fill-opacity:1;stroke:none;stroke-width:1px;stroke-linecap:butt;stroke-linejoin:miter;stroke-opacity:1;font-family:Segoe"
           xml:space="preserve"><tspan
             y="125.0826"
             x="222.72771"
             id="tspan2444"
             sodipodi:role="line">#8f5902</tspan></text>
        <text
           xml:space="preserve"
           style="font-size:3.68000007px;font-style:normal;font-variant:normal;font-weight:normal;font-stretch:normal;text-align:start;line-height:100%;writing-mode:lr-tb;text-anchor:start;fill:#ffffff;fill-opacity:1;stroke:none;stroke-width:1px;stroke-linecap:butt;stroke-linejoin:miter;stroke-opacity:1;font-family:Segoe"
           x="222.72771"
           y="154.3326"
           id="text2446"
           sodipodi:linespacing="100%"><tspan
             sodipodi:role="line"
             id="tspan2448"
             x="222.72771"
             y="154.3326">#4e9a06</tspan></text>
        <text
           sodipodi:linespacing="100%"
           id="text2450"
           y="183.8326"
           x="222.72771"
           style="font-size:3.68000007px;font-style:normal;font-variant:normal;font-weight:normal;font-stretch:normal;text-align:start;line-height:100%;writing-mode:lr-tb;text-anchor:start;fill:#ffffff;fill-opacity:1;stroke:none;stroke-width:1px;stroke-linecap:butt;stroke-linejoin:miter;stroke-opacity:1;font-family:Segoe"
           xml:space="preserve"><tspan
             y="183.8326"
             x="222.72771"
             id="tspan2452"
             sodipodi:role="line">#204a87</tspan></text>
        <text
           xml:space="preserve"
           style="font-size:3.68000007px;font-style:normal;font-variant:normal;font-weight:normal;font-stretch:normal;text-align:start;line-height:100%;writing-mode:lr-tb;text-anchor:start;fill:#ffffff;fill-opacity:1;stroke:none;stroke-width:1px;stroke-linecap:butt;stroke-linejoin:miter;stroke-opacity:1;font-family:Segoe"
           x="222.72771"
           y="214.0826"
           id="text2454"
           sodipodi:linespacing="100%"><tspan
             sodipodi:role="line"
             id="tspan2456"
             x="222.72771"
             y="214.0826">#5c3566</tspan></text>
        <text
           sodipodi:linespacing="100%"
           id="text2458"
           y="243.5826"
           x="222.72771"
           style="font-size:3.68000007px;font-style:normal;font-variant:normal;font-weight:normal;font-stretch:normal;text-align:start;line-height:100%;writing-mode:lr-tb;text-anchor:start;fill:#ffffff;fill-opacity:1;stroke:none;stroke-width:1px;stroke-linecap:butt;stroke-linejoin:miter;stroke-opacity:1;font-family:Segoe"
           xml:space="preserve"><tspan
             y="243.5826"
             x="222.72771"
             id="tspan2460"
             sodipodi:role="line">#a40000</tspan></text>
        <text
           xml:space="preserve"
           style="font-size:3.68000007px;font-style:normal;font-variant:normal;font-weight:normal;font-stretch:normal;text-align:start;line-height:100%;writing-mode:lr-tb;text-anchor:start;fill:#000000;fill-opacity:1;stroke:none;stroke-width:1px;stroke-linecap:butt;stroke-linejoin:miter;stroke-opacity:1;font-family:Segoe"
           x="222.72771"
           y="288.58264"
           id="text2462"
           sodipodi:linespacing="100%"><tspan
             sodipodi:role="line"
             id="tspan2464"
             x="222.72771"
             y="288.58264">#babdb6</tspan></text>
        <text
           sodipodi:linespacing="100%"
           id="text2466"
           y="317.58264"
           x="222.72771"
           style="font-size:3.68000007px;font-style:normal;font-variant:normal;font-weight:normal;font-stretch:normal;text-align:start;line-height:100%;writing-mode:lr-tb;text-anchor:start;fill:#ffffff;fill-opacity:1;stroke:none;stroke-width:1px;stroke-linecap:butt;stroke-linejoin:miter;stroke-opacity:1;font-family:Segoe"
           xml:space="preserve"><tspan
             y="317.58264"
             x="222.72771"
             id="tspan2468"
             sodipodi:role="line">#2e3436</tspan></text>
      </g>
    </g>
    <path
       sodipodi:nodetypes="cccc"
       id="path3846"
       d="M 283.24396,345.0948 C 289.46537,352.28772 296.94373,376.2372 317.34946,386.97111 C 317.97121,387.63231 316.84607,387.63893 315.84936,387.33561 C 299.83293,378.37033 292.1404,359.25929 283.24396,345.0948 z"
       style="fill:none;fill-opacity:1;fill-rule:evenodd;stroke:url(#linearGradient3864);stroke-width:1.15;stroke-linecap:round;stroke-linejoin:round;stroke-miterlimit:8;stroke-dasharray:none;stroke-opacity:1" />
  </g>
</svg>
