<?xml version="1.0" encoding="UTF-8" standalone="no"?>
<!-- Created with Inkscape (http://www.inkscape.org/) -->
<svg
   xmlns:dc="http://purl.org/dc/elements/1.1/"
   xmlns:cc="http://creativecommons.org/ns#"
   xmlns:rdf="http://www.w3.org/1999/02/22-rdf-syntax-ns#"
   xmlns:svg="http://www.w3.org/2000/svg"
   xmlns="http://www.w3.org/2000/svg"
   xmlns:xlink="http://www.w3.org/1999/xlink"
   xmlns:sodipodi="http://sodipodi.sourceforge.net/DTD/sodipodi-0.dtd"
   xmlns:inkscape="http://www.inkscape.org/namespaces/inkscape"
   width="48"
   height="48"
   id="svg2"
   sodipodi:version="0.32"
   inkscape:version="0.46"
   version="1.0"
   sodipodi:docname="gibson-sg.svg"
   inkscape:output_extension="org.inkscape.output.svg.inkscape">
  <defs
     id="defs4">
    <linearGradient
       inkscape:collect="always"
       id="linearGradient6892">
      <stop
         style="stop-color:#eeeeec;stop-opacity:1;"
         offset="0"
         id="stop6894" />
      <stop
         style="stop-color:#eeeeec;stop-opacity:0;"
         offset="1"
         id="stop6896" />
    </linearGradient>
    <linearGradient
       inkscape:collect="always"
       id="linearGradient6876">
      <stop
         style="stop-color:#eeeeec;stop-opacity:1;"
         offset="0"
         id="stop6878" />
      <stop
         style="stop-color:#eeeeec;stop-opacity:0;"
         offset="1"
         id="stop6880" />
    </linearGradient>
    <linearGradient
       id="linearGradient6827">
      <stop
         style="stop-color:#a97e39;stop-opacity:1;"
         offset="0"
         id="stop6829" />
      <stop
         style="stop-color:#d7b98a;stop-opacity:1;"
         offset="1"
         id="stop6831" />
    </linearGradient>
    <linearGradient
       id="linearGradient6563">
      <stop
         style="stop-color:#8b682e;stop-opacity:1;"
         offset="0"
         id="stop6566" />
      <stop
         style="stop-color:#3c2d14;stop-opacity:1;"
         offset="1"
         id="stop6568" />
    </linearGradient>
    <linearGradient
       inkscape:collect="always"
       id="linearGradient6681">
      <stop
         style="stop-color:#eeeeec;stop-opacity:1;"
         offset="0"
         id="stop6683" />
      <stop
         style="stop-color:#eeeeec;stop-opacity:0;"
         offset="1"
         id="stop6685" />
    </linearGradient>
    <linearGradient
       inkscape:collect="always"
       id="linearGradient6382">
      <stop
         style="stop-color:#2d3136;stop-opacity:1;"
         offset="0"
         id="stop6384" />
      <stop
         style="stop-color:#2d3136;stop-opacity:0;"
         offset="1"
         id="stop6386" />
    </linearGradient>
    <linearGradient
       id="linearGradient6346">
      <stop
         style="stop-color:#ce5c00;stop-opacity:1;"
         offset="0"
         id="stop6348" />
      <stop
         id="stop6364"
         offset="0.75154936"
         style="stop-color:#ce5c00;stop-opacity:1;" />
      <stop
         id="stop6354"
         offset="0.8653692"
         style="stop-color:#cc0000;stop-opacity:1;" />
      <stop
         style="stop-color:#2e3436;stop-opacity:1;"
         offset="1"
         id="stop6350" />
    </linearGradient>
    <linearGradient
       id="linearGradient6326">
      <stop
         style="stop-color:#f57900;stop-opacity:1;"
         offset="0"
         id="stop6328" />
      <stop
         style="stop-color:#2e3436;stop-opacity:1;"
         offset="1"
         id="stop6330" />
    </linearGradient>
    <linearGradient
       id="linearGradient6318">
      <stop
         style="stop-color:#f4d4a2;stop-opacity:1;"
         offset="0"
         id="stop6320" />
      <stop
         style="stop-color:#8f5902;stop-opacity:1;"
         offset="1"
         id="stop6322" />
    </linearGradient>
    <inkscape:perspective
       sodipodi:type="inkscape:persp3d"
       inkscape:vp_x="0 : 526.18109 : 1"
       inkscape:vp_y="0 : 1000 : 0"
       inkscape:vp_z="744.09448 : 526.18109 : 1"
       inkscape:persp3d-origin="372.04724 : 350.78739 : 1"
       id="perspective10" />
    <linearGradient
       inkscape:collect="always"
       xlink:href="#linearGradient6382"
       id="linearGradient6631"
       gradientUnits="userSpaceOnUse"
       x1="8.5941105"
       y1="7.8975673"
       x2="7.40589"
       y2="4.5510449" />
    <linearGradient
       inkscape:collect="always"
       xlink:href="#linearGradient6318"
       id="linearGradient5747"
       gradientUnits="userSpaceOnUse"
       gradientTransform="translate(-0.2458387,-1.1062745)"
       x1="29.197683"
       y1="14.162621"
       x2="36.300751"
       y2="21.967999" />
    <linearGradient
       inkscape:collect="always"
       xlink:href="#linearGradient6681"
       id="linearGradient5749"
       gradientUnits="userSpaceOnUse"
       x1="26.081305"
       y1="14.873239"
       x2="33.258003"
       y2="22.125481" />
    <linearGradient
       inkscape:collect="always"
       xlink:href="#linearGradient6563"
       id="linearGradient6570"
       x1="7.9641577"
       y1="12.60293"
       x2="13.687865"
       y2="12.60293"
       gradientUnits="userSpaceOnUse" />
    <linearGradient
       inkscape:collect="always"
       xlink:href="#linearGradient6563"
       id="linearGradient6667"
       gradientUnits="userSpaceOnUse"
       x1="7.9641577"
       y1="12.60293"
       x2="13.687865"
       y2="12.60293" />
    <linearGradient
       inkscape:collect="always"
       xlink:href="#linearGradient6382"
       id="linearGradient6671"
       gradientUnits="userSpaceOnUse"
       x1="8.5941105"
       y1="7.8975673"
       x2="7.40589"
       y2="4.5510449" />
    <linearGradient
       inkscape:collect="always"
       xlink:href="#linearGradient6382"
       id="linearGradient6675"
       gradientUnits="userSpaceOnUse"
       x1="8.5941105"
       y1="7.8975673"
       x2="7.40589"
       y2="4.5510449" />
    <linearGradient
       inkscape:collect="always"
       xlink:href="#linearGradient6382"
       id="linearGradient6679"
       gradientUnits="userSpaceOnUse"
       x1="8.5941105"
       y1="7.8975673"
       x2="7.40589"
       y2="4.5510449" />
    <linearGradient
       inkscape:collect="always"
       xlink:href="#linearGradient6382"
       id="linearGradient6708"
       gradientUnits="userSpaceOnUse"
       x1="8.5941105"
       y1="7.8975673"
       x2="7.40589"
       y2="4.5510449" />
    <linearGradient
       inkscape:collect="always"
       xlink:href="#linearGradient6563"
       id="linearGradient6710"
       gradientUnits="userSpaceOnUse"
       x1="7.9641577"
       y1="12.60293"
       x2="13.687865"
       y2="12.60293" />
    <linearGradient
       inkscape:collect="always"
       xlink:href="#linearGradient6382"
       id="linearGradient6712"
       gradientUnits="userSpaceOnUse"
       x1="8.5941105"
       y1="7.8975673"
       x2="7.40589"
       y2="4.5510449" />
    <linearGradient
       inkscape:collect="always"
       xlink:href="#linearGradient6382"
       id="linearGradient6714"
       gradientUnits="userSpaceOnUse"
       x1="8.5941105"
       y1="7.8975673"
       x2="7.40589"
       y2="4.5510449" />
    <linearGradient
       inkscape:collect="always"
       xlink:href="#linearGradient6382"
       id="linearGradient6716"
       gradientUnits="userSpaceOnUse"
       x1="8.5941105"
       y1="7.8975673"
       x2="7.40589"
       y2="4.5510449" />
    <linearGradient
       inkscape:collect="always"
       xlink:href="#linearGradient6563"
       id="linearGradient6743"
       gradientUnits="userSpaceOnUse"
       x1="7.9641577"
       y1="12.60293"
       x2="13.687865"
       y2="12.60293" />
    <linearGradient
       inkscape:collect="always"
       xlink:href="#linearGradient6563"
       id="linearGradient6755"
       gradientUnits="userSpaceOnUse"
       x1="7.9641577"
       y1="12.60293"
       x2="13.687865"
       y2="12.60293"
       gradientTransform="matrix(0.9894905,0.9072765,-0.9080862,0.9886081,32.702054,-7.7939304)" />
    <linearGradient
       inkscape:collect="always"
       xlink:href="#linearGradient6382"
       id="linearGradient6791"
       gradientUnits="userSpaceOnUse"
       x1="8.209219"
       y1="7.5415339"
       x2="6.164566"
       y2="6.0067801" />
    <linearGradient
       inkscape:collect="always"
       xlink:href="#linearGradient6563"
       id="linearGradient6793"
       gradientUnits="userSpaceOnUse"
       gradientTransform="matrix(0.9894905,0.9072765,-0.9080862,0.9886081,32.702054,-7.7939304)"
       x1="7.9641577"
       y1="12.60293"
       x2="13.687865"
       y2="12.60293" />
    <linearGradient
       inkscape:collect="always"
       xlink:href="#linearGradient6382"
       id="linearGradient6795"
       gradientUnits="userSpaceOnUse"
       x1="8.209219"
       y1="7.5415339"
       x2="6.164566"
       y2="6.0067801" />
    <linearGradient
       inkscape:collect="always"
       xlink:href="#linearGradient6382"
       id="linearGradient6797"
       gradientUnits="userSpaceOnUse"
       x1="8.209219"
       y1="7.5415339"
       x2="6.164566"
       y2="6.0067801" />
    <linearGradient
       inkscape:collect="always"
       xlink:href="#linearGradient6382"
       id="linearGradient6799"
       gradientUnits="userSpaceOnUse"
       x1="8.209219"
       y1="7.5415339"
       x2="6.0990105"
       y2="6.0752406" />
    <linearGradient
       inkscape:collect="always"
       xlink:href="#linearGradient6827"
       id="linearGradient6833"
       x1="33.26376"
       y1="19.246046"
       x2="28.757147"
       y2="14.452192"
       gradientUnits="userSpaceOnUse" />
    <linearGradient
       inkscape:collect="always"
       xlink:href="#linearGradient6876"
       id="linearGradient6882"
       x1="8.1967001"
       y1="32.663403"
       x2="14.94611"
       y2="55.769917"
       gradientUnits="userSpaceOnUse" />
    <linearGradient
       inkscape:collect="always"
       xlink:href="#linearGradient6892"
       id="linearGradient6898"
       x1="3.9026887"
       y1="12.690905"
       x2="2.9807937"
       y2="7.6977987"
       gradientUnits="userSpaceOnUse" />
    <linearGradient
       inkscape:collect="always"
       xlink:href="#linearGradient6892"
       id="linearGradient6902"
       gradientUnits="userSpaceOnUse"
       x1="3.9026887"
       y1="12.690905"
       x2="2.9807937"
       y2="7.6977987" />
    <linearGradient
       inkscape:collect="always"
       xlink:href="#linearGradient6892"
       id="linearGradient6906"
       gradientUnits="userSpaceOnUse"
       x1="3.9026887"
       y1="12.690905"
       x2="2.9807937"
       y2="7.6977987" />
    <linearGradient
       inkscape:collect="always"
       xlink:href="#linearGradient6892"
       id="linearGradient6910"
       gradientUnits="userSpaceOnUse"
       x1="3.9026887"
       y1="12.690905"
       x2="2.9807937"
       y2="7.6977987" />
    <linearGradient
       inkscape:collect="always"
       xlink:href="#linearGradient6892"
       id="linearGradient6914"
       gradientUnits="userSpaceOnUse"
       x1="3.9026887"
       y1="12.690905"
       x2="2.9807937"
       y2="7.6977987" />
    <linearGradient
       inkscape:collect="always"
       xlink:href="#linearGradient6892"
       id="linearGradient6918"
       gradientUnits="userSpaceOnUse"
       x1="3.9026887"
       y1="12.690905"
       x2="2.9807937"
       y2="7.6977987" />
    <linearGradient
       inkscape:collect="always"
       xlink:href="#linearGradient6892"
       id="linearGradient6922"
       gradientUnits="userSpaceOnUse"
       x1="3.9026887"
       y1="12.690905"
       x2="2.9807937"
       y2="7.6977987" />
    <linearGradient
       inkscape:collect="always"
       xlink:href="#linearGradient6892"
       id="linearGradient6926"
       gradientUnits="userSpaceOnUse"
       x1="3.9026887"
       y1="12.690905"
       x2="2.9807937"
       y2="7.6977987" />
    <linearGradient
       inkscape:collect="always"
       xlink:href="#linearGradient6827"
       id="linearGradient6949"
       gradientUnits="userSpaceOnUse"
       x1="33.26376"
       y1="19.246046"
       x2="28.757147"
       y2="14.452192" />
    <linearGradient
       inkscape:collect="always"
       xlink:href="#linearGradient6827"
       id="linearGradient6968"
       gradientUnits="userSpaceOnUse"
       x1="33.26376"
       y1="19.246046"
       x2="28.757147"
       y2="14.452192"
       gradientTransform="matrix(0.9987533,4.9919367e-2,-4.9919367e-2,0.9987533,1.4149431,-0.9929488)" />
  </defs>
  <sodipodi:namedview
     id="base"
     pagecolor="#ffffff"
     bordercolor="#666666"
     borderopacity="1.0"
     gridtolerance="10000"
     guidetolerance="10"
     objecttolerance="10"
     inkscape:pageopacity="0.0"
     inkscape:pageshadow="2"
     inkscape:zoom="1"
     inkscape:cx="37.593028"
     inkscape:cy="40.3559"
     inkscape:document-units="px"
     inkscape:current-layer="layer1"
     showgrid="false"
     inkscape:showpageshadow="false"
     inkscape:window-width="1022"
     inkscape:window-height="965"
     inkscape:window-x="1280"
     inkscape:window-y="24"
     showguides="true"
     inkscape:guide-bbox="true" />
  <metadata
     id="metadata7">
    <rdf:RDF>
      <cc:Work
         rdf:about="">
        <dc:format>image/svg+xml</dc:format>
        <dc:type
           rdf:resource="http://purl.org/dc/dcmitype/StillImage" />
      </cc:Work>
    </rdf:RDF>
  </metadata>
  <g
     inkscape:label="Layer 1"
     inkscape:groupmode="layer"
     id="layer1">
    <g
       id="g5858">
      <path
         sodipodi:nodetypes="cccsssssscc"
         id="path6250"
         d="M 22.774775,27.199075 L 20.287813,24.927553 C 17.216778,25.89328 16.455437,21.780659 17.81658,19.170774 C 12.325426,19.40634 11.499427,25.373878 9.9153856,27.099919 C 8.045361,29.13758 5.0923987,28.60818 2.6491309,31.270472 C -0.32456027,34.510736 0.17440362,37.781464 1.819231,39.874482 C 4.1892497,42.890294 6.7037609,44.876106 9.3813933,46.797127 C 11.055648,47.998292 14.778366,47.841443 17.485491,44.891642 C 20.181218,41.954259 19.393302,39.636264 21.285818,37.574096 C 22.869382,35.848575 28.723701,34.371035 28.322745,28.810764 C 25.787629,30.423103 22.197009,30.465715 22.774775,27.199075 z"
         style="fill:#a40000;fill-opacity:1;fill-rule:evenodd;stroke:#2d3136;stroke-width:1px;stroke-linecap:butt;stroke-linejoin:round;stroke-opacity:1" />
      <path
         transform="matrix(0.6200562,0.5690449,-0.5000698,0.5448979,12.011331,34.548603)"
         d="M 8.2970552,6.5454545 A 0.8911652,1.0140845 0 1 1 6.5147248,6.5454545 A 0.8911652,1.0140845 0 1 1 8.2970552,6.5454545 z"
         sodipodi:ry="1.0140845"
         sodipodi:rx="0.8911652"
         sodipodi:cy="6.5454545"
         sodipodi:cx="7.40589"
         id="path6380"
         style="opacity:1;fill:#eeeeec;fill-opacity:1;fill-rule:evenodd;stroke:url(#linearGradient6791);stroke-width:0.63376021000000005;stroke-linecap:round;stroke-linejoin:round;stroke-miterlimit:4;stroke-dasharray:none;stroke-dashoffset:0;stroke-opacity:1"
         sodipodi:type="arc" />
      <path
         sodipodi:nodetypes="cccccccccsscsc"
         id="path5781"
         d="M 8.1507848,31.856576 C 11.641036,30.866832 14.047639,27.050861 15.165139,24.211512 C 16.111814,25.142709 17.52091,25.752091 18.289411,25.198829 C 18.81763,25.30561 19.378316,25.263705 19.941456,25.248532 L 22.426336,27.564093 L 22.396493,28.098546 C 22.393358,28.932128 22.107333,30.906889 22.844706,31.425798 C 23.839422,32.103645 24.576636,31.948974 25.97145,31.450876 C 25.763018,32.164815 25.33563,32.677812 24.765318,33.059644 C 23.878993,33.885167 22.717495,34.358746 21.689112,35.002072 C 20.59813,35.68456 19.712694,36.46356 19.285449,36.930364 C 18.531704,37.7539 18.334812,38.206421 17.566149,40.561169 C 14.589175,39.666939 15.597878,36.830583 13.672951,35.064017 C 11.081634,32.685884 9.7390285,35.160172 8.1507848,31.856576 z"
         style="fill:#2e3436;fill-opacity:1;fill-rule:evenodd;stroke:none;stroke-width:1;stroke-linecap:round;stroke-linejoin:round;stroke-miterlimit:4;stroke-dasharray:none;stroke-dashoffset:0;stroke-opacity:1" />
      <path
         sodipodi:nodetypes="csccc"
         id="path6553"
         d="M 16.555918,20.180862 C 14.330836,20.0257 12.06798,25.70739 10.140814,27.807314 C 8.1938085,29.928857 2.9080694,29.880047 1.4077612,35.141716 C 5.5973516,30.053977 8.7430778,31.420967 11.22384,28.71782 C 13.286907,26.469811 13.73335,22.998582 16.555918,20.180862 z"
         style="opacity:0.5;fill:#eeeeec;fill-opacity:1;fill-rule:evenodd;stroke:none;stroke-width:1px;stroke-linecap:butt;stroke-linejoin:miter;stroke-opacity:1" />
      <path
         sodipodi:nodetypes="ccccccccc"
         id="path6555"
         d="M 22.366427,27.715627 L 19.966205,25.422911 L 35.875881,9.7340902 L 36.154915,8.2212245 L 42.903492,2.3598006 L 45.496569,4.9874549 L 39.611721,11.762014 L 38.172792,11.922118 L 22.366427,27.715627 z"
         style="fill:url(#linearGradient6968);fill-opacity:1;fill-rule:evenodd;stroke:#725423;stroke-width:1;stroke-linecap:butt;stroke-linejoin:round;stroke-miterlimit:4;stroke-dasharray:none;stroke-opacity:1" />
      <path
         d="M 20.535155,25.329332 C 20.784683,25.124703 21.010955,24.892807 21.241332,24.666983 C 21.29731,24.611028 21.350099,24.551689 21.409267,24.499119 C 21.500265,24.418265 21.597312,24.344489 21.691323,24.26716 C 22.069447,23.956137 22.441886,23.651308 22.840163,23.365999 C 23.026366,23.214248 23.228189,23.083247 23.419833,22.938876 C 23.459487,22.909005 23.599833,22.818256 23.615973,22.75535 C 23.864263,22.654158 24.101173,22.518548 24.360844,22.451775 C 24.414119,22.438075 24.306119,22.548704 24.267449,22.587823 C 24.207827,22.648139 24.133454,22.691927 24.068983,22.747029 C 23.820364,22.959521 23.585579,23.188517 23.352614,23.41772 C 23.101677,23.65438 22.861513,23.902815 22.650315,24.176 C 22.623112,24.211186 22.420598,24.492299 22.390579,24.55035 C 22.376762,24.577068 22.376886,24.608931 22.370039,24.638221 C 22.584149,24.835592 22.501519,24.745327 21.656399,24.927389 C 21.591303,24.941412 21.751859,24.83447 21.80146,24.790041 C 21.869591,24.729015 21.941953,24.672788 22.009499,24.611114 C 22.188217,24.447934 22.344295,24.283764 22.51448,24.110581 C 23.002632,23.599494 23.457024,23.057419 23.926063,22.52889 C 23.97292,22.476627 24.020795,22.425259 24.066634,22.372101 C 24.097057,22.33682 24.128844,22.302343 24.154786,22.263649 C 24.165059,22.248326 24.158119,22.220982 24.174112,22.211789 C 24.396088,22.0842 24.61051,21.929515 24.85694,21.86006 C 24.91047,21.844972 24.863268,21.977493 24.835151,22.025478 C 24.788129,22.105732 24.706393,22.159746 24.642013,22.22688 C 23.97294,22.856591 23.409937,23.586442 22.81553,24.284736 C 22.525469,24.604135 22.333325,24.991083 22.095209,25.346607 C 22.083851,25.369235 22.067886,25.390089 22.061133,25.414491 C 22.051102,25.450746 22.080349,25.442737 22.098597,25.443645 C 21.83045,25.53647 21.567807,25.647049 21.294159,25.722119 C 21.24612,25.735298 21.374743,25.663429 21.413137,25.631689 C 21.462086,25.591223 21.508389,25.547659 21.556016,25.505644 C 21.62016,25.451745 21.682102,25.395113 21.748445,25.343946 C 21.870037,25.250167 22.000008,25.16739 22.119551,25.071013 C 22.430704,24.820157 22.510324,24.720706 22.787596,24.447045 C 23.036063,24.201813 23.156629,24.087998 23.406796,23.84826 C 23.759738,23.51254 24.126883,23.187851 24.455995,22.827906 C 24.532759,22.549821 24.497183,22.646912 25.190369,22.489636 C 25.246181,22.476973 25.157717,22.602182 25.122645,22.647408 C 25.064691,22.722142 24.984916,22.777052 24.916697,22.842552 C 24.665429,23.083806 24.603884,23.14709 24.345546,23.403276 C 24.23654,23.515335 24.124803,23.624799 24.018527,23.73945 C 23.831698,23.941 23.601271,24.218528 23.424623,24.428207 C 23.163906,24.737672 22.907428,25.045616 22.667747,25.371659 C 22.583261,25.492392 22.452697,25.668777 22.381086,25.804972 C 22.376622,25.81346 22.309321,25.956568 22.327376,25.998278 C 22.333239,26.011823 22.383189,26.007618 22.369285,26.01257 C 22.154363,26.089107 21.933632,26.148235 21.715806,26.216066 C 22.174584,25.801522 22.62836,25.381257 23.080352,24.959155 C 23.194849,24.843719 23.309333,24.728269 23.423845,24.612849 C 23.778777,24.255096 23.774517,24.25377 24.133636,23.913958 C 24.386079,23.675085 24.64344,23.447748 24.875116,23.188531 C 25.14907,22.869446 24.921639,22.927464 25.652678,22.66379 C 25.68803,22.651038 25.733575,22.720066 25.719224,22.754799 C 25.687831,22.830781 25.603116,22.871245 25.543553,22.927909 C 25.467649,23.000118 25.389767,23.07022 25.312874,23.141375 C 24.875499,23.522004 24.509945,23.97164 24.140058,24.415143 C 23.735701,24.899977 24.00718,24.56028 23.66023,25.002908 C 23.535211,25.193356 23.414563,25.386582 23.290996,25.577819 C 23.239879,25.65693 23.156545,25.736156 23.156337,25.836175 C 23.433944,25.822749 23.7895,25.801611 22.443502,26.087638 C 22.375343,26.102122 22.55371,26.00234 22.608791,25.959659 C 22.863242,25.762493 23.107876,25.555693 23.353198,25.347286 C 23.86637,24.90937 24.34034,24.418394 24.732143,23.868194 C 24.748184,23.84382 24.874677,23.685895 24.863358,23.614565 C 24.844834,23.497815 24.68448,23.729773 24.784014,23.701402 C 24.992152,23.642075 25.161317,23.470982 25.373812,23.429902 C 25.480563,23.409264 25.205385,23.567449 25.121171,23.636223 C 24.449168,24.229836 23.895981,24.939738 23.321386,25.624335 C 23.178962,25.825442 22.997422,26.023073 22.921952,26.264691 C 22.912922,26.293601 22.895539,26.330488 22.913151,26.355128 C 22.927904,26.375767 22.974258,26.379255 22.989173,26.358733 C 23.011437,26.3281 22.991758,26.283039 22.99305,26.245192 C 22.806042,26.339069 22.627661,26.452582 22.432024,26.526821 C 22.345169,26.55978 22.58786,26.425474 22.662766,26.370527 C 22.758363,26.300401 22.853182,26.22891 22.94325,26.151811 C 23.26486,25.876507 23.552638,25.565616 23.834193,25.250794 C 24.393793,24.621536 24.900431,23.946279 25.481033,23.335934 C 25.651879,23.150974 25.84987,22.99461 26.045867,22.83772 C 26.081137,22.809488 26.113574,22.776775 26.152972,22.754662 C 26.349708,22.644241 26.545875,22.531073 26.752715,22.440988 C 26.790759,22.424418 26.835697,22.439826 26.877188,22.439245 C 26.867943,22.488846 26.875151,22.544626 26.849453,22.588045 C 26.807706,22.65858 26.47109,22.962312 26.444779,22.987897 C 26.176572,23.248694 25.94158,23.528023 25.704754,23.816871 C 25.531078,24.032564 25.358413,24.250847 25.198035,24.476785 C 25.175537,24.508478 25.157437,24.543082 25.136412,24.575771 C 25.128545,24.588002 25.124614,24.605463 25.111388,24.611507 C 24.880257,24.717124 24.643197,24.80925 24.409101,24.908121 C 24.409076,24.861257 24.390986,24.810782 24.409023,24.767526 C 24.432703,24.710735 24.712772,24.362389 24.734417,24.336103 C 25.065472,23.934046 24.849486,24.207774 25.272183,23.760191 C 25.377736,23.648423 25.477293,23.531141 25.579847,23.416617 C 26.155027,22.732992 26.705998,22.02865 27.303847,21.364289 C 27.590307,21.045961 27.741099,20.896213 28.030861,20.598447 C 28.121787,20.509173 28.217538,20.424563 28.303637,20.330626 C 28.347969,20.282258 28.385384,20.227721 28.421099,20.172683 C 28.439084,20.144967 28.462366,20.116363 28.464084,20.083369 C 28.464757,20.070436 28.414026,20.079208 28.426195,20.074778 C 29.297267,19.757693 29.308791,19.687056 28.893023,20.06109 C 28.36746,20.49798 27.942692,21.035181 27.47313,21.527621 C 27.241308,21.770739 26.88624,22.119022 26.646636,22.356291 C 26.32387,22.696464 25.9568,22.993617 25.634631,23.334267 C 25.543574,23.430546 25.436583,23.556874 25.382622,23.683078 C 25.161443,23.798048 24.961057,23.968089 24.719086,24.027985 C 24.650885,24.044868 24.745896,23.883979 24.79046,23.829662 C 24.857734,23.747663 24.95847,23.700154 25.041842,23.634589 C 25.339814,23.400256 25.63253,23.159356 25.926093,22.919558 C 26.041835,22.823157 26.162184,22.732034 26.273316,22.630355 C 26.469135,22.451193 26.807733,22.089096 26.987391,21.898392 C 27.319713,21.545639 27.650742,21.192781 27.972151,20.83007 C 28.182669,20.610926 28.368563,20.372128 28.527239,20.113381 C 28.569245,20.044885 28.637859,19.948197 28.644787,19.858942 C 28.64617,19.841123 28.632734,19.825288 28.626708,19.808461 C 28.324299,19.982635 28.809618,19.6988 29.222256,19.584799 C 29.322196,19.557188 29.041236,19.685999 28.951926,19.738669 C 28.814025,19.819997 28.675149,19.899886 28.540676,19.986765 C 28.187839,20.214722 28.042526,20.335478 27.706196,20.591075 C 26.876863,21.209387 26.051904,21.836443 25.262759,22.505766 C 25.225531,22.553802 25.183626,22.598553 25.151077,22.649873 C 24.955613,22.958062 25.949153,22.58418 24.51176,23.065833 C 24.470763,23.079571 24.447711,22.97622 24.473854,22.941782 C 24.541908,22.852139 24.659888,22.815027 24.751643,22.749848 C 24.858304,22.674081 24.963254,22.595932 25.06906,22.518975 C 25.209563,22.416959 25.356564,22.32334 25.490568,22.212925 C 25.609325,22.115073 25.713624,22.000887 25.825743,21.895492 C 25.947011,21.781496 26.067622,21.666774 26.190722,21.55476 C 26.562367,21.216584 26.939518,20.884433 27.310705,20.545662 C 27.575774,20.301275 27.848622,20.067407 28.089906,19.798979 C 28.175675,19.703561 28.287235,19.607015 28.296279,19.471209 C 28.524379,19.351829 28.733511,19.185448 28.980579,19.113067 C 29.0323,19.097915 28.99534,19.227599 28.968431,19.274295 C 28.924544,19.35045 28.845636,19.400217 28.780861,19.45963 C 28.67085,19.560534 28.552089,19.651791 28.444285,19.755049 C 28.139678,20.046811 28.079999,20.13912 27.814996,20.462304 C 27.25675,21.153161 26.678858,21.827387 26.107244,22.507016 C 25.857297,22.841704 25.553444,23.139942 25.337308,23.499667 C 25.114073,23.615643 24.905794,23.766667 24.667604,23.847595 C 24.6313,23.859929 24.60855,23.782166 24.61634,23.744623 C 24.623205,23.711535 24.85807,23.406586 24.861473,23.402354 C 25.364838,22.776622 24.767481,23.551174 25.262728,22.901793 C 25.440514,22.683867 25.640282,22.485132 25.821796,22.270516 C 26.022932,22.032697 26.210671,21.783776 26.411241,21.54548 C 26.602266,21.318527 26.797138,21.094837 26.988851,20.868463 C 27.150052,20.66407 27.215615,20.621145 27.299389,20.40166 C 27.313516,20.364648 27.335108,20.323221 27.323618,20.285307 C 27.316991,20.263436 27.236951,20.274039 27.258053,20.265262 C 27.497529,20.165657 27.735163,20.042478 27.992125,20.007254 C 28.098861,19.992623 27.819254,20.135873 27.732819,20.200183 C 27.570177,20.326004 27.400308,20.443 27.244891,20.577646 C 27.118406,20.687227 27.007672,20.813771 26.888711,20.931479 C 26.762709,21.056153 26.638037,21.182206 26.510003,21.304792 C 26.155118,21.644576 25.779017,21.955634 25.402681,22.270871 C 25.176481,22.463129 25.192879,22.435131 25.033581,22.606299 C 25.014163,22.627164 25.002405,22.656764 24.97775,22.671065 C 24.77674,22.787663 24.576437,22.908872 24.361151,22.996349 C 24.175077,23.071957 24.277241,22.870383 24.285704,22.8403 C 24.64557,22.461126 25.023839,22.099634 25.355391,21.694539 C 25.449873,21.579099 25.538722,21.459164 25.630389,21.341477 C 25.734024,21.21628 25.837659,21.091081 25.941294,20.965883 C 26.184681,20.644311 26.47607,20.361868 26.706552,20.030191 C 26.73495,19.989323 26.861383,19.784743 26.884401,19.71193 C 26.89074,19.691883 26.883004,19.669903 26.882306,19.648889 C 27.039289,19.618258 27.228664,19.456702 27.353256,19.556997 C 27.449955,19.634838 27.165855,19.719866 27.073443,19.802752 C 26.952711,19.911038 26.830927,20.018263 26.713848,20.130488 C 26.413575,20.418312 26.389101,20.476394 26.088657,20.758162 C 25.980185,20.859891 25.865872,20.955208 25.75448,21.05373 C 25.500448,21.254638 25.259596,21.470947 25.019996,21.688529 C 24.936826,21.764056 24.835434,21.836793 24.78284,21.939391 C 24.554108,22.060244 24.332271,22.195159 24.096645,22.30195 C 23.94699,22.369778 24.051991,22.164857 24.054898,22.160806 C 24.095823,22.103755 24.159388,22.06693 24.209554,22.017806 C 24.879332,21.361929 23.749119,22.443501 24.577179,21.655023 C 24.99196,21.29755 25.370397,20.90126 25.778093,20.536121 C 25.969772,20.364452 26.165097,20.196897 26.358486,20.027156 C 26.405258,19.976163 26.456448,19.928895 26.498801,19.874177 C 26.722621,19.585013 25.466928,19.933083 27.148617,19.491483 C 27.198423,19.478405 27.175748,19.600407 27.151693,19.645938 C 27.109954,19.724935 27.029088,19.775998 26.965262,19.838519 C 26.878485,19.923522 26.788421,20.005102 26.700001,20.088393 C 26.444838,20.327595 26.330142,20.415818 26.121186,20.674977 C 26.073004,20.734736 25.985737,20.788055 25.990601,20.864664 C 25.993607,20.912018 26.177004,20.837784 26.13258,20.854452 C 25.218796,21.197317 25.380838,21.130932 25.796345,20.822164 C 25.912905,20.729879 26.030781,20.639231 26.146025,20.545307 C 26.765868,20.040135 26.327952,20.386609 26.934596,19.869149 C 27.369036,19.498579 27.817528,19.144287 28.265831,18.790818 C 28.437794,18.655368 28.609964,18.520181 28.78172,18.384469 C 29.373978,17.916499 29.178869,18.062323 29.758737,17.626395 C 30.095988,17.372859 30.438579,17.128976 30.764292,16.860751 C 30.810307,16.817357 30.858941,16.776584 30.902335,16.730571 C 31.211024,16.403248 30.112316,16.752927 31.668409,16.27498 C 31.712099,16.26156 31.681458,16.371098 31.660832,16.411884 C 31.633992,16.464958 31.577035,16.496307 31.535135,16.538519 C 31.472581,16.595805 31.412412,16.655811 31.347469,16.710375 C 31.028317,16.978524 30.691829,17.227101 30.366633,17.48773 C 29.193898,18.427619 30.868625,17.107046 29.605168,18.099582 C 29.463427,18.206093 29.322532,18.313738 29.179947,18.419115 C 28.727815,18.753266 28.236471,19.050456 27.809001,19.413164 C 27.621653,19.513744 27.438929,19.62346 27.246955,19.714903 C 27.160593,19.756039 27.021961,19.796406 27.0983,19.61575 C 27.124652,19.553391 27.183221,19.510194 27.228685,19.460033 C 27.407325,19.26294 27.485259,19.2011 27.694568,19.007718 C 28.296225,18.422486 28.847215,17.788444 29.390038,17.149141 C 29.56438,16.926212 29.617152,16.868298 29.765346,16.647138 C 29.803955,16.58952 29.852469,16.536124 29.875812,16.470813 C 29.885272,16.444345 29.880695,16.404758 29.857813,16.38843 C 29.833372,16.370989 29.739908,16.404684 29.767895,16.393806 C 29.998007,16.304373 30.234458,16.23219 30.467739,16.151382 C 29.935598,16.465267 29.536413,16.936671 29.140836,17.400527 C 28.809521,17.789031 28.838566,17.758585 28.527595,18.146078 C 28.329757,18.411536 28.279733,18.423779 28.189715,18.702745 C 28.171959,18.757772 28.155179,18.815184 28.156473,18.87299 C 28.157548,18.920982 28.207961,19.017733 28.280809,18.961729 C 28.301779,18.945607 28.290238,18.909674 28.294952,18.883647 C 28.158576,18.953151 28.038349,19.079299 27.885825,19.092158 C 27.763432,19.102477 28.094259,18.961979 28.195238,18.892054 C 28.348173,18.786152 28.759386,18.47301 28.886584,18.365936 C 29.1264,18.16406 29.351567,17.945395 29.585005,17.736175 C 29.9884,17.341668 30.444182,16.997499 30.821635,16.576494 C 30.858692,16.53516 31.001865,16.354097 31.047135,16.29717 C 31.056362,16.274517 31.072143,16.253524 31.074817,16.22921 C 31.075859,16.219732 31.062991,16.214251 31.057078,16.206771 C 31.304386,16.117394 31.540633,15.987573 31.799003,15.938641 C 31.868298,15.925518 31.705223,16.044149 31.654892,16.093554 C 31.465119,16.279833 31.266559,16.456954 31.073932,16.64028 C 30.953838,16.770845 30.830321,16.898344 30.713648,17.031974 C 30.59821,17.164192 30.05691,17.829247 29.964336,17.941208 C 29.584226,18.40092 29.19606,18.852703 28.80193,19.300386 C 28.56321,19.560249 28.32711,19.820511 28.151466,20.12771 C 28.119845,20.183016 28.048019,20.301008 28.037882,20.376677 C 28.03569,20.393043 28.047129,20.408381 28.051753,20.424234 C 28.355635,20.421389 28.508083,20.413867 27.340044,20.671735 C 27.283321,20.684258 27.431795,20.600458 27.477121,20.564127 C 27.716911,20.371924 27.945166,20.167312 28.174677,19.963049 C 28.63391,19.573502 29.05775,19.144516 29.518109,18.756406 C 29.54768,18.731475 30.237947,18.170777 30.269553,18.145093 C 30.593412,17.865729 30.944731,17.612532 31.250975,17.312774 C 31.36273,17.203386 31.499848,17.055836 31.548506,16.901889 C 30.416106,16.216072 32.32794,16.41107 32.250994,16.647882 C 32.226527,16.723182 31.844434,17.067443 31.835129,17.076536 C 31.625515,17.281383 31.421112,17.491496 31.213481,17.698352 C 30.957916,18.026017 30.64811,18.310135 30.399833,18.643761 C 30.252097,18.842286 30.133938,19.072057 30.012136,19.287299 C 29.9841,19.34414 29.919678,19.466999 29.899327,19.534012 C 29.885894,19.578247 29.881901,19.656448 29.898524,19.661525 C 29.917537,19.667334 29.96786,19.623055 29.949363,19.630341 C 29.708931,19.725054 29.471079,19.82619 29.231938,19.924113 C 29.293072,19.889136 29.356621,19.858075 29.415342,19.819182 C 29.568426,19.717788 29.755132,19.556229 29.884788,19.437784 C 30.047031,19.289568 30.349387,18.989092 30.488849,18.834364 C 30.586019,18.726555 30.674879,18.611536 30.767895,18.500122 C 31.216907,17.945097 31.705903,17.423876 32.131749,16.850468 C 32.152142,16.825072 32.310566,16.631364 32.336742,16.586998 C 32.349333,16.565655 32.362209,16.541169 32.360237,16.516468 C 32.359242,16.504011 32.317802,16.499776 32.329406,16.495137 C 33.333996,16.093395 33.277672,16.111972 32.921162,16.326394 C 32.354824,16.703727 31.825641,17.147812 31.429669,17.705074 C 31.335784,17.992537 31.386728,17.895702 30.780277,18.122374 C 30.745692,18.135301 30.698293,18.080936 30.70182,18.044182 C 30.708586,17.973658 30.769066,17.919398 30.805576,17.858682 C 30.935697,17.64229 30.986692,17.583771 31.147353,17.362091 C 31.428959,16.992114 31.665272,16.589782 31.935226,16.211923 C 32.250789,15.770223 32.605142,15.356983 32.954754,14.942438 C 33.246494,14.598477 33.579916,14.294093 33.891935,13.969561 C 34.083832,13.769971 34.270481,13.563881 34.459269,13.36121 C 34.816545,12.967991 34.939594,12.788747 35.537199,12.596255 C 35.574712,12.584172 35.572537,12.666712 35.590207,12.701941 C 35.54249,12.77798 35.501246,12.858487 35.447057,12.930057 C 35.252966,13.186402 35.019038,13.410583 34.821043,13.663924 C 34.703781,13.813962 34.602319,13.97577 34.48849,14.128428 C 34.145543,14.588358 33.995596,14.761783 33.630361,15.209131 C 33.237848,15.689676 32.825813,16.153658 32.418966,16.621976 C 32.277388,16.784944 32.084786,16.977007 31.978268,17.17755 C 31.95981,17.2123 31.958632,17.253756 31.948815,17.291858 C 31.956499,17.304119 31.984582,17.321732 31.971868,17.328642 C 31.743854,17.452577 31.518665,17.593875 31.268193,17.661803 C 31.214866,17.676266 31.288764,17.549247 31.321786,17.504946 C 31.37521,17.433273 31.452339,17.382734 31.519871,17.324162 C 31.738749,17.134326 31.86469,17.042488 32.102224,16.858086 C 32.890056,16.235209 33.608853,15.529876 34.302501,14.805129 C 34.647612,14.401304 35.020928,14.013263 35.282295,13.546655 C 35.369574,13.39084 35.411081,13.282865 35.479122,13.122966 C 35.514529,13.000151 35.591103,12.852082 35.594144,12.720206 C 35.594598,12.700515 35.567688,12.603028 35.530424,12.660886 C 35.517497,12.680957 35.53104,12.708628 35.531348,12.732499 C 35.697495,12.649685 35.851773,12.536718 36.029789,12.484057 C 36.142164,12.450815 35.830317,12.607235 35.733181,12.672793 C 35.599944,12.762716 35.46644,12.852597 35.338856,12.950376 C 34.751566,13.400474 34.204345,13.907353 33.6469,14.39294 C 32.664981,15.251059 31.717126,16.148908 30.805409,17.081246 C 30.784665,17.127258 30.758621,17.171231 30.743179,17.219282 C 30.639803,17.540934 31.775926,17.117844 30.101634,17.639534 C 30.050752,17.655389 30.080062,17.523466 30.110777,17.479912 C 30.172843,17.391902 30.278034,17.344154 30.359565,17.273793 C 30.45492,17.191502 30.547416,17.105955 30.641341,17.022035 C 30.786064,16.900843 30.934104,16.783504 31.07551,16.658456 C 31.353727,16.412424 31.618242,16.151198 31.896086,15.904745 C 32.333605,15.516656 32.781997,15.142661 33.234256,14.772013 C 33.576565,14.471666 33.940064,14.192812 34.266135,13.874025 C 34.448632,13.695605 34.606076,13.495575 34.757018,13.290723 C 34.78467,13.245157 34.812839,13.199901 34.839974,13.154025 C 34.866305,13.109508 34.936589,12.988635 34.957627,12.936967 C 34.973304,12.898466 34.99523,12.798429 34.957013,12.832872 C 34.937204,12.850725 34.938376,12.882844 34.929057,12.907829 C 35.140825,12.808661 35.345968,12.693894 35.564361,12.610322 C 35.657718,12.574598 35.390653,12.709454 35.306498,12.763395 C 35.188277,12.839171 35.073523,12.920226 34.957488,12.999309 C 34.504222,13.308235 34.069527,13.63993 33.623017,13.958514 C 33.452716,14.080267 33.282485,14.202116 33.112115,14.323772 C 32.542491,14.730524 31.946423,15.112265 31.407057,15.559672 C 31.327427,15.625724 31.253906,15.698812 31.177331,15.768383 C 31.13377,15.820703 31.086576,15.870201 31.046649,15.925345 C 31.027206,15.952198 31.003403,15.980232 31.000059,16.013217 C 30.9987,16.026622 31.048654,16.027897 31.035833,16.032043 C 30.829268,16.098844 30.624478,16.219053 30.407855,16.204731 C 30.308433,16.198157 30.555907,16.071343 30.63046,16.005239 C 30.723896,15.922391 30.818029,15.840333 30.911814,15.757881 C 31.049351,15.633874 31.193063,15.516392 31.324424,15.385861 C 31.450313,15.260768 31.563606,15.123604 31.682618,14.991949 C 32.12478,14.50281 32.552682,14.001634 32.983538,13.502581 C 33.007497,13.466863 33.21303,13.16728 33.243047,13.100395 C 33.256984,13.069338 33.280219,13.026863 33.259768,12.999649 C 33.241208,12.974953 33.138467,13.010944 33.167092,12.999326 C 33.399796,12.904871 33.633171,12.806246 33.877666,12.748844 C 33.967885,12.727662 33.717554,12.842205 33.637498,12.888884 C 33.453338,13.01621 33.257394,13.127987 33.085018,13.270861 C 32.93421,13.395859 32.809851,13.549703 32.672154,13.689012 C 32.513671,13.849347 32.356158,14.010651 32.196477,14.169795 C 31.716457,14.648195 31.229172,15.119527 30.744199,15.592897 C 30.495777,15.888122 30.130412,16.091219 29.949309,16.442132 C 29.941209,16.457826 29.8836,16.606078 29.909407,16.647921 C 29.919827,16.664814 29.947934,16.657486 29.967198,16.662269 C 30.000512,16.394127 30.00265,16.592025 29.537722,16.795474 C 29.391901,16.859284 29.822566,16.652996 29.960974,16.57439 C 30.436789,16.30416 30.873468,15.979825 31.31511,15.658554 C 32.35272,14.908566 33.250522,13.992224 34.117993,13.056571 C 34.545062,12.625833 34.948957,12.173411 35.298082,11.676982 C 35.554921,11.304905 35.501135,11.303071 36.183218,11.103967 C 36.221668,11.092743 36.227319,11.183611 36.212019,11.220627 C 36.169178,11.324274 36.084421,11.405102 36.020622,11.49734 C 35.858461,11.747209 35.662006,11.972971 35.496672,12.22051 C 35.409587,12.350893 35.336254,12.489996 35.252547,12.622574 C 35.014486,12.999623 34.753013,13.359261 34.491865,13.720345 C 34.466491,13.786022 34.434613,13.849543 34.415742,13.917375 C 34.325801,14.240668 34.986304,14.010148 33.796497,14.337623 C 33.747529,14.351101 33.751228,14.236775 33.766311,14.188278 C 33.793982,14.099301 33.86635,14.031046 33.916302,13.952386 C 33.979773,13.852438 34.043152,13.752433 34.106577,13.652457 C 34.438566,13.158062 34.670275,12.60817 34.960827,12.090607 C 35.118702,11.809382 35.220848,11.652911 35.389785,11.382929 C 35.540988,11.108391 35.724569,10.854205 35.888384,10.587461 C 35.916381,10.541872 36.060402,10.302828 36.083909,10.234247 C 36.093113,10.207394 36.085823,10.177505 36.08678,10.149135 C 35.791404,10.09258 35.739028,10.093255 36.760937,9.8757233 C 36.84572,9.8576757 36.615841,9.9711733 36.548755,10.026067 C 36.457253,10.10094 35.981829,10.548683 35.94032,10.591761 C 35.830351,10.705887 35.731266,10.830023 35.626739,10.949154 C 35.27063,11.449414 34.834853,11.894258 34.497834,12.408481 C 34.418241,12.529924 34.350177,12.678189 34.286185,12.809631 C 34.231693,12.715278 34.255317,12.990988 34.293355,12.958849 C 34.32588,12.931368 34.389505,12.831073 34.348871,12.843802 C 34.128325,12.912885 33.939579,13.062757 33.721093,13.138105 C 33.632159,13.168776 33.877114,13.03295 33.954694,12.979741 C 34.054471,12.911309 34.153671,12.84204 34.253159,12.77319 C 34.417738,12.651282 34.588502,12.537312 34.746894,12.40747 C 34.91996,12.265599 35.571177,11.651985 35.718061,11.513436 C 36.187321,11.070804 36.64064,10.616838 37.087377,10.151633 C 37.362817,9.8241258 37.710537,9.5543447 37.945782,9.1926598 C 37.969877,9.1556128 38.054764,9.0114988 38.028082,8.9371313 C 38.022463,8.9214718 37.998419,8.9220556 37.983587,8.9145177 C 38.230265,8.8218775 38.463598,8.6792545 38.723623,8.636597 C 38.799543,8.624142 38.630536,8.7593157 38.579376,8.8167775 C 38.497376,8.9088803 38.408298,8.9944491 38.324487,9.0849072 C 37.974224,9.46295 37.659625,9.8635182 37.343793,10.270446 C 36.942329,10.754205 36.560182,11.253171 36.159304,11.737405 C 36.157599,11.739463 35.635037,12.358406 35.599729,12.410102 C 35.558454,12.470536 35.536853,12.542278 35.505416,12.608365 C 35.521673,12.572719 35.444344,12.771199 35.501124,12.781355 C 35.537517,12.787864 35.643208,12.740374 35.607865,12.751225 C 35.376367,12.822297 35.153235,12.934558 34.912636,12.962025 C 34.827509,12.971743 35.051105,12.860968 35.11779,12.807173 C 35.203411,12.738102 35.285509,12.664776 35.369369,12.593578 C 35.488907,12.492513 35.610933,12.394319 35.727983,12.290383 C 35.954355,12.089372 36.168847,11.875279 36.394231,11.673158 C 36.680859,11.416114 36.977962,11.173347 37.258417,10.909503 C 37.32425,10.849154 37.390757,10.789532 37.455914,10.728453 C 37.500294,10.686851 37.54478,10.645285 37.586998,10.601491 C 37.601646,10.586297 37.607523,10.561575 37.626222,10.551789 C 37.8397,10.440061 38.044362,10.297696 38.27823,10.239721 C 38.326648,10.227718 38.308429,10.347297 38.28157,10.389331 C 38.212423,10.497546 38.099718,10.570706 38.008792,10.661394 C 37.891708,10.779142 37.770547,10.892972 37.65754,11.014639 C 37.479207,11.206637 37.134188,11.623417 36.969213,11.823573 C 36.657086,12.202262 36.34612,12.581196 36.028449,12.955279 C 35.912507,13.134352 35.779276,13.308087 35.684163,13.500409 C 35.682754,13.503258 35.626378,13.599534 35.665584,13.624472 C 35.678098,13.632432 35.695244,13.624108 35.710073,13.623926 C 35.457349,13.706589 35.216937,13.850509 34.951901,13.871912 C 34.839465,13.880993 35.131958,13.735843 35.218605,13.663616 C 35.316432,13.582071 35.409274,13.494725 35.505071,13.410806 C 35.622668,13.30779 35.74327,13.208161 35.858787,13.102817 C 36.096682,12.885873 36.326176,12.659874 36.562061,12.440744 C 37.014417,12.019117 37.503213,11.636782 37.946254,11.204879 C 38.102001,11.053049 38.182951,10.950563 38.318694,10.78996 C 38.400671,10.686913 38.455415,10.625404 38.522699,10.516937 C 38.538659,10.491208 38.560281,10.466333 38.564652,10.436372 C 38.566434,10.424155 38.526832,10.415121 38.538241,10.410405 C 39.45042,10.033335 39.453709,9.9913534 39.094355,10.302525 C 38.929234,10.431248 38.752862,10.546712 38.598993,10.688693 C 38.459701,10.817221 38.34489,10.969975 38.218222,11.110961 C 38.076198,11.269039 37.935973,11.42874 37.792917,11.585885 C 37.39639,12.021463 36.989004,12.44705 36.585975,12.876575 C 36.499671,12.967213 36.406074,13.051428 36.327061,13.148487 C 36.291644,13.191996 36.27156,13.246014 36.245004,13.295431 C 36.230558,13.322312 36.216914,13.349636 36.204086,13.377324 C 36.199875,13.386414 36.203039,13.401396 36.193955,13.405619 C 35.455515,13.749023 35.56948,13.954034 35.443154,13.614607 C 35.622246,13.404098 35.913771,13.072385 36.067573,12.845707 C 36.14985,12.724446 36.211907,12.590613 36.286513,12.464487 C 36.473903,12.147692 36.668302,11.835824 36.851313,11.516389 C 36.821457,11.509529 37.170728,11.135169 37.046601,11.083303 C 37.02052,11.072406 36.977943,11.075253 36.963357,11.099466 C 36.946869,11.126834 36.949494,11.203373 36.979998,11.193865 C 37.152402,11.140125 37.300595,11.027543 37.460893,10.944382 C 37.011611,11.141485 36.622202,11.439921 36.216426,11.709472 C 36.007376,11.785479 35.810958,11.919164 35.589275,11.937494 C 35.528045,11.942556 35.603045,11.812747 35.630732,11.7579 C 35.670507,11.679113 35.932131,11.359366 35.980131,11.29685 C 36.45099,10.683594 35.836396,11.46481 36.315073,10.859901 C 36.434538,10.703174 36.553412,10.543476 36.651468,10.372009 C 36.675814,10.329436 36.729543,10.261298 36.691444,10.230418 C 36.67897,10.220306 36.659342,10.229497 36.64329,10.229036 C 36.886652,10.154591 37.120763,10.036595 37.373373,10.005701 C 37.456117,9.9955817 37.243032,10.109689 37.179347,10.163477 C 37.093452,10.236023 37.009661,10.311025 36.924693,10.384654 C 36.625002,10.644349 36.322642,10.900862 36.020951,11.158226 C 35.481198,11.652834 34.875866,12.067141 34.339547,12.565391 C 34.085101,12.787687 33.901648,13.075642 33.672301,13.320252 C 33.615521,13.378183 33.549112,13.422969 33.481224,13.466309 L 32.786599,13.698118 C 32.881202,13.646836 32.978533,13.599758 33.064663,13.534376 C 33.447835,13.263336 33.778389,12.928712 34.143075,12.634538 C 34.764833,12.163063 35.411172,11.718071 35.974357,11.17488 C 36.17619,10.974502 36.427851,10.755183 36.581135,10.512116 C 36.610268,10.465918 36.629634,10.413767 36.646075,10.361683 C 36.654097,10.336272 36.629989,10.294189 36.653742,10.28211 C 36.91261,10.150463 37.190307,10.059689 37.458589,9.9484782 C 37.428274,9.9582464 37.395237,9.9618761 37.367644,9.977783 C 37.323923,10.002987 37.286029,10.037328 37.24764,10.070085 C 37.010231,10.272659 36.822214,10.525262 36.607177,10.749842 C 36.468153,10.93292 36.288744,11.129142 36.226913,11.357597 C 36.214849,11.402175 36.217908,11.449954 36.221167,11.496019 C 36.222721,11.517995 36.258619,11.545574 36.241162,11.559014 C 36.085411,11.67892 35.906132,11.764681 35.738617,11.867513 C 36.147646,11.667303 36.521918,11.4065 36.888141,11.136972 C 37.12801,11.00485 37.35483,10.845616 37.607745,10.740605 C 37.651376,10.722489 37.733808,10.735624 37.743325,10.781898 C 37.752523,10.826625 37.669383,10.835506 37.632913,10.862982 C 37.396522,11.041073 37.169269,11.229909 36.985829,11.464921 C 36.905559,11.56443 36.820516,11.660269 36.745019,11.763447 C 36.622576,11.930785 36.405846,12.283083 36.303672,12.457741 C 36.192,12.648636 36.012356,12.885881 36.037348,13.133891 C 36.042895,13.18893 36.102255,13.223488 36.134708,13.268287 C 36.251761,13.493469 36.139992,13.260298 35.547739,13.618958 C 35.493093,13.65205 35.668518,13.575872 35.724875,13.545787 C 36.041565,13.376723 36.328223,13.148364 36.568661,12.882914 C 36.971681,12.453389 37.379076,12.02782 37.775617,11.592264 C 37.823518,11.53965 38.47068,10.82919 38.532442,10.713496 C 38.5624,10.657379 38.5229,10.586629 38.518129,10.523195 C 38.343019,10.231047 38.440877,10.437914 39.247577,10.146166 C 39.293747,10.129469 39.167041,10.202377 39.127735,10.231797 C 38.943777,10.369486 38.970619,10.355734 38.778821,10.515609 C 38.701065,10.580425 38.622543,10.644316 38.544403,10.70867 C 37.873893,11.266317 37.236123,11.86086 36.579418,12.434525 C 36.364566,12.634063 36.116083,12.850405 35.926582,13.078033 C 35.877607,13.136861 35.703357,13.388161 35.678813,13.491933 C 35.672087,13.520366 35.728674,13.562388 35.702929,13.576204 C 35.445938,13.714111 35.164412,13.800376 34.895155,13.912462 C 35.039614,13.853903 35.144344,13.755459 35.26306,13.654936 C 35.522613,13.435156 35.786072,13.218279 36.011167,12.961703 C 36.32885,12.587633 36.639809,12.208699 36.951937,11.830015 C 37.06431,11.69368 37.469891,11.224815 37.568803,11.048522 C 37.609981,10.975128 37.615426,10.886796 37.638739,10.805932 C 37.62705,10.764209 37.603363,10.724092 37.603674,10.680764 C 37.603763,10.668348 37.628838,10.677332 37.639706,10.671329 C 37.814341,10.574861 37.99236,10.483458 38.159121,10.37394 C 38.231518,10.326394 37.999416,10.441968 37.924024,10.484606 C 37.73511,10.591448 37.541541,10.743051 37.368458,10.870688 C 37.038654,11.124485 36.721574,11.389042 36.411591,11.666948 C 36.196056,11.860179 36.006969,12.021203 35.833243,12.251824 C 35.782258,12.319508 35.747058,12.397751 35.703966,12.470714 C 35.675214,12.521912 35.642701,12.571174 35.617712,12.624311 C 35.42593,13.032114 36.238798,12.442566 34.760464,13.055136 C 34.72099,13.071492 34.844068,13.033177 34.881162,13.011968 C 34.995575,12.946553 35.196871,12.764537 35.28204,12.691963 C 35.377277,12.601979 35.477472,12.516969 35.56775,12.422012 C 35.659284,12.325738 35.740854,12.220457 35.826702,12.119081 C 36.338605,11.514593 36.826205,10.890903 37.326538,10.276946 C 37.579105,9.9515998 37.721938,9.8066198 37.898852,9.4594414 C 37.938616,9.3814083 37.972404,9.299278 37.993044,9.2141642 C 38.005553,9.1625805 38.007486,9.1069943 37.996931,9.0549756 C 37.991851,9.0299388 37.926545,9.0082245 37.948665,8.9954427 C 38.182274,8.8604505 38.439084,8.7703344 38.684293,8.6577803 C 38.059469,9.0349892 37.61308,9.6352432 37.104698,10.145314 C 36.657975,10.610556 36.204675,11.064552 35.735416,11.507209 C 35.567796,11.665326 35.400387,11.823685 35.23086,11.979758 C 35.076656,12.121724 34.912121,12.252722 34.764265,12.401288 C 34.682176,12.483771 34.616608,12.581192 34.54278,12.671145 C 34.503422,12.718161 34.459796,12.761913 34.424705,12.812195 C 34.157874,13.194524 35.239862,12.658069 33.606893,13.327691 C 33.570138,13.342763 33.607262,13.243029 33.630626,13.2109 C 33.715644,13.093984 33.90341,13.076822 33.962548,12.93179 C 34.050698,12.841945 34.384324,12.503814 34.45231,12.425682 C 34.539432,12.325555 34.617286,12.217725 34.699697,12.113686 C 35.004506,11.728881 35.307684,11.342802 35.609475,10.955624 C 35.826165,10.656353 35.839507,10.686479 35.952537,10.388695 C 35.971728,10.338136 35.993414,10.286685 35.99725,10.232742 C 35.999222,10.205005 35.944405,10.166737 35.969212,10.154174 C 36.221804,10.026255 36.491266,9.9328675 36.760771,9.8460724 C 36.807325,9.8310796 36.683724,9.9063366 36.645201,9.9364687 C 36.173576,10.358568 35.79009,10.871979 35.410074,11.375057 C 35.180945,11.737109 34.961716,12.100465 34.764808,12.481401 C 34.649055,12.705334 34.497649,12.99488 34.427563,13.2421 C 34.400174,13.338715 34.395972,13.440444 34.380177,13.539615 C 34.38027,13.612514 34.371796,13.685929 34.380455,13.758312 C 34.418558,14.076838 34.730648,13.826105 33.94035,14.183726 C 33.727019,14.280261 34.855533,13.609737 34.474147,13.727087 C 34.735646,13.366096 34.997193,13.006404 35.235368,12.62927 C 35.406515,12.358271 35.520896,12.216834 35.586258,11.913479 C 35.603036,11.835609 35.594454,11.754376 35.598552,11.674825 C 35.386132,11.3547 35.466363,11.568986 36.131981,11.207184 C 36.172781,11.185007 36.048363,11.248357 36.01013,11.274715 C 35.937709,11.324644 35.778802,11.470385 35.720006,11.522749 C 35.390405,11.812366 35.051218,12.095094 34.741872,12.406621 C 34.645843,12.503328 34.555475,12.605497 34.462001,12.704676 C 34.353284,12.820031 34.244203,12.935039 34.135304,13.050222 C 33.267848,13.98595 32.370125,14.902443 31.332541,15.652542 C 31.173416,15.768315 31.015622,15.88594 30.855166,15.999861 C 30.716305,16.098451 30.571855,16.189131 30.434661,16.290026 C 30.34338,16.357155 30.254307,16.427662 30.170206,16.503591 C 30.1333,16.536912 30.115155,16.590451 30.072892,16.616645 C 29.375824,17.048676 29.602823,17.10143 29.236342,16.957523 C 29.326386,16.878579 29.413078,16.79584 29.50376,16.717631 C 29.620067,16.61732 29.958654,16.345214 30.054642,16.25756 C 30.286247,16.046058 30.488435,15.803637 30.726858,15.599159 C 31.211828,15.125796 31.699122,14.654475 32.179146,14.176087 C 32.33883,14.016947 32.496345,13.855645 32.654824,13.695305 C 32.792522,13.555991 32.951765,13.43503 33.067678,13.277127 C 33.107749,13.22254 33.094537,13.144384 33.107965,13.078012 C 33.082002,12.729084 33.074599,12.947685 33.895173,12.709845 C 33.954078,12.692771 33.794435,12.77995 33.746262,12.817905 C 33.482084,13.026048 33.241513,13.261972 33.000827,13.496171 C 32.692013,13.85386 32.386827,14.215046 32.074092,14.569308 C 31.950617,14.709179 31.825037,14.847178 31.699921,14.985583 C 31.580912,15.117234 31.450389,15.239165 31.341719,15.379471 C 31.275443,15.465042 31.232417,15.566321 31.177766,15.659746 C 31.146609,15.717474 31.105915,15.770997 31.084294,15.832932 C 30.934884,16.260928 32.042587,15.543598 30.357286,16.268236 C 30.296128,16.294533 30.477749,16.211114 30.535126,16.177355 C 30.747864,16.052192 30.86388,15.957325 31.068151,15.806714 C 31.504571,15.479595 31.283858,15.647868 31.72999,15.301501 C 32.344291,14.84094 32.989339,14.422518 33.605581,13.964509 C 33.812907,13.81661 34.295766,13.479395 34.501601,13.306192 C 34.583818,13.237009 34.659168,13.159599 34.730697,13.079416 C 34.772441,13.032621 34.807105,12.97972 34.840297,12.926517 C 34.856276,12.900905 34.851496,12.859182 34.877577,12.843982 C 35.129086,12.697401 35.397319,12.58161 35.65719,12.450424 C 35.665652,12.479476 35.689855,12.508209 35.682577,12.537581 C 35.678613,12.553579 35.529435,12.711133 35.52051,12.721335 C 35.381824,12.879857 35.240659,13.034519 35.080161,13.172364 C 34.968202,13.27444 34.702247,13.518121 34.594887,13.610674 C 34.494173,13.697497 34.388962,13.779021 34.28844,13.866066 C 33.942594,14.165546 33.609523,14.48022 33.251651,14.765901 C 32.799383,15.136522 32.350984,15.510491 31.913452,15.898551 C 31.834038,15.968986 31.178,16.558338 31.092838,16.652154 C 31.018626,16.733907 30.967141,16.833714 30.904293,16.924495 C 30.87512,16.983555 30.834021,17.0381 30.816776,17.101674 C 30.808368,17.132672 30.851129,17.172568 30.830359,17.197065 C 30.814825,17.215387 30.79651,17.141733 30.774554,17.151474 C 30.576095,17.239522 30.400008,17.37145 30.208164,17.473109 C 30.011758,17.577184 31.142044,16.925452 30.759408,17.09789 C 31.708206,16.189911 32.626631,15.249146 33.629524,14.399104 C 33.838682,14.216905 34.047537,14.034356 34.256998,13.852506 C 34.434764,13.698173 35.030734,13.193304 35.230956,12.988635 C 35.286403,12.931956 35.328589,12.863603 35.374437,12.798913 C 35.400625,12.761963 35.40899,12.708776 35.446883,12.683969 C 35.676858,12.533416 35.926379,12.415076 36.166127,12.28063 C 36.205828,12.290003 36.260369,12.276409 36.28523,12.30875 C 36.302698,12.331477 36.262308,12.361554 36.24692,12.385738 C 36.223579,12.422418 36.195256,12.455681 36.169463,12.490682 C 36.04624,12.657892 35.93272,12.831578 35.805989,12.996283 C 35.317182,13.602531 34.833531,14.213349 34.319822,14.798808 C 33.9729,15.161336 33.622586,15.517521 33.255914,15.860285 C 33.127754,15.980087 32.998474,16.098696 32.868437,16.216458 C 32.74502,16.328224 32.615147,16.432977 32.495576,16.548847 C 32.414514,16.627399 32.343395,16.715601 32.267305,16.798978 C 32.227572,16.848349 32.054048,17.050035 32.021733,17.133089 C 32.010297,17.162485 32.028653,17.197094 32.021072,17.227711 C 32.018687,17.23734 32.013366,17.198788 32.00441,17.203054 C 31.78093,17.309471 31.567201,17.435291 31.347148,17.548625 C 31.27977,17.583327 31.479938,17.475527 31.546332,17.438978 C 31.636329,17.371745 31.730472,17.309729 31.816326,17.237278 C 32.096496,17.000841 32.155989,16.911193 32.401677,16.628383 C 32.808519,16.160072 33.220567,15.696114 33.613091,15.215589 C 33.978389,14.768222 34.128238,14.59493 34.47126,14.134994 C 34.664692,13.875636 34.99647,13.513488 34.943406,13.141872 C 34.938526,13.107694 34.909422,13.081763 34.89243,13.051708 C 35.012547,12.861886 34.898915,13.037925 35.457417,12.731922 C 35.508708,12.70382 35.353777,12.786592 35.305133,12.819063 C 35.106464,12.951679 34.931421,13.119142 34.739983,13.261185 C 34.100801,13.765564 33.508048,14.321893 32.972034,14.936007 C 32.622424,15.3505 32.268041,15.763684 31.952434,16.205299 C 31.791491,16.430498 31.604319,16.705079 31.498697,16.967717 C 31.462068,17.058799 31.447391,17.157237 31.421738,17.251997 C 31.412518,17.314489 31.371996,17.529222 31.387036,17.611521 C 31.391568,17.636327 31.427778,17.64925 31.429045,17.674435 C 31.429698,17.687438 31.401975,17.674698 31.390523,17.680894 C 31.225447,17.770198 31.068428,17.874189 30.90144,17.959866 C 30.819431,18.001942 31.057201,17.861258 31.135081,17.811955 C 31.416046,17.579608 31.666034,17.348115 31.912618,17.078561 C 32.029173,16.95115 32.153931,16.81572 32.239418,16.662769 C 32.257931,16.629644 32.26545,16.591477 32.278467,16.555831 C 32.175814,16.25077 32.237542,16.478068 33.057584,16.218905 C 33.099808,16.205561 32.986554,16.271821 32.951638,16.299058 C 32.830711,16.393385 32.739832,16.468593 32.62056,16.568869 C 32.549438,16.628665 32.478946,16.689206 32.408138,16.749376 C 32.134355,16.996441 31.86054,17.243708 31.611216,17.516109 C 31.323211,17.830772 31.063783,18.170969 30.78517,18.493678 C 30.693821,18.604466 30.596865,18.710861 30.511125,18.826042 C 30.444576,18.915442 30.390865,19.013731 30.329025,19.10645 C 30.278576,19.182089 30.222599,19.254046 30.174288,19.331067 C 30.139632,19.38632 30.114081,19.446881 30.080442,19.50276 C 30.057712,19.540516 30.02655,19.572946 30.0054,19.611609 C 29.995117,19.630408 29.993252,19.652706 29.987177,19.673255 C 29.715756,19.789438 29.45143,19.923844 29.172914,20.021806 C 29.147606,20.030707 29.192275,19.971558 29.205473,19.948202 C 29.321879,19.742204 29.519294,19.59202 29.671426,19.415416 C 30.20216,18.865233 30.697554,18.283886 31.196201,17.704785 C 31.278515,17.577021 31.430851,17.356893 31.493442,17.206057 C 31.513152,17.15856 31.526819,17.107312 31.528982,17.055933 C 31.529909,17.033885 31.490209,17.013796 31.50231,16.995342 C 31.513559,16.978186 31.542969,17.000848 31.563298,17.003601 C 31.732995,16.907298 31.902692,16.810996 32.072389,16.714693 C 31.436202,17.137978 30.877828,17.656926 30.286952,18.138989 C 29.618552,18.682137 28.927658,19.212044 28.383426,19.886408 C 28.294994,20.020564 28.240273,20.096208 28.166567,20.231245 C 28.148993,20.263442 28.13231,20.296265 28.118668,20.330315 C 28.113071,20.344281 28.122965,20.368395 28.109189,20.374445 C 27.840524,20.49243 27.560173,20.582065 27.289176,20.694591 C 27.25638,20.708208 27.358542,20.679353 27.393226,20.671734 C 27.579667,20.526533 27.753904,20.36791 27.929515,20.209745 C 28.024292,20.124384 28.123035,20.043101 28.212608,19.952294 C 28.414506,19.747615 28.582073,19.510779 28.784636,19.306779 C 29.317182,18.701927 29.832092,18.08416 30.344573,17.462306 C 30.461349,17.320607 30.5841,17.18372 30.696377,17.038431 C 30.783106,16.926204 30.859539,16.806386 30.94112,16.690364 C 30.968664,16.615792 31.002394,16.54322 31.023752,16.466647 C 31.036176,16.422106 31.040566,16.375337 31.041881,16.329116 C 31.042271,16.315414 31.016577,16.296397 31.028772,16.290137 C 32.456681,15.557149 31.733293,15.962167 31.456633,16.151646 C 31.178045,16.353855 30.897035,16.557474 30.636013,16.782282 C 30.282037,17.087147 29.957718,17.4265 29.602372,17.729986 C 29.535435,17.789978 28.975829,18.290167 28.903956,18.359757 C 28.825129,18.436077 28.754138,18.520106 28.67804,18.599146 C 28.616575,18.662985 28.550923,18.722816 28.491291,18.78837 C 28.4522,18.831342 28.430837,18.892477 28.382246,18.924316 C 28.15659,19.072169 27.912226,19.189284 27.677215,19.321767 C 27.636219,19.311665 27.565253,19.332218 27.554229,19.291461 C 27.542247,19.24716 27.609527,19.218091 27.639858,19.183651 C 27.937,18.84625 28.258075,18.52699 28.51033,18.15255 C 28.820757,17.765674 28.792803,17.794756 29.123549,17.406936 C 29.342395,17.150325 29.663093,16.860582 29.743204,16.511777 C 29.750282,16.480963 29.734256,16.449181 29.729781,16.417883 C 29.991956,16.308863 30.24828,16.184541 30.516307,16.090824 C 30.56768,16.07286 30.428192,16.154784 30.385542,16.188592 C 30.028278,16.4718 29.706301,16.799361 29.40732,17.142716 C 28.911767,17.726416 28.378811,18.281537 27.944995,18.914589 C 27.913139,18.976014 27.876999,19.0354 27.849428,19.098864 C 27.830438,19.142577 27.820337,19.189635 27.805791,19.235021 C 27.803111,19.259183 27.807013,19.285031 27.797752,19.307509 C 27.794537,19.315313 27.779587,19.308368 27.773267,19.313962 C 27.761182,19.324661 27.754814,19.340447 27.745588,19.353689 C 27.639892,19.416279 27.534194,19.47887 27.428498,19.54146 C 27.607448,19.445002 27.876008,19.302933 28.043521,19.200093 C 28.581353,18.869908 29.08166,18.481023 29.58776,18.105657 C 29.985303,17.793409 30.632328,17.348846 30.871449,16.888385 C 30.889737,16.853167 30.900191,16.814405 30.914564,16.777415 C 30.914595,16.756754 30.896992,16.726144 30.914659,16.715434 C 30.92984,16.70623 30.930759,16.764936 30.946994,16.757754 C 31.175077,16.656852 31.389917,16.528243 31.608652,16.408419 C 31.665571,16.377238 31.48996,16.461217 31.432666,16.4917 C 31.349473,16.535962 31.268477,16.584269 31.187511,16.632483 C 31.084326,16.693928 30.982682,16.757924 30.880267,16.820644 C 29.983183,17.432446 29.134709,18.111842 28.283238,18.784739 C 27.834926,19.13818 27.386437,19.492457 26.951971,19.862976 C 26.696337,20.080985 26.510375,20.231573 26.305174,20.487683 C 26.257967,20.546601 26.22411,20.615073 26.183579,20.678768 C 26.247712,21.040735 26.241225,20.804153 25.469285,21.09159 C 25.370536,21.12836 25.665908,21.011381 25.752802,20.951775 C 25.85282,20.883168 25.938498,20.795336 26.025046,20.710364 C 26.298027,20.442358 26.243363,20.496236 26.404463,20.199448 C 26.426552,20.142817 26.455673,20.088447 26.47073,20.029554 C 26.478757,19.998151 26.45854,19.961471 26.47275,19.93234 C 26.479601,19.918296 26.505772,19.936885 26.519539,19.929495 C 26.685821,19.840232 26.849472,19.745729 27.008802,19.644578 C 27.202981,19.521304 26.099551,20.146884 26.420569,20.005272 C 25.872575,20.444919 25.304556,20.904306 24.94536,21.518534 C 24.919067,21.560644 24.805617,21.730949 24.788992,21.794582 C 24.782363,21.819959 24.803963,21.84763 24.796846,21.872873 C 24.793411,21.885058 24.787547,21.84605 24.775839,21.841235 C 24.561674,21.753145 24.062827,23.266078 24.155336,22.153661 C 24.723097,21.855399 25.247779,21.472282 25.737108,21.059907 C 26.015177,20.814077 26.126698,20.72722 26.379716,20.457468 C 26.470279,20.360917 26.563544,20.265641 26.640326,20.157807 C 26.692279,20.084842 26.727768,20.001101 26.76323,19.918849 C 26.785166,19.867972 26.766205,19.791279 26.811877,19.759915 C 27.014662,19.620656 27.252493,19.541017 27.472801,19.431568 C 26.889606,19.857756 26.401913,20.391675 25.958568,20.959437 C 25.68137,21.294245 25.402575,21.621976 25.172863,21.992144 C 25.127973,22.064483 24.969021,22.324144 24.950144,22.434193 C 24.943742,22.471513 24.968052,22.507776 24.977005,22.544567 C 24.982765,22.586624 24.985138,22.556708 24.923564,22.590856 C 24.778915,22.671076 24.631305,22.746521 24.491678,22.835195 C 24.412871,22.885244 24.659239,22.752621 24.740689,22.706997 C 25.091786,22.510329 25.053986,22.521757 25.385292,22.277002 C 25.478267,22.199124 26.034911,21.733653 26.104837,21.671601 C 26.348513,21.455367 26.642086,21.168859 26.87138,20.937773 C 26.984413,20.823859 27.11733,20.725478 27.206259,20.591895 C 27.243987,20.535223 27.226185,20.457198 27.236147,20.389848 C 27.024729,20.081767 27.110387,20.267885 27.94387,20.010525 C 28.009198,19.990354 27.823925,20.077093 27.769294,20.118204 C 27.485539,20.331741 27.242833,20.599927 27.006132,20.862037 C 26.479432,21.484 25.905692,22.082479 25.515534,22.803982 C 25.416394,23.000105 25.394304,23.011878 25.346965,23.208802 C 25.336839,23.250919 25.326,23.294025 25.32765,23.337311 C 25.328538,23.360577 25.360819,23.379505 25.354325,23.401862 C 25.350248,23.415899 25.325562,23.396632 25.311181,23.394017 C 25.125688,23.49809 24.940194,23.602162 24.754702,23.706235 C 25.239557,23.383886 25.623836,22.940734 26.034942,22.53361 C 26.12774,22.438351 26.223517,22.345905 26.313337,22.247834 C 26.834989,21.678263 27.293108,21.05289 27.79773,20.468771 C 28.001423,20.212728 28.109431,20.121635 28.227765,19.836306 C 28.251552,19.778948 28.261033,19.716394 28.270942,19.655095 C 28.275619,19.626171 28.259506,19.59403 28.27127,19.567196 C 28.276061,19.55627 28.290626,19.581148 28.300304,19.588124 C 28.502222,19.475772 28.70414,19.363422 28.906059,19.25107 C 28.342618,19.630763 27.826684,20.079513 27.328068,20.539458 C 26.833982,20.99041 26.330454,21.431068 25.843094,21.889255 C 25.730974,21.994664 25.614595,22.095822 25.507945,22.20676 C 25.441874,22.275485 25.386544,22.353783 25.325844,22.427294 C 25.290262,22.478699 25.244713,22.524478 25.219099,22.581507 C 25.209806,22.602198 25.247574,22.641627 25.226187,22.649183 C 25.195161,22.660145 25.165444,22.623857 25.135073,22.611195 C 24.970304,22.705262 24.805535,22.799329 24.640767,22.893395 C 24.436718,23.002802 25.579171,22.350665 25.225697,22.518818 C 26.032256,21.860058 26.849636,21.213959 27.688779,20.597122 C 27.916251,20.424253 28.16986,20.246647 28.376295,20.043648 C 28.420915,19.999771 28.459859,19.949941 28.494691,19.897953 C 28.511379,19.873045 28.502748,19.828579 28.529483,19.815008 C 28.791184,19.682161 29.061675,19.564667 29.339219,19.469246 C 29.371411,19.45818 29.302714,19.526713 29.284461,19.555445 C 28.828768,19.952192 28.404206,20.384921 27.989448,20.823682 C 27.35849,21.535873 26.70396,22.229299 26.01664,22.887404 C 25.829724,23.06606 25.754967,23.127956 25.592053,23.317261 C 25.546852,23.369784 25.500332,23.421978 25.463758,23.480836 C 25.444087,23.512492 25.452056,23.559952 25.425191,23.585787 C 25.412506,23.597985 25.393044,23.571459 25.376971,23.564294 C 25.188614,23.6689 25.000259,23.773506 24.811903,23.878112 C 25.100279,23.72787 25.369034,23.554802 25.616091,23.340955 C 25.716558,23.253992 25.806602,23.155669 25.902362,23.063548 C 26.661941,22.332839 25.813938,23.154817 26.629299,22.362565 C 27.043277,21.952651 27.453335,21.542525 27.845389,21.111372 C 27.963058,20.981967 28.090995,20.860792 28.195494,20.720536 C 28.325602,20.545905 28.354548,20.428595 28.41915,20.241204 C 28.270026,19.930455 28.367868,20.19488 29.111034,19.849615 C 29.17404,19.820344 28.977607,19.891136 28.916189,19.923609 C 28.827062,19.970731 28.745031,20.030309 28.661762,20.087149 C 28.28149,20.346726 28.382744,20.276047 28.048187,20.59214 C 27.758559,20.889722 27.607442,21.039781 27.321139,21.35789 C 26.723247,22.022203 26.172294,22.726553 25.597123,23.410175 C 25.312469,23.78298 25.404882,23.62905 25.214153,23.982466 C 25.125647,24.146464 25.028193,24.298281 25.078874,24.490245 C 24.882473,24.598966 24.680739,24.698566 24.489671,24.816409 C 24.433522,24.851039 24.615136,24.77327 24.67258,24.740832 C 25.04328,24.531504 25.309647,24.177475 25.583143,23.862505 C 25.797661,23.585346 26.052498,23.304879 26.161021,22.963634 C 26.170099,22.935089 26.168111,22.903972 26.175538,22.874955 C 26.177024,22.869153 26.183322,22.865849 26.187214,22.861297 C 26.320667,22.70664 26.148963,22.897758 26.604173,22.603265 C 26.676754,22.55631 26.448997,22.679923 26.374809,22.724299 C 26.101443,22.887814 25.853231,23.091468 25.606135,23.290898 C 25.338114,23.528149 25.286432,23.56037 25.044062,23.830901 C 24.951823,23.933858 24.866469,24.042782 24.778165,24.149131 C 24.47261,24.517132 24.163449,24.88177 23.85148,25.244382 C 23.634238,25.50681 23.428176,25.773057 23.22849,26.04897 C 23.190209,26.101865 23.152731,26.155359 23.11636,26.209586 C 23.094602,26.242026 23.086836,26.287504 23.054153,26.308898 C 22.815482,26.46512 22.559695,26.593484 22.312467,26.735777 C 22.291408,26.707697 22.237176,26.684479 22.249291,26.651537 C 22.267672,26.601561 22.336806,26.59068 22.378167,26.557143 C 22.439419,26.507477 22.498972,26.45566 22.556875,26.402128 C 22.819661,26.159179 23.06938,25.900777 23.304107,25.63077 C 23.594249,25.28508 23.885532,24.940491 24.177731,24.596547 C 24.273361,24.483983 24.377161,24.377778 24.463749,24.258121 C 24.533914,24.161161 24.661163,23.9049 24.723084,23.783979 C 24.823762,23.397351 24.753405,23.545745 25.502242,23.213397 C 25.534935,23.198888 25.534126,23.288673 25.516435,23.31976 C 25.489159,23.367686 25.427414,23.384956 25.384735,23.419875 C 25.207247,23.565089 25.179774,23.599345 25.007525,23.766365 C 24.51127,24.252997 24.014864,24.741828 23.564058,25.271408 C 23.435342,25.415307 23.372103,25.474091 23.269711,25.628088 C 23.246174,25.66349 23.223588,25.700151 23.208001,25.739703 C 23.201137,25.75712 23.220556,25.787639 23.203659,25.795698 C 22.940375,25.921251 22.665103,26.020005 22.394079,26.127837 C 22.365185,26.139334 22.449285,26.099186 22.476886,26.08486 C 22.892765,25.790478 23.226486,25.393253 23.581506,25.032107 C 23.866395,24.726898 24.137723,24.412919 24.39882,24.086896 C 24.536172,23.91539 24.71323,23.693099 24.825989,23.49822 C 24.864828,23.431096 24.891612,23.357688 24.924423,23.287421 C 24.939732,23.241407 24.96584,23.197663 24.970349,23.14938 C 24.972245,23.129084 24.924836,23.105347 24.942393,23.094991 C 24.965317,23.081472 24.99343,23.132299 25.017726,23.121439 C 25.205077,23.037701 25.374697,22.918846 25.555145,22.821117 C 25.717384,22.73325 24.810714,23.243764 25.085451,23.113973 C 24.982301,23.19032 24.875903,23.262465 24.776002,23.343016 C 24.172166,23.829896 23.65211,24.413383 23.097675,24.952841 C 23.018696,25.046158 22.9346,25.135375 22.860737,25.232793 C 22.806172,25.304759 22.763021,25.384712 22.713142,25.460003 C 22.672853,25.520818 22.631213,25.580727 22.590247,25.641088 C 22.563482,25.687508 22.538536,25.735025 22.50995,25.780347 C 22.487366,25.816155 22.458341,25.847735 22.436893,25.884234 C 22.421485,25.910455 22.412228,25.939835 22.399896,25.967635 C 22.141941,26.076075 21.887821,26.194129 21.626032,26.292954 C 21.584401,26.30867 21.700854,26.244641 21.736537,26.218053 C 22.056582,25.979587 22.332082,25.690553 22.600565,25.396872 C 22.971796,24.962394 23.329916,24.516898 23.703119,24.084061 C 23.801254,23.970244 23.905203,23.861442 24.001234,23.745845 C 24.082269,23.648298 24.156445,23.545252 24.23405,23.444956 C 24.315284,23.304211 24.402435,23.179754 24.446044,23.022252 C 24.455499,22.988105 24.448099,22.951264 24.453151,22.916195 C 24.453563,22.913342 24.459026,22.915629 24.461593,22.914317 C 24.684273,22.800402 24.906638,22.685868 25.128641,22.570638 C 25.179329,22.544329 25.02658,22.621912 24.97555,22.647549 C 24.74823,22.790427 24.531262,22.945494 24.31606,23.106215 C 24.186066,23.203299 23.832822,23.474018 23.717707,23.572349 C 23.616676,23.658651 23.521999,23.752125 23.424144,23.842014 C 23.173953,24.081757 23.053426,24.195529 22.80493,24.440762 C 22.701983,24.542358 22.594257,24.639507 22.497907,24.747379 C 22.346654,24.916719 22.24813,25.103513 22.129284,25.292478 C 22.117913,25.320093 22.099998,25.345851 22.09517,25.375323 C 22.092716,25.390301 22.104111,25.404332 22.108581,25.418837 C 21.830446,25.523567 21.552311,25.628296 21.274175,25.733026 C 21.25304,25.740937 21.317156,25.718508 21.33695,25.707669 C 21.433523,25.654784 21.461082,25.622411 21.549317,25.547358 C 21.818358,25.30471 21.54622,25.55483 21.839518,25.268659 C 22.166131,24.949983 22.50612,24.643216 22.798246,24.291158 C 23.270933,23.735881 22.886944,24.188156 23.381957,23.601562 C 23.484506,23.480041 23.588931,23.360087 23.689988,23.237321 C 23.897997,22.984631 24.109801,22.752404 24.155897,22.41719 C 24.151119,22.382934 24.146342,22.348676 24.141564,22.314419 C 24.149874,22.321879 24.15648,22.341743 24.166493,22.336799 C 24.375062,22.233814 24.572424,22.109461 24.777808,22.000262 C 24.837679,21.96843 24.6597,22.067132 24.603195,22.104613 C 24.415124,22.229363 24.343725,22.296156 24.164698,22.443034 C 23.608817,22.911773 23.097629,23.434789 22.694479,24.043145 C 22.640991,24.134072 22.519676,24.333268 22.47038,24.439922 C 22.454103,24.475138 22.437252,24.51136 22.431987,24.549798 C 22.430013,24.564217 22.462972,24.583268 22.44988,24.589622 C 22.205269,24.708352 21.950521,24.80512 21.698041,24.906044 C 21.645385,24.927092 21.799306,24.854973 21.849937,24.829437 C 21.916013,24.778833 21.985773,24.732709 22.048164,24.677624 C 22.120534,24.613728 22.185535,24.541936 22.253371,24.473246 C 22.566452,24.156237 22.872711,23.831005 23.158423,23.489061 C 23.296918,23.317238 23.464984,23.142682 23.55437,22.936965 C 23.566233,22.909663 23.566536,22.878623 23.574909,22.850057 C 23.575698,22.84737 23.576639,22.855382 23.577504,22.858045 C 23.820011,22.746788 24.062517,22.635531 24.305025,22.524274 C 24.121057,22.60992 23.954763,22.714381 23.780074,22.817406 C 23.507351,22.978246 23.232097,23.134793 22.974506,23.320053 C 22.600472,23.568791 22.236484,23.830316 21.943765,24.175795 C 21.897309,24.230626 21.859988,24.292621 21.816099,24.349526 C 21.776582,24.400762 21.734445,24.449924 21.693619,24.500122 C 21.5869,24.643405 21.460984,24.780712 21.364977,24.931483 C 21.338004,24.973841 21.333839,24.99419 21.320878,25.036317 L 20.535155,25.329332 z"
         id="path6842"
         style="fill:#8f5902;fill-opacity:1;fill-rule:evenodd;stroke:none;stroke-width:0.69999999;stroke-linecap:round;stroke-linejoin:round;stroke-miterlimit:4;stroke-dasharray:none;stroke-dashoffset:0;stroke-opacity:1" />
      <g
         transform="matrix(0.7006018,0.7135527,-0.7135527,0.7006018,31.418795,-36.182427)"
         id="g6867">
        <g
           id="g6862"
           transform="translate(-3.2611228,-2.5759955)">
          <path
             sodipodi:nodetypes="ccccccc"
             id="path6839"
             d="M 39.60518,31.341484 L 38.761745,30.180696 L 39.27733,21.870636 L 42.054342,21.871682 L 42.702591,30.146031 L 41.822678,31.304315 L 39.60518,31.341484 z"
             style="opacity:1;fill:#2e3436;fill-opacity:1;fill-rule:evenodd;stroke:none;stroke-width:0.69999999;stroke-linecap:round;stroke-linejoin:round;stroke-miterlimit:4;stroke-dasharray:none;stroke-dashoffset:0;stroke-opacity:1" />
          <text
             transform="matrix(0.9647451,-0.263186,0.263186,0.9647451,0,0)"
             sodipodi:linespacing="125%"
             id="text6844"
             y="32.79533"
             x="32.080276"
             style="font-size:0.9003281px;font-style:normal;font-variant:normal;font-weight:bold;font-stretch:normal;text-align:start;line-height:125%;writing-mode:lr-tb;text-anchor:start;fill:#eeeeec;fill-opacity:1;stroke:none;stroke-width:1px;stroke-linecap:butt;stroke-linejoin:miter;stroke-opacity:1;font-family:Script MT Bold;-inkscape-font-specification:'Script MT Bold, Bold'"
             xml:space="preserve"><tspan
               y="32.79533"
               x="32.080276"
               id="tspan6846"
               sodipodi:role="line">Gibson</tspan></text>
        </g>
        <path
           style="fill:#eeeeec;fill-opacity:1;fill-rule:evenodd;stroke:none;stroke-width:1px;stroke-linecap:butt;stroke-linejoin:miter;stroke-opacity:1"
           d="M 37.480055,23.196587 L 37.274897,23.520012 L 37.378812,24.003184 L 37.054304,23.520012 L 36.872902,23.520012 L 37.241999,24.175629 L 37.005829,23.93946 L 36.811442,23.93946 L 37.210963,24.803413 L 37.774467,24.803413 L 38.146436,23.936996 L 37.943481,23.936996 L 37.742511,24.168653 L 38.025786,23.520719 L 37.835927,23.520719 L 37.55733,24.003263 L 37.684644,23.528119 L 37.480055,23.196587 z"
           id="path6848"
           sodipodi:nodetypes="cccccccccccccccccc" />
      </g>
      <path
         sodipodi:nodetypes="ccccc"
         id="path6888"
         d="M 43.219137,3.3996799 L 37.06246,8.7304485 L 36.814377,10.189099 L 21.40418,25.409815 L 22.692853,26.659794"
         style="opacity:0.3;fill:none;fill-rule:evenodd;stroke:#eeeeec;stroke-width:1px;stroke-linecap:butt;stroke-linejoin:miter;stroke-opacity:1" />
      <g
         inkscape:transform-center-y="4.9895325"
         inkscape:transform-center-x="-12.374133"
         transform="matrix(0.9910886,-0.1332039,0.1332039,0.9910886,17.15689,0.1483006)"
         id="g6610">
        <path
           style="fill:#babdb6;fill-rule:evenodd;stroke:#555753;stroke-width:0.30000001;stroke-linecap:butt;stroke-linejoin:miter;stroke-miterlimit:4;stroke-dasharray:none;stroke-opacity:1"
           d="M 18.257236,7.7704824 L 18.514971,8.2498692 L 18.962398,8.0093164 L 19.391957,8.8082944 C 19.30322,8.9602646 19.285052,9.1458355 19.374431,9.3120802 C 19.51101,9.5661168 19.808374,9.6555346 20.062412,9.518955 C 20.316448,9.382376 20.437826,9.0678267 20.301246,8.8137922 C 20.206846,8.6382083 20.025811,8.5675175 19.839385,8.5677415 L 19.409826,7.7687636 L 19.857254,7.5282108 L 19.599519,7.048824 L 18.257236,7.7704824 z"
           id="path6520" />
        <path
           style="fill:#babdb6;fill-rule:evenodd;stroke:#555753;stroke-width:0.30000001;stroke-linecap:butt;stroke-linejoin:miter;stroke-miterlimit:4;stroke-dasharray:none;stroke-opacity:1"
           d="M 19.893867,6.8905721 L 20.151602,7.3699589 L 20.599029,7.1294061 L 21.028588,7.9283841 C 20.939851,8.0803543 20.921683,8.2659252 21.011062,8.4321699 C 21.147641,8.6862065 21.445005,8.7756243 21.699043,8.6390447 C 21.953079,8.5024657 22.074457,8.1879164 21.937877,7.9338819 C 21.843477,7.758298 21.662442,7.6876072 21.476016,7.6878312 L 21.046457,6.8888533 L 21.493885,6.6483005 L 21.23615,6.1689137 L 19.893867,6.8905721 z"
           id="path6531" />
        <path
           style="fill:#babdb6;fill-rule:evenodd;stroke:#555753;stroke-width:0.30000001;stroke-linecap:butt;stroke-linejoin:miter;stroke-miterlimit:4;stroke-dasharray:none;stroke-opacity:1"
           d="M 21.530569,6.0106233 L 21.788304,6.4900101 L 22.235732,6.2494573 L 22.665291,7.0484353 C 22.576553,7.2004055 22.558386,7.3859764 22.647765,7.5522211 C 22.784344,7.8062577 23.081708,7.8956755 23.335746,7.7590959 C 23.589782,7.6225169 23.71116,7.3079676 23.574579,7.0539331 C 23.480179,6.8783492 23.299144,6.8076584 23.112718,6.8078825 L 22.68316,6.0089045 L 23.130587,5.7683517 L 22.872852,5.2889649 L 21.530569,6.0106233 z"
           id="path6533" />
      </g>
      <g
         inkscape:transform-center-y="4.9895325"
         inkscape:transform-center-x="12.374133"
         transform="matrix(0.1471988,-0.9891069,-0.9891069,-0.1471988,47.498199,30.662732)"
         id="g6620">
        <path
           style="fill:#babdb6;fill-rule:evenodd;stroke:#555753;stroke-width:0.30000001;stroke-linecap:butt;stroke-linejoin:miter;stroke-miterlimit:4;stroke-dasharray:none;stroke-opacity:1"
           d="M 18.257236,7.7704824 L 18.514971,8.2498692 L 18.962398,8.0093164 L 19.391957,8.8082944 C 19.30322,8.9602646 19.285052,9.1458355 19.374431,9.3120802 C 19.51101,9.5661168 19.808374,9.6555346 20.062412,9.518955 C 20.316448,9.382376 20.437826,9.0678267 20.301246,8.8137922 C 20.206846,8.6382083 20.025811,8.5675175 19.839385,8.5677415 L 19.409826,7.7687636 L 19.857254,7.5282108 L 19.599519,7.048824 L 18.257236,7.7704824 z"
           id="path6622" />
        <path
           style="fill:#babdb6;fill-rule:evenodd;stroke:#555753;stroke-width:0.30000001;stroke-linecap:butt;stroke-linejoin:miter;stroke-miterlimit:4;stroke-dasharray:none;stroke-opacity:1"
           d="M 19.893867,6.8905721 L 20.151602,7.3699589 L 20.599029,7.1294061 L 21.028588,7.9283841 C 20.939851,8.0803543 20.921683,8.2659252 21.011062,8.4321699 C 21.147641,8.6862065 21.445005,8.7756243 21.699043,8.6390447 C 21.953079,8.5024657 22.074457,8.1879164 21.937877,7.9338819 C 21.843477,7.758298 21.662442,7.6876072 21.476016,7.6878312 L 21.046457,6.8888533 L 21.493885,6.6483005 L 21.23615,6.1689137 L 19.893867,6.8905721 z"
           id="path6624" />
        <path
           style="fill:#babdb6;fill-rule:evenodd;stroke:#555753;stroke-width:0.30000001;stroke-linecap:butt;stroke-linejoin:miter;stroke-miterlimit:4;stroke-dasharray:none;stroke-opacity:1"
           d="M 21.530569,6.0106233 L 21.788304,6.4900101 L 22.235732,6.2494573 L 22.665291,7.0484353 C 22.576553,7.2004055 22.558386,7.3859764 22.647765,7.5522211 C 22.784344,7.8062577 23.081708,7.8956755 23.335746,7.7590959 C 23.589782,7.6225169 23.71116,7.3079676 23.574579,7.0539331 C 23.480179,6.8783492 23.299144,6.8076584 23.112718,6.8078825 L 22.68316,6.0089045 L 23.130587,5.7683517 L 22.872852,5.2889649 L 21.530569,6.0106233 z"
           id="path6626" />
      </g>
      <rect
         transform="matrix(0.7367634,0.6761507,-0.6761507,0.7367634,0,0)"
         ry="0.51142186"
         y="6.8743539"
         x="31.021908"
         height="2.7"
         width="4.6999998"
         id="rect6630"
         style="fill:#555753;fill-opacity:1;fill-rule:evenodd;stroke:#eeeeec;stroke-width:0.30000001;stroke-linecap:round;stroke-linejoin:round;stroke-miterlimit:4;stroke-dasharray:none;stroke-dashoffset:0;stroke-opacity:1" />
      <rect
         transform="matrix(0.7367634,0.6761507,-0.6761507,0.7367634,0,0)"
         ry="0.51142186"
         y="12.219233"
         x="31.021908"
         height="2.7"
         width="4.6999998"
         id="rect6632"
         style="fill:#555753;fill-opacity:1;fill-rule:evenodd;stroke:#eeeeec;stroke-width:0.30000001;stroke-linecap:round;stroke-linejoin:round;stroke-miterlimit:4;stroke-dasharray:none;stroke-dashoffset:0;stroke-opacity:1" />
      <rect
         transform="matrix(0.7367634,0.6761507,-0.6761507,0.7367634,0,0)"
         ry="0.1388966"
         y="15.660976"
         x="31.021908"
         height="0.73329061"
         width="4.6999998"
         id="rect6634"
         style="fill:#555753;fill-opacity:1;fill-rule:evenodd;stroke:#eeeeec;stroke-width:0.29999998;stroke-linecap:round;stroke-linejoin:round;stroke-miterlimit:4;stroke-dasharray:none;stroke-dashoffset:0;stroke-opacity:1" />
      <g
         transform="matrix(0.7367634,0.6761507,-0.6761507,0.7367634,11.949232,0.3414836)"
         id="g6650">
        <rect
           style="fill:#555753;fill-opacity:1;fill-rule:evenodd;stroke:#eeeeec;stroke-width:0.29999998;stroke-linecap:round;stroke-linejoin:round;stroke-miterlimit:4;stroke-dasharray:none;stroke-dashoffset:0;stroke-opacity:1"
           id="rect6636"
           width="4.6999998"
           height="0.70000005"
           x="21.988029"
           y="26.278685"
           ry="0.13259085" />
        <path
           sodipodi:type="arc"
           style="fill:#888a85;fill-opacity:1;fill-rule:evenodd;stroke:#eeeeec;stroke-width:0.98060715;stroke-linecap:round;stroke-linejoin:round;stroke-miterlimit:4;stroke-dasharray:none;stroke-dashoffset:0;stroke-opacity:1"
           id="path6638"
           sodipodi:cx="21.725992"
           sodipodi:cy="16.71703"
           sodipodi:rx="1.0140845"
           sodipodi:ry="1.290653"
           d="M 22.740077,16.71703 A 1.0140845,1.290653 0 1 1 20.711908,16.71703 A 1.0140845,1.290653 0 1 1 22.740077,16.71703 z"
           transform="matrix(0.3451389,0,0,0.2711806,14.837994,22.085746)" />
        <path
           sodipodi:type="arc"
           style="fill:#888a85;fill-opacity:1;fill-rule:evenodd;stroke:#eeeeec;stroke-width:0.98060715;stroke-linecap:round;stroke-linejoin:round;stroke-miterlimit:4;stroke-dasharray:none;stroke-dashoffset:0;stroke-opacity:1"
           id="path6640"
           sodipodi:cx="21.725992"
           sodipodi:cy="16.71703"
           sodipodi:rx="1.0140845"
           sodipodi:ry="1.290653"
           d="M 22.740077,16.71703 A 1.0140845,1.290653 0 1 1 20.711908,16.71703 A 1.0140845,1.290653 0 1 1 22.740077,16.71703 z"
           transform="matrix(0.3451389,0,0,0.2711806,18.837394,22.08506)" />
      </g>
      <path
         transform="matrix(0.6200562,0.5690449,-0.5000698,0.5448979,14.132098,36.328061)"
         d="M 8.2970552,6.5454545 A 0.8911652,1.0140845 0 1 1 6.5147248,6.5454545 A 0.8911652,1.0140845 0 1 1 8.2970552,6.5454545 z"
         sodipodi:ry="1.0140845"
         sodipodi:rx="0.8911652"
         sodipodi:cy="6.5454545"
         sodipodi:cx="7.40589"
         id="path6669"
         style="opacity:1;fill:#eeeeec;fill-opacity:1;fill-rule:evenodd;stroke:url(#linearGradient6795);stroke-width:0.63376021000000005;stroke-linecap:round;stroke-linejoin:round;stroke-miterlimit:4;stroke-dasharray:none;stroke-dashoffset:0;stroke-opacity:1"
         sodipodi:type="arc" />
      <path
         transform="matrix(0.6200562,0.5690449,-0.5000698,0.5448979,9.7567097,35.732788)"
         d="M 8.2970552,6.5454545 A 0.8911652,1.0140845 0 1 1 6.5147248,6.5454545 A 0.8911652,1.0140845 0 1 1 8.2970552,6.5454545 z"
         sodipodi:ry="1.0140845"
         sodipodi:rx="0.8911652"
         sodipodi:cy="6.5454545"
         sodipodi:cx="7.40589"
         id="path6673"
         style="opacity:1;fill:#eeeeec;fill-opacity:1;fill-rule:evenodd;stroke:url(#linearGradient6797);stroke-width:0.63376021000000005;stroke-linecap:round;stroke-linejoin:round;stroke-miterlimit:4;stroke-dasharray:none;stroke-dashoffset:0;stroke-opacity:1"
         sodipodi:type="arc" />
      <path
         transform="matrix(0.6200562,0.5690449,-0.5000698,0.5448979,12.145439,37.674744)"
         d="M 8.2970552,6.5454545 A 0.8911652,1.0140845 0 1 1 6.5147248,6.5454545 A 0.8911652,1.0140845 0 1 1 8.2970552,6.5454545 z"
         sodipodi:ry="1.0140845"
         sodipodi:rx="0.8911652"
         sodipodi:cy="6.5454545"
         sodipodi:cx="7.40589"
         id="path6677"
         style="opacity:1;fill:#eeeeec;fill-opacity:1;fill-rule:evenodd;stroke:url(#linearGradient6799);stroke-width:0.63376021000000005;stroke-linecap:round;stroke-linejoin:round;stroke-miterlimit:4;stroke-dasharray:none;stroke-dashoffset:0;stroke-opacity:1"
         sodipodi:type="arc" />
      <path
         sodipodi:nodetypes="cscccc"
         id="path6874"
         d="M 16.2899,20.441252 C 12.818248,21.568819 12.387853,26.281248 10.194848,28.242901 C 8.0327914,30.176871 4.2772534,29.441759 1.9958949,33.915191 C 1.1616549,35.733951 1.4710132,37.442111 2.3354673,38.9437 C 4.467887,41.560502 7.1192047,44.144099 10.29768,46.168035 C 11.207589,46.532883 11.749701,46.480745 12.31931,46.470325"
         style="fill:none;fill-rule:evenodd;stroke:url(#linearGradient6882);stroke-width:1px;stroke-linecap:round;stroke-linejoin:miter;stroke-opacity:1;opacity:0.50000000000000000" />
      <path
         sodipodi:nodetypes="cccc"
         id="path6884"
         d="M 22.667969,30.117188 C 23.321519,30.732163 24.395846,30.946639 25.437766,30.86603 C 26.047206,30.789965 26.629872,30.698046 27.234375,30.460938 C 27.189049,30.857122 26.84691,31.690787 26.5625,32.09375"
         style="fill:none;fill-rule:evenodd;stroke:#eeeeec;stroke-width:1px;stroke-linecap:round;stroke-linejoin:miter;stroke-opacity:1;opacity:0.5" />
      <path
         transform="matrix(0.5423611,0,0,0.4218364,22.202604,28.353493)"
         d="M 4.5480152,10.048656 A 0.6453265,0.82970548 0 1 1 3.2573622,10.048656 A 0.6453265,0.82970548 0 1 1 4.5480152,10.048656 z"
         sodipodi:ry="0.82970548"
         sodipodi:rx="0.6453265"
         sodipodi:cy="10.048656"
         sodipodi:cx="3.9026887"
         id="path6890"
         style="opacity:1;fill:#2e3436;fill-opacity:1;fill-rule:evenodd;stroke:url(#linearGradient6898);stroke-width:0.6271984;stroke-linecap:round;stroke-linejoin:round;stroke-miterlimit:4;stroke-dasharray:none;stroke-dashoffset:0;stroke-opacity:1"
         sodipodi:type="arc" />
      <path
         transform="matrix(0.5423611,0,0,0.4218364,18.595242,30.485823)"
         d="M 4.5480152,10.048656 A 0.6453265,0.82970548 0 1 1 3.2573622,10.048656 A 0.6453265,0.82970548 0 1 1 4.5480152,10.048656 z"
         sodipodi:ry="0.82970548"
         sodipodi:rx="0.6453265"
         sodipodi:cy="10.048656"
         sodipodi:cx="3.9026887"
         id="path6900"
         style="opacity:1;fill:#2e3436;fill-opacity:1;fill-rule:evenodd;stroke:url(#linearGradient6902);stroke-width:0.6271984;stroke-linecap:round;stroke-linejoin:round;stroke-miterlimit:4;stroke-dasharray:none;stroke-dashoffset:0;stroke-opacity:1"
         sodipodi:type="arc" />
      <path
         transform="matrix(0.5423611,0,0,0.4218364,15.030581,35.464056)"
         d="M 4.5480152,10.048656 A 0.6453265,0.82970548 0 1 1 3.2573622,10.048656 A 0.6453265,0.82970548 0 1 1 4.5480152,10.048656 z"
         sodipodi:ry="0.82970548"
         sodipodi:rx="0.6453265"
         sodipodi:cy="10.048656"
         sodipodi:cx="3.9026887"
         id="path6904"
         style="opacity:1;fill:#2e3436;fill-opacity:1;fill-rule:evenodd;stroke:url(#linearGradient6906);stroke-width:0.6271984;stroke-linecap:round;stroke-linejoin:round;stroke-miterlimit:4;stroke-dasharray:none;stroke-dashoffset:0;stroke-opacity:1"
         sodipodi:type="arc" />
      <path
         transform="matrix(0.5423611,0,0,0.4218364,19.824435,24.278396)"
         d="M 4.5480152,10.048656 A 0.6453265,0.82970548 0 1 1 3.2573622,10.048656 A 0.6453265,0.82970548 0 1 1 4.5480152,10.048656 z"
         sodipodi:ry="0.82970548"
         sodipodi:rx="0.6453265"
         sodipodi:cy="10.048656"
         sodipodi:cx="3.9026887"
         id="path6908"
         style="opacity:1;fill:#2e3436;fill-opacity:1;fill-rule:evenodd;stroke:url(#linearGradient6910);stroke-width:0.6271984;stroke-linecap:round;stroke-linejoin:round;stroke-miterlimit:4;stroke-dasharray:none;stroke-dashoffset:0;stroke-opacity:1"
         sodipodi:type="arc" />
      <path
         transform="matrix(0.5423611,0,0,0.4218364,17.120209,21.82001)"
         d="M 4.5480152,10.048656 A 0.6453265,0.82970548 0 1 1 3.2573622,10.048656 A 0.6453265,0.82970548 0 1 1 4.5480152,10.048656 z"
         sodipodi:ry="0.82970548"
         sodipodi:rx="0.6453265"
         sodipodi:cy="10.048656"
         sodipodi:cx="3.9026887"
         id="path6912"
         style="opacity:1;fill:#2e3436;fill-opacity:1;fill-rule:evenodd;stroke:url(#linearGradient6914);stroke-width:0.6271984;stroke-linecap:round;stroke-linejoin:round;stroke-miterlimit:4;stroke-dasharray:none;stroke-dashoffset:0;stroke-opacity:1"
         sodipodi:type="arc" />
      <path
         transform="matrix(0.5423611,0,0,0.4218364,13.30971,20.959575)"
         d="M 4.5480152,10.048656 A 0.6453265,0.82970548 0 1 1 3.2573622,10.048656 A 0.6453265,0.82970548 0 1 1 4.5480152,10.048656 z"
         sodipodi:ry="0.82970548"
         sodipodi:rx="0.6453265"
         sodipodi:cy="10.048656"
         sodipodi:cx="3.9026887"
         id="path6916"
         style="opacity:1;fill:#2e3436;fill-opacity:1;fill-rule:evenodd;stroke:url(#linearGradient6918);stroke-width:0.6271984;stroke-linecap:round;stroke-linejoin:round;stroke-miterlimit:4;stroke-dasharray:none;stroke-dashoffset:0;stroke-opacity:1"
         sodipodi:type="arc" />
      <path
         transform="matrix(0.5423611,0,0,0.4218364,6.9179042,27.843057)"
         d="M 4.5480152,10.048656 A 0.6453265,0.82970548 0 1 1 3.2573622,10.048656 A 0.6453265,0.82970548 0 1 1 4.5480152,10.048656 z"
         sodipodi:ry="0.82970548"
         sodipodi:rx="0.6453265"
         sodipodi:cy="10.048656"
         sodipodi:cx="3.9026887"
         id="path6920"
         style="opacity:1;fill:#2e3436;fill-opacity:1;fill-rule:evenodd;stroke:url(#linearGradient6922);stroke-width:0.6271984;stroke-linecap:round;stroke-linejoin:round;stroke-miterlimit:4;stroke-dasharray:none;stroke-dashoffset:0;stroke-opacity:1"
         sodipodi:type="arc" />
      <path
         transform="matrix(0.5423611,0,0,0.4218364,10.789863,24.954453)"
         d="M 4.5480152,10.048656 A 0.6453265,0.82970548 0 1 1 3.2573622,10.048656 A 0.6453265,0.82970548 0 1 1 4.5480152,10.048656 z"
         sodipodi:ry="0.82970548"
         sodipodi:rx="0.6453265"
         sodipodi:cy="10.048656"
         sodipodi:cx="3.9026887"
         id="path6924"
         style="opacity:1;fill:#2e3436;fill-opacity:1;fill-rule:evenodd;stroke:url(#linearGradient6926);stroke-width:0.6271984;stroke-linecap:round;stroke-linejoin:round;stroke-miterlimit:4;stroke-dasharray:none;stroke-dashoffset:0;stroke-opacity:1"
         sodipodi:type="arc" />
    </g>
  </g>
</svg>
