<?xml version="1.0" encoding="UTF-8" standalone="no"?>
<!-- Created with Inkscape (http://www.inkscape.org/) -->

<svg
   xmlns:dc="http://purl.org/dc/elements/1.1/"
   xmlns:cc="http://creativecommons.org/ns#"
   xmlns:rdf="http://www.w3.org/1999/02/22-rdf-syntax-ns#"
   xmlns:svg="http://www.w3.org/2000/svg"
   xmlns="http://www.w3.org/2000/svg"
   xmlns:xlink="http://www.w3.org/1999/xlink"
   xmlns:sodipodi="http://sodipodi.sourceforge.net/DTD/sodipodi-0.dtd"
   xmlns:inkscape="http://www.inkscape.org/namespaces/inkscape"
   width="16"
   height="16"
   id="svg2"
   version="1.1"
   inkscape:version="0.48.0 r9654"
   sodipodi:docname="item-popular.svg"
   inkscape:export-filename="/home/dracos/graphics/tango/16x16/status/item-popular.png"
   inkscape:export-xdpi="90"
   inkscape:export-ydpi="90"
   style="display:inline">
  <title
     id="title2978">TITLE</title>
  <defs
     id="defs4">
    <linearGradient
       id="linearGradient3845">
      <stop
         style="stop-color:#ffffff;stop-opacity:1;"
         offset="0"
         id="stop3847" />
      <stop
         style="stop-color:#edd400;stop-opacity:0.47843137;"
         offset="1"
         id="stop3849" />
    </linearGradient>
    <linearGradient
       id="linearGradient3834">
      <stop
         style="stop-color:#f57900;stop-opacity:1;"
         offset="0"
         id="stop3836" />
      <stop
         id="stop3853"
         offset="0.70422536"
         style="stop-color:#f57900;stop-opacity:1;" />
      <stop
         style="stop-color:#cc0000;stop-opacity:1;"
         offset="1"
         id="stop3839" />
    </linearGradient>
    <linearGradient
       id="linearGradient_Aluminium4to6">
      <stop
         id="stop3860"
         offset="0"
         style="stop-color:#888a85;stop-opacity:1;" />
      <stop
         id="stop3862"
         offset="1"
         style="stop-color:#2e3436;stop-opacity:1;" />
    </linearGradient>
    <linearGradient
       id="linearGradient_ScarletRed">
      <stop
         id="stop3850"
         offset="0"
         style="stop-color:#ef2929;stop-opacity:1;" />
      <stop
         id="stop3852"
         offset="1"
         style="stop-color:#a40000;stop-opacity:1;" />
    </linearGradient>
    <linearGradient
       id="linearGradient_Chocolate">
      <stop
         id="stop3844"
         offset="0"
         style="stop-color:#e9b96e;stop-opacity:1;" />
      <stop
         id="stop3846"
         offset="1"
         style="stop-color:#8f5902;stop-opacity:1;" />
    </linearGradient>
    <linearGradient
       id="linearGradient_Plum">
      <stop
         id="stop3838"
         offset="0"
         style="stop-color:#ad7fa8;stop-opacity:1;" />
      <stop
         id="stop3840"
         offset="1"
         style="stop-color:#5c3566;stop-opacity:1;" />
    </linearGradient>
    <linearGradient
       id="linearGradient_SkyBlue">
      <stop
         id="stop3832"
         offset="0"
         style="stop-color:#729fcf;stop-opacity:1;" />
      <stop
         id="stop3834"
         offset="1"
         style="stop-color:#204a87;stop-opacity:1;" />
    </linearGradient>
    <linearGradient
       id="linearGradient_Orange">
      <stop
         id="stop3826"
         offset="0"
         style="stop-color:#fcaf3e;stop-opacity:1;" />
      <stop
         id="stop3828"
         offset="1"
         style="stop-color:#ce5c00;stop-opacity:1;" />
    </linearGradient>
    <linearGradient
       id="linearGradient_Chameleon">
      <stop
         id="stop3820"
         offset="0"
         style="stop-color:#8ae234;stop-opacity:1;" />
      <stop
         id="stop3822"
         offset="1"
         style="stop-color:#4e9a06;stop-opacity:1;" />
    </linearGradient>
    <linearGradient
       id="linearGradient_Butter">
      <stop
         id="stop3814"
         offset="0"
         style="stop-color:#fce94f;stop-opacity:1;" />
      <stop
         id="stop3816"
         offset="1"
         style="stop-color:#c4a000;stop-opacity:1;" />
    </linearGradient>
    <linearGradient
       id="linearGradient_Aluminium1to3">
      <stop
         style="stop-color:#eeeeec;stop-opacity:1;"
         offset="0"
         id="stop3778" />
      <stop
         style="stop-color:#babdb6;stop-opacity:1;"
         offset="1"
         id="stop3780" />
    </linearGradient>
    <mask
       maskUnits="userSpaceOnUse"
       id="mask3828">
      <path
         sodipodi:nodetypes="zscccccsz"
         inkscape:connector-curvature="0"
         id="path3830"
         d="m 8,15.5 c 5,0 7.5,-3.5 7.5,-6.5 0,-1 0.5,-5.5 -3,-6.5 0,3.5 0.5,5 -2,5 0,-1 0,-6 -5.5,-7 2,1.5 2,6.5 0.5,8 -1.6875,0 -3,-1.5 -1,-5 -4,0.5 -4,4 -4,7.5 0,3 2.5,4.5 7.5,4.5 z"
         style="fill:#f57900;stroke:none" />
    </mask>
    <radialGradient
       inkscape:collect="always"
       xlink:href="#linearGradient3834"
       id="radialGradient3843"
       cx="8"
       cy="14.009876"
       fx="8"
       fy="14.009876"
       r="7.5123458"
       gradientTransform="matrix(1.0649137,1.7348485e-7,-3.0359848e-7,1.8635989,-0.51930493,-12.108793)"
       gradientUnits="userSpaceOnUse" />
    <radialGradient
       inkscape:collect="always"
       xlink:href="#linearGradient3845"
       id="radialGradient3851"
       cx="8"
       cy="16.75"
       fx="8"
       fy="16.75"
       r="5"
       gradientTransform="matrix(1,0,0,1.2,0,-5.1)"
       gradientUnits="userSpaceOnUse" />
    <radialGradient
       inkscape:collect="always"
       xlink:href="#linearGradient3845"
       id="radialGradient3901"
       gradientUnits="userSpaceOnUse"
       gradientTransform="matrix(1.0181818,-1.1549095e-7,1.4023899e-7,1.2363635,-0.14551792,-5.7173517)"
       cx="8.0033674"
       cy="16.977272"
       fx="8.0033674"
       fy="16.977272"
       r="5" />
    <radialGradient
       inkscape:collect="always"
       xlink:href="#linearGradient3834"
       id="radialGradient3903"
       gradientUnits="userSpaceOnUse"
       gradientTransform="matrix(1.0649137,2.716867e-8,-4.6927719e-8,1.8393965,-0.51930875,-11.77208)"
       cx="8.0031614"
       cy="13.912314"
       fx="8.0031614"
       fy="13.912314"
       r="7.5123458" />
    <mask
       maskUnits="userSpaceOnUse"
       id="mask3913">
      <path
         style="fill:#edd400;fill-opacity:1;stroke:none"
         d="M 8.0033673,15.636364 C 13.094276,15.636364 15.639731,12 15.639731,9.0909091 15.639731,8 16.003367,3.6363636 12.73064,2.5454545 c 0,3.2727274 -0.363636,5.0909091 -2.181818,5.0909091 0,-1.0909091 0.363636,-6.1818181 -5.0909093,-7.27272724 2.5454546,2.54545454 1.0909091,6.90909094 0,8.00000004 -1.8181818,0 -3.2727272,-1.4545455 -1.0909091,-4.7272728 C 0.36700364,4 0.36700364,7.2727273 0.36700364,10.909091 c 0,2.909091 2.54545456,4.727273 7.63636366,4.727273 z"
         id="path3915"
         inkscape:connector-curvature="0"
         sodipodi:nodetypes="zscccccsz" />
    </mask>
    <radialGradient
       inkscape:collect="always"
       xlink:href="#linearGradient3845"
       id="radialGradient3937"
       gradientUnits="userSpaceOnUse"
       gradientTransform="matrix(1,-2.0592322e-8,2.6770016e-8,1.2999998,-4.5955193e-7,-6.8166638)"
       cx="8.0061731"
       cy="17.166666"
       fx="8.0061731"
       fy="17.166666"
       r="5" />
    <radialGradient
       inkscape:collect="always"
       xlink:href="#linearGradient3834"
       id="radialGradient3939"
       gradientUnits="userSpaceOnUse"
       gradientTransform="matrix(1.0649136,5.2586149e-4,-8.2165858e-4,1.6639274,-0.50779681,-9.3156262)"
       cx="8"
       cy="14.009876"
       fx="8"
       fy="14.009876"
       r="7.5123458" />
    <mask
       maskUnits="userSpaceOnUse"
       id="mask3955">
      <path
         style="fill:#edd400;fill-opacity:1;stroke:none"
         d="m 8.006173,15.75 c 5,0 7.75,-3.75 7.75,-6.75 0,-1 0.5,-5.25 -3,-6.25 1.25,3 0,5 -2.5,5 0,-1 0.5,-6.5 -5,-7.5 2.25,1.5 1.75,6.5 0,8 -1.6875,0 -3,-1.75 -1,-4.5 -3.5,0.5 -4,3.75 -4,7.25 0,3 2.75,4.75 7.75,4.75 z"
         id="path3957"
         inkscape:connector-curvature="0"
         sodipodi:nodetypes="zscccccsz" />
    </mask>
    <radialGradient
       inkscape:collect="always"
       xlink:href="#linearGradient3845"
       id="radialGradient3977"
       gradientUnits="userSpaceOnUse"
       gradientTransform="matrix(1,-3.3055357e-8,4.1870125e-8,1.2666669,-7.1295516e-7,-6.2351884)"
       cx="8.0082302"
       cy="17.027779"
       fx="8.0082302"
       fy="17.027779"
       r="5" />
    <radialGradient
       inkscape:collect="always"
       xlink:href="#linearGradient3834"
       id="radialGradient3979"
       gradientUnits="userSpaceOnUse"
       gradientTransform="matrix(1.0649137,1.7348485e-7,-3.0359848e-7,1.8635989,-0.51930493,-12.108793)"
       cx="8"
       cy="14.009876"
       fx="8"
       fy="14.009876"
       r="7.5123458" />
    <mask
       maskUnits="userSpaceOnUse"
       id="mask3989">
      <path
         style="fill:#edd400;fill-opacity:1;stroke:none"
         d="m 8.00823,15.833333 c 5,0 7.833333,-3.833333 7.833333,-6.833333 0,-1 0.166667,-5.5 -3.333333,-6.5 1.5,3.1666667 0.333333,5 -2.00823,5 0,-1 0.174897,-6.3333333 -5.3251033,-7.33333333 C 7.3415633,1.6666667 7.3415633,7 5.50823,8.5 c -1.6875,0 -3,-2 -1,-5 -3.83333333,0.6666667 -4.33333333,4 -4.33333333,7.5 0,3 2.83333333,4.833333 7.83333333,4.833333 z"
         id="path3991"
         inkscape:connector-curvature="0"
         sodipodi:nodetypes="zscccccsz" />
    </mask>
  </defs>
  <sodipodi:namedview
     id="base"
     pagecolor="#ffffff"
     bordercolor="#666666"
     borderopacity="1.0"
     inkscape:pageopacity="0.0"
     inkscape:pageshadow="2"
     inkscape:zoom="4"
     inkscape:cx="-60.518267"
     inkscape:cy="18.492974"
     inkscape:document-units="px"
     inkscape:current-layer="layer1"
     showgrid="true"
     showguides="true"
     objecttolerance="10"
     guidetolerance="10"
     borderlayer="true"
     inkscape:showpageshadow="false"
     inkscape:guide-bbox="true"
     inkscape:snap-global="true"
     inkscape:window-width="1262"
     inkscape:window-height="1050"
     inkscape:window-x="330"
     inkscape:window-y="96"
     inkscape:window-maximized="0">
    <inkscape:grid
       type="xygrid"
       id="grid2816"
       empspacing="2"
       visible="true"
       enabled="true"
       snapvisiblegridlinesonly="true"
       spacingy="0.5px"
       spacingx="0.5px" />
    <sodipodi:guide
       orientation="1,0"
       position="8,6"
       id="guide2818" />
    <sodipodi:guide
       orientation="1,0"
       position="-19,24"
       id="guide4687" />
    <sodipodi:guide
       orientation="1,0"
       position="-54,-2"
       id="guide4689" />
    <sodipodi:guide
       orientation="1,0"
       position="-102,-4"
       id="guide4691" />
    <sodipodi:guide
       orientation="0,1"
       position="-5,11"
       id="guide4693" />
    <sodipodi:guide
       orientation="0,1"
       position="-51,16"
       id="guide4695" />
    <sodipodi:guide
       orientation="0,1"
       position="-77,24"
       id="guide4697" />
  </sodipodi:namedview>
  <metadata
     id="metadata7">
    <rdf:RDF>
      <cc:Work
         rdf:about="">
        <dc:format>image/svg+xml</dc:format>
        <dc:type
           rdf:resource="http://purl.org/dc/dcmitype/StillImage" />
        <dc:title>TITLE</dc:title>
        <dc:creator>
          <cc:Agent>
            <dc:title>Marty Vance</dc:title>
          </cc:Agent>
        </dc:creator>
        <dc:rights>
          <cc:Agent>
            <dc:title />
          </cc:Agent>
        </dc:rights>
        <cc:license
           rdf:resource="http://creativecommons.org/licenses/by-sa/3.0/" />
        <dc:subject>
          <rdf:Bag>
            <rdf:li>KEYWORDS</rdf:li>
          </rdf:Bag>
        </dc:subject>
        <dc:source>http://dracos.deviantart.com</dc:source>
      </cc:Work>
      <cc:License
         rdf:about="http://creativecommons.org/licenses/by-sa/3.0/">
        <cc:permits
           rdf:resource="http://creativecommons.org/ns#Reproduction" />
        <cc:permits
           rdf:resource="http://creativecommons.org/ns#Distribution" />
        <cc:requires
           rdf:resource="http://creativecommons.org/ns#Notice" />
        <cc:requires
           rdf:resource="http://creativecommons.org/ns#Attribution" />
        <cc:permits
           rdf:resource="http://creativecommons.org/ns#DerivativeWorks" />
        <cc:requires
           rdf:resource="http://creativecommons.org/ns#ShareAlike" />
      </cc:License>
    </rdf:RDF>
  </metadata>
  <g
     inkscape:label="Layer 1"
     inkscape:groupmode="layer"
     id="layer1"
     transform="translate(0,-1036.3622)"
     style="display:inline">
    <path
       style="fill:url(#radialGradient3843);fill-opacity:1;stroke:none"
       d="m 8,15.5 c 5,0 7.5,-3.5 7.5,-6.5 0,-1 0.5,-5.5 -3,-6.5 0,3.5 0.5,5 -2,5 0,-1 0,-6 -5.5,-7 2,1.5 2,6.5 0.5,8 -1.6875,0 -3,-1.5 -1,-5 -4,0.5 -4,4 -4,7.5 0,3 2.5,4.5 7.5,4.5 z"
       id="path3705"
       inkscape:connector-curvature="0"
       transform="translate(0,1036.3622)"
       sodipodi:nodetypes="zscccccsz" />
    <path
       sodipodi:nodetypes="ccccccc"
       transform="translate(0,1036.3622)"
       inkscape:connector-curvature="0"
       id="path3832"
       d="m 8,15 c 3.5,0 5,-3.5 5,-5 -1,1 -3,1.5 -4.5,1.5 0,-1 0,-1.5 -0.5,-3 -0.5,2 -0.5,2.5 -2,3.5 -1.6875,0 -2.5,-0.5 -3,-2 0,3 1.1912314,4.997003 5,5 z"
       style="fill:url(#radialGradient3851);fill-opacity:1;stroke:none" />
    <path
       style="fill:none;stroke:#ffffff;stroke-width:3;stroke-linecap:butt;stroke-linejoin:miter;stroke-miterlimit:5;stroke-opacity:0.47843137;stroke-dasharray:none"
       d="m 8,15.5 c 5,0 7.5,-3.5 7.5,-6.5 0,-1 0.5,-5.5 -3,-6.5 0,3.5 0.5,5 -2,5 0,-1 0,-6 -5.5,-7 2,1.5 2,6.5 0.5,8 -1.6875,0 -3,-1.5 -1,-5 -4,0.5 -4,4 -4,7.5 0,3 2.5,4.5 7.5,4.5 z"
       id="path3824"
       inkscape:connector-curvature="0"
       transform="translate(0,1036.3622)"
       sodipodi:nodetypes="zscccccsz"
       mask="url(#mask3828)" />
    <path
       sodipodi:nodetypes="zscccccsz"
       transform="translate(0,1036.3622)"
       inkscape:connector-curvature="0"
       id="path3822"
       d="m 8,15.5 c 5,0 7.5,-3.5 7.5,-6.5 0,-1 0.5,-5.5 -3,-6.5 0,3.5 0.5,5 -2,5 0,-1 0,-6 -5.5,-7 2,1.5 2,6.5 0.5,8 -1.6875,0 -3,-1.5 -1,-5 -4,0.5 -4,4 -4,7.5 0,3 2.5,4.5 7.5,4.5 z"
       style="fill:none;stroke:#a40000;stroke-width:1;stroke-linecap:butt;stroke-linejoin:miter;stroke-miterlimit:5;stroke-opacity:1;stroke-dasharray:none" />
    <path
       sodipodi:nodetypes="zscccccsz"
       transform="matrix(1.375,0,0,1.375,-30.00463,1030.3622)"
       inkscape:connector-curvature="0"
       id="path3885"
       d="M 8.0033673,15.636364 C 13.094276,15.636364 15.639731,12 15.639731,9.0909091 15.639731,8 16.003367,3.6363636 12.73064,2.5454545 c 0,3.2727274 -0.363636,5.0909091 -2.181818,5.0909091 0,-1.0909091 0.363636,-6.1818181 -5.0909093,-7.27272724 2.5454546,2.54545454 1.0909091,6.90909094 0,8.00000004 -1.8181818,0 -3.2727272,-1.4545455 -1.0909091,-4.7272728 C 0.36700364,4 0.36700364,7.2727273 0.36700364,10.909091 c 0,2.909091 2.54545456,4.727273 7.63636366,4.727273 z"
       style="fill:url(#radialGradient3903);fill-opacity:1;stroke:none" />
    <path
       style="fill:url(#radialGradient3901);fill-opacity:1;stroke:none"
       d="m 8.0033673,15.272727 c 3.6363637,0 5.0909087,-4 5.0909087,-5.4545452 C 12.003367,10.909091 9.8215491,11.636364 8.3670036,11.636364 8.73064,10.909091 9.0942764,9.8181818 8,8.5 7.6397309,10.545455 7.6397309,10.909091 6.1851855,12 4.3670036,12 3.2760945,11.272727 2.9124582,9.8181818 c 0,2.9090912 1.0909091,5.4545452 5.0909091,5.4545452 z"
       id="path3887"
       inkscape:connector-curvature="0"
       transform="matrix(1.375,0,0,1.375,-30.00463,1030.3622)"
       sodipodi:nodetypes="ccccccc" />
    <path
       sodipodi:nodetypes="zscccccsz"
       transform="matrix(1.375,0,0,1.375,-30.00463,1030.3622)"
       inkscape:connector-curvature="0"
       id="path3909"
       d="M 8.0033673,15.636364 C 13.094276,15.636364 15.639731,12 15.639731,9.0909091 15.639731,8 16.003367,3.6363636 12.73064,2.5454545 c 0,3.2727274 -0.363636,5.0909091 -2.181818,5.0909091 0,-1.0909091 0.363636,-6.1818181 -5.0909093,-7.27272724 2.5454546,2.54545454 1.0909091,6.90909094 0,8.00000004 -1.8181818,0 -3.2727272,-1.4545455 -1.0909091,-4.7272728 C 0.36700364,4 0.36700364,7.2727273 0.36700364,10.909091 c 0,2.909091 2.54545456,4.727273 7.63636366,4.727273 z"
       style="fill:none;stroke:#ffffff;stroke-width:2.18181825;stroke-miterlimit:4;stroke-opacity:0.47843137;stroke-dasharray:none"
       mask="url(#mask3913)" />
    <path
       style="fill:none;stroke:#a40000;stroke-width:0.72727275;stroke-miterlimit:4;stroke-dasharray:none"
       d="M 8.0033673,15.636364 C 13.094276,15.636364 15.639731,12 15.639731,9.0909091 15.639731,8 16.003367,3.6363636 12.73064,2.5454545 c 0,3.2727274 -0.363636,5.0909091 -2.181818,5.0909091 0,-1.0909091 0.363636,-6.1818181 -5.0909093,-7.27272724 2.5454546,2.54545454 1.0909091,6.90909094 0,8.00000004 -1.8181818,0 -3.2727272,-1.4545455 -1.0909091,-4.7272728 C 0.36700364,4 0.36700364,7.2727273 0.36700364,10.909091 c 0,2.909091 2.54545456,4.727273 7.63636366,4.727273 z"
       id="path3905"
       inkscape:connector-curvature="0"
       transform="matrix(1.375,0,0,1.375,-30.00463,1030.3622)"
       sodipodi:nodetypes="zscccccsz" />
    <path
       sodipodi:nodetypes="zscccccsz"
       transform="matrix(2,0,0,2,-70.012346,1020.3622)"
       inkscape:connector-curvature="0"
       id="path3921"
       d="m 8.006173,15.75 c 5,0 7.75,-3.75 7.75,-6.75 0,-1 0.5,-5.25 -3,-6.25 1.25,3 0,5 -2.5,5 0,-1 0.5,-6.5 -5,-7.5 2.25,1.5 1.75,6.5 0,8 -1.6875,0 -3,-1.75 -1,-4.5 -3.5,0.5 -4,3.75 -4,7.25 0,3 2.75,4.75 7.75,4.75 z"
       style="fill:url(#radialGradient3939);fill-opacity:1;stroke:none" />
    <path
       style="fill:url(#radialGradient3937);fill-opacity:1;stroke:none"
       d="m 8.006173,15.5 c 3.5,0 5,-3.5 4.993827,-5.5 -1,1 -3,1.5 -4.5,1.5 0,-1 0,-1.5 -0.5,-3 C 7.5,10.5 7.256173,11 5.756173,12 4.068673,12 3.5,11.5 3,10 c 0,3 1.1974044,5.497003 5.006173,5.5 z"
       id="path3923"
       inkscape:connector-curvature="0"
       transform="matrix(2,0,0,2,-70.012346,1020.3622)"
       sodipodi:nodetypes="ccccccc" />
    <path
       sodipodi:nodetypes="zscccccsz"
       transform="matrix(2,0,0,2,-70.012346,1020.3622)"
       inkscape:connector-curvature="0"
       id="path3943"
       d="m 8.006173,15.75 c 5,0 7.75,-3.75 7.75,-6.75 0,-1 0.5,-5.25 -3,-6.25 1.25,3 0,5 -2.5,5 0,-1 0.5,-6.5 -5,-7.5 2.25,1.5 1.75,6.5 0,8 -1.6875,0 -3,-1.75 -1,-4.5 -3.5,0.5 -4,3.75 -4,7.25 0,3 2.75,4.75 7.75,4.75 z"
       style="fill:none;stroke:#ffffff;stroke-width:1.5;stroke-linecap:square;stroke-linejoin:miter;stroke-miterlimit:4.80000019;stroke-opacity:0.47843137;stroke-dasharray:none"
       mask="url(#mask3955)" />
    <path
       style="fill:none;stroke:#a40000;stroke-width:0.5;stroke-linecap:square;stroke-linejoin:miter;stroke-miterlimit:4.80000019;stroke-opacity:1;stroke-dasharray:none"
       d="m 8.006173,15.75 c 5,0 7.75,-3.75 7.75,-6.75 0,-1 0.5,-5.25 -3,-6.25 1.25,3 0,5 -2.5,5 0,-1 0.5,-6.5 -5,-7.5 2.25,1.5 1.75,6.5 0,8 -1.6875,0 -3,-1.75 -1,-4.5 -3.5,0.5 -4,3.75 -4,7.25 0,3 2.75,4.75 7.75,4.75 z"
       id="path3941"
       inkscape:connector-curvature="0"
       transform="matrix(2,0,0,2,-70.012346,1020.3622)"
       sodipodi:nodetypes="zscccccsz" />
    <path
       sodipodi:nodetypes="zscccccsz"
       transform="matrix(3,0,0,3,-126.02469,1004.3622)"
       inkscape:connector-curvature="0"
       id="path3961"
       d="m 8.00823,15.833333 c 5,0 7.833333,-3.833333 7.833333,-6.833333 0,-1 0.166667,-5.5 -3.333333,-6.5 1.5,3.1666667 0.333333,5 -2.00823,5 0,-1 0.174897,-6.3333333 -5.3251033,-7.33333333 C 7.3415633,1.6666667 7.3415633,7 5.50823,8.5 c -1.6875,0 -3,-2 -1,-5 -3.83333333,0.6666667 -4.33333333,4 -4.33333333,7.5 0,3 2.83333333,4.833333 7.83333333,4.833333 z"
       style="fill:url(#radialGradient3979);fill-opacity:1;stroke:none" />
    <path
       style="fill:url(#radialGradient3977);fill-opacity:1;stroke:none"
       d="M 8.00823,15.333333 C 11.50823,15.333333 13,11.5 13,10 c -1,1 -2.825103,1.666667 -4.3251033,1.666667 0,-1 0,-2.0000003 -0.6748967,-3.166667 -0.5,2 -0.5,2.5 -2,3.5 -1.6875,0 -2.5,-0.5 -3,-2 0,3 1.1994614,5.330336 5.00823,5.333333 z"
       id="path3963"
       inkscape:connector-curvature="0"
       transform="matrix(3,0,0,3,-126.02469,1005.3622)"
       sodipodi:nodetypes="ccccccc" />
    <path
       sodipodi:nodetypes="zscccccsz"
       transform="matrix(3,0,0,3,-126.02469,1004.3622)"
       inkscape:connector-curvature="0"
       id="path3985"
       d="m 8.00823,15.833333 c 5,0 7.833333,-3.833333 7.833333,-6.833333 0,-1 0.166667,-5.5 -3.333333,-6.5 1.5,3.1666667 0.333333,5 -2.00823,5 0,-1 0.174897,-6.3333333 -5.3251033,-7.33333333 C 7.3415633,1.6666667 7.3415633,7 5.50823,8.5 c -1.6875,0 -3,-2 -1,-5 -3.83333333,0.6666667 -4.33333333,4 -4.33333333,7.5 0,3 2.83333333,4.833333 7.83333333,4.833333 z"
       style="fill:none;stroke:#ffffff;stroke-width:1;stroke-miterlimit:4.5999999;stroke-opacity:0.47843137;stroke-dasharray:none"
       mask="url(#mask3989)" />
    <path
       style="fill:none;stroke:#a40000;stroke-width:0.33333334;stroke-miterlimit:4.5999999;stroke-opacity:1;stroke-dasharray:none"
       d="m 8.00823,15.833333 c 5,0 7.833333,-3.833333 7.833333,-6.833333 0,-1 0.166667,-5.5 -3.333333,-6.5 1.5,3.1666667 0.333333,5 -2.00823,5 0,-1 0.174897,-6.3333333 -5.3251033,-7.33333333 C 7.3415633,1.6666667 7.3415633,7 5.50823,8.5 c -1.6875,0 -3,-2 -1,-5 -3.83333333,0.6666667 -4.33333333,4 -4.33333333,7.5 0,3 2.83333333,4.833333 7.83333333,4.833333 z"
       id="path3981"
       inkscape:connector-curvature="0"
       transform="matrix(3,0,0,3,-126.02469,1004.3622)"
       sodipodi:nodetypes="zscccccsz" />
  </g>
</svg>
