<?xml version="1.0" encoding="UTF-8" standalone="no"?>
<!-- Created with Inkscape (http://www.inkscape.org/) -->

<svg
   xmlns:dc="http://purl.org/dc/elements/1.1/"
   xmlns:cc="http://creativecommons.org/ns#"
   xmlns:rdf="http://www.w3.org/1999/02/22-rdf-syntax-ns#"
   xmlns:svg="http://www.w3.org/2000/svg"
   xmlns="http://www.w3.org/2000/svg"
   xmlns:xlink="http://www.w3.org/1999/xlink"
   xmlns:sodipodi="http://sodipodi.sourceforge.net/DTD/sodipodi-0.dtd"
   xmlns:inkscape="http://www.inkscape.org/namespaces/inkscape"
   width="48px"
   height="48px"
   id="svg7581"
   sodipodi:version="0.32"
   inkscape:version="0.46+devel"
   sodipodi:docname="multimedia-player-motorola-rokr.svg"
   version="1.1">
  <defs
     id="defs7583">
    <inkscape:perspective
       sodipodi:type="inkscape:persp3d"
       inkscape:vp_x="0 : 24 : 1"
       inkscape:vp_y="0 : 1000 : 0"
       inkscape:vp_z="48 : 24 : 1"
       inkscape:persp3d-origin="24 : 16 : 1"
       id="perspective9756" />
    <linearGradient
       inkscape:collect="always"
       id="linearGradient2924">
      <stop
         style="stop-color:#ffffff;stop-opacity:1;"
         offset="0"
         id="stop2926" />
      <stop
         style="stop-color:#ffffff;stop-opacity:0;"
         offset="1"
         id="stop2928" />
    </linearGradient>
    <radialGradient
       inkscape:collect="always"
       xlink:href="#linearGradient2924"
       id="radialGradient4520"
       gradientUnits="userSpaceOnUse"
       gradientTransform="matrix(3.495075,4.547273e-2,-1.300942e-2,0.999915,-25.42067,-0.463789)"
       cx="10.268794"
       cy="37.354755"
       fx="10.268794"
       fy="37.354755"
       r="2.1875000" />
    <linearGradient
       inkscape:collect="always"
       id="linearGradient5919">
      <stop
         style="stop-color:#000000;stop-opacity:1;"
         offset="0"
         id="stop5921" />
      <stop
         style="stop-color:#000000;stop-opacity:0;"
         offset="1"
         id="stop5923" />
    </linearGradient>
    <radialGradient
       inkscape:collect="always"
       xlink:href="#linearGradient5919"
       id="radialGradient7013"
       gradientUnits="userSpaceOnUse"
       gradientTransform="matrix(1.000000,0.000000,0.000000,0.201878,4.252634e-14,36.03783)"
       cx="30.428225"
       cy="45.153286"
       fx="30.428225"
       fy="45.153286"
       r="13.474453" />
    <linearGradient
       inkscape:collect="always"
       xlink:href="#linearGradient19198"
       id="linearGradient4197"
       gradientUnits="userSpaceOnUse"
       gradientTransform="matrix(0.799360,0.000000,0.000000,0.747188,386.4357,188.1449)"
       x1="-462.03079"
       y1="-216.85661"
       x2="-443.46924"
       y2="-204.17659" />
    <linearGradient
       inkscape:collect="always"
       id="linearGradient19198">
      <stop
         style="stop-color:#d6d6d4;stop-opacity:1;"
         offset="0"
         id="stop19200" />
      <stop
         style="stop-color:#d6d6d4;stop-opacity:0;"
         offset="1"
         id="stop19202" />
    </linearGradient>
    <linearGradient
       inkscape:collect="always"
       xlink:href="#linearGradient19198"
       id="linearGradient3959"
       gradientUnits="userSpaceOnUse"
       gradientTransform="matrix(0.797456,0.000000,0.000000,0.742875,385.5564,187.2521)"
       x1="-458.00912"
       y1="-206.95709"
       x2="-452.35226"
       y2="-197.33253" />
    <linearGradient
       inkscape:collect="always"
       id="linearGradient4141">
      <stop
         style="stop-color:#636363;stop-opacity:1;"
         offset="0"
         id="stop4143" />
      <stop
         style="stop-color:#636363;stop-opacity:0;"
         offset="1"
         id="stop4145" />
    </linearGradient>
    <linearGradient
       inkscape:collect="always"
       xlink:href="#linearGradient4141"
       id="linearGradient4147"
       x1="-456.22388"
       y1="-244.17062"
       x2="-451.31165"
       y2="-244.87511"
       gradientUnits="userSpaceOnUse" />
    <linearGradient
       inkscape:collect="always"
       id="linearGradient4267">
      <stop
         style="stop-color:#9db029;stop-opacity:1;"
         offset="0"
         id="stop4269" />
      <stop
         style="stop-color:#9db029;stop-opacity:0;"
         offset="1"
         id="stop4271" />
    </linearGradient>
    <linearGradient
       inkscape:collect="always"
       xlink:href="#linearGradient4267"
       id="linearGradient4273"
       x1="191.13173"
       y1="-188.64658"
       x2="189.64017"
       y2="-192.71288"
       gradientUnits="userSpaceOnUse"
       gradientTransform="translate(-164.0044,215.5869)" />
    <linearGradient
       inkscape:collect="always"
       id="linearGradient4275">
      <stop
         style="stop-color:#cc0000;stop-opacity:1;"
         offset="0"
         id="stop4277" />
      <stop
         style="stop-color:#cc0000;stop-opacity:0;"
         offset="1"
         id="stop4279" />
    </linearGradient>
    <linearGradient
       inkscape:collect="always"
       xlink:href="#linearGradient4275"
       id="linearGradient4281"
       x1="-284.96951"
       y1="-77.512611"
       x2="-284.24194"
       y2="-80.599586"
       gradientUnits="userSpaceOnUse"
       gradientTransform="translate(265.0756,115.0400)" />
    <linearGradient
       inkscape:collect="always"
       id="linearGradient3056">
      <stop
         style="stop-color:#8d8d8d;stop-opacity:1;"
         offset="0"
         id="stop3058" />
      <stop
         style="stop-color:#8d8d8d;stop-opacity:0;"
         offset="1"
         id="stop3060" />
    </linearGradient>
    <linearGradient
       inkscape:collect="always"
       xlink:href="#linearGradient3056"
       id="linearGradient4021"
       gradientUnits="userSpaceOnUse"
       x1="-454.62939"
       y1="-212.70671"
       x2="-450.64621"
       y2="-209.19533" />
    <linearGradient
       inkscape:collect="always"
       id="linearGradient3066">
      <stop
         style="stop-color:#8d8d8d;stop-opacity:1;"
         offset="0"
         id="stop3068" />
      <stop
         style="stop-color:#8d8d8d;stop-opacity:0;"
         offset="1"
         id="stop3070" />
    </linearGradient>
    <linearGradient
       inkscape:collect="always"
       xlink:href="#linearGradient3066"
       id="linearGradient4023"
       gradientUnits="userSpaceOnUse"
       x1="-450.47763"
       y1="-207.90897"
       x2="-454.32587"
       y2="-211.44472" />
    <linearGradient
       inkscape:collect="always"
       id="linearGradient4227">
      <stop
         style="stop-color:#2e3436;stop-opacity:1;"
         offset="0"
         id="stop4229" />
      <stop
         style="stop-color:#2e3436;stop-opacity:0;"
         offset="1"
         id="stop4231" />
    </linearGradient>
    <linearGradient
       inkscape:collect="always"
       xlink:href="#linearGradient4227"
       id="linearGradient4233"
       x1="247.10906"
       y1="-138.39033"
       x2="249.82786"
       y2="-138.39033"
       gradientUnits="userSpaceOnUse" />
    <linearGradient
       inkscape:collect="always"
       xlink:href="#linearGradient4227"
       id="linearGradient7716"
       gradientUnits="userSpaceOnUse"
       x1="247.10906"
       y1="-138.39033"
       x2="249.82786"
       y2="-138.39033" />
    <linearGradient
       inkscape:collect="always"
       xlink:href="#linearGradient4227"
       id="linearGradient7718"
       gradientUnits="userSpaceOnUse"
       x1="247.10906"
       y1="-138.39033"
       x2="249.82786"
       y2="-138.39033" />
  </defs>
  <sodipodi:namedview
     id="base"
     pagecolor="#ffffff"
     bordercolor="#666666"
     borderopacity="1.0"
     inkscape:pageopacity="0.0"
     inkscape:pageshadow="2"
     inkscape:zoom="8"
     inkscape:cx="15.738583"
     inkscape:cy="28.302115"
     inkscape:current-layer="layer1"
     showgrid="false"
     inkscape:grid-bbox="true"
     inkscape:document-units="px"
     inkscape:showpageshadow="false"
     inkscape:window-width="954"
     inkscape:window-height="884"
     inkscape:window-x="571"
     inkscape:window-y="276"
     inkscape:window-maximized="0" />
  <metadata
     id="metadata7586">
    <rdf:RDF>
      <cc:Work
         rdf:about="">
        <dc:format>image/svg+xml</dc:format>
        <dc:type
           rdf:resource="http://purl.org/dc/dcmitype/StillImage" />
        <dc:title>Portable Media - Motorola ROKR</dc:title>
        <dc:date>October 2005</dc:date>
        <dc:creator>
          <cc:Agent>
            <dc:title>Ryan Collier (pseudo)</dc:title>
          </cc:Agent>
        </dc:creator>
        <dc:publisher>
          <cc:Agent>
            <dc:title>http://www.tango-project.org</dc:title>
          </cc:Agent>
        </dc:publisher>
        <dc:source>http://www.pseudocode.org</dc:source>
        <dc:subject>
          <rdf:Bag>
            <rdf:li>media</rdf:li>
            <rdf:li>device</rdf:li>
            <rdf:li>ipod</rdf:li>
            <rdf:li>phone</rdf:li>
          </rdf:Bag>
        </dc:subject>
        <cc:license
           rdf:resource="http://creativecommons.org/licenses/by-sa/2.0/" />
      </cc:Work>
      <cc:License
         rdf:about="http://creativecommons.org/licenses/by-sa/2.0/">
        <cc:permits
           rdf:resource="http://web.resource.org/cc/Reproduction" />
        <cc:permits
           rdf:resource="http://web.resource.org/cc/Distribution" />
        <cc:requires
           rdf:resource="http://web.resource.org/cc/Notice" />
        <cc:requires
           rdf:resource="http://web.resource.org/cc/Attribution" />
        <cc:permits
           rdf:resource="http://web.resource.org/cc/DerivativeWorks" />
        <cc:requires
           rdf:resource="http://web.resource.org/cc/ShareAlike" />
      </cc:License>
    </rdf:RDF>
  </metadata>
  <g
     id="layer1"
     inkscape:label="Layer 1"
     inkscape:groupmode="layer">
    <g
       style="display:inline"
       id="g4460"
       transform="translate(-51.97707,-55.98775)">
      <path
         transform="matrix(0.853330,-0.521371,0.544660,0.838657,0.000000,0.000000)"
         style="fill:#eeeeec;fill-opacity:1;stroke:#c2c2c2;stroke-width:0.5;stroke-linecap:round;stroke-linejoin:round;stroke-miterlimit:4;stroke-opacity:1"
         d="m 0.56405789,112.90335 10.56164511,0 c 0.838615,0 1.513746,0.62411 1.513746,1.39935 l 0,0.31396 c 0,0.77524 -0.675131,1.39935 -1.513746,1.39935 l -10.56164511,0 c -0.83861497,0 -1.51374543,-0.62411 -1.51374543,-1.39935 l 0,-0.31396 c 0,-0.77524 0.67513046,-1.39935 1.51374543,-1.39935 z"
         id="rect4462" />
      <g
         id="g4464">
        <path
           transform="matrix(0.844299,-0.535873,0.577335,0.816508,0.000000,0.000000)"
           style="fill:#ffffff;fill-opacity:1;stroke:#c2c2c2;stroke-width:0.55335927;stroke-linecap:round;stroke-linejoin:round;stroke-miterlimit:4;stroke-opacity:1"
           d="m -4.1476877,113.35451 7.3579831,0 c 0.6168457,0 1.1134398,0.54172 1.1134398,1.21463 l 0,0.10977 c 0,0.67291 -0.4965941,1.21464 -1.1134398,1.21464 l -7.3579831,0 c -0.6168456,0 -1.1134398,-0.54173 -1.1134398,-1.21464 l 0,-0.10977 c 0,-0.67291 0.4965942,-1.21463 1.1134398,-1.21463 z"
           id="rect4466" />
        <path
           transform="matrix(1.086779,0.000000,0.000000,1.086779,52.58125,47.69086)"
           style="fill:#c2c2c2;fill-opacity:1;stroke:none;display:inline"
           d="m 18.788321,41.231144 c 0,2.795018 -2.265809,5.060827 -5.060827,5.060827 -2.795017,0 -5.060827,-2.265809 -5.060827,-5.060827 0,-2.795018 2.26581,-5.060827 5.060827,-5.060827 2.795018,0 5.060827,2.265809 5.060827,5.060827 z"
           id="path4468" />
        <path
           transform="matrix(0.934525,0.000000,0.000000,0.934525,54.59161,53.99504)"
           style="fill:#ffffff;fill-opacity:1;stroke:none;display:inline"
           d="m 18.788321,41.231144 c 0,2.795018 -2.265809,5.060827 -5.060827,5.060827 -2.795017,0 -5.060827,-2.265809 -5.060827,-5.060827 0,-2.795018 2.26581,-5.060827 5.060827,-5.060827 2.795018,0 5.060827,2.265809 5.060827,5.060827 z"
           id="path4470" />
        <g
           id="g4472"
           transform="matrix(1.003468,0.000000,0.000000,0.969091,-0.221812,2.728540)">
          <path
             transform="matrix(0.787521,0.000000,0.000000,0.787521,57.14101,59.79048)"
             style="fill:#8d8d8d;fill-opacity:1;stroke:none"
             d="m 18.788321,41.231144 c 0,2.795018 -2.265809,5.060827 -5.060827,5.060827 -2.795017,0 -5.060827,-2.265809 -5.060827,-5.060827 0,-2.795018 2.26581,-5.060827 5.060827,-5.060827 2.795018,0 5.060827,2.265809 5.060827,5.060827 z"
             id="path4474" />
          <path
             transform="matrix(1.756842,0.000000,0.000000,1.756842,49.13326,25.12495)"
             style="opacity:0.46703294;fill:url(#radialGradient4520);fill-opacity:1;stroke:none"
             d="m 13.000001,38.25 c 0,1.208123 -0.979377,2.1875 -2.1875,2.1875 -1.2081229,0 -2.1875,-0.979377 -2.1875,-2.1875 0,-1.208123 0.9793771,-2.1875 2.1875,-2.1875 1.208123,0 2.1875,0.979377 2.1875,2.1875 z"
             id="path4476" />
        </g>
      </g>
    </g>
    <path
       transform="matrix(0.705036,0.000000,0.000000,1.419008,3.056230,-20.92065)"
       style="opacity:0.44999994;fill:url(#radialGradient7013);fill-opacity:1;stroke:none;display:inline"
       d="m 43.902678,45.153286 c 0,1.502322 -6.032719,2.720195 -13.474453,2.720195 -7.441735,0 -13.474453,-1.217873 -13.474453,-2.720195 0,-1.502322 6.032718,-2.720195 13.474453,-2.720195 7.441734,0 13.474453,1.217873 13.474453,2.720195 z"
       id="path5789" />
    <path
       style="fill:#f8f8f7;fill-opacity:1;stroke:#888a85;stroke-width:1.00000036;stroke-linecap:round;stroke-linejoin:round;stroke-miterlimit:4;stroke-opacity:1;display:inline"
       d="m 24.045506,2.5109308 0.92731,0 c 4.719688,0 8.519293,2.0256513 8.519293,4.5418191 l 0,32.9190971 c 0,2.516168 -3.799605,4.541819 -8.519293,4.541819 l -0.92731,0 c -4.719688,0 -8.519293,-2.025651 -8.519293,-4.541819 l 0,-32.9190971 c 0,-2.5161678 3.799605,-4.5418191 8.519293,-4.5418191 z"
       id="rect5807" />
    <path
       style="opacity:1.0000000;fill:#636363;fill-opacity:1.0000000;stroke:none;stroke-width:0.99999970;stroke-linecap:round;stroke-linejoin:round;stroke-miterlimit:4.0000000;stroke-opacity:1.0000000;display:inline"
       d="M 20.009230,4.6374579 C 20.009230,4.6374579 22.259230,4.0122579 24.509230,4.0122579 C 26.759230,4.0122579 29.009230,4.6374579 29.009230,4.6374579 L 29.009230,13.012259 L 20.009230,13.012259 L 20.009230,4.6374579 z "
       id="path4041"
       sodipodi:nodetypes="cscccc" />
    <path
       style="opacity:1.0000000;fill:#babbb8;fill-opacity:1.0000000;stroke:none;stroke-width:0.99999970;stroke-linecap:round;stroke-linejoin:round;stroke-miterlimit:4.0000000;stroke-opacity:1.0000000;display:inline"
       d="M 21.009230,4.3595879 C 21.009230,4.3595879 22.696730,4.0122579 24.384230,4.0122579 C 26.071730,4.0122579 27.759230,4.3595879 27.759230,4.3595879 L 27.759230,9.0122581 L 21.009230,9.0122581 L 21.009230,4.3595879 z "
       id="path4043"
       sodipodi:nodetypes="cscccc" />
    <path
       style="opacity:0.57692309;fill:none;stroke:#ffffff;stroke-width:1.00000024;stroke-linecap:round;stroke-linejoin:round;stroke-miterlimit:4;stroke-opacity:1;display:inline"
       d="m 24.246888,3.5012257 0.523924,0 c 4.286874,0 7.73804,1.6214645 7.73804,3.6355705 l 0,32.7465478 c 0,2.014106 -3.451166,3.63557 -7.73804,3.63557 l -0.523924,0 c -4.286874,0 -7.73804,-1.621464 -7.73804,-3.63557 l 0,-32.7465478 c 0,-2.014106 3.451166,-3.6355705 7.73804,-3.6355705 z"
       id="rect5871" />
    <path
       style="opacity:1.0000000;fill:#babbb8;fill-opacity:1.0000000;stroke:none;stroke-width:0.99999970;stroke-linecap:round;stroke-linejoin:round;stroke-miterlimit:4.0000000;stroke-opacity:1.0000000;display:inline"
       d="M 17.009230,6.4015981 C 17.009230,6.4015981 20.759230,5.0122581 24.509230,5.0122581 C 28.259230,5.0122581 32.009230,6.4015981 32.009230,6.4015981 L 32.009230,25.012259 L 17.009230,25.012259 L 17.009230,6.4015981 z "
       id="path5815"
       sodipodi:nodetypes="cscccc" />
    <path
       style="opacity:1.0000000;fill:url(#linearGradient4197);fill-opacity:1.0000000;stroke:#2e3436;stroke-width:0.20000008;stroke-linecap:round;stroke-linejoin:miter;stroke-miterlimit:4.0000000;stroke-dasharray:none;stroke-opacity:1.0000000;display:inline"
       d="M 17.107220,26.112259 L 31.909230,26.112259 L 31.909230,27.763329 C 31.909230,27.763329 28.173410,29.183249 24.472900,29.183249 C 20.772390,29.183249 17.107220,27.763329 17.107220,27.763329 L 17.107220,26.112259 z "
       id="path5825"
       sodipodi:nodetypes="cccscc" />
    <path
       style="opacity:1.0000000;fill:url(#linearGradient3959);fill-opacity:1.0000000;stroke:#2e3436;stroke-width:0.19999999;stroke-linecap:round;stroke-linejoin:miter;stroke-miterlimit:4.0000000;stroke-dasharray:none;stroke-opacity:1.0000000;display:inline"
       d="M 17.107220,31.112259 C 17.107220,31.112259 20.790100,32.326989 24.490600,32.326989 C 28.191100,32.326989 31.909230,31.112259 31.909230,31.112259 L 31.909230,40.665999 C 31.909230,40.665999 28.191100,41.913569 24.490600,41.913569 C 20.790100,41.913569 17.107220,40.665999 17.107220,40.665999 L 17.107220,31.112259 z "
       id="path5827"
       sodipodi:nodetypes="csccscc" />
    <path
       transform="matrix(0.991042,-0.133549,0.000000,1.000000,0.000000,0.000000)"
       style="fill:#2e3436;fill-opacity:1;fill-rule:nonzero;stroke:none;display:inline"
       d="m 27.253216,35.851341 0.323868,0 0,9.640131 -0.323868,0 0,-9.640131 z"
       id="rect5877" />
    <path
       transform="matrix(0.995500,9.476264e-2,0.000000,1.000000,0.000000,0.000000)"
       style="fill:#2e3436;fill-opacity:1;fill-rule:nonzero;stroke:none;display:inline"
       d="m 21.786154,30.127481 0.322418,0 0,9.625616 -0.322418,0 0,-9.625616 z"
       id="rect5929" />
    <path
       style="fill:#eaeef9;fill-opacity:1;stroke:#2e3436;stroke-width:0.99999988;stroke-linecap:round;stroke-linejoin:round;stroke-miterlimit:4;stroke-opacity:1;display:inline"
       d="m 19.012118,8.511097 10.994215,0 c 0.275919,0 0.498049,0.2516954 0.498049,0.5643395 l 0,12.8734605 c 0,0.312644 -0.22213,0.564339 -0.498049,0.564339 l -10.994215,0 c -0.275919,0 -0.498049,-0.251695 -0.498049,-0.564339 l 0,-12.8734605 c 0,-0.3126441 0.22213,-0.5643395 0.498049,-0.5643395 z"
       id="rect5829" />
    <path
       style="fill:#ffffff;fill-opacity:1;fill-rule:nonzero;stroke:none;display:inline"
       d="m 19.009232,21.012257 11,0 0,1 -11,0 0,-1 z"
       id="rect3899" />
    <path
       style="fill:#8d8d8d;fill-opacity:1;stroke:none;display:inline"
       d="m 23.009232,21.012257 3,0 0,1 -3,0 0,-1 z"
       id="rect5853" />
    <path
       transform="matrix(1.087854,0.000000,0.000000,1.087874,517.3928,271.5687)"
       style="fill:#fcfcfc;fill-opacity:1;stroke:none;display:inline"
       d="m -450.78058,-244.56543 c 0,1.2692 -1.02889,2.2981 -2.29809,2.2981 -1.26921,0 -2.2981,-1.0289 -2.2981,-2.2981 0,-1.2692 1.02889,-2.2981 2.2981,-2.2981 1.2692,0 2.29809,1.0289 2.29809,2.2981 z"
       id="path5923" />
    <path
       transform="matrix(-0.411525,-0.967860,0.986061,-0.403944,79.16563,-531.7943)"
       style="fill:url(#linearGradient4147);fill-opacity:1;stroke:#ffffff;stroke-width:0.17367196;stroke-linecap:round;stroke-linejoin:round;stroke-miterlimit:4;stroke-opacity:1;display:inline"
       d="m -450.78058,-244.56543 c 0,1.2692 -1.02889,2.2981 -2.29809,2.2981 -1.26921,0 -2.2981,-1.0289 -2.2981,-2.2981 0,-1.2692 1.02889,-2.2981 2.2981,-2.2981 1.2692,0 2.29809,1.0289 2.29809,2.2981 z"
       id="path4139" />
    <path
       style="fill:#2e3436;fill-opacity:1;fill-rule:nonzero;stroke:none;display:inline"
       d="m 20.682312,26.012257 0.320967,0 0,2.75 -0.320967,0 0,-2.75 z"
       id="rect5931" />
    <path
       style="fill:#2e3436;fill-opacity:1;fill-rule:nonzero;stroke:none;display:inline"
       d="m 24.416443,26.012257 0.320967,0 0,3.162726 -0.320967,0 0,-3.162726 z"
       id="rect5933" />
    <path
       style="fill:#2e3436;fill-opacity:1;fill-rule:nonzero;stroke:none;display:inline"
       d="m 28.009233,26.012257 0.320968,0 0,2.734375 -0.320968,0 0,-2.734375 z"
       id="rect5935" />
    <g
       style="fill:#9db029;fill-opacity:1.0000000;display:inline"
       id="g5937"
       transform="matrix(0.806963,0.000000,0.000000,0.773853,259.1050,-4.840241)">
      <path
         style="fill:#9db029;fill-rule:nonzero;stroke:none"
         d="m -293.40439,40.724133 0.25774,0 0,1.374598 -0.25774,0 0,-1.374598 z"
         id="rect5939" />
      <path
         style="fill:#9db029;fill-rule:nonzero;stroke:none"
         d="m -292.35196,40.616741 0.21478,0 0,1.35312 -0.21478,0 0,-1.35312 z"
         id="rect5941" />
      <path
         transform="matrix(0.687299,0.000000,0.000000,0.687299,-91.44587,12.96369)"
         style="fill:#9db029;fill-rule:nonzero;stroke:none"
         d="m -293.46875,42.421875 c 0,0.267513 -0.21686,0.484375 -0.48437,0.484375 -0.26752,0 -0.48438,-0.216862 -0.48438,-0.484375 0,-0.267513 0.21686,-0.484375 0.48438,-0.484375 0.26751,0 0.48437,0.216862 0.48437,0.484375 z"
         id="path5943" />
      <path
         transform="matrix(0.687299,0.000000,0.000000,0.687299,-90.43640,12.77576)"
         style="fill:#9db029;fill-rule:nonzero;stroke:none;display:inline"
         d="m -293.46875,42.421875 c 0,0.267513 -0.21686,0.484375 -0.48437,0.484375 -0.26752,0 -0.48438,-0.216862 -0.48438,-0.484375 0,-0.267513 0.21686,-0.484375 0.48438,-0.484375 0.26751,0 0.48437,0.216862 0.48437,0.484375 z"
         id="path5945" />
      <path
         transform="matrix(0.968172,-0.250286,2.459882e-2,0.999697,0.000000,0.000000)"
         style="fill:#9db029;fill-rule:nonzero;stroke:none"
         d="m -302.16422,-34.917404 1.31042,0 0,0.238654 -1.31042,0 0,-0.238654 z"
         id="rect5947" />
    </g>
    <path
       transform="matrix(0.974496,0.224406,-0.297649,0.954675,0.000000,0.000000)"
       style="fill:url(#linearGradient4273);fill-opacity:1;stroke:none;display:inline"
       d="m 26.26618,24.260389 1.794079,0 c 0.624206,0 1.126726,0.352684 1.126726,0.79077 0,0.438087 -0.50252,0.79077 -1.126726,0.79077 l -1.794079,0 c -0.624206,0 -1.126726,-0.352683 -1.126726,-0.79077 0,-0.438086 0.50252,-0.79077 1.126726,-0.79077 z"
       id="rect5819" />
    <path
       transform="matrix(-0.974716,0.223447,0.298875,0.954292,0.000000,0.000000)"
       style="fill:url(#linearGradient4281);fill-opacity:1;stroke:none;display:inline"
       d="m -20.626736,35.276077 1.793163,0 c 0.624205,0 1.126724,0.351237 1.126724,0.787527 0,0.43629 -0.502519,0.787527 -1.126724,0.787527 l -1.793163,0 c -0.624205,0 -1.126724,-0.351237 -1.126724,-0.787527 0,-0.43629 0.502519,-0.787527 1.126724,-0.787527 z"
       id="rect5823" />
    <g
       style="display:inline"
       id="g4005"
       transform="matrix(0.927003,0.000000,0.000000,0.967660,-205.8814,164.4523)">
      <path
         transform="matrix(0.806963,0.000000,0.000000,0.773853,613.6647,24.45757)"
         style="fill:#ffffff;fill-opacity:1;stroke:none;display:inline"
         d="m -449.1454,-210.46962 c 0,1.84279 -1.49387,3.33666 -3.33666,3.33666 -1.84278,0 -3.33666,-1.49387 -3.33666,-3.33666 0,-1.84279 1.49388,-3.33666 3.33666,-3.33666 1.84279,0 3.33666,1.49387 3.33666,3.33666 z"
         id="path5949" />
      <path
         transform="matrix(0.806963,0.000000,0.000000,0.773853,613.6734,24.45463)"
         style="opacity:0.59340665;fill:url(#linearGradient4021);fill-opacity:1;stroke:none;display:inline"
         d="m -449.1454,-210.46962 c 0,1.84279 -1.49387,3.33666 -3.33666,3.33666 -1.84278,0 -3.33666,-1.49387 -3.33666,-3.33666 0,-1.84279 1.49388,-3.33666 3.33666,-3.33666 1.84279,0 3.33666,1.49387 3.33666,3.33666 z"
         id="path5951" />
    </g>
    <g
       id="g4009"
       transform="matrix(0.927003,0.000000,0.000000,0.967660,-205.8814,164.4523)"
       style="opacity:1.0000000;stroke:url(#linearGradient4233);stroke-width:0.23522232;stroke-miterlimit:4.0000000;stroke-dasharray:none;stroke-opacity:1.0000000;display:inline">
      <path
         transform="matrix(0.806963,0.000000,0.000000,0.773853,614.4849,24.85084)"
         style="fill:#ffffff;fill-opacity:1;stroke:url(#linearGradient7716);stroke-width:0.29766136;stroke-linecap:round;stroke-linejoin:round;display:inline"
         d="m -452.04012,-210.94472 c 0,0.84817 -0.68758,1.53575 -1.53575,1.53575 -0.84817,0 -1.53574,-0.68758 -1.53574,-1.53575 0,-0.84817 0.68757,-1.53574 1.53574,-1.53574 0.84817,0 1.53575,0.68757 1.53575,1.53574 z"
         id="path5953" />
      <path
         transform="matrix(0.806963,0.000000,0.000000,0.773853,614.4899,24.84890)"
         style="fill:url(#linearGradient4023);fill-opacity:1;stroke:url(#linearGradient7718);stroke-width:0.29766136;stroke-linecap:round;stroke-linejoin:round;display:inline"
         d="m -452.04012,-210.94472 c 0,0.84817 -0.68758,1.53575 -1.53575,1.53575 -0.84817,0 -1.53574,-0.68758 -1.53574,-1.53575 0,-0.84817 0.68757,-1.53574 1.53574,-1.53574 0.84817,0 1.53575,0.68757 1.53575,1.53574 z"
         id="path6001" />
    </g>
    <path
       style="fill:#8d8d8d;fill-opacity:1;stroke:none;display:inline"
       d="m 27.009233,21.012257 2,0 0,1 -2,0 0,-1 z"
       id="rect3915" />
    <path
       style="fill:#8d8d8d;fill-opacity:1;stroke:none;display:inline"
       d="m 20.009232,21.012257 2,0 0,1 -2,0 0,-1 z"
       id="rect3917" />
    <path
       style="fill:#ffffff;fill-opacity:1;fill-rule:nonzero;stroke:none;display:inline"
       d="m 19.009232,9.0122566 11,0 0,1.0000004 -11,0 0,-1.0000004 z"
       id="rect3919" />
    <path
       style="fill:#cee14b;fill-opacity:1;stroke:none;display:inline"
       d="m 27.009233,9.0122566 2,0 0,1.0000004 -2,0 0,-1.0000004 z"
       id="rect3921" />
    <path
       style="fill:#8d8d8d;fill-opacity:1;stroke:none;display:inline"
       d="m 24.009232,14.009586 5.009231,0 0,1 -5.009231,0 0,-1 z"
       id="rect3923" />
    <path
       style="fill:#8d8d8d;fill-opacity:1;stroke:none;display:inline"
       d="m 20.009232,9.0122566 6,0 0,1.0000004 -6,0 0,-1.0000004 z"
       id="rect3927" />
    <path
       style="fill:#d3d7cf;fill-opacity:1;stroke:none;display:inline"
       d="m 20,18.012257 9,0 0,1 -9,0 0,-1 z"
       id="rect3931" />
    <path
       style="fill:#729fcf;fill-opacity:1;stroke:none;display:inline"
       d="m 20,18.009586 7,0 0,1 -7,0 0,-1 z"
       id="rect3933" />
    <path
       style="fill:#8f5902;fill-opacity:1;stroke:none;display:inline"
       d="m 20.50728,12.009586 2.003918,0 c 0.275919,0 0.498049,0.22213 0.498049,0.49805 l 0,2.003901 c 0,0.275919 -0.22213,0.498049 -0.498049,0.498049 l -2.003918,0 c -0.275919,0 -0.498048,-0.22213 -0.498048,-0.498049 l 0,-2.003901 c 0,-0.27592 0.222129,-0.49805 0.498048,-0.49805 z"
       id="rect3935" />
    <path
       style="fill:#8d8d8d;fill-opacity:1;stroke:none;display:inline"
       d="m 24.009232,12.009586 5.009231,0 0,1 -5.009231,0 0,-1 z"
       id="rect3941" />
    <path
       style="fill:#8d8d8d;fill-opacity:1;stroke:none;display:inline"
       d="m 24.009232,16.009586 5.009231,0 0,1 -5.009231,0 0,-1 z"
       id="rect3947" />
    <path
       style="opacity:0.70329672;fill:#ffffff;fill-opacity:1.0000000;stroke:none;stroke-width:1.0000000;stroke-linecap:round;stroke-linejoin:round;stroke-miterlimit:4.0000000;stroke-opacity:1.0000000;display:inline"
       d="M 19.014790,9.0399381 C 19.014790,9.0399381 29.412950,9.0145381 30.009230,9.0122581 C 30.009230,9.0122581 27.031240,13.425069 25.362250,14.903419 C 23.071600,16.932439 20.163200,15.995999 19.031990,22.008859 C 18.987230,22.246839 19.023910,9.9017385 19.014790,9.0399381 z "
       id="path6767"
       sodipodi:nodetypes="ccssc" />
    <path
       style="fill:#babbb8;fill-opacity:1;fill-rule:nonzero;stroke:none;display:inline"
       d="m 22.009231,42.01226 5.000001,0 c 0.554,0 1,0.446 1,1 l 0,1e-6 c 0,0.554 -0.446,0.999999 -1,0.999999 l -5.000001,0 c -0.553999,0 -0.999999,-0.445999 -0.999999,-0.999999 l 0,-1e-6 c 0,-0.554 0.446,-1 0.999999,-1 z"
       id="rect3957" />
    <path
       style="opacity:1.0000000;fill:#2e3436;fill-opacity:1.0000000;stroke:none;stroke-width:1.0000000;stroke-linecap:round;stroke-linejoin:round;stroke-miterlimit:4.0000000;stroke-opacity:1.0000000;display:inline"
       d="M 17.009230,37.012259 C 17.009230,37.012259 20.741370,38.673579 24.491370,38.673579 C 28.241370,38.673579 32.009230,37.012259 32.009230,37.012259 L 32.009230,37.306039 C 32.009230,37.306039 28.241370,39.012259 24.491370,39.012259 C 20.741370,39.012259 17.009230,37.306039 17.009230,37.306039 L 17.009230,37.012259 z "
       id="path5879"
       sodipodi:nodetypes="csccscc" />
    <path
       style="opacity:1.0000000;fill:#2e3436;fill-opacity:1.0000000;stroke:none;stroke-width:1.0000000;stroke-linecap:round;stroke-linejoin:round;stroke-miterlimit:4.0000000;stroke-opacity:1.0000000;display:inline"
       d="M 17.009230,34.012259 C 17.009230,34.012259 20.741380,35.673579 24.491370,35.673579 C 28.241370,35.673579 32.009230,34.012259 32.009230,34.012259 L 32.009230,34.306019 C 32.009230,34.306019 28.241370,36.012259 24.491370,36.012259 C 20.741380,36.012259 17.009230,34.306019 17.009230,34.306019 L 17.009230,34.012259 z "
       id="path5875"
       sodipodi:nodetypes="csccscc" />
    <path
       style="opacity:0.37899996;fill:#fcfcfc;fill-opacity:1;fill-rule:nonzero;stroke:none;display:inline"
       d="m 15.00923,12.012257 1,0 0,1 -1,0 0,-1 z"
       id="rect4045" />
    <path
       style="opacity:0.37899996;fill:#fcfcfc;fill-opacity:1;fill-rule:nonzero;stroke:none;display:inline"
       d="m 15.00923,14.012257 1,0 0,1 -1,0 0,-1 z"
       id="rect4047" />
    <path
       style="opacity:0.37899996;fill:#fcfcfc;fill-opacity:1;fill-rule:nonzero;stroke:none;display:inline"
       d="m 15.00923,16.012257 1,0 0,1 -1,0 0,-1 z"
       id="rect4049" />
    <path
       style="opacity:0.37899996;fill:#fcfcfc;fill-opacity:1;fill-rule:nonzero;stroke:none;display:inline"
       d="m 15.00923,18.012257 1,0 0,1 -1,0 0,-1 z"
       id="rect4053" />
    <path
       style="opacity:0.37899996;fill:#fcfcfc;fill-opacity:1;fill-rule:nonzero;stroke:none;display:inline"
       d="m 15.00923,20.012257 1,0 0,1 -1,0 0,-1 z"
       id="rect4055" />
    <path
       style="opacity:0.37899996;fill:#fcfcfc;fill-opacity:1;fill-rule:nonzero;stroke:none;display:inline"
       d="m 33.009232,12.012257 1,0 0,1 -1,0 0,-1 z"
       id="rect4057" />
    <path
       style="opacity:0.37899996;fill:#fcfcfc;fill-opacity:1;fill-rule:nonzero;stroke:none;display:inline"
       d="m 33.009232,14.012257 1,0 0,1 -1,0 0,-1 z"
       id="rect4059" />
    <path
       style="opacity:0.37899996;fill:#fcfcfc;fill-opacity:1;fill-rule:nonzero;stroke:none;display:inline"
       d="m 33.009232,16.012257 1,0 0,1 -1,0 0,-1 z"
       id="rect4061" />
    <path
       style="opacity:0.37899996;fill:#fcfcfc;fill-opacity:1;fill-rule:nonzero;stroke:none;display:inline"
       d="m 33.009232,18.012257 1,0 0,1 -1,0 0,-1 z"
       id="rect4063" />
    <path
       style="opacity:0.37899996;fill:#fcfcfc;fill-opacity:1;fill-rule:nonzero;stroke:none;display:inline"
       d="m 33.009232,20.012257 1,0 0,1 -1,0 0,-1 z"
       id="rect4065" />
    <path
       style="opacity:0.37899996;fill:#fcfcfc;fill-opacity:1;fill-rule:nonzero;stroke:none;display:inline"
       d="m 15.00923,10.012257 1,0 0,1 -1,0 0,-1 z"
       id="rect4069" />
    <path
       style="opacity:0.37899996;fill:#fcfcfc;fill-opacity:1;fill-rule:nonzero;stroke:none;display:inline"
       d="m 33.009232,10.012257 1,0 0,1 -1,0 0,-1 z"
       id="rect4071" />
    <path
       style="opacity:1.0000000;fill:#636363;fill-opacity:1.0000000;fill-rule:nonzero;stroke:none;stroke-width:1.6503670;stroke-linecap:butt;stroke-linejoin:round;stroke-miterlimit:4.0000000;stroke-dasharray:none;stroke-opacity:1.0000000;display:inline"
       d="M 24.487850,3.9374279 L 23.481570,6.7987481 L 24.545910,6.0700981 L 25.552180,6.7632081 L 24.487850,3.9374279 z "
       id="path4109"
       sodipodi:nodetypes="ccccc" />
    <g
       style="display:inline"
       id="g4478"
       transform="translate(-57.79437,-55.98775)">
      <path
         sodipodi:nodetypes="cs"
         id="path4480"
         d="M 97.882670,96.940154 C 104.58992,95.384481 92.027568,94.625463 91.340359,94.707010"
         style="fill:none;fill-opacity:0.75000000;fill-rule:evenodd;stroke:#c2c2c2;stroke-width:1.9125019;stroke-linecap:butt;stroke-linejoin:round;stroke-miterlimit:4.0000000;stroke-dasharray:none;stroke-opacity:1.0000000;display:inline" />
      <path
         sodipodi:nodetypes="cs"
         id="path4482"
         d="M 97.875398,96.899543 C 104.58265,95.343870 92.020297,94.584853 91.333078,94.666399"
         style="fill:none;fill-opacity:1.0000000;fill-rule:evenodd;stroke:#ffffff;stroke-width:0.78483576;stroke-linecap:butt;stroke-linejoin:miter;stroke-miterlimit:4.0000000;stroke-dasharray:none;stroke-opacity:1.0000000;display:inline" />
      <g
         transform="matrix(1.148447,0.000000,0.000000,1.148447,52.40950,48.70484)"
         id="g4484"
         style="fill:#c2c2c2;fill-opacity:1.0000000;display:inline">
        <path
           transform="matrix(1.044369,0.000000,0.000000,1.044369,-1.649051,-1.715604)"
           style="fill:#c2c2c2;stroke:none;display:inline"
           d="m 35.40625,41.484375 c 0,2.528429 -2.049696,4.578125 -4.578125,4.578125 -2.528429,0 -4.578125,-2.049696 -4.578125,-4.578125 0,-2.528429 2.049696,-4.578125 4.578125,-4.578125 2.528429,0 4.578125,2.049696 4.578125,4.578125 z"
           id="path4486" />
        <path
           transform="translate(0.250000,0.343750)"
           style="fill:#c2c2c2;stroke:none"
           d="m 35.40625,41.484375 c 0,2.528429 -2.049696,4.578125 -4.578125,4.578125 -2.528429,0 -4.578125,-2.049696 -4.578125,-4.578125 0,-2.528429 2.049696,-4.578125 4.578125,-4.578125 2.528429,0 4.578125,2.049696 4.578125,4.578125 z"
           id="path4488" />
      </g>
      <path
         transform="matrix(1.028210,0.000000,0.000000,1.028210,55.83221,53.73015)"
         style="fill:#eeeeec;fill-opacity:1;stroke:none;display:inline"
         d="m 35.40625,41.484375 c 0,2.528429 -2.049696,4.578125 -4.578125,4.578125 -2.528429,0 -4.578125,-2.049696 -4.578125,-4.578125 0,-2.528429 2.049696,-4.578125 4.578125,-4.578125 2.528429,0 4.578125,2.049696 4.578125,4.578125 z"
         id="path4490" />
      <path
         transform="matrix(0.984529,0.000000,0.000000,0.984529,57.70180,55.75757)"
         style="fill:#ffffff;fill-opacity:1;stroke:none;display:inline"
         d="m 35.40625,41.484375 c 0,2.528429 -2.049696,4.578125 -4.578125,4.578125 -2.528429,0 -4.578125,-2.049696 -4.578125,-4.578125 0,-2.528429 2.049696,-4.578125 4.578125,-4.578125 2.528429,0 4.578125,2.049696 4.578125,4.578125 z"
         id="path4492" />
      <g
         transform="matrix(1.007793,0.000000,0.000000,1.004691,56.19417,54.31610)"
         id="g4494"
         style="display:inline">
        <path
           transform="matrix(0.985898,-0.167348,0.194419,0.980919,0.000000,0.000000)"
           style="fill:#eeeeec;fill-opacity:1;stroke:#c2c2c2;stroke-width:0.49689928;stroke-linecap:round;stroke-linejoin:round;stroke-miterlimit:4;stroke-opacity:1"
           d="m 22.317333,47.136684 10.25294,0 c 0.894166,0 1.614019,0.688598 1.614019,1.543941 0,0.855343 -0.719853,1.543941 -1.614019,1.543941 l -10.25294,0 c -0.894167,0 -1.614019,-0.688598 -1.614019,-1.543941 0,-0.855343 0.719852,-1.543941 1.614019,-1.543941 z"
           id="rect4496" />
        <path
           transform="matrix(0.984635,-0.174627,0.177401,0.984139,0.000000,0.000000)"
           style="fill:#ffffff;fill-opacity:1;stroke:#c2c2c2;stroke-width:0.5495854;stroke-linecap:round;stroke-linejoin:round;stroke-miterlimit:4;stroke-opacity:1"
           d="m 23.018607,47.28104 6.752176,0 c 0.752698,0 1.358661,0.668859 1.358661,1.499682 l 0,0.08088 c 0,0.830824 -0.605963,1.499683 -1.358661,1.499683 l -6.752176,0 c -0.752698,0 -1.358661,-0.668859 -1.358661,-1.499683 l 0,-0.08088 c 0,-0.830823 0.605963,-1.499682 1.358661,-1.499682 z"
           id="rect4498" />
      </g>
      <g
         transform="matrix(1.211847,0.000000,0.000000,1.211847,52.90119,45.21661)"
         id="g4500"
         style="display:inline">
        <path
           transform="translate(-0.343750,-9.375000e-2)"
           style="fill:#cacaca;fill-opacity:1;stroke:none"
           d="m 30.03125,39.921875 c 0,0.422843 -0.342782,0.765625 -0.765625,0.765625 -0.422843,0 -0.765625,-0.342782 -0.765625,-0.765625 0,-0.422843 0.342782,-0.765625 0.765625,-0.765625 0.422843,0 0.765625,0.342782 0.765625,0.765625 z"
           id="path4502" />
        <g
           transform="matrix(-1.807284e-15,-1.000000,1.000000,-1.807284e-15,0.000000,0.000000)"
           style="font-size:1.31750739px;font-style:normal;font-variant:normal;font-weight:bold;font-stretch:normal;text-align:start;line-height:125%;writing-mode:lr-tb;text-anchor:start;fill:#ffffff;fill-opacity:1;stroke:none;font-family:Bitstream Vera Sans"
           id="text4504">
          <path
             d="m -39.876388,28.887046 c 0.05189,10e-7 0.08899,-0.0096 0.111293,-0.02895 0.02273,-0.0193 0.0341,-0.05104 0.0341,-0.09521 -1e-6,-0.04374 -0.01137,-0.07505 -0.0341,-0.09392 -0.0223,-0.01887 -0.0594,-0.02831 -0.111293,-0.02831 l -0.104217,0 0,0.246389 0.104217,0 m -0.104217,0.171122 0,0.363472 -0.247676,0 0,-0.960468 0.378269,0 c 0.126518,10e-7 0.219155,0.02123 0.277911,0.06369 0.05918,0.04246 0.08878,0.109579 0.08878,0.201358 -1e-6,0.06347 -0.01544,0.115582 -0.04632,0.156325 -0.03045,0.04074 -0.07655,0.07077 -0.138312,0.09006 0.03388,0.0077 0.06412,0.0253 0.09071,0.05275 0.02702,0.02702 0.05425,0.06819 0.0817,0.123516 l 0.134452,0.272765 -0.263758,0 -0.117084,-0.238669 c -0.02359,-0.04803 -0.0476,-0.08084 -0.07205,-0.09843 -0.02402,-0.01758 -0.05618,-0.02638 -0.0965,-0.02638 l -0.07012,0"
             style=""
             id="path9820" />
        </g>
      </g>
      <path
         transform="matrix(4.648302e-8,-0.525081,0.525081,4.648302e-8,63.94198,112.1245)"
         style="fill:#8d8d8d;fill-opacity:1;stroke:none;display:inline"
         d="m 31.874998,38.90625 c 0,0.258883 -0.209866,0.46875 -0.46875,0.46875 -0.258883,0 -0.46875,-0.209867 -0.46875,-0.46875 0,-0.258883 0.209867,-0.46875 0.46875,-0.46875 0.258884,0 0.46875,0.209867 0.46875,0.46875 z"
         id="path4508" />
      <path
         transform="matrix(4.648302e-8,-0.525081,0.525081,4.648302e-8,64.44962,111.0811)"
         style="fill:#8d8d8d;fill-opacity:1;stroke:none;display:inline"
         d="m 31.874998,38.90625 c 0,0.258883 -0.209866,0.46875 -0.46875,0.46875 -0.258883,0 -0.46875,-0.209867 -0.46875,-0.46875 0,-0.258883 0.209867,-0.46875 0.46875,-0.46875 0.258884,0 0.46875,0.209867 0.46875,0.46875 z"
         id="path4510" />
      <path
         transform="matrix(4.648302e-8,-0.525081,0.525081,4.648302e-8,65.15726,110.3156)"
         style="fill:#8d8d8d;fill-opacity:1;stroke:none;display:inline"
         d="m 31.874998,38.90625 c 0,0.258883 -0.209866,0.46875 -0.46875,0.46875 -0.258883,0 -0.46875,-0.209867 -0.46875,-0.46875 0,-0.258883 0.209867,-0.46875 0.46875,-0.46875 0.258884,0 0.46875,0.209867 0.46875,0.46875 z"
         id="path4512" />
      <path
         transform="matrix(4.648302e-8,-0.525081,0.525081,4.648302e-8,63.85072,113.2347)"
         style="fill:#8d8d8d;fill-opacity:1;stroke:none;display:inline"
         d="m 31.874998,38.90625 c 0,0.258883 -0.209866,0.46875 -0.46875,0.46875 -0.258883,0 -0.46875,-0.209867 -0.46875,-0.46875 0,-0.258883 0.209867,-0.46875 0.46875,-0.46875 0.258884,0 0.46875,0.209867 0.46875,0.46875 z"
         id="path4514" />
      <path
         transform="matrix(4.648302e-8,-0.525081,0.525081,4.648302e-8,64.12085,114.3221)"
         style="fill:#8d8d8d;fill-opacity:1;stroke:none;display:inline"
         d="m 31.874998,38.90625 c 0,0.258883 -0.209866,0.46875 -0.46875,0.46875 -0.258883,0 -0.46875,-0.209867 -0.46875,-0.46875 0,-0.258883 0.209867,-0.46875 0.46875,-0.46875 0.258884,0 0.46875,0.209867 0.46875,0.46875 z"
         id="path4516" />
      <path
         transform="matrix(4.648302e-8,-0.525081,0.525081,4.648302e-8,64.65661,115.3336)"
         style="fill:#8d8d8d;fill-opacity:1;stroke:none;display:inline"
         d="m 31.874998,38.90625 c 0,0.258883 -0.209866,0.46875 -0.46875,0.46875 -0.258883,0 -0.46875,-0.209867 -0.46875,-0.46875 0,-0.258883 0.209867,-0.46875 0.46875,-0.46875 0.258884,0 0.46875,0.209867 0.46875,0.46875 z"
         id="path4518" />
    </g>
  </g>
</svg>
