<?xml version="1.0" encoding="UTF-8"?>
<svg xmlns="http://www.w3.org/2000/svg" xmlns:xlink="http://www.w3.org/1999/xlink" xmlns:sodipodi="http://sodipodi.sourceforge.net/DTD/sodipodi-0.dtd" contentScriptType="text/ecmascript" zoomAndPan="magnify" baseProfile="tiny" contentStyleType="text/css" version="1.0" width="48px" preserveAspectRatio="xMidYMid meet" viewBox="0 0 48 48" height="48px">
    <defs>
        <linearGradient xlink:type="simple" xlink:actuate="onLoad" id="linearGradient4806" xlink:show="other">
            <stop stop-opacity="1" stop-color="#f24e4e" offset="0"/>
            <stop stop-opacity="1" stop-color="#c00" offset="1"/>
        </linearGradient>
        <linearGradient xlink:type="simple" xlink:actuate="onLoad" id="linearGradient21644" xlink:show="other">
            <stop stop-opacity="1" stop-color="#000000" offset="0"/>
            <stop stop-opacity="0" stop-color="#000000" offset="1"/>
        </linearGradient>
        <radialGradient gradientTransform="matrix(0.96523,0,0,0.574541,0.873604,15.6356)" id="radialGradient3913" gradientUnits="userSpaceOnUse" xlink:show="other" xlink:type="simple" r="15.75" cx="25.125" fx="25.125" cy="36.75" fy="36.75" xlink:actuate="onLoad">
            <stop stop-opacity="1" stop-color="#000000" offset="0"/>
            <stop stop-opacity="0" stop-color="#000000" offset="1"/>
        </radialGradient>
        <radialGradient gradientTransform="matrix(1.139905,1.139905,-1.14245,1.14245,12.44151,-15.36724)" id="radialGradient4812" gradientUnits="userSpaceOnUse" xlink:show="other" xlink:type="simple" r="21" cx="13.650215" fx="13.650215" cy="10.505021" fy="10.505021" xlink:actuate="onLoad">
            <stop stop-opacity="1" stop-color="#f24e4e" offset="0"/>
            <stop stop-opacity="1" stop-color="#c00" offset="1"/>
        </radialGradient>
    </defs>
    <g>
        <path fill-opacity="0.63068183" display="inline" stroke="none" d="M 40.875 36.75 C 40.875 41.925 33.819 46.125 25.125 46.125 C 16.431 46.125 9.375 41.925 9.375 36.75 C 9.375 34.1625 11.139 31.81875 13.98975 30.121876 C 16.8405 28.425 21.164589 34.78894 25.511587 34.78894 C 29.858587 34.78894 33.4095 28.425 36.26025 30.121876 C 39.111 31.81875 40.875 34.1625 40.875 36.75 z " visibility="visible" stroke-linecap="round" transform="matrix(1.205467,0,0,0.586667,-6.301255,20.94)" stroke-miterlimit="4" stroke-opacity="1" fill="url(#radialGradient3913)" stroke-width="1" color="black" stroke-linejoin="round" stroke-dashoffset="0" fill-rule="evenodd"/>
        <path fill-opacity="1" display="inline" stroke="#a40000" d="M 24.0 3.453125 C 12.684 3.453125 3.5 12.676849 3.5 24.015623 C 3.5 35.3544 12.684 44.546875 24.0 44.546875 C 35.316 44.546875 44.5 35.3544 44.5 24.015623 C 44.5 12.676849 35.316 3.453125 24.0 3.453125 z M 24.0 7.109375 C 29.573593 7.1093745 34.09375 14.732079 34.09375 24.109377 C 34.093746 33.48667 29.573595 41.078125 24.0 41.078125 C 18.426405 41.07813 13.90625 33.48667 13.90625 24.109377 C 13.90625 14.732079 18.426405 7.109375 24.0 7.109375 z " visibility="visible" stroke-linecap="butt" stroke-miterlimit="4" stroke-opacity="1" fill="url(#radialGradient4812)" stroke-dasharray="none" stroke-width="1" color="black" stroke-linejoin="round" stroke-dashoffset="0" fill-rule="nonzero"/>
        <path fill-opacity="0.41" display="inline" stroke="#FFFFFF" d="M 31.611652 23.961164 C 31.611652 33.46261 28.221188 41.16505 24.038837 41.16505 C 19.856485 41.16505 16.46602 33.46261 16.46602 23.961164 C 16.46602 14.459721 19.856485 6.7572794 24.038837 6.7572794 C 28.221188 6.7572794 31.611652 14.459721 31.611652 23.961164 z " visibility="visible" stroke-linecap="butt" transform="matrix(1.45641,0,0,1.048391,-10.94731,-1.093963)" stroke-miterlimit="4" stroke-opacity="1" fill="none" stroke-dasharray="none" stroke-width="0.80927568999999999" color="black" stroke-linejoin="round" stroke-dashoffset="0" fill-rule="nonzero"/>
        <path fill-opacity="0.41" display="inline" stroke="#FFFFFF" d="M 7.3786407 11.029126 C 7.3786407 14.246319 5.0140085 16.854368 2.0970874 16.854368 C -0.81983393 16.854368 -3.184466 14.246319 -3.184466 11.029126 C -3.184466 7.8119335 -0.81983393 5.2038836 2.0970874 5.2038836 C 5.0140085 5.2038836 7.3786407 7.8119335 7.3786407 11.029126 z " visibility="visible" stroke-linecap="butt" transform="matrix(3.692096,0,0,3.3475,16.25735,-12.92)" stroke-miterlimit="4" stroke-opacity="1" fill="none" stroke-dasharray="none" stroke-width="0.28444827000000000" color="black" stroke-linejoin="round" stroke-dashoffset="0" fill-rule="nonzero"/>
    </g>
</svg>
