<?xml version="1.0" encoding="UTF-8" standalone="no"?>
<!-- Created with Inkscape (http://www.inkscape.org/) -->
<svg
   xmlns:dc="http://purl.org/dc/elements/1.1/"
   xmlns:cc="http://web.resource.org/cc/"
   xmlns:rdf="http://www.w3.org/1999/02/22-rdf-syntax-ns#"
   xmlns:svg="http://www.w3.org/2000/svg"
   xmlns="http://www.w3.org/2000/svg"
   xmlns:xlink="http://www.w3.org/1999/xlink"
   xmlns:sodipodi="http://sodipodi.sourceforge.net/DTD/sodipodi-0.dtd"
   xmlns:inkscape="http://www.inkscape.org/namespaces/inkscape"
   width="48"
   height="48"
   id="svg2"
   sodipodi:version="0.32"
   inkscape:version="0.45.1"
   version="1.0"
   sodipodi:docname="outlook-mail.svg"
   sodipodi:docbase="D:\Documents and Settings\Chris\Desktop\inkscape"
   inkscape:output_extension="org.inkscape.output.svg.inkscape">
  <defs
     id="defs4">
    <linearGradient
       inkscape:collect="always"
       id="linearGradient8028">
      <stop
         style="stop-color:#ffffff;stop-opacity:1;"
         offset="0"
         id="stop8030" />
      <stop
         style="stop-color:#ffffff;stop-opacity:0;"
         offset="1"
         id="stop8032" />
    </linearGradient>
    <linearGradient
       inkscape:collect="always"
       xlink:href="#linearGradient8028"
       id="linearGradient5695"
       gradientUnits="userSpaceOnUse"
       x1="25.865906"
       y1="-40.465305"
       x2="23.732271"
       y2="-49.625301" />
    <linearGradient
       inkscape:collect="always"
       id="linearGradient2789">
      <stop
         style="stop-color:white;stop-opacity:1;"
         offset="0"
         id="stop2791" />
      <stop
         style="stop-color:white;stop-opacity:0;"
         offset="1"
         id="stop2793" />
    </linearGradient>
    <linearGradient
       inkscape:collect="always"
       xlink:href="#linearGradient2789"
       id="linearGradient5693"
       gradientUnits="userSpaceOnUse"
       x1="25.593685"
       y1="20.92672"
       x2="26.1399"
       y2="51.027462" />
    <linearGradient
       id="linearGradient2276">
      <stop
         style="stop-color:#f57900;stop-opacity:1;"
         offset="0"
         id="stop2278" />
      <stop
         style="stop-color:#fcaf3e;stop-opacity:1;"
         offset="1"
         id="stop2280" />
    </linearGradient>
    <radialGradient
       inkscape:collect="always"
       xlink:href="#linearGradient2276"
       id="radialGradient5691"
       gradientUnits="userSpaceOnUse"
       gradientTransform="matrix(2.147084,4.691471e-7,-4.692465e-7,2.147071,1.426465,-49.56895)"
       cx="10.5"
       cy="10.498917"
       fx="10.5"
       fy="10.498917"
       r="10.495841" />
    <linearGradient
       id="linearGradient2322">
      <stop
         style="stop-color:white;stop-opacity:1;"
         offset="0"
         id="stop2324" />
      <stop
         style="stop-color:#c1c7bc;stop-opacity:1;"
         offset="1"
         id="stop2326" />
    </linearGradient>
    <radialGradient
       inkscape:collect="always"
       xlink:href="#linearGradient2322"
       id="radialGradient5689"
       gradientUnits="userSpaceOnUse"
       gradientTransform="matrix(0.4044676,0,0,0.427577,4.3012139,2.476585)"
       cx="10.78257"
       cy="15.491104"
       fx="10.78257"
       fy="15.491104"
       r="17.709194" />
    <linearGradient
       inkscape:collect="always"
       id="linearGradient6917">
      <stop
         style="stop-color:#000000;stop-opacity:1;"
         offset="0"
         id="stop6919" />
      <stop
         style="stop-color:#000000;stop-opacity:0;"
         offset="1"
         id="stop6921" />
    </linearGradient>
    <radialGradient
       inkscape:collect="always"
       xlink:href="#linearGradient6917"
       id="radialGradient5687"
       gradientUnits="userSpaceOnUse"
       gradientTransform="matrix(1,0,0,0.2886598,0,19.828608)"
       cx="16"
       cy="27.875"
       fx="16"
       fy="27.875"
       r="12.125" />
    <linearGradient
       id="linearGradient12604">
      <stop
         style="stop-color:#cc0000;stop-opacity:1;"
         offset="0"
         id="stop12606" />
      <stop
         style="stop-color:#ef2929;stop-opacity:1"
         offset="1"
         id="stop12608" />
    </linearGradient>
    <linearGradient
       inkscape:collect="always"
       id="linearGradient6934">
      <stop
         style="stop-color:#babdb6;stop-opacity:1"
         offset="0"
         id="stop6936" />
      <stop
         style="stop-color:#babdb6;stop-opacity:0"
         offset="1"
         id="stop6938" />
    </linearGradient>
    <linearGradient
       inkscape:collect="always"
       id="linearGradient5060">
      <stop
         style="stop-color:black;stop-opacity:1;"
         offset="0"
         id="stop5062" />
      <stop
         style="stop-color:black;stop-opacity:0;"
         offset="1"
         id="stop5064" />
    </linearGradient>
    <linearGradient
       id="linearGradient5048">
      <stop
         style="stop-color:black;stop-opacity:0;"
         offset="0"
         id="stop5050" />
      <stop
         id="stop5056"
         offset="0.5"
         style="stop-color:black;stop-opacity:1;" />
      <stop
         style="stop-color:black;stop-opacity:0;"
         offset="1"
         id="stop5052" />
    </linearGradient>
    <linearGradient
       id="linearGradient6945"
       inkscape:collect="always">
      <stop
         id="stop6947"
         offset="0"
         style="stop-color:#ffffff;stop-opacity:1" />
      <stop
         id="stop6949"
         offset="1"
         style="stop-color:#d3d7cf;stop-opacity:1" />
    </linearGradient>
    <linearGradient
       id="linearGradient7063"
       inkscape:collect="always">
      <stop
         id="stop7065"
         offset="0"
         style="stop-color:#000000;stop-opacity:1;" />
      <stop
         id="stop7067"
         offset="1"
         style="stop-color:#000000;stop-opacity:0;" />
    </linearGradient>
    <linearGradient
       inkscape:collect="always"
       xlink:href="#linearGradient5048"
       id="linearGradient9753"
       gradientUnits="userSpaceOnUse"
       gradientTransform="matrix(2.774389,0,0,1.969706,-1892.179,-872.8854)"
       x1="302.85715"
       y1="366.64789"
       x2="302.85715"
       y2="609.50507" />
    <radialGradient
       inkscape:collect="always"
       xlink:href="#linearGradient5060"
       id="radialGradient9755"
       gradientUnits="userSpaceOnUse"
       gradientTransform="matrix(2.774389,0,0,1.969706,-1891.633,-872.8854)"
       cx="605.71429"
       cy="486.64789"
       fx="605.71429"
       fy="486.64789"
       r="117.14286" />
    <radialGradient
       inkscape:collect="always"
       xlink:href="#linearGradient5060"
       id="radialGradient9757"
       gradientUnits="userSpaceOnUse"
       gradientTransform="matrix(-2.774389,0,0,1.969706,112.7623,-872.8854)"
       cx="605.71429"
       cy="486.64789"
       fx="605.71429"
       fy="486.64789"
       r="117.14286" />
    <radialGradient
       inkscape:collect="always"
       xlink:href="#linearGradient6945"
       id="radialGradient9759"
       gradientUnits="userSpaceOnUse"
       gradientTransform="matrix(2.0135589,0,0,1.7460565,-12.669486,-9.185985)"
       cx="12.5"
       cy="15.927882"
       fx="12.5"
       fy="15.927882"
       r="18.5" />
    <linearGradient
       inkscape:collect="always"
       xlink:href="#linearGradient7063"
       id="linearGradient9761"
       gradientUnits="userSpaceOnUse"
       x1="12.875"
       y1="35.314098"
       x2="12.875"
       y2="15.75" />
    <radialGradient
       inkscape:collect="always"
       xlink:href="#linearGradient6945"
       id="radialGradient9763"
       gradientUnits="userSpaceOnUse"
       gradientTransform="matrix(2.6083242,0,0,2.218814,-74.941381,-118.61799)"
       cx="13.107393"
       cy="61.48016"
       fx="13.107393"
       fy="61.48016"
       r="18.5" />
    <linearGradient
       inkscape:collect="always"
       xlink:href="#linearGradient6934"
       id="linearGradient9765"
       gradientUnits="userSpaceOnUse"
       gradientTransform="translate(1,-42)"
       x1="14.125"
       y1="79.81311"
       x2="14.125"
       y2="75.499176" />
  </defs>
  <sodipodi:namedview
     id="base"
     pagecolor="#ffffff"
     bordercolor="#666666"
     borderopacity="0.37647059"
     inkscape:pageopacity="0"
     inkscape:pageshadow="2"
     inkscape:zoom="1"
     inkscape:cx="24"
     inkscape:cy="24"
     inkscape:document-units="px"
     inkscape:current-layer="layer1"
     width="48px"
     height="48px"
     inkscape:showpageshadow="false"
     gridempspacing="2"
     gridspacingx="0.5px"
     gridspacingy="0.5px"
     inkscape:window-width="1413"
     inkscape:window-height="989"
     inkscape:window-x="0"
     inkscape:window-y="0"
     borderlayer="true"
     showgrid="false"
     inkscape:grid-points="true"
     showborder="true"
     showguides="true"
     inkscape:guide-bbox="false"
     inkscape:object-paths="false"
     inkscape:grid-bbox="true" />
  <metadata
     id="metadata7">
    <rdf:RDF>
      <cc:Work
         rdf:about="">
        <dc:format>image/svg+xml</dc:format>
        <dc:type
           rdf:resource="http://purl.org/dc/dcmitype/StillImage" />
        <dc:creator>
          <cc:Agent>
            <dc:title>Lapo Calamandrei</dc:title>
          </cc:Agent>
        </dc:creator>
        <cc:license
           rdf:resource="http://creativecommons.org/licenses/GPL/2.0/" />
        <dc:title>Mail stuff</dc:title>
      </cc:Work>
      <cc:License
         rdf:about="http://creativecommons.org/licenses/GPL/2.0/">
        <cc:permits
           rdf:resource="http://web.resource.org/cc/Reproduction" />
        <cc:permits
           rdf:resource="http://web.resource.org/cc/Distribution" />
        <cc:requires
           rdf:resource="http://web.resource.org/cc/Notice" />
        <cc:permits
           rdf:resource="http://web.resource.org/cc/DerivativeWorks" />
        <cc:requires
           rdf:resource="http://web.resource.org/cc/ShareAlike" />
        <cc:requires
           rdf:resource="http://web.resource.org/cc/SourceCode" />
      </cc:License>
    </rdf:RDF>
  </metadata>
  <g
     inkscape:label="Livello 1"
     inkscape:groupmode="layer"
     id="layer1">
    <g
       id="g10466"
       inkscape:label="Livello 1"
       transform="matrix(1.1,0,0,1.1,-2.4500001,-3.8471556)">
      <g
         transform="matrix(2.2162751e-2,0,0,1.0695181e-2,44.21234,36.053672)"
         id="g10468"
         style="opacity:0.7;display:inline">
        <rect
           style="opacity:0.39195981;color:#000000;fill:url(#linearGradient9753);fill-opacity:1;fill-rule:nonzero;stroke:none;stroke-width:1;stroke-linecap:round;stroke-linejoin:miter;marker:none;marker-start:none;marker-mid:none;marker-end:none;stroke-miterlimit:4;stroke-dasharray:none;stroke-dashoffset:0;stroke-opacity:1;visibility:visible;display:inline;overflow:visible"
           id="rect10470"
           width="1339.6335"
           height="478.35718"
           x="-1559.2523"
           y="-150.69685" />
        <path
           style="opacity:0.40206185;color:#000000;fill:url(#radialGradient9755);fill-opacity:1;fill-rule:nonzero;stroke:none;stroke-width:1;stroke-linecap:round;stroke-linejoin:miter;marker:none;marker-start:none;marker-mid:none;marker-end:none;stroke-miterlimit:4;stroke-dasharray:none;stroke-dashoffset:0;stroke-opacity:1;visibility:visible;display:inline;overflow:visible"
           d="M -219.61876,-150.68038 C -219.61876,-150.68038 -219.61876,327.65041 -219.61876,327.65041 C -76.744594,328.55086 125.78146,220.48075 125.78138,88.454235 C 125.78138,-43.572302 -33.655436,-150.68036 -219.61876,-150.68038 z "
           id="path10472"
           sodipodi:nodetypes="cccc" />
        <path
           sodipodi:nodetypes="cccc"
           id="path10474"
           d="M -1559.2523,-150.68038 C -1559.2523,-150.68038 -1559.2523,327.65041 -1559.2523,327.65041 C -1702.1265,328.55086 -1904.6525,220.48075 -1904.6525,88.454235 C -1904.6525,-43.572302 -1745.2157,-150.68036 -1559.2523,-150.68038 z "
           style="opacity:0.40206185;color:#000000;fill:url(#radialGradient9757);fill-opacity:1;fill-rule:nonzero;stroke:none;stroke-width:1;stroke-linecap:round;stroke-linejoin:miter;marker:none;marker-start:none;marker-mid:none;marker-end:none;stroke-miterlimit:4;stroke-dasharray:none;stroke-dashoffset:0;stroke-opacity:1;visibility:visible;display:inline;overflow:visible" />
      </g>
      <rect
         ry="1.5340841"
         rx="1.5340841"
         y="12.499999"
         x="6.5"
         height="25"
         width="36"
         id="rect10476"
         style="opacity:1;fill:url(#radialGradient9759);fill-opacity:1;fill-rule:evenodd;stroke:#888a85;stroke-width:1;stroke-linecap:butt;stroke-linejoin:miter;stroke-miterlimit:4;stroke-dasharray:none;stroke-dashoffset:0.69999992;stroke-opacity:0.99236642" />
      <path
         sodipodi:nodetypes="cccccssscccccc"
         id="path10478"
         d="M 7.90625,12.9375 C 7.356972,12.9375 6.9375,13.35697 6.9375,13.90625 L 6.9375,15.3125 L 16.03125,26.90625 L 17.15625,25.65625 C 17.625623,25.186876 18.0906,24.571266 19.125,24.15625 C 20.1594,23.741234 21.70864,23.5 24.5,23.5 C 27.280132,23.499999 28.838454,23.741631 29.875,24.15625 C 30.911546,24.570869 31.373047,25.185547 31.84375,25.65625 L 32.96875,26.90625 L 42.0625,15.3125 L 42.0625,13.90625 C 42.0625,13.356972 41.64303,12.9375 41.09375,12.9375 L 7.90625,12.9375 z "
         style="opacity:0.23134329;fill:url(#linearGradient9761);fill-opacity:1;fill-rule:evenodd;stroke:none;stroke-width:0.89999998;stroke-linecap:butt;stroke-linejoin:round;stroke-miterlimit:4;stroke-opacity:1" />
      <path
         sodipodi:nodetypes="ccssscccccc"
         id="path10480"
         d="M 7,37 L 17.15625,25.65625 C 17.625623,25.186876 18.0906,24.571266 19.125,24.15625 C 20.1594,23.741234 21.70864,23.5 24.5,23.5 C 27.280132,23.499999 28.838454,23.741631 29.875,24.15625 C 30.911546,24.570869 31.373047,25.185547 31.84375,25.65625 L 42,37 L 31.84375,26.65625 C 29.799743,24.686656 27.325503,24.384093 24.5,24.5 C 21.82915,24.54954 19.035697,24.49967 17.15625,26.65625 L 7,37 z "
         style="fill:#888a85;fill-opacity:1;fill-rule:evenodd;stroke:none;stroke-width:0.89999998;stroke-linecap:butt;stroke-linejoin:round;stroke-miterlimit:4;stroke-dasharray:none;stroke-opacity:1" />
      <path
         sodipodi:nodetypes="ccccccccc"
         id="path10482"
         d="M 7,37.021499 L 17.15625,27.677749 C 19.035697,25.521169 21.82915,25.571039 24.5,25.521499 C 27.325503,25.405592 29.799743,25.708155 31.84375,27.677749 L 42,37.021499 L 31.84375,26.677749 C 29.799743,24.708155 27.325503,24.405592 24.5,24.521499 C 21.82915,24.571039 19.035697,24.521169 17.15625,26.677749 L 7,37.021499 z "
         style="fill:#ffffff;fill-opacity:1;fill-rule:evenodd;stroke:none;stroke-width:0.89999998;stroke-linecap:butt;stroke-linejoin:round;stroke-miterlimit:4;stroke-dasharray:none;stroke-opacity:1" />
      <path
         transform="translate(50,0)"
         d="M -42.09375,12.9375 C -42.643028,12.9375 -43.0625,13.35697 -43.0625,13.90625 L -43.0625,15.3125 L -32.1875,26.1875 C -31.660276,26.714725 -31.377256,27.12932 -30.53125,27.46875 C -29.685244,27.80818 -28.234677,28.0625 -25.5,28.0625 C -22.776784,28.062501 -21.318209,27.808534 -20.46875,27.46875 C -19.619291,27.128966 -19.338542,26.713542 -18.8125,26.1875 L -7.9375,15.3125 L -7.9375,13.90625 C -7.9375,13.356972 -8.3569702,12.9375 -8.90625,12.9375 L -42.09375,12.9375 z "
         id="path10484"
         style="fill:url(#radialGradient9763);fill-opacity:1;fill-rule:evenodd;stroke:none;stroke-width:0.89999998;stroke-linecap:butt;stroke-linejoin:round;stroke-miterlimit:4;stroke-dasharray:none;stroke-opacity:1"
         inkscape:original="M -42.09375 12.5 C -42.877224 12.5 -43.5 13.122774 -43.5 13.90625 L -43.5 15.5 L -32.5 26.5 C -31.5 27.500002 -31.022703 28.5 -25.5 28.5 C -20 28.500002 -19.5 27.5 -18.5 26.5 L -7.5 15.5 L -7.5 13.90625 C -7.5 13.122776 -8.122774 12.5 -8.90625 12.5 L -42.09375 12.5 z "
         inkscape:radius="-0.44194174"
         sodipodi:type="inkscape:offset" />
      <path
         sodipodi:nodetypes="ccssscccccc"
         id="path10486"
         d="M 7,15.5 L 17.15625,26.84375 C 17.625623,27.313124 18.0906,27.928734 19.125,28.34375 C 20.1594,28.758766 21.70864,29 24.5,29 C 27.280132,29.000001 28.838454,28.758369 29.875,28.34375 C 30.911546,27.929131 31.373047,27.314453 31.84375,26.84375 L 42,15.5 L 31.84375,25.84375 C 29.799743,27.813344 27.325503,28.115907 24.5,28 C 21.82915,27.95046 19.035697,28.00033 17.15625,25.84375 L 7,15.5 z "
         style="fill:#888a85;fill-opacity:1;fill-rule:evenodd;stroke:none;stroke-width:0.89999998;stroke-linecap:butt;stroke-linejoin:round;stroke-miterlimit:4;stroke-dasharray:none;stroke-opacity:1" />
      <path
         sodipodi:nodetypes="ccccccccc"
         id="path10488"
         d="M 7,15.5 L 17.15625,24.84375 C 19.035697,27.00033 21.82915,26.95046 24.5,27 C 27.325503,27.115907 29.799743,26.813344 31.84375,24.84375 L 42,15.5 L 31.84375,25.84375 C 29.799743,27.813344 27.325503,28.115907 24.5,28 C 21.82915,27.95046 19.035697,28.00033 17.15625,25.84375 L 7,15.5 z "
         style="fill:#ffffff;fill-opacity:1;fill-rule:evenodd;stroke:none;stroke-width:0.89999998;stroke-linecap:butt;stroke-linejoin:round;stroke-miterlimit:4;stroke-dasharray:none;stroke-opacity:1" />
      <path
         transform="translate(1,-42)"
         d="M 6.90625,55.5 C 6.6497165,55.5 6.5,55.649715 6.5,55.90625 L 6.5,78.09375 C 6.5,78.350281 6.6497152,78.499999 6.90625,78.5 L 40.09375,78.5 C 40.350281,78.5 40.5,78.350281 40.5,78.09375 L 40.5,55.90625 C 40.5,55.649717 40.350284,55.5 40.09375,55.5 L 6.90625,55.5 z "
         id="path10490"
         style="opacity:0.7;fill:none;fill-opacity:1;fill-rule:evenodd;stroke:#ffffff;stroke-width:0.99999988;stroke-linecap:butt;stroke-linejoin:round;stroke-miterlimit:4;stroke-dasharray:none;stroke-dashoffset:0.69999992;stroke-opacity:0.99236642"
         inkscape:original="M 6.90625 54.5 C 6.1227756 54.5 5.5 55.122774 5.5 55.90625 L 5.5 78.09375 C 5.5 78.877224 6.1227756 79.499998 6.90625 79.5 L 40.09375 79.5 C 40.877224 79.5 41.5 78.877224 41.5 78.09375 L 41.5 55.90625 C 41.5 55.122776 40.877226 54.5 40.09375 54.5 L 6.90625 54.5 z "
         inkscape:radius="-0.99436891"
         sodipodi:type="inkscape:offset" />
      <path
         sodipodi:nodetypes="ccccccc"
         id="path10492"
         d="M 7,32.90625 L 7,36.09375 C 7,36.614757 7.385241,36.999999 7.90625,37 L 41.09375,37 C 41.61476,37 42,36.614757 42,36.09375 L 42,32.90625 L 7,32.90625 z "
         style="opacity:0.55597014;fill:url(#linearGradient9765);fill-opacity:1;fill-rule:evenodd;stroke:none;stroke-width:0.99999988;stroke-linecap:butt;stroke-linejoin:round;stroke-miterlimit:4;stroke-dashoffset:0.69999992;stroke-opacity:0.99236642" />
    </g>
    <g
       id="g8109"
       transform="matrix(0.55,0,0,0.55,21.895729,47.328657)">
      <path
         transform="matrix(1.7319588,0,0,1.9999999,-3.711341,-65.749998)"
         d="M 28.125 27.875 A 12.125 3.5 0 1 1  3.875,27.875 A 12.125 3.5 0 1 1  28.125 27.875 z"
         sodipodi:ry="3.5"
         sodipodi:rx="12.125"
         sodipodi:cy="27.875"
         sodipodi:cx="16"
         id="path6973"
         style="opacity:0.4;color:#000000;fill:url(#radialGradient5687);fill-opacity:1;fill-rule:nonzero;stroke:none;stroke-width:1;stroke-linecap:butt;stroke-linejoin:miter;marker:none;marker-start:none;marker-mid:none;marker-end:none;stroke-miterlimit:4;stroke-dasharray:none;stroke-dashoffset:0;stroke-opacity:1;visibility:visible;display:inline;overflow:visible"
         sodipodi:type="arc" />
      <g
         id="g8098">
        <path
           sodipodi:type="arc"
           style="fill:url(#radialGradient5689);fill-opacity:1;stroke:#babdb6;stroke-width:0.38685802;stroke-linecap:round;stroke-linejoin:round;stroke-miterlimit:4;stroke-dasharray:none;stroke-opacity:1"
           id="path6975"
           sodipodi:cx="8.6624146"
           sodipodi:cy="10.078017"
           sodipodi:rx="6.4298334"
           sodipodi:ry="7.0996075"
           d="M 15.092248 10.078017 A 6.4298334 7.0996075 0 1 1  2.2325811,10.078017 A 6.4298334 7.0996075 0 1 1  15.092248 10.078017 z"
           transform="matrix(2.7107753,0,0,2.464925,0.447975,-51.841556)" />
        <path
           style="opacity:0.11855672;fill:#000000;fill-opacity:1;stroke:none;stroke-width:1.00000048;stroke-linecap:round;stroke-linejoin:round;stroke-miterlimit:4;stroke-dasharray:none;stroke-opacity:1"
           d="M 23.96875,-44.660691 C 14.464374,-44.660691 6.75,-36.978018 6.75,-27.47319 C 6.75,-27.087549 6.787527,-26.696262 6.8125,-26.31694 C 7.412919,-35.277107 14.856864,-42.348191 23.96875,-42.348191 C 33.080637,-42.348191 40.52458,-35.277106 41.125,-26.31694 C 41.14997,-26.696262 41.1875,-27.087549 41.1875,-27.47319 C 41.1875,-36.978017 33.473127,-44.660692 23.96875,-44.660691 z "
           id="path6977" />
        <path
           style="fill:url(#radialGradient5691);fill-opacity:1;stroke:#ce5c00;stroke-width:1.00000107;stroke-linecap:round;stroke-linejoin:round;stroke-miterlimit:4;stroke-dasharray:none;stroke-opacity:1"
           d="M 23.165684,-48.493194 C 11.702548,-48.057067 2.500003,-38.592705 2.500003,-27.024697 C 2.500003,-15.179058 12.123906,-5.556201 23.97084,-5.556201 C 35.817772,-5.556201 45.44168,-15.179054 45.44168,-27.024697 C 45.44168,-38.870339 35.817772,-48.493194 23.97084,-48.493194 C 23.693177,-48.493194 23.440799,-48.503661 23.165684,-48.493194 z M 23.098587,-44.199495 C 23.391363,-44.214337 23.674395,-44.199495 23.97084,-44.199495 C 33.457129,-44.199495 41.14751,-36.50154 41.14751,-27.024697 C 41.14751,-17.547855 33.457129,-9.849901 23.97084,-9.849901 C 14.48455,-9.849901 6.79417,-17.547855 6.79417,-27.024697 C 6.79417,-36.20539 14.022552,-43.739395 23.098587,-44.199495 z "
           id="path6979" />
        <path
           sodipodi:type="arc"
           style="opacity:0.51030926;color:#000000;fill:none;fill-opacity:1;fill-rule:evenodd;stroke:url(#linearGradient5693);stroke-width:0.97099239;stroke-linecap:round;stroke-linejoin:round;marker:none;marker-start:none;marker-mid:none;marker-end:none;stroke-miterlimit:4;stroke-dasharray:none;stroke-dashoffset:0;stroke-opacity:1;visibility:visible;display:inline;overflow:visible"
           id="path6981"
           sodipodi:cx="23.5"
           sodipodi:cy="24.75"
           sodipodi:rx="19.875"
           sodipodi:ry="19.875"
           d="M 43.375 24.75 A 19.875 19.875 0 1 1  3.625,24.75 A 19.875 19.875 0 1 1  43.375 24.75 z"
           transform="matrix(1.029875,0,0,1.029875,-0.233294,-52.458137)" />
        <path
           style="fill:#555753;fill-opacity:1;fill-rule:evenodd;stroke:#2e3436;stroke-width:1;stroke-linecap:round;stroke-linejoin:round;stroke-miterlimit:4;stroke-dasharray:none;stroke-opacity:1"
           d="M 23.204863,-23.187659 L 35.561623,-24.562659 L 24.3617,-26.237483 L 23.204863,-23.187659 z "
           id="path6983"
           sodipodi:nodetypes="cccc" />
        <path
           style="fill:#555753;fill-opacity:1;fill-rule:evenodd;stroke:#2e3436;stroke-width:1;stroke-linecap:round;stroke-linejoin:round;stroke-miterlimit:4;stroke-dasharray:none;stroke-opacity:1"
           d="M 23.568841,-40.703441 L 21.945663,-24.154189 L 25.020765,-25.242054 L 23.568841,-40.703441 z "
           id="path6985"
           sodipodi:nodetypes="cccc"
           inkscape:transform-center-x="0.134449"
           inkscape:transform-center-y="-7.3998463" />
        <path
           sodipodi:type="arc"
           style="color:#000000;fill:#555753;fill-opacity:1;fill-rule:evenodd;stroke:#2e3436;stroke-width:1;stroke-linecap:round;stroke-linejoin:round;marker:none;marker-start:none;marker-mid:none;marker-end:none;stroke-miterlimit:4;stroke-dasharray:none;stroke-dashoffset:0;stroke-opacity:1;visibility:visible;display:inline;overflow:visible"
           id="path6987"
           sodipodi:cx="23.5625"
           sodipodi:cy="25.0625"
           sodipodi:rx="2.6875"
           sodipodi:ry="2.6875"
           d="M 26.25 25.0625 A 2.6875 2.6875 0 1 1  20.875,25.0625 A 2.6875 2.6875 0 1 1  26.25 25.0625 z"
           transform="translate(0,-50)" />
        <path
           sodipodi:type="arc"
           style="opacity:0.47422683;color:#000000;fill:#ffffff;fill-opacity:1;fill-rule:evenodd;stroke:none;stroke-width:1;stroke-linecap:round;stroke-linejoin:round;marker:none;marker-start:none;marker-mid:none;marker-end:none;stroke-miterlimit:4;stroke-dasharray:none;stroke-dashoffset:0;stroke-opacity:1;visibility:visible;display:inline;overflow:visible"
           id="path6989"
           sodipodi:cx="22.25"
           sodipodi:cy="23.65625"
           sodipodi:rx="1.25"
           sodipodi:ry="1.25"
           d="M 23.5 23.65625 A 1.25 1.25 0 1 1  21,23.65625 A 1.25 1.25 0 1 1  23.5 23.65625 z"
           transform="matrix(-0.6,0,0,-0.6,36.49775,-11.33528)" />
        <path
           sodipodi:type="arc"
           style="opacity:0.5;fill:none;fill-opacity:1;fill-rule:evenodd;stroke:url(#linearGradient5695);stroke-width:0.60858172;stroke-linecap:round;stroke-linejoin:round;stroke-miterlimit:4;stroke-dasharray:none;stroke-dashoffset:0.69999992;stroke-opacity:1"
           id="path8026"
           sodipodi:cx="23.732271"
           sodipodi:cy="-46.711533"
           sodipodi:rx="17.103146"
           sodipodi:ry="7.115262"
           d="M 40.835417 -46.711533 A 17.103146 7.115262 0 1 1  6.6291256,-46.711533 A 17.103146 7.115262 0 1 1  40.835417 -46.711533 z"
           transform="matrix(1.0598356,0,0,2.5475553,-1.1523083,92.000215)" />
      </g>
    </g>
  </g>
</svg>
