<?xml version="1.0" encoding="UTF-8" standalone="no"?>
<!-- Created with Inkscape (http://www.inkscape.org/) -->
<svg
   xmlns:dc="http://purl.org/dc/elements/1.1/"
   xmlns:cc="http://web.resource.org/cc/"
   xmlns:rdf="http://www.w3.org/1999/02/22-rdf-syntax-ns#"
   xmlns:svg="http://www.w3.org/2000/svg"
   xmlns="http://www.w3.org/2000/svg"
   xmlns:xlink="http://www.w3.org/1999/xlink"
   xmlns:sodipodi="http://sodipodi.sourceforge.net/DTD/sodipodi-0.dtd"
   xmlns:inkscape="http://www.inkscape.org/namespaces/inkscape"
   width="48.000000px"
   height="48.000000px"
   id="svg249"
   sodipodi:version="0.32"
   inkscape:version="0.44"
   sodipodi:docbase="/home/bart/mod/usr/share/icons/tango/scalable"
   sodipodi:docname="php.svg"
   inkscape:export-filename="/home/vinicius/tango-icon-theme/scalable/mimetypes/php.png"
   inkscape:export-xdpi="180"
   inkscape:export-ydpi="180">
  <defs
     id="defs3">
    <linearGradient
       id="linearGradient4286">
      <stop
         style="stop-color:#ffffff;stop-opacity:1;"
         offset="0"
         id="stop4288" />
      <stop
         style="stop-color:#ffffff;stop-opacity:0.30508474;"
         offset="1"
         id="stop4290" />
    </linearGradient>
    <radialGradient
       inkscape:collect="always"
       xlink:href="#linearGradient5060"
       id="radialGradient6719"
       gradientUnits="userSpaceOnUse"
       gradientTransform="matrix(-2.774389,0,0,1.969706,112.7623,-872.8854)"
       cx="605.71429"
       cy="486.64789"
       fx="605.71429"
       fy="486.64789"
       r="117.14286" />
    <linearGradient
       inkscape:collect="always"
       id="linearGradient5060">
      <stop
         style="stop-color:black;stop-opacity:1;"
         offset="0"
         id="stop5062" />
      <stop
         style="stop-color:black;stop-opacity:0;"
         offset="1"
         id="stop5064" />
    </linearGradient>
    <radialGradient
       inkscape:collect="always"
       xlink:href="#linearGradient5060"
       id="radialGradient6717"
       gradientUnits="userSpaceOnUse"
       gradientTransform="matrix(2.774389,0,0,1.969706,-1891.633,-872.8854)"
       cx="605.71429"
       cy="486.64789"
       fx="605.71429"
       fy="486.64789"
       r="117.14286" />
    <linearGradient
       id="linearGradient5048">
      <stop
         style="stop-color:black;stop-opacity:0;"
         offset="0"
         id="stop5050" />
      <stop
         id="stop5056"
         offset="0.5"
         style="stop-color:black;stop-opacity:1;" />
      <stop
         style="stop-color:black;stop-opacity:0;"
         offset="1"
         id="stop5052" />
    </linearGradient>
    <linearGradient
       inkscape:collect="always"
       xlink:href="#linearGradient5048"
       id="linearGradient6715"
       gradientUnits="userSpaceOnUse"
       gradientTransform="matrix(2.774389,0,0,1.969706,-1892.179,-872.8854)"
       x1="302.85715"
       y1="366.64789"
       x2="302.85715"
       y2="609.50507" />
    <linearGradient
       id="linearGradient4350"
       inkscape:collect="always">
      <stop
         id="stop4352"
         offset="0"
         style="stop-color:#ffffff;stop-opacity:1;" />
      <stop
         id="stop4354"
         offset="1"
         style="stop-color:#ffffff;stop-opacity:0;" />
    </linearGradient>
    <linearGradient
       id="linearGradient4114"
       inkscape:collect="always">
      <stop
         id="stop4116"
         offset="0"
         style="stop-color:#000000;stop-opacity:1;" />
      <stop
         id="stop4118"
         offset="1"
         style="stop-color:#000000;stop-opacity:0;" />
    </linearGradient>
    <linearGradient
       id="linearGradient15662">
      <stop
         style="stop-color:#ffffff;stop-opacity:1.0000000;"
         offset="0.0000000"
         id="stop15664" />
      <stop
         style="stop-color:#f8f8f8;stop-opacity:1.0000000;"
         offset="1.0000000"
         id="stop15666" />
    </linearGradient>
    <radialGradient
       gradientUnits="userSpaceOnUse"
       fy="64.5679"
       fx="20.8921"
       r="5.257"
       cy="64.5679"
       cx="20.8921"
       id="aigrd3">
      <stop
         id="stop15573"
         style="stop-color:#F0F0F0"
         offset="0" />
      <stop
         id="stop15575"
         style="stop-color:#9a9a9a;stop-opacity:1.0000000;"
         offset="1.0000000" />
    </radialGradient>
    <radialGradient
       gradientUnits="userSpaceOnUse"
       fy="114.5684"
       fx="20.8921"
       r="5.256"
       cy="114.5684"
       cx="20.8921"
       id="aigrd2">
      <stop
         id="stop15566"
         style="stop-color:#F0F0F0"
         offset="0" />
      <stop
         id="stop15568"
         style="stop-color:#9a9a9a;stop-opacity:1.0000000;"
         offset="1.0000000" />
    </radialGradient>
    <linearGradient
       id="linearGradient269">
      <stop
         style="stop-color:#a3a3a3;stop-opacity:1.0000000;"
         offset="0.0000000"
         id="stop270" />
      <stop
         style="stop-color:#4c4c4c;stop-opacity:1.0000000;"
         offset="1.0000000"
         id="stop271" />
    </linearGradient>
    <linearGradient
       id="linearGradient259">
      <stop
         style="stop-color:#fafafa;stop-opacity:1.0000000;"
         offset="0.0000000"
         id="stop260" />
      <stop
         style="stop-color:#bbbbbb;stop-opacity:1.0000000;"
         offset="1.0000000"
         id="stop261" />
    </linearGradient>
    <radialGradient
       r="37.751713"
       fy="3.7561285"
       fx="8.8244190"
       cy="3.7561285"
       cx="8.8244190"
       gradientTransform="matrix(0.968273,0.000000,0.000000,1.032767,3.353553,0.646447)"
       gradientUnits="userSpaceOnUse"
       id="radialGradient15656"
       xlink:href="#linearGradient269"
       inkscape:collect="always" />
    <radialGradient
       r="86.708450"
       fy="35.736916"
       fx="33.966679"
       cy="35.736916"
       cx="33.966679"
       gradientTransform="scale(0.960493,1.041132)"
       gradientUnits="userSpaceOnUse"
       id="radialGradient15658"
       xlink:href="#linearGradient259"
       inkscape:collect="always" />
    <radialGradient
       r="38.158695"
       fy="7.2678967"
       fx="8.1435566"
       cy="7.2678967"
       cx="8.1435566"
       gradientTransform="matrix(0.968273,0.000000,0.000000,1.032767,3.353553,0.646447)"
       gradientUnits="userSpaceOnUse"
       id="radialGradient15668"
       xlink:href="#linearGradient15662"
       inkscape:collect="always" />
    <radialGradient
       inkscape:collect="always"
       xlink:href="#aigrd2"
       id="radialGradient2283"
       gradientUnits="userSpaceOnUse"
       gradientTransform="matrix(0.229703,0.000000,0.000000,0.229703,4.613529,3.979808)"
       cx="20.8921"
       cy="114.5684"
       fx="20.8921"
       fy="114.5684"
       r="5.256" />
    <radialGradient
       inkscape:collect="always"
       xlink:href="#aigrd3"
       id="radialGradient2285"
       gradientUnits="userSpaceOnUse"
       gradientTransform="matrix(0.229703,0.000000,0.000000,0.229703,4.613529,3.979808)"
       cx="20.8921"
       cy="64.5679"
       fx="20.8921"
       fy="64.5679"
       r="5.257" />
    <radialGradient
       inkscape:collect="always"
       xlink:href="#linearGradient4114"
       id="radialGradient17299"
       gradientUnits="userSpaceOnUse"
       gradientTransform="scale(1.64399,0.608276)"
       cx="15.115514"
       cy="63.965388"
       fx="15.115514"
       fy="63.965388"
       r="12.289036" />
    <linearGradient
       inkscape:collect="always"
       xlink:href="#linearGradient4350"
       id="linearGradient2520"
       gradientUnits="userSpaceOnUse"
       gradientTransform="translate(-7,-16.98781)"
       x1="95.03125"
       y1="57.906303"
       x2="95.03125"
       y2="44.592937" />
    <linearGradient
       inkscape:collect="always"
       xlink:href="#linearGradient4350"
       id="linearGradient2525"
       gradientUnits="userSpaceOnUse"
       gradientTransform="translate(-7,-16.98781)"
       x1="97.728783"
       y1="54.517036"
       x2="97.728783"
       y2="42.400635" />
    <linearGradient
       inkscape:collect="always"
       xlink:href="#linearGradient4286"
       id="linearGradient4292"
       x1="88.75"
       y1="22.673088"
       x2="87.8125"
       y2="45.579079"
       gradientUnits="userSpaceOnUse" />
    <linearGradient
       y2="44.592937"
       x2="95.03125"
       y1="57.906303"
       x1="95.03125"
       gradientTransform="translate(-27,-16.98781)"
       gradientUnits="userSpaceOnUse"
       id="linearGradient3410"
       xlink:href="#linearGradient4350"
       inkscape:collect="always" />
    <linearGradient
       y2="42.400635"
       x2="97.728783"
       y1="54.517036"
       x1="97.728783"
       gradientTransform="translate(-27,-16.98781)"
       gradientUnits="userSpaceOnUse"
       id="linearGradient3408"
       xlink:href="#linearGradient4350"
       inkscape:collect="always" />
    <linearGradient
       inkscape:collect="always"
       xlink:href="#linearGradient5048"
       id="linearGradient4706"
       gradientUnits="userSpaceOnUse"
       gradientTransform="matrix(2.774389,0,0,1.969706,-1892.179,-872.8854)"
       x1="302.85715"
       y1="366.64789"
       x2="302.85715"
       y2="609.50507" />
    <radialGradient
       inkscape:collect="always"
       xlink:href="#linearGradient5060"
       id="radialGradient4708"
       gradientUnits="userSpaceOnUse"
       gradientTransform="matrix(2.774389,0,0,1.969706,-1891.633,-872.8854)"
       cx="605.71429"
       cy="486.64789"
       fx="605.71429"
       fy="486.64789"
       r="117.14286" />
    <radialGradient
       inkscape:collect="always"
       xlink:href="#linearGradient5060"
       id="radialGradient4710"
       gradientUnits="userSpaceOnUse"
       gradientTransform="matrix(-2.774389,0,0,1.969706,112.7623,-872.8854)"
       cx="605.71429"
       cy="486.64789"
       fx="605.71429"
       fy="486.64789"
       r="117.14286" />
    <radialGradient
       inkscape:collect="always"
       xlink:href="#linearGradient259"
       id="radialGradient4712"
       gradientUnits="userSpaceOnUse"
       gradientTransform="scale(0.960493,1.041132)"
       cx="33.966679"
       cy="35.736916"
       fx="33.966679"
       fy="35.736916"
       r="86.708450" />
    <radialGradient
       inkscape:collect="always"
       xlink:href="#linearGradient269"
       id="radialGradient4714"
       gradientUnits="userSpaceOnUse"
       gradientTransform="matrix(0.968273,0,0,1.032767,3.353553,0.646447)"
       cx="8.8244190"
       cy="3.7561285"
       fx="8.8244190"
       fy="3.7561285"
       r="37.751713" />
    <radialGradient
       inkscape:collect="always"
       xlink:href="#linearGradient15662"
       id="radialGradient4716"
       gradientUnits="userSpaceOnUse"
       gradientTransform="matrix(0.968273,0,0,1.032767,3.353553,0.646447)"
       cx="8.1435566"
       cy="7.2678967"
       fx="8.1435566"
       fy="7.2678967"
       r="38.158695" />
    <radialGradient
       inkscape:collect="always"
       xlink:href="#aigrd2"
       id="radialGradient4718"
       gradientUnits="userSpaceOnUse"
       gradientTransform="matrix(0.229703,0,0,0.229703,4.613529,3.979808)"
       cx="20.8921"
       cy="114.5684"
       fx="20.8921"
       fy="114.5684"
       r="5.256" />
    <radialGradient
       inkscape:collect="always"
       xlink:href="#aigrd3"
       id="radialGradient4720"
       gradientUnits="userSpaceOnUse"
       gradientTransform="matrix(0.229703,0,0,0.229703,4.613529,3.979808)"
       cx="20.8921"
       cy="64.5679"
       fx="20.8921"
       fy="64.5679"
       r="5.257" />
    <radialGradient
       inkscape:collect="always"
       xlink:href="#linearGradient4114"
       id="radialGradient4722"
       gradientUnits="userSpaceOnUse"
       gradientTransform="scale(1.64399,0.608276)"
       cx="15.115514"
       cy="63.965388"
       fx="15.115514"
       fy="63.965388"
       r="12.289036" />
    <linearGradient
       inkscape:collect="always"
       xlink:href="#linearGradient4350"
       id="linearGradient4732"
       gradientUnits="userSpaceOnUse"
       gradientTransform="translate(-7,-16.98781)"
       x1="97.728783"
       y1="54.517036"
       x2="97.728783"
       y2="42.400635" />
    <linearGradient
       inkscape:collect="always"
       xlink:href="#linearGradient4286"
       id="linearGradient4734"
       gradientUnits="userSpaceOnUse"
       x1="88.75"
       y1="22.673088"
       x2="87.8125"
       y2="45.579079" />
    <linearGradient
       inkscape:collect="always"
       xlink:href="#linearGradient4350"
       id="linearGradient4736"
       gradientUnits="userSpaceOnUse"
       gradientTransform="translate(-7,-16.98781)"
       x1="95.03125"
       y1="57.906303"
       x2="95.03125"
       y2="44.592937" />
    <linearGradient
       inkscape:collect="always"
       xlink:href="#linearGradient4350"
       id="linearGradient1972"
       gradientUnits="userSpaceOnUse"
       gradientTransform="translate(-67,-16.98781)"
       x1="95.03125"
       y1="57.906303"
       x2="95.03125"
       y2="44.592937" />
    <linearGradient
       inkscape:collect="always"
       xlink:href="#linearGradient4286"
       id="linearGradient1976"
       gradientUnits="userSpaceOnUse"
       x1="88.75"
       y1="22.673088"
       x2="87.8125"
       y2="45.579079"
       gradientTransform="translate(-60,0)" />
    <linearGradient
       inkscape:collect="always"
       xlink:href="#linearGradient4350"
       id="linearGradient1979"
       gradientUnits="userSpaceOnUse"
       gradientTransform="translate(-67,-16.98781)"
       x1="97.728783"
       y1="54.517036"
       x2="97.728783"
       y2="42.400635" />
    <radialGradient
       inkscape:collect="always"
       xlink:href="#linearGradient4114"
       id="radialGradient1992"
       gradientUnits="userSpaceOnUse"
       gradientTransform="scale(1.64399,0.608276)"
       cx="15.115514"
       cy="63.965388"
       fx="15.115514"
       fy="63.965388"
       r="12.289036" />
    <linearGradient
       inkscape:collect="always"
       xlink:href="#linearGradient4350"
       id="linearGradient1994"
       gradientUnits="userSpaceOnUse"
       gradientTransform="translate(-67,-16.98781)"
       x1="97.728783"
       y1="54.517036"
       x2="97.728783"
       y2="42.400635" />
    <linearGradient
       inkscape:collect="always"
       xlink:href="#linearGradient4286"
       id="linearGradient1996"
       gradientUnits="userSpaceOnUse"
       gradientTransform="translate(-60,0)"
       x1="88.75"
       y1="22.673088"
       x2="87.8125"
       y2="45.579079" />
    <linearGradient
       inkscape:collect="always"
       xlink:href="#linearGradient4350"
       id="linearGradient1998"
       gradientUnits="userSpaceOnUse"
       gradientTransform="translate(-67,-16.98781)"
       x1="95.03125"
       y1="57.906303"
       x2="95.03125"
       y2="44.592937" />
    <linearGradient
       inkscape:collect="always"
       xlink:href="#linearGradient4350"
       id="linearGradient2001"
       gradientUnits="userSpaceOnUse"
       gradientTransform="matrix(1.362603,0,0,1.362603,-108.1637,-45.28704)"
       x1="95.03125"
       y1="57.906303"
       x2="95.03125"
       y2="44.592937" />
    <linearGradient
       inkscape:collect="always"
       xlink:href="#linearGradient4286"
       id="linearGradient2005"
       gradientUnits="userSpaceOnUse"
       gradientTransform="matrix(1.362603,0,0,1.362603,-98.62552,-22.1394)"
       x1="88.75"
       y1="22.673088"
       x2="87.8125"
       y2="45.579079" />
    <linearGradient
       inkscape:collect="always"
       xlink:href="#linearGradient4350"
       id="linearGradient2008"
       gradientUnits="userSpaceOnUse"
       gradientTransform="matrix(1.362603,0,0,1.362603,-108.1637,-45.28704)"
       x1="97.728783"
       y1="54.517036"
       x2="97.728783"
       y2="42.400635" />
    <radialGradient
       inkscape:collect="always"
       xlink:href="#linearGradient4114"
       id="radialGradient2013"
       gradientUnits="userSpaceOnUse"
       gradientTransform="scale(1.64399,0.608276)"
       cx="15.115514"
       cy="63.965388"
       fx="15.115514"
       fy="63.965388"
       r="12.289036" />
  </defs>
  <sodipodi:namedview
     inkscape:showpageshadow="false"
     id="base"
     pagecolor="#ffffff"
     bordercolor="#666666"
     borderopacity="1.0"
     inkscape:pageopacity="0.0"
     inkscape:pageshadow="2"
     inkscape:zoom="11.313708"
     inkscape:cx="23.229478"
     inkscape:cy="19.998808"
     inkscape:current-layer="layer5"
     showgrid="false"
     inkscape:grid-bbox="true"
     inkscape:document-units="px"
     inkscape:window-width="1920"
     inkscape:window-height="1153"
     inkscape:window-x="0"
     inkscape:window-y="0"
     fill="#204a87"
     showguides="true"
     inkscape:guide-bbox="true" />
  <metadata
     id="metadata4">
    <rdf:RDF>
      <cc:Work
         rdf:about="">
        <dc:format>image/svg+xml</dc:format>
        <dc:type
           rdf:resource="http://purl.org/dc/dcmitype/StillImage" />
        <dc:title>PHP script</dc:title>
        <dc:creator>
          <cc:Agent>
            <dc:title>Vinicius Scopel Depizzol</dc:title>
          </cc:Agent>
        </dc:creator>
        <dc:source>vdepizzol@gmail.com</dc:source>
        <dc:subject>
          <rdf:Bag>
            <rdf:li>PHP</rdf:li>
            <rdf:li>script</rdf:li>
            <rdf:li>web</rdf:li>
          </rdf:Bag>
        </dc:subject>
        <cc:license
           rdf:resource="http://creativecommons.org/licenses/by-sa/2.0/" />
      </cc:Work>
      <cc:License
         rdf:about="http://creativecommons.org/licenses/by/2.0/">
        <cc:permits
           rdf:resource="http://web.resource.org/cc/Reproduction" />
        <cc:permits
           rdf:resource="http://web.resource.org/cc/Distribution" />
        <cc:requires
           rdf:resource="http://web.resource.org/cc/Notice" />
        <cc:requires
           rdf:resource="http://web.resource.org/cc/Attribution" />
        <cc:permits
           rdf:resource="http://web.resource.org/cc/DerivativeWorks" />
        <cc:requires
           rdf:resource="http://web.resource.org/cc/ShareAlike" />
      </cc:License>
    </rdf:RDF>
  </metadata>
  <g
     inkscape:label="Shadow"
     id="layer6"
     inkscape:groupmode="layer" />
  <g
     id="layer1"
     inkscape:label="Base"
     inkscape:groupmode="layer"
     style="display:inline" />
  <g
     style="display:inline"
     inkscape:label="Text"
     id="layer5"
     inkscape:groupmode="layer">
    <path
       transform="matrix(0.98995,0,0,1.33777,-0.600002,-19.0508)"
       d="M 45.052803 38.908627 A 20.203051 7.4751287 0 1 1  4.6467018,38.908627 A 20.203051 7.4751287 0 1 1  45.052803 38.908627 z"
       sodipodi:ry="7.4751287"
       sodipodi:rx="20.203051"
       sodipodi:cy="38.908627"
       sodipodi:cx="24.849752"
       id="path4112"
       style="opacity:0.83257919;fill:url(#radialGradient2013);fill-opacity:1;stroke:none;stroke-opacity:1"
       sodipodi:type="arc" />
    <path
       sodipodi:type="arc"
       style="fill:#5d65b4;fill-opacity:1;fill-rule:nonzero;stroke:#3d4384;stroke-width:0.7338891;stroke-linecap:round;stroke-linejoin:round;stroke-miterlimit:4;stroke-dasharray:none;stroke-dashoffset:0;stroke-opacity:1"
       id="path19716"
       sodipodi:cx="97.492348"
       sodipodi:cy="33.06237"
       sodipodi:rx="17.500893"
       sodipodi:ry="9.9878836"
       d="M 114.99324 33.06237 A 17.500893 9.9878836 0 1 1  79.991455,33.06237 A 17.500893 9.9878836 0 1 1  114.99324 33.06237 z"
       transform="matrix(1.287759,0,0,1.233774,-101.535,-14.55019)" />
    <path
       transform="matrix(1.212053,0,0,1.102879,-94.15344,-10.2179)"
       d="M 114.99324 33.06237 A 17.500893 9.9878836 0 1 1  79.991455,33.06237 A 17.500893 9.9878836 0 1 1  114.99324 33.06237 z"
       sodipodi:ry="9.9878836"
       sodipodi:rx="17.500893"
       sodipodi:cy="33.06237"
       sodipodi:cx="97.492348"
       id="path19718"
       style="fill:none;fill-opacity:1;fill-rule:nonzero;stroke:#9ca1d2;stroke-width:0.86491841;stroke-linecap:round;stroke-linejoin:round;stroke-miterlimit:4;stroke-dasharray:none;stroke-dashoffset:0;stroke-opacity:1"
       sodipodi:type="arc" />
    <path
       style="opacity:0.55813952;fill:url(#linearGradient2008);fill-opacity:1;fill-rule:evenodd;stroke:none;stroke-width:1px;stroke-linecap:butt;stroke-linejoin:miter;stroke-opacity:1"
       d="M 23.710678,13.901024 C 11.404285,13.986353 1.4832178,19.500576 1.4832164,26.249614 C 1.4832164,27.604736 1.8927849,28.904636 2.6329127,30.124516 C 8.2316618,24.631353 17.257898,26.03502 24.690049,26.930915 C 32.148951,27.830036 41.004293,28.367813 46.108467,23.779896 C 46.118564,23.770807 46.097662,23.745493 46.108467,23.737315 C 43.984701,18.138681 34.874648,13.901024 24.008747,13.901024 C 23.911557,13.901024 23.807578,13.900352 23.710678,13.901024 z "
       id="path19720"
       sodipodi:nodetypes="cscsscsc" />
    <path
       style="opacity:0.69957084;fill:none;fill-opacity:1;fill-rule:evenodd;stroke:url(#linearGradient2005);stroke-width:1.99999893;stroke-linecap:round;stroke-linejoin:round;stroke-miterlimit:4;stroke-dasharray:none;stroke-opacity:1"
       d="M 21.496451,17.716738 L 20.133848,24.529753 C 20.254595,22.350942 18.640664,20.782595 17.02541,20.782595 L 11.404672,20.782595 L 9.1904424,32.322139 L 11.95823,32.36472 L 12.554369,29.384026 L 15.535063,29.384026 C 17.158085,29.384026 19.107868,28.107898 19.87836,25.807193 L 19.197058,29.384026 L 21.964845,29.384026 L 23.199704,22.911662 L 24.94554,22.911662 C 25.293307,22.914353 25.581799,22.957534 25.797166,23.039406 C 25.837407,23.055967 25.890769,23.103673 25.92491,23.124568 C 25.931486,23.128931 25.961172,23.120019 25.967492,23.124568 C 25.973553,23.129309 26.004274,23.162216 26.010073,23.16715 C 26.015608,23.172281 26.047387,23.204399 26.052654,23.209731 C 26.057379,23.215474 26.090787,23.246358 26.095236,23.252312 C 26.099405,23.258482 26.091348,23.288507 26.095236,23.294894 C 26.098839,23.301502 26.134502,23.330642 26.137817,23.337475 C 26.140842,23.344536 26.135087,23.372764 26.137817,23.380056 C 26.145121,23.402638 26.175816,23.440463 26.180399,23.465219 C 26.182838,23.48222 26.17921,23.532367 26.180399,23.550382 C 26.180953,23.568915 26.181129,23.615957 26.180399,23.635545 C 26.179017,23.65567 26.183101,23.699485 26.180399,23.720707 C 26.175343,23.753378 26.145934,23.813206 26.137817,23.848451 L 25.115865,29.384026 L 27.926234,29.384026 L 28.948186,23.80587 C 29.156047,22.727092 28.943263,22.014926 28.522372,21.549059 C 27.882872,20.869041 26.771921,20.712941 25.882329,20.697432 L 23.582937,20.697432 L 24.179075,17.716738 L 21.496451,17.716738 z M 30.268208,20.782595 L 28.053978,32.322139 L 30.821765,32.36472 L 31.375322,29.384026 L 34.398598,29.384026 C 36.129819,29.384026 38.222512,27.941281 38.869639,25.338798 C 39.516766,22.736315 37.702569,20.782595 35.888945,20.782595 L 30.268208,20.782595 z M 13.746646,22.86908 L 15.4499,22.86908 C 15.851612,22.869082 16.213335,22.934235 16.471852,23.039406 C 16.51981,23.060328 16.59934,23.100141 16.642178,23.124568 C 16.694128,23.156181 16.768504,23.215423 16.812503,23.252312 C 16.83455,23.27272 16.877567,23.315513 16.897666,23.337475 C 16.90415,23.344967 16.933976,23.372395 16.940247,23.380056 C 16.946305,23.387887 16.976981,23.414638 16.982828,23.422638 C 17.039184,23.504315 17.07477,23.622705 17.110572,23.720707 C 17.117332,23.740626 17.14719,23.785322 17.153154,23.80587 C 17.26734,24.233513 17.208982,24.805143 17.02541,25.466542 C 16.908667,25.88716 16.752343,26.236626 16.557015,26.488495 C 16.5405,26.508965 16.488832,26.554209 16.471852,26.573657 C 16.437438,26.611549 16.380289,26.667426 16.344108,26.701401 C 16.326595,26.716716 16.276979,26.772017 16.258945,26.786564 C 15.710108,27.211655 14.919361,27.29754 13.87439,27.29754 C 12.145637,27.297539 12.895019,27.29754 12.895019,27.29754 L 13.746646,22.86908 z M 32.610181,22.86908 L 34.313435,22.86908 C 34.92557,22.869082 35.394448,23.016217 35.676038,23.252312 C 35.698086,23.27272 35.741102,23.315513 35.761201,23.337475 C 35.832533,23.419885 35.885472,23.533035 35.931526,23.635545 C 35.939493,23.654505 35.966947,23.701106 35.974108,23.720707 C 35.980867,23.740626 36.010725,23.785322 36.016689,23.80587 C 36.130875,24.233513 36.072518,24.805143 35.888945,25.466542 C 35.757612,25.939738 35.564605,26.311104 35.335387,26.573657 C 35.31818,26.592603 35.26788,26.640864 35.250225,26.65882 C 35.241287,26.667554 35.216688,26.692907 35.207643,26.701401 C 35.181763,26.724958 35.149531,26.764745 35.122481,26.786564 C 34.573645,27.211655 33.782898,27.29754 32.737925,27.29754 C 31.009175,27.297539 31.758555,27.29754 31.758555,27.29754 L 32.610181,22.86908 z "
       id="path19724" />
    <path
       style="fill:black;fill-opacity:1;fill-rule:evenodd;stroke:none;stroke-width:1.99168754;stroke-linecap:butt;stroke-linejoin:miter;stroke-miterlimit:4;stroke-dasharray:none;stroke-opacity:1"
       d="M 21.496451,17.716738 L 20.133848,24.529753 C 20.254595,22.350942 18.640664,20.782595 17.02541,20.782595 L 11.404672,20.782595 L 9.1904424,32.322139 L 11.95823,32.36472 L 12.554369,29.384026 L 15.535063,29.384026 C 17.158085,29.384026 19.107868,28.107898 19.87836,25.807193 L 19.197058,29.384026 L 21.964845,29.384026 L 23.199704,22.911662 L 24.94554,22.911662 C 25.293307,22.914353 25.581799,22.957534 25.797166,23.039406 C 25.837407,23.055967 25.890769,23.103673 25.92491,23.124568 C 25.931486,23.128931 25.961172,23.120019 25.967492,23.124568 C 25.973553,23.129309 26.004274,23.162216 26.010073,23.16715 C 26.015608,23.172281 26.047387,23.204399 26.052654,23.209731 C 26.057379,23.215474 26.090787,23.246358 26.095236,23.252312 C 26.099405,23.258482 26.091348,23.288507 26.095236,23.294894 C 26.098839,23.301502 26.134502,23.330642 26.137817,23.337475 C 26.140842,23.344536 26.135087,23.372764 26.137817,23.380056 C 26.145121,23.402638 26.175816,23.440463 26.180399,23.465219 C 26.182838,23.48222 26.17921,23.532367 26.180399,23.550382 C 26.180953,23.568915 26.181129,23.615957 26.180399,23.635545 C 26.179017,23.65567 26.183101,23.699485 26.180399,23.720707 C 26.175343,23.753378 26.145934,23.813206 26.137817,23.848451 L 25.115865,29.384026 L 27.926234,29.384026 L 28.948186,23.80587 C 29.156047,22.727092 28.943263,22.014926 28.522372,21.549059 C 27.882872,20.869041 26.771921,20.712941 25.882329,20.697432 L 23.582937,20.697432 L 24.179075,17.716738 L 21.496451,17.716738 z M 30.268208,20.782595 L 28.053978,32.322139 L 30.821765,32.36472 L 31.375322,29.384026 L 34.398598,29.384026 C 36.129819,29.384026 38.222512,27.941281 38.869639,25.338798 C 39.516766,22.736315 37.702569,20.782595 35.888945,20.782595 L 30.268208,20.782595 z M 13.746646,22.86908 L 15.4499,22.86908 C 15.851612,22.869082 16.213335,22.934235 16.471852,23.039406 C 16.51981,23.060328 16.59934,23.100141 16.642178,23.124568 C 16.694128,23.156181 16.768504,23.215423 16.812503,23.252312 C 16.83455,23.27272 16.877567,23.315513 16.897666,23.337475 C 16.90415,23.344967 16.933976,23.372395 16.940247,23.380056 C 16.946305,23.387887 16.976981,23.414638 16.982828,23.422638 C 17.039184,23.504315 17.07477,23.622705 17.110572,23.720707 C 17.117332,23.740626 17.14719,23.785322 17.153154,23.80587 C 17.26734,24.233513 17.208982,24.805143 17.02541,25.466542 C 16.908667,25.88716 16.752343,26.236626 16.557015,26.488495 C 16.5405,26.508965 16.488832,26.554209 16.471852,26.573657 C 16.437438,26.611549 16.380289,26.667426 16.344108,26.701401 C 16.326595,26.716716 16.276979,26.772017 16.258945,26.786564 C 15.710108,27.211655 14.919361,27.29754 13.87439,27.29754 C 12.145637,27.297539 12.895019,27.29754 12.895019,27.29754 L 13.746646,22.86908 z M 32.610181,22.86908 L 34.313435,22.86908 C 34.92557,22.869082 35.394448,23.016217 35.676038,23.252312 C 35.698086,23.27272 35.741102,23.315513 35.761201,23.337475 C 35.832533,23.419885 35.885472,23.533035 35.931526,23.635545 C 35.939493,23.654505 35.966947,23.701106 35.974108,23.720707 C 35.980867,23.740626 36.010725,23.785322 36.016689,23.80587 C 36.130875,24.233513 36.072518,24.805143 35.888945,25.466542 C 35.757612,25.939738 35.564605,26.311104 35.335387,26.573657 C 35.31818,26.592603 35.26788,26.640864 35.250225,26.65882 C 35.241287,26.667554 35.216688,26.692907 35.207643,26.701401 C 35.181763,26.724958 35.149531,26.764745 35.122481,26.786564 C 34.573645,27.211655 33.782898,27.29754 32.737925,27.29754 C 31.009175,27.297539 31.758555,27.29754 31.758555,27.29754 L 32.610181,22.86908 z "
       id="path19732" />
    <path
       style="opacity:0.12217198;fill:url(#linearGradient2001);fill-opacity:1;fill-rule:evenodd;stroke:none;stroke-width:1.99168754;stroke-linecap:butt;stroke-linejoin:miter;stroke-miterlimit:4;stroke-dasharray:none;stroke-opacity:1"
       d="M 21.496448,17.733345 L 20.133845,24.418616 C 20.199761,22.294149 18.615423,20.799202 17.025407,20.799202 L 11.40467,20.799202 L 10.340136,26.419939 C 11.247478,26.264691 12.165642,26.171554 13.107923,26.12187 L 13.746643,22.885688 L 15.449897,22.885688 C 15.848619,22.885686 16.207473,22.953599 16.471849,23.056013 C 16.505478,23.069932 16.568574,23.083002 16.599593,23.098594 C 16.639773,23.120124 16.691983,23.159292 16.727337,23.183757 C 16.742325,23.19074 16.79783,23.219147 16.8125,23.226338 C 16.821014,23.233795 16.847056,23.260887 16.855082,23.26892 C 16.862681,23.277427 16.890429,23.302624 16.897663,23.311501 C 16.92539,23.348082 16.957466,23.40249 16.982826,23.439245 C 16.990261,23.454068 17.01818,23.509419 17.025407,23.524408 C 17.035011,23.542069 17.059206,23.591256 17.067988,23.609571 C 17.075743,23.616946 17.102867,23.644735 17.11057,23.652152 C 17.121913,23.681075 17.143609,23.749545 17.153151,23.779896 C 17.278411,24.211406 17.213456,24.805619 17.025407,25.48315 C 16.958524,25.72413 16.86424,25.938331 16.769919,26.12187 C 17.744488,26.169254 18.696789,26.240519 19.66545,26.334777 C 19.724548,26.201468 19.78534,26.093251 19.835776,25.951544 L 19.750613,26.334777 C 20.666966,26.42485 21.581439,26.567966 22.475819,26.675427 L 23.199702,22.928269 L 24.945537,22.928269 C 25.293304,22.93096 25.581796,22.974141 25.797164,23.056013 C 25.800923,23.055897 25.835413,23.056438 25.839745,23.056013 C 25.854884,23.06331 25.910752,23.090596 25.924908,23.098594 C 25.932521,23.106277 25.95994,23.133447 25.967489,23.141176 C 25.982606,23.155461 26.038598,23.211257 26.052652,23.226338 C 26.060218,23.233472 26.087943,23.261574 26.095233,23.26892 C 26.106723,23.290602 26.13101,23.338195 26.137814,23.354083 C 26.137492,23.358478 26.137914,23.392889 26.137814,23.396664 C 26.145712,23.404125 26.172573,23.431724 26.180396,23.439245 C 26.180399,23.454025 26.180702,23.509377 26.180396,23.524408 C 26.180287,23.532769 26.180257,23.562355 26.180396,23.566989 C 26.180269,23.595575 26.183453,23.663727 26.180396,23.694733 C 26.179134,23.69953 26.182209,23.731923 26.180396,23.737315 C 26.173456,23.75506 26.142453,23.807373 26.137814,23.822477 L 25.541676,27.016078 C 26.455449,27.120797 27.369518,27.233589 28.309463,27.314147 L 28.948183,23.822477 C 29.098982,23.039835 29.030048,22.433607 28.820439,21.99148 C 28.755865,21.862381 28.652076,21.712905 28.564951,21.608247 C 28.532603,21.570953 28.472117,21.514821 28.437207,21.480503 C 28.423881,21.467906 28.374418,21.417618 28.352044,21.395341 C 28.341852,21.386739 28.319819,21.36115 28.309463,21.352759 C 27.657004,20.845401 26.676082,20.727879 25.882326,20.714039 L 23.582934,20.714039 L 24.179073,17.733345 L 21.496448,17.733345 z M 30.268205,20.799202 L 28.990764,27.356729 C 32.053501,27.590753 35.176369,27.627368 38.060593,27.186403 C 38.402607,26.66849 38.697747,26.04669 38.869639,25.355406 C 39.516766,22.752925 37.702569,20.799202 35.888942,20.799202 L 30.268205,20.799202 z M 32.610179,22.885688 L 34.313432,22.885688 C 34.696011,22.885686 35.040177,22.91775 35.292803,23.013432 C 35.341121,23.035131 35.424526,23.077978 35.463129,23.098594 C 35.495259,23.116916 35.561618,23.16351 35.590873,23.183757 C 35.605861,23.19074 35.66136,23.219147 35.676035,23.226338 C 35.680123,23.231146 35.715006,23.263618 35.718617,23.26892 C 35.727992,23.286254 35.750447,23.338445 35.761198,23.354083 C 35.768829,23.361562 35.796203,23.389142 35.803779,23.396664 C 35.811424,23.404121 35.838758,23.431745 35.846361,23.439245 C 35.853801,23.454068 35.88172,23.509419 35.888942,23.524408 C 35.898549,23.542069 35.922748,23.591256 35.931524,23.609571 C 36.13248,24.056889 36.103852,24.708829 35.888942,25.48315 C 35.781937,25.868717 35.636874,26.177465 35.463129,26.419939 C 35.418027,26.480446 35.348874,26.569108 35.292803,26.632846 C 35.270675,26.65681 35.227998,26.698897 35.207641,26.718009 C 35.199015,26.725861 35.173807,26.752936 35.165059,26.76059 C 34.614949,27.222966 33.817731,27.314147 32.737923,27.314147 C 31.009175,27.314149 31.758552,27.314147 31.758552,27.314147 L 32.610179,22.885688 z "
       id="path19738" />
  </g>
</svg>
