<?xml version="1.0" encoding="UTF-8"?>
<svg xmlns="http://www.w3.org/2000/svg" xmlns:xlink="http://www.w3.org/1999/xlink" xmlns:sodipodi="http://sodipodi.sourceforge.net/DTD/sodipodi-0.dtd" contentScriptType="text/ecmascript" zoomAndPan="magnify" baseProfile="tiny" contentStyleType="text/css" version="1.0" width="48px" preserveAspectRatio="xMidYMid meet" viewBox="0 0 48 48" height="48px">
    <defs>
        <linearGradient gradientTransform="matrix(0.980472,0,0,0.490236,34.67523,22.83397)" id="linearGradient12071" gradientUnits="userSpaceOnUse" xlink:show="other" xlink:type="simple" x1="11.500000" y1="20.579729" x2="11.779029" y2="14.259961" xlink:actuate="onLoad">
            <stop stop-opacity="1" stop-color="#ffffff" offset="0"/>
            <stop stop-opacity="0" stop-color="#ffffff" offset="1"/>
        </linearGradient>
        <linearGradient xlink:type="simple" xlink:actuate="onLoad" id="linearGradient12071" xlink:show="other">
            <stop stop-opacity="1" stop-color="#ffffff" offset="0"/>
            <stop stop-opacity="0" stop-color="#ffffff" offset="1"/>
        </linearGradient>
        <linearGradient gradientTransform="matrix(0.980472,0,0,0.461806,23.89003,23.47875)" id="linearGradient12071" gradientUnits="userSpaceOnUse" xlink:show="other" xlink:type="simple" x1="14.217941" y1="6.8795347" x2="17.859085" y2="3.9566603" xlink:actuate="onLoad">
            <stop stop-opacity="1" stop-color="#ffffff" offset="0"/>
            <stop stop-opacity="0" stop-color="#ffffff" offset="1"/>
        </linearGradient>
        <linearGradient xlink:type="simple" xlink:actuate="onLoad" id="linearGradient9845" xlink:show="other">
            <stop stop-opacity="1" stop-color="#ffffff" offset="0"/>
            <stop stop-opacity="0.49484536" stop-color="#ffffff" offset="1.0000000"/>
        </linearGradient>
        <linearGradient gradientTransform="matrix(0.453445,0,0,0.470026,30.17248,24.3894)" id="linearGradient9845" gradientUnits="userSpaceOnUse" xlink:show="other" xlink:type="simple" x1="10.907269" y1="25.002281" x2="30.875446" y2="36.127281" xlink:actuate="onLoad">
            <stop stop-opacity="1" stop-color="#ffffff" offset="0"/>
            <stop stop-opacity="0.49484536" stop-color="#ffffff" offset="1.0000000"/>
        </linearGradient>
        <linearGradient xlink:type="simple" xlink:actuate="onLoad" id="linearGradient11327" xlink:show="other">
            <stop stop-opacity="1" stop-color="#7d6400" offset="0"/>
            <stop stop-opacity="1.0000000" stop-color="#be9700" offset="1.0000000"/>
        </linearGradient>
        <linearGradient gradientTransform="matrix(0.490236,0,0,0.534297,29.28263,22.22637)" id="linearGradient11327" gradientUnits="userSpaceOnUse" xlink:show="other" xlink:type="simple" x1="31.630468" y1="41.791817" x2="8.6713638" y2="25.793524" xlink:actuate="onLoad">
            <stop stop-opacity="1" stop-color="#7d6400" offset="0"/>
            <stop stop-opacity="1.0000000" stop-color="#be9700" offset="1.0000000"/>
        </linearGradient>
        <linearGradient xlink:type="simple" xlink:actuate="onLoad" id="linearGradient2092" xlink:show="other">
            <stop stop-opacity="1" stop-color="#fff7b0" offset="0"/>
            <stop stop-opacity="1.0000000" stop-color="#ffec41" offset="0.20999999"/>
            <stop stop-opacity="1" stop-color="#e2cc00" offset="0.83999997"/>
            <stop stop-opacity="1" stop-color="#c3af00" offset="1"/>
        </linearGradient>
        <linearGradient gradientTransform="matrix(0.490236,0,0,0.534297,29.28263,21.67589)" id="linearGradient2092" gradientUnits="userSpaceOnUse" xlink:show="other" xlink:type="simple" x1="6.7268200" y1="32.161697" x2="40.938126" y2="32.161697" xlink:actuate="onLoad">
            <stop stop-opacity="1" stop-color="#fff7b0" offset="0"/>
            <stop stop-opacity="1.0000000" stop-color="#ffec41" offset="0.20999999"/>
            <stop stop-opacity="1" stop-color="#e2cc00" offset="0.83999997"/>
            <stop stop-opacity="1" stop-color="#c3af00" offset="1"/>
        </linearGradient>
        <linearGradient xlink:type="simple" xlink:actuate="onLoad" id="linearGradient11335" xlink:show="other">
            <stop stop-opacity="1" stop-color="#6f716d" offset="0"/>
            <stop stop-opacity="1.0000000" stop-color="#9ea09c" offset="1.0000000"/>
        </linearGradient>
        <linearGradient gradientTransform="matrix(0.480246,0,0,0.497322,29.22711,23.01153)" id="linearGradient11335" gradientUnits="userSpaceOnUse" xlink:show="other" xlink:type="simple" x1="19.250618" y1="9.6635771" x2="16.198252" y2="6.0396547" xlink:actuate="onLoad">
            <stop stop-opacity="1" stop-color="#6f716d" offset="0"/>
            <stop stop-opacity="1.0000000" stop-color="#9ea09c" offset="1.0000000"/>
        </linearGradient>
        <linearGradient xlink:type="simple" xlink:actuate="onLoad" id="linearGradient10591" xlink:show="other">
            <stop stop-opacity="1.0000000" stop-color="#cad0c6" offset="0.0000000"/>
            <stop stop-opacity="1.0000000" stop-color="#eaece9" offset="0.50000000"/>
            <stop stop-opacity="1.0000000" stop-color="#c5cbc0" offset="1.0000000"/>
        </linearGradient>
        <linearGradient gradientTransform="matrix(0.480246,0,0,0.497322,29.22711,23.01153)" id="linearGradient10591" gradientUnits="userSpaceOnUse" xlink:show="other" xlink:type="simple" x1="12.886660" y1="4.3602757" x2="20.087339" y2="18.414022" xlink:actuate="onLoad">
            <stop stop-opacity="1.0000000" stop-color="#cad0c6" offset="0.0000000"/>
            <stop stop-opacity="1.0000000" stop-color="#eaece9" offset="0.50000000"/>
            <stop stop-opacity="1.0000000" stop-color="#c5cbc0" offset="1.0000000"/>
        </linearGradient>
        <linearGradient xlink:type="simple" xlink:actuate="onLoad" id="linearGradient6292" xlink:show="other">
            <stop stop-opacity="1" stop-color="#f57900" offset="0"/>
            <stop stop-opacity="1" stop-color="#ff9f43" offset="0.27027026"/>
            <stop stop-opacity="1" stop-color="#cb6400" offset="1"/>
        </linearGradient>
        <linearGradient xlink:type="simple" xlink:actuate="onLoad" xlink:show="other">
            <stop stop-opacity="1" stop-color="#ce5c00" offset="0"/>
            <stop stop-opacity="1" stop-color="#ff9a48" offset="1"/>
        </linearGradient>
        <linearGradient xlink:type="simple" xlink:actuate="onLoad" id="linearGradient6259" xlink:show="other">
            <stop stop-opacity="1" stop-color="#173764" offset="0"/>
            <stop stop-opacity="1" stop-color="#2d69c0" offset="1"/>
        </linearGradient>
        <linearGradient xlink:type="simple" xlink:actuate="onLoad" id="linearGradient6235" xlink:show="other">
            <stop stop-opacity="1" stop-color="#3465a4" offset="0"/>
            <stop stop-opacity="1" stop-color="#2d588f" offset="1"/>
        </linearGradient>
        <linearGradient xlink:type="simple" xlink:actuate="onLoad" id="linearGradient6210" xlink:show="other">
            <stop stop-opacity="1" stop-color="#FFFFFF" offset="0"/>
            <stop stop-opacity="0" stop-color="#FFFFFF" offset="1"/>
        </linearGradient>
        <linearGradient xlink:type="simple" xlink:actuate="onLoad" id="linearGradient6196" xlink:show="other">
            <stop stop-opacity="1" stop-color="#edd400" offset="0"/>
            <stop stop-opacity="1" stop-color="#c3af07" offset="0.5"/>
            <stop stop-opacity="1" stop-color="#ffeb3e" offset="1"/>
        </linearGradient>
        <linearGradient xlink:type="simple" xlink:actuate="onLoad" id="linearGradient6151" xlink:show="other">
            <stop stop-opacity="1" stop-color="#2e3436" offset="0"/>
            <stop stop-opacity="0" stop-color="#2e3436" offset="1"/>
        </linearGradient>
        <linearGradient xlink:type="simple" xlink:actuate="onLoad" id="linearGradient6125" xlink:show="other">
            <stop stop-opacity="1" stop-color="#000000" offset="0"/>
            <stop stop-opacity="0" stop-color="#000000" offset="1"/>
        </linearGradient>
        <linearGradient xlink:type="simple" xlink:actuate="onLoad" id="linearGradient6115" xlink:show="other">
            <stop stop-opacity="1" stop-color="#555753" offset="0"/>
            <stop stop-opacity="1" stop-color="#3e3f3c" offset="1"/>
        </linearGradient>
        <linearGradient xlink:type="simple" xlink:actuate="onLoad" id="linearGradient6099" xlink:show="other">
            <stop stop-opacity="1" stop-color="#eeeeec" offset="0"/>
            <stop stop-opacity="1" stop-color="#dededa" offset="0.8918919"/>
            <stop stop-opacity="1" stop-color="#838375" offset="1"/>
        </linearGradient>
        <linearGradient gradientTransform="matrix(1,0,0,0.934004,74,1.557982)" id="linearGradient6099" gradientUnits="userSpaceOnUse" xlink:show="other" xlink:type="simple" x1="22.797205" y1="39.679859" x2="22.797205" y2="46.635937" xlink:actuate="onLoad">
            <stop stop-opacity="1" stop-color="#eeeeec" offset="0"/>
            <stop stop-opacity="1" stop-color="#dededa" offset="0.8918919"/>
            <stop stop-opacity="1" stop-color="#838375" offset="1"/>
        </linearGradient>
        <radialGradient gradientTransform="matrix(1,0,0,0.128099,1.010043e-15,39.4622)" id="linearGradient6125" gradientUnits="userSpaceOnUse" xlink:show="other" xlink:type="simple" r="21.38998" cx="24.218407" fx="24.218407" cy="45.25996" fy="45.25996" xlink:actuate="onLoad">
            <stop stop-opacity="1" stop-color="#000000" offset="0"/>
            <stop stop-opacity="0" stop-color="#000000" offset="1"/>
        </radialGradient>
        <radialGradient gradientTransform="matrix(8.342154,-3.746956e-16,3.746956e-16,8.342154,-153.6289,-207.0663)" id="linearGradient6151" gradientUnits="userSpaceOnUse" xlink:show="other" xlink:type="simple" r="3.8890872" cx="29.61227" fx="29.61227" cy="27.974968" fy="27.974968" xlink:actuate="onLoad">
            <stop stop-opacity="1" stop-color="#2e3436" offset="0"/>
            <stop stop-opacity="0" stop-color="#2e3436" offset="1"/>
        </radialGradient>
        <linearGradient gradientTransform="translate(74,0)" id="linearGradient6196" gradientUnits="userSpaceOnUse" xlink:show="other" xlink:type="simple" x1="29.374996" y1="21.741114" x2="22.101643" y2="7.6786127" xlink:actuate="onLoad">
            <stop stop-opacity="1" stop-color="#edd400" offset="0"/>
            <stop stop-opacity="1" stop-color="#c3af07" offset="0.5"/>
            <stop stop-opacity="1" stop-color="#ffeb3e" offset="1"/>
        </linearGradient>
        <linearGradient gradientTransform="matrix(1,0,0,0.982516,74,-7.076703e-2)" id="linearGradient6115" gradientUnits="userSpaceOnUse" xlink:show="other" xlink:type="simple" x1="21.617008" y1="4.6076145" x2="26.443777" y2="47.007381" xlink:actuate="onLoad">
            <stop stop-opacity="1" stop-color="#555753" offset="0"/>
            <stop stop-opacity="1" stop-color="#3e3f3c" offset="1"/>
        </linearGradient>
        <linearGradient x1="16.845879" y1="8.6784801" x2="30.507824" gradientUnits="userSpaceOnUse" y2="78.505272" xlink:type="simple" xlink:actuate="onLoad" id="linearGradient6210" xlink:show="other">
            <stop stop-opacity="1" stop-color="#FFFFFF" offset="0"/>
            <stop stop-opacity="0" stop-color="#FFFFFF" offset="1"/>
        </linearGradient>
        <radialGradient gradientTransform="matrix(3.657239,1.232816e-15,-1.232816e-15,3.657239,-88.89792,-76.00592)" id="linearGradient6151" gradientUnits="userSpaceOnUse" xlink:show="other" xlink:type="simple" r="3.8890872" cx="33.45499" fx="33.45499" cy="28.603338" fy="28.603338" xlink:actuate="onLoad">
            <stop stop-opacity="1" stop-color="#2e3436" offset="0"/>
            <stop stop-opacity="0" stop-color="#2e3436" offset="1"/>
        </radialGradient>
        <linearGradient x1="22.15266" y1="6.2555637" x2="28.841305" gradientUnits="userSpaceOnUse" y2="44.992451" xlink:type="simple" xlink:actuate="onLoad" id="linearGradient6245" xlink:show="other">
            <stop stop-opacity="1" stop-color="#3465a4" offset="0"/>
            <stop stop-opacity="1" stop-color="#2d588f" offset="1"/>
        </linearGradient>
        <linearGradient x1="24.8125" y1="41.000004" x2="24.8125" gradientUnits="userSpaceOnUse" y2="43.375004" xlink:type="simple" xlink:actuate="onLoad" id="linearGradient6265" xlink:show="other">
            <stop stop-opacity="1" stop-color="#173764" offset="0"/>
            <stop stop-opacity="1" stop-color="#2d69c0" offset="1"/>
        </linearGradient>
        <linearGradient x1="24.508614" y1="12.495212" x2="24.508614" gradientUnits="userSpaceOnUse" y2="39.508614" xlink:type="simple" xlink:actuate="onLoad" id="linearGradient6298" xlink:show="other">
            <stop stop-opacity="1" stop-color="#f57900" offset="0"/>
            <stop stop-opacity="1" stop-color="#ff9f43" offset="0.27027026"/>
            <stop stop-opacity="1" stop-color="#cb6400" offset="1"/>
        </linearGradient>
        <radialGradient gradientTransform="matrix(1,0,0,0.128099,4.087916e-16,39.4622)" id="radialGradient6304" gradientUnits="userSpaceOnUse" xlink:show="other" xlink:type="simple" r="21.38998" cx="24.218407" fx="24.218407" cy="45.25996" fy="45.25996" xlink:actuate="onLoad">
            <stop stop-opacity="1" stop-color="#000000" offset="0"/>
            <stop stop-opacity="0" stop-color="#000000" offset="1"/>
        </radialGradient>
        <linearGradient gradientTransform="matrix(1.095798,0,0,0.547899,29.407915,20.320604)" id="linearGradient12071" gradientUnits="userSpaceOnUse" xlink:show="other" xlink:type="simple" x1="11.500000" y1="20.579729" x2="11.779029" y2="14.259961" xlink:actuate="onLoad">
            <stop stop-opacity="1" stop-color="#ffffff" offset="0"/>
            <stop stop-opacity="0" stop-color="#ffffff" offset="1"/>
        </linearGradient>
        <linearGradient gradientTransform="matrix(1.095798,0,0,0.516125,17.354129,21.041225)" id="linearGradient12071" gradientUnits="userSpaceOnUse" xlink:show="other" xlink:type="simple" x1="14.217941" y1="6.8795347" x2="17.859085" y2="3.9566603" xlink:actuate="onLoad">
            <stop stop-opacity="1" stop-color="#ffffff" offset="0"/>
            <stop stop-opacity="0" stop-color="#ffffff" offset="1"/>
        </linearGradient>
        <linearGradient gradientTransform="matrix(0.5067805,0,0,0.5253118,24.375539,22.058988)" id="linearGradient9845" gradientUnits="userSpaceOnUse" xlink:show="other" xlink:type="simple" x1="10.907269" y1="25.002281" x2="30.875446" y2="36.127281" xlink:actuate="onLoad">
            <stop stop-opacity="1" stop-color="#ffffff" offset="0"/>
            <stop stop-opacity="0.49484536" stop-color="#ffffff" offset="1.0000000"/>
        </linearGradient>
        <linearGradient gradientTransform="matrix(0.547899,0,0,0.5971426,23.381022,19.026307)" id="linearGradient17807" gradientUnits="userSpaceOnUse" xlink:show="other" xlink:type="simple" x1="6.7268200" y1="32.161697" y2="32.161697" x2="40.938126" xlink:actuate="onLoad">
            <stop stop-opacity="1" stop-color="#fff7b0" offset="0"/>
            <stop stop-opacity="1.0000000" stop-color="#ffec41" offset="0.20999999"/>
            <stop stop-opacity="1" stop-color="#e2cc00" offset="0.83999997"/>
            <stop stop-opacity="1" stop-color="#c3af00" offset="1"/>
        </linearGradient>
        <linearGradient gradientTransform="matrix(0.5367339,0,0,0.5558185,23.318972,20.519049)" id="linearGradient17812" gradientUnits="userSpaceOnUse" xlink:show="other" xlink:type="simple" x1="12.886660" y1="4.3602757" y2="18.414022" x2="20.087339" xlink:actuate="onLoad">
            <stop stop-opacity="1.0000000" stop-color="#cad0c6" offset="0.0000000"/>
            <stop stop-opacity="1.0000000" stop-color="#eaece9" offset="0.50000000"/>
            <stop stop-opacity="1.0000000" stop-color="#c5cbc0" offset="1.0000000"/>
        </linearGradient>
    </defs>
    <g>
        <rect fill-opacity="1" display="inline" stroke="#888a85" visibility="visible" stroke-linecap="butt" width="5.625" stroke-miterlimit="4" stroke-opacity="1" fill="#d3d7cf" stroke-dasharray="none" stroke-width="1.00000012" color="black" height="4.9375019" x="5.5" stroke-linejoin="miter" rx="0.95994544" y="14.562506" ry="0.9599458" stroke-dashoffset="0.8015976" fill-rule="evenodd"/>
        <path fill-opacity="0.52808989" display="inline" stroke="none" d="M 45.608387 45.25996 C 45.608387 46.773243 36.031765 48.0 24.218407 48.0 C 12.405046 48.0 2.8284264 46.773243 2.8284264 45.25996 C 2.8284264 43.746677 12.405046 42.51992 24.218407 42.51992 C 36.031765 42.51992 45.608387 43.746677 45.608387 45.25996 z " visibility="visible" stroke-linecap="butt" transform="matrix(1.066115,0,0,1.395458,-1.52799,-19.35551)" stroke-miterlimit="4" stroke-opacity="1" fill="url(#radialGradient6304)" stroke-dasharray="none" stroke-width="1" color="black" stroke-linejoin="miter" stroke-dashoffset="0.8" fill-rule="evenodd"/>
        <path fill-opacity="1" display="inline" stroke="#204a87" d="M 8.278174 3.523656 C 7.5906744 3.461156 6.5416574 4.2476134 6.5416574 5.31195 L 6.5309343 13.507098 L 7.5388975 13.507098 L 7.445148 25.506466 L 6.4651594 25.529016 L 6.4026594 42.6967 C 6.4026594 43.822514 7.1002855 44.49245 8.010912 44.49245 L 39.75331 44.49245 C 40.78456 44.49245 41.50382 43.616943 41.50382 42.710693 L 41.53507 18.510462 L 39.556007 18.510462 L 39.524757 14.578481 L 41.564438 14.55034 L 41.591305 8.468601 C 41.591305 7.937351 41.158188 7.4761634 41.158188 7.4761634 C 41.158188 7.4761634 38.106796 3.9560213 38.106796 3.9560213 C 37.856796 3.7060213 37.624992 3.549925 36.968742 3.518675 L 8.278174 3.523656 z " visibility="visible" id="path6230" stroke-linecap="butt" stroke-miterlimit="4" stroke-opacity="1" fill="url(#linearGradient6245)" stroke-dasharray="none" stroke-width="1" color="black" stroke-linejoin="miter" stroke-dashoffset="0.8015976" fill-rule="evenodd"/>
        <path fill-opacity="0.5" display="inline" stroke="#ffffff" d="M 8.1875 4.53125 C 8.263268 4.538138 7.996087 4.5828514 7.8125 4.75 C 7.628913 4.9171486 7.53125 5.1130896 7.53125 5.3125 L 7.53125 12.5 C 8.083512 12.500055 8.531196 12.947738 8.53125 13.5 L 8.4375 25.5 C 8.437712 26.040285 8.008771 26.483065 7.46875 26.5 L 7.40625 42.6875 C 7.40625 43.04815 7.4992247 43.239998 7.59375 43.34375 C 7.6882753 43.447502 7.7960463 43.5 8.0 43.5 L 39.75 43.5 C 40.21559 43.5 40.5 43.096264 40.5 42.71875 L 40.53125 19.5 L 39.5625 19.5 C 39.01024 19.499945 38.562557 19.052261 38.5625 18.5 L 38.53125 14.59375 C 38.531303 14.041488 38.97899 13.593805 39.53125 13.59375 L 40.5625 13.5625 L 40.59375 8.46875 C 40.59375 8.486515 40.4375 8.15625 40.4375 8.15625 C 40.426857 8.146065 40.416435 8.135646 40.40625 8.125 C 40.40625 8.125 37.46148 4.786332 37.375 4.6875 C 37.206852 4.519353 37.27424 4.5372486 36.96875 4.53125 L 36.90625 4.53125 L 8.28125 4.53125 C 8.250017 4.532716 8.218733 4.532716 8.1875 4.53125 z " visibility="visible" stroke-linecap="butt" stroke-miterlimit="4" stroke-opacity="0.34117648000000000" fill="none" stroke-dasharray="none" stroke-width="1" color="black" stroke-linejoin="miter" xlink:href="#path6230" stroke-dashoffset="0.80159760000000002" fill-rule="evenodd"/>
        <rect fill-opacity="1" display="inline" stroke="#fcaf3e" visibility="visible" stroke-linecap="butt" width="26.999992" stroke-miterlimit="4" stroke-opacity="1" fill="url(#linearGradient6298)" stroke-dasharray="none" stroke-width="1.00000024" color="black" height="28.999992" x="10.499999" stroke-linejoin="miter" rx="0.95994538" y="10.500004" ry="0.95994616" stroke-dashoffset="0.8015976" fill-rule="evenodd"/>
        <rect fill-opacity="1" display="inline" stroke="url(#linearGradient6265)" visibility="visible" stroke-linecap="butt" width="18.6875" stroke-miterlimit="4" stroke-opacity="1" fill="none" stroke-dasharray="none" stroke-width="1" color="black" height="1.0000001" x="15" stroke-linejoin="miter" rx="0.5625" y="41.500004" ry="0.56250006" stroke-dashoffset="0.8015976" fill-rule="evenodd"/>
        <path text-anchor="start" fill-opacity="1" stroke="#000000" d="M 17.249207 30.788025 C 17.022446 30.573875 16.730604 30.405909 16.373678 30.284124 C 16.016745 30.162355 15.676613 30.101467 15.35328 30.10146 C 14.937559 30.101467 14.607925 30.198048 14.364376 30.391205 C 14.120821 30.584372 13.999045 30.840523 13.999048 31.159653 C 13.999045 31.499792 14.093527 31.776936 14.282492 31.991089 C 14.471452 32.201054 14.878771 32.4656 15.504451 32.784733 C 16.335882 33.21305 16.909067 33.603577 17.224012 33.9563 C 17.543142 34.309032 17.702711 34.77514 17.702717 35.354626 C 17.702711 36.14827 17.408768 36.79914 16.820892 37.30724 C 16.237202 37.81114 15.428862 38.063087 14.395869 38.063087 C 14.043137 38.063087 13.663112 38.0106 13.255794 37.90562 C 12.852673 37.80484 12.531437 37.67677 12.292085 37.521397 L 12.292085 35.701057 C 12.577627 35.9866 12.91566 36.211254 13.306185 36.375023 C 13.700905 36.53459 14.064133 36.614376 14.395869 36.614376 C 14.874572 36.614376 15.233601 36.521996 15.472957 36.33723 C 15.712306 36.15247 15.831982 35.875324 15.831986 35.50579 C 15.831982 35.211857 15.712306 34.968304 15.472957 34.775135 C 15.233601 34.57778 14.801086 34.31533 14.175413 33.987793 C 13.503544 33.62247 13.008042 33.255043 12.688906 32.885513 C 12.373968 32.51179 12.216499 31.984797 12.2165 31.304523 C 12.216499 30.527683 12.502042 29.89151 13.073131 29.396 C 13.644216 28.896309 14.387468 28.646456 15.30289 28.646448 C 16.09233 28.646456 16.7411 28.757736 17.249207 28.980282 L 17.249207 30.788025 M 19.283705 28.848007 L 22.44568 28.848007 C 23.974173 28.848017 25.120544 29.215445 25.884802 29.950293 C 26.65324 30.685152 27.037464 31.785334 27.037474 33.25084 C 27.037464 34.665962 26.604952 35.79134 25.73993 36.626972 C 24.879091 37.46261 23.711723 37.880424 22.23782 37.880424 L 19.283705 37.880424 L 19.283705 28.848007 M 21.041058 36.4884 L 22.200027 36.4884 C 23.149036 36.4884 23.894388 36.20496 24.436089 35.63807 C 24.981972 35.071182 25.25492 34.296436 25.254927 33.313828 C 25.25492 32.36062 24.990372 31.619469 24.461285 31.090366 C 23.93218 30.561275 23.195229 30.29673 22.25042 30.296722 L 21.041058 30.296722 L 21.041058 36.4884 " font-variant="normal" stroke-linecap="butt" stroke-miterlimit="4" stroke-opacity="1" fill="#000000" font-weight="bold" stroke-width="0.1" font-family="Segoe" font-style="normal" stroke-linejoin="miter" font-stretch="normal" font-size="12.89985371px"/>
        <path fill-opacity="1" display="inline" stroke="none" d="M 37.38827 16.003418 C 37.38827 17.711962 34.97433 19.09701 31.996582 19.09701 C 29.018835 19.09701 26.604893 17.711962 26.604893 16.003418 C 26.604893 14.294874 29.018835 12.909826 31.996582 12.909826 C 34.97433 12.909826 37.38827 14.294874 37.38827 16.003418 z " visibility="visible" stroke-linecap="butt" transform="translate(-1.388271,-0.909826)" stroke-miterlimit="4" stroke-opacity="1" fill="#3465a4" stroke-dasharray="none" stroke-width="0.1" color="black" stroke-linejoin="miter" stroke-dashoffset="0.8015976" fill-rule="evenodd"/>
        <path text-anchor="start" fill-opacity="1" stroke="none" d="M 27.144047 15.022972 C 27.305565 14.742201 27.551619 14.601816 27.882204 14.601813 C 28.170525 14.601816 28.399218 14.690877 28.568287 14.869 C 28.737352 15.045616 28.821884 15.288649 28.821888 15.598102 C 28.821884 15.910575 28.7215 16.169458 28.520737 16.374754 C 28.319967 16.57854 28.061838 16.680431 27.746347 16.680431 C 27.420288 16.680431 27.166689 16.551369 26.985546 16.29324 C 26.804401 16.03511 26.713833 15.66905 26.713833 15.195057 C 26.713833 14.613891 26.840631 14.160278 27.094233 13.834218 C 27.347832 13.508163 27.668606 13.345134 28.056557 13.345131 C 28.29808 13.345134 28.486769 13.37759 28.622627 13.442496 L 28.622627 13.872711 C 28.433935 13.774595 28.242228 13.725535 28.047499 13.725532 C 27.769745 13.725535 27.549355 13.840259 27.386324 14.069705 C 27.224804 14.297646 27.144047 14.615401 27.144047 15.022972 M 27.793898 16.322676 C 27.97806 16.322676 28.125238 16.26154 28.235435 16.139267 C 28.345629 16.015486 28.400726 15.852458 28.400728 15.650181 C 28.400726 15.432809 28.347137 15.266762 28.239964 15.152036 C 28.132786 15.035804 27.979568 14.977687 27.780312 14.977685 C 27.59766 14.977687 27.449724 15.036559 27.336512 15.154301 C 27.223295 15.272044 27.166689 15.410921 27.166689 15.570929 C 27.166689 15.773207 27.227068 15.949067 27.347832 16.09851 C 27.468594 16.247953 27.617283 16.322676 27.793898 16.322676 M 30.375193 13.304374 C 30.719362 13.304378 30.973717 13.443253 31.138258 13.721004 C 31.302792 13.99725 31.385063 14.417652 31.385065 14.982214 C 31.385063 15.536212 31.289207 15.960389 31.0975 16.254747 C 30.905788 16.547594 30.637093 16.69402 30.291412 16.69402 C 29.965351 16.69402 29.708736 16.553633 29.521551 16.27286 C 29.33588 15.992089 29.243044 15.588291 29.243044 15.061464 C 29.243044 14.465203 29.344938 14.023667 29.548723 13.736853 C 29.75402 13.448536 30.029509 13.304378 30.375193 13.304374 M 30.334435 16.331732 C 30.536709 16.331734 30.69219 16.221537 30.800877 16.001146 C 30.909561 15.779246 30.963903 15.453188 30.963907 15.022972 C 30.963903 14.530868 30.909561 14.183676 30.800877 13.981397 C 30.6937 13.779123 30.541239 13.677984 30.343493 13.677982 C 30.121588 13.677984 29.955542 13.792709 29.845348 14.022154 C 29.73515 14.250095 29.680052 14.592003 29.680052 15.047879 C 29.680052 15.469038 29.735905 15.788302 29.84761 16.005674 C 29.959316 16.223047 30.121588 16.331734 30.334435 16.331732 M 34.353554 13.38136 C 33.831253 14.15273 33.47425 14.684839 33.282543 14.977685 L 34.324116 16.628355 L 33.778423 16.628355 L 33.04932 15.385259 C 33.04026 15.371674 33.020638 15.325633 32.990448 15.247136 C 32.97988 15.263742 32.96931 15.286385 32.958748 15.315065 C 32.94667 15.340728 32.87346 15.46149 32.739113 15.677351 L 32.14134 16.628355 L 31.59338 16.628355 L 32.71647 15.000328 L 31.699802 13.38136 L 32.256817 13.38136 C 32.73232 14.211603 32.975353 14.639554 32.98592 14.665213 C 32.997997 14.695406 33.00856 14.718803 33.01762 14.735406 C 33.034225 14.699179 33.04781 14.669744 33.058376 14.647099 C 33.070454 14.624457 33.11121 14.557284 33.18065 14.445577 L 33.841824 13.38136 L 34.353554 13.38136 " font-variant="normal" stroke-linecap="butt" stroke-opacity="1" fill="#eeeeec" font-weight="normal" stroke-width="1px" font-family="Segoe" font-style="normal" stroke-linejoin="miter" font-stretch="normal" font-size="10px"/>
        <path stroke-linecap="butt" fill-opacity="1" fill="url(#linearGradient17812)" fill-rule="evenodd" stroke-linejoin="miter" stroke-dasharray="none" d="M 28.91983 33.002712 L 28.91983 28.731497 C 28.91983 24.357128 31.85176 22.362856 36.21134 22.417484 C 40.59464 22.472113 43.488605 24.375313 43.488605 28.801144 L 43.481358 33.002712 L 40.807 33.002712 L 40.807 29.901123 C 40.7352 28.824492 41.105408 25.218176 36.242046 25.218176 C 31.34514 25.218176 31.632977 28.83752 31.650524 29.922558 L 31.650524 33.002712 L 28.91983 33.002712 z " stroke="#888888" stroke-width="1.32385433000000010" stroke-opacity="1" stroke-miterlimit="4"/>
        <rect fill-opacity="1" stroke="#be9700" stroke-linecap="round" width="19.174231" stroke-miterlimit="4" stroke-opacity="1" fill="url(#linearGradient17807)" stroke-dasharray="none" stroke-width="1.32385445000000000" height="13.153385" x="26.941187" stroke-linejoin="round" rx="2.9587834" y="33.059151" ry="2.574307" stroke-dashoffset="0" fill-rule="evenodd"/>
    </g>
</svg>
