<?xml version="1.0" encoding="UTF-8"?>
<svg xmlns="http://www.w3.org/2000/svg" xmlns:xlink="http://www.w3.org/1999/xlink" contentScriptType="text/ecmascript" width="44" baseProfile="tiny" zoomAndPan="magnify" contentStyleType="text/css" viewBox="0 0 44 44" height="44" preserveAspectRatio="xMidYMid meet" version="1.1">
    <defs>
        <linearGradient x1="42.1875" gradientTransform="matrix(0.9330578,0,0,0.9330578,0.221772,3.3629458)" y1="31" x2="45" gradientUnits="userSpaceOnUse" y2="39.984692" xlink:type="simple" xlink:actuate="onLoad" id="linearGradient4010" xlink:show="other">
            <stop stop-opacity="1" stop-color="#bbbdba" offset="0"/>
            <stop stop-opacity="1" stop-color="#70746e" offset="1"/>
        </linearGradient>
        <linearGradient gradientTransform="matrix(1.4563565,0,0,1.4563565,12.137604,9.5042023)" id="linearGradient12588" gradientUnits="userSpaceOnUse" xlink:show="other" xlink:type="simple" x1="42.1875" y1="31" y2="39.984692" x2="45" xlink:actuate="onLoad">
            <stop stop-opacity="1" stop-color="#bbbdba" offset="0"/>
            <stop stop-opacity="1" stop-color="#70746e" offset="1"/>
        </linearGradient>
        <radialGradient gradientTransform="matrix(1.5960243,0,0,1.0495492,-10.57215,5.0448588)" id="radialGradient8161" gradientUnits="userSpaceOnUse" xlink:show="other" xlink:type="simple" r="19.96875" cx="12.700491" fx="12.700491" cy="10.404876" fy="10.404876" xlink:actuate="onLoad">
            <stop stop-opacity="1" stop-color="#ffffff" offset="0"/>
            <stop stop-opacity="0" stop-color="#ffffff" offset="1"/>
        </radialGradient>
        <radialGradient gradientTransform="matrix(2.491143,0,0,1.6381813,-4.7100112,12.129404)" id="radialGradient12591" gradientUnits="userSpaceOnUse" xlink:show="other" xlink:type="simple" r="19.96875" cx="12.700491" fx="12.700491" cy="10.404876" fy="10.404876" xlink:actuate="onLoad">
            <stop stop-opacity="1" stop-color="#ffffff" offset="0"/>
            <stop stop-opacity="0" stop-color="#ffffff" offset="1"/>
        </radialGradient>
        <linearGradient x1="33.396004" gradientTransform="matrix(0.9330578,0,0,0.9330578,5.0247506,0.1814127)" y1="36.921333" x2="34.170048" gradientUnits="userSpaceOnUse" y2="38.070381" xlink:type="simple" xlink:actuate="onLoad" id="linearGradient3987" xlink:show="other">
            <stop stop-opacity="1" stop-color="#ffffff" offset="0"/>
            <stop stop-opacity="0" stop-color="#ffffff" offset="1"/>
        </linearGradient>
        <linearGradient gradientTransform="matrix(1.4563565,0,0,1.4563565,19.634299,4.5383293)" id="linearGradient12594" gradientUnits="userSpaceOnUse" xlink:show="other" xlink:type="simple" x1="33.396004" y1="36.921333" y2="38.070381" x2="34.170048" xlink:actuate="onLoad">
            <stop stop-opacity="1" stop-color="#ffffff" offset="0"/>
            <stop stop-opacity="0" stop-color="#ffffff" offset="1"/>
        </linearGradient>
        <linearGradient x1="35.996582" gradientTransform="matrix(0.9330578,0,0,0.9330578,5.0247506,0.5313093)" y1="40.458221" x2="33.664921" gradientUnits="userSpaceOnUse" y2="37.770721" xlink:type="simple" xlink:actuate="onLoad" id="linearGradient8169" xlink:show="other">
            <stop stop-opacity="1" stop-color="#7c7c7c" offset="0"/>
            <stop stop-opacity="1" stop-color="#b8b8b8" offset="1"/>
        </linearGradient>
        <linearGradient gradientTransform="matrix(1.4563565,0,0,1.4563565,19.634299,5.0844629)" id="linearGradient12597" gradientUnits="userSpaceOnUse" xlink:show="other" xlink:type="simple" x1="35.996582" y1="40.458221" y2="37.770721" x2="33.664921" xlink:actuate="onLoad">
            <stop stop-opacity="1" stop-color="#7c7c7c" offset="0"/>
            <stop stop-opacity="1" stop-color="#b8b8b8" offset="1"/>
        </linearGradient>
        <linearGradient gradientTransform="matrix(1.0254203,0,0,1.0326122,-1.5611128,-1.6760368)" id="linearGradient7673" gradientUnits="userSpaceOnUse" stroke-miterlimit="4.0000000" xlink:show="other" xlink:type="simple" stroke-dasharray="none" y1="24.6274" x1="21.9326" y2="7.1091" x2="21.9326" stroke-width="1.2166667" xlink:actuate="onLoad">
            <stop stroke-width="1.2166667" stroke-miterlimit="4.0000000" stroke-dasharray="none" stop-color="#d0d6e5" offset="0"/>
            <stop stroke-width="1.2166667" stroke-miterlimit="4.0000000" stroke-dasharray="none" stop-color="#093a80" offset="1"/>
        </linearGradient>
        <linearGradient gradientTransform="matrix(1.0254203,0,0,1.0326122,-1.5611128,-1.6760368)" id="linearGradient12577" gradientUnits="userSpaceOnUse" stroke-miterlimit="4.0000000" xlink:show="other" xlink:type="simple" stroke-dasharray="none" x1="21.9326" y1="24.6274" stroke-width="1.2166667" y2="7.1091" x2="21.9326" xlink:actuate="onLoad">
            <stop stop-color="#d0d6e5" stroke-dasharray="none" stroke-width="1.2166667" stroke-miterlimit="4.0000000" offset="0"/>
            <stop stop-color="#093a80" stroke-dasharray="none" stroke-width="1.2166667" stroke-miterlimit="4.0000000" offset="1"/>
        </linearGradient>
        <linearGradient gradientTransform="matrix(1.0254203,0,0,-0.7443534,-1.5611128,37.742347)" id="linearGradient7671" gradientUnits="userSpaceOnUse" stroke-miterlimit="4.0000000" xlink:show="other" xlink:type="simple" stroke-dasharray="none" y1="24.627399" x1="21.9326" y2="7.1090999" x2="21.9326" stroke-width="1.2166667" xlink:actuate="onLoad">
            <stop stop-opacity="1" stop-color="#8595bc" offset="0"/>
            <stop stop-opacity="1" stop-color="#041a3b" offset="1"/>
        </linearGradient>
        <linearGradient gradientTransform="matrix(1.0254203,0,0,-0.7443534,-1.5611128,37.742347)" id="linearGradient12575" gradientUnits="userSpaceOnUse" stroke-miterlimit="4.0000000" xlink:show="other" xlink:type="simple" stroke-dasharray="none" x1="21.9326" y1="24.627399" stroke-width="1.2166667" y2="7.1090999" x2="21.9326" xlink:actuate="onLoad">
            <stop stop-opacity="1" stop-color="#8595bc" offset="0"/>
            <stop stop-opacity="1" stop-color="#041a3b" offset="1"/>
        </linearGradient>
        <linearGradient gradientTransform="matrix(1.3380078,0,0,0.9238084,49.040912,6.0118202)" id="linearGradient8148" gradientUnits="userSpaceOnUse" stroke-miterlimit="4.0000000" xlink:show="other" xlink:type="simple" stroke-dasharray="none" y1="3.7319" x1="12.4873" y2="36.0328" x2="31.0813" stroke-width="1.2166667" xlink:actuate="onLoad">
            <stop stroke-width="1.2166667" stroke-miterlimit="4.0000000" stroke-dasharray="none" stop-color="#d2d2d2" offset="0"/>
            <stop stroke-width="1.2166667" stroke-miterlimit="4.0000000" stroke-dasharray="none" stop-color="#ededed" offset="1"/>
        </linearGradient>
        <linearGradient gradientTransform="matrix(2.0884198,0,0,1.4419197,88.336607,13.638679)" id="linearGradient12618" gradientUnits="userSpaceOnUse" stroke-miterlimit="4.0000000" xlink:show="other" xlink:type="simple" stroke-dasharray="none" x1="12.4873" y1="3.7319" stroke-width="1.2166667" y2="36.0328" x2="31.0813" xlink:actuate="onLoad">
            <stop stop-color="#d2d2d2" stroke-dasharray="none" stroke-width="1.2166667" stroke-miterlimit="4.0000000" offset="0"/>
            <stop stop-color="#ededed" stroke-dasharray="none" stroke-width="1.2166667" stroke-miterlimit="4.0000000" offset="1"/>
        </linearGradient>
        <linearGradient x1="19.8491" y1="15.3784" x2="30.808001" gradientUnits="userSpaceOnUse" y2="28.5527" xlink:type="simple" xlink:actuate="onLoad" xlink:show="other">
            <stop stop-color="#b3ddff" offset="0"/>
            <stop stop-color="#084296" offset="1"/>
        </linearGradient>
        <linearGradient x1="-244.2085" gradientTransform="matrix(1.1364,0,0,-1.1364,295.6252,445.1444)" y1="374.8027" x2="-252.14951" gradientUnits="userSpaceOnUse" y2="369.22049" xlink:type="simple" xlink:actuate="onLoad" xlink:show="other">
            <stop stop-color="#5aa7e0" offset="0"/>
            <stop stop-color="#3366cc" offset="1"/>
        </linearGradient>
        <linearGradient x1="22.547899" y1="22.958" x2="24.5277" gradientUnits="userSpaceOnUse" y2="29.410999" xlink:type="simple" xlink:actuate="onLoad" xlink:show="other">
            <stop stop-color="#5aa7e0" offset="0"/>
            <stop stop-color="#3366cc" offset="1"/>
        </linearGradient>
        <linearGradient x1="30.1318" y1="6.9404001" x2="27.491899" gradientUnits="userSpaceOnUse" y2="28.3901" xlink:type="simple" xlink:actuate="onLoad" xlink:show="other">
            <stop stop-color="#b3ddff" offset="0"/>
            <stop stop-color="#5aa7e0" offset="0.5337"/>
            <stop stop-color="#0046b7" offset="1"/>
        </linearGradient>
        <linearGradient x1="20.696301" y1="28.0508" x2="28.952801" gradientUnits="userSpaceOnUse" y2="17.646601" xlink:type="simple" xlink:actuate="onLoad" xlink:show="other">
            <stop stop-color="#b3ddff" offset="0"/>
            <stop stop-color="#a7d6fb" offset="0.1197"/>
            <stop stop-color="#70b4e8" offset="0.713"/>
            <stop stop-color="#5aa7e0" offset="1"/>
        </linearGradient>
        <radialGradient gradientUnits="userSpaceOnUse" xlink:type="simple" r="14.375000" xlink:actuate="onLoad" cx="55.000000" cy="125.00000" xlink:show="other" fx="55.000000" fy="125.00000">
            <stop stop-opacity="1.0000000" stop-color="#ffffff" offset="0.0000000"/>
            <stop stop-opacity="0.89108908" stop-color="#fff520" offset="0.50000000"/>
            <stop stop-opacity="0.0000000" stop-color="#fff300" offset="1.0000000"/>
        </radialGradient>
        <linearGradient xlink:type="simple" xlink:actuate="onLoad" xlink:show="other">
            <stop stop-opacity="1.0000000" stop-color="#ffffff" offset="0.0000000"/>
            <stop stop-opacity="0.89108908" stop-color="#fff520" offset="0.50000000"/>
            <stop stop-opacity="0.0000000" stop-color="#fff300" offset="1.0000000"/>
        </linearGradient>
        <linearGradient x1="2.0618774" gradientTransform="matrix(1.343475,0,0,1.417854,2.879511,0.314599)" y1="15.257116" x2="30.599684" gradientUnits="userSpaceOnUse" y2="15.257116" xlink:type="simple" xlink:actuate="onLoad" xlink:show="other">
            <stop stop-opacity="1.0000000" stop-color="#989690" offset="0.0000000"/>
            <stop stop-opacity="1.0000000" stop-color="#656460" offset="1.0000000"/>
        </linearGradient>
        <linearGradient x1="11.572842" gradientTransform="matrix(1.343475,0,0,1.417854,2.879511,0.314599)" y1="4.7461626" x2="18.475286" gradientUnits="userSpaceOnUse" y2="26.022910" xlink:type="simple" xlink:actuate="onLoad" xlink:show="other">
            <stop stop-opacity="1.0000000" stop-color="#ffffff" offset="0.0000000"/>
            <stop stop-opacity="1.0000000" stop-color="#e2e2e2" offset="1.0000000"/>
        </linearGradient>
        <linearGradient x1="5.8266134" gradientTransform="matrix(1.570607,0,0,1.190976,2.879512,0.343005)" y1="7.2310905" x2="13.467486" gradientUnits="userSpaceOnUse" y2="17.876846" xlink:type="simple" xlink:actuate="onLoad" xlink:show="other">
            <stop stop-opacity="1.0000000" stop-color="#ededed" offset="0.0000000"/>
            <stop stop-opacity="1.0000000" stop-color="#c8c8c8" offset="1.0000000"/>
        </linearGradient>
        <linearGradient x1="10.184240" gradientTransform="matrix(1.819266,0,0,1.028193,2.879512,0.343005)" y1="15.148383" x2="15.310744" gradientUnits="userSpaceOnUse" y2="29.568739" xlink:type="simple" xlink:actuate="onLoad" xlink:show="other">
            <stop stop-opacity="1" stop-color="#ffffff" offset="0"/>
            <stop stop-opacity="1.0000000" stop-color="#dcdcdc" offset="1.0000000"/>
        </linearGradient>
        <linearGradient x1="8.9156475" gradientTransform="matrix(2.454781,0,0,0.762004,2.879512,0.343005)" y1="37.197018" x2="9.8855033" gradientUnits="userSpaceOnUse" y2="52.090678" xlink:type="simple" xlink:actuate="onLoad" xlink:show="other">
            <stop stop-opacity="1.0000000" stop-color="#9aa29a" offset="0.0000000"/>
            <stop stop-opacity="1.0000000" stop-color="#b5beb5" offset="1.0000000"/>
        </linearGradient>
        <linearGradient x1="8.9156475" gradientTransform="matrix(2.454781,0,0,0.762004,2.879512,0.343005)" y1="37.197018" x2="9.8855033" gradientUnits="userSpaceOnUse" y2="52.090678" xlink:type="simple" xlink:actuate="onLoad" xlink:show="other">
            <stop stop-opacity="1.0000000" stop-color="#9aa29a" offset="0.0000000"/>
            <stop stop-opacity="1.0000000" stop-color="#b5beb5" offset="1.0000000"/>
        </linearGradient>
        <linearGradient x1="11.233107" gradientTransform="matrix(1.370928,0,0,1.443758,2.431133,-0.140786)" y1="13.686079" x2="21.111549" gradientUnits="userSpaceOnUse" y2="24.132717" xlink:type="simple" xlink:actuate="onLoad" xlink:show="other">
            <stop stop-opacity="1" stop-color="#ffffff" offset="0"/>
            <stop stop-opacity="1.0000000" stop-color="#ededed" offset="1.0000000"/>
        </linearGradient>
        <linearGradient x1="8.7803760" gradientTransform="matrix(2.3949,0,0,0.781058,2.879512,0.343005)" y1="37.784682" x2="9.7619219" gradientUnits="userSpaceOnUse" y2="32.203162" xlink:type="simple" xlink:actuate="onLoad" xlink:show="other">
            <stop stop-opacity="0.12871288" stop-color="#000000" offset="0.0000000"/>
            <stop stop-opacity="0.0000000" stop-color="#000000" offset="1.0000000"/>
        </linearGradient>
        <radialGradient gradientTransform="scale(1.902215,0.525703)" gradientUnits="userSpaceOnUse" xlink:type="simple" r="7.2284161" xlink:actuate="onLoad" cx="6.7027131" cy="73.615714" xlink:show="other" fx="6.7027131" fy="73.615714">
            <stop stop-opacity="1" stop-color="#000000" offset="0"/>
            <stop stop-opacity="0" stop-color="#000000" offset="1"/>
        </radialGradient>
        <linearGradient xlink:type="simple" xlink:actuate="onLoad" xlink:show="other">
            <stop stop-opacity="1" stop-color="#000000" offset="0"/>
            <stop stop-opacity="0" stop-color="#000000" offset="1"/>
        </linearGradient>
        <linearGradient xlink:type="simple" xlink:actuate="onLoad" xlink:show="other">
            <stop stop-opacity="1.0000000" stop-color="#ffffff" offset="0.0000000"/>
            <stop stop-opacity="1.0000000" stop-color="#e2e2e2" offset="1.0000000"/>
        </linearGradient>
        <linearGradient xlink:type="simple" xlink:actuate="onLoad" xlink:show="other">
            <stop stop-opacity="1.0000000" stop-color="#989690" offset="0.0000000"/>
            <stop stop-opacity="1.0000000" stop-color="#656460" offset="1.0000000"/>
        </linearGradient>
        <linearGradient xlink:type="simple" xlink:actuate="onLoad" xlink:show="other">
            <stop stop-opacity="1.0000000" stop-color="#ededed" offset="0.0000000"/>
            <stop stop-opacity="1.0000000" stop-color="#c8c8c8" offset="1.0000000"/>
        </linearGradient>
        <linearGradient xlink:type="simple" xlink:actuate="onLoad" xlink:show="other">
            <stop stop-opacity="1" stop-color="#ffffff" offset="0"/>
            <stop stop-opacity="1.0000000" stop-color="#dcdcdc" offset="1.0000000"/>
        </linearGradient>
        <linearGradient xlink:type="simple" xlink:actuate="onLoad" xlink:show="other">
            <stop stop-opacity="1.0000000" stop-color="#9aa29a" offset="0.0000000"/>
            <stop stop-opacity="1.0000000" stop-color="#b5beb5" offset="1.0000000"/>
        </linearGradient>
        <linearGradient xlink:type="simple" xlink:actuate="onLoad" xlink:show="other">
            <stop stop-opacity="1" stop-color="#ffffff" offset="0"/>
            <stop stop-opacity="1.0000000" stop-color="#ededed" offset="1.0000000"/>
        </linearGradient>
        <linearGradient xlink:type="simple" xlink:actuate="onLoad" xlink:show="other">
            <stop stop-opacity="0.12871288" stop-color="#000000" offset="0.0000000"/>
            <stop stop-opacity="0.0000000" stop-color="#000000" offset="1.0000000"/>
        </linearGradient>
        <linearGradient x1="302.85715" gradientTransform="matrix(2.774389,0,0,1.969706,-1892.179,-872.8854)" y1="366.64789" x2="302.85715" gradientUnits="userSpaceOnUse" y2="609.50507" xlink:type="simple" xlink:actuate="onLoad" xlink:show="other">
            <stop stop-opacity="0" stop-color="#000000" offset="0"/>
            <stop stop-opacity="1" stop-color="#000000" offset="0.5"/>
            <stop stop-opacity="0" stop-color="#000000" offset="1"/>
        </linearGradient>
        <linearGradient xlink:type="simple" xlink:actuate="onLoad" xlink:show="other">
            <stop stop-opacity="0" stop-color="#000000" offset="0"/>
            <stop stop-opacity="1" stop-color="#000000" offset="0.5"/>
            <stop stop-opacity="0" stop-color="#000000" offset="1"/>
        </linearGradient>
        <radialGradient gradientTransform="matrix(2.774389,0,0,1.969706,-1891.633,-872.8854)" gradientUnits="userSpaceOnUse" xlink:type="simple" r="117.14286" xlink:actuate="onLoad" cx="605.71429" cy="486.64789" xlink:show="other" fx="605.71429" fy="486.64789">
            <stop stop-opacity="1" stop-color="#000000" offset="0"/>
            <stop stop-opacity="0" stop-color="#000000" offset="1"/>
        </radialGradient>
        <linearGradient xlink:type="simple" xlink:actuate="onLoad" xlink:show="other">
            <stop stop-opacity="1" stop-color="#000000" offset="0"/>
            <stop stop-opacity="0" stop-color="#000000" offset="1"/>
        </linearGradient>
        <radialGradient gradientTransform="matrix(-2.774389,0,0,1.969706,112.7623,-872.8854)" gradientUnits="userSpaceOnUse" xlink:type="simple" r="117.14286" xlink:actuate="onLoad" cx="605.71429" cy="486.64789" xlink:show="other" fx="605.71429" fy="486.64789">
            <stop stop-opacity="1" stop-color="#000000" offset="0"/>
            <stop stop-opacity="0" stop-color="#000000" offset="1"/>
        </radialGradient>
        <linearGradient x1="302.85715" gradientTransform="matrix(2.774389,0,0,1.969706,-1892.179,-872.8854)" y1="366.64789" x2="302.85715" gradientUnits="userSpaceOnUse" y2="609.50507" xlink:type="simple" xlink:actuate="onLoad" id="linearGradient4679" xlink:show="other">
            <stop stop-opacity="0" stop-color="#000000" offset="0"/>
            <stop stop-opacity="1" stop-color="#000000" offset="0.5"/>
            <stop stop-opacity="0" stop-color="#000000" offset="1"/>
        </linearGradient>
        <radialGradient gradientTransform="matrix(2.774389,0,0,1.969706,-1891.633,-872.8854)" id="radialGradient4681" gradientUnits="userSpaceOnUse" xlink:show="other" xlink:type="simple" r="117.14286" cx="605.71429" fx="605.71429" cy="486.64789" fy="486.64789" xlink:actuate="onLoad">
            <stop stop-opacity="1" stop-color="#000000" offset="0"/>
            <stop stop-opacity="0" stop-color="#000000" offset="1"/>
        </radialGradient>
        <radialGradient gradientTransform="matrix(-2.774389,0,0,1.969706,112.7623,-872.8854)" id="radialGradient4683" gradientUnits="userSpaceOnUse" xlink:show="other" xlink:type="simple" r="117.14286" cx="605.71429" fx="605.71429" cy="486.64789" fy="486.64789" xlink:actuate="onLoad">
            <stop stop-opacity="1" stop-color="#000000" offset="0"/>
            <stop stop-opacity="0" stop-color="#000000" offset="1"/>
        </radialGradient>
        <linearGradient x1="11.572842" gradientTransform="matrix(1.343475,0,0,1.417854,2.879511,0.314599)" y1="4.7461626" x2="18.475286" gradientUnits="userSpaceOnUse" y2="26.022910" xlink:type="simple" xlink:actuate="onLoad" id="linearGradient4685" xlink:show="other">
            <stop stop-opacity="1.0000000" stop-color="#ffffff" offset="0.0000000"/>
            <stop stop-opacity="1.0000000" stop-color="#e2e2e2" offset="1.0000000"/>
        </linearGradient>
        <linearGradient x1="2.0618774" gradientTransform="matrix(1.343475,0,0,1.417854,2.879511,0.314599)" y1="15.257116" x2="30.599684" gradientUnits="userSpaceOnUse" y2="15.257116" xlink:type="simple" xlink:actuate="onLoad" xlink:show="other">
            <stop stop-opacity="1.0000000" stop-color="#989690" offset="0.0000000"/>
            <stop stop-opacity="1.0000000" stop-color="#656460" offset="1.0000000"/>
        </linearGradient>
        <linearGradient x1="5.8266134" gradientTransform="matrix(1.570607,0,0,1.190976,2.879512,0.343005)" y1="7.2310905" x2="13.467486" gradientUnits="userSpaceOnUse" y2="17.876846" xlink:type="simple" xlink:actuate="onLoad" id="linearGradient4689" xlink:show="other">
            <stop stop-opacity="1.0000000" stop-color="#ededed" offset="0.0000000"/>
            <stop stop-opacity="1.0000000" stop-color="#c8c8c8" offset="1.0000000"/>
        </linearGradient>
        <linearGradient x1="10.184240" gradientTransform="matrix(1.819266,0,0,1.028193,2.879512,0.343005)" y1="15.148383" x2="15.310744" gradientUnits="userSpaceOnUse" y2="29.568739" xlink:type="simple" xlink:actuate="onLoad" xlink:show="other">
            <stop stop-opacity="1" stop-color="#ffffff" offset="0"/>
            <stop stop-opacity="1.0000000" stop-color="#dcdcdc" offset="1.0000000"/>
        </linearGradient>
        <linearGradient x1="8.9156475" gradientTransform="matrix(2.454781,0,0,0.762004,2.879512,0.343005)" y1="37.197018" x2="9.8855033" gradientUnits="userSpaceOnUse" y2="52.090678" xlink:type="simple" xlink:actuate="onLoad" id="linearGradient4693" xlink:show="other">
            <stop stop-opacity="1.0000000" stop-color="#9aa29a" offset="0.0000000"/>
            <stop stop-opacity="1.0000000" stop-color="#b5beb5" offset="1.0000000"/>
        </linearGradient>
        <linearGradient x1="8.9156475" gradientTransform="matrix(2.454781,0,0,0.762004,2.879512,0.343005)" y1="37.197018" x2="9.8855033" gradientUnits="userSpaceOnUse" y2="52.090678" xlink:type="simple" xlink:actuate="onLoad" id="linearGradient4695" xlink:show="other">
            <stop stop-opacity="1.0000000" stop-color="#9aa29a" offset="0.0000000"/>
            <stop stop-opacity="1.0000000" stop-color="#b5beb5" offset="1.0000000"/>
        </linearGradient>
        <linearGradient x1="11.233107" gradientTransform="matrix(1.370928,0,0,1.443758,2.431133,-0.140786)" y1="13.686079" x2="21.111549" gradientUnits="userSpaceOnUse" y2="24.132717" xlink:type="simple" xlink:actuate="onLoad" xlink:show="other">
            <stop stop-opacity="1" stop-color="#ffffff" offset="0"/>
            <stop stop-opacity="1.0000000" stop-color="#ededed" offset="1.0000000"/>
        </linearGradient>
        <linearGradient x1="8.7803760" gradientTransform="matrix(2.3949,0,0,0.781058,2.879512,0.343005)" y1="37.784682" x2="9.7619219" gradientUnits="userSpaceOnUse" y2="32.203162" xlink:type="simple" xlink:actuate="onLoad" id="linearGradient4699" xlink:show="other">
            <stop stop-opacity="0.12871288" stop-color="#000000" offset="0.0000000"/>
            <stop stop-opacity="0.0000000" stop-color="#000000" offset="1.0000000"/>
        </linearGradient>
        <linearGradient x1="2.0618774" gradientTransform="matrix(1.343475,0,0,1.417854,2.8795109,0.314599)" y1="15.257116" x2="30.599684" gradientUnits="userSpaceOnUse" y2="15.257116" xlink:type="simple" xlink:actuate="onLoad" id="linearGradient3415" xlink:show="other">
            <stop stop-opacity="1.0000000" stop-color="#989690" offset="0.0000000"/>
            <stop stop-opacity="1.0000000" stop-color="#656460" offset="1.0000000"/>
        </linearGradient>
        <linearGradient x1="11.233107" gradientTransform="matrix(1.370928,0,0,1.443758,2.431133,-0.140786)" y1="13.686079" x2="21.111549" gradientUnits="userSpaceOnUse" y2="24.132717" xlink:type="simple" xlink:actuate="onLoad" id="linearGradient3422" xlink:show="other">
            <stop stop-opacity="1" stop-color="#ffffff" offset="0"/>
            <stop stop-opacity="1.0000000" stop-color="#ededed" offset="1.0000000"/>
        </linearGradient>
        <linearGradient gradientTransform="matrix(1.1170351,0,0,1.1788777,3.8167758,2.9443147)" id="linearGradient12157" gradientUnits="userSpaceOnUse" xlink:show="other" xlink:type="simple" x1="2.0618774" y1="15.257116" y2="15.257116" x2="30.599684" xlink:actuate="onLoad">
            <stop stop-opacity="1.0000000" stop-color="#989690" offset="0.0000000"/>
            <stop stop-opacity="1.0000000" stop-color="#656460" offset="1.0000000"/>
        </linearGradient>
        <linearGradient gradientTransform="matrix(1.9912446,0,0,0.6494123,3.8167767,2.9679329)" id="linearGradient12161" gradientUnits="userSpaceOnUse" xlink:show="other" xlink:type="simple" x1="8.7803760" y1="37.784682" y2="32.203162" x2="9.7619219" xlink:actuate="onLoad">
            <stop stop-opacity="0.12871288" stop-color="#000000" offset="0.0000000"/>
            <stop stop-opacity="0.0000000" stop-color="#000000" offset="1.0000000"/>
        </linearGradient>
        <linearGradient gradientTransform="matrix(1.139861,0,0,1.2004156,3.443971,2.5656839)" id="linearGradient12166" gradientUnits="userSpaceOnUse" xlink:show="other" xlink:type="simple" x1="11.233107" y1="13.686079" y2="24.132717" x2="21.111549" xlink:actuate="onLoad">
            <stop stop-opacity="1" stop-color="#ffffff" offset="0"/>
            <stop stop-opacity="1.0000000" stop-color="#ededed" offset="1.0000000"/>
        </linearGradient>
        <linearGradient gradientTransform="matrix(2.0410328,0,0,0.6335698,3.8167767,2.9679329)" id="linearGradient12169" gradientUnits="userSpaceOnUse" xlink:show="other" xlink:type="simple" x1="8.9156475" y1="37.197018" y2="52.090678" x2="9.8855033" xlink:actuate="onLoad">
            <stop stop-opacity="1.0000000" stop-color="#9aa29a" offset="0.0000000"/>
            <stop stop-opacity="1.0000000" stop-color="#b5beb5" offset="1.0000000"/>
        </linearGradient>
        <linearGradient gradientTransform="matrix(2.0410328,0,0,0.6335698,3.8167767,2.9679329)" id="linearGradient12172" gradientUnits="userSpaceOnUse" xlink:show="other" xlink:type="simple" x1="8.9156475" y1="37.197018" y2="52.090678" x2="9.8855033" xlink:actuate="onLoad">
            <stop stop-opacity="1.0000000" stop-color="#9aa29a" offset="0.0000000"/>
            <stop stop-opacity="1.0000000" stop-color="#b5beb5" offset="1.0000000"/>
        </linearGradient>
        <linearGradient gradientTransform="matrix(1.3058845,0,0,0.9902395,3.8167767,2.9679329)" id="linearGradient12181" gradientUnits="userSpaceOnUse" xlink:show="other" xlink:type="simple" x1="5.8266134" y1="7.2310905" y2="17.876846" x2="13.467486" xlink:actuate="onLoad">
            <stop stop-opacity="1.0000000" stop-color="#ededed" offset="0.0000000"/>
            <stop stop-opacity="1.0000000" stop-color="#c8c8c8" offset="1.0000000"/>
        </linearGradient>
        <linearGradient gradientTransform="matrix(1.1170351,0,0,1.1788777,3.8167759,2.9443147)" id="linearGradient12184" gradientUnits="userSpaceOnUse" xlink:show="other" xlink:type="simple" x1="11.572842" y1="4.7461626" y2="26.022910" x2="18.475286" xlink:actuate="onLoad">
            <stop stop-opacity="1.0000000" stop-color="#ffffff" offset="0.0000000"/>
            <stop stop-opacity="1.0000000" stop-color="#e2e2e2" offset="1.0000000"/>
        </linearGradient>
        <linearGradient gradientTransform="matrix(1.1170351,0,0,1.1788777,3.753223,2.7756368)" id="linearGradient12213" gradientUnits="userSpaceOnUse" xlink:show="other" xlink:type="simple" x1="11.572842" y1="4.7461626" y2="26.022910" x2="18.475286" xlink:actuate="onLoad">
            <stop stop-opacity="1.0000000" stop-color="#ffffff" offset="0.0000000"/>
            <stop stop-opacity="1.0000000" stop-color="#e2e2e2" offset="1.0000000"/>
        </linearGradient>
    </defs>
    <rect x="0" width="44" fill="none" y="0" height="44"/>
    <g transform="matrix(1.9230689e-2,0,0,1.2353241e-2,39.104459,35.62015)" display="inline">
        <rect fill-opacity="0.40206185" display="inline" stroke="none" visibility="visible" stroke-linecap="round" width="1339.6335" stroke-miterlimit="4" stroke-opacity="1" fill="url(#linearGradient4679)" stroke-dasharray="none" stroke-width="1" color="#000000" height="478.35718" x="-1559.2523" stroke-linejoin="miter" y="-150.69685" stroke-dashoffset="0" fill-rule="nonzero"/>
        <path fill-opacity="0.40206185" display="inline" stroke="none" d="M -219.61876 -150.68037 C -219.61876 -150.68037 -219.61876 327.6504 -219.61876 327.6504 C -76.74459 328.55087 125.78146 220.48076 125.78138 88.45424 C 125.78138 -43.572304 -33.655437 -150.68036 -219.61876 -150.68037 z " visibility="visible" stroke-linecap="round" stroke-miterlimit="4" stroke-opacity="1" fill="url(#radialGradient4681)" stroke-dasharray="none" stroke-width="1" color="#000000" stroke-linejoin="miter" stroke-dashoffset="0" fill-rule="nonzero"/>
        <path fill-opacity="0.40206185" display="inline" stroke="none" d="M -1559.2523 -150.68037 C -1559.2523 -150.68037 -1559.2523 327.6504 -1559.2523 327.6504 C -1702.1263 328.55087 -1904.6523 220.48076 -1904.6523 88.45424 C -1904.6523 -43.572304 -1745.2156 -150.68036 -1559.2523 -150.68037 z " visibility="visible" stroke-linecap="round" stroke-miterlimit="4" stroke-opacity="1" fill="url(#radialGradient4683)" stroke-dasharray="none" stroke-width="1" color="#000000" stroke-linejoin="miter" stroke-dashoffset="0" fill-rule="nonzero"/>
    </g>
    <path stroke-linecap="butt" fill-opacity="1" fill="url(#linearGradient12184)" fill-rule="evenodd" stroke-linejoin="round" stroke-dasharray="none" d="M 6.6885524 16.794355 L 6.6885524 37.17287 L 37.429096 37.17287 L 37.37833 16.89214 C 37.375465 15.746742 27.526873 4.6882954 25.710045 4.6882954 L 18.599894 4.6882954 C 16.689783 4.6882954 6.6885524 15.714882 6.6885524 16.794355 z " stroke="none" stroke-width="0.60135758" stroke-opacity="1" stroke-miterlimit="4"/>
    <path stroke-linecap="butt" fill-opacity="1" fill="url(#linearGradient12181)" fill-rule="evenodd" stroke-linejoin="miter" d="M 7.178794 16.640413 C 6.847844 16.282784 17.062183 5.254869 18.606396 5.254869 L 25.570436 5.254869 C 27.023382 5.254869 37.241196 16.170227 36.73444 16.799929 L 27.703852 28.021368 L 17.465778 27.756712 L 7.178794 16.640413 z " stroke="none" stroke-width="0.25pt" stroke-opacity="1"/>
    <path stroke-linecap="butt" fill-opacity="1" fill="url(#linearGradient12166)" fill-rule="evenodd" stroke-linejoin="miter" d="M 18.831127 5.20308 C 18.427183 5.20308 18.069489 5.4138875 17.609932 5.722738 C 17.15038 6.031587 16.607306 6.4561906 16.024979 6.969916 C 14.860324 7.9973664 13.510348 9.37784 12.205495 10.763416 C 10.900641 12.148992 9.645948 13.557812 8.723789 14.660848 C 8.262711 15.212365 7.9021506 15.672889 7.6325088 16.03794 C 7.4976864 16.220465 7.373838 16.376127 7.294731 16.505632 C 7.2551775 16.570385 7.218127 16.627628 7.190799 16.687511 C 7.163472 16.747395 7.138661 16.7927 7.1388335 16.921358 L 7.164817 36.226635 L 7.164817 36.590397 L 7.528577 36.590397 L 36.577435 36.590397 L 36.941196 36.590397 L 36.941196 36.226635 L 36.88923 17.025288 C 36.888878 16.89511 36.864098 16.850098 36.837265 16.791445 C 36.810432 16.732788 36.772186 16.673744 36.733334 16.609564 C 36.655617 16.481197 36.55427 16.324718 36.421535 16.141872 C 36.156063 15.77618 35.78423 15.294484 35.330257 14.738796 C 34.422314 13.627421 33.183422 12.215589 31.900517 10.815382 C 30.617613 9.415174 29.274277 8.035227 28.133 6.9958982 C 27.56236 6.4762354 27.048748 6.035459 26.600008 5.722738 C 26.15127 5.410016 25.808739 5.20308 25.404797 5.20308 L 18.831127 5.20308 z M 18.831127 5.904618 L 25.404797 5.904618 C 25.451464 5.904618 25.778109 6.0372834 26.184284 6.3203435 C 26.59046 6.603404 27.108313 7.0083184 27.665308 7.515556 C 28.779297 8.530031 30.107216 9.918958 31.38086 11.309056 C 32.654503 12.699155 33.8615 14.108351 34.758633 15.206488 C 35.2072 15.755556 35.572124 16.210726 35.823933 16.557598 C 35.949833 16.731033 36.04981 16.874329 36.109745 16.973324 C 36.12825 17.003895 36.150932 17.030949 36.16171 17.051271 L 36.213673 35.862877 L 7.892338 35.862877 L 7.8663545 16.94734 L 7.8663545 16.921358 C 7.8768306 16.901958 7.901423 16.897053 7.91832 16.869392 C 7.9786673 16.7706 8.076593 16.626331 8.204132 16.453667 C 8.459208 16.108335 8.81411 15.647184 9.269429 15.102556 C 10.180069 14.013301 11.430002 12.60638 12.725152 11.231108 C 14.020303 9.855836 15.382127 8.51819 16.518654 7.515556 C 17.086916 7.0142393 17.583227 6.6002226 17.999676 6.3203435 C 18.416124 6.040465 18.766912 5.904618 18.831127 5.904618 z " stroke="none" stroke-width="0.85660428" stroke-opacity="1" stroke-miterlimit="4"/>
    <path stroke-linecap="butt" fill-opacity="1" fill="url(#linearGradient12161)" fill-rule="evenodd" stroke-linejoin="miter" d="M 12.487646 22.335224 L 17.498268 27.701212 L 18.493288 26.84834 L 26.87986 26.883879 L 27.55505 27.487991 L 30.859928 23.54346 C 29.90045 22.37076 12.487646 22.335224 12.487646 22.335224 z " stroke="none" stroke-width="1px" stroke-opacity="1"/>
    <path stroke-linecap="butt" fill-opacity="1" fill="none" fill-rule="evenodd" stroke-linejoin="round" stroke-dasharray="none" d="M 6.6885524 16.794355 L 6.6885524 37.17287 L 37.429096 37.17287 L 37.37833 16.89214 C 37.375465 15.746742 27.526873 4.6882954 25.710045 4.6882954 L 18.599894 4.6882954 C 16.689783 4.6882954 6.6885524 15.714882 6.6885524 16.794355 z " stroke="url(#linearGradient12157)" stroke-width="0.5" stroke-opacity="1" stroke-miterlimit="4"/>
    <g transform="matrix(0.3979059,0,0,0.3979059,2.9933144,1.8458719)">
        <path fill-opacity="1" display="inline" stroke="#bbbfbb" d="M 16.033466 14.330062 L 79.5001 14.330062 C 80.47289 14.330062 81.25605 15.113215 81.25605 16.086008 L 81.25605 53.391407 C 81.25605 54.36421 68.056465 65.90826 67.08367 65.90826 L 16.033466 65.90826 C 15.060673 65.90826 14.277521 65.12511 14.277521 64.15231 L 14.277521 16.086008 C 14.277521 15.113215 15.060673 14.330062 16.033466 14.330062 z " visibility="visible" stroke-linecap="butt" stroke-miterlimit="4" stroke-opacity="1" fill="url(#linearGradient12618)" stroke-dasharray="none" stroke-width="2.13938427" color="#000000" stroke-linejoin="miter" stroke-dashoffset="0" fill-rule="nonzero"/>
        <g transform="matrix(1.6463364,0,0,1.6388678,10.519917,11.255571)">
            <path fill-opacity="1" fill="url(#linearGradient12575)" fill-rule="nonzero" d="M 5.512695 30.0 L 39.64323 30.0 L 39.64323 19.627377 L 5.512695 19.627377 L 5.512695 30.0 z " stroke="none" stroke-width="1.2166667" stroke-miterlimit="4"/>
            <path fill="url(#linearGradient12577)" fill-rule="nonzero" d="M 5.512695 5.237844 L 39.64323 5.237844 L 39.64323 19.627377 L 5.512695 19.627377 L 5.512695 5.237844 z " stroke="none" stroke-width="1.2166667" stroke-miterlimit="4"/>
            <g stroke-width="1.34093606" stroke-miterlimit="4" fill-rule="nonzero" transform="matrix(1.189217,0,0,1.189217,-3.525355,-6.535408)" stroke="#000000">
                <g stroke-width="1.34093606">
                    <path fill="#e8f52f" d="M 18.4 15.4 C 18.4 17.6 16.6 19.5 14.3 19.5 C 12.1 19.5 10.2 17.7 10.2 15.4 C 10.2 13.2 12.0 11.3 14.3 11.3 C 16.5 11.3 18.4 13.1 18.4 15.4 z " fill-opacity="0.04999994" stroke-opacity="0.04999994" stroke="none"/>
                    <path fill="#ecf751" d="M 18.0 15.4 C 18.0 17.4 16.4 19.1 14.3 19.1 C 12.3 19.1 10.6 17.5 10.6 15.4 C 10.6 13.4 12.2 11.7 14.3 11.7 C 16.3 11.7 18.0 13.3 18.0 15.4 L 18.0 15.4 z " fill-opacity="0.20829994" stroke-opacity="0.20829994" stroke="none"/>
                    <path fill="#f0f972" d="M 17.6 15.4 C 17.6 17.2 16.1 18.7 14.3 18.7 C 12.5 18.7 11.0 17.2 11.0 15.4 C 11.0 13.6 12.5 12.1 14.3 12.1 C 16.1 12.1 17.6 13.6 17.6 15.4 L 17.6 15.4 z " fill-opacity="0.36669994" stroke-opacity="0.36669994" stroke="none"/>
                    <path fill="#f4fa95" d="M 17.2 15.4 C 17.2 17.0 15.9 18.3 14.3 18.3 C 12.7 18.3 11.4 17.0 11.4 15.4 C 11.4 13.8 12.7 12.5 14.3 12.5 C 15.9 12.5 17.2 13.8 17.2 15.4 z " fill-opacity="0.525" stroke-opacity="0.525" stroke="none"/>
                    <path fill="#f7fcb7" d="M 16.8 15.4 C 16.8 16.8 15.7 17.9 14.3 17.9 C 12.9 17.9 11.8 16.8 11.8 15.4 C 11.8 14.0 12.9 12.9 14.3 12.9 C 15.7 12.9 16.8 14.0 16.8 15.4 L 16.8 15.4 z " fill-opacity="0.6833" stroke-opacity="0.6833" stroke="none"/>
                    <path fill="#fbfddb" d="M 16.4 15.4 C 16.4 16.6 15.4 17.5 14.3 17.5 C 13.2 17.5 12.2 16.5 12.2 15.4 C 12.2 14.3 13.2 13.3 14.3 13.3 C 15.4 13.3 16.4 14.3 16.4 15.4 z " fill-opacity="0.8417" stroke-opacity="0.8417" stroke="none"/>
                    <path fill="#ffffff" d="M 16.0 15.4 C 16.0 16.4 15.2 17.2 14.2 17.2 C 13.2 17.2 12.4 16.4 12.4 15.4 C 12.4 14.4 13.2 13.6 14.2 13.6 C 15.2 13.6 16.0 14.4 16.0 15.4 L 16.0 15.4 z " stroke="none"/>
                </g>
            </g>
            <path fill-opacity="0.3" fill-rule="nonzero" d="M 25.01586 21.649044 L 33.697147 21.649044 L 35.362053 22.124731 L 32.50793 22.124731 C 32.50793 22.124731 35.362053 22.362574 36.789116 24.1464 C 38.216175 25.811304 35.12421 27.832975 35.12421 27.832975 C 35.12421 27.832975 35.12421 27.832975 35.12421 27.832975 C 35.005287 27.47621 34.291756 24.622087 32.864697 23.43287 C 31.7944 22.481497 30.605185 22.243652 30.605185 22.243652 L 25.01586 22.243652 L 25.01586 21.767963 L 25.01586 21.649044 z " stroke="none" stroke-width="1.2166667" stroke-opacity="0.3" stroke-miterlimit="4"/>
            <path fill-opacity="0.3" fill-rule="nonzero" d="M 30.724106 22.362574 L 25.729391 22.362574 L 35.005287 27.595133 L 30.724106 22.362574 L 30.724106 22.362574 z " stroke="none" stroke-width="1.2166667" stroke-opacity="0.3" stroke-miterlimit="4"/>
            <path fill="#515151" fill-rule="nonzero" d="M 25.01586 21.767963 L 33.697147 21.767963 L 35.005287 20.935513 L 32.15117 20.935513 C 32.15117 20.935513 34.767445 20.459827 35.12421 17.486782 C 35.480972 14.513739 31.080868 11.183931 31.080868 11.183931 C 31.080868 11.183931 31.080868 11.183931 31.080868 11.302853 C 31.19979 12.016383 32.389008 17.011095 31.556557 18.913843 C 31.19979 20.578749 30.129496 20.935513 30.129496 20.935513 L 24.659094 20.935513 L 24.896938 21.767963 L 25.01586 21.767963 z " stroke="none" stroke-width="1.2166667" stroke-miterlimit="4"/>
            <path fill="#515151" fill-rule="nonzero" d="M 30.24842 20.459827 L 25.253704 20.459827 L 31.19979 11.421773 L 30.24842 20.459827 z " stroke="none" stroke-width="1.2166667" stroke-miterlimit="4"/>
        </g>
        <path fill-opacity="1" display="inline" stroke="#ffffff" d="M 16.168419 15.887913 L 79.27291 15.887913 C 79.50763 15.887913 79.696594 16.076876 79.696594 16.311598 L 79.696594 53.30099 C 79.696594 54.77735 68.608765 64.34762 68.37404 64.34762 L 16.168419 64.34762 C 15.933697 64.34762 15.744734 64.15866 15.744734 63.923935 L 15.744734 16.311598 C 15.744734 16.076876 15.933697 15.887913 16.168419 15.887913 z " visibility="visible" stroke-linecap="butt" stroke-miterlimit="4" stroke-opacity="1" fill="none" stroke-width="1.81037164" color="#000000" stroke-linejoin="miter" stroke-dashoffset="0" fill-rule="nonzero"/>
        <rect fill-opacity="0.84659095" display="inline" stroke="#4f4f4f" visibility="visible" stroke-linecap="butt" width="54.727051" stroke-miterlimit="4" stroke-opacity="1" fill="none" stroke-dasharray="none" stroke-width="1.81037199" color="#000000" height="39.118622" x="20.376089" stroke-linejoin="miter" y="20.644022" stroke-dashoffset="0" fill-rule="nonzero"/>
        <path fill-opacity="1" display="inline" stroke="none" d="M 66.74351 65.85971 C 69.91267 66.374626 81.7101 58.789192 81.23501 52.59591 C 78.795 56.377983 73.8077 54.604305 67.39458 54.852497 C 67.39458 54.852497 68.01169 65.079285 66.74351 65.85971 z " visibility="visible" stroke-linecap="butt" stroke-miterlimit="4" stroke-opacity="1" fill="url(#linearGradient12597)" stroke-dasharray="none" stroke-width="1.15986848" color="#000000" stroke-linejoin="miter" stroke-dashoffset="0" fill-rule="evenodd"/>
        <path fill-opacity="1" display="inline" stroke="none" d="M 80.46854 54.10459 L 77.59074 55.324 C 76.49914 55.789097 75.54571 55.86421 74.22517 55.81176 C 72.904625 55.759315 71.25509 55.583138 69.05487 55.56788 L 68.079346 55.519104 L 68.12813 56.49463 C 68.12813 56.49463 68.199295 57.702682 68.22568 59.031 C 68.23886 59.69516 68.24244 60.38753 68.22568 60.98205 C 68.208916 61.576576 68.16223 62.109344 68.12813 62.25024 L 67.68913 64.10374 L 69.39631 63.225765 C 71.431725 62.209633 75.94356 60.075195 78.32237 56.98239 C 78.41859 56.857307 78.623924 56.818085 78.71259 56.689735 L 80.46854 54.10459 z M 69.98162 57.42138 C 71.54921 57.47689 72.95727 57.570004 74.12762 57.61649 C 74.444305 57.629063 74.7457 57.47584 75.05437 57.470158 C 73.36239 58.854523 71.6695 59.99036 70.0304 60.835724 C 70.04299 60.24223 70.042656 59.599182 70.0304 58.982224 C 70.01405 58.158993 70.00269 57.89938 69.98162 57.42138 z " visibility="visible" stroke-linecap="butt" stroke-miterlimit="4" stroke-opacity="1" fill="url(#linearGradient12594)" stroke-width="1.159868" color="#000000" stroke-linejoin="miter" stroke-dashoffset="0" fill-rule="evenodd"/>
        <path fill-opacity="0.30113639" display="inline" stroke="none" d="M 16.571533 16.741915 L 16.571533 51.17801 C 51.419037 52.5646 55.314983 30.7895 78.9077 30.7895 L 78.9077 16.741915 L 16.571533 16.741915 z " visibility="visible" stroke-linecap="butt" stroke-miterlimit="4" stroke-opacity="1" fill="url(#radialGradient12591)" stroke-dasharray="none" stroke-width="1" color="#000000" stroke-linejoin="miter" stroke-dashoffset="0" fill-rule="nonzero"/>
        <path fill-opacity="1" display="inline" stroke="none" d="M 81.951805 49.86105 L 80.48851 52.10476 C 79.45576 53.70555 77.994255 54.095985 75.75721 54.15337 C 73.520164 54.210743 70.666565 53.830593 67.36768 53.95826 L 66.44093 54.007034 L 66.4897 54.885014 C 66.4897 54.885014 66.64021 57.437057 66.63604 60.055305 C 66.63394 61.36443 66.60328 62.706333 66.4897 63.713528 C 66.43292 64.217125 66.32516 64.61514 66.24583 64.88416 C 66.16649 65.15318 66.01463 65.221535 66.24583 65.07926 L 64.19721 66.34745 L 66.58726 66.73766 C 66.75874 66.76552 66.99567 66.58926 67.17258 66.59133 L 67.22135 66.64011 C 67.246864 66.624405 67.24648 66.607445 67.27013 66.59133 C 68.33708 66.58074 69.42556 66.35942 70.78202 65.71336 C 72.40008 64.94271 74.2075 63.790447 75.903534 62.445343 C 79.29563 59.75515 82.43031 56.23821 82.14691 52.543747 L 81.951805 49.86105 z M 79.41544 55.275223 C 78.50983 57.244175 76.96616 59.29837 74.781685 61.030827 C 73.19161 62.29189 71.472046 63.354614 70.0016 64.05496 C 69.13029 64.469955 68.74075 64.45864 68.1481 64.59151 C 68.18737 64.36117 68.26555 64.164734 68.29443 63.90863 C 68.42182 62.778812 68.43861 61.400433 68.44076 60.055305 C 68.44427 57.86355 68.38146 56.472054 68.34321 55.762985 C 71.05421 55.744057 73.608795 56.014446 75.805984 55.95809 C 77.0784 55.925453 78.33446 55.74147 79.41544 55.275223 z " visibility="visible" stroke-linecap="butt" stroke-miterlimit="4" stroke-opacity="1" fill="url(#linearGradient12588)" stroke-dasharray="none" stroke-width="1.15986848" color="#000000" stroke-linejoin="miter" stroke-dashoffset="0" fill-rule="evenodd"/>
    </g>
    <path stroke-linecap="butt" fill-opacity="1" fill="url(#linearGradient12213)" fill-rule="evenodd" stroke-linejoin="round" stroke-dasharray="none" d="M 7.8630953 17.197105 L 7.9583335 35.67086 L 35.841736 35.57562 L 36.17192 17.485369 L 26.979824 27.948189 L 16.917292 27.94819 L 7.8630953 17.197105 z " stroke="none" stroke-width="0.60135758" stroke-opacity="1" stroke-miterlimit="4"/>
    <path fill-opacity="1" display="inline" stroke="none" d="M 7.2123966 16.721928 L 16.787544 28.625156 L 17.675953 27.914429 L 7.2123966 16.721928 z " visibility="visible" stroke-linecap="butt" stroke-miterlimit="4" stroke-opacity="1" fill="url(#linearGradient12169)" stroke-width="1" color="#000000" stroke-linejoin="miter" stroke-dashoffset="0" fill-rule="evenodd"/>
    <path stroke-linecap="butt" fill-opacity="1" fill="#ffffff" fill-rule="evenodd" stroke-linejoin="miter" d="M 18.847569 28.002728 L 8.918783 34.879547 L 10.764135 34.884624 L 19.077097 29.173431 L 26.412092 27.99041 L 18.847569 28.002728 z " stroke="none" stroke-width="1" stroke-opacity="1" stroke-miterlimit="4"/>
    <path fill-opacity="1" display="inline" stroke="none" d="M 36.188053 17.522451 L 27.91376 28.024763 L 27.025349 27.314035 L 36.188053 17.522451 z " visibility="visible" stroke-linecap="butt" stroke-miterlimit="4" stroke-opacity="1" fill="#b1b1b1" stroke-width="1" color="#000000" stroke-linejoin="miter" stroke-dashoffset="0" fill-rule="evenodd"/>
    <path stroke-linecap="butt" fill-opacity="1" fill="url(#linearGradient12172)" fill-rule="evenodd" stroke-linejoin="miter" d="M 18.457752 26.84834 L 7.3196497 35.971024 L 18.884184 27.985502 L 26.382353 27.985502 L 36.70819 35.86949 L 26.844324 26.84834 L 18.457752 26.84834 z " stroke="none" stroke-width="1" stroke-opacity="1" stroke-miterlimit="4"/>
</svg>
