<?xml version="1.0" encoding="UTF-8"?>
<svg xmlns="http://www.w3.org/2000/svg" xmlns:xlink="http://www.w3.org/1999/xlink" contentScriptType="text/ecmascript" width="88" baseProfile="tiny" zoomAndPan="magnify" contentStyleType="text/css" viewBox="0 0 88 88" height="88" preserveAspectRatio="xMidYMid meet" version="1.0">
    <defs>
        <linearGradient x1="42.1875" gradientTransform="matrix(0.9330578,0,0,0.9330578,0.221772,3.3629458)" y1="31" x2="45" gradientUnits="userSpaceOnUse" y2="39.984692" xlink:type="simple" xlink:actuate="onLoad" id="linearGradient4010" xlink:show="other">
            <stop stop-opacity="1" stop-color="#bbbdba" offset="0"/>
            <stop stop-opacity="1" stop-color="#70746e" offset="1"/>
        </linearGradient>
        <radialGradient gradientTransform="matrix(1.5960243,0,0,1.0495492,-10.57215,5.0448588)" id="radialGradient8161" gradientUnits="userSpaceOnUse" xlink:show="other" xlink:type="simple" r="19.96875" cx="12.700491" fx="12.700491" cy="10.404876" fy="10.404876" xlink:actuate="onLoad">
            <stop stop-opacity="1" stop-color="#ffffff" offset="0"/>
            <stop stop-opacity="0" stop-color="#ffffff" offset="1"/>
        </radialGradient>
        <linearGradient x1="33.396004" gradientTransform="matrix(0.9330578,0,0,0.9330578,5.0247506,0.1814127)" y1="36.921333" x2="34.170048" gradientUnits="userSpaceOnUse" y2="38.070381" xlink:type="simple" xlink:actuate="onLoad" id="linearGradient3987" xlink:show="other">
            <stop stop-opacity="1" stop-color="#ffffff" offset="0"/>
            <stop stop-opacity="0" stop-color="#ffffff" offset="1"/>
        </linearGradient>
        <linearGradient x1="35.996582" gradientTransform="matrix(0.9330578,0,0,0.9330578,5.0247506,0.5313093)" y1="40.458221" x2="33.664921" gradientUnits="userSpaceOnUse" y2="37.770721" xlink:type="simple" xlink:actuate="onLoad" id="linearGradient8169" xlink:show="other">
            <stop stop-opacity="1" stop-color="#7c7c7c" offset="0"/>
            <stop stop-opacity="1" stop-color="#b8b8b8" offset="1"/>
        </linearGradient>
        <linearGradient gradientTransform="matrix(1.0254203,0,0,1.0326122,-1.5611128,-1.6760368)" id="linearGradient7673" gradientUnits="userSpaceOnUse" stroke-miterlimit="4.0000000" xlink:show="other" xlink:type="simple" stroke-dasharray="none" y1="24.6274" x1="21.9326" y2="7.1091" x2="21.9326" stroke-width="1.2166667" xlink:actuate="onLoad">
            <stop stroke-width="1.2166667" stroke-miterlimit="4.0000000" stroke-dasharray="none" stop-color="#d0d6e5" offset="0"/>
            <stop stroke-width="1.2166667" stroke-miterlimit="4.0000000" stroke-dasharray="none" stop-color="#093a80" offset="1"/>
        </linearGradient>
        <linearGradient gradientTransform="matrix(1.0254203,0,0,-0.7443534,-1.5611128,37.742347)" id="linearGradient7671" gradientUnits="userSpaceOnUse" stroke-miterlimit="4.0000000" xlink:show="other" xlink:type="simple" stroke-dasharray="none" y1="24.627399" x1="21.9326" y2="7.1090999" x2="21.9326" stroke-width="1.2166667" xlink:actuate="onLoad">
            <stop stop-opacity="1" stop-color="#8595bc" offset="0"/>
            <stop stop-opacity="1" stop-color="#041a3b" offset="1"/>
        </linearGradient>
        <linearGradient gradientTransform="matrix(1.3380078,0,0,0.9238084,49.040912,6.0118202)" id="linearGradient8148" gradientUnits="userSpaceOnUse" stroke-miterlimit="4.0000000" xlink:show="other" xlink:type="simple" stroke-dasharray="none" y1="3.7319" x1="12.4873" y2="36.0328" x2="31.0813" stroke-width="1.2166667" xlink:actuate="onLoad">
            <stop stroke-width="1.2166667" stroke-miterlimit="4.0000000" stroke-dasharray="none" stop-color="#d2d2d2" offset="0"/>
            <stop stroke-width="1.2166667" stroke-miterlimit="4.0000000" stroke-dasharray="none" stop-color="#ededed" offset="1"/>
        </linearGradient>
        <linearGradient xlink:type="simple" xlink:actuate="onLoad" id="linearGradient4467" xlink:show="other">
            <stop stop-opacity="1" stop-color="#ffffff" offset="0"/>
            <stop stop-opacity="0.24761905" stop-color="#ffffff" offset="1.0000000"/>
        </linearGradient>
        <radialGradient gradientTransform="matrix(2.592963,0,0,2.252104,-25.05975,-18.941)" id="linearGradient4467" gradientUnits="userSpaceOnUse" xlink:show="other" xlink:type="simple" r="6.6562500" cx="15.414371" fx="15.414371" cy="13.078408" fy="13.078408" xlink:actuate="onLoad">
            <stop stop-opacity="1" stop-color="#ffffff" offset="0"/>
            <stop stop-opacity="0.24761905" stop-color="#ffffff" offset="1.0000000"/>
        </radialGradient>
        <linearGradient xlink:type="simple" xlink:actuate="onLoad" id="linearGradient4454" xlink:show="other">
            <stop stop-opacity="0.20784314" stop-color="#729fcf" offset="0.0000000"/>
            <stop stop-opacity="0.67619050" stop-color="#729fcf" offset="1.0000000"/>
        </linearGradient>
        <radialGradient id="linearGradient4454" gradientUnits="userSpaceOnUse" xlink:show="other" xlink:type="simple" r="8.3085051" cx="18.240929" fx="18.240929" cy="21.817987" fy="21.817987" xlink:actuate="onLoad">
            <stop stop-opacity="0.20784314" stop-color="#729fcf" offset="0.0000000"/>
            <stop stop-opacity="0.67619050" stop-color="#729fcf" offset="1.0000000"/>
        </radialGradient>
        <linearGradient xlink:type="simple" xlink:actuate="onLoad" id="linearGradient2366" xlink:show="other">
            <stop stop-opacity="1" stop-color="#ffffff" offset="0"/>
            <stop stop-opacity="0.21904762" stop-color="#ffffff" offset="0.50000000"/>
            <stop stop-opacity="1.0000000" stop-color="#ffffff" offset="1.0000000"/>
        </linearGradient>
        <linearGradient x1="18.292673" y1="13.602121" x2="17.500893" gradientUnits="userSpaceOnUse" y2="25.743469" xlink:type="simple" xlink:actuate="onLoad" id="linearGradient2366" xlink:show="other">
            <stop stop-opacity="1" stop-color="#ffffff" offset="0"/>
            <stop stop-opacity="0.21904762" stop-color="#ffffff" offset="0.50000000"/>
            <stop stop-opacity="1.0000000" stop-color="#ffffff" offset="1.0000000"/>
        </linearGradient>
        <linearGradient xlink:type="simple" xlink:actuate="onLoad" id="linearGradient4440" xlink:show="other">
            <stop stop-opacity="1" stop-color="#7d7d7d" offset="0"/>
            <stop stop-opacity="1.0000000" stop-color="#b1b1b1" offset="0.50000000"/>
            <stop stop-opacity="1.0000000" stop-color="#686868" offset="1.0000000"/>
        </linearGradient>
        <linearGradient gradientTransform="matrix(1.334593,0,0,1.291292,-6.973842,-7.460658)" id="linearGradient4440" gradientUnits="userSpaceOnUse" xlink:show="other" xlink:type="simple" x1="30.656250" y1="34.000000" x2="33.218750" y2="31.062500" xlink:actuate="onLoad">
            <stop stop-opacity="1" stop-color="#7d7d7d" offset="0"/>
            <stop stop-opacity="1.0000000" stop-color="#b1b1b1" offset="0.50000000"/>
            <stop stop-opacity="1.0000000" stop-color="#686868" offset="1.0000000"/>
        </linearGradient>
        <linearGradient xlink:type="simple" xlink:actuate="onLoad" id="linearGradient2846" xlink:show="other">
            <stop stop-opacity="1.0000000" stop-color="#8a8a8a" offset="0.0000000"/>
            <stop stop-opacity="1.0000000" stop-color="#484848" offset="1.0000000"/>
        </linearGradient>
        <linearGradient x1="27.366341" y1="26.580296" x2="31.335964" gradientUnits="userSpaceOnUse" y2="30.557772" xlink:type="simple" xlink:actuate="onLoad" id="linearGradient2846" xlink:show="other">
            <stop stop-opacity="1.0000000" stop-color="#8a8a8a" offset="0.0000000"/>
            <stop stop-opacity="1.0000000" stop-color="#484848" offset="1.0000000"/>
        </linearGradient>
        <linearGradient xlink:type="simple" xlink:actuate="onLoad" id="linearGradient4477" xlink:show="other">
            <stop stop-opacity="1" stop-color="#000000" offset="0"/>
            <stop stop-opacity="0" stop-color="#000000" offset="1"/>
        </linearGradient>
        <radialGradient gradientTransform="matrix(1,0,0,0.237968,0,28.93278)" id="linearGradient4477" gradientUnits="userSpaceOnUse" xlink:show="other" xlink:type="simple" r="16.528622" cx="24.130018" fx="24.130018" cy="37.967922" fy="37.967922" xlink:actuate="onLoad">
            <stop stop-opacity="1" stop-color="#000000" offset="0"/>
            <stop stop-opacity="0" stop-color="#000000" offset="1"/>
        </radialGradient>
        <linearGradient xlink:type="simple" xlink:actuate="onLoad" xlink:show="other">
            <stop stop-opacity="1" stop-color="#8ae234" offset="0"/>
            <stop stop-opacity="1" stop-color="#73d216" offset="1"/>
        </linearGradient>
        <linearGradient x1="-21.658581" y1="15.649428" x2="-21.962101" gradientUnits="userSpaceOnUse" y2="21.336346" xlink:type="simple" xlink:actuate="onLoad" xlink:show="other">
            <stop stop-opacity="1" stop-color="#ffffff" offset="0"/>
            <stop stop-opacity="0" stop-color="#ffffff" offset="1"/>
        </linearGradient>
        <linearGradient x1="-22.822565" y1="28.337734" x2="-22.113543" gradientUnits="userSpaceOnUse" y2="22.661524" xlink:type="simple" xlink:actuate="onLoad" xlink:show="other">
            <stop stop-opacity="1" stop-color="#ffffff" offset="0"/>
            <stop stop-opacity="0" stop-color="#ffffff" offset="1"/>
        </linearGradient>
        <linearGradient x1="-25.176178" y1="30.057165" x2="-22.113543" gradientUnits="userSpaceOnUse" y2="22.661524" xlink:type="simple" xlink:actuate="onLoad" xlink:show="other">
            <stop stop-opacity="1" stop-color="#ffffff" offset="0"/>
            <stop stop-opacity="0" stop-color="#ffffff" offset="1"/>
        </linearGradient>
        <linearGradient x1="-25.176178" y1="30.057165" x2="-22.252472" gradientUnits="userSpaceOnUse" y2="21.041553" xlink:type="simple" xlink:actuate="onLoad" xlink:show="other">
            <stop stop-opacity="1" stop-color="#ffffff" offset="0"/>
            <stop stop-opacity="0" stop-color="#ffffff" offset="1"/>
        </linearGradient>
        <radialGradient gradientUnits="userSpaceOnUse" xlink:type="simple" r="6.7175145" xlink:actuate="onLoad" cx="12.071323" cy="12.493138" xlink:show="other" fx="12.071323" fy="12.493138">
            <stop stop-opacity="1" stop-color="#ffffff" offset="0"/>
            <stop stop-opacity="0" stop-color="#ffffff" offset="1"/>
        </radialGradient>
        <radialGradient gradientUnits="userSpaceOnUse" xlink:type="simple" r="6.7175145" xlink:actuate="onLoad" cx="12.071323" cy="12.493138" xlink:show="other" fx="12.071323" fy="12.493138">
            <stop stop-opacity="1" stop-color="#ffffff" offset="0"/>
            <stop stop-opacity="0" stop-color="#ffffff" offset="1"/>
        </radialGradient>
        <radialGradient gradientUnits="userSpaceOnUse" xlink:type="simple" r="6.7175145" xlink:actuate="onLoad" cx="12.071323" cy="12.493138" xlink:show="other" fx="12.071323" fy="12.493138">
            <stop stop-opacity="1" stop-color="#ffffff" offset="0"/>
            <stop stop-opacity="0" stop-color="#ffffff" offset="1"/>
        </radialGradient>
        <radialGradient gradientUnits="userSpaceOnUse" xlink:type="simple" r="6.7175145" xlink:actuate="onLoad" cx="12.071323" cy="12.493138" xlink:show="other" fx="12.071323" fy="12.493138">
            <stop stop-opacity="1" stop-color="#ffffff" offset="0"/>
            <stop stop-opacity="0" stop-color="#ffffff" offset="1"/>
        </radialGradient>
        <radialGradient gradientTransform="scale(0.999989,1.000011)" gradientUnits="userSpaceOnUse" xlink:type="simple" r="43.526714" xlink:actuate="onLoad" cx="15.601279" cy="12.142302" xlink:show="other" fx="15.601279" fy="12.142302">
            <stop stop-opacity="1.0000000" stop-color="#ffffff" offset="0.0000000"/>
            <stop stop-opacity="0.16494845" stop-color="#ffffff" offset="1.0000000"/>
        </radialGradient>
        <radialGradient gradientTransform="scale(1.64399,0.608276)" id="radialGradient4120" gradientUnits="userSpaceOnUse" xlink:show="other" xlink:type="simple" r="12.289036" cx="15.115514" fx="15.115514" cy="63.965388" fy="63.965388" xlink:actuate="onLoad">
            <stop stop-opacity="1" stop-color="#000000" offset="0"/>
            <stop stop-opacity="0" stop-color="#000000" offset="1"/>
        </radialGradient>
        <radialGradient gradientTransform="scale(0.999989,1.000011)" id="radialGradient3968" gradientUnits="userSpaceOnUse" xlink:show="other" xlink:type="simple" r="29.993349" cx="18.247644" fx="18.247644" cy="15.716079" fy="15.716079" xlink:actuate="onLoad">
            <stop stop-opacity="1.0000000" stop-color="#d3e9ff" offset="0.0000000"/>
            <stop stop-opacity="1.0000000" stop-color="#d3e9ff" offset="0.15517241"/>
            <stop stop-opacity="1.0000000" stop-color="#4074ae" offset="0.75000000"/>
            <stop stop-opacity="1.0000000" stop-color="#36486c" offset="1.0000000"/>
        </radialGradient>
        <linearGradient xlink:type="simple" xlink:actuate="onLoad" xlink:show="other">
            <stop stop-opacity="1.0000000" stop-color="#d3e9ff" offset="0.0000000"/>
            <stop stop-opacity="1.0000000" stop-color="#d3e9ff" offset="0.15517241"/>
            <stop stop-opacity="1.0000000" stop-color="#4074ae" offset="0.75000000"/>
            <stop stop-opacity="1.0000000" stop-color="#36486c" offset="1.0000000"/>
        </linearGradient>
        <linearGradient xlink:type="simple" xlink:actuate="onLoad" xlink:show="other">
            <stop stop-opacity="1" stop-color="#000000" offset="0"/>
            <stop stop-opacity="0" stop-color="#000000" offset="1"/>
        </linearGradient>
        <linearGradient xlink:type="simple" xlink:actuate="onLoad" xlink:show="other">
            <stop stop-opacity="1.0000000" stop-color="#ffffff" offset="0.0000000"/>
            <stop stop-opacity="0.16494845" stop-color="#ffffff" offset="1.0000000"/>
        </linearGradient>
        <linearGradient xlink:type="simple" xlink:actuate="onLoad" xlink:show="other">
            <stop stop-opacity="1" stop-color="#ffffff" offset="0"/>
            <stop stop-opacity="0" stop-color="#ffffff" offset="1"/>
        </linearGradient>
        <linearGradient xlink:type="simple" xlink:actuate="onLoad" xlink:show="other">
            <stop stop-opacity="1" stop-color="#ffffff" offset="0"/>
            <stop stop-opacity="0" stop-color="#ffffff" offset="1"/>
        </linearGradient>
        <radialGradient gradientTransform="scale(0.999989,1.000011)" id="radialGradient3324" gradientUnits="userSpaceOnUse" xlink:show="other" xlink:type="simple" r="43.526714" cx="15.601279" fx="15.601279" cy="12.142302" fy="12.142302" xlink:actuate="onLoad">
            <stop stop-opacity="1.0000000" stop-color="#ffffff" offset="0.0000000"/>
            <stop stop-opacity="0.16494845" stop-color="#ffffff" offset="1.0000000"/>
        </radialGradient>
    </defs>
    <g transform="matrix(1.7356543,0,0,1.7356543,1.6798925,1.7359219)">
        <path transform="matrix(1,0,0,1.243244,0,-10.27241)" fill-opacity="1" fill="url(#radialGradient4120)" d="M 45.052803 38.908627 C 45.05594 41.58001 41.205948 44.04896 34.95381 45.384983 C 28.70168 46.72101 20.997826 46.72101 14.745692 45.384983 C 8.493558 44.04896 4.6435647 41.58001 4.646702 38.908627 C 4.6435647 36.237247 8.493558 33.768295 14.745692 32.43227 C 20.997826 31.096245 28.70168 31.096245 34.95381 32.43227 C 41.205948 33.768295 45.05594 36.237247 45.052803 38.908627 z " stroke="none" stroke-opacity="1"/>
        <path fill-opacity="1" fill="url(#radialGradient3968)" fill-rule="nonzero" stroke-dasharray="none" d="M 43.95985 23.4855 C 43.95985 34.195217 35.27775 42.877224 24.569504 42.877224 C 13.860279 42.877224 5.1786666 34.19512 5.1786666 23.4855 C 5.1786666 12.776272 13.860279 4.0951514 24.569504 4.0951514 C 35.27775 4.0951514 43.95985 12.776272 43.95985 23.4855 L 43.95985 23.4855 z " stroke="#39396c" stroke-width="0.71439725" stroke-opacity="1" stroke-miterlimit="4"/>
        <g transform="matrix(0.982371,0,0,0.982371,0.121079,0.232914)" fill-opacity="0.71345029" fill="#204a87" fill-rule="nonzero" stroke="none" stroke-opacity="1" stroke-miterlimit="4">
            <g fill="#204a87">
                <g fill="#204a87">
                    <path fill="#204a87" d="M 44.0713 20.7144 C 44.0713 20.9771 44.0713 20.7144 44.0713 20.7144 L 43.5264 21.3316 C 43.1924 20.938 42.8174 20.607 42.4366 20.2613 L 41.6007 20.3843 L 40.837 19.521 L 40.837 20.5894 L 41.4913 21.0845 L 41.9268 21.5777 L 42.5088 20.9195 C 42.6553 21.1939 42.7998 21.4683 42.9453 21.7427 L 42.9453 22.565 L 42.29 23.3052 L 41.0908 24.1284 L 40.1826 25.0347 L 39.6006 24.3745 L 39.8916 23.6343 L 39.3105 22.9761 L 38.3291 20.8784 L 37.4932 19.9331 L 37.2744 20.1792 L 37.6025 21.3726 L 38.2197 22.0718 C 38.5722 23.0894 38.9209 24.062 39.3838 25.0347 C 40.1016 25.0347 40.7783 24.9585 41.4912 24.8687 L 41.4912 25.4449 L 40.6191 27.5841 L 39.8193 28.4884 L 39.165 29.8888 C 39.165 30.6564 39.165 31.424 39.165 32.1915 L 39.3838 33.0978 L 39.0205 33.508 L 38.2197 34.0021 L 37.3838 34.7013 L 38.0752 35.4826 L 37.1299 36.3068 L 37.3115 36.84 L 35.8935 38.4455 L 34.9492 38.4455 L 34.1494 38.9396 L 33.6396 38.9396 L 33.6396 38.2814 L 33.4228 36.963 C 33.1415 36.1368 32.8486 35.3165 32.5507 34.4962 C 32.5507 33.8907 32.5868 33.2911 32.623 32.6857 L 32.9873 31.8634 L 32.4775 30.8751 L 32.5146 29.5177 L 31.8232 28.7364 L 32.1689 27.6055 L 31.6064 26.9673 L 30.624 26.9673 L 30.2969 26.5972 L 29.3155 27.2149 L 28.9161 26.7613 L 28.0069 27.543 C 27.3897 26.8433 26.7715 26.1441 26.1534 25.4449 L 25.4268 23.7164 L 26.0811 22.7301 L 25.7178 22.319 L 26.5166 20.4254 C 27.1729 19.609 27.8584 18.8258 28.5518 18.0397 L 29.7881 17.7106 L 31.169 17.5465 L 32.1143 17.7936 L 33.459 19.15 L 33.9317 18.6158 L 34.585 18.5338 L 35.8213 18.9449 L 36.7666 18.9449 L 37.4209 18.3687 L 37.7119 17.9576 L 37.0566 17.5465 L 35.9658 17.4645 C 35.6631 17.0446 35.3818 16.6032 35.0224 16.2301 L 34.6581 16.3942 L 34.5126 17.4645 L 33.8583 16.7243 L 33.7138 15.9001 L 32.9872 15.3259 L 32.6952 15.3259 L 33.4227 16.1482 L 33.1317 16.8884 L 32.5506 17.0525 L 32.9139 16.3123 L 32.2586 15.9842 L 31.6785 15.326 L 30.5867 15.5721 L 30.4422 15.9002 L 29.7879 16.3123 L 29.4246 17.2176 L 28.5164 17.6697 L 28.116 17.2176 L 27.6805 17.2176 L 27.6805 15.7362 L 28.6258 15.2421 L 29.3524 15.2421 L 29.2059 14.6669 L 28.6258 14.0907 L 29.6063 13.8846 L 30.1512 13.2684 L 30.5867 12.5272 L 31.3875 12.5272 L 31.1687 11.952 L 31.6785 11.6229 L 31.6785 12.2811 L 32.7683 12.5272 L 33.8581 11.6229 L 33.9313 11.2108 L 34.8756 10.5531 C 34.5338 10.5956 34.192 10.6268 33.858 10.7177 L 33.858 9.9766 L 34.2213 9.1538 L 33.858 9.1538 L 33.0596 9.894 L 32.8408 10.3056 L 33.0596 10.8823 L 32.6953 11.8686 L 32.1142 11.5395 L 31.6064 10.9643 L 30.8056 11.5395 L 30.5146 10.2236 L 31.8955 9.3188 L 31.8955 8.8247 L 32.7685 8.249 L 34.1494 7.9194 L 35.0947 8.249 L 36.8388 8.5781 L 36.4033 9.0713 L 35.458 9.0713 L 36.4033 10.0586 L 37.1299 9.2363 L 37.3506 8.8745 C 37.3506 8.8745 40.1377 11.3725 41.7305 14.105 C 43.3233 16.8384 44.0713 20.0601 44.0713 20.7144 z "/>
                </g>
            </g>
            <g fill="#204a87">
                <g fill="#204a87">
                    <path fill="#204a87" d="M 26.0703 9.2363 L 25.9971 9.7295 L 26.5069 10.0586 L 27.378 9.4829 L 26.9425 8.9892 L 26.3605 9.3188 L 26.0705 9.2363 "/>
                </g>
            </g>
            <g fill="#204a87">
                <g fill="#204a87">
                    <path fill="#204a87" d="M 26.8701 5.8633 L 24.9795 5.1226 L 22.7998 5.3692 L 20.1094 6.1094 L 19.6006 6.6035 L 21.2725 7.7549 L 21.2725 8.4131 L 20.6182 9.0713 L 21.4912 10.8003 L 22.0713 10.4702 L 22.7998 9.3188 C 23.9228 8.9716 24.9297 8.5781 25.9971 8.0844 L 26.8701 5.8632 "/>
                </g>
            </g>
            <g fill="#204a87">
                <g fill="#204a87">
                    <path fill="#204a87" d="M 28.833 12.7749 L 28.542 12.0337 L 28.0322 12.1987 L 28.1787 13.103 L 28.833 12.7749 "/>
                </g>
            </g>
            <g fill="#204a87">
                <g fill="#204a87">
                    <path fill="#204a87" d="M 29.123 12.6089 L 28.9775 13.5972 L 29.7773 13.4322 L 30.3584 12.857 L 29.8496 12.3629 C 29.6787 11.9078 29.4824 11.483 29.2685 11.0465 L 28.833 11.0465 L 28.833 11.5397 L 29.123 11.8688 L 29.123 12.609 "/>
                </g>
            </g>
            <g fill="#204a87">
                <g fill="#204a87">
                    <path fill="#204a87" d="M 18.3652 28.2422 L 17.7832 27.0899 L 16.6929 26.8433 L 16.1114 25.2808 L 14.6578 25.4449 L 13.4224 24.5406 L 12.1133 25.692 L 12.1133 25.8736 C 11.7173 25.7593 11.2305 25.7437 10.8779 25.5269 L 10.5869 24.7046 L 10.5869 23.7993 L 9.7148 23.8813 C 9.7876 23.3051 9.8598 22.7299 9.9331 22.1538 L 9.4238 22.1538 L 8.9155 22.812 L 8.4062 23.0581 L 7.6791 22.6479 L 7.6063 21.7426 L 7.7518 20.7553 L 8.8426 19.933 L 9.7147 19.933 L 9.8597 19.4389 L 10.95 19.685 L 11.7498 20.6733 L 11.8953 19.0268 L 13.2766 17.8754 L 13.7854 16.641 L 14.803 16.2299 L 15.3845 15.4076 L 16.6926 15.1596 L 17.3474 14.1733 C 16.6931 14.1733 16.0388 14.1733 15.3845 14.1733 L 16.6203 13.5971 L 17.4919 13.5971 L 18.7282 13.185 L 18.8737 12.6928 L 18.4372 12.2807 L 17.9284 12.1157 L 18.0739 11.6225 L 17.7106 10.8823 L 16.838 11.2104 L 16.9835 10.5527 L 15.9659 9.9765 L 15.1666 11.3744 L 15.2389 11.8685 L 14.4396 12.1986 L 13.9303 13.2679 L 13.7125 12.2806 L 12.3312 11.7044 L 12.1129 10.9642 L 13.9303 9.8939 L 14.7301 9.1537 L 14.8029 8.2489 L 14.3669 8.0018 L 13.7854 7.9193 L 13.4221 8.8246 C 13.4221 8.8246 12.8142 8.9437 12.6579 8.9823 C 10.6618 10.8217 6.6286 14.7924 5.6916 22.2885 C 5.7287 22.4623 6.3708 23.4701 6.3708 23.4701 L 7.8972 24.3744 L 9.4236 24.7865 L 10.0784 25.6097 L 11.0955 26.3499 L 11.677 26.2679 L 12.113 26.4642 L 12.113 26.597 L 11.5319 28.16 L 11.0954 28.8182 L 11.2409 29.1483 L 10.8776 30.3807 L 12.1862 32.7674 L 13.4943 33.9197 L 14.0763 34.742 L 14.0031 36.4705 L 14.4396 37.4568 L 14.0031 39.3494 C 14.0031 39.3494 13.9689 39.3377 14.0246 39.5271 C 14.0808 39.7166 16.3537 40.9783 16.4982 40.8709 C 16.6422 40.7615 16.7653 40.6658 16.7653 40.6658 L 16.6203 40.2556 L 17.2014 39.6794 L 17.4197 39.1032 L 18.365 38.7731 L 19.0916 36.9626 L 18.8738 36.4704 L 19.3816 35.7302 L 20.4724 35.4822 L 21.0544 34.1658 L 20.9089 32.5213 L 21.781 31.2869 L 21.9265 30.0525 C 20.7331 29.4607 19.5495 28.8513 18.365 28.242 "/>
                </g>
            </g>
            <g fill="#204a87">
                <g fill="#204a87">
                    <path fill="#204a87" d="M 16.7656 9.5649 L 17.4922 10.0586 L 18.0742 10.0586 L 18.0742 9.4829 L 17.3476 9.1538 L 16.7656 9.5649 "/>
                </g>
            </g>
            <g fill="#204a87">
                <g fill="#204a87">
                    <path fill="#204a87" d="M 14.876 8.9072 L 14.5122 9.812 L 15.2393 9.812 L 15.6031 8.9892 C 15.9166 8.7675 16.2286 8.5444 16.5479 8.331 L 17.275 8.5781 C 17.7594 8.9072 18.2438 9.2363 18.7286 9.5649 L 19.4561 8.9072 L 18.6558 8.5781 L 18.292 7.8374 L 16.9111 7.6728 L 16.8383 7.2612 L 16.184 7.4262 L 15.8936 8.002 L 15.5298 7.2613 L 15.3848 7.5904 L 15.4576 8.4132 L 14.876 8.9072 "/>
                </g>
            </g>
            <g fill="#204a87">
                <g fill="#204a87" fill-opacity="0.75" stroke-opacity="0.75">
                    <path fill="#204a87" d=""/>
                </g>
                <g fill="#204a87">
                    <path fill="#204a87" d=""/>
                </g>
            </g>
            <g fill="#204a87">
                <g fill="#204a87" fill-opacity="0.75" stroke-opacity="0.75">
                    <path fill="#204a87" d=""/>
                </g>
                <g fill="#204a87">
                    <path fill="#204a87" d=""/>
                </g>
            </g>
            <g fill="#204a87">
                <g fill="#204a87">
                    <path fill="#204a87" d="M 17.4922 6.8496 L 17.856 6.521 L 18.5831 6.3564 C 19.0811 6.1142 19.5811 5.9511 20.1095 5.7802 L 19.8195 5.2865 L 18.881 5.4213 L 18.4376 5.8632 L 17.7066 5.9692 L 17.0567 6.2744 L 16.7408 6.4272 L 16.5479 6.6855 L 17.4922 6.8496 "/>
                </g>
            </g>
            <g fill="#204a87">
                <g fill="#204a87">
                    <path fill="#204a87" d="M 18.7285 14.6665 L 19.165 14.0083 L 18.5102 13.5151 L 18.7285 14.6665 "/>
                </g>
            </g>
        </g>
        <path fill-opacity="1" fill="url(#radialGradient3324)" fill-rule="nonzero" d="M 24.5625 4.59375 C 14.12694 4.59375 5.65625 13.064421 5.65625 23.5 C 5.65625 33.935936 14.126909 42.406246 24.5625 42.40625 C 34.997185 42.40625 43.46875 33.93604 43.46875 23.5 C 43.46875 13.064406 34.99715 4.59375 24.5625 4.59375 z M 24.5625 5.59375 C 34.45669 5.59375 42.46875 13.60488 42.46875 23.5 C 42.46875 33.39559 34.456665 41.40625 24.5625 41.40625 C 14.667384 41.406246 6.65625 33.39551 6.65625 23.5 C 6.65625 13.604866 14.667354 5.59375 24.5625 5.59375 z " stroke="none" stroke-opacity="1" stroke-miterlimit="4"/>
    </g>
    <g transform="matrix(0.9069231,0,0,0.9069231,33.001402,42.018478)">
        <path fill-opacity="1" display="inline" stroke="#bbbfbb" d="M 2.7177715 6.454775 L 43.379543 6.454775 C 44.002792 6.454775 44.504543 6.956525 44.504543 7.5797744 L 44.504543 31.48058 C 44.504543 32.103832 36.04784 39.49987 35.42459 39.49987 L 2.7177715 39.49987 C 2.094522 39.49987 1.5927727 38.99812 1.5927727 38.37487 L 1.5927727 7.5797744 C 1.5927727 6.956525 2.094522 6.454775 2.7177715 6.454775 z " visibility="visible" stroke-linecap="butt" stroke-miterlimit="4" stroke-opacity="1" fill="url(#linearGradient8148)" stroke-dasharray="none" stroke-width="1.37065971" color="#000000" stroke-linejoin="miter" stroke-dashoffset="0" fill-rule="nonzero"/>
        <g transform="matrix(1.054774,0,0,1.049989,-0.814647,4.485012)">
            <path fill-opacity="1" fill="url(#linearGradient7671)" fill-rule="nonzero" d="M 5.512695 30.0 L 39.64323 30.0 L 39.64323 19.627377 L 5.512695 19.627377 L 5.512695 30.0 z " stroke="none" stroke-width="1.2166667" stroke-miterlimit="4"/>
            <path fill="url(#linearGradient7673)" fill-rule="nonzero" d="M 5.512695 5.237844 L 39.64323 5.237844 L 39.64323 19.627377 L 5.512695 19.627377 L 5.512695 5.237844 z " stroke="none" stroke-width="1.2166667" stroke-miterlimit="4"/>
            <g stroke-width="1.34093606" stroke-miterlimit="4" fill-rule="nonzero" transform="matrix(1.189217,0,0,1.189217,-3.525355,-6.535408)" stroke="#000000">
                <g stroke-width="1.34093606">
                    <path fill="#e8f52f" d="M 18.4 15.4 C 18.4 17.6 16.6 19.5 14.3 19.5 C 12.1 19.5 10.2 17.7 10.2 15.4 C 10.2 13.2 12.0 11.3 14.3 11.3 C 16.5 11.3 18.4 13.1 18.4 15.4 z " fill-opacity="0.04999994" stroke-opacity="0.04999994" stroke="none"/>
                    <path fill="#ecf751" d="M 18.0 15.4 C 18.0 17.4 16.4 19.1 14.3 19.1 C 12.3 19.1 10.6 17.5 10.6 15.4 C 10.6 13.4 12.2 11.7 14.3 11.7 C 16.3 11.7 18.0 13.3 18.0 15.4 L 18.0 15.4 z " fill-opacity="0.20829994" stroke-opacity="0.20829994" stroke="none"/>
                    <path fill="#f0f972" d="M 17.6 15.4 C 17.6 17.2 16.1 18.7 14.3 18.7 C 12.5 18.7 11.0 17.2 11.0 15.4 C 11.0 13.6 12.5 12.1 14.3 12.1 C 16.1 12.1 17.6 13.6 17.6 15.4 L 17.6 15.4 z " fill-opacity="0.36669994" stroke-opacity="0.36669994" stroke="none"/>
                    <path fill="#f4fa95" d="M 17.2 15.4 C 17.2 17.0 15.9 18.3 14.3 18.3 C 12.7 18.3 11.4 17.0 11.4 15.4 C 11.4 13.8 12.7 12.5 14.3 12.5 C 15.9 12.5 17.2 13.8 17.2 15.4 z " fill-opacity="0.525" stroke-opacity="0.525" stroke="none"/>
                    <path fill="#f7fcb7" d="M 16.8 15.4 C 16.8 16.8 15.7 17.9 14.3 17.9 C 12.9 17.9 11.8 16.8 11.8 15.4 C 11.8 14.0 12.9 12.9 14.3 12.9 C 15.7 12.9 16.8 14.0 16.8 15.4 L 16.8 15.4 z " fill-opacity="0.6833" stroke-opacity="0.6833" stroke="none"/>
                    <path fill="#fbfddb" d="M 16.4 15.4 C 16.4 16.6 15.4 17.5 14.3 17.5 C 13.2 17.5 12.2 16.5 12.2 15.4 C 12.2 14.3 13.2 13.3 14.3 13.3 C 15.4 13.3 16.4 14.3 16.4 15.4 z " fill-opacity="0.8417" stroke-opacity="0.8417" stroke="none"/>
                    <path fill="#ffffff" d="M 16.0 15.4 C 16.0 16.4 15.2 17.2 14.2 17.2 C 13.2 17.2 12.4 16.4 12.4 15.4 C 12.4 14.4 13.2 13.6 14.2 13.6 C 15.2 13.6 16.0 14.4 16.0 15.4 L 16.0 15.4 z " stroke="none"/>
                </g>
            </g>
            <path fill-opacity="0.3" fill-rule="nonzero" d="M 25.01586 21.649044 L 33.697147 21.649044 L 35.362053 22.124731 L 32.50793 22.124731 C 32.50793 22.124731 35.362053 22.362574 36.789116 24.1464 C 38.216175 25.811304 35.12421 27.832975 35.12421 27.832975 C 35.12421 27.832975 35.12421 27.832975 35.12421 27.832975 C 35.005287 27.47621 34.291756 24.622087 32.864697 23.43287 C 31.7944 22.481497 30.605185 22.243652 30.605185 22.243652 L 25.01586 22.243652 L 25.01586 21.767963 L 25.01586 21.649044 z " stroke="none" stroke-width="1.2166667" stroke-opacity="0.3" stroke-miterlimit="4"/>
            <path fill-opacity="0.3" fill-rule="nonzero" d="M 30.724106 22.362574 L 25.729391 22.362574 L 35.005287 27.595133 L 30.724106 22.362574 L 30.724106 22.362574 z " stroke="none" stroke-width="1.2166667" stroke-opacity="0.3" stroke-miterlimit="4"/>
            <path fill="#515151" fill-rule="nonzero" d="M 25.01586 21.767963 L 33.697147 21.767963 L 35.005287 20.935513 L 32.15117 20.935513 C 32.15117 20.935513 34.767445 20.459827 35.12421 17.486782 C 35.480972 14.513739 31.080868 11.183931 31.080868 11.183931 C 31.080868 11.183931 31.080868 11.183931 31.080868 11.302853 C 31.19979 12.016383 32.389008 17.011095 31.556557 18.913843 C 31.19979 20.578749 30.129496 20.935513 30.129496 20.935513 L 24.659094 20.935513 L 24.896938 21.767963 L 25.01586 21.767963 z " stroke="none" stroke-width="1.2166667" stroke-miterlimit="4"/>
            <path fill="#515151" fill-rule="nonzero" d="M 30.24842 20.459827 L 25.253704 20.459827 L 31.19979 11.421773 L 30.24842 20.459827 z " stroke="none" stroke-width="1.2166667" stroke-miterlimit="4"/>
        </g>
        <path fill-opacity="1" display="inline" stroke="#ffffff" d="M 2.8042316 7.4528584 L 43.233986 7.4528584 C 43.38437 7.4528584 43.505432 7.573923 43.505432 7.7243047 L 43.505432 31.422651 C 43.505432 32.368526 36.401688 38.5 36.251305 38.5 L 2.8042316 38.5 C 2.6538508 38.5 2.532786 38.378937 2.532786 38.228554 L 2.532786 7.7243047 C 2.532786 7.573923 2.6538508 7.4528584 2.8042316 7.4528584 z " visibility="visible" stroke-linecap="butt" stroke-miterlimit="4" stroke-opacity="1" fill="none" stroke-width="1.159868" color="#000000" stroke-linejoin="miter" stroke-dashoffset="0" fill-rule="nonzero"/>
        <rect fill-opacity="0.84659095" display="inline" stroke="#4f4f4f" visibility="visible" stroke-linecap="butt" width="35.0625" stroke-miterlimit="4" stroke-opacity="1" fill="none" stroke-dasharray="none" stroke-width="1.15986824" color="#000000" height="25.0625" x="5.5" stroke-linejoin="miter" y="10.5" stroke-dashoffset="0" fill-rule="nonzero"/>
        <path fill-opacity="1" display="inline" stroke="none" d="M 35.206657 39.468765 C 37.23707 39.79866 44.795444 34.93883 44.491062 30.97092 C 42.9278 33.394016 39.73254 32.257656 35.623783 32.416668 C 35.623783 32.416668 36.019154 38.968765 35.206657 39.468765 z " visibility="visible" stroke-linecap="butt" stroke-miterlimit="4" stroke-opacity="1" fill="url(#linearGradient8169)" stroke-dasharray="none" stroke-width="1.15986848" color="#000000" stroke-linejoin="miter" stroke-dashoffset="0" fill-rule="evenodd"/>
        <path fill-opacity="1" display="inline" stroke="none" d="M 44.0 31.9375 L 42.15625 32.71875 C 41.456886 33.01673 40.846043 33.06485 40.0 33.03125 C 39.153957 32.99765 38.09713 32.884773 36.6875 32.875 L 36.0625 32.84375 L 36.09375 33.46875 C 36.09375 33.46875 36.139347 34.242725 36.15625 35.09375 C 36.1647 35.519264 36.16699 35.962852 36.15625 36.34375 C 36.14551 36.724648 36.115604 37.065983 36.09375 37.15625 L 35.8125 38.34375 L 36.90625 37.78125 C 38.210304 37.130234 41.10094 35.762745 42.625 33.78125 C 42.68664 33.70111 42.818195 33.67598 42.875 33.59375 L 44.0 31.9375 z M 37.28125 34.0625 C 38.28557 34.098064 39.18768 34.15772 39.9375 34.1875 C 40.1404 34.19556 40.333496 34.09739 40.53125 34.09375 C 39.44724 34.980686 38.36264 35.708393 37.3125 36.25 C 37.320564 35.86976 37.32035 35.457775 37.3125 35.0625 C 37.302025 34.535072 37.29475 34.368744 37.28125 34.0625 z " visibility="visible" stroke-linecap="butt" stroke-miterlimit="4" stroke-opacity="1" fill="url(#linearGradient3987)" stroke-width="1.159868" color="#000000" stroke-linejoin="miter" stroke-dashoffset="0" fill-rule="evenodd"/>
        <path fill-opacity="0.30113639" display="inline" stroke="none" d="M 3.0625 8.0 L 3.0625 30.0625 C 25.38858 30.95086 27.884634 17.0 43.0 17.0 L 43.0 8.0 L 3.0625 8.0 z " visibility="visible" stroke-linecap="butt" stroke-miterlimit="4" stroke-opacity="1" fill="url(#radialGradient8161)" stroke-dasharray="none" stroke-width="1" color="#000000" stroke-linejoin="miter" stroke-dashoffset="0" fill-rule="nonzero"/>
        <path fill-opacity="1" display="inline" stroke="none" d="M 44.9503 29.21875 L 44.0128 30.65625 C 43.351135 31.681845 42.41478 31.931988 40.98155 31.96875 C 39.54832 32.005512 37.72008 31.761955 35.60655 31.84375 L 35.0128 31.875 L 35.04405 32.4375 C 35.04405 32.4375 35.14048 34.072544 35.1378 35.75 C 35.13646 36.58873 35.116817 37.44846 35.04405 38.09375 C 35.007668 38.416397 34.93863 38.67139 34.8878 38.84375 C 34.83697 39.016106 34.73968 39.0599 34.8878 38.96875 L 33.5753 39.78125 L 35.10655 40.03125 C 35.216415 40.0491 35.36821 39.93617 35.48155 39.9375 L 35.5128 39.96875 C 35.529144 39.95869 35.528896 39.947823 35.54405 39.9375 C 36.227623 39.930714 36.92499 39.78892 37.79405 39.375 C 38.830704 38.881264 39.98868 38.14303 41.0753 37.28125 C 43.248543 35.557697 45.25687 33.304466 45.0753 30.9375 L 44.9503 29.21875 z M 43.3253 32.6875 C 42.74509 33.94897 41.756096 35.26505 40.35655 36.375 C 39.337826 37.182938 38.236137 37.863804 37.29405 38.3125 C 36.735817 38.578377 36.48625 38.57113 36.10655 38.65625 C 36.131702 38.50868 36.1818 38.38283 36.2003 38.21875 C 36.28192 37.494896 36.29267 36.611797 36.29405 35.75 C 36.296295 34.345787 36.256058 33.454285 36.23155 33.0 C 37.96843 32.987873 39.605103 33.161106 41.0128 33.125 C 41.82801 33.10409 42.632736 32.986217 43.3253 32.6875 z " visibility="visible" stroke-linecap="butt" stroke-miterlimit="4" stroke-opacity="1" fill="url(#linearGradient4010)" stroke-dasharray="none" stroke-width="1.15986848" color="#000000" stroke-linejoin="miter" stroke-dashoffset="0" fill-rule="evenodd"/>
    </g>
</svg>
