<?xml version="1.0" encoding="UTF-8"?>
<svg xmlns="http://www.w3.org/2000/svg" xmlns:xlink="http://www.w3.org/1999/xlink" contentScriptType="text/ecmascript" width="48px" baseProfile="tiny" zoomAndPan="magnify" contentStyleType="text/css" viewBox="0 0 48 48" height="48px" preserveAspectRatio="xMidYMid meet" version="1.0">
    <defs>
        <radialGradient gradientTransform="matrix(-4.372486e-2,0,0,4.94117e-2,39.7948,14.88328)" id="radialGradient1963" gradientUnits="userSpaceOnUse" xlink:show="other" xlink:type="simple" r="117.14286" cx="605.71429" fx="605.71429" cy="486.64789" fy="486.64789" xlink:actuate="onLoad">
            <stop stop-opacity="1" stop-color="#000000" offset="0"/>
            <stop stop-opacity="0" stop-color="#000000" offset="1"/>
        </radialGradient>
        <radialGradient gradientTransform="matrix(4.372486e-2,0,0,4.94117e-2,8.205191,14.88328)" id="radialGradient1961" gradientUnits="userSpaceOnUse" xlink:show="other" xlink:type="simple" r="117.14286" cx="605.71429" fx="605.71429" cy="486.64789" fy="486.64789" xlink:actuate="onLoad">
            <stop stop-opacity="1" stop-color="#000000" offset="0"/>
            <stop stop-opacity="0" stop-color="#000000" offset="1"/>
        </radialGradient>
        <linearGradient x1="302.85715" gradientTransform="matrix(4.372486e-2,0,0,4.94117e-2,8.196586,14.88328)" y1="366.64789" x2="302.85715" gradientUnits="userSpaceOnUse" y2="609.50507" xlink:type="simple" xlink:actuate="onLoad" id="linearGradient1959" xlink:show="other">
            <stop stop-opacity="0" stop-color="#000000" offset="0"/>
            <stop stop-opacity="1" stop-color="#000000" offset="0.5"/>
            <stop stop-opacity="0" stop-color="#000000" offset="1"/>
        </linearGradient>
        <linearGradient xlink:type="simple" xlink:actuate="onLoad" xlink:show="other">
            <stop stop-opacity="1" stop-color="#000000" offset="0"/>
            <stop stop-opacity="0" stop-color="#000000" offset="1"/>
        </linearGradient>
        <linearGradient xlink:type="simple" xlink:actuate="onLoad" xlink:show="other">
            <stop stop-opacity="1" stop-color="#000000" offset="0"/>
            <stop stop-opacity="0" stop-color="#000000" offset="1"/>
        </linearGradient>
        <radialGradient gradientTransform="matrix(1,0,0,0.341176,0,3.047059)" gradientUnits="userSpaceOnUse" xlink:type="simple" r="10.625" xlink:actuate="onLoad" cx="62.625" cy="4.625" xlink:show="other" fx="62.625" fy="4.625">
            <stop stop-opacity="1" stop-color="#000000" offset="0"/>
            <stop stop-opacity="0" stop-color="#000000" offset="1"/>
        </radialGradient>
        <linearGradient xlink:type="simple" xlink:actuate="onLoad" xlink:show="other">
            <stop stop-opacity="0" stop-color="#000000" offset="0"/>
            <stop stop-opacity="1" stop-color="#000000" offset="0.5"/>
            <stop stop-opacity="0" stop-color="#000000" offset="1"/>
        </linearGradient>
        <linearGradient xlink:type="simple" xlink:actuate="onLoad" xlink:show="other">
            <stop stop-opacity="1" stop-color="#555753" offset="0"/>
            <stop stop-opacity="0" stop-color="#555753" offset="1"/>
        </linearGradient>
        <linearGradient xlink:type="simple" xlink:actuate="onLoad" xlink:show="other">
            <stop stop-opacity="1" stop-color="#babdb6" offset="0"/>
            <stop stop-opacity="0" stop-color="#888a85" offset="1"/>
        </linearGradient>
        <linearGradient xlink:type="simple" xlink:actuate="onLoad" xlink:show="other">
            <stop stop-opacity="1" stop-color="#555753" offset="0"/>
            <stop stop-opacity="0" stop-color="#555753" offset="1"/>
        </linearGradient>
        <linearGradient x1="41.254765" y1="40.666004" x2="1.4042226" gradientUnits="userSpaceOnUse" y2="4.4110031" xlink:type="simple" xlink:actuate="onLoad" id="linearGradient2766" xlink:show="other">
            <stop stop-opacity="1" stop-color="#555753" offset="0"/>
            <stop stop-opacity="0" stop-color="#555753" offset="1"/>
        </linearGradient>
        <linearGradient x1="8.0709476" y1="48.705471" x2="15.535567" gradientUnits="userSpaceOnUse" y2="1.6899378" xlink:type="simple" xlink:actuate="onLoad" id="linearGradient2787" xlink:show="other">
            <stop stop-opacity="1" stop-color="#babdb6" offset="0"/>
            <stop stop-opacity="0" stop-color="#888a85" offset="1"/>
        </linearGradient>
        <linearGradient x1="28.590591" y1="18.790939" x2="8.4578934" gradientUnits="userSpaceOnUse" y2="4.914638" xlink:type="simple" xlink:actuate="onLoad" id="linearGradient2831" xlink:show="other">
            <stop stop-opacity="1" stop-color="#555753" offset="0"/>
            <stop stop-opacity="0" stop-color="#555753" offset="1"/>
        </linearGradient>
    </defs>
    <g transform="matrix(0.8030573,0,0,0.8030573,4.7266239,4.8243214)">
        <g transform="matrix(1.4375,0,0,0.416669,-10.49999,29.24992)" display="inline">
            <rect fill-opacity="0.40206185" display="inline" stroke="none" visibility="visible" stroke-linecap="round" width="21.112856" stroke-miterlimit="4" stroke-opacity="1" fill="url(#linearGradient1959)" stroke-dasharray="none" stroke-width="1" color="black" height="11.999987" x="13.443567" stroke-linejoin="miter" y="32.999989" stroke-dashoffset="0" fill-rule="nonzero"/>
            <path fill-opacity="0.40206185" display="inline" stroke="none" d="M 34.556423 33.0004 C 34.556423 33.0004 34.556423 44.99973 34.556423 44.99973 C 36.808144 45.022312 39.999992 42.311287 39.999992 38.99929 C 39.999992 35.687298 37.48724 33.0004 34.556423 33.0004 z " visibility="visible" stroke-linecap="round" stroke-miterlimit="4" stroke-opacity="1" fill="url(#radialGradient1961)" stroke-dasharray="none" stroke-width="1" color="black" stroke-linejoin="miter" stroke-dashoffset="0" fill-rule="nonzero"/>
            <path fill-opacity="0.40206185" display="inline" stroke="none" d="M 13.443568 33.0004 C 13.443568 33.0004 13.443568 44.99973 13.443568 44.99973 C 11.191846 45.022312 8.000001 42.311287 8.000001 38.99929 C 8.000001 35.687298 10.512752 33.0004 13.443568 33.0004 z " visibility="visible" stroke-linecap="round" stroke-miterlimit="4" stroke-opacity="1" fill="url(#radialGradient1963)" stroke-dasharray="none" stroke-width="1" color="black" stroke-linejoin="miter" stroke-dashoffset="0" fill-rule="nonzero"/>
        </g>
        <path fill-opacity="1" display="inline" stroke="#888a85" d="M 47.071423 24.785715 C 47.073696 32.851223 42.772102 40.30503 35.787548 44.33844 C 28.80299 48.37185 20.197008 48.37185 13.212451 44.33844 C 6.227895 40.30503 1.9263016 32.851223 1.9285716 24.785715 C 1.9263016 16.720207 6.227895 9.2664 13.212451 5.2329907 C 20.197008 1.1995815 28.80299 1.1995815 35.787548 5.2329907 C 42.772102 9.2664 47.073696 16.720207 47.071423 24.785715 z " visibility="visible" stroke-linecap="butt" transform="matrix(0.996904,0,0,0.996904,-0.424149,-0.70898)" stroke-miterlimit="4" stroke-opacity="1" fill="#ffffff" stroke-dasharray="none" stroke-width="1.00310552" color="#000000" stroke-linejoin="miter" stroke-dashoffset="0" fill-rule="evenodd"/>
        <path fill-opacity="1" display="inline" stroke="url(#linearGradient2766)" d="M 47.071423 24.785715 C 47.073696 32.851223 42.772102 40.30503 35.787548 44.33844 C 28.80299 48.37185 20.197008 48.37185 13.212451 44.33844 C 6.227895 40.30503 1.9263016 32.851223 1.9285716 24.785715 C 1.9263016 16.720207 6.227895 9.2664 13.212451 5.2329907 C 20.197008 1.1995815 28.80299 1.1995815 35.787548 5.2329907 C 42.772102 9.2664 47.073696 16.720207 47.071423 24.785715 z " visibility="visible" stroke-linecap="butt" transform="matrix(0.953563,0,0,0.953563,0.636153,0.363705)" stroke-miterlimit="4" stroke-opacity="1" fill="url(#linearGradient2787)" stroke-dasharray="none" stroke-width="1.04869807" color="#000000" stroke-linejoin="miter" stroke-dashoffset="0" fill-rule="evenodd"/>
        <path fill-opacity="1" display="inline" stroke="url(#linearGradient2831)" d="M 28.285711 15.964286 C 28.285711 24.106283 22.010763 31.074032 15.110764 31.074032 L 16.511375 24.32788 L 19.505608 24.337692 L 19.58241 29.323685 L 23.5323 21.958588 L 19.44425 15.134391 L 19.44425 19.886354 L 16.548605 19.879446 L 14.599944 11.647209 L 11.655641 11.647209 L 11.622559 15.595095 L 7.5358815 9.340801 L 11.489664 2.3447 L 11.57878 6.979831 L 14.439648 6.9797583 L 16.0273 1.0240546 L 16.337946 0.9970747 C 22.248144 0.4837673 28.285711 7.8222866 28.285711 15.964286 z " visibility="visible" stroke-linecap="butt" transform="matrix(1.64,0,0,1.389831,-1.88857,1.812348)" stroke-miterlimit="4" stroke-opacity="1" fill="#2e3436" stroke-width="0.66236478" color="black" stroke-linejoin="miter" stroke-dashoffset="0" fill-rule="evenodd"/>
    </g>
</svg>
