<?xml version="1.0" encoding="UTF-8"?>
<svg xmlns="http://www.w3.org/2000/svg" xmlns:xlink="http://www.w3.org/1999/xlink" contentScriptType="text/ecmascript" width="84" baseProfile="tiny" zoomAndPan="magnify" contentStyleType="text/css" viewBox="0 0 84 58" height="58" preserveAspectRatio="xMidYMid meet" version="1.0">
    <defs>
        <linearGradient x1="42.1875" y1="31" x2="45" gradientUnits="userSpaceOnUse" y2="39.984692" xlink:type="simple" xlink:actuate="onLoad" id="linearGradient8177" xlink:show="other">
            <stop stop-opacity="1" stop-color="#bbbdba" offset="0"/>
            <stop stop-opacity="1" stop-color="#70746e" offset="1"/>
        </linearGradient>
        <linearGradient x1="35.996582" gradientTransform="translate(5.14757,-3.0347921)" y1="40.458221" x2="33.664921" gradientUnits="userSpaceOnUse" y2="37.770721" xlink:type="simple" xlink:actuate="onLoad" id="linearGradient8169" xlink:show="other">
            <stop stop-opacity="1" stop-color="#7c7c7c" offset="0"/>
            <stop stop-opacity="1" stop-color="#b8b8b8" offset="1"/>
        </linearGradient>
        <linearGradient x1="33.396004" gradientTransform="translate(5.14757,-3.409792)" y1="36.921333" x2="34.170048" gradientUnits="userSpaceOnUse" y2="38.070381" xlink:type="simple" xlink:actuate="onLoad" id="linearGradient8166" xlink:show="other">
            <stop stop-opacity="1" stop-color="#ffffff" offset="0"/>
            <stop stop-opacity="0" stop-color="#ffffff" offset="1"/>
        </linearGradient>
        <radialGradient gradientTransform="matrix(1.710531,0,0,1.124849,-11.56833,1.802582)" id="radialGradient8161" gradientUnits="userSpaceOnUse" xlink:show="other" xlink:type="simple" r="19.96875" cx="12.700491" fx="12.700491" cy="10.404876" fy="10.404876" xlink:actuate="onLoad">
            <stop stop-opacity="1" stop-color="#ffffff" offset="0"/>
            <stop stop-opacity="0" stop-color="#ffffff" offset="1"/>
        </radialGradient>
        <linearGradient gradientTransform="matrix(1.434003,0,0,0.990087,52.32167,2.838918)" id="linearGradient8148" gradientUnits="userSpaceOnUse" stroke-miterlimit="4.0000000" xlink:show="other" xlink:type="simple" stroke-dasharray="none" y1="3.7319" x1="12.4873" y2="36.0328" x2="31.0813" stroke-width="1.2166667" xlink:actuate="onLoad">
            <stop stroke-width="1.2166667" stroke-miterlimit="4.0000000" stroke-dasharray="none" stop-color="#d2d2d2" offset="0"/>
            <stop stroke-width="1.2166667" stroke-miterlimit="4.0000000" stroke-dasharray="none" stop-color="#ededed" offset="1"/>
        </linearGradient>
        <linearGradient gradientTransform="matrix(1.098989,0,0,1.106697,-1.953865,-4.922453)" id="linearGradient7673" gradientUnits="userSpaceOnUse" stroke-miterlimit="4.0000000" xlink:show="other" xlink:type="simple" stroke-dasharray="none" y1="24.6274" x1="21.9326" y2="7.1091" x2="21.9326" stroke-width="1.2166667" xlink:actuate="onLoad">
            <stop stroke-width="1.2166667" stroke-miterlimit="4.0000000" stroke-dasharray="none" stop-color="#d0d6e5" offset="0"/>
            <stop stroke-width="1.2166667" stroke-miterlimit="4.0000000" stroke-dasharray="none" stop-color="#093a80" offset="1"/>
        </linearGradient>
        <linearGradient gradientTransform="matrix(1.098989,0,0,-0.797757,-1.953865,37.324)" id="linearGradient7671" gradientUnits="userSpaceOnUse" stroke-miterlimit="4.0000000" xlink:show="other" xlink:type="simple" stroke-dasharray="none" y1="24.627399" x1="21.9326" y2="7.1090999" x2="21.9326" stroke-width="1.2166667" xlink:actuate="onLoad">
            <stop stop-opacity="1" stop-color="#8595bc" offset="0"/>
            <stop stop-opacity="1" stop-color="#041a3b" offset="1"/>
        </linearGradient>
        <radialGradient gradientTransform="matrix(1.000000,0.000000,0.000000,0.184000,0.000000,33.97501)" gradientUnits="userSpaceOnUse" xlink:type="simple" r="22.097088" xlink:actuate="onLoad" cx="24.218407" cy="41.636040" xlink:show="other" fx="24.218407" fy="41.636040">
            <stop stop-opacity="1" stop-color="#000000" offset="0"/>
            <stop stop-opacity="0" stop-color="#000000" offset="1"/>
        </radialGradient>
        <linearGradient gradientUnits="userSpaceOnUse" stroke-miterlimit="4.0000000" xlink:show="other" xlink:type="simple" stroke-dasharray="none" x1="21.9326" y1="24.6274" y2="7.1091" x2="21.9326" stroke-width="1.2166667" xlink:actuate="onLoad">
            <stop stroke-width="1.2166667" stroke-miterlimit="4.0000000" stroke-dasharray="none" stop-color="#d0d6e5" offset="0"/>
            <stop stroke-width="1.2166667" stroke-miterlimit="4.0000000" stroke-dasharray="none" stop-color="#093a80" offset="1"/>
        </linearGradient>
        <linearGradient gradientUnits="userSpaceOnUse" stroke-miterlimit="4.0000000" xlink:show="other" xlink:type="simple" stroke-dasharray="none" x1="21.877" y1="30.3413" y2="22.5769" x2="21.9168" stroke-width="1.2166667" xlink:actuate="onLoad">
            <stop stop-opacity="1.0000000" stop-color="#5e4f07" offset="0.0000000"/>
            <stop stop-opacity="1.0000000" stop-color="#348a31" offset="1.0000000"/>
        </linearGradient>
        <linearGradient gradientUnits="userSpaceOnUse" stroke-miterlimit="4.0000000" xlink:show="other" xlink:type="simple" stroke-dasharray="none" x1="12.4873" y1="3.7319" y2="36.0328" x2="31.0813" stroke-width="1.2166667" xlink:actuate="onLoad">
            <stop stroke-width="1.2166667" stroke-miterlimit="4.0000000" stroke-dasharray="none" stop-color="#d2d2d2" offset="0"/>
            <stop stroke-width="1.2166667" stroke-miterlimit="4.0000000" stroke-dasharray="none" stop-color="#ededed" offset="1"/>
        </linearGradient>
        <linearGradient xlink:type="simple" xlink:actuate="onLoad" xlink:show="other">
            <stop stop-opacity="1" stop-color="#000000" offset="0"/>
            <stop stop-opacity="0" stop-color="#000000" offset="1"/>
        </linearGradient>
        <linearGradient xlink:type="simple" xlink:actuate="onLoad" xlink:show="other">
            <stop stop-opacity="1.0000000" stop-color="#715b26" offset="0.0000000"/>
            <stop stop-opacity="1.0000000" stop-color="#312710" offset="1.0000000"/>
        </linearGradient>
        <linearGradient gradientUnits="userSpaceOnUse" stroke-miterlimit="4.0000000" xlink:show="other" xlink:type="simple" stroke-dasharray="none" x1="21.9326" y1="24.6274" y2="7.1091" x2="21.9326" stroke-width="1.2166667" xlink:actuate="onLoad">
            <stop stop-opacity="1" stop-color="#8595bc" offset="0"/>
            <stop stop-opacity="1" stop-color="#041a3b" offset="1"/>
        </linearGradient>
        <linearGradient xlink:type="simple" xlink:actuate="onLoad" xlink:show="other">
            <stop stop-opacity="1" stop-color="#ffffff" offset="0"/>
            <stop stop-opacity="0" stop-color="#ffffff" offset="1"/>
        </linearGradient>
        <linearGradient xlink:type="simple" xlink:actuate="onLoad" xlink:show="other">
            <stop stop-opacity="1" stop-color="#7c7c7c" offset="0"/>
            <stop stop-opacity="1" stop-color="#b8b8b8" offset="1"/>
        </linearGradient>
        <linearGradient xlink:type="simple" xlink:actuate="onLoad" xlink:show="other">
            <stop stop-opacity="1" stop-color="#ffffff" offset="0"/>
            <stop stop-opacity="0" stop-color="#ffffff" offset="1"/>
        </linearGradient>
        <linearGradient xlink:type="simple" xlink:actuate="onLoad" xlink:show="other">
            <stop stop-opacity="1" stop-color="#bbbdba" offset="0"/>
            <stop stop-opacity="1" stop-color="#70746e" offset="1"/>
        </linearGradient>
        <linearGradient x1="302.85715" gradientTransform="matrix(2.774389,0,0,1.969706,-1892.179,-872.8854)" y1="366.64789" x2="302.85715" gradientUnits="userSpaceOnUse" y2="609.50507" xlink:type="simple" xlink:actuate="onLoad" id="linearGradient6715" xlink:show="other">
            <stop stop-opacity="0" stop-color="#000000" offset="0"/>
            <stop stop-opacity="1" stop-color="#000000" offset="0.5"/>
            <stop stop-opacity="0" stop-color="#000000" offset="1"/>
        </linearGradient>
        <linearGradient xlink:type="simple" xlink:actuate="onLoad" xlink:show="other">
            <stop stop-opacity="0" stop-color="#000000" offset="0"/>
            <stop stop-opacity="1" stop-color="#000000" offset="0.5"/>
            <stop stop-opacity="0" stop-color="#000000" offset="1"/>
        </linearGradient>
        <radialGradient gradientTransform="matrix(2.774389,0,0,1.969706,-1891.633,-872.8854)" id="radialGradient6717" gradientUnits="userSpaceOnUse" xlink:show="other" xlink:type="simple" r="117.14286" cx="605.71429" fx="605.71429" cy="486.64789" fy="486.64789" xlink:actuate="onLoad">
            <stop stop-opacity="1" stop-color="#000000" offset="0"/>
            <stop stop-opacity="0" stop-color="#000000" offset="1"/>
        </radialGradient>
        <linearGradient xlink:type="simple" xlink:actuate="onLoad" xlink:show="other">
            <stop stop-opacity="1" stop-color="#000000" offset="0"/>
            <stop stop-opacity="0" stop-color="#000000" offset="1"/>
        </linearGradient>
        <radialGradient gradientTransform="matrix(-2.774389,0,0,1.969706,112.7623,-872.8854)" id="radialGradient6719" gradientUnits="userSpaceOnUse" xlink:show="other" xlink:type="simple" r="117.14286" cx="605.71429" fx="605.71429" cy="486.64789" fy="486.64789" xlink:actuate="onLoad">
            <stop stop-opacity="1" stop-color="#000000" offset="0"/>
            <stop stop-opacity="0" stop-color="#000000" offset="1"/>
        </radialGradient>
        <linearGradient gradientTransform="translate(5.14757,-3.409792)" id="linearGradient3309" gradientUnits="userSpaceOnUse" xlink:show="other" xlink:type="simple" x1="33.396004" y1="36.921333" y2="38.070381" x2="34.170048" xlink:actuate="onLoad">
            <stop stop-opacity="1" stop-color="#ffffff" offset="0"/>
            <stop stop-opacity="0" stop-color="#ffffff" offset="1"/>
        </linearGradient>
        <linearGradient gradientTransform="translate(14.252439,0)" id="linearGradient8177" gradientUnits="userSpaceOnUse" xlink:show="other" xlink:type="simple" x1="42.1875" y1="31" x2="45" y2="39.984692" xlink:actuate="onLoad">
            <stop stop-opacity="1" stop-color="#bbbdba" offset="0"/>
            <stop stop-opacity="1" stop-color="#70746e" offset="1"/>
        </linearGradient>
        <linearGradient x1="42.1875" y1="31" x2="45" gradientUnits="userSpaceOnUse" y2="39.984692" xlink:type="simple" xlink:actuate="onLoad" id="linearGradient3322" xlink:show="other">
            <stop stop-opacity="1" stop-color="#bbbdba" offset="0"/>
            <stop stop-opacity="1" stop-color="#70746e" offset="1"/>
        </linearGradient>
    </defs>
    <g transform="matrix(1.4032686,0,0,1.4032686,9.5235228,-4.0193493)">
        <g transform="matrix(2.175112e-2,0,0,2.493263e-2,42.41049,33.81117)" display="inline">
            <rect fill-opacity="0.40206185" display="inline" stroke="none" visibility="visible" stroke-linecap="round" width="1339.6335" stroke-miterlimit="4" stroke-opacity="1" fill="url(#linearGradient6715)" stroke-dasharray="none" stroke-width="1" color="#000000" height="478.35718" x="-1559.2523" stroke-linejoin="miter" y="-150.69685" stroke-dashoffset="0" fill-rule="nonzero"/>
            <path fill-opacity="0.40206185" display="inline" stroke="none" d="M -219.61876 -150.68037 C -219.61876 -150.68037 -219.61876 327.6504 -219.61876 327.6504 C -76.74459 328.55087 125.78146 220.48076 125.78138 88.45424 C 125.78138 -43.572304 -33.655437 -150.68036 -219.61876 -150.68037 z " visibility="visible" stroke-linecap="round" stroke-miterlimit="4" stroke-opacity="1" fill="url(#radialGradient6717)" stroke-dasharray="none" stroke-width="1" color="#000000" stroke-linejoin="miter" stroke-dashoffset="0" fill-rule="nonzero"/>
            <path fill-opacity="0.40206185" display="inline" stroke="none" d="M -1559.2523 -150.68037 C -1559.2523 -150.68037 -1559.2523 327.6504 -1559.2523 327.6504 C -1702.1263 328.55087 -1904.6523 220.48076 -1904.6523 88.45424 C -1904.6523 -43.572304 -1745.2156 -150.68036 -1559.2523 -150.68037 z " visibility="visible" stroke-linecap="round" stroke-miterlimit="4" stroke-opacity="1" fill="url(#radialGradient6719)" stroke-dasharray="none" stroke-width="1" color="#000000" stroke-linejoin="miter" stroke-dashoffset="0" fill-rule="nonzero"/>
        </g>
        <path fill-opacity="1" display="inline" stroke="#bbbfbb" d="M 2.7177715 6.454775 L 43.379543 6.454775 C 44.002792 6.454775 44.504543 6.956525 44.504543 7.5797744 L 44.504543 31.48058 C 44.504543 32.103832 36.04784 39.49987 35.42459 39.49987 L 2.7177715 39.49987 C 2.094522 39.49987 1.5927727 38.99812 1.5927727 38.37487 L 1.5927727 7.5797744 C 1.5927727 6.956525 2.094522 6.454775 2.7177715 6.454775 z " visibility="visible" stroke-linecap="butt" stroke-miterlimit="4" stroke-opacity="1" fill="url(#linearGradient8148)" stroke-dasharray="none" stroke-width="0.85514633" color="#000000" stroke-linejoin="miter" stroke-dashoffset="0" fill-rule="nonzero"/>
        <g transform="matrix(1.054774,0,0,1.049989,-0.814647,4.485012)">
            <path fill-opacity="1" fill="url(#linearGradient7671)" fill-rule="nonzero" d="M 5.512695 30.0 L 39.64323 30.0 L 39.64323 19.627377 L 5.512695 19.627377 L 5.512695 30.0 z " stroke="none" stroke-width="1.2166667" stroke-miterlimit="4"/>
            <path fill="url(#linearGradient7673)" fill-rule="nonzero" d="M 5.512695 5.237844 L 39.64323 5.237844 L 39.64323 19.627377 L 5.512695 19.627377 L 5.512695 5.237844 z " stroke="none" stroke-width="1.2166667" stroke-miterlimit="4"/>
            <g stroke-width="1.15611064" stroke-miterlimit="4" fill-rule="nonzero" transform="matrix(1.189217,0,0,1.189217,-3.525355,-6.535408)" stroke="#000000">
                <g>
                    <path fill="#e8f52f" d="M 18.4 15.4 C 18.4 17.6 16.6 19.5 14.3 19.5 C 12.1 19.5 10.2 17.7 10.2 15.4 C 10.2 13.2 12.0 11.3 14.3 11.3 C 16.5 11.3 18.4 13.1 18.4 15.4 z " fill-opacity="0.04999994" stroke-opacity="0.04999994" stroke="none"/>
                    <path fill="#ecf751" d="M 18.0 15.4 C 18.0 17.4 16.4 19.1 14.3 19.1 C 12.3 19.1 10.6 17.5 10.6 15.4 C 10.6 13.4 12.2 11.7 14.3 11.7 C 16.3 11.7 18.0 13.3 18.0 15.4 L 18.0 15.4 z " fill-opacity="0.20829994" stroke-opacity="0.20829994" stroke="none"/>
                    <path fill="#f0f972" d="M 17.6 15.4 C 17.6 17.2 16.1 18.7 14.3 18.7 C 12.5 18.7 11.0 17.2 11.0 15.4 C 11.0 13.6 12.5 12.1 14.3 12.1 C 16.1 12.1 17.6 13.6 17.6 15.4 L 17.6 15.4 z " fill-opacity="0.36669994" stroke-opacity="0.36669994" stroke="none"/>
                    <path fill="#f4fa95" d="M 17.2 15.4 C 17.2 17.0 15.9 18.3 14.3 18.3 C 12.7 18.3 11.4 17.0 11.4 15.4 C 11.4 13.8 12.7 12.5 14.3 12.5 C 15.9 12.5 17.2 13.8 17.2 15.4 z " fill-opacity="0.525" stroke-opacity="0.525" stroke="none"/>
                    <path fill="#f7fcb7" d="M 16.8 15.4 C 16.8 16.8 15.7 17.9 14.3 17.9 C 12.9 17.9 11.8 16.8 11.8 15.4 C 11.8 14.0 12.9 12.9 14.3 12.9 C 15.7 12.9 16.8 14.0 16.8 15.4 L 16.8 15.4 z " fill-opacity="0.6833" stroke-opacity="0.6833" stroke="none"/>
                    <path fill="#fbfddb" d="M 16.4 15.4 C 16.4 16.6 15.4 17.5 14.3 17.5 C 13.2 17.5 12.2 16.5 12.2 15.4 C 12.2 14.3 13.2 13.3 14.3 13.3 C 15.4 13.3 16.4 14.3 16.4 15.4 z " fill-opacity="0.8417" stroke-opacity="0.8417" stroke="none"/>
                    <path fill="#ffffff" d="M 16.0 15.4 C 16.0 16.4 15.2 17.2 14.2 17.2 C 13.2 17.2 12.4 16.4 12.4 15.4 C 12.4 14.4 13.2 13.6 14.2 13.6 C 15.2 13.6 16.0 14.4 16.0 15.4 L 16.0 15.4 z " stroke="none"/>
                </g>
            </g>
            <path fill-opacity="0.3" fill-rule="nonzero" d="M 25.01586 21.649044 L 33.697147 21.649044 L 35.362053 22.124731 L 32.50793 22.124731 C 32.50793 22.124731 35.362053 22.362574 36.789116 24.1464 C 38.216175 25.811304 35.12421 27.832975 35.12421 27.832975 C 35.12421 27.832975 35.12421 27.832975 35.12421 27.832975 C 35.005287 27.47621 34.291756 24.622087 32.864697 23.43287 C 31.7944 22.481497 30.605185 22.243652 30.605185 22.243652 L 25.01586 22.243652 L 25.01586 21.767963 L 25.01586 21.649044 z " stroke="none" stroke-width="1.2166667" stroke-opacity="0.3" stroke-miterlimit="4"/>
            <path fill-opacity="0.3" fill-rule="nonzero" d="M 30.724106 22.362574 L 25.729391 22.362574 L 35.005287 27.595133 L 30.724106 22.362574 L 30.724106 22.362574 z " stroke="none" stroke-width="1.2166667" stroke-opacity="0.3" stroke-miterlimit="4"/>
            <path fill="#515151" fill-rule="nonzero" d="M 25.01586 21.767963 L 33.697147 21.767963 L 35.005287 20.935513 L 32.15117 20.935513 C 32.15117 20.935513 34.767445 20.459827 35.12421 17.486782 C 35.480972 14.513739 31.080868 11.183931 31.080868 11.183931 C 31.080868 11.183931 31.080868 11.183931 31.080868 11.302853 C 31.19979 12.016383 32.389008 17.011095 31.556557 18.913843 C 31.19979 20.578749 30.129496 20.935513 30.129496 20.935513 L 24.659094 20.935513 L 24.896938 21.767963 L 25.01586 21.767963 z " stroke="none" stroke-width="1.2166667" stroke-miterlimit="4"/>
            <path fill="#515151" fill-rule="nonzero" d="M 30.24842 20.459827 L 25.253704 20.459827 L 31.19979 11.421773 L 30.24842 20.459827 z " stroke="none" stroke-width="1.2166667" stroke-miterlimit="4"/>
        </g>
        <path fill-opacity="1" display="inline" stroke="#ffffff" d="M 2.8042316 7.4528584 L 43.233986 7.4528584 C 43.38437 7.4528584 43.505432 7.573923 43.505432 7.7243047 L 43.505432 31.422651 C 43.505432 32.368526 36.401688 38.5 36.251305 38.5 L 2.8042316 38.5 C 2.6538508 38.5 2.532786 38.378937 2.532786 38.228554 L 2.532786 7.7243047 C 2.532786 7.573923 2.6538508 7.4528584 2.8042316 7.4528584 z " visibility="visible" stroke-linecap="butt" stroke-miterlimit="4" stroke-opacity="1" fill="none" stroke-width="0.99999976" color="#000000" stroke-linejoin="miter" stroke-dashoffset="0" fill-rule="nonzero"/>
        <rect fill-opacity="0.84659095" display="inline" stroke="#4f4f4f" visibility="visible" stroke-linecap="butt" width="35.0625" stroke-miterlimit="4" stroke-opacity="1" fill="none" stroke-dasharray="none" stroke-width="1" color="#000000" height="25.0625" x="5.5" stroke-linejoin="miter" y="10.5" stroke-dashoffset="0" fill-rule="nonzero"/>
        <path fill-opacity="1" display="inline" stroke="none" d="M 35.206657 39.468765 C 37.23707 39.79866 44.795444 34.93883 44.491062 30.97092 C 42.9278 33.394016 39.73254 32.257656 35.623783 32.416668 C 35.623783 32.416668 36.019154 38.968765 35.206657 39.468765 z " visibility="visible" stroke-linecap="butt" stroke-miterlimit="4" stroke-opacity="1" fill="url(#linearGradient8169)" stroke-dasharray="none" stroke-width="1.00000024" color="#000000" stroke-linejoin="miter" stroke-dashoffset="0" fill-rule="evenodd"/>
        <path fill-opacity="1" display="inline" stroke="none" d="M 43.78125 32.125 L 42.1875 32.78125 C 41.474537 33.085026 40.850964 33.127544 40.0 33.09375 C 39.149036 33.059956 38.092663 32.94724 36.6875 32.9375 L 36.15625 32.9375 L 36.1875 33.46875 C 36.1875 33.46875 36.233063 34.209908 36.25 35.0625 C 36.25847 35.488796 36.2608 35.960766 36.25 36.34375 C 36.2392 36.726734 36.181557 37.05172 36.15625 37.15625 L 35.90625 38.21875 L 36.875 37.71875 C 38.184204 37.065163 41.06253 35.68026 42.5625 33.71875 C 42.567097 33.712734 42.58918 33.724777 42.59375 33.71875 C 42.64542 33.650646 42.733196 33.600815 42.78125 33.53125 L 43.78125 32.125 z M 37.21875 33.96875 C 38.259373 34.002728 39.174194 34.063435 39.9375 34.09375 C 40.238174 34.105694 40.52389 33.985134 40.8125 33.96875 C 39.665768 34.97406 38.386715 35.792995 37.25 36.375 C 37.261536 35.965885 37.258663 35.4986 37.25 35.0625 C 37.238564 34.48672 37.232212 34.264004 37.21875 33.96875 z " visibility="visible" stroke-linecap="butt" stroke-miterlimit="4" stroke-opacity="1" fill="url(#linearGradient3309)" stroke-width="0.99999982" color="#000000" stroke-linejoin="miter" stroke-dashoffset="0" fill-rule="evenodd"/>
        <path fill-opacity="0.30113639" display="inline" stroke="none" d="M 3.0625 8.0 L 3.0625 30.0625 C 25.38858 30.95086 27.884634 17.0 43.0 17.0 L 43.0 8.0 L 3.0625 8.0 z " visibility="visible" stroke-linecap="butt" stroke-miterlimit="4" stroke-opacity="1" fill="url(#radialGradient8161)" stroke-dasharray="none" stroke-width="1" color="#000000" stroke-linejoin="miter" stroke-dashoffset="0" fill-rule="nonzero"/>
        <path fill-opacity="1" display="inline" stroke="none" d="M 44.87256 29.4375 L 44.06006 30.6875 C 43.381863 31.738724 42.44107 31.994226 40.99756 32.03125 C 39.554047 32.068275 37.69669 31.82477 35.591312 31.90625 L 35.091312 31.9375 L 35.12256 32.4375 C 35.12256 32.4375 35.219 34.069363 35.216312 35.75 C 35.21497 36.59032 35.195934 37.443047 35.12256 38.09375 C 35.085876 38.419106 35.01936 38.69511 34.966312 38.875 C 34.91326 39.05489 34.821358 39.101223 34.93506 39.03125 L 33.81006 39.75 L 35.12256 39.96875 C 35.219673 39.984528 35.36508 39.873035 35.466312 39.875 C 35.471973 39.871277 35.492065 39.878773 35.49756 39.875 C 36.169724 39.880547 36.89379 39.702766 37.778812 39.28125 C 38.80895 38.790615 39.94687 38.076817 41.028812 37.21875 C 43.192696 35.502617 45.175083 33.251675 44.99756 30.9375 L 44.87256 29.4375 z M 43.81006 32.15625 C 43.34879 33.578712 42.000164 35.171463 40.403812 36.4375 C 39.38041 37.249146 38.289913 37.9232 37.341312 38.375 C 36.738003 38.662346 36.424572 38.67005 36.028812 38.75 C 36.062275 38.573982 36.099712 38.421387 36.12256 38.21875 C 36.20357 37.50031 36.214935 36.610207 36.216312 35.75 C 36.21863 34.300182 36.144794 33.310513 36.12256 32.90625 C 37.91969 32.882473 39.593716 33.068058 41.028812 33.03125 C 42.092644 33.003963 43.00143 32.69921 43.81006 32.15625 z " visibility="visible" stroke-linecap="butt" stroke-miterlimit="4" stroke-opacity="1" fill="url(#linearGradient3322)" stroke-width="1.00000024" color="#000000" stroke-linejoin="miter" stroke-dashoffset="0" fill-rule="evenodd"/>
    </g>
</svg>
