<?xml version="1.0" encoding="UTF-8"?>
<svg xmlns="http://www.w3.org/2000/svg" xmlns:xlink="http://www.w3.org/1999/xlink" contentScriptType="text/ecmascript" width="16" baseProfile="tiny" zoomAndPan="magnify" contentStyleType="text/css" viewBox="0 0 16 16" height="16" preserveAspectRatio="xMidYMid meet" version="1.0">
    <defs>
        <linearGradient xlink:type="simple" xlink:actuate="onLoad" xlink:show="other">
            <stop stop-opacity="1" stop-color="#000000" offset="0"/>
            <stop stop-opacity="0.65979379" stop-color="#ffffff" offset="1"/>
        </linearGradient>
        <linearGradient xlink:type="simple" xlink:actuate="onLoad" xlink:show="other">
            <stop stop-opacity="1" stop-color="#000000" offset="0"/>
            <stop stop-opacity="0" stop-color="#ffffff" offset="1"/>
        </linearGradient>
        <linearGradient xlink:type="simple" xlink:actuate="onLoad" xlink:show="other">
            <stop stop-opacity="1" stop-color="#adb0a8" offset="0"/>
            <stop stop-opacity="1" stop-color="#464744" offset="1"/>
        </linearGradient>
        <linearGradient xlink:type="simple" xlink:actuate="onLoad" xlink:show="other">
            <stop stop-opacity="1" stop-color="#ffffff" offset="0"/>
            <stop stop-color="#d3d7cf" offset="1"/>
        </linearGradient>
        <linearGradient xlink:type="simple" xlink:actuate="onLoad" xlink:show="other">
            <stop stop-opacity="1" stop-color="#ffffff" offset="0"/>
            <stop stop-opacity="0" stop-color="#eeeeec" offset="1"/>
        </linearGradient>
        <linearGradient xlink:type="simple" xlink:actuate="onLoad" xlink:show="other">
            <stop stop-opacity="1" stop-color="#000000" offset="0"/>
            <stop stop-opacity="0" stop-color="#000000" offset="1"/>
        </linearGradient>
        <radialGradient gradientTransform="matrix(1,0,0,0.536723,4.095103e-13,16.87306)" gradientUnits="userSpaceOnUse" xlink:type="simple" r="15.644737" xlink:actuate="onLoad" cx="24.837126" cy="36.421127" xlink:show="other" fx="24.837126" fy="36.421127">
            <stop stop-opacity="1" stop-color="#000000" offset="0"/>
            <stop stop-opacity="0" stop-color="#000000" offset="1"/>
        </radialGradient>
        <linearGradient x1="54.988514" gradientTransform="translate(-47.9996,-121)" y1="156" x2="54.896976" gradientUnits="userSpaceOnUse" y2="142.18799" xlink:type="simple" xlink:actuate="onLoad" id="linearGradient1401" xlink:show="other">
            <stop stop-opacity="1" stop-color="#adb0a8" offset="0"/>
            <stop stop-opacity="1" stop-color="#464744" offset="1"/>
        </linearGradient>
        <linearGradient x1="49.430401" gradientTransform="translate(-44.99051,-97.26213)" y1="112.94963" x2="49.667324" gradientUnits="userSpaceOnUse" y2="115.13713" xlink:type="simple" xlink:actuate="onLoad" id="linearGradient1426" xlink:show="other">
            <stop stop-opacity="1" stop-color="#000000" offset="0"/>
            <stop stop-opacity="0" stop-color="#ffffff" offset="1"/>
        </linearGradient>
        <radialGradient gradientTransform="matrix(0.222659,-0.996273,2.129992,0.476041,-290.946,20.8517)" id="radialGradient1436" gradientUnits="userSpaceOnUse" xlink:show="other" xlink:type="simple" r="8.75" cx="64.227074" fx="64.227074" cy="147.99352" fy="147.99352" xlink:actuate="onLoad">
            <stop stop-opacity="1" stop-color="#ffffff" offset="0"/>
            <stop stop-color="#d3d7cf" offset="1"/>
        </radialGradient>
        <radialGradient gradientTransform="matrix(0.222659,-0.996273,2.129992,0.476041,-308.946,20.8517)" id="radialGradient1439" gradientUnits="userSpaceOnUse" xlink:show="other" xlink:type="simple" r="8.75" cx="64.227074" fx="64.227074" cy="147.99352" fy="147.99352" xlink:actuate="onLoad">
            <stop stop-opacity="1" stop-color="#ffffff" offset="0"/>
            <stop stop-color="#d3d7cf" offset="1"/>
        </radialGradient>
        <linearGradient x1="24.476166" y1="13.658564" x2="23.750401" gradientUnits="userSpaceOnUse" y2="36" xlink:type="simple" xlink:actuate="onLoad" id="linearGradient2322" xlink:show="other">
            <stop stop-opacity="1" stop-color="#000000" offset="0"/>
            <stop stop-opacity="0.65979379" stop-color="#ffffff" offset="1"/>
        </linearGradient>
        <linearGradient gradientTransform="matrix(-0.4041006,0,0,0.5516364,36.867948,-71.946426)" id="linearGradient1401" gradientUnits="userSpaceOnUse" xlink:show="other" xlink:type="simple" x1="54.988514" y1="156" x2="54.896976" y2="142.18799" xlink:actuate="onLoad">
            <stop stop-opacity="1" stop-color="#adb0a8" offset="0"/>
            <stop stop-opacity="1" stop-color="#464744" offset="1"/>
        </linearGradient>
        <linearGradient gradientTransform="matrix(-0.4041006,0,0,0.5516364,35.651973,-58.851753)" id="linearGradient4438" gradientUnits="userSpaceOnUse" xlink:show="other" xlink:type="simple" x1="49.430401" y1="112.94963" y2="115.13713" x2="49.667324" xlink:actuate="onLoad">
            <stop stop-opacity="1" stop-color="#000000" offset="0"/>
            <stop stop-opacity="0" stop-color="#ffffff" offset="1"/>
        </linearGradient>
        <radialGradient gradientTransform="matrix(-8.9976635e-2,-0.5495805,-0.860731,0.2626015,135.04273,6.3041346)" id="radialGradient4441" gradientUnits="userSpaceOnUse" xlink:show="other" xlink:type="simple" r="8.75" cx="64.227074" fx="64.227074" cy="147.99352" fy="147.99352" xlink:actuate="onLoad">
            <stop stop-opacity="1" stop-color="#ffffff" offset="0"/>
            <stop offset="1" stop-color="#d3d7cf"/>
        </radialGradient>
        <radialGradient gradientTransform="matrix(-8.9976635e-2,-0.5495805,-0.860731,0.2626015,142.31654,6.3041346)" id="radialGradient4444" gradientUnits="userSpaceOnUse" xlink:show="other" xlink:type="simple" r="8.75" cx="64.227074" fx="64.227074" cy="147.99352" fy="147.99352" xlink:actuate="onLoad">
            <stop stop-opacity="1" stop-color="#ffffff" offset="0"/>
            <stop offset="1" stop-color="#d3d7cf"/>
        </radialGradient>
        <linearGradient gradientTransform="matrix(-0.4041006,0,0,0.5516364,17.471281,-5.1984221)" id="linearGradient2322" gradientUnits="userSpaceOnUse" xlink:show="other" xlink:type="simple" x1="24.476166" y1="13.658564" x2="23.750401" y2="36" xlink:actuate="onLoad">
            <stop stop-opacity="1" stop-color="#000000" offset="0"/>
            <stop stop-opacity="0.65979379" stop-color="#ffffff" offset="1"/>
        </linearGradient>
        <linearGradient gradientTransform="matrix(-0.4041006,0,0,0.5516364,17.471281,-5.1984221)" id="linearGradient4453" gradientUnits="userSpaceOnUse" xlink:show="other" xlink:type="simple" x1="24.476166" y1="13.658564" y2="36" x2="23.750401" xlink:actuate="onLoad">
            <stop stop-opacity="1" stop-color="#000000" offset="0"/>
            <stop stop-opacity="0.65979379" stop-color="#ffffff" offset="1"/>
        </linearGradient>
        <linearGradient gradientTransform="matrix(-0.4041006,0,0,0.5516364,36.867948,-71.946426)" id="linearGradient4459" gradientUnits="userSpaceOnUse" xlink:show="other" xlink:type="simple" x1="54.988514" y1="156" y2="142.18799" x2="54.896976" xlink:actuate="onLoad">
            <stop stop-opacity="1" stop-color="#adb0a8" offset="0"/>
            <stop stop-opacity="1" stop-color="#464744" offset="1"/>
        </linearGradient>
    </defs>
    <path fill-opacity="1" display="inline" stroke="none" d="M 0.625 1.53125 C 0.26262563 1.5740695 -0.007914303 1.8851904 -7.8635045E-17 2.25 L 0.0 13.84375 C 0.0065693744 14.11416 0.16657725 14.357217 0.41236493 14.470147 C 0.6581526 14.583076 0.94679856 14.546157 1.15625 14.375 L 7.28125 9.375 L 7.28125 13.84375 C 7.2878194 14.11416 7.4478273 14.357217 7.6936154 14.470147 C 7.9394026 14.583076 8.228048 14.546157 8.4375 14.375 L 15.5 8.59375 C 15.66347 8.459208 15.758181 8.258592 15.758181 8.046875 C 15.758181 7.835158 15.66347 7.6345425 15.5 7.5 L 8.4375 1.6875 C 8.223676 1.5128156 7.92783 1.4783106 7.679545 1.5990983 C 7.431259 1.719886 7.275796 1.9739462 7.28125 2.25 L 7.28125 6.71875 L 1.15625 1.6875 C 1.0077076 1.5654825 0.8159496 1.509083 0.625 1.53125 z M 1.40625 3.71875 L 6.65625 8.03125 L 1.40625 12.34375 L 1.40625 3.71875 z M 8.6875 3.71875 L 13.9375 8.03125 L 8.6875 12.34375 L 8.6875 3.71875 z " visibility="visible" stroke-linecap="square" stroke-miterlimit="4" stroke-opacity="1" fill="url(#linearGradient4453)" stroke-dasharray="none" stroke-width="1.41642129" color="#000000" stroke-linejoin="round" stroke-dashoffset="0" fill-rule="evenodd"/>
    <path fill-opacity="1" display="inline" stroke="none" d="M 7.9747553 2.2486691 L 15.046516 8.040852 L 7.9747553 13.833034 L 7.9747553 2.2486691 z " visibility="visible" stroke-linecap="square" stroke-miterlimit="4" stroke-opacity="1" fill="url(#radialGradient4444)" stroke-dasharray="none" stroke-width="1.0000006" color="#000000" stroke-linejoin="miter" stroke-dashoffset="0" fill-rule="evenodd"/>
    <path fill-opacity="1" display="inline" stroke="none" d="M 0.7009445 2.2486691 L 7.772705 8.040852 L 0.7009445 13.833034 L 0.7009445 2.2486691 z " visibility="visible" stroke-linecap="square" stroke-miterlimit="4" stroke-opacity="1" fill="url(#radialGradient4441)" stroke-dasharray="none" stroke-width="1.0000006" color="#000000" stroke-linejoin="miter" stroke-dashoffset="0" fill-rule="evenodd"/>
    <path fill-opacity="0.07027025" display="inline" stroke="none" d="M 0.7009445 2.2486691 L 1.1808139 2.645158 L 0.7009445 2.5762033 L 0.7009445 2.2486691 z M 7.9747553 2.3865783 L 8.164178 2.403817 L 9.767952 3.7139535 L 7.9747553 3.4898512 L 7.9747553 2.3865783 z " visibility="visible" stroke-linecap="round" stroke-miterlimit="4" stroke-opacity="1" fill="url(#linearGradient4438)" stroke-dasharray="none" stroke-width="1" color="#000000" stroke-linejoin="round" stroke-dashoffset="0" fill-rule="evenodd"/>
    <path fill-opacity="1" display="inline" stroke="none" d="M 0.6875 2.0 C 0.65439546 2.003687 0.6224457 2.0143366 0.59375 2.03125 C 0.5134078 2.0739832 0.46477723 2.1590867 0.46875 2.25 L 0.46875 13.84375 C 0.4696836 13.901742 0.4919314 13.957362 0.53125 14.0 C 0.5406667 14.011371 0.55112916 14.021833 0.5625 14.03125 C 0.58166796 14.044709 0.60273194 14.055241 0.625 14.0625 C 0.6559358 14.068767 0.68781424 14.068767 0.71875 14.0625 C 0.76250815 14.063874 0.80578667 14.053055 0.84375 14.03125 L 7.75 8.375 L 7.75 13.84375 C 7.7583346 13.960937 7.851563 14.054165 7.96875 14.0625 C 7.999686 14.068767 8.031564 14.068767 8.0625 14.0625 C 8.084768 14.055241 8.105832 14.044709 8.125 14.03125 L 15.1875 8.21875 C 15.212082 8.202037 15.233287 8.180832 15.25 8.15625 C 15.263459 8.137082 15.273991 8.116018 15.28125 8.09375 C 15.287517 8.062815 15.287517 8.030936 15.28125 8.0 C 15.273991 7.977732 15.263459 7.956668 15.25 7.9375 C 15.242741 7.915232 15.232209 7.894168 15.21875 7.875 C 15.209333 7.86363 15.198871 7.8531666 15.1875 7.84375 L 8.125 2.0625 C 8.096304 2.0455866 8.064354 2.034937 8.03125 2.03125 C 7.9194913 1.9976875 7.799978 2.0508049 7.75 2.15625 C 7.743733 2.1871858 7.743733 2.2190642 7.75 2.25 L 7.75 7.6875 L 0.84375 2.0625 C 0.8245821 2.0490408 0.80351806 2.038509 0.78125 2.03125 C 0.7525543 2.0143366 0.72060454 2.003687 0.6875 2.0 z M 0.9375 2.75 L 7.40625 8.03125 L 0.9375 13.34375 L 0.9375 2.75 z M 8.21875 2.78125 L 14.6875 8.03125 L 8.21875 13.3125 L 8.21875 2.78125 z " visibility="visible" stroke-linecap="square" stroke-miterlimit="4" stroke-opacity="1" fill="url(#linearGradient4459)" stroke-dasharray="none" stroke-width="0.47214073" color="#000000" stroke-linejoin="round" stroke-dashoffset="0" fill-rule="evenodd"/>
    <path fill-opacity="1" display="inline" stroke="none" d="M 8.1768055 2.7313511 L 14.655043 8.040852 L 8.1768055 13.350352 L 8.1768055 2.7313511 z M 0.9029948 2.7313511 L 7.3812327 8.040852 L 0.9029948 13.350352 L 0.9029948 2.7313511 z M 8.580907 3.7139535 L 8.580907 12.36775 L 13.872098 8.040852 L 8.580907 3.7139535 z M 1.3070954 3.7139535 L 1.3070954 12.36775 L 6.5982876 8.040852 L 1.3070954 3.7139535 z " visibility="visible" stroke-linecap="square" stroke-miterlimit="4" stroke-opacity="1" fill="#ffffff" stroke-dasharray="none" stroke-width="3" color="#000000" stroke-linejoin="miter" stroke-dashoffset="0" fill-rule="evenodd"/>
    <path fill-opacity="0.56111109" display="inline" stroke="none" d="M 13.455531 7.6960793 L 8.606324 3.731192 L 8.606324 7.4547377 L 13.455531 7.6960793 z " visibility="visible" stroke-linecap="square" stroke-miterlimit="4" stroke-opacity="1" fill="#ffffff" stroke-dasharray="none" stroke-width="3" color="#000000" stroke-linejoin="round" stroke-dashoffset="0" fill-rule="evenodd"/>
    <path fill-opacity="0.56111109" display="inline" stroke="none" d="M 5.6260824 7.213397 L 1.307257 3.731192 L 1.307257 6.9031014 L 5.6260824 7.213397 z " visibility="visible" stroke-linecap="square" stroke-miterlimit="4" stroke-opacity="1" fill="#ffffff" stroke-dasharray="none" stroke-width="3" color="#000000" stroke-linejoin="round" stroke-dashoffset="0" fill-rule="evenodd"/>
</svg>
