<?xml version="1.0" encoding="UTF-8"?>
<svg xmlns="http://www.w3.org/2000/svg" xmlns:xlink="http://www.w3.org/1999/xlink" contentScriptType="text/ecmascript" width="88" baseProfile="tiny" zoomAndPan="magnify" contentStyleType="text/css" viewBox="0 0 88 88" height="88" preserveAspectRatio="xMidYMid meet" version="1.0">
    <defs>
        <radialGradient gradientTransform="matrix(1,0,0,0.361345,0.9212454,19.533204)" id="radialGradient6423" gradientUnits="userSpaceOnUse" xlink:show="other" xlink:type="simple" r="5.2591065" cx="39.907337" fx="39.907337" cy="31.780704" fy="31.780704" xlink:actuate="onLoad">
            <stop stop-opacity="1" stop-color="#000000" offset="0"/>
            <stop stop-opacity="0" stop-color="#000000" offset="1"/>
        </radialGradient>
        <radialGradient gradientTransform="matrix(10.88255,-6.454846e-8,0,11.39737,-432.67555,-384.14483)" id="radialGradient6413" gradientUnits="userSpaceOnUse" xlink:show="other" xlink:type="simple" r="20.21875" cx="43.875" fx="43.875" cy="35.90107" fy="35.90107" xlink:actuate="onLoad">
            <stop stop-opacity="1" stop-color="#FFFFFF" offset="0"/>
            <stop stop-opacity="0" stop-color="#FFFFFF" offset="1"/>
        </radialGradient>
        <radialGradient gradientTransform="matrix(1.669712,0,1.702451e-8,1.220484,-29.316485,-14.563016)" id="radialGradient6405" gradientUnits="userSpaceOnUse" xlink:show="other" xlink:type="simple" r="21.626934" cx="45.150326" fx="45.150326" cy="35.915409" fy="35.915409" xlink:actuate="onLoad">
            <stop stop-opacity="1" stop-color="#fff27e" offset="0"/>
            <stop stop-opacity="1" stop-color="#edd400" offset="1"/>
        </radialGradient>
        <linearGradient gradientTransform="translate(0.9212454,-2.7637362)" id="linearGradient5615" gradientUnits="userSpaceOnUse" xlink:show="other" xlink:type="simple" x1="26.213203" y1="14.08672" y2="67.031342" x2="26.130388" xlink:actuate="onLoad">
            <stop stop-opacity="1" stop-color="#FFFFFF" offset="0"/>
            <stop stop-opacity="0" stop-color="#FFFFFF" offset="1"/>
        </linearGradient>
        <linearGradient xlink:type="simple" xlink:actuate="onLoad" id="linearGradient2865" xlink:show="other">
            <stop stop-opacity="1" stop-color="#000000" offset="0"/>
            <stop stop-opacity="0" stop-color="#000000" offset="1"/>
        </linearGradient>
        <linearGradient xlink:type="simple" xlink:actuate="onLoad" id="linearGradient5609" xlink:show="other">
            <stop stop-opacity="1" stop-color="#FFFFFF" offset="0"/>
            <stop stop-opacity="0" stop-color="#FFFFFF" offset="1"/>
        </linearGradient>
        <linearGradient xlink:type="simple" xlink:actuate="onLoad" id="linearGradient6377" xlink:show="other">
            <stop stop-opacity="1" stop-color="#fff27e" offset="0"/>
            <stop stop-opacity="1" stop-color="#edd400" offset="1"/>
        </linearGradient>
        <linearGradient xlink:type="simple" xlink:actuate="onLoad" id="linearGradient6407" xlink:show="other">
            <stop stop-opacity="1" stop-color="#FFFFFF" offset="0"/>
            <stop stop-opacity="0" stop-color="#FFFFFF" offset="1"/>
        </linearGradient>
        <linearGradient xlink:type="simple" xlink:actuate="onLoad" id="linearGradient6417" xlink:show="other">
            <stop stop-opacity="1" stop-color="#000000" offset="0"/>
            <stop stop-opacity="0" stop-color="#000000" offset="1"/>
        </linearGradient>
        <radialGradient gradientTransform="matrix(1,0,0,0.348243,0,26.35543)" id="linearGradient2865" gradientUnits="userSpaceOnUse" xlink:show="other" xlink:type="simple" r="19.5625" cx="23.5625" fx="23.5625" cy="40.4375" fy="40.4375" xlink:actuate="onLoad">
            <stop stop-opacity="1" stop-color="#000000" offset="0"/>
            <stop stop-opacity="0" stop-color="#000000" offset="1"/>
        </radialGradient>
        <linearGradient gradientTransform="translate(-5.669292,0)" id="linearGradient2966" gradientUnits="userSpaceOnUse" xlink:show="other" xlink:type="simple" x1="48.90625" y1="17.376184" x2="50.988335" y2="22.250591" xlink:actuate="onLoad">
            <stop stop-opacity="1" stop-color="#ffd1d1" offset="0"/>
            <stop stop-opacity="1" stop-color="#ff1d1d" offset="0.5"/>
            <stop stop-opacity="1" stop-color="#6f0000" offset="1"/>
        </linearGradient>
        <linearGradient xlink:type="simple" xlink:actuate="onLoad" id="linearGradient2966" xlink:show="other">
            <stop stop-opacity="1" stop-color="#ffd1d1" offset="0"/>
            <stop stop-opacity="1" stop-color="#ff1d1d" offset="0.5"/>
            <stop stop-opacity="1" stop-color="#6f0000" offset="1"/>
        </linearGradient>
        <linearGradient gradientTransform="translate(-5.669292,0)" id="linearGradient2974" gradientUnits="userSpaceOnUse" xlink:show="other" xlink:type="simple" x1="46" y1="19.8125" x2="47.6875" y2="22.625" xlink:actuate="onLoad">
            <stop stop-opacity="1" stop-color="#c1c1c1" offset="0"/>
            <stop stop-opacity="1" stop-color="#acacac" offset="1"/>
        </linearGradient>
        <linearGradient xlink:type="simple" xlink:actuate="onLoad" id="linearGradient2974" xlink:show="other">
            <stop stop-opacity="1" stop-color="#c1c1c1" offset="0"/>
            <stop stop-opacity="1" stop-color="#acacac" offset="1"/>
        </linearGradient>
        <radialGradient gradientTransform="matrix(2.923565,0,0,2.029717,-61.55532,-27.88417)" id="linearGradient2984" gradientUnits="userSpaceOnUse" xlink:show="other" xlink:type="simple" r="3.2408544" cx="29.053354" fx="29.053354" cy="27.640751" fy="27.640751" xlink:actuate="onLoad">
            <stop stop-opacity="1" stop-color="#e7e2b8" offset="0"/>
            <stop stop-opacity="0" stop-color="#e7e2b8" offset="1"/>
        </radialGradient>
        <linearGradient xlink:type="simple" xlink:actuate="onLoad" id="linearGradient2984" xlink:show="other">
            <stop stop-opacity="1" stop-color="#e7e2b8" offset="0"/>
            <stop stop-opacity="0" stop-color="#e7e2b8" offset="1"/>
        </linearGradient>
        <linearGradient gradientTransform="translate(-5.825542,0.125)" id="linearGradient2994" gradientUnits="userSpaceOnUse" xlink:show="other" xlink:type="simple" x1="25.71875" y1="31.046875" x2="25.514589" y2="30.703125" xlink:actuate="onLoad">
            <stop stop-opacity="1" stop-color="#000000" offset="0"/>
            <stop stop-opacity="1" stop-color="#c9c9c9" offset="1"/>
        </linearGradient>
        <linearGradient xlink:type="simple" xlink:actuate="onLoad" id="linearGradient2994" xlink:show="other">
            <stop stop-opacity="1" stop-color="#000000" offset="0"/>
            <stop stop-opacity="1" stop-color="#c9c9c9" offset="1"/>
        </linearGradient>
        <linearGradient xlink:type="simple" xlink:actuate="onLoad" id="linearGradient1442" xlink:show="other">
            <stop stop-color="#73d216" offset="0"/>
            <stop stop-color="#4e9a06" offset="1.0000000"/>
        </linearGradient>
        <radialGradient gradientTransform="matrix(1,0,0,0.727811,25.794871,6.5068892)" id="radialGradient2945" gradientUnits="userSpaceOnUse" xlink:show="other" xlink:type="simple" r="21.125" cx="23.625" fx="23.625" cy="34.756092" fy="34.756092" xlink:actuate="onLoad">
            <stop offset="0" stop-color="#73d216"/>
            <stop offset="1.0000000" stop-color="#4e9a06"/>
        </radialGradient>
        <radialGradient gradientTransform="matrix(1,0,0,0.727811,25.794871,6.5068892)" id="radialGradient2955" gradientUnits="userSpaceOnUse" xlink:show="other" xlink:type="simple" r="21.125" cx="23.625" fx="23.625" cy="34.756092" fy="34.756092" xlink:actuate="onLoad">
            <stop offset="0" stop-color="#73d216"/>
            <stop offset="1.0000000" stop-color="#4e9a06"/>
        </radialGradient>
    </defs>
    <g transform="matrix(1.7869012,0,0,1.7869012,-0.8009023,-3.365458)">
        <g transform="matrix(0.211321,0,0,0.209762,0.5944724,0.7597848)" display="inline">
            <path d="M 32.70669 164.36026 C 22.319193 164.36026 13.956693 172.72276 13.956693 183.11026 C 13.956693 193.49776 22.319193 201.86026 32.70669 201.86026 L 205.20668 201.86026 C 215.5942 201.86026 223.95668 193.49776 223.95668 183.11026 C 223.95668 172.72276 215.5942 164.36026 205.20668 164.36026 L 32.70669 164.36026 z " stroke-width="3pt" fill-opacity="0.04787233" fill-rule="evenodd" stroke-opacity="0.04787233"/>
            <path d="M 32.70669 165.61026 C 23.011692 165.61026 15.206693 173.41525 15.206693 183.11026 C 15.206693 192.80527 23.011692 200.61026 32.70669 200.61026 L 205.20668 200.61026 C 214.90169 200.61026 222.70668 192.80527 222.70668 183.11026 C 222.70668 173.41525 214.90169 165.61026 205.20668 165.61026 L 32.70669 165.61026 z " stroke-width="3pt" fill-opacity="0.04787233" fill-rule="evenodd" stroke-opacity="0.04787233"/>
            <path d="M 32.706696 166.86026 C 23.704193 166.86026 16.456694 174.10776 16.456694 183.11026 C 16.456694 192.11276 23.704193 199.36026 32.706696 199.36026 L 205.20668 199.36026 C 214.2092 199.36026 221.45668 192.11276 221.45668 183.11026 C 221.45668 174.10776 214.2092 166.86026 205.20668 166.86026 L 32.706696 166.86026 z " stroke-width="3pt" fill-opacity="0.04787233" fill-rule="evenodd" stroke-opacity="0.04787233"/>
            <path d="M 32.706696 168.11026 C 24.396694 168.11026 17.706694 174.80026 17.706694 183.11026 C 17.706694 191.42026 24.396694 198.11026 32.706696 198.11026 L 205.20668 198.11026 C 213.51668 198.11026 220.20668 191.42026 220.20668 183.11026 C 220.20668 174.80026 213.51668 168.11026 205.20668 168.11026 L 32.706696 168.11026 z " stroke-width="3pt" fill-opacity="0.04787233" fill-rule="evenodd" stroke-opacity="0.04787233"/>
            <path d="M 32.707764 169.36026 C 25.090263 169.36026 18.957764 175.49277 18.957764 183.11026 C 18.957764 190.72775 25.090263 196.86026 32.707764 196.86026 L 205.20618 196.86026 C 212.82368 196.86026 218.95618 190.72775 218.95618 183.11026 C 218.95618 175.49277 212.82368 169.36026 205.20618 169.36026 L 32.707764 169.36026 z " stroke-width="3pt" fill-opacity="0.04787233" fill-rule="evenodd" stroke-opacity="0.04787233"/>
            <path d="M 32.706696 170.61026 C 25.781694 170.61026 20.206694 176.18526 20.206694 183.11026 C 20.206694 190.03526 25.781694 195.61026 32.706696 195.61026 L 205.20668 195.61026 C 212.13168 195.61026 217.70668 190.03526 217.70668 183.11026 C 217.70668 176.18526 212.13168 170.61026 205.20668 170.61026 L 32.706696 170.61026 z " stroke-width="3pt" fill-opacity="0.04787233" fill-rule="evenodd" stroke-opacity="0.04787233"/>
            <path d="M 32.706696 171.86026 C 26.474194 171.86026 21.456694 176.87776 21.456694 183.11026 C 21.456694 189.34276 26.474194 194.36026 32.706696 194.36026 L 205.20668 194.36026 C 211.4392 194.36026 216.45668 189.34276 216.45668 183.11026 C 216.45668 176.87776 211.4392 171.86026 205.20668 171.86026 L 32.706696 171.86026 z " stroke-width="3pt" fill-opacity="0.04787233" fill-rule="evenodd" stroke-opacity="0.04787233"/>
            <path d="M 32.706696 173.11026 C 27.166695 173.11026 22.706694 177.57027 22.706694 183.11026 C 22.706694 188.65025 27.166695 193.11026 32.706696 193.11026 L 205.20668 193.11026 C 210.74667 193.11026 215.20668 188.65025 215.20668 183.11026 C 215.20668 177.57027 210.74667 173.11026 205.20668 173.11026 L 32.706696 173.11026 z " stroke-width="3pt" fill-opacity="0.04787233" fill-rule="evenodd" stroke-opacity="0.04787233"/>
        </g>
        <path fill-opacity="1" display="inline" stroke="#c4a000" d="M 11.222697 11.832271 L 39.87195 12.185824 C 40.63453 12.185824 41.11586 12.76247 41.248444 13.379661 C 41.248444 13.379661 45.649773 33.194805 45.649773 33.194805 C 45.649773 33.194805 45.66223 39.542427 45.66223 39.542427 C 45.66223 40.20381 45.048317 40.736263 44.28574 40.736263 L 6.808909 40.736263 C 6.046332 40.736263 5.432417 40.20381 5.432417 39.542427 L 5.421245 33.37551 L 9.846206 13.026108 C 10.155565 12.364722 10.460121 11.832271 11.222697 11.832271 z " visibility="visible" stroke-linecap="butt" stroke-miterlimit="4" stroke-opacity="1" fill="#edd400" stroke-width="0.99999982" color="#000000" stroke-linejoin="miter" stroke-dashoffset="0" fill-rule="evenodd"/>
        <rect fill-opacity="0.37078654" display="inline" stroke="none" visibility="visible" stroke-linecap="butt" width="39.048077" stroke-miterlimit="4" stroke-opacity="1" fill="#f57900" stroke-dasharray="none" stroke-width="1" color="#000000" height="7.0714951" x="6.0358658" stroke-linejoin="miter" rx="0.67937863" y="33.194172" ry="0.67937863" stroke-dashoffset="0" fill-rule="evenodd"/>
        <path fill-opacity="0.16292138" display="inline" stroke="none" d="M 5.985579 33.768696 C 5.985579 33.768696 6.1364403 33.238365 6.689601 33.19417 L 44.254204 33.19417 C 45.00851 33.19417 45.0588 33.945473 45.0588 33.945473 C 45.0588 33.945473 45.0824 32.325897 43.77493 32.325897 L 7.363044 32.325897 C 6.3572984 32.414288 5.985579 33.10578 5.985579 33.768696 z " visibility="visible" stroke-linecap="butt" stroke-miterlimit="4" stroke-opacity="1" fill="#ffffff" stroke-dasharray="none" stroke-width="1" color="#000000" stroke-linejoin="miter" stroke-dashoffset="0" fill-rule="evenodd"/>
        <path fill-opacity="0.4831461" display="inline" stroke="url(#linearGradient5615)" d="M 11.233745 12.830014 C 11.082429 12.830014 11.134285 12.803271 11.077495 12.861264 C 11.026618 12.913219 10.921684 13.136349 10.796245 13.392514 C 10.781667 13.422286 10.780062 13.422804 10.764995 13.455014 L 6.4212456 33.361263 L 6.4212456 33.423763 L 6.4212456 39.548763 C 6.4212456 39.592834 6.493613 39.736263 6.7962456 39.736263 L 44.296246 39.736263 C 44.598877 39.736263 44.671246 39.592834 44.671246 39.548763 C 44.671246 39.548763 44.640892 33.480618 44.639996 33.298763 C 44.639744 33.297634 44.640423 33.206932 44.639996 33.205013 C 44.5464 32.784176 40.264996 13.611264 40.264996 13.611264 C 40.208443 13.348015 40.09542 13.173764 39.858746 13.173764 L 11.233745 12.830014 z " visibility="visible" stroke-linecap="butt" stroke-miterlimit="4" stroke-opacity="1" fill="none" stroke-width="0.99999982" color="#000000" stroke-linejoin="miter" stroke-dashoffset="0" fill-rule="evenodd"/>
        <path fill-opacity="0.46629214" display="inline" stroke="none" d="M 45.11542 32.91735 C 44.7361 31.662024 44.231537 29.116652 44.231537 29.116652 L 35.304314 32.298634 C 41.049557 32.298634 43.877983 32.033466 45.11542 32.91735 z " visibility="visible" stroke-linecap="round" stroke-miterlimit="4" stroke-opacity="1" fill="url(#radialGradient6423)" stroke-dasharray="none" stroke-width="1" color="#000000" stroke-linejoin="miter" stroke-dashoffset="0" fill-rule="evenodd"/>
        <path stroke-linecap="butt" fill-opacity="1" fill="url(#radialGradient6405)" fill-rule="evenodd" stroke-linejoin="miter" d="M 9.704465 13.662829 L 5.569635 31.692108 C 5.569635 31.692108 27.041243 31.817108 34.84521 31.817108 C 42.82578 31.817108 46.00028 28.848688 46.00028 28.848688 C 46.00028 28.848688 44.993538 28.3952 43.67517 23.881968 C 43.67517 23.881968 41.271385 13.381579 41.271385 13.381579 C 40.807945 12.195178 40.41518 11.71791 39.514996 11.725329 L 11.733745 11.725329 C 9.988471 11.757416 9.997327 12.560881 9.704465 13.662829 z " stroke="#c4a000" stroke-width="0.99999964px" stroke-opacity="1"/>
        <path stroke-linecap="butt" fill-opacity="0.46629214" fill="none" fill-rule="evenodd" stroke-linejoin="miter" d="M 11.733745 12.736264 C 11.093456 12.754494 11.025448 12.836049 10.983745 12.892514 C 10.940374 12.951238 10.833672 13.312602 10.671245 13.923764 L 6.827495 30.705013 C 8.521932 30.714792 27.39814 30.830013 34.858746 30.830013 C 38.725033 30.830013 41.376022 30.115711 43.046246 29.423763 C 44.10032 28.987076 44.15957 28.846737 44.483746 28.611263 C 43.993114 27.82136 43.378704 26.488668 42.702496 24.173763 C 42.701843 24.152937 42.701843 24.132092 42.702496 24.111263 C 42.702496 24.111263 40.39657 14.068915 40.327496 13.767514 C 40.113506 13.219712 39.9456 12.916751 39.858746 12.830014 C 39.771893 12.743277 39.787197 12.734021 39.514996 12.736264 L 11.764995 12.736264 L 11.733745 12.736264 z " stroke="url(#radialGradient6413)" stroke-width="0.99999964px" stroke-opacity="1"/>
        <path fill-opacity="0.26404497" display="inline" stroke="none" d="M 5.985579 35.768696 C 5.985579 35.768696 6.1364403 35.238365 6.689601 35.19417 L 44.254204 35.19417 C 45.00851 35.19417 45.0588 35.945473 45.0588 35.945473 C 45.0588 35.945473 45.0824 34.325897 43.77493 34.325897 L 7.363044 34.325897 C 6.3572984 34.414288 5.985579 35.10578 5.985579 35.768696 z " visibility="visible" stroke-linecap="butt" stroke-miterlimit="4" stroke-opacity="1" fill="#ffffff" stroke-dasharray="none" stroke-width="1" color="#000000" stroke-linejoin="miter" stroke-dashoffset="0" fill-rule="evenodd"/>
        <path fill-opacity="0.26404497" display="inline" stroke="none" d="M 5.985579 37.768696 C 5.985579 37.768696 6.1364403 37.238365 6.689601 37.19417 L 44.254204 37.19417 C 45.00851 37.19417 45.0588 37.945473 45.0588 37.945473 C 45.0588 37.945473 45.0824 36.325897 43.77493 36.325897 L 7.363044 36.325897 C 6.3572984 36.414288 5.985579 37.10578 5.985579 37.768696 z " visibility="visible" stroke-linecap="butt" stroke-miterlimit="4" stroke-opacity="1" fill="#ffffff" stroke-dasharray="none" stroke-width="1" color="#000000" stroke-linejoin="miter" stroke-dashoffset="0" fill-rule="evenodd"/>
        <path fill-opacity="0.26404497" display="inline" stroke="none" d="M 5.985579 39.768696 C 5.985579 39.768696 6.1364403 39.238365 6.689601 39.19417 L 44.254204 39.19417 C 45.00851 39.19417 45.0588 39.945473 45.0588 39.945473 C 45.0588 39.945473 45.0824 38.325897 43.77493 38.325897 L 7.363044 38.325897 C 6.3572984 38.414288 5.985579 39.10578 5.985579 39.768696 z " visibility="visible" stroke-linecap="butt" stroke-miterlimit="4" stroke-opacity="1" fill="#ffffff" stroke-dasharray="none" stroke-width="1" color="#000000" stroke-linejoin="miter" stroke-dashoffset="0" fill-rule="evenodd"/>
        <path stroke-linecap="butt" fill="none" fill-rule="evenodd" stroke-linejoin="miter" d="M 20.634832 15.938401 L 37.93154 15.938401 " stroke="#555753" stroke-width="0.64364839px" stroke-opacity="1"/>
        <path stroke-linecap="butt" fill="none" fill-rule="evenodd" stroke-linejoin="miter" d="M 19.202005 20.049973 L 39.36437 20.049973 " stroke="#555753" stroke-width="0.65592968px" stroke-opacity="1"/>
        <path stroke-linecap="butt" fill="none" fill-rule="evenodd" stroke-linejoin="miter" d="M 18.463146 23.835487 L 40.10323 23.835487 " stroke="#555753" stroke-width="0.7919721px" stroke-opacity="1"/>
        <g transform="translate(-2.7413964,-6.1488773)">
            <g transform="matrix(0.1611424,0,0,0.1251914,9.6830047,19.435738)">
                <path stroke-linecap="butt" fill-opacity="1" fill="url(#radialGradient2945)" fill-rule="evenodd" stroke-linejoin="round" d="M 30.044872 21.677748 L 37.544872 14.677747 L 46.044872 23.052748 L 63.294872 7.5527472 L 70.79487 14.302747 L 46.169872 37.30275 L 30.044872 21.677748 z " stroke="#3a7304" stroke-width="1px" stroke-opacity="1"/>
                <path stroke-linecap="butt" fill-opacity="0.5" fill="none" fill-rule="evenodd" stroke-linejoin="miter" d="M 31.473032 21.708548 L 37.532356 16.065243 L 46.053513 24.395824 L 63.28529 8.909442 L 69.34462 14.325741 L 46.16498 35.946053 L 31.473032 21.708548 z " stroke="#ffffff" stroke-width="1px" stroke-opacity="1"/>
            </g>
        </g>
        <g transform="matrix(1.0953059,0,0,1.0953059,-5.1755795,-4.2153341)">
            <g transform="matrix(0.1611424,0,0,0.1251914,9.6830047,19.435738)">
                <path stroke-linecap="butt" fill-opacity="1" fill="url(#radialGradient2955)" fill-rule="evenodd" stroke-linejoin="round" d="M 30.044872 21.677748 L 37.544872 14.677747 L 46.044872 23.052748 L 63.294872 7.5527472 L 70.79487 14.302747 L 46.169872 37.30275 L 30.044872 21.677748 z " stroke="#3a7304" stroke-width="1px" stroke-opacity="1"/>
                <path stroke-linecap="butt" fill-opacity="0.5" fill="none" fill-rule="evenodd" stroke-linejoin="miter" d="M 31.473032 21.708548 L 37.532356 16.065243 L 46.053513 24.395824 L 63.28529 8.909442 L 69.34462 14.325741 L 46.16498 35.946053 L 31.473032 21.708548 z " stroke="#ffffff" stroke-width="1px" stroke-opacity="1"/>
            </g>
        </g>
        <path stroke-linecap="butt" fill="none" fill-rule="evenodd" stroke-linejoin="miter" d="M 16.675694 27.717327 L 41.337933 27.717327 " stroke="#555753" stroke-width="0.67150784px" stroke-opacity="1"/>
    </g>
</svg>
