<?xml version="1.0" encoding="UTF-8"?>
<svg xmlns="http://www.w3.org/2000/svg" xmlns:xlink="http://www.w3.org/1999/xlink" contentScriptType="text/ecmascript" width="16" baseProfile="tiny" zoomAndPan="magnify" contentStyleType="text/css" viewBox="0 0 16 16" height="16" preserveAspectRatio="xMidYMid meet" version="1.0">
    <defs>
        <linearGradient xlink:type="simple" xlink:actuate="onLoad" xlink:show="other">
            <stop stop-opacity="1" stop-color="#000000" offset="0"/>
            <stop stop-opacity="0.65979379" stop-color="#ffffff" offset="1"/>
        </linearGradient>
        <linearGradient xlink:type="simple" xlink:actuate="onLoad" xlink:show="other">
            <stop stop-opacity="1" stop-color="#000000" offset="0"/>
            <stop stop-opacity="0" stop-color="#ffffff" offset="1"/>
        </linearGradient>
        <linearGradient xlink:type="simple" xlink:actuate="onLoad" xlink:show="other">
            <stop stop-opacity="1" stop-color="#adb0a8" offset="0"/>
            <stop stop-opacity="1" stop-color="#464744" offset="1"/>
        </linearGradient>
        <linearGradient xlink:type="simple" xlink:actuate="onLoad" xlink:show="other">
            <stop stop-opacity="1" stop-color="#ffffff" offset="0"/>
            <stop stop-color="#d3d7cf" offset="1"/>
        </linearGradient>
        <linearGradient xlink:type="simple" xlink:actuate="onLoad" xlink:show="other">
            <stop stop-opacity="1" stop-color="#ffffff" offset="0"/>
            <stop stop-opacity="0" stop-color="#eeeeec" offset="1"/>
        </linearGradient>
        <linearGradient xlink:type="simple" xlink:actuate="onLoad" xlink:show="other">
            <stop stop-opacity="1" stop-color="#000000" offset="0"/>
            <stop stop-opacity="0" stop-color="#000000" offset="1"/>
        </linearGradient>
        <radialGradient gradientTransform="matrix(1,0,0,0.536723,4.095103e-13,16.87306)" gradientUnits="userSpaceOnUse" xlink:type="simple" r="15.644737" xlink:actuate="onLoad" cx="24.837126" cy="36.421127" xlink:show="other" fx="24.837126" fy="36.421127">
            <stop stop-opacity="1" stop-color="#000000" offset="0"/>
            <stop stop-opacity="0" stop-color="#000000" offset="1"/>
        </radialGradient>
        <linearGradient x1="54.988514" gradientTransform="translate(-47.9996,-121)" y1="156" x2="54.896976" gradientUnits="userSpaceOnUse" y2="142.18799" xlink:type="simple" xlink:actuate="onLoad" xlink:show="other">
            <stop stop-opacity="1" stop-color="#adb0a8" offset="0"/>
            <stop stop-opacity="1" stop-color="#464744" offset="1"/>
        </linearGradient>
        <linearGradient x1="49.430401" gradientTransform="translate(-44.99051,-97.26213)" y1="112.94963" x2="49.667324" gradientUnits="userSpaceOnUse" y2="115.13713" xlink:type="simple" xlink:actuate="onLoad" xlink:show="other">
            <stop stop-opacity="1" stop-color="#000000" offset="0"/>
            <stop stop-opacity="0" stop-color="#ffffff" offset="1"/>
        </linearGradient>
        <radialGradient gradientTransform="matrix(0.222659,-0.996273,2.129992,0.476041,-290.946,20.8517)" gradientUnits="userSpaceOnUse" xlink:type="simple" r="8.75" xlink:actuate="onLoad" cx="64.227074" cy="147.99352" xlink:show="other" fx="64.227074" fy="147.99352">
            <stop stop-opacity="1" stop-color="#ffffff" offset="0"/>
            <stop stop-color="#d3d7cf" offset="1"/>
        </radialGradient>
        <radialGradient gradientTransform="matrix(0.222659,-0.996273,2.129992,0.476041,-308.946,20.8517)" gradientUnits="userSpaceOnUse" xlink:type="simple" r="8.75" xlink:actuate="onLoad" cx="64.227074" cy="147.99352" xlink:show="other" fx="64.227074" fy="147.99352">
            <stop stop-opacity="1" stop-color="#ffffff" offset="0"/>
            <stop stop-color="#d3d7cf" offset="1"/>
        </radialGradient>
        <linearGradient x1="24.476166" y1="13.658564" x2="23.750401" gradientUnits="userSpaceOnUse" y2="36" xlink:type="simple" xlink:actuate="onLoad" xlink:show="other">
            <stop stop-opacity="1" stop-color="#000000" offset="0"/>
            <stop stop-opacity="0.65979379" stop-color="#ffffff" offset="1"/>
        </linearGradient>
        <linearGradient x1="54.988514" gradientTransform="matrix(-0.4041006,0,0,0.5516364,36.867948,-71.946426)" y1="156" x2="54.896976" gradientUnits="userSpaceOnUse" y2="142.18799" xlink:type="simple" xlink:actuate="onLoad" xlink:show="other">
            <stop stop-opacity="1" stop-color="#adb0a8" offset="0"/>
            <stop stop-opacity="1" stop-color="#464744" offset="1"/>
        </linearGradient>
        <linearGradient x1="49.430401" gradientTransform="matrix(0.4041006,0,0,0.5516364,-19.893961,-58.851753)" y1="112.94963" x2="49.667324" gradientUnits="userSpaceOnUse" y2="115.13713" xlink:type="simple" xlink:actuate="onLoad" id="linearGradient4438" xlink:show="other">
            <stop stop-opacity="1" stop-color="#000000" offset="0"/>
            <stop stop-opacity="0" stop-color="#ffffff" offset="1"/>
        </linearGradient>
        <radialGradient gradientTransform="matrix(8.9976635e-2,-0.5495805,0.860731,0.2626015,-119.28472,6.3041346)" id="radialGradient4441" gradientUnits="userSpaceOnUse" xlink:show="other" xlink:type="simple" r="8.75" cx="64.227074" fx="64.227074" cy="147.99352" fy="147.99352" xlink:actuate="onLoad">
            <stop stop-opacity="1" stop-color="#ffffff" offset="0"/>
            <stop stop-color="#d3d7cf" offset="1"/>
        </radialGradient>
        <radialGradient gradientTransform="matrix(8.9976635e-2,-0.5495805,0.860731,0.2626015,-126.55853,6.3041346)" id="radialGradient4444" gradientUnits="userSpaceOnUse" xlink:show="other" xlink:type="simple" r="8.75" cx="64.227074" fx="64.227074" cy="147.99352" fy="147.99352" xlink:actuate="onLoad">
            <stop stop-opacity="1" stop-color="#ffffff" offset="0"/>
            <stop stop-color="#d3d7cf" offset="1"/>
        </radialGradient>
        <linearGradient x1="24.476166" gradientTransform="matrix(-0.4041006,0,0,0.5516364,17.471281,-5.1984221)" y1="13.658564" x2="23.750401" gradientUnits="userSpaceOnUse" y2="36" xlink:type="simple" xlink:actuate="onLoad" xlink:show="other">
            <stop stop-opacity="1" stop-color="#000000" offset="0"/>
            <stop stop-opacity="0.65979379" stop-color="#ffffff" offset="1"/>
        </linearGradient>
        <linearGradient x1="24.476166" gradientTransform="matrix(0.4041006,0,0,0.5516364,-1.7132692,-5.1984221)" y1="13.658564" x2="23.750401" gradientUnits="userSpaceOnUse" y2="36" xlink:type="simple" xlink:actuate="onLoad" id="linearGradient4453" xlink:show="other">
            <stop stop-opacity="1" stop-color="#000000" offset="0"/>
            <stop stop-opacity="0.65979379" stop-color="#ffffff" offset="1"/>
        </linearGradient>
        <linearGradient x1="54.988514" gradientTransform="matrix(0.4041006,0,0,0.5516364,-21.109936,-71.946426)" y1="156" x2="54.896976" gradientUnits="userSpaceOnUse" y2="142.18799" xlink:type="simple" xlink:actuate="onLoad" id="linearGradient4459" xlink:show="other">
            <stop stop-opacity="1" stop-color="#adb0a8" offset="0"/>
            <stop stop-opacity="1" stop-color="#464744" offset="1"/>
        </linearGradient>
    </defs>
    <g>
        <path fill-opacity="1" display="inline" stroke="none" d="M 15.133012 1.53125 C 15.495386 1.5740695 15.765926 1.8851904 15.758012 2.25 L 15.758012 13.84375 C 15.751442 14.11416 15.591435 14.357217 15.345647 14.470147 C 15.099859 14.583076 14.811213 14.546157 14.601762 14.375 L 8.476762 9.375 L 8.476762 13.84375 C 8.470193 14.11416 8.3101845 14.357217 8.064397 14.470147 C 7.8186097 14.583076 7.529964 14.546157 7.320512 14.375 L 0.25801176 8.59375 C 0.09454175 8.459208 -1.6924634E-4 8.258592 -1.6924634E-4 8.046875 C -1.6924634E-4 7.835158 0.09454175 7.6345425 0.25801176 7.5 L 7.320512 1.6875 C 7.534336 1.5128156 7.8301816 1.4783106 8.078467 1.5990983 C 8.326753 1.719886 8.482216 1.9739462 8.476762 2.25 L 8.476762 6.71875 L 14.601762 1.6875 C 14.750304 1.5654825 14.942062 1.509083 15.133012 1.53125 z M 14.351762 3.71875 L 9.101762 8.03125 L 14.351762 12.34375 L 14.351762 3.71875 z M 7.070512 3.71875 L 1.8205118 8.03125 L 7.070512 12.34375 L 7.070512 3.71875 z " visibility="visible" stroke-linecap="square" stroke-miterlimit="4" stroke-opacity="1" fill="url(#linearGradient4453)" stroke-dasharray="none" stroke-width="1.41642129" color="#000000" stroke-linejoin="round" stroke-dashoffset="0" fill-rule="evenodd"/>
        <path fill-opacity="1" display="inline" stroke="none" d="M 7.783257 2.2486691 L 0.71149576 8.040852 L 7.783257 13.833034 L 7.783257 2.2486691 z " visibility="visible" stroke-linecap="square" stroke-miterlimit="4" stroke-opacity="1" fill="url(#radialGradient4444)" stroke-dasharray="none" stroke-width="1.0000006" color="#000000" stroke-linejoin="miter" stroke-dashoffset="0" fill-rule="evenodd"/>
        <path fill-opacity="1" display="inline" stroke="none" d="M 15.057067 2.2486691 L 7.985307 8.040852 L 15.057067 13.833034 L 15.057067 2.2486691 z " visibility="visible" stroke-linecap="square" stroke-miterlimit="4" stroke-opacity="1" fill="url(#radialGradient4441)" stroke-dasharray="none" stroke-width="1.0000006" color="#000000" stroke-linejoin="miter" stroke-dashoffset="0" fill-rule="evenodd"/>
        <path fill-opacity="0.07027025" display="inline" stroke="none" d="M 15.057067 2.2486691 L 14.577198 2.645158 L 15.057067 2.576203 L 15.057067 2.2486691 z M 7.783257 2.3865783 L 7.5938334 2.403817 L 5.99006 3.7139535 L 7.783257 3.4898512 L 7.783257 2.3865783 z " visibility="visible" stroke-linecap="round" stroke-miterlimit="4" stroke-opacity="1" fill="url(#linearGradient4438)" stroke-dasharray="none" stroke-width="1" color="#000000" stroke-linejoin="round" stroke-dashoffset="0" fill-rule="evenodd"/>
        <path fill-opacity="1" display="inline" stroke="none" d="M 15.070512 2.0 C 15.103616 2.003687 15.135566 2.0143366 15.164262 2.03125 C 15.244604 2.0739832 15.293235 2.1590867 15.289262 2.25 L 15.289262 13.84375 C 15.288328 13.901742 15.26608 13.957362 15.226762 14.0 C 15.217345 14.011371 15.206883 14.021833 15.195512 14.03125 C 15.176344 14.044709 15.15528 14.055241 15.133012 14.0625 C 15.102076 14.068767 15.070198 14.068767 15.039262 14.0625 C 14.995504 14.063874 14.952225 14.053055 14.914262 14.03125 L 8.008012 8.375 L 8.008012 13.84375 C 7.9996777 13.960937 7.906449 14.054165 7.789262 14.0625 C 7.7583256 14.068767 7.726448 14.068767 7.695512 14.0625 C 7.673244 14.055241 7.65218 14.044709 7.633012 14.03125 L 0.57051176 8.21875 C 0.5459298 8.202037 0.5247248 8.180832 0.50801176 8.15625 C 0.49455276 8.137082 0.48402077 8.116018 0.47676176 8.09375 C 0.47049475 8.062815 0.47049475 8.030936 0.47676176 8.0 C 0.48402077 7.977732 0.49455276 7.956668 0.50801176 7.9375 C 0.51527077 7.915232 0.52580273 7.894168 0.53926176 7.875 C 0.54867876 7.86363 0.55914074 7.8531666 0.57051176 7.84375 L 7.633012 2.0625 C 7.661708 2.0455866 7.6936574 2.034937 7.726762 2.03125 C 7.838521 1.9976876 7.9580336 2.0508049 8.008012 2.15625 C 8.014279 2.1871858 8.014279 2.2190642 8.008012 2.25 L 8.008012 7.6875 L 14.914262 2.0625 C 14.93343 2.0490408 14.954494 2.038509 14.976762 2.03125 C 15.005457 2.0143366 15.037407 2.003687 15.070512 2.0 z M 14.820512 2.75 L 8.351762 8.03125 L 14.820512 13.34375 L 14.820512 2.75 z M 7.539262 2.78125 L 1.0705118 8.03125 L 7.539262 13.3125 L 7.539262 2.78125 z " visibility="visible" stroke-linecap="square" stroke-miterlimit="4" stroke-opacity="1" fill="url(#linearGradient4459)" stroke-dasharray="none" stroke-width="0.47214073" color="#000000" stroke-linejoin="round" stroke-dashoffset="0" fill-rule="evenodd"/>
        <path fill-opacity="1" display="inline" stroke="none" d="M 7.5812063 2.7313511 L 1.1029688 8.040852 L 7.5812063 13.350352 L 7.5812063 2.7313511 z M 14.855017 2.7313511 L 8.37678 8.040852 L 14.855017 13.350352 L 14.855017 2.7313511 z M 7.177105 3.7139535 L 7.177105 12.36775 L 1.8859138 8.040852 L 7.177105 3.7139535 z M 14.450916 3.7139535 L 14.450916 12.36775 L 9.159724 8.040852 L 14.450916 3.7139535 z " visibility="visible" stroke-linecap="square" stroke-miterlimit="4" stroke-opacity="1" fill="#ffffff" stroke-dasharray="none" stroke-width="3" color="#000000" stroke-linejoin="miter" stroke-dashoffset="0" fill-rule="evenodd"/>
        <path fill-opacity="0.56111109" display="inline" stroke="none" d="M 2.3024807 7.6960793 L 7.151688 3.731192 L 7.151688 7.4547377 L 2.3024807 7.6960793 z " visibility="visible" stroke-linecap="square" stroke-miterlimit="4" stroke-opacity="1" fill="#ffffff" stroke-dasharray="none" stroke-width="3" color="#000000" stroke-linejoin="round" stroke-dashoffset="0" fill-rule="evenodd"/>
        <path fill-opacity="0.56111109" display="inline" stroke="none" d="M 10.131929 7.213397 L 14.450755 3.731192 L 14.450755 6.9031014 L 10.131929 7.213397 z " visibility="visible" stroke-linecap="square" stroke-miterlimit="4" stroke-opacity="1" fill="#ffffff" stroke-dasharray="none" stroke-width="3" color="#000000" stroke-linejoin="round" stroke-dashoffset="0" fill-rule="evenodd"/>
    </g>
</svg>
