<?xml version="1.0" encoding="UTF-8"?>
<svg xmlns="http://www.w3.org/2000/svg" xmlns:xlink="http://www.w3.org/1999/xlink" contentScriptType="text/ecmascript" width="60" baseProfile="tiny" zoomAndPan="magnify" contentStyleType="text/css" viewBox="0 0 60 80" height="80" preserveAspectRatio="xMidYMid meet" version="1.1">
    <defs>
        <radialGradient gradientTransform="matrix(-2.774389,0,0,1.969706,112.7623,-872.8854)" id="radialGradient5031" gradientUnits="userSpaceOnUse" xlink:show="other" xlink:type="simple" r="117.14286" cx="605.71429" fx="605.71429" cy="486.64789" fy="486.64789" xlink:actuate="onLoad">
            <stop stop-opacity="1" stop-color="#000000" offset="0"/>
            <stop stop-opacity="0" stop-color="#000000" offset="1"/>
        </radialGradient>
        <linearGradient xlink:type="simple" xlink:actuate="onLoad" xlink:show="other">
            <stop stop-opacity="1" stop-color="#000000" offset="0"/>
            <stop stop-opacity="0" stop-color="#000000" offset="1"/>
        </linearGradient>
        <radialGradient gradientTransform="matrix(2.774389,0,0,1.969706,-1891.633,-872.8854)" id="radialGradient5029" gradientUnits="userSpaceOnUse" xlink:show="other" xlink:type="simple" r="117.14286" cx="605.71429" fx="605.71429" cy="486.64789" fy="486.64789" xlink:actuate="onLoad">
            <stop stop-opacity="1" stop-color="#000000" offset="0"/>
            <stop stop-opacity="0" stop-color="#000000" offset="1"/>
        </radialGradient>
        <linearGradient xlink:type="simple" xlink:actuate="onLoad" xlink:show="other">
            <stop stop-opacity="0" stop-color="#000000" offset="0"/>
            <stop stop-opacity="1" stop-color="#000000" offset="0.5"/>
            <stop stop-opacity="0" stop-color="#000000" offset="1"/>
        </linearGradient>
        <linearGradient x1="302.85715" gradientTransform="matrix(2.774389,0,0,1.969706,-1892.179,-872.8854)" y1="366.64789" x2="302.85715" gradientUnits="userSpaceOnUse" y2="609.50507" xlink:type="simple" xlink:actuate="onLoad" id="linearGradient5027" xlink:show="other">
            <stop stop-opacity="0" stop-color="#000000" offset="0"/>
            <stop stop-opacity="1" stop-color="#000000" offset="0.5"/>
            <stop stop-opacity="0" stop-color="#000000" offset="1"/>
        </linearGradient>
        <linearGradient xlink:type="simple" xlink:actuate="onLoad" xlink:show="other">
            <stop stop-opacity="0.12871288" stop-color="#000000" offset="0.0000000"/>
            <stop stop-opacity="0.0000000" stop-color="#000000" offset="1.0000000"/>
        </linearGradient>
        <linearGradient xlink:type="simple" xlink:actuate="onLoad" xlink:show="other">
            <stop stop-opacity="1" stop-color="#ffffff" offset="0"/>
            <stop stop-opacity="1.0000000" stop-color="#ededed" offset="1.0000000"/>
        </linearGradient>
        <linearGradient xlink:type="simple" xlink:actuate="onLoad" xlink:show="other">
            <stop stop-opacity="1.0000000" stop-color="#9aa29a" offset="0.0000000"/>
            <stop stop-opacity="1.0000000" stop-color="#b5beb5" offset="1.0000000"/>
        </linearGradient>
        <linearGradient xlink:type="simple" xlink:actuate="onLoad" xlink:show="other">
            <stop stop-opacity="1" stop-color="#ffffff" offset="0"/>
            <stop stop-opacity="1.0000000" stop-color="#dcdcdc" offset="1.0000000"/>
        </linearGradient>
        <linearGradient xlink:type="simple" xlink:actuate="onLoad" xlink:show="other">
            <stop stop-opacity="1.0000000" stop-color="#ededed" offset="0.0000000"/>
            <stop stop-opacity="1.0000000" stop-color="#c8c8c8" offset="1.0000000"/>
        </linearGradient>
        <linearGradient xlink:type="simple" xlink:actuate="onLoad" xlink:show="other">
            <stop stop-opacity="1.0000000" stop-color="#989690" offset="0.0000000"/>
            <stop stop-opacity="1.0000000" stop-color="#656460" offset="1.0000000"/>
        </linearGradient>
        <linearGradient xlink:type="simple" xlink:actuate="onLoad" xlink:show="other">
            <stop stop-opacity="1.0000000" stop-color="#ffffff" offset="0.0000000"/>
            <stop stop-opacity="1.0000000" stop-color="#e2e2e2" offset="1.0000000"/>
        </linearGradient>
        <linearGradient xlink:type="simple" xlink:actuate="onLoad" xlink:show="other">
            <stop stop-opacity="1" stop-color="#000000" offset="0"/>
            <stop stop-opacity="0" stop-color="#000000" offset="1"/>
        </linearGradient>
        <radialGradient gradientTransform="scale(1.902215,0.525703)" gradientUnits="userSpaceOnUse" xlink:type="simple" r="7.2284161" xlink:actuate="onLoad" cx="6.7027131" cy="73.615714" xlink:show="other" fx="6.7027131" fy="73.615714">
            <stop stop-opacity="1" stop-color="#000000" offset="0"/>
            <stop stop-opacity="0" stop-color="#000000" offset="1"/>
        </radialGradient>
        <linearGradient x1="8.7803760" gradientTransform="matrix(2.3949,0,0,0.781058,2.879512,0.3430054)" y1="37.784682" x2="9.7619219" gradientUnits="userSpaceOnUse" y2="32.203162" xlink:type="simple" xlink:actuate="onLoad" id="linearGradient27463" xlink:show="other">
            <stop stop-opacity="0.12871288" stop-color="#000000" offset="0.0000000"/>
            <stop stop-opacity="0.0000000" stop-color="#000000" offset="1.0000000"/>
        </linearGradient>
        <linearGradient x1="11.233107" gradientTransform="matrix(1.370928,0,0,1.443758,2.431133,-0.140786)" y1="13.686079" x2="21.111549" gradientUnits="userSpaceOnUse" y2="24.132717" xlink:type="simple" xlink:actuate="onLoad" id="linearGradient27468" xlink:show="other">
            <stop stop-opacity="1" stop-color="#ffffff" offset="0"/>
            <stop stop-opacity="1.0000000" stop-color="#ededed" offset="1.0000000"/>
        </linearGradient>
        <linearGradient x1="8.9156475" gradientTransform="matrix(2.454781,0,0,0.762004,2.879512,0.343005)" y1="37.197018" x2="9.8855033" gradientUnits="userSpaceOnUse" y2="52.090678" xlink:type="simple" xlink:actuate="onLoad" id="linearGradient27471" xlink:show="other">
            <stop stop-opacity="1.0000000" stop-color="#9aa29a" offset="0.0000000"/>
            <stop stop-opacity="1.0000000" stop-color="#b5beb5" offset="1.0000000"/>
        </linearGradient>
        <linearGradient x1="8.9156475" gradientTransform="matrix(2.454781,0,0,0.762004,2.879512,0.343005)" y1="37.197018" x2="9.8855033" gradientUnits="userSpaceOnUse" y2="52.090678" xlink:type="simple" xlink:actuate="onLoad" id="linearGradient27474" xlink:show="other">
            <stop stop-opacity="1.0000000" stop-color="#9aa29a" offset="0.0000000"/>
            <stop stop-opacity="1.0000000" stop-color="#b5beb5" offset="1.0000000"/>
        </linearGradient>
        <linearGradient x1="10.184240" gradientTransform="matrix(1.819266,0,0,1.028193,2.879512,0.343005)" y1="15.148383" x2="15.310744" gradientUnits="userSpaceOnUse" y2="29.568739" xlink:type="simple" xlink:actuate="onLoad" id="linearGradient27477" xlink:show="other">
            <stop stop-opacity="1" stop-color="#ffffff" offset="0"/>
            <stop stop-opacity="1.0000000" stop-color="#dcdcdc" offset="1.0000000"/>
        </linearGradient>
        <linearGradient x1="5.8266134" gradientTransform="matrix(1.570607,0,0,1.190976,2.879512,0.343005)" y1="7.2310905" x2="13.467486" gradientUnits="userSpaceOnUse" y2="17.876846" xlink:type="simple" xlink:actuate="onLoad" id="linearGradient27483" xlink:show="other">
            <stop stop-opacity="1.0000000" stop-color="#ededed" offset="0.0000000"/>
            <stop stop-opacity="1.0000000" stop-color="#c8c8c8" offset="1.0000000"/>
        </linearGradient>
        <linearGradient x1="11.572842" gradientTransform="matrix(1.343475,0,0,1.417854,2.879511,0.314599)" y1="4.7461626" x2="18.475286" gradientUnits="userSpaceOnUse" y2="26.022910" xlink:type="simple" xlink:actuate="onLoad" id="linearGradient27486" xlink:show="other">
            <stop stop-opacity="1.0000000" stop-color="#ffffff" offset="0.0000000"/>
            <stop stop-opacity="1.0000000" stop-color="#e2e2e2" offset="1.0000000"/>
        </linearGradient>
        <linearGradient x1="2.0618774" gradientTransform="matrix(1.343475,0,0,1.417854,2.879511,0.314599)" y1="15.257116" x2="30.599684" gradientUnits="userSpaceOnUse" y2="15.257116" xlink:type="simple" xlink:actuate="onLoad" id="linearGradient27488" xlink:show="other">
            <stop stop-opacity="1.0000000" stop-color="#989690" offset="0.0000000"/>
            <stop stop-opacity="1.0000000" stop-color="#656460" offset="1.0000000"/>
        </linearGradient>
        <linearGradient xlink:type="simple" xlink:actuate="onLoad" xlink:show="other">
            <stop stop-opacity="1.0000000" stop-color="#ffffff" offset="0.0000000"/>
            <stop stop-opacity="0.89108908" stop-color="#fff520" offset="0.50000000"/>
            <stop stop-opacity="0.0000000" stop-color="#fff300" offset="1.0000000"/>
        </linearGradient>
        <radialGradient gradientUnits="userSpaceOnUse" xlink:type="simple" r="14.375000" xlink:actuate="onLoad" cx="55.000000" id="radialGradient1558" cy="125.00000" xlink:show="other" fx="55.000000" fy="125.00000">
            <stop stop-opacity="1.0000000" stop-color="#ffffff" offset="0.0000000"/>
            <stop stop-opacity="0.89108908" stop-color="#fff520" offset="0.50000000"/>
            <stop stop-opacity="0.0000000" stop-color="#fff300" offset="1.0000000"/>
        </radialGradient>
        <linearGradient gradientTransform="matrix(1.343475,0,0,1.417854,-47.845974,0.314599)" id="linearGradient27488" gradientUnits="userSpaceOnUse" xlink:show="other" xlink:type="simple" x1="2.0618774" y1="15.257116" x2="30.599684" y2="15.257116" xlink:actuate="onLoad">
            <stop stop-opacity="1.0000000" stop-color="#989690" offset="0.0000000"/>
            <stop stop-opacity="1.0000000" stop-color="#656460" offset="1.0000000"/>
        </linearGradient>
        <linearGradient gradientTransform="matrix(1.370928,0,0,1.443758,2.431133,-0.140786)" id="linearGradient3321" gradientUnits="userSpaceOnUse" xlink:show="other" xlink:type="simple" x1="11.233107" y1="13.686079" y2="24.132717" x2="21.111549" xlink:actuate="onLoad">
            <stop stop-opacity="1" stop-color="#ffffff" offset="0"/>
            <stop stop-opacity="1.0000000" stop-color="#ededed" offset="1.0000000"/>
        </linearGradient>
        <linearGradient gradientTransform="matrix(1.343475,0,0,1.417854,2.8795108,0.314599)" id="linearGradient3327" gradientUnits="userSpaceOnUse" xlink:show="other" xlink:type="simple" x1="2.0618774" y1="15.257116" y2="15.257116" x2="30.599684" xlink:actuate="onLoad">
            <stop stop-opacity="1.0000000" stop-color="#989690" offset="0.0000000"/>
            <stop stop-opacity="1.0000000" stop-color="#656460" offset="1.0000000"/>
        </linearGradient>
    </defs>
    <g transform="matrix(1.1828374,0,0,1.1828374,0.9907982,16.231891)">
        <g transform="matrix(2.312904e-2,0,0,1.485743e-2,45.32054,39.61432)" display="inline">
            <rect fill-opacity="0.40206185" display="inline" stroke="none" visibility="visible" stroke-linecap="round" width="1339.6335" stroke-miterlimit="4" stroke-opacity="1" fill="url(#linearGradient5027)" stroke-dasharray="none" stroke-width="1" color="#000000" height="478.35718" x="-1559.2523" stroke-linejoin="miter" y="-150.69685" stroke-dashoffset="0" fill-rule="nonzero"/>
            <path fill-opacity="0.40206185" display="inline" stroke="none" d="M -219.61876 -150.68037 C -219.61876 -150.68037 -219.61876 327.6504 -219.61876 327.6504 C -76.74459 328.55087 125.78146 220.48076 125.78138 88.45424 C 125.78138 -43.572304 -33.655437 -150.68036 -219.61876 -150.68037 z " visibility="visible" stroke-linecap="round" stroke-miterlimit="4" stroke-opacity="1" fill="url(#radialGradient5029)" stroke-dasharray="none" stroke-width="1" color="#000000" stroke-linejoin="miter" stroke-dashoffset="0" fill-rule="nonzero"/>
            <path fill-opacity="0.40206185" display="inline" stroke="none" d="M -1559.2523 -150.68037 C -1559.2523 -150.68037 -1559.2523 327.6504 -1559.2523 327.6504 C -1702.1263 328.55087 -1904.6523 220.48076 -1904.6523 88.45424 C -1904.6523 -43.572304 -1745.2156 -150.68036 -1559.2523 -150.68037 z " visibility="visible" stroke-linecap="round" stroke-miterlimit="4" stroke-opacity="1" fill="url(#radialGradient5031)" stroke-dasharray="none" stroke-width="1" color="#000000" stroke-linejoin="miter" stroke-dashoffset="0" fill-rule="nonzero"/>
        </g>
        <path stroke-linecap="butt" fill-opacity="1" fill="url(#linearGradient27486)" fill-rule="evenodd" stroke-linejoin="round" stroke-dasharray="none" d="M 6.33344 16.972252 L 6.33344 41.4818 L 43.305557 41.4818 L 43.2445 17.08986 C 43.24105 15.712272 31.396 2.412111 29.210876 2.412111 L 20.659391 2.412111 C 18.362072 2.412111 6.33344 15.673953 6.33344 16.972252 z " stroke="none" stroke-width="0.58868754" stroke-opacity="1" stroke-miterlimit="4"/>
        <path stroke-linecap="butt" fill-opacity="1" fill="url(#linearGradient27483)" fill-rule="evenodd" stroke-linejoin="miter" d="M 6.923061 16.787104 C 6.5250225 16.356976 18.809963 3.0935378 20.66721 3.0935378 L 29.042965 3.0935378 C 30.790447 3.0935378 43.079567 16.221603 42.47008 16.978956 L 31.608858 30.47515 L 19.295372 30.156843 L 6.923061 16.787104 z " stroke="none" stroke-width="0.25pt" stroke-opacity="1"/>
        <path stroke-linecap="butt" fill-opacity="0.14619883" fill="#000000" fill-rule="evenodd" stroke-linejoin="miter" d="M 19.07753 30.01759 L 11.744526 21.271584 L 36.56295 14.335513 L 39.59222 20.551966 L 32.175957 29.992298 " stroke="none" stroke-width="1" stroke-opacity="1" stroke-miterlimit="4"/>
        <path stroke-linecap="butt" fill-opacity="0.14619883" fill="#000000" fill-rule="evenodd" stroke-linejoin="miter" d="M 18.291767 29.83626 L 10.809167 21.026146 L 35.456635 14.132812 L 38.63071 20.403812 L 31.390192 29.810968 " stroke="none" stroke-width="1" stroke-opacity="1" stroke-miterlimit="4"/>
        <path stroke-linecap="butt" fill-opacity="0.14619883" fill="#000000" fill-rule="evenodd" stroke-linejoin="miter" d="M 18.775312 29.957146 L 11.100386 21.296623 L 36.068405 14.232329 L 39.35411 20.824726 L 31.87374 29.931856 " stroke="none" stroke-width="1" stroke-opacity="1" stroke-miterlimit="4"/>
        <path stroke-linecap="butt" fill-opacity="1" fill="url(#linearGradient27477)" fill-rule="evenodd" stroke-linejoin="miter" d="M 18.593985 30.440693 L 11.260975 21.694689 L 35.972553 14.801355 L 39.083366 21.18877 L 31.963198 30.1747 " stroke="none" stroke-width="1" stroke-opacity="1" stroke-miterlimit="4"/>
        <path text-anchor="start" fill-opacity="1" stroke="none" d="M 23.256432 33.401665 C 23.462702 33.477898 23.765388 33.607944 24.164495 33.7918 C 23.30351 34.652775 22.168991 35.083263 20.76094 35.083263 C 19.325972 35.083263 18.176882 34.641563 17.313663 33.758163 C 16.450441 32.874763 16.018831 31.713345 16.018833 30.273891 C 16.018831 28.812029 16.456047 27.612488 17.33048 26.67527 C 18.204908 25.738068 19.348394 25.269464 20.76094 25.269451 C 22.119663 25.269464 23.213823 25.675287 24.043425 26.486933 C 24.873 27.29859 25.287796 28.381538 25.287804 29.73578 C 25.287796 30.498108 25.087124 31.144962 24.685793 31.676344 C 24.284445 32.207733 23.754175 32.473423 23.095 32.473423 C 22.381996 32.473423 21.866306 32.316475 21.547928 32.002575 C 21.16676 32.35235 20.716091 32.527237 20.195925 32.527233 C 19.716105 32.527237 19.328217 32.396072 19.032255 32.13374 C 18.736292 31.871412 18.588312 31.518276 18.588316 31.074331 C 18.588312 30.50932 18.830462 30.07883 19.314766 29.782864 C 19.799065 29.486908 20.453764 29.338928 21.278872 29.338924 C 21.211603 28.67974 20.947033 28.350147 20.48516 28.350142 C 20.014309 28.350147 19.642113 28.475708 19.368576 28.72682 L 19.04571 28.060907 C 19.413416 27.787374 19.86184 27.650604 20.390987 27.650597 C 21.637608 27.650604 22.26092 28.365845 22.260927 29.796316 L 22.260927 31.403929 C 22.583788 31.641594 22.857328 31.760427 23.081549 31.760424 C 23.915611 31.760427 24.332647 31.07882 24.332657 29.7156 C 24.332647 28.67974 23.996328 27.81652 23.323698 27.12594 C 22.651052 26.43537 21.7968 26.090082 20.76094 26.090076 C 19.626415 26.090082 18.71163 26.482454 18.016573 27.267193 C 17.321508 28.051945 16.97398 29.054176 16.97398 30.273891 C 16.97398 31.471191 17.318146 32.435307 18.00648 33.16624 C 18.694817 33.897175 19.612968 34.26265 20.76094 34.26265 C 21.7968 34.26265 22.62863 33.97565 23.256432 33.401665 L 23.256432 33.401665 z M 21.278872 31.538454 L 21.278872 29.964476 L 20.935827 29.964476 C 20.061392 29.96448 19.624176 30.32322 19.62418 31.0407 C 19.624176 31.282852 19.709375 31.482405 19.879784 31.639347 C 20.05018 31.7963 20.263184 31.874777 20.518791 31.874771 C 20.801294 31.874777 21.054655 31.762669 21.278872 31.538454 L 21.278872 31.538454 z " font-variant="normal" stroke-linecap="butt" transform="matrix(0.9752772,-0.2209852,0.2209852,0.9752772,0,0)" stroke-opacity="1" fill="#a40000" font-weight="normal" stroke-width="1px" font-family="Trebuchet MS" font-style="normal" stroke-linejoin="miter" font-stretch="normal" font-size="13.7756567px"/>
        <path stroke-linecap="butt" fill-opacity="1" fill="url(#linearGradient27474)" fill-rule="evenodd" stroke-linejoin="miter" d="M 20.488434 29.064331 L 7.0924697 40.03632 L 21.001312 30.432013 L 30.01947 30.432013 L 42.438515 39.914207 L 30.575092 29.064331 L 20.488434 29.064331 z " stroke="none" stroke-width="1" stroke-opacity="1" stroke-miterlimit="4"/>
        <path fill-opacity="1" display="inline" stroke="none" d="M 6.963475 16.885143 L 18.479649 31.201334 L 19.548153 30.346533 L 6.963475 16.885143 z " visibility="visible" stroke-linecap="butt" stroke-miterlimit="4" stroke-opacity="1" fill="url(#linearGradient27471)" stroke-width="1" color="#000000" stroke-linejoin="miter" stroke-dashoffset="0" fill-rule="evenodd"/>
        <path stroke-linecap="butt" fill-opacity="1" fill="url(#linearGradient3321)" fill-rule="evenodd" stroke-linejoin="miter" d="M 20.9375 3.03125 C 20.451668 3.03125 20.021463 3.2847917 19.46875 3.65625 C 18.916037 4.0277085 18.262875 4.538385 17.5625 5.15625 C 16.161753 6.39198 14.538117 8.052297 12.96875 9.71875 C 11.399383 11.385203 9.890345 13.079613 8.78125 14.40625 C 8.226703 15.069568 7.7930527 15.623447 7.46875 16.0625 C 7.306598 16.282026 7.1576433 16.469242 7.0625 16.625 C 7.014929 16.702879 6.9703674 16.771727 6.9375 16.84375 C 6.9046326 16.915771 6.8747926 16.97026 6.875 17.125 L 6.90625 40.34375 L 6.90625 40.78125 L 7.34375 40.78125 L 42.28125 40.78125 L 42.71875 40.78125 L 42.71875 40.34375 L 42.65625 17.25 C 42.655827 17.093431 42.62602 17.039295 42.59375 16.96875 C 42.56148 16.898205 42.515484 16.827192 42.46875 16.75 C 42.37528 16.595613 42.25339 16.407412 42.09375 16.1875 C 41.774464 15.747677 41.32725 15.168334 40.78125 14.5 C 39.68925 13.163332 38.19922 11.465301 36.65625 9.78125 C 35.11328 8.0971985 33.49763 6.437515 32.125 5.1875 C 31.438684 4.562493 30.820955 4.032365 30.28125 3.65625 C 29.741545 3.280135 29.329576 3.03125 28.84375 3.03125 L 20.9375 3.03125 z M 20.9375 3.875 L 28.84375 3.875 C 28.899876 3.875 29.292736 4.0345592 29.78125 4.375 C 30.269764 4.7154408 30.892595 5.2024374 31.5625 5.8125 C 32.90231 7.0326247 34.49942 8.703107 36.03125 10.375 C 37.56308 12.046893 39.014755 13.741754 40.09375 15.0625 C 40.633247 15.722873 41.072147 16.270311 41.375 16.6875 C 41.526424 16.896093 41.646664 17.068436 41.71875 17.1875 C 41.741013 17.224268 41.76829 17.256807 41.78125 17.28125 L 41.84375 39.90625 L 7.78125 39.90625 L 7.75 17.15625 L 7.75 17.125 C 7.7626 17.101667 7.7921777 17.095768 7.8125 17.0625 C 7.88508 16.94368 8.002858 16.770168 8.15625 16.5625 C 8.463034 16.147165 8.88988 15.592532 9.4375 14.9375 C 10.53274 13.627436 12.036053 11.935311 13.59375 10.28125 C 15.151447 8.62719 16.789333 7.018383 18.15625 5.8125 C 18.839708 5.2095585 19.436632 4.7116146 19.9375 4.375 C 20.438368 4.0383854 20.860264 3.875 20.9375 3.875 z " stroke="none" stroke-width="0.85660428" stroke-opacity="1" stroke-miterlimit="4"/>
        <path stroke-linecap="butt" fill-opacity="1" fill="#ffffff" fill-rule="evenodd" stroke-linejoin="miter" d="M 20.957272 30.452732 L 9.015772 38.723587 L 11.235205 38.729694 L 21.23333 31.860756 L 30.05524 30.437916 L 20.957272 30.452732 z " stroke="none" stroke-width="1" stroke-opacity="1" stroke-miterlimit="4"/>
        <path stroke-linecap="butt" fill-opacity="1" fill="#ffffff" fill-rule="evenodd" stroke-linejoin="miter" d="M 11.427536 21.670296 L 12.752479 23.08072 L 35.543312 16.19653 L 38.458443 21.878897 L 39.072495 21.16698 L 36.00308 14.789145 L 11.427536 21.670296 z " stroke="none" stroke-width="1px" stroke-opacity="1"/>
        <path stroke-linecap="butt" fill-opacity="1" fill="url(#linearGradient27463)" fill-rule="evenodd" stroke-linejoin="miter" d="M 13.308098 23.63634 L 19.33445 30.090092 L 20.531174 29.064331 L 30.617832 29.107073 L 31.429892 29.833652 L 35.40472 25.089502 C 34.25074 23.67908 13.308098 23.63634 13.308098 23.63634 z " stroke="none" stroke-width="1px" stroke-opacity="1"/>
        <path fill-opacity="1" display="inline" stroke="none" d="M 41.812935 17.847944 L 31.861317 30.479233 L 30.792812 29.624432 L 41.812935 17.847944 z " visibility="visible" stroke-linecap="butt" stroke-miterlimit="4" stroke-opacity="1" fill="#b1b1b1" stroke-width="1" color="#000000" stroke-linejoin="miter" stroke-dashoffset="0" fill-rule="evenodd"/>
        <path stroke-linecap="butt" fill-opacity="1" fill="url(#linearGradient3327)" fill-rule="evenodd" stroke-linejoin="round" stroke-dasharray="none" d="M 20.662985 2.125 C 20.234222 2.125 19.791801 2.3731585 19.225485 2.75 C 18.659168 3.1268415 17.98794 3.6443784 17.256737 4.28125 C 15.794326 5.5549927 14.064655 7.2563663 12.412985 9.0 C 10.761315 10.743633 9.176752 12.53499 8.006735 13.96875 C 7.4217257 14.68563 6.9418135 15.314033 6.600485 15.8125 C 6.42982 16.061733 6.2915287 16.283897 6.194235 16.46875 C 6.096941 16.653603 6.037985 16.773977 6.037985 16.96875 L 6.037985 41.46875 C 6.036588 41.536583 6.0586658 41.60282 6.100485 41.65625 C 6.1180534 41.68011 6.139125 41.70118 6.162985 41.71875 C 6.2078767 41.754345 6.262179 41.776066 6.319235 41.78125 L 43.319237 41.78125 C 43.329643 41.781803 43.340076 41.781803 43.350483 41.78125 C 43.42709 41.766106 43.494537 41.721134 43.537983 41.65625 C 43.579803 41.60282 43.60188 41.536583 43.600483 41.46875 L 43.537983 17.09375 C 43.537502 16.902496 43.477596 16.752174 43.381737 16.5625 C 43.285873 16.372826 43.143696 16.159992 42.975483 15.90625 C 42.639065 15.398766 42.176285 14.755644 41.600483 14.03125 C 40.448887 12.582462 38.87859 10.784664 37.256737 9.03125 C 35.634884 7.277836 33.935863 5.559793 32.506737 4.28125 C 31.79217 3.6419787 31.150743 3.1282167 30.600485 2.75 C 30.050228 2.3717833 29.647924 2.125 29.225485 2.125 L 20.662985 2.125 z M 20.662985 2.71875 L 29.225485 2.71875 C 29.349327 2.71875 29.772207 2.8642333 30.287985 3.21875 C 30.803764 3.5732667 31.42849 4.0896063 32.131737 4.71875 C 33.538223 5.9770374 35.206253 7.693675 36.819237 9.4375 C 38.432217 11.181325 39.993134 12.973811 41.131737 14.40625 C 41.701035 15.12247 42.15493 15.735202 42.475483 16.21875 C 42.63576 16.460524 42.77139 16.68725 42.850483 16.84375 C 42.92958 17.000248 42.94428 17.112808 42.944237 17.09375 L 43.006737 41.1875 L 6.631735 41.1875 L 6.631735 16.96875 C 6.631735 17.001234 6.645457 16.8708 6.725485 16.71875 C 6.805513 16.566702 6.9377546 16.362646 7.100485 16.125 C 7.425945 15.649707 7.8969135 15.052741 8.475485 14.34375 C 9.632627 12.925768 11.207832 11.140364 12.850485 9.40625 C 14.493138 7.672136 16.192654 5.972174 17.631737 4.71875 C 18.351276 4.092038 19.006763 3.572237 19.537985 3.21875 C 20.069204 2.865263 20.517418 2.71875 20.662985 2.71875 z " stroke="none" stroke-width="0.58868754" stroke-opacity="1" stroke-miterlimit="4"/>
        <g transform="translate(5e-7,2.5e-6)" display="inline">
            <path fill-opacity="1" display="block" stroke="none" d="M 69.375 125.0 C 69.375 132.93909 62.939095 139.375 55.0 139.375 C 47.060905 139.375 40.625 132.93909 40.625 125.0 C 40.625 117.06091 47.060905 110.625 55.0 110.625 C 62.939095 110.625 69.375 117.06091 69.375 125.0 z " visibility="visible" stroke-linecap="butt" transform="matrix(0.783292,0,0,0.783292,-6.340883,-86.65168)" stroke-miterlimit="4" stroke-opacity="1" fill="url(#radialGradient1558)" stroke-width="1.25000024" color="#000000" stroke-linejoin="round" stroke-dashoffset="0" fill-rule="nonzero"/>
        </g>
    </g>
</svg>
