<?xml version="1.0" encoding="UTF-8"?>
<svg xmlns="http://www.w3.org/2000/svg" xmlns:xlink="http://www.w3.org/1999/xlink" contentScriptType="text/ecmascript" width="16" baseProfile="tiny" zoomAndPan="magnify" contentStyleType="text/css" viewBox="0 0 16 16" height="16" preserveAspectRatio="xMidYMid meet" version="1.1">
    <defs>
        <linearGradient xlink:type="simple" xlink:actuate="onLoad" xlink:show="other">
            <stop stop-opacity="1" stop-color="#000000" offset="0"/>
            <stop stop-opacity="0" stop-color="#000000" offset="1"/>
        </linearGradient>
        <radialGradient gradientTransform="matrix(1,0,0,0.351613,0,16.55413)" id="radialGradient3107" gradientUnits="userSpaceOnUse" xlink:show="other" xlink:type="simple" r="9.6875" cx="17.3125" fx="17.3125" cy="25.53125" fy="25.53125" xlink:actuate="onLoad">
            <stop stop-opacity="1" stop-color="#000000" offset="0"/>
            <stop stop-opacity="0" stop-color="#000000" offset="1"/>
        </radialGradient>
    </defs>
    <g transform="matrix(0.3256909,0,0,0.3256909,3.7953138e-2,0.7220413)">
        <path fill-opacity="0.40909089" display="inline" stroke="none" d="M 27.0 25.53125 C 27.0 27.41247 22.662758 28.9375 17.3125 28.9375 C 11.962241 28.9375 7.625 27.41247 7.625 25.53125 C 7.625 23.65003 11.962241 22.125 17.3125 22.125 C 22.662758 22.125 27.0 23.65003 27.0 25.53125 z " visibility="visible" stroke-linecap="butt" transform="matrix(2.182912,0,0,2.182912,-13.50372,-14.35012)" stroke-miterlimit="4" stroke-opacity="1" fill="url(#radialGradient3107)" stroke-dasharray="none" stroke-width="1.10533953" color="#000000" stroke-linejoin="miter" stroke-dashoffset="0" fill-rule="nonzero"/>
        <path fill-opacity="1" stroke="#914900" d="M 46.13872 23.42804 C 46.13872 35.14377 36.28509 44.641243 24.13002 44.641243 C 11.97495 44.641243 2.1213188 35.14377 2.1213188 23.42804 C 2.1213188 11.71231 11.97495 2.2148342 24.13002 2.2148342 C 36.28509 2.2148342 46.13872 11.71231 46.13872 23.42804 z " stroke-linecap="round" transform="matrix(0.94463,0,0,0.980053,1.504174,-1.556912)" stroke-miterlimit="4" stroke-opacity="1" fill="#f57900" stroke-dasharray="none" stroke-width="0.98214942" stroke-linejoin="round" stroke-dashoffset="0" fill-rule="nonzero"/>
        <path fill-opacity="1" stroke="none" d="M 24.4329 0.7241856 C 13.088295 0.7241856 3.8659656 9.94956 3.8659656 21.321466 C 3.8659656 32.693375 13.088295 41.88911 24.4329 41.88911 C 35.777508 41.88911 44.999832 32.693375 44.999836 21.321466 C 44.999836 9.949558 35.777508 0.7241856 24.4329 0.7241856 z M 24.4329 1.6725496 C 35.309853 1.6725496 44.114315 10.471821 44.114315 21.321466 C 44.11431 32.171112 35.309853 40.970383 24.4329 40.970383 C 13.555948 40.970383 4.780052 32.171112 4.780052 21.321466 C 4.780052 10.471821 13.555948 1.6725496 24.4329 1.6725496 z " stroke-linecap="round" stroke-miterlimit="4" stroke-opacity="1" fill="#fcaf3e" stroke-dasharray="none" stroke-width="0.98214942" stroke-linejoin="round" stroke-dashoffset="0" fill-rule="nonzero"/>
        <path stroke-linecap="round" stroke-dashoffset="0" fill-opacity="1" fill="#ffffff" fill-rule="nonzero" stroke-linejoin="round" d="M 21.464926 10.373268 C 21.336952 10.373268 21.230316 10.547762 21.230316 10.757175 L 22.295084 25.198 C 22.295084 25.407412 22.40172 25.581903 22.529696 25.581907 C 22.529696 25.581907 23.370516 25.59381 24.063684 25.581907 C 24.292025 25.577986 24.361898 25.60222 24.568998 25.581907 C 25.262163 25.59381 26.102987 25.581907 26.102987 25.581907 C 26.23096 25.581907 26.337597 25.407412 26.337597 25.198 L 27.402369 10.757175 C 27.402369 10.547762 27.29573 10.402799 27.167755 10.402799 L 24.587044 10.402799 C 24.577532 10.400862 24.578842 10.373268 24.568998 10.373268 L 21.464926 10.373268 z " stroke="none" stroke-width="4.12249994" stroke-opacity="1" stroke-miterlimit="4"/>
        <path fill-opacity="1" stroke="none" d="M -11.875 34.0625 C -11.875 36.168087 -13.917701 37.875 -16.4375 37.875 C -18.957298 37.875 -21.0 36.168087 -21.0 34.0625 C -21.0 31.956917 -18.957298 30.25 -16.4375 30.25 C -13.917701 30.25 -11.875 31.956917 -11.875 34.0625 z " stroke-linecap="round" transform="matrix(0.504864,0,0,0.604182,32.65935,9.608845)" stroke-miterlimit="4" stroke-opacity="1" fill="#ffffff" stroke-dasharray="none" stroke-width="4.12249994" stroke-linejoin="round" stroke-dashoffset="0" fill-rule="nonzero"/>
        <path stroke-linecap="round" stroke-dashoffset="0" fill-opacity="0.21390375" fill="#fffeff" fill-rule="nonzero" stroke-linejoin="round" d="M 43.676422 20.47678 C 43.676422 31.307396 37.624256 16.170582 25.001688 20.863169 C 12.279172 25.592913 4.435054 31.307396 4.435054 20.47678 C 4.435054 9.646163 13.22512 0.8560977 24.05574 0.8560977 C 34.88636 0.8560977 43.676422 9.646163 43.676422 20.47678 z " stroke="none" stroke-width="1" stroke-opacity="1" stroke-miterlimit="4"/>
    </g>
</svg>
