<?xml version="1.0" encoding="UTF-8"?>
<svg xmlns="http://www.w3.org/2000/svg" xmlns:xlink="http://www.w3.org/1999/xlink" contentScriptType="text/ecmascript" width="88" baseProfile="tiny" zoomAndPan="magnify" contentStyleType="text/css" viewBox="0 0 88 88" height="88" preserveAspectRatio="xMidYMid meet" version="1.0">
    <defs>
        <radialGradient gradientTransform="matrix(4.445991,0,0,6.8665,67.25071,-104.6679)" id="radialGradient2437" gradientUnits="userSpaceOnUse" xlink:show="other" xlink:type="simple" r="8.7536434" cx="-19.515638" fx="-19.515638" cy="16.855663" fy="16.855663" xlink:actuate="onLoad">
            <stop stop-opacity="1" stop-color="#ffffff" offset="0"/>
            <stop stop-opacity="1" stop-color="#b8b8b8" offset="1"/>
        </radialGradient>
        <radialGradient gradientTransform="matrix(1.238342,5.954846e-3,-6.507762e-3,1.351272,-6.992513,-9.744842)" id="radialGradient2207" gradientUnits="userSpaceOnUse" xlink:show="other" xlink:type="simple" r="22.376116" cx="26.544321" fx="26.544321" cy="28.458725" fy="28.458725" xlink:actuate="onLoad">
            <stop stop-opacity="1" stop-color="#9cbcde" offset="0"/>
            <stop offset="1" stop-color="#204a87"/>
        </radialGradient>
        <linearGradient xlink:type="simple" xlink:actuate="onLoad" id="linearGradient2933" xlink:show="other">
            <stop stop-opacity="1" stop-color="#9cbcde" offset="0"/>
            <stop stop-color="#204a87" offset="1"/>
        </linearGradient>
        <radialGradient gradientTransform="matrix(1,0,0,0.595238,0,14.875)" id="radialGradient21650" gradientUnits="userSpaceOnUse" xlink:show="other" xlink:type="simple" r="15.75" cx="25.125" fx="25.125" cy="36.75" fy="36.75" xlink:actuate="onLoad">
            <stop stop-opacity="1" stop-color="#000000" offset="0"/>
            <stop stop-opacity="0" stop-color="#000000" offset="1"/>
        </radialGradient>
        <linearGradient xlink:type="simple" xlink:actuate="onLoad" id="linearGradient21644" xlink:show="other">
            <stop stop-opacity="1" stop-color="#000000" offset="0"/>
            <stop stop-opacity="0" stop-color="#000000" offset="1"/>
        </linearGradient>
        <linearGradient xlink:type="simple" xlink:actuate="onLoad" id="linearGradient2431" xlink:show="other">
            <stop stop-opacity="1" stop-color="#ffffff" offset="0"/>
            <stop stop-opacity="1" stop-color="#b8b8b8" offset="1"/>
        </linearGradient>
    </defs>
    <g transform="matrix(1.5543289,0,0,1.5543289,6.461236,4.6015036)">
        <path fill-opacity="0.63068183" display="inline" stroke="none" d="M 40.875 36.75 C 40.875 41.92767 33.823486 46.125 25.125 46.125 C 16.426516 46.125 9.375 41.92767 9.375 36.75 C 9.375 31.57233 16.426516 27.375 25.125 27.375 C 33.823486 27.375 40.875 31.57233 40.875 36.75 z " visibility="visible" stroke-linecap="round" transform="matrix(1.173803,0,0,0.6,-5.004403,20.325)" stroke-miterlimit="4" stroke-opacity="1" fill="url(#radialGradient21650)" stroke-dasharray="none" stroke-width="1" color="#000000" stroke-linejoin="round" stroke-dashoffset="0" fill-rule="evenodd"/>
        <path transform="matrix(0.938442,0,0,0.93868,1.564075,1.633906)" fill-opacity="1" fill="url(#radialGradient2207)" stroke-dasharray="none" d="M 45.785164 23.825788 C 45.785164 35.907635 35.990894 45.701904 23.909048 45.701904 C 11.827203 45.701904 2.0329323 35.907635 2.0329323 23.825788 C 2.0329323 11.743943 11.827203 1.9496727 23.909048 1.9496727 C 35.990894 1.9496727 45.785164 11.743943 45.785164 23.825788 z " stroke="#204a87" stroke-width="0.68547967" stroke-miterlimit="4"/>
        <path transform="matrix(0.855103,0,0,0.855213,3.555288,3.625019)" fill-opacity="0.96022728" fill="none" stroke-dasharray="none" d="M 45.785164 23.825788 C 45.785164 35.907635 35.990894 45.701904 23.909048 45.701904 C 11.827203 45.701904 2.0329323 35.907635 2.0329323 23.825788 C 2.0329323 11.743943 11.827203 1.9496727 23.909048 1.9496727 C 35.990894 1.9496727 45.785164 11.743943 45.785164 23.825788 z " stroke="#ffffff" stroke-width="3.03077435" stroke-opacity="1" stroke-miterlimit="4"/>
        <path text-anchor="start" fill-opacity="1" stroke="#ffffff" d="M -20.25 5.875 C -21.30902 5.875026 -22.397636 5.9982357 -23.53125 6.21875 C -24.664177 6.4391785 -25.911411 6.7562623 -27.28125 7.21875 C -27.291632 7.21754 -27.302118 7.21754 -27.3125 7.21875 C -27.324564 7.2273793 -27.33512 7.237937 -27.34375 7.25 C -27.355812 7.258629 -27.366371 7.269187 -27.375 7.28125 C -27.37621 7.291632 -27.37621 7.3021183 -27.375 7.3125 C -27.37621 7.3228817 -27.37621 7.333369 -27.375 7.34375 L -27.375 12.5 C -27.37621 12.510382 -27.37621 12.520868 -27.375 12.53125 C -27.37621 12.541632 -27.37621 12.552118 -27.375 12.5625 C -27.366371 12.574563 -27.355812 12.585121 -27.34375 12.59375 C -27.33512 12.605813 -27.324564 12.616371 -27.3125 12.625 C -27.302118 12.62621 -27.291632 12.62621 -27.28125 12.625 C -27.270868 12.62621 -27.260382 12.62621 -27.25 12.625 C -27.239618 12.62621 -27.229132 12.62621 -27.21875 12.625 C -27.208368 12.62621 -27.197882 12.62621 -27.1875 12.625 C -26.045061 11.905957 -24.954147 11.357862 -23.90625 11.0 C -22.858109 10.631244 -21.863134 10.437521 -20.96875 10.4375 C -20.019531 10.437521 -19.323824 10.648045 -18.8125 11.0625 C -18.303776 11.46459 -18.031261 12.04554 -18.03125 12.78125 C -18.03126 13.261907 -18.175438 13.73266 -18.46875 14.21875 C -18.75174 14.705766 -19.209017 15.249245 -19.84375 15.8125 L -20.9375 16.75 C -22.13896 17.83049 -22.926744 18.741022 -23.3125 19.46875 C -23.695612 20.180197 -23.875004 20.988073 -23.875 21.90625 L -23.875 22.71875 C -23.87621 22.729132 -23.87621 22.739618 -23.875 22.75 C -23.87621 22.760382 -23.87621 22.770868 -23.875 22.78125 C -23.866371 22.793312 -23.855812 22.803871 -23.84375 22.8125 C -23.83512 22.824564 -23.824564 22.83512 -23.8125 22.84375 C -23.802118 22.84496 -23.791632 22.84496 -23.78125 22.84375 C -23.770868 22.84496 -23.760382 22.84496 -23.75 22.84375 L -17.65625 22.84375 C -17.645868 22.84496 -17.635382 22.84496 -17.625 22.84375 C -17.614618 22.84496 -17.604132 22.84496 -17.59375 22.84375 C -17.581688 22.83512 -17.571129 22.824564 -17.5625 22.8125 C -17.550436 22.803871 -17.53988 22.793312 -17.53125 22.78125 C -17.53004 22.770868 -17.53004 22.760382 -17.53125 22.75 C -17.53004 22.739618 -17.53004 22.729132 -17.53125 22.71875 L -17.53125 21.96875 C -17.53126 21.500553 -17.38288 21.0759 -17.15625 20.6875 C -16.933956 20.296215 -16.448177 19.73714 -15.6875 19.0625 L -14.625 18.125 C -13.558412 17.14269 -12.794341 16.240347 -12.34375 15.375 C -11.894481 14.500954 -11.656268 13.50158 -11.65625 12.40625 C -11.656268 10.279985 -12.400019 8.672222 -13.875 7.5625 C -15.350197 6.441475 -17.48124 5.875026 -20.25 5.875 z M -23.8125 25.03125 C -23.824564 25.03988 -23.83512 25.050436 -23.84375 25.0625 C -23.855812 25.071129 -23.866371 25.081688 -23.875 25.09375 C -23.87621 25.104132 -23.87621 25.114618 -23.875 25.125 C -23.87621 25.135382 -23.87621 25.145868 -23.875 25.15625 L -23.875 31.0 C -23.87621 31.010382 -23.87621 31.020868 -23.875 31.03125 C -23.87621 31.041632 -23.87621 31.052118 -23.875 31.0625 C -23.866371 31.074564 -23.855812 31.08512 -23.84375 31.09375 C -23.83512 31.105812 -23.824564 31.116371 -23.8125 31.125 C -23.802118 31.12621 -23.791632 31.12621 -23.78125 31.125 C -23.770868 31.12621 -23.760382 31.12621 -23.75 31.125 L -17.65625 31.125 C -17.645868 31.12621 -17.635382 31.12621 -17.625 31.125 C -17.614618 31.12621 -17.604132 31.12621 -17.59375 31.125 C -17.581688 31.116371 -17.571129 31.105812 -17.5625 31.09375 C -17.550436 31.08512 -17.53988 31.074564 -17.53125 31.0625 C -17.53004 31.052118 -17.53004 31.041632 -17.53125 31.03125 C -17.53004 31.020868 -17.53004 31.010382 -17.53125 31.0 L -17.53125 25.15625 C -17.53004 25.145868 -17.53004 25.135382 -17.53125 25.125 C -17.53004 25.114618 -17.53004 25.104132 -17.53125 25.09375 C -17.53988 25.081688 -17.550436 25.071129 -17.5625 25.0625 C -17.571129 25.050436 -17.581688 25.03988 -17.59375 25.03125 C -17.604132 25.03004 -17.614618 25.03004 -17.625 25.03125 C -17.635382 25.03004 -17.645868 25.03004 -17.65625 25.03125 L -23.75 25.03125 C -23.760382 25.03004 -23.770868 25.03004 -23.78125 25.03125 C -23.791632 25.03004 -23.802118 25.03004 -23.8125 25.03125 z " font-variant="normal" stroke-linecap="butt" transform="matrix(0.849895,0,0,0.835205,41.72981,8.548327)" stroke-opacity="0.78612713" fill="url(#radialGradient2437)" font-weight="bold" stroke-width="1.09947276px" font-family="Bitstream Vera Sans" font-style="normal" stroke-linejoin="miter" font-stretch="normal" xlink:href="#text2215" font-size="34.15322876px"/>
    </g>
</svg>
