<?xml version="1.0" encoding="UTF-8"?>
<svg xmlns="http://www.w3.org/2000/svg" xmlns:xlink="http://www.w3.org/1999/xlink" contentScriptType="text/ecmascript" width="88" baseProfile="tiny" zoomAndPan="magnify" contentStyleType="text/css" viewBox="0 0 88 88" height="88" preserveAspectRatio="xMidYMid meet" version="1.0">
    <defs>
        <radialGradient gradientTransform="matrix(1.000000,0.000000,0.000000,0.265306,-2.302846e-16,28.01020)" gradientUnits="userSpaceOnUse" xlink:type="simple" r="18.375" xlink:actuate="onLoad" cx="25.75" cy="38.125" xlink:show="other" fx="25.75" fy="38.125">
            <stop stop-opacity="1" stop-color="#000000" offset="0"/>
            <stop stop-opacity="0" stop-color="#000000" offset="1"/>
        </radialGradient>
        <linearGradient x1="22.686766" gradientTransform="matrix(-0.977685,0.210075,0.210075,0.977685,61.56807,-4.448329)" y1="36.390400" x2="21.408455" gradientUnits="userSpaceOnUse" y2="35.739632" xlink:type="simple" xlink:actuate="onLoad" id="linearGradient6958" xlink:show="other">
            <stop stop-opacity="1" stop-color="#000000" offset="0"/>
            <stop stop-opacity="0" stop-color="#000000" offset="1"/>
        </linearGradient>
        <linearGradient x1="20.661695" gradientTransform="matrix(0.983375,0.181588,-0.181588,0.983375,12.69019,-3.154589)" y1="35.817974" x2="22.626925" gradientUnits="userSpaceOnUse" y2="36.217758" xlink:type="simple" xlink:actuate="onLoad" id="linearGradient6956" xlink:show="other">
            <stop stop-opacity="1" stop-color="#000000" offset="0"/>
            <stop stop-opacity="0" stop-color="#000000" offset="1"/>
        </linearGradient>
        <linearGradient x1="30.935921" gradientTransform="translate(7.344424,-0.329669)" y1="29.553486" x2="30.935921" gradientUnits="userSpaceOnUse" y2="35.803486" xlink:type="simple" xlink:actuate="onLoad" id="linearGradient6954" xlink:show="other">
            <stop stop-opacity="1" stop-color="#ffffff" offset="0"/>
            <stop stop-opacity="1.0000000" stop-color="#c9c9c9" offset="1.0000000"/>
        </linearGradient>
        <radialGradient gradientTransform="matrix(0.787998,0,0,0.787998,6.221198,3.617627)" id="radialGradient6952" gradientUnits="userSpaceOnUse" xlink:show="other" xlink:type="simple" r="9.1620579" cx="29.344931" fx="29.344931" cy="17.064077" fy="17.064077" xlink:actuate="onLoad">
            <stop stop-opacity="1.0000000" stop-color="#e9b15e" offset="0.0000000"/>
            <stop stop-opacity="1.0000000" stop-color="#966416" offset="1.0000000"/>
        </radialGradient>
        <radialGradient gradientUnits="userSpaceOnUse" xlink:type="simple" r="8.6620579" xlink:actuate="onLoad" cx="31.112698" id="radialGradient6950" cy="19.008621" xlink:show="other" fx="31.112698" fy="19.008621">
            <stop stop-opacity="1" stop-color="#000000" offset="0"/>
            <stop stop-opacity="0" stop-color="#000000" offset="1"/>
        </radialGradient>
        <radialGradient gradientTransform="matrix(1,0,0,0.681917,19.76231,14.9041)" id="radialGradient6948" gradientUnits="userSpaceOnUse" xlink:show="other" xlink:type="simple" r="13.565360" cx="16.214741" fx="16.214741" cy="19.836468" fy="19.836468" xlink:actuate="onLoad">
            <stop stop-opacity="1" stop-color="#727e0a" offset="0"/>
            <stop stop-opacity="1.0000000" stop-color="#5b6508" offset="1.0000000"/>
        </radialGradient>
        <linearGradient x1="16.25" gradientTransform="matrix(1.107828,0,0,1,-1.877849,-0.5)" y1="12.25" x2="31.5" gradientUnits="userSpaceOnUse" y2="36.625" xlink:type="simple" xlink:actuate="onLoad" id="linearGradient6738" xlink:show="other">
            <stop stop-opacity="1" stop-color="#ffffff" offset="0"/>
            <stop stop-opacity="1" stop-color="#dddddd" offset="1"/>
        </linearGradient>
        <linearGradient xlink:type="simple" xlink:actuate="onLoad" xlink:show="other">
            <stop stop-opacity="1" stop-color="#ffffff" offset="0"/>
            <stop stop-opacity="1" stop-color="#dddddd" offset="1"/>
        </linearGradient>
        <linearGradient xlink:type="simple" xlink:actuate="onLoad" xlink:show="other">
            <stop stop-opacity="1" stop-color="#000000" offset="0"/>
            <stop stop-opacity="0" stop-color="#000000" offset="1"/>
        </linearGradient>
        <linearGradient xlink:type="simple" xlink:actuate="onLoad" xlink:show="other">
            <stop stop-opacity="1" stop-color="#ffffff" offset="0"/>
            <stop stop-opacity="1.0000000" stop-color="#c9c9c9" offset="1.0000000"/>
        </linearGradient>
        <linearGradient xlink:type="simple" xlink:actuate="onLoad" xlink:show="other">
            <stop stop-opacity="1.0000000" stop-color="#e9b15e" offset="0.0000000"/>
            <stop stop-opacity="1.0000000" stop-color="#966416" offset="1.0000000"/>
        </linearGradient>
        <linearGradient xlink:type="simple" xlink:actuate="onLoad" xlink:show="other">
            <stop stop-opacity="1" stop-color="#000000" offset="0"/>
            <stop stop-opacity="0" stop-color="#000000" offset="1"/>
        </linearGradient>
        <linearGradient xlink:type="simple" xlink:actuate="onLoad" xlink:show="other">
            <stop stop-opacity="1" stop-color="#727e0a" offset="0"/>
            <stop stop-opacity="1.0000000" stop-color="#5b6508" offset="1.0000000"/>
        </linearGradient>
        <linearGradient xlink:type="simple" xlink:actuate="onLoad" xlink:show="other">
            <stop stop-opacity="1" stop-color="#000000" offset="0"/>
            <stop stop-opacity="0" stop-color="#000000" offset="1"/>
        </linearGradient>
        <linearGradient xlink:type="simple" xlink:actuate="onLoad" xlink:show="other">
            <stop stop-opacity="1.0000000" stop-color="#ffffff" offset="0.0000000"/>
            <stop stop-opacity="0.89108908" stop-color="#fff520" offset="0.50000000"/>
            <stop stop-opacity="0.0000000" stop-color="#fff300" offset="1.0000000"/>
        </linearGradient>
        <linearGradient x1="302.85715" gradientTransform="matrix(2.774389,0,0,1.969706,-1892.179,-872.8854)" y1="366.64789" x2="302.85715" gradientUnits="userSpaceOnUse" y2="609.50507" xlink:type="simple" xlink:actuate="onLoad" id="linearGradient5027" xlink:show="other">
            <stop stop-opacity="0" stop-color="#000000" offset="0"/>
            <stop stop-opacity="1" stop-color="#000000" offset="0.5"/>
            <stop stop-opacity="0" stop-color="#000000" offset="1"/>
        </linearGradient>
        <linearGradient xlink:type="simple" xlink:actuate="onLoad" xlink:show="other">
            <stop stop-opacity="0" stop-color="#000000" offset="0"/>
            <stop stop-opacity="1" stop-color="#000000" offset="0.5"/>
            <stop stop-opacity="0" stop-color="#000000" offset="1"/>
        </linearGradient>
        <radialGradient gradientTransform="matrix(2.774389,0,0,1.969706,-1891.633,-872.8854)" id="radialGradient5029" gradientUnits="userSpaceOnUse" xlink:show="other" xlink:type="simple" r="117.14286" cx="605.71429" fx="605.71429" cy="486.64789" fy="486.64789" xlink:actuate="onLoad">
            <stop stop-opacity="1" stop-color="#000000" offset="0"/>
            <stop stop-opacity="0" stop-color="#000000" offset="1"/>
        </radialGradient>
        <linearGradient xlink:type="simple" xlink:actuate="onLoad" xlink:show="other">
            <stop stop-opacity="1" stop-color="#000000" offset="0"/>
            <stop stop-opacity="0" stop-color="#000000" offset="1"/>
        </linearGradient>
        <radialGradient gradientTransform="matrix(-2.774389,0,0,1.969706,112.7623,-872.8854)" id="radialGradient5031" gradientUnits="userSpaceOnUse" xlink:show="other" xlink:type="simple" r="117.14286" cx="605.71429" fx="605.71429" cy="486.64789" fy="486.64789" xlink:actuate="onLoad">
            <stop stop-opacity="1" stop-color="#000000" offset="0"/>
            <stop stop-opacity="0" stop-color="#000000" offset="1"/>
        </radialGradient>
    </defs>
    <g transform="matrix(1.6522994,0,0,1.6522994,2.9341383,4.5781797)">
        <g transform="matrix(2.495993e-2,0,0,1.485743e-2,46.77222,36.60912)" display="inline">
            <rect fill-opacity="0.40206185" display="inline" stroke="none" visibility="visible" stroke-linecap="round" width="1339.6335" stroke-miterlimit="4" stroke-opacity="1" fill="url(#linearGradient5027)" stroke-dasharray="none" stroke-width="1" color="#000000" height="478.35718" x="-1559.2523" stroke-linejoin="miter" y="-150.69685" stroke-dashoffset="0" fill-rule="nonzero"/>
            <path fill-opacity="0.40206185" display="inline" stroke="none" d="M -219.61876 -150.68037 C -219.61876 -150.68037 -219.61876 327.6504 -219.61876 327.6504 C -76.74459 328.55087 125.78146 220.48076 125.78138 88.45424 C 125.78138 -43.572304 -33.655437 -150.68036 -219.61876 -150.68037 z " visibility="visible" stroke-linecap="round" stroke-miterlimit="4" stroke-opacity="1" fill="url(#radialGradient5029)" stroke-dasharray="none" stroke-width="1" color="#000000" stroke-linejoin="miter" stroke-dashoffset="0" fill-rule="nonzero"/>
            <path fill-opacity="0.40206185" display="inline" stroke="none" d="M -1559.2523 -150.68037 C -1559.2523 -150.68037 -1559.2523 327.6504 -1559.2523 327.6504 C -1702.1263 328.55087 -1904.6523 220.48076 -1904.6523 88.45424 C -1904.6523 -43.572304 -1745.2156 -150.68036 -1559.2523 -150.68037 z " visibility="visible" stroke-linecap="round" stroke-miterlimit="4" stroke-opacity="1" fill="url(#radialGradient5031)" stroke-dasharray="none" stroke-width="1" color="#000000" stroke-linejoin="miter" stroke-dashoffset="0" fill-rule="nonzero"/>
        </g>
        <rect fill-opacity="1" display="inline" stroke="#939393" visibility="visible" stroke-linecap="butt" width="43.897678" stroke-miterlimit="4" stroke-opacity="1" fill="url(#linearGradient6738)" stroke-dasharray="none" stroke-width="0.60521719" color="#000000" height="30" x="2.5534627" stroke-linejoin="miter" rx="2.75" y="8.5" ry="2.75" stroke-dashoffset="0" fill-rule="evenodd"/>
        <rect fill-opacity="1" display="inline" stroke="#ffffff" visibility="visible" stroke-linecap="butt" width="41.900925" stroke-miterlimit="4" stroke-opacity="1" fill="none" stroke-dasharray="none" stroke-width="1.00000024" color="#000000" height="27.74136" x="3.5477371" stroke-linejoin="miter" rx="1.7500004" y="9.6293259" ry="1.7500002" stroke-dashoffset="0" fill-rule="evenodd"/>
        <g transform="matrix(0.4348,0,0,0.4348,-4.12233,8.44145)">
            <path fill-opacity="1" display="inline" stroke="#404604" d="M 32.62349 41.30637 L 43.23009 41.30637 C 46.235294 41.30637 49.210575 40.20444 50.301155 37.06373 C 51.336796 34.081253 50.477936 28.401672 43.76042 23.805475 L 31.209274 23.805475 C 24.49176 28.048117 23.652285 33.850307 25.198868 37.240505 C 26.774462 40.694298 29.441507 41.30637 32.62349 41.30637 z " visibility="visible" stroke-linecap="round" stroke-miterlimit="4" stroke-opacity="1" fill="url(#radialGradient6948)" stroke-dasharray="none" stroke-width="2.29990602px" color="#000000" stroke-linejoin="round" stroke-dashoffset="0" fill-rule="evenodd"/>
            <path fill-opacity="1" display="inline" stroke="none" d="M 37.69468 26.457129 C 37.69468 26.457129 35.54336 28.117464 35.72869 30.11766 C 33.687466 28.316868 33.628815 24.866137 33.628815 24.866137 L 37.69468 26.457129 z " visibility="visible" stroke-linecap="round" stroke-miterlimit="4" stroke-opacity="1" fill="#9db029" stroke-dasharray="none" stroke-width="1px" color="#000000" stroke-linejoin="round" stroke-dashoffset="0" fill-rule="evenodd"/>
            <path fill-opacity="0.21518986" display="inline" stroke="#ffffff" d="M 33.2112 39.482544 L 42.508297 39.482544 C 44.88714 39.482544 47.242294 38.61028 48.105576 36.124176 C 48.92536 33.76332 48.020218 29.267504 42.702797 25.629272 L 32.317036 25.629272 C 26.99962 28.98764 26.10982 33.58051 27.334057 36.264103 C 28.58126 38.99804 30.692425 39.482544 33.2112 39.482544 z " visibility="visible" stroke-linecap="round" stroke-miterlimit="4" stroke-opacity="0.13815789" fill="none" stroke-dasharray="none" stroke-width="2.29990482px" color="#000000" stroke-linejoin="round" stroke-dashoffset="0" fill-rule="evenodd"/>
            <path fill-opacity="1" display="inline" stroke="none" d="M 38.673107 26.457129 C 38.673107 26.457129 40.824432 28.117464 40.6391 30.11766 C 42.68033 28.316868 42.73897 24.866137 42.73897 24.866137 L 38.673107 26.457129 z " visibility="visible" stroke-linecap="round" stroke-miterlimit="4" stroke-opacity="1" fill="#9db029" stroke-dasharray="none" stroke-width="1px" color="#000000" stroke-linejoin="round" stroke-dashoffset="0" fill-rule="evenodd"/>
            <path fill-opacity="1" display="inline" stroke="none" d="M 39.774757 19.00862 C 39.774757 23.792542 35.89662 27.670675 31.112698 27.670675 C 26.328775 27.670675 22.45064 23.792542 22.45064 19.00862 C 22.45064 14.224696 26.328775 10.3465605 31.112698 10.3465605 C 35.89662 10.3465605 39.774757 14.224696 39.774757 19.00862 z " visibility="visible" stroke-linecap="round" transform="translate(6.512314,3.170331)" stroke-miterlimit="4" stroke-opacity="1" fill="url(#radialGradient6950)" stroke-dasharray="none" stroke-width="1px" color="#000000" stroke-linejoin="round" stroke-dashoffset="0" fill-rule="evenodd"/>
            <path fill-opacity="1" display="inline" stroke="#6f4709" d="M 39.774757 19.00862 C 39.774757 23.792542 35.89662 27.670675 31.112698 27.670675 C 26.328775 27.670675 22.45064 23.792542 22.45064 19.00862 C 22.45064 14.224696 26.328775 10.3465605 31.112698 10.3465605 C 35.89662 10.3465605 39.774757 14.224696 39.774757 19.00862 z " visibility="visible" stroke-linecap="round" transform="translate(6.637314,-0.329669)" stroke-miterlimit="4" stroke-opacity="1" fill="url(#radialGradient6952)" stroke-dasharray="none" stroke-width="2.29990602px" color="#000000" stroke-linejoin="round" stroke-dashoffset="0" fill-rule="evenodd"/>
            <path fill-opacity="0.12658231" display="inline" stroke="#ffffff" d="M 39.774757 19.00862 C 39.774757 23.792542 35.89662 27.670675 31.112698 27.670675 C 26.328775 27.670675 22.45064 23.792542 22.45064 19.00862 C 22.45064 14.224696 26.328775 10.3465605 31.112698 10.3465605 C 35.89662 10.3465605 39.774757 14.224696 39.774757 19.00862 z " visibility="visible" stroke-linecap="round" transform="matrix(0.747377,0,0,0.747377,14.49712,4.47236)" stroke-miterlimit="4" stroke-opacity="0.20394737" fill="none" stroke-dasharray="none" stroke-width="3.07730651px" color="#000000" stroke-linejoin="round" stroke-dashoffset="0" fill-rule="evenodd"/>
            <path fill-opacity="1" display="inline" stroke="none" d="M 42.346207 33.70497 L 46.58885 33.70497 L 44.113976 31.406876 L 43.583645 32.113983 L 43.05331 31.583652 L 42.346207 33.70497 z " visibility="visible" stroke-linecap="round" stroke-miterlimit="4" stroke-opacity="1" fill="url(#linearGradient6954)" stroke-dasharray="none" stroke-width="1px" color="#000000" stroke-linejoin="round" stroke-dashoffset="0" fill-rule="evenodd"/>
            <path fill-opacity="0.22784807" display="inline" stroke="none" d="M 28.310268 40.27208 C 27.06266 39.727108 26.504274 38.4138 26.504274 38.4138 C 27.345556 34.344666 30.2242 31.367584 30.2242 31.367584 C 30.2242 31.367584 27.944878 37.7791 28.310268 40.27208 z " visibility="visible" stroke-linecap="round" stroke-miterlimit="4" stroke-opacity="1" fill="url(#linearGradient6956)" stroke-dasharray="none" stroke-width="1px" color="#000000" stroke-linejoin="round" stroke-dashoffset="0" fill-rule="evenodd"/>
            <path fill-opacity="0.22784807" display="inline" stroke="none" d="M 47.215977 39.413727 C 48.447224 38.83275 49.020355 37.411407 49.020355 37.411407 C 48.061237 33.368423 45.04421 30.568584 45.04421 30.568584 C 45.04421 30.568584 47.5088 36.911182 47.215977 39.413727 z " visibility="visible" stroke-linecap="round" stroke-miterlimit="4" stroke-opacity="1" fill="url(#linearGradient6958)" stroke-dasharray="none" stroke-width="1px" color="#000000" stroke-linejoin="round" stroke-dashoffset="0" fill-rule="evenodd"/>
        </g>
        <rect fill-opacity="0.3976608" display="inline" stroke="none" visibility="visible" stroke-linecap="butt" width="17.375" stroke-miterlimit="4" stroke-opacity="1" fill="#8d8d8d" stroke-dasharray="none" stroke-width="1" color="#000000" height="2" x="21" stroke-linejoin="miter" rx="1.03125" y="19.977854" ry="1.03125" stroke-dashoffset="0" fill-rule="evenodd"/>
        <rect fill-opacity="0.3976608" display="inline" stroke="none" visibility="visible" stroke-linecap="butt" width="14" stroke-miterlimit="4" stroke-opacity="1" fill="#8d8d8d" stroke-dasharray="none" stroke-width="1" color="#000000" height="2" x="21" stroke-linejoin="miter" rx="1.03125" y="23" ry="1.03125" stroke-dashoffset="0" fill-rule="evenodd"/>
        <g fill-opacity="0.48538011" transform="matrix(1,0,0,0.833333,0,5)" stroke-opacity="0.48538011">
            <rect fill-opacity="1" display="inline" stroke="none" visibility="visible" stroke-linecap="butt" width="1" stroke-miterlimit="4" stroke-opacity="1" fill="#000000" stroke-dasharray="none" stroke-width="1" color="#000000" height="6" x="6" stroke-linejoin="miter" rx="0" y="30" ry="0" stroke-dashoffset="0" fill-rule="evenodd"/>
            <rect fill-opacity="1" display="inline" stroke="none" visibility="visible" stroke-linecap="butt" width="1.9375" stroke-miterlimit="4" stroke-opacity="1" fill="#000000" stroke-dasharray="none" stroke-width="1" color="#000000" height="3.6000135" x="8.0846453" stroke-linejoin="miter" rx="0" y="30" ry="0" stroke-dashoffset="0" fill-rule="evenodd"/>
            <rect fill-opacity="1" display="inline" stroke="none" visibility="visible" stroke-linecap="butt" width="1" stroke-miterlimit="4" stroke-opacity="1" fill="#000000" stroke-dasharray="none" stroke-width="1" color="#000000" height="3.6000135" x="11" stroke-linejoin="miter" y="30" stroke-dashoffset="0" fill-rule="evenodd"/>
            <rect fill-opacity="1" display="inline" stroke="none" visibility="visible" stroke-linecap="butt" width="2" stroke-miterlimit="4" stroke-opacity="1" fill="#000000" stroke-dasharray="none" stroke-width="1" color="#000000" height="3.6000135" x="13" stroke-linejoin="miter" y="30" stroke-dashoffset="0" fill-rule="evenodd"/>
            <rect fill-opacity="1" display="inline" stroke="none" visibility="visible" stroke-linecap="butt" width="1" stroke-miterlimit="4" stroke-opacity="1" fill="#000000" stroke-dasharray="none" stroke-width="1" color="#000000" height="3.6000135" x="16" stroke-linejoin="miter" y="30" stroke-dashoffset="0" fill-rule="evenodd"/>
            <rect fill-opacity="1" display="inline" stroke="none" visibility="visible" stroke-linecap="butt" width="1" stroke-miterlimit="4" stroke-opacity="1" fill="#000000" stroke-dasharray="none" stroke-width="1" color="#000000" height="3.6000135" x="18" stroke-linejoin="miter" y="30" stroke-dashoffset="0" fill-rule="evenodd"/>
            <rect fill-opacity="1" display="inline" stroke="none" visibility="visible" stroke-linecap="butt" width="1" stroke-miterlimit="4" stroke-opacity="1" fill="#000000" stroke-dasharray="none" stroke-width="1" color="#000000" height="3.6000135" x="21" stroke-linejoin="miter" y="30" stroke-dashoffset="0" fill-rule="evenodd"/>
            <rect fill-opacity="1" display="inline" stroke="none" visibility="visible" stroke-linecap="butt" width="2" stroke-miterlimit="4" stroke-opacity="1" fill="#000000" stroke-dasharray="none" stroke-width="1" color="#000000" height="3.6000135" x="23" stroke-linejoin="miter" y="30" stroke-dashoffset="0" fill-rule="evenodd"/>
            <rect fill-opacity="1" display="inline" stroke="none" visibility="visible" stroke-linecap="butt" width="2" stroke-miterlimit="4" stroke-opacity="1" fill="#000000" stroke-dasharray="none" stroke-width="1" color="#000000" height="3.6000135" x="26" stroke-linejoin="miter" y="30" stroke-dashoffset="0" fill-rule="evenodd"/>
            <rect fill-opacity="1" display="inline" stroke="none" visibility="visible" stroke-linecap="butt" width="1" stroke-miterlimit="4" stroke-opacity="1" fill="#000000" stroke-dasharray="none" stroke-width="1" color="#000000" height="3.6000135" x="29" stroke-linejoin="miter" y="30" stroke-dashoffset="0" fill-rule="evenodd"/>
            <rect fill-opacity="1" display="inline" stroke="none" visibility="visible" stroke-linecap="butt" width="1" stroke-miterlimit="4" stroke-opacity="1" fill="#000000" stroke-dasharray="none" stroke-width="1" color="#000000" height="3.6000135" x="31" stroke-linejoin="miter" y="30" stroke-dashoffset="0" fill-rule="evenodd"/>
            <rect fill-opacity="1" display="inline" stroke="none" visibility="visible" stroke-linecap="butt" width="1" stroke-miterlimit="4" stroke-opacity="1" fill="#000000" stroke-dasharray="none" stroke-width="1" color="#000000" height="3.6000135" x="33" stroke-linejoin="miter" y="30" stroke-dashoffset="0" fill-rule="evenodd"/>
            <rect fill-opacity="1" display="inline" stroke="none" visibility="visible" stroke-linecap="butt" width="2" stroke-miterlimit="4" stroke-opacity="1" fill="#000000" stroke-dasharray="none" stroke-width="1" color="#000000" height="3.6000135" x="35" stroke-linejoin="miter" y="30" stroke-dashoffset="0" fill-rule="evenodd"/>
            <rect fill-opacity="1" display="inline" stroke="none" visibility="visible" stroke-linecap="butt" width="2" stroke-miterlimit="4" stroke-opacity="1" fill="#000000" stroke-dasharray="none" stroke-width="1" color="#000000" height="3.6000135" x="39" stroke-linejoin="miter" y="30" stroke-dashoffset="0" fill-rule="evenodd"/>
            <rect fill-opacity="1" display="inline" stroke="none" visibility="visible" stroke-linecap="butt" width="1" stroke-miterlimit="4" stroke-opacity="1" fill="#000000" stroke-dasharray="none" stroke-width="1" color="#000000" height="6" x="42" stroke-linejoin="miter" y="30" stroke-dashoffset="0" fill-rule="evenodd"/>
        </g>
        <path text-anchor="start" fill-opacity="1" stroke="none" d="M 8.937492 34.398197 C 9.012451 34.414223 9.070868 34.447567 9.112743 34.49823 C 9.155133 34.548893 9.17633 34.611446 9.176331 34.685886 C 9.17633 34.80014 9.13704 34.88854 9.058461 34.95109 C 8.979882 35.01365 8.868217 35.04492 8.723467 35.04492 C 8.674872 35.04492 8.624726 35.040012 8.57303 35.03019 C 8.521851 35.020885 8.468862 35.006668 8.414063 34.98754 L 8.414063 34.836327 C 8.457488 34.861656 8.505049 34.880783 8.556746 34.89371 C 8.608442 34.90663 8.662465 34.913097 8.718815 34.913097 C 8.817038 34.913097 8.891739 34.89371 8.94292 34.854935 C 8.994616 34.81616 9.020464 34.759815 9.020465 34.685886 C 9.020464 34.61765 8.996425 34.5644 8.948348 34.526142 C 8.900786 34.487377 8.834356 34.467987 8.749058 34.467987 L 8.614129 34.467987 L 8.614129 34.339264 L 8.75526 34.339264 C 8.832288 34.339264 8.891222 34.324013 8.932063 34.29351 C 8.972903 34.262497 8.993323 34.218037 8.993324 34.160137 C 8.993323 34.100685 8.972128 34.05519 8.929738 34.023655 C 8.887862 33.991604 8.827636 33.975574 8.749058 33.975574 C 8.706149 33.975574 8.660138 33.980232 8.611027 33.989536 C 8.561915 33.99884 8.507892 34.013317 8.448958 34.03296 L 8.448958 33.89338 C 8.5084095 33.876835 8.563983 33.86443 8.61568 33.85616 C 8.667892 33.84789 8.717005 33.843754 8.763015 33.84375 C 8.881917 33.843754 8.976005 33.87089 9.04528 33.92517 C 9.114552 33.978935 9.149189 34.05183 9.14919 34.14385 C 9.149189 34.20795 9.130836 34.26224 9.094132 34.306698 C 9.057427 34.350636 9.005214 34.381138 8.937492 34.398197 M 9.609031 34.89061 L 10.155723 34.89061 L 10.155723 35.02243 L 9.420597 35.02243 L 9.420597 34.89061 C 9.480048 34.829086 9.560953 34.74663 9.663313 34.64324 C 9.766189 34.53933 9.83081 34.472385 9.857175 34.4424 C 9.90732 34.386047 9.942215 34.33849 9.961861 34.299717 C 9.982021 34.260426 9.992103 34.221912 9.992104 34.184177 C 9.992103 34.122658 9.97039 34.07251 9.926966 34.033737 C 9.884057 33.994965 9.827967 33.975574 9.758693 33.975574 C 9.70958 33.975574 9.657625 33.984108 9.602827 34.001167 C 9.548546 34.018227 9.490387 34.044075 9.428351 34.078712 L 9.428351 33.92052 C 9.491421 33.89519 9.550355 33.876064 9.605154 33.863136 C 9.659952 33.850216 9.710097 33.843754 9.755591 33.84375 C 9.875527 33.843754 9.971166 33.873737 10.042508 33.933704 C 10.113848 33.99367 10.149519 34.0738 10.14952 34.17409 C 10.149519 34.221657 10.140472 34.266888 10.122379 34.309795 C 10.104801 34.35219 10.072491 34.402332 10.025448 34.46023 C 10.012523 34.475224 9.971424 34.518658 9.902151 34.590508 C 9.832877 34.66185 9.73517 34.761883 9.609031 34.89061 M 10.915664 34.001167 L 10.520185 34.6192 L 10.915664 34.6192 L 10.915664 34.001167 M 10.874565 33.86469 L 11.07153 33.86469 L 11.07153 34.6192 L 11.2367 34.6192 L 11.2367 34.749477 L 11.07153 34.749477 L 11.07153 35.02243 L 10.915664 35.02243 L 10.915664 34.749477 L 10.393011 34.749477 L 10.393011 34.598263 L 10.874565 33.86469 M 11.498027 33.86469 L 12.112959 33.86469 L 12.112959 33.996513 L 11.641485 33.996513 L 11.641485 34.280327 C 11.664231 34.272575 11.686978 34.266888 11.709725 34.263268 C 11.732471 34.259136 11.755217 34.257065 11.777964 34.257065 C 11.907205 34.257065 12.009565 34.29248 12.085042 34.363304 C 12.160519 34.434128 12.198257 34.530025 12.198258 34.650993 C 12.198257 34.775585 12.159485 34.872513 12.081941 34.941788 C 12.004395 35.010544 11.895057 35.04492 11.753925 35.04492 C 11.70533 35.04492 11.655701 35.040787 11.605039 35.032516 C 11.554893 35.02424 11.502938 35.011837 11.449174 34.995293 L 11.449174 34.837875 C 11.4957 34.86321 11.543778 34.88208 11.593407 34.894485 C 11.643036 34.90689 11.695508 34.913097 11.750824 34.913097 C 11.840258 34.913097 11.911083 34.889576 11.963297 34.84253 C 12.01551 34.795486 12.041617 34.73164 12.041617 34.650993 C 12.041617 34.570347 12.01551 34.506504 11.963297 34.459457 C 11.911083 34.412415 11.840258 34.388893 11.750824 34.388893 C 11.708949 34.388893 11.667075 34.393543 11.625201 34.40285 C 11.583843 34.412155 11.541452 34.426632 11.498027 34.44628 L 11.498027 33.86469 M 13.34825 33.967823 C 13.267603 33.967823 13.20686 34.00763 13.16602 34.08724 C 13.125696 34.166336 13.105534 34.2855 13.105534 34.444725 C 13.105534 34.60343 13.125696 34.72259 13.16602 34.802208 C 13.20686 34.881306 13.267603 34.92085 13.34825 34.92085 C 13.429413 34.92085 13.490157 34.881306 13.530481 34.802208 C 13.571321 34.72259 13.591741 34.60343 13.591742 34.444725 C 13.591741 34.2855 13.571321 34.166336 13.530481 34.08724 C 13.490157 34.00763 13.429413 33.967823 13.34825 33.967823 M 13.34825 33.84375 C 13.478008 33.843754 13.577007 33.89519 13.645248 33.998062 C 13.714003 34.100426 13.748381 34.249313 13.748382 34.444725 C 13.748381 34.63962 13.714003 34.78851 13.645248 34.891384 C 13.577007 34.993744 13.478008 35.04492 13.34825 35.04492 C 13.218491 35.04492 13.119234 34.993744 13.050478 34.891384 C 12.982238 34.78851 12.948118 34.63962 12.948118 34.444725 C 12.948118 34.249313 12.982238 34.100426 13.050478 33.998062 C 13.119234 33.89519 13.218491 33.843754 13.34825 33.84375 M 14.025993 33.86469 L 14.640925 33.86469 L 14.640925 33.996513 L 14.169452 33.996513 L 14.169452 34.280327 C 14.192198 34.272575 14.214944 34.266888 14.237691 34.263268 C 14.260437 34.259136 14.283184 34.257065 14.305931 34.257065 C 14.435172 34.257065 14.537531 34.29248 14.613009 34.363304 C 14.688485 34.434128 14.726224 34.530025 14.726225 34.650993 C 14.726224 34.775585 14.687451 34.872513 14.609907 34.941788 C 14.532362 35.010544 14.423023 35.04492 14.281892 35.04492 C 14.233297 35.04492 14.183668 35.040787 14.133006 35.032516 C 14.08286 35.02424 14.030904 35.011837 13.97714 34.995293 L 13.97714 34.837875 C 14.023667 34.86321 14.071745 34.88208 14.121374 34.894485 C 14.171002 34.90689 14.223474 34.913097 14.27879 34.913097 C 14.368225 34.913097 14.439049 34.889576 14.491263 34.84253 C 14.543476 34.795486 14.569583 34.73164 14.569584 34.650993 C 14.569583 34.570347 14.543476 34.506504 14.491263 34.459457 C 14.439049 34.412415 14.368225 34.388893 14.27879 34.388893 C 14.236915 34.388893 14.195041 34.393543 14.153167 34.40285 C 14.11181 34.412155 14.069418 34.426632 14.025993 34.44628 L 14.025993 33.86469 M 15.03718 33.86469 L 15.652112 33.86469 L 15.652112 33.996513 L 15.180638 33.996513 L 15.180638 34.280327 C 15.203384 34.272575 15.226131 34.266888 15.248878 34.263268 C 15.271624 34.259136 15.29437 34.257065 15.317117 34.257065 C 15.446359 34.257065 15.548718 34.29248 15.624196 34.363304 C 15.699672 34.434128 15.73741 34.530025 15.737411 34.650993 C 15.73741 34.775585 15.698638 34.872513 15.621094 34.941788 C 15.543548 35.010544 15.43421 35.04492 15.293078 35.04492 C 15.244483 35.04492 15.194855 35.040787 15.144192 35.032516 C 15.094046 35.02424 15.042091 35.011837 14.988327 34.995293 L 14.988327 34.837875 C 15.034854 34.86321 15.082931 34.88208 15.13256 34.894485 C 15.182189 34.90689 15.234661 34.913097 15.289977 34.913097 C 15.379411 34.913097 15.450236 34.889576 15.50245 34.84253 C 15.554663 34.795486 15.58077 34.73164 15.58077 34.650993 C 15.58077 34.570347 15.554663 34.506504 15.50245 34.459457 C 15.450236 34.412415 15.379411 34.388893 15.289977 34.388893 C 15.248102 34.388893 15.206228 34.393543 15.164354 34.40285 C 15.122996 34.412155 15.080605 34.426632 15.03718 34.44628 L 15.03718 33.86469 M 16.007269 33.86469 L 16.7517 33.86469 L 16.7517 33.931377 L 16.331406 35.02243 L 16.167786 35.02243 L 16.563265 33.996513 L 16.007269 33.996513 L 16.007269 33.86469 M 17.565147 33.86469 L 18.18008 33.86469 L 18.18008 33.996513 L 17.708605 33.996513 L 17.708605 34.280327 C 17.731352 34.272575 17.754095 34.266888 17.776844 34.263268 C 17.79959 34.259136 17.822336 34.257065 17.845083 34.257065 C 17.974323 34.257065 18.076685 34.29248 18.152164 34.363304 C 18.227638 34.434128 18.265375 34.530025 18.26538 34.650993 C 18.265375 34.775585 18.226604 34.872513 18.14906 34.941788 C 18.071516 35.010544 17.962175 35.04492 17.821045 35.04492 C 17.77245 35.04492 17.72282 35.040787 17.67216 35.032516 C 17.622011 35.02424 17.57006 35.011837 17.516293 34.995293 L 17.516293 34.837875 C 17.56282 34.86321 17.610895 34.88208 17.660528 34.894485 C 17.710155 34.90689 17.762629 34.913097 17.817944 34.913097 C 17.907375 34.913097 17.978205 34.889576 18.030416 34.84253 C 18.082628 34.795486 18.108736 34.73164 18.108736 34.650993 C 18.108736 34.570347 18.082628 34.506504 18.030416 34.459457 C 17.978205 34.412415 17.907375 34.388893 17.817944 34.388893 C 17.776068 34.388893 17.734194 34.393543 17.69232 34.40285 C 17.650965 34.412155 17.608572 34.426632 17.565147 34.44628 L 17.565147 33.86469 M 18.601925 34.89061 L 18.85782 34.89061 L 18.85782 34.00737 L 18.579435 34.06321 L 18.579435 33.92052 L 18.856272 33.86469 L 19.012913 33.86469 L 19.012913 34.89061 L 19.26881 34.89061 L 19.26881 35.02243 L 18.601925 35.02243 L 18.601925 34.89061 M 19.920963 33.967823 C 19.840317 33.967823 19.779572 34.00763 19.738731 34.08724 C 19.698408 34.166336 19.678247 34.2855 19.678247 34.444725 C 19.678247 34.60343 19.698408 34.72259 19.738731 34.802208 C 19.779572 34.881306 19.840317 34.92085 19.920963 34.92085 C 20.002129 34.92085 20.06287 34.881306 20.103191 34.802208 C 20.144032 34.72259 20.164454 34.60343 20.164454 34.444725 C 20.164454 34.2855 20.144032 34.166336 20.103191 34.08724 C 20.06287 34.00763 20.002129 33.967823 19.920963 33.967823 M 19.920963 33.84375 C 20.05072 33.843754 20.14972 33.89519 20.21796 33.998062 C 20.286716 34.100426 20.321096 34.249313 20.321096 34.444725 C 20.321096 34.63962 20.286716 34.78851 20.21796 34.891384 C 20.14972 34.993744 20.05072 35.04492 19.920963 35.04492 C 19.791204 35.04492 19.691948 34.993744 19.62319 34.891384 C 19.554953 34.78851 19.520832 34.63962 19.520832 34.444725 C 19.520832 34.249313 19.554953 34.100426 19.62319 33.998062 C 19.691948 33.89519 19.791204 33.843754 19.920963 33.84375 M 20.951536 34.381138 C 20.881227 34.381138 20.825396 34.405174 20.78404 34.453255 C 20.743198 34.50133 20.722778 34.56725 20.722778 34.650993 C 20.722778 34.734222 20.743198 34.80014 20.78404 34.848732 C 20.825396 34.896812 20.881227 34.92085 20.951536 34.92085 C 21.021845 34.92085 21.077415 34.896812 21.118258 34.848732 C 21.159616 34.80014 21.180292 34.734222 21.180294 34.650993 C 21.180292 34.56725 21.159616 34.50133 21.118258 34.453255 C 21.077415 34.405174 21.021845 34.381138 20.951536 34.381138 M 21.262491 33.89028 L 21.262491 34.03296 C 21.2232 34.01435 21.183395 34.000137 21.143072 33.99031 C 21.103264 33.980488 21.063717 33.975574 21.024427 33.975574 C 20.921036 33.975574 20.84194 34.01047 20.78714 34.080265 C 20.73286 34.150055 20.70184 34.255516 20.694088 34.39665 C 20.724588 34.351673 20.762844 34.31729 20.808851 34.29351 C 20.854864 34.269215 20.905523 34.257065 20.96084 34.257065 C 21.077158 34.257065 21.16892 34.29248 21.236126 34.363304 C 21.303848 34.43361 21.337708 34.529507 21.33771 34.650993 C 21.337708 34.769897 21.302555 34.865276 21.232248 34.937138 C 21.16194 35.00899 21.06837 35.04492 20.951536 35.04492 C 20.81764 35.04492 20.715282 34.993744 20.64446 34.891384 C 20.573631 34.78851 20.53822 34.63962 20.53822 34.444725 C 20.53822 34.26172 20.581646 34.115936 20.668495 34.00737 C 20.755348 33.898293 20.871923 33.843754 21.018225 33.84375 C 21.057514 33.843754 21.09706 33.84763 21.136868 33.855385 C 21.177193 33.863136 21.219065 33.87477 21.262491 33.89028 M 22.115486 33.86469 L 22.730415 33.86469 L 22.730415 33.996513 L 22.258944 33.996513 L 22.258944 34.280327 C 22.281693 34.272575 22.304436 34.266888 22.327185 34.263268 C 22.34993 34.259136 22.372677 34.257065 22.395424 34.257065 C 22.524664 34.257065 22.627024 34.29248 22.7025 34.363304 C 22.77798 34.434128 22.815716 34.530025 22.815716 34.650993 C 22.815716 34.775585 22.776943 34.872513 22.6994 34.941788 C 22.621857 35.010544 22.512516 35.04492 22.371384 35.04492 C 22.322788 35.04492 22.27316 35.040787 22.222498 35.032516 C 22.172352 35.02424 22.120396 35.011837 22.066631 34.995293 L 22.066631 34.837875 C 22.11316 34.86321 22.161238 34.88208 22.210869 34.894485 C 22.260496 34.90689 22.312967 34.913097 22.368284 34.913097 C 22.457718 34.913097 22.528542 34.889576 22.580755 34.84253 C 22.632969 34.795486 22.659077 34.73164 22.659077 34.650993 C 22.659077 34.570347 22.632969 34.506504 22.580755 34.459457 C 22.528542 34.412415 22.457718 34.388893 22.368284 34.388893 C 22.326408 34.388893 22.284534 34.393543 22.24266 34.40285 C 22.201302 34.412155 22.158913 34.426632 22.115486 34.44628 L 22.115486 33.86469 M 23.555496 34.001167 L 23.160015 34.6192 L 23.555496 34.6192 L 23.555496 34.001167 M 23.5144 33.86469 L 23.711365 33.86469 L 23.711365 34.6192 L 23.876532 34.6192 L 23.876532 34.749477 L 23.711365 34.749477 L 23.711365 35.02243 L 23.555496 35.02243 L 23.555496 34.749477 L 23.032845 34.749477 L 23.032845 34.598263 L 23.5144 33.86469 M 24.471304 33.967823 C 24.390656 33.967823 24.329912 34.00763 24.289072 34.08724 C 24.248749 34.166336 24.228588 34.2855 24.228588 34.444725 C 24.228588 34.60343 24.248749 34.72259 24.289072 34.802208 C 24.329912 34.881306 24.390656 34.92085 24.471304 34.92085 C 24.552464 34.92085 24.61321 34.881306 24.653534 34.802208 C 24.694372 34.72259 24.714792 34.60343 24.714794 34.444725 C 24.714792 34.2855 24.694372 34.166336 24.653534 34.08724 C 24.61321 34.00763 24.552464 33.967823 24.471304 33.967823 M 24.471304 33.84375 C 24.60106 33.843754 24.70006 33.89519 24.7683 33.998062 C 24.837055 34.100426 24.871431 34.249313 24.871435 34.444725 C 24.871431 34.63962 24.837055 34.78851 24.7683 34.891384 C 24.70006 34.993744 24.60106 35.04492 24.471304 35.04492 C 24.341543 35.04492 24.242289 34.993744 24.17353 34.891384 C 24.10529 34.78851 24.071173 34.63962 24.071173 34.444725 C 24.071173 34.249313 24.10529 34.100426 24.17353 33.998062 C 24.242289 33.89519 24.341543 33.843754 24.471304 33.84375 M 25.501877 34.381138 C 25.431568 34.381138 25.375736 34.405174 25.334375 34.453255 C 25.293535 34.50133 25.273115 34.56725 25.273115 34.650993 C 25.273115 34.734222 25.293535 34.80014 25.334375 34.848732 C 25.375736 34.896812 25.431568 34.92085 25.501877 34.92085 C 25.572182 34.92085 25.627756 34.896812 25.668596 34.848732 C 25.709951 34.80014 25.730633 34.734222 25.730633 34.650993 C 25.730633 34.56725 25.709951 34.50133 25.668596 34.453255 C 25.627756 34.405174 25.572182 34.381138 25.501877 34.381138 M 25.81283 33.89028 L 25.81283 34.03296 C 25.77354 34.01435 25.733734 34.000137 25.693413 33.99031 C 25.653605 33.980488 25.614056 33.975574 25.574768 33.975574 C 25.471373 33.975574 25.392277 34.01047 25.33748 34.080265 C 25.283195 34.150055 25.25218 34.255516 25.244425 34.39665 C 25.274923 34.351673 25.313185 34.31729 25.359192 34.29351 C 25.405205 34.269215 25.455864 34.257065 25.51118 34.257065 C 25.627497 34.257065 25.719255 34.29248 25.786465 34.363304 C 25.854189 34.43361 25.888048 34.529507 25.888048 34.650993 C 25.888048 34.769897 25.852894 34.865276 25.782587 34.937138 C 25.71228 35.00899 25.618708 35.04492 25.501877 35.04492 C 25.36798 35.04492 25.26562 34.993744 25.194796 34.891384 C 25.123972 34.78851 25.08856 34.63962 25.08856 34.444725 C 25.08856 34.26172 25.131985 34.115936 25.218836 34.00737 C 25.305689 33.898293 25.42226 33.843754 25.568563 33.84375 C 25.607853 33.843754 25.6474 33.84763 25.687208 33.855385 C 25.72753 33.863136 25.769403 33.87477 25.81283 33.89028 M 26.665829 33.86469 L 27.280758 33.86469 L 27.280758 33.996513 L 26.809284 33.996513 L 26.809284 34.280327 C 26.83203 34.272575 26.854776 34.266888 26.877523 34.263268 C 26.90027 34.259136 26.923016 34.257065 26.945765 34.257065 C 27.075005 34.257065 27.177364 34.29248 27.25284 34.363304 C 27.328318 34.434128 27.366056 34.530025 27.366056 34.650993 C 27.366056 34.775585 27.327284 34.872513 27.24974 34.941788 C 27.172194 35.010544 27.062857 35.04492 26.921724 35.04492 C 26.873129 35.04492 26.8235 35.040787 26.77284 35.032516 C 26.722692 35.02424 26.670736 35.011837 26.616972 34.995293 L 26.616972 34.837875 C 26.6635 34.86321 26.711576 34.88208 26.761206 34.894485 C 26.810837 34.90689 26.863308 34.913097 26.918625 34.913097 C 27.008057 34.913097 27.078882 34.889576 27.131096 34.84253 C 27.183308 34.795486 27.209415 34.73164 27.209415 34.650993 C 27.209415 34.570347 27.183308 34.506504 27.131096 34.459457 C 27.078882 34.412415 27.008057 34.388893 26.918625 34.388893 C 26.876747 34.388893 26.834871 34.393543 26.793 34.40285 C 26.751642 34.412155 26.709251 34.426632 26.665829 34.44628 L 26.665829 33.86469 M 28.105837 34.001167 L 27.710356 34.6192 L 28.105837 34.6192 L 28.105837 34.001167 M 28.064735 33.86469 L 28.261702 33.86469 L 28.261702 34.6192 L 28.426872 34.6192 L 28.426872 34.749477 L 28.261702 34.749477 L 28.261702 35.02243 L 28.105837 35.02243 L 28.105837 34.749477 L 27.583183 34.749477 L 27.583183 34.598263 L 28.064735 33.86469 M 29.041027 34.381138 C 28.97072 34.381138 28.914888 34.405174 28.873531 34.453255 C 28.832691 34.50133 28.812271 34.56725 28.812271 34.650993 C 28.812271 34.734222 28.832691 34.80014 28.873531 34.848732 C 28.914888 34.896812 28.97072 34.92085 29.041027 34.92085 C 29.111336 34.92085 29.16691 34.896812 29.207752 34.848732 C 29.249107 34.80014 29.269789 34.734222 29.269789 34.650993 C 29.269789 34.56725 29.249107 34.50133 29.207752 34.453255 C 29.16691 34.405174 29.111336 34.381138 29.041027 34.381138 M 29.351984 33.89028 L 29.351984 34.03296 C 29.312696 34.01435 29.272888 34.000137 29.232565 33.99031 C 29.19276 33.980488 29.15321 33.975574 29.11392 33.975574 C 29.010529 33.975574 28.931433 34.01047 28.876633 34.080265 C 28.822351 34.150055 28.791334 34.255516 28.78358 34.39665 C 28.81408 34.351673 28.852337 34.31729 28.898346 34.29351 C 28.944357 34.269215 28.995018 34.257065 29.050337 34.257065 C 29.166653 34.257065 29.258411 34.29248 29.32562 34.363304 C 29.39334 34.43361 29.427202 34.529507 29.427204 34.650993 C 29.427202 34.769897 29.392048 34.865276 29.32174 34.937138 C 29.251432 35.00899 29.157864 35.04492 29.041027 35.04492 C 28.907131 35.04492 28.804775 34.993744 28.733952 34.891384 C 28.663126 34.78851 28.627714 34.63962 28.627714 34.444725 C 28.627714 34.26172 28.67114 34.115936 28.75799 34.00737 C 28.84484 33.898293 28.961416 33.843754 29.107718 33.84375 C 29.147003 33.843754 29.186554 33.84763 29.22636 33.855385 C 29.266684 33.863136 29.308558 33.87477 29.351984 33.89028 M 29.699389 33.86469 L 30.314316 33.86469 L 30.314316 33.996513 L 29.842844 33.996513 L 29.842844 34.280327 C 29.86559 34.272575 29.888336 34.266888 29.911083 34.263268 C 29.93383 34.259136 29.956575 34.257065 29.979324 34.257065 C 30.108564 34.257065 30.210924 34.29248 30.2864 34.363304 C 30.361876 34.434128 30.399616 34.530025 30.399616 34.650993 C 30.399616 34.775585 30.360844 34.872513 30.2833 34.941788 C 30.205751 35.010544 30.096416 35.04492 29.955284 35.04492 C 29.906689 35.04492 29.85706 35.040787 29.806398 35.032516 C 29.756252 35.02424 29.704296 35.011837 29.650532 34.995293 L 29.650532 34.837875 C 29.69706 34.86321 29.745136 34.88208 29.794764 34.894485 C 29.844397 34.90689 29.896868 34.913097 29.952185 34.913097 C 30.041616 34.913097 30.11244 34.889576 30.164656 34.84253 C 30.216867 34.795486 30.242975 34.73164 30.242975 34.650993 C 30.242975 34.570347 30.216867 34.506504 30.164656 34.459457 C 30.11244 34.412415 30.041616 34.388893 29.952185 34.388893 C 29.910309 34.388893 29.868431 34.393543 29.82656 34.40285 C 29.785202 34.412155 29.742811 34.426632 29.699389 34.44628 L 29.699389 33.86469 M 31.175066 33.86469 L 31.919498 33.86469 L 31.919498 33.931377 L 31.499205 35.02243 L 31.335585 35.02243 L 31.731064 33.996513 L 31.175066 33.996513 L 31.175066 33.86469 M 32.560795 33.967823 C 32.48015 33.967823 32.419407 34.00763 32.378567 34.08724 C 32.33824 34.166336 32.31808 34.2855 32.31808 34.444725 C 32.31808 34.60343 32.33824 34.72259 32.378567 34.802208 C 32.419407 34.881306 32.48015 34.92085 32.560795 34.92085 C 32.64196 34.92085 32.702705 34.881306 32.743027 34.802208 C 32.783867 34.72259 32.804287 34.60343 32.804287 34.444725 C 32.804287 34.2855 32.783867 34.166336 32.743027 34.08724 C 32.702705 34.00763 32.64196 33.967823 32.560795 33.967823 M 32.560795 33.84375 C 32.690556 33.843754 32.789555 33.89519 32.857796 33.998062 C 32.92655 34.100426 32.96093 34.249313 32.96093 34.444725 C 32.96093 34.63962 32.92655 34.78851 32.857796 34.891384 C 32.789555 34.993744 32.690556 35.04492 32.560795 35.04492 C 32.431038 35.04492 32.33178 34.993744 32.263023 34.891384 C 32.194782 34.78851 32.160664 34.63962 32.160664 34.444725 C 32.160664 34.249313 32.194782 34.100426 32.263023 33.998062 C 32.33178 33.89519 32.431038 33.843754 32.560795 33.84375 M 33.59137 34.381138 C 33.52106 34.381138 33.46523 34.405174 33.42387 34.453255 C 33.38303 34.50133 33.36261 34.56725 33.36261 34.650993 C 33.36261 34.734222 33.38303 34.80014 33.42387 34.848732 C 33.46523 34.896812 33.52106 34.92085 33.59137 34.92085 C 33.66167 34.92085 33.717247 34.896812 33.758087 34.848732 C 33.799446 34.80014 33.82013 34.734222 33.82013 34.650993 C 33.82013 34.56725 33.799446 34.50133 33.758087 34.453255 C 33.717247 34.405174 33.66167 34.381138 33.59137 34.381138 M 33.902325 33.89028 L 33.902325 34.03296 C 33.863033 34.01435 33.823223 34.000137 33.782906 33.99031 C 33.743095 33.980488 33.70355 33.975574 33.66426 33.975574 C 33.560863 33.975574 33.48177 34.01047 33.42697 34.080265 C 33.37269 34.150055 33.34167 34.255516 33.33392 34.39665 C 33.36442 34.351673 33.402676 34.31729 33.448685 34.29351 C 33.494694 34.269215 33.545357 34.257065 33.600674 34.257065 C 33.71699 34.257065 33.80875 34.29248 33.87596 34.363304 C 33.94368 34.43361 33.97754 34.529507 33.977543 34.650993 C 33.97754 34.769897 33.942387 34.865276 33.87208 34.937138 C 33.801773 35.00899 33.7082 35.04492 33.59137 35.04492 C 33.457474 35.04492 33.355114 34.993744 33.284286 34.891384 C 33.213463 34.78851 33.17805 34.63962 33.17805 34.444725 C 33.17805 34.26172 33.221478 34.115936 33.308327 34.00737 C 33.39518 33.898293 33.511753 33.843754 33.658054 33.84375 C 33.697346 33.843754 33.736893 33.84763 33.7767 33.855385 C 33.817024 33.863136 33.858894 33.87477 33.902325 33.89028 M 34.24973 33.86469 L 34.864655 33.86469 L 34.864655 33.996513 L 34.393185 33.996513 L 34.393185 34.280327 C 34.41593 34.272575 34.438675 34.266888 34.461426 34.263268 C 34.48417 34.259136 34.506916 34.257065 34.529663 34.257065 C 34.658905 34.257065 34.761265 34.29248 34.836742 34.363304 C 34.912216 34.434128 34.949955 34.530025 34.94996 34.650993 C 34.949955 34.775585 34.911182 34.872513 34.83364 34.941788 C 34.756096 35.010544 34.646755 35.04492 34.505623 35.04492 C 34.45703 35.04492 34.4074 35.040787 34.356735 35.032516 C 34.30659 35.02424 34.254635 35.011837 34.20087 34.995293 L 34.20087 34.837875 C 34.2474 34.86321 34.29548 34.88208 34.345108 34.894485 C 34.394737 34.90689 34.44721 34.913097 34.502525 34.913097 C 34.59196 34.913097 34.662785 34.889576 34.714996 34.84253 C 34.76721 34.795486 34.793316 34.73164 34.793316 34.650993 C 34.793316 34.570347 34.76721 34.506504 34.714996 34.459457 C 34.662785 34.412415 34.59196 34.388893 34.502525 34.388893 C 34.460648 34.388893 34.418777 34.393543 34.3769 34.40285 C 34.335545 34.412155 34.29315 34.426632 34.24973 34.44628 L 34.24973 33.86469 M 35.725407 33.86469 L 36.46984 33.86469 L 36.46984 33.931377 L 36.049545 35.02243 L 35.885925 35.02243 L 36.281403 33.996513 L 35.725407 33.996513 L 35.725407 33.86469 M 37.13052 34.381138 C 37.060215 34.381138 37.00438 34.405174 36.963024 34.453255 C 36.922184 34.50133 36.901764 34.56725 36.901764 34.650993 C 36.901764 34.734222 36.922184 34.80014 36.963024 34.848732 C 37.00438 34.896812 37.060215 34.92085 37.13052 34.92085 C 37.20083 34.92085 37.2564 34.896812 37.297245 34.848732 C 37.3386 34.80014 37.35928 34.734222 37.35928 34.650993 C 37.35928 34.56725 37.3386 34.50133 37.297245 34.453255 C 37.2564 34.405174 37.20083 34.381138 37.13052 34.381138 M 37.441475 33.89028 L 37.441475 34.03296 C 37.402187 34.01435 37.36238 34.000137 37.322056 33.99031 C 37.282253 33.980488 37.242702 33.975574 37.203415 33.975574 C 37.10002 33.975574 37.020924 34.01047 36.96613 34.080265 C 36.91184 34.150055 36.880825 34.255516 36.873074 34.39665 C 36.903572 34.351673 36.94183 34.31729 36.98784 34.29351 C 37.033848 34.269215 37.08451 34.257065 37.139828 34.257065 C 37.256145 34.257065 37.347904 34.29248 37.41511 34.363304 C 37.482834 34.43361 37.516697 34.529507 37.516697 34.650993 C 37.516697 34.769897 37.48154 34.865276 37.411232 34.937138 C 37.340927 35.00899 37.247356 35.04492 37.13052 35.04492 C 36.996628 35.04492 36.894268 34.993744 36.823444 34.891384 C 36.75262 34.78851 36.71721 34.63962 36.71721 34.444725 C 36.71721 34.26172 36.76063 34.115936 36.84748 34.00737 C 36.934338 33.898293 37.050907 33.843754 37.19721 33.84375 C 37.2365 33.843754 37.276047 33.84763 37.315857 33.855385 C 37.356174 33.863136 37.398052 33.87477 37.441475 33.89028 M 37.74778 33.86469 L 38.49221 33.86469 L 38.49221 33.931377 L 38.07192 35.02243 L 37.908295 35.02243 L 38.303776 33.996513 L 37.74778 33.996513 L 37.74778 33.86469 M 38.80317 34.9984 L 38.80317 34.855713 C 38.842457 34.874325 38.882263 34.88854 38.922585 34.89836 C 38.96291 34.908184 39.002457 34.913097 39.04123 34.913097 C 39.144623 34.913097 39.22346 34.87846 39.277744 34.809185 C 39.33254 34.739395 39.363815 34.633675 39.37157 34.492027 C 39.341587 34.536488 39.30359 34.570606 39.25758 34.594383 C 39.21157 34.618168 39.16065 34.630054 39.104816 34.630054 C 38.989017 34.630054 38.897255 34.59516 38.829533 34.52537 C 38.76233 34.455063 38.728725 34.35917 38.728725 34.23768 C 38.728725 34.118774 38.76388 34.023396 38.834183 33.951534 C 38.90449 33.87968 38.998062 33.843754 39.114895 33.84375 C 39.24879 33.843754 39.35089 33.89519 39.4212 33.998062 C 39.492023 34.100426 39.527435 34.249313 39.527435 34.444725 C 39.527435 34.627216 39.484013 34.773 39.39716 34.88208 C 39.31083 34.99064 39.19451 35.04492 39.048206 35.04492 C 39.00892 35.04492 38.969112 35.04104 38.92879 35.03329 C 38.888466 35.025536 38.846592 35.013905 38.80317 34.9984 M 39.114895 34.507538 C 39.185204 34.507538 39.24078 34.483498 39.28162 34.43542 C 39.322975 34.38734 39.343655 34.321423 39.343655 34.23768 C 39.343655 34.15445 39.322975 34.08879 39.28162 34.04071 C 39.24078 33.99212 39.185204 33.967823 39.114895 33.967823 C 39.04459 33.967823 38.98876 33.99212 38.9474 34.04071 C 38.90656 34.08879 38.88614 34.15445 38.88614 34.23768 C 38.88614 34.321423 38.90656 34.38734 38.9474 34.43542 C 38.98876 34.483498 39.04459 34.507538 39.114895 34.507538 M 39.81435 34.9984 L 39.81435 34.855713 C 39.853645 34.874325 39.893448 34.88854 39.933773 34.89836 C 39.974094 34.908184 40.013645 34.913097 40.052418 34.913097 C 40.155807 34.913097 40.23465 34.87846 40.28893 34.809185 C 40.343727 34.739395 40.375004 34.633675 40.38276 34.492027 C 40.352776 34.536488 40.314777 34.570606 40.26877 34.594383 C 40.222755 34.618168 40.171837 34.630054 40.116005 34.630054 C 40.0002 34.630054 39.90844 34.59516 39.84072 34.52537 C 39.773514 34.455063 39.73991 34.35917 39.73991 34.23768 C 39.73991 34.118774 39.775063 34.023396 39.84537 33.951534 C 39.91568 33.87968 40.00925 33.843754 40.126083 33.84375 C 40.259975 33.843754 40.36208 33.89519 40.43239 33.998062 C 40.503212 34.100426 40.538624 34.249313 40.538624 34.444725 C 40.538624 34.627216 40.4952 34.773 40.408348 34.88208 C 40.322018 34.99064 40.205696 35.04492 40.059395 35.04492 C 40.020103 35.04492 39.9803 35.04104 39.939976 35.03329 C 39.89965 35.025536 39.85778 35.013905 39.81435 34.9984 M 40.126083 34.507538 C 40.196392 34.507538 40.251965 34.483498 40.29281 34.43542 C 40.334164 34.38734 40.35484 34.321423 40.35484 34.23768 C 40.35484 34.15445 40.334164 34.08879 40.29281 34.04071 C 40.251965 33.99212 40.196392 33.967823 40.126083 33.967823 C 40.055775 33.967823 39.999943 33.99212 39.958588 34.04071 C 39.917747 34.08879 39.897327 34.15445 39.897327 34.23768 C 39.897327 34.321423 39.917747 34.38734 39.958588 34.43542 C 39.999943 34.483498 40.055775 34.507538 40.126083 34.507538 " font-variant="normal" stroke-linecap="butt" stroke-opacity="1" fill="#000000" font-weight="normal" stroke-width="1pt" font-family="Bitstream Vera Sans" font-style="normal" stroke-linejoin="miter" font-stretch="normal" font-size="1.58812129px"/>
        <rect fill-opacity="0.3976608" display="inline" stroke="none" visibility="visible" stroke-linecap="butt" width="23.433577" stroke-miterlimit="4" stroke-opacity="1" fill="#000000" stroke-dasharray="none" stroke-width="1" color="#000000" height="3.5498683" x="19.027441" stroke-linejoin="miter" rx="1.3908417" y="13.778381" ry="1.8304008" stroke-dashoffset="0" fill-rule="evenodd"/>
    </g>
</svg>
