<?xml version="1.0" encoding="UTF-8"?>
<svg xmlns="http://www.w3.org/2000/svg" xmlns:xlink="http://www.w3.org/1999/xlink" contentScriptType="text/ecmascript" width="88" baseProfile="tiny" zoomAndPan="magnify" contentStyleType="text/css" viewBox="0 0 88 88" height="88" preserveAspectRatio="xMidYMid meet" version="1.0">
    <defs>
        <radialGradient gradientTransform="matrix(1.000000,0.000000,0.000000,0.284916,0.000000,30.08928)" id="linearGradient4542" gradientUnits="userSpaceOnUse" xlink:show="other" xlink:type="simple" r="15.821514" cx="24.306795" fx="24.306795" cy="42.07798" fy="42.07798" xlink:actuate="onLoad">
            <stop stop-opacity="1" stop-color="#000000" offset="0"/>
            <stop stop-opacity="0" stop-color="#000000" offset="1"/>
        </radialGradient>
        <radialGradient gradientTransform="matrix(0.229703,0,0,0.229703,4.613529,3.979808)" id="radialGradient2285" gradientUnits="userSpaceOnUse" xlink:show="other" xlink:type="simple" r="5.257" cx="20.8921" fx="20.8921" cy="64.5679" fy="64.5679" xlink:actuate="onLoad">
            <stop offset="0" stop-color="#f0f0f0"/>
            <stop stop-opacity="1.0000000" stop-color="#9a9a9a" offset="1.0000000"/>
        </radialGradient>
        <radialGradient gradientTransform="matrix(0.229703,0,0,0.229703,4.613529,3.979808)" id="radialGradient2283" gradientUnits="userSpaceOnUse" xlink:show="other" xlink:type="simple" r="5.256" cx="20.8921" fx="20.8921" cy="114.5684" fy="114.5684" xlink:actuate="onLoad">
            <stop offset="0" stop-color="#f0f0f0"/>
            <stop stop-opacity="1.0000000" stop-color="#9a9a9a" offset="1.0000000"/>
        </radialGradient>
        <radialGradient gradientTransform="matrix(0.968273,0,0,1.032767,3.353553,0.646447)" id="radialGradient15668" gradientUnits="userSpaceOnUse" xlink:show="other" xlink:type="simple" r="38.158695" cx="8.1435566" fx="8.1435566" cy="7.2678967" fy="7.2678967" xlink:actuate="onLoad">
            <stop stop-opacity="1.0000000" stop-color="#ffffff" offset="0.0000000"/>
            <stop stop-opacity="1.0000000" stop-color="#f8f8f8" offset="1.0000000"/>
        </radialGradient>
        <radialGradient gradientTransform="scale(0.960493,1.041132)" id="radialGradient15658" gradientUnits="userSpaceOnUse" xlink:show="other" xlink:type="simple" r="86.708450" cx="33.966679" fx="33.966679" cy="35.736916" fy="35.736916" xlink:actuate="onLoad">
            <stop stop-opacity="1.0000000" stop-color="#fafafa" offset="0.0000000"/>
            <stop stop-opacity="1.0000000" stop-color="#bbbbbb" offset="1.0000000"/>
        </radialGradient>
        <radialGradient gradientTransform="matrix(0.968273,0,0,1.032767,3.353553,0.646447)" id="radialGradient15656" gradientUnits="userSpaceOnUse" xlink:show="other" xlink:type="simple" r="37.751713" cx="8.8244190" fx="8.8244190" cy="3.7561285" fy="3.7561285" xlink:actuate="onLoad">
            <stop stop-opacity="1.0000000" stop-color="#a3a3a3" offset="0.0000000"/>
            <stop stop-opacity="1.0000000" stop-color="#4c4c4c" offset="1.0000000"/>
        </radialGradient>
        <linearGradient xlink:type="simple" xlink:actuate="onLoad" id="linearGradient259" xlink:show="other">
            <stop stop-opacity="1.0000000" stop-color="#fafafa" offset="0.0000000"/>
            <stop stop-opacity="1.0000000" stop-color="#bbbbbb" offset="1.0000000"/>
        </linearGradient>
        <linearGradient xlink:type="simple" xlink:actuate="onLoad" id="linearGradient269" xlink:show="other">
            <stop stop-opacity="1.0000000" stop-color="#a3a3a3" offset="0.0000000"/>
            <stop stop-opacity="1.0000000" stop-color="#4c4c4c" offset="1.0000000"/>
        </linearGradient>
        <radialGradient gradientUnits="userSpaceOnUse" xlink:type="simple" r="5.256" xlink:actuate="onLoad" cx="20.8921" id="aigrd2" cy="114.5684" xlink:show="other" fx="20.8921" fy="114.5684">
            <stop stop-color="#f0f0f0" offset="0"/>
            <stop stop-opacity="1.0000000" stop-color="#9a9a9a" offset="1.0000000"/>
        </radialGradient>
        <radialGradient gradientUnits="userSpaceOnUse" xlink:type="simple" r="5.257" xlink:actuate="onLoad" cx="20.8921" id="aigrd3" cy="64.5679" xlink:show="other" fx="20.8921" fy="64.5679">
            <stop stop-color="#f0f0f0" offset="0"/>
            <stop stop-opacity="1.0000000" stop-color="#9a9a9a" offset="1.0000000"/>
        </radialGradient>
        <linearGradient xlink:type="simple" xlink:actuate="onLoad" id="linearGradient15662" xlink:show="other">
            <stop stop-opacity="1.0000000" stop-color="#ffffff" offset="0.0000000"/>
            <stop stop-opacity="1.0000000" stop-color="#f8f8f8" offset="1.0000000"/>
        </linearGradient>
        <linearGradient xlink:type="simple" xlink:actuate="onLoad" id="linearGradient4542" xlink:show="other">
            <stop stop-opacity="1" stop-color="#000000" offset="0"/>
            <stop stop-opacity="0" stop-color="#000000" offset="1"/>
        </linearGradient>
        <linearGradient gradientTransform="matrix(1.098989,0,0,-0.797757,-1.953865,37.324)" id="linearGradient7671" gradientUnits="userSpaceOnUse" stroke-miterlimit="4.0000000" xlink:show="other" xlink:type="simple" stroke-dasharray="none" x1="21.9326" y1="24.627399" stroke-width="1.2166667" y2="7.1090999" x2="21.9326" xlink:actuate="onLoad">
            <stop stop-opacity="1" stop-color="#8595bc" offset="0"/>
            <stop stop-opacity="1" stop-color="#041a3b" offset="1"/>
        </linearGradient>
        <linearGradient id="linearGradient7648" gradientUnits="userSpaceOnUse" stroke-miterlimit="4.0000000" xlink:show="other" xlink:type="simple" stroke-dasharray="none" y1="24.6274" x1="21.9326" y2="7.1091" x2="21.9326" stroke-width="1.2166667" xlink:actuate="onLoad">
            <stop stop-opacity="1" stop-color="#8595bc" offset="0"/>
            <stop stop-opacity="1" stop-color="#041a3b" offset="1"/>
        </linearGradient>
        <linearGradient gradientTransform="matrix(2.774389,0,0,1.969706,-1892.179,-872.8854)" id="linearGradient6715" gradientUnits="userSpaceOnUse" xlink:show="other" xlink:type="simple" x1="302.85715" y1="366.64789" y2="609.50507" x2="302.85715" xlink:actuate="onLoad">
            <stop stop-opacity="0" stop-color="#000000" offset="0"/>
            <stop stop-opacity="1" stop-color="#000000" offset="0.5"/>
            <stop stop-opacity="0" stop-color="#000000" offset="1"/>
        </linearGradient>
        <linearGradient xlink:type="simple" xlink:actuate="onLoad" id="linearGradient5048" xlink:show="other">
            <stop stop-opacity="0" stop-color="#000000" offset="0"/>
            <stop stop-opacity="1" stop-color="#000000" offset="0.5"/>
            <stop stop-opacity="0" stop-color="#000000" offset="1"/>
        </linearGradient>
        <radialGradient gradientTransform="matrix(2.774389,0,0,1.969706,-1891.633,-872.8854)" id="radialGradient6717" gradientUnits="userSpaceOnUse" xlink:show="other" xlink:type="simple" r="117.14286" cx="605.71429" fx="605.71429" cy="486.64789" fy="486.64789" xlink:actuate="onLoad">
            <stop stop-opacity="1" stop-color="#000000" offset="0"/>
            <stop stop-opacity="0" stop-color="#000000" offset="1"/>
        </radialGradient>
        <linearGradient xlink:type="simple" xlink:actuate="onLoad" id="linearGradient5060" xlink:show="other">
            <stop stop-opacity="1" stop-color="#000000" offset="0"/>
            <stop stop-opacity="0" stop-color="#000000" offset="1"/>
        </linearGradient>
        <radialGradient gradientTransform="matrix(-2.774389,0,0,1.969706,112.7623,-872.8854)" id="radialGradient6719" gradientUnits="userSpaceOnUse" xlink:show="other" xlink:type="simple" r="117.14286" cx="605.71429" fx="605.71429" cy="486.64789" fy="486.64789" xlink:actuate="onLoad">
            <stop stop-opacity="1" stop-color="#000000" offset="0"/>
            <stop stop-opacity="0" stop-color="#000000" offset="1"/>
        </radialGradient>
    </defs>
    <g transform="matrix(1.672441,0,0,1.672441,4.9887469,2.6751715)">
        <g>
            <g transform="matrix(2.105461e-2,0,0,2.086758e-2,42.85172,41.1536)" display="inline">
                <rect fill-opacity="0.40206185" display="inline" stroke="none" visibility="visible" stroke-linecap="round" width="1339.6335" stroke-miterlimit="4" stroke-opacity="1" fill="url(#linearGradient6715)" stroke-dasharray="none" stroke-width="1" color="#000000" height="478.35718" x="-1559.2523" stroke-linejoin="miter" y="-150.69685" stroke-dashoffset="0" fill-rule="nonzero"/>
                <path fill-opacity="0.40206185" display="inline" stroke="none" d="M -219.61876 -150.68037 C -219.61876 -150.68037 -219.61876 327.6504 -219.61876 327.6504 C -76.74459 328.55087 125.78146 220.48076 125.78138 88.45424 C 125.78138 -43.572304 -33.655437 -150.68036 -219.61876 -150.68037 z " visibility="visible" stroke-linecap="round" stroke-miterlimit="4" stroke-opacity="1" fill="url(#radialGradient6717)" stroke-dasharray="none" stroke-width="1" color="#000000" stroke-linejoin="miter" stroke-dashoffset="0" fill-rule="nonzero"/>
                <path fill-opacity="0.40206185" display="inline" stroke="none" d="M -1559.2523 -150.68037 C -1559.2523 -150.68037 -1559.2523 327.6504 -1559.2523 327.6504 C -1702.1263 328.55087 -1904.6523 220.48076 -1904.6523 88.45424 C -1904.6523 -43.572304 -1745.2156 -150.68036 -1559.2523 -150.68037 z " visibility="visible" stroke-linecap="round" stroke-miterlimit="4" stroke-opacity="1" fill="url(#radialGradient6719)" stroke-dasharray="none" stroke-width="1" color="#000000" stroke-linejoin="miter" stroke-dashoffset="0" fill-rule="nonzero"/>
            </g>
        </g>
        <g display="inline">
            <rect fill-opacity="1" display="block" stroke="url(#radialGradient15656)" visibility="visible" stroke-linecap="round" width="34.875" stroke-miterlimit="4" stroke-opacity="1" fill="url(#radialGradient15658)" stroke-width="1" color="#000000" height="40.920494" x="6.6035528" stroke-linejoin="round" y="3.6464462" ry="1.1490486" stroke-dashoffset="0" fill-rule="nonzero"/>
            <rect fill-opacity="1" display="block" stroke="url(#radialGradient15668)" visibility="visible" stroke-linecap="round" width="32.775887" stroke-miterlimit="4" stroke-opacity="1" fill="none" stroke-width="1" color="#000000" height="38.946384" x="7.6660538" stroke-linejoin="round" rx="0.14904857" y="4.5839462" ry="0.14904857" stroke-dashoffset="0" fill-rule="nonzero"/>
            <g transform="translate(0.646447,-3.798933e-2)">
                <g transform="matrix(0.229703,0,0,0.229703,4.967081,4.244972)" fill-opacity="1" fill="#ffffff" fill-rule="nonzero" stroke="#000000" stroke-miterlimit="4">
                    <radialGradient gradientUnits="userSpaceOnUse" xlink:type="simple" r="5.256" xlink:actuate="onLoad" cx="20.892099" cy="114.5684" xlink:show="other" fx="20.892099" fy="114.5684">
                        <stop stop-color="#f0f0f0" offset="0"/>
                        <stop stop-color="#474747" offset="1"/>
                    </radialGradient>
                    <path d="M 23.428 113.07 C 23.428 115.043 21.828 116.642 19.855 116.642 C 17.881 116.642 16.282 115.042 16.282 113.07 C 16.282 111.096 17.882 109.497 19.855 109.497 C 21.828 109.497 23.428 111.097 23.428 113.07 z " stroke="none"/>
                    <radialGradient gradientUnits="userSpaceOnUse" xlink:type="simple" r="5.257" xlink:actuate="onLoad" cx="20.892099" cy="64.567902" xlink:show="other" fx="20.892099" fy="64.567902">
                        <stop stop-color="#f0f0f0" offset="0"/>
                        <stop stop-color="#474747" offset="1"/>
                    </radialGradient>
                    <path d="M 23.428 63.07 C 23.428 65.043 21.828 66.643 19.855 66.643 C 17.881 66.643 16.282 65.043 16.282 63.07 C 16.282 61.096 17.882 59.497 19.855 59.497 C 21.828 59.497 23.428 61.097 23.428 63.07 z " stroke="none"/>
                </g>
                <path fill="url(#radialGradient2283)" d="M 9.995011 29.952326 C 9.995011 30.40553 9.627486 30.772823 9.174282 30.772823 C 8.720848 30.772823 8.353554 30.4053 8.353554 29.952326 C 8.353554 29.498892 8.721078 29.131596 9.174282 29.131596 C 9.627486 29.131596 9.995011 29.499123 9.995011 29.952326 z " stroke-miterlimit="4" fill-rule="nonzero" stroke="none"/>
                <path fill="url(#radialGradient2285)" d="M 9.995011 18.467176 C 9.995011 18.92038 9.627486 19.287905 9.174282 19.287905 C 8.720848 19.287905 8.353554 18.92038 8.353554 18.467176 C 8.353554 18.013742 8.721078 17.646448 9.174282 17.646448 C 9.627486 17.646448 9.995011 18.013971 9.995011 18.467176 z " stroke-miterlimit="4" fill-rule="nonzero" stroke="none"/>
            </g>
            <path stroke-linecap="butt" fill-opacity="0.75" fill="none" fill-rule="evenodd" stroke-linejoin="miter" d="M 11.505723 5.494277 L 11.505723 43.400867 " stroke="#000000" stroke-width="0.98855311" stroke-opacity="0.01754384" stroke-miterlimit="4"/>
            <path stroke-linecap="butt" fill-opacity="0.75" fill="none" fill-rule="evenodd" stroke-linejoin="miter" d="M 12.5 5.020515 L 12.5 43.038227 " stroke="#ffffff" stroke-width="1" stroke-opacity="0.20467828" stroke-miterlimit="4"/>
        </g>
        <g display="inline">
            <rect fill-opacity="0.54970757" display="block" stroke="none" visibility="visible" stroke-linecap="round" width="20.000006" stroke-miterlimit="4" stroke-opacity="0.08187136" fill="#9b9b9b" stroke-width="1" color="#000000" height="1" x="15.999986" stroke-linejoin="round" rx="0.13778631" y="31" ry="0.065390877" stroke-dashoffset="0" fill-rule="nonzero"/>
            <rect fill-opacity="0.54970757" display="block" stroke="none" visibility="visible" stroke-linecap="round" width="20.000006" stroke-miterlimit="4" stroke-opacity="0.08187136" fill="#9b9b9b" stroke-width="1" color="#000000" height="1" x="15.999986" stroke-linejoin="round" rx="0.13778631" y="33" ry="0.065390877" stroke-dashoffset="0" fill-rule="nonzero"/>
            <rect fill-opacity="0.54970757" display="block" stroke="none" visibility="visible" stroke-linecap="round" width="20.000006" stroke-miterlimit="4" stroke-opacity="0.08187136" fill="#9b9b9b" stroke-width="1" color="#000000" height="1" x="15.999986" stroke-linejoin="round" rx="0.13778631" y="35" ry="0.065390877" stroke-dashoffset="0" fill-rule="nonzero"/>
            <rect fill-opacity="0.54970757" display="block" stroke="none" visibility="visible" stroke-linecap="round" width="14.000014" stroke-miterlimit="4" stroke-opacity="0.08187136" fill="#9b9b9b" stroke-width="1" color="#000000" height="1" x="15.999986" stroke-linejoin="round" rx="0.096450485" y="37" ry="0.065390877" stroke-dashoffset="0" fill-rule="nonzero"/>
            <g stroke-opacity="0.66477272" fill-opacity="0.66477272">
                <g transform="matrix(0.608982,0,0,0.606219,12.8233,10.5572)">
                    <path fill-opacity="1" fill="url(#linearGradient7671)" fill-rule="nonzero" d="M 5.512695 30.0 L 39.64323 30.0 L 39.64323 19.627377 L 5.512695 19.627377 L 5.512695 30.0 z " stroke="none" stroke-width="1.2166667" stroke-miterlimit="4"/>
                    <path fill-opacity="1" fill="#729fcf" fill-rule="nonzero" d="M 5.512695 5.679136 L 39.64323 5.679136 L 39.64323 19.627377 L 5.512695 19.627377 L 5.512695 5.679136 z " stroke="none" stroke-width="1.2166667" stroke-miterlimit="4"/>
                    <g stroke-width="2.00241709" stroke-miterlimit="4" fill-rule="nonzero" transform="matrix(1.189217,0,0,1.189217,-3.525355,-6.535408)" stroke="#000000">
                        <g>
                            <path fill="#e8f52f" d="M 18.4 15.4 C 18.4 17.6 16.6 19.5 14.3 19.5 C 12.1 19.5 10.2 17.7 10.2 15.4 C 10.2 13.2 12.0 11.3 14.3 11.3 C 16.5 11.3 18.4 13.1 18.4 15.4 z " fill-opacity="0.04999994" stroke-opacity="0.04999994" stroke="none"/>
                            <path fill="#ecf751" d="M 18.0 15.4 C 18.0 17.4 16.4 19.1 14.3 19.1 C 12.3 19.1 10.6 17.5 10.6 15.4 C 10.6 13.4 12.2 11.7 14.3 11.7 C 16.3 11.7 18.0 13.3 18.0 15.4 L 18.0 15.4 z " fill-opacity="0.20829994" stroke-opacity="0.20829994" stroke="none"/>
                            <path fill="#f0f972" d="M 17.6 15.4 C 17.6 17.2 16.1 18.7 14.3 18.7 C 12.5 18.7 11.0 17.2 11.0 15.4 C 11.0 13.6 12.5 12.1 14.3 12.1 C 16.1 12.1 17.6 13.6 17.6 15.4 L 17.6 15.4 z " fill-opacity="0.36669994" stroke-opacity="0.36669994" stroke="none"/>
                            <path fill="#f4fa95" d="M 17.2 15.4 C 17.2 17.0 15.9 18.3 14.3 18.3 C 12.7 18.3 11.4 17.0 11.4 15.4 C 11.4 13.8 12.7 12.5 14.3 12.5 C 15.9 12.5 17.2 13.8 17.2 15.4 z " fill-opacity="0.525" stroke-opacity="0.525" stroke="none"/>
                            <path fill="#f7fcb7" d="M 16.8 15.4 C 16.8 16.8 15.7 17.9 14.3 17.9 C 12.9 17.9 11.8 16.8 11.8 15.4 C 11.8 14.0 12.9 12.9 14.3 12.9 C 15.7 12.9 16.8 14.0 16.8 15.4 L 16.8 15.4 z " fill-opacity="0.6833" stroke-opacity="0.6833" stroke="none"/>
                            <path fill="#fbfddb" d="M 16.4 15.4 C 16.4 16.6 15.4 17.5 14.3 17.5 C 13.2 17.5 12.2 16.5 12.2 15.4 C 12.2 14.3 13.2 13.3 14.3 13.3 C 15.4 13.3 16.4 14.3 16.4 15.4 z " fill-opacity="0.8417" stroke-opacity="0.8417" stroke="none"/>
                            <path fill="#ffffff" d="M 16.0 15.4 C 16.0 16.4 15.2 17.2 14.2 17.2 C 13.2 17.2 12.4 16.4 12.4 15.4 C 12.4 14.4 13.2 13.6 14.2 13.6 C 15.2 13.6 16.0 14.4 16.0 15.4 L 16.0 15.4 z " stroke="none"/>
                        </g>
                    </g>
                    <path fill-opacity="0.3" fill-rule="nonzero" d="M 25.01586 21.649044 L 33.697147 21.649044 L 35.362053 22.124731 L 32.50793 22.124731 C 32.50793 22.124731 35.362053 22.362574 36.789116 24.1464 C 38.216175 25.811304 35.12421 27.832975 35.12421 27.832975 C 35.12421 27.832975 35.12421 27.832975 35.12421 27.832975 C 35.005287 27.47621 34.291756 24.622087 32.864697 23.43287 C 31.7944 22.481497 30.605183 22.243652 30.605183 22.243652 L 25.01586 22.243652 L 25.01586 21.767965 L 25.01586 21.649044 z " stroke="none" stroke-width="1.2166667" stroke-opacity="0.3" stroke-miterlimit="4"/>
                    <path fill-opacity="0.3" fill-rule="nonzero" d="M 30.724106 22.362574 L 25.729391 22.362574 L 35.005287 27.595133 L 30.724106 22.362574 L 30.724106 22.362574 z " stroke="none" stroke-width="1.2166667" stroke-opacity="0.3" stroke-miterlimit="4"/>
                    <path fill="#515151" fill-rule="nonzero" d="M 25.01586 21.767965 L 33.697147 21.767965 L 35.005287 20.935513 L 32.15117 20.935513 C 32.15117 20.935513 34.767445 20.459827 35.12421 17.486782 C 35.480972 14.513739 31.080868 11.183931 31.080868 11.183931 C 31.080868 11.183931 31.080868 11.183931 31.080868 11.302853 C 31.19979 12.016383 32.389008 17.011095 31.556557 18.913845 C 31.19979 20.578749 30.129496 20.935513 30.129496 20.935513 L 24.659094 20.935513 L 24.896938 21.767965 L 25.01586 21.767965 z " stroke="none" stroke-width="1.2166667" stroke-miterlimit="4"/>
                    <path fill="#515151" fill-rule="nonzero" d="M 30.248419 20.459827 L 25.253704 20.459827 L 31.19979 11.421773 L 30.248419 20.459827 z " stroke="none" stroke-width="1.2166667" stroke-miterlimit="4"/>
                </g>
                <rect fill-opacity="1" display="inline" stroke="#9e9e9e" visibility="visible" stroke-linecap="butt" width="19.995502" stroke-miterlimit="4" stroke-opacity="1" fill="none" stroke-dasharray="none" stroke-width="0.99999863" color="#000000" height="13.997463" x="16.508501" stroke-linejoin="miter" y="14.485752" stroke-dashoffset="0" fill-rule="nonzero"/>
            </g>
            <rect fill-opacity="0.54970757" display="block" stroke="none" visibility="visible" stroke-linecap="round" width="20.000006" stroke-miterlimit="4" stroke-opacity="0.08187136" fill="#9b9b9b" stroke-width="1" color="#000000" height="1" x="15.999986" stroke-linejoin="round" rx="0.13778631" y="9" ry="0.065390877" stroke-dashoffset="0" fill-rule="nonzero"/>
            <rect fill-opacity="0.54970757" display="block" stroke="none" visibility="visible" stroke-linecap="round" width="14.000014" stroke-miterlimit="4" stroke-opacity="0.08187136" fill="#9b9b9b" stroke-width="1" color="#000000" height="1" x="15.999986" stroke-linejoin="round" rx="0.096450485" y="11" ry="0.065390877" stroke-dashoffset="0" fill-rule="nonzero"/>
        </g>
    </g>
</svg>
