<?xml version="1.0" encoding="UTF-8"?>
<svg xmlns="http://www.w3.org/2000/svg" xmlns:xlink="http://www.w3.org/1999/xlink" contentScriptType="text/ecmascript" width="20" baseProfile="tiny" zoomAndPan="magnify" contentStyleType="text/css" viewBox="0 0 20 32" height="32" preserveAspectRatio="xMidYMid meet" version="1.0">
    <defs>
        <linearGradient xlink:type="simple" xlink:actuate="onLoad" xlink:show="other">
            <stop stop-opacity="1" stop-color="#ffffff" offset="0"/>
            <stop stop-opacity="1" stop-color="#f1f2ef" offset="1"/>
        </linearGradient>
        <linearGradient x1="10" gradientTransform="matrix(1,0,0,1.0015,0,20)" y1="32" x2="10" gradientUnits="userSpaceOnUse" y2="5.7524" xlink:type="simple" xlink:actuate="onLoad" xlink:show="other">
            <stop stop-color="#ffffff" offset="0"/>
            <stop stop-color="#f7fcff" offset="0.0869"/>
            <stop stop-color="#cae7ff" offset="0.6348"/>
            <stop stop-color="#cae7ff" offset="1"/>
        </linearGradient>
        <linearGradient x1="9.9995" gradientTransform="scale(1,4.5714286)" y1="0.873" x2="9.9995" gradientUnits="userSpaceOnUse" y2="6.123" xlink:type="simple" xlink:actuate="onLoad" xlink:show="other">
            <stop stop-color="#ffffff" offset="0"/>
            <stop stop-color="#def0ff" offset="1"/>
        </linearGradient>
        <linearGradient x1="10" gradientTransform="matrix(1,0,0,0.9375,0,2)" y1="4.2328043" x2="10" gradientUnits="userSpaceOnUse" y2="14.645503" xlink:type="simple" xlink:actuate="onLoad" xlink:show="other">
            <stop stop-opacity="1" stop-color="#ffffff" offset="0"/>
            <stop stop-opacity="1" stop-color="#ebece8" offset="1"/>
        </linearGradient>
    </defs>
    <path fill="#d9ddd4" d="M 0.0 9.678286 C 0.0 20.83914 0.0 24.559427 0.0 32.0 L 20.0 32.0 C 20.0 17.118856 20.0 13.398572 20.0 5.958 L 0.0 5.958 L 0.0 9.678286 z " fill-opacity="1"/>
    <polygon fill="#555753" fill-opacity="1" transform="matrix(1,0,0,1.2,0,2.0356952)" stroke-opacity="0.4" points="0,0.002 0,1 0,1.002 20,1.002 20,1 20,0.002 0,0.002 "/>
    <rect x="0" width="20" fill="none" y="0" height="32.048"/>
    <polygon fill="#babdb6" fill-opacity="1" transform="matrix(1,0,0,1.1534391,0,4.98182)" stroke-opacity="0.4" points="0,0.002 0,1 0,1.002 20,1.002 20,1 20,0.002 0,0.002 "/>
    <rect fill-opacity="1" display="inline" stroke="none" visibility="visible" stroke-linecap="square" width="20.062893" stroke-miterlimit="4" stroke-opacity="1" fill="#729fcf" stroke-dasharray="none" stroke-width="1" color="#000000" height="2.9014678" x="0.011843475" stroke-linejoin="miter" y="3.2592227" stroke-dashoffset="0" fill-rule="nonzero"/>
</svg>
