<?xml version="1.0" encoding="UTF-8"?>
<svg xmlns="http://www.w3.org/2000/svg" xmlns:xlink="http://www.w3.org/1999/xlink" contentScriptType="text/ecmascript" width="60" baseProfile="tiny" zoomAndPan="magnify" contentStyleType="text/css" viewBox="0 0 60 80" height="80" preserveAspectRatio="xMidYMid meet" version="1.1">
    <defs>
        <radialGradient gradientUnits="userSpaceOnUse" xlink:type="simple" r="14.375000" xlink:actuate="onLoad" cx="55.000000" id="radialGradient1558" cy="125.00000" xlink:show="other" fx="55.000000" fy="125.00000">
            <stop stop-opacity="1.0000000" stop-color="#ffffff" offset="0.0000000"/>
            <stop stop-opacity="0.89108908" stop-color="#fff520" offset="0.50000000"/>
            <stop stop-opacity="0.0000000" stop-color="#fff300" offset="1.0000000"/>
        </radialGradient>
        <linearGradient xlink:type="simple" xlink:actuate="onLoad" xlink:show="other">
            <stop stop-opacity="1.0000000" stop-color="#ffffff" offset="0.0000000"/>
            <stop stop-opacity="0.89108908" stop-color="#fff520" offset="0.50000000"/>
            <stop stop-opacity="0.0000000" stop-color="#fff300" offset="1.0000000"/>
        </linearGradient>
        <linearGradient x1="2.0618774" gradientTransform="matrix(1.343475,0,0,1.417854,2.879511,0.314599)" y1="15.257116" x2="30.599684" gradientUnits="userSpaceOnUse" y2="15.257116" xlink:type="simple" xlink:actuate="onLoad" id="linearGradient27488" xlink:show="other">
            <stop stop-opacity="1.0000000" stop-color="#989690" offset="0.0000000"/>
            <stop stop-opacity="1.0000000" stop-color="#656460" offset="1.0000000"/>
        </linearGradient>
        <linearGradient x1="11.572842" gradientTransform="matrix(1.343475,0,0,1.417854,2.879511,0.314599)" y1="4.7461626" x2="18.475286" gradientUnits="userSpaceOnUse" y2="26.022910" xlink:type="simple" xlink:actuate="onLoad" id="linearGradient27486" xlink:show="other">
            <stop stop-opacity="1.0000000" stop-color="#ffffff" offset="0.0000000"/>
            <stop stop-opacity="1.0000000" stop-color="#e2e2e2" offset="1.0000000"/>
        </linearGradient>
        <linearGradient x1="5.8266134" gradientTransform="matrix(1.570607,0,0,1.190976,2.879512,0.343005)" y1="7.2310905" x2="13.467486" gradientUnits="userSpaceOnUse" y2="17.876846" xlink:type="simple" xlink:actuate="onLoad" id="linearGradient27483" xlink:show="other">
            <stop stop-opacity="1.0000000" stop-color="#ededed" offset="0.0000000"/>
            <stop stop-opacity="1.0000000" stop-color="#c8c8c8" offset="1.0000000"/>
        </linearGradient>
        <linearGradient x1="10.184240" gradientTransform="matrix(1.819266,0,0,1.028193,2.879512,0.343005)" y1="15.148383" x2="15.310744" gradientUnits="userSpaceOnUse" y2="29.568739" xlink:type="simple" xlink:actuate="onLoad" id="linearGradient27477" xlink:show="other">
            <stop stop-opacity="1" stop-color="#ffffff" offset="0"/>
            <stop stop-opacity="1.0000000" stop-color="#dcdcdc" offset="1.0000000"/>
        </linearGradient>
        <linearGradient x1="8.9156475" gradientTransform="matrix(2.454781,0,0,0.762004,2.879512,0.343005)" y1="37.197018" x2="9.8855033" gradientUnits="userSpaceOnUse" y2="52.090678" xlink:type="simple" xlink:actuate="onLoad" id="linearGradient27474" xlink:show="other">
            <stop stop-opacity="1.0000000" stop-color="#9aa29a" offset="0.0000000"/>
            <stop stop-opacity="1.0000000" stop-color="#b5beb5" offset="1.0000000"/>
        </linearGradient>
        <linearGradient x1="8.9156475" gradientTransform="matrix(2.454781,0,0,0.762004,2.879512,0.343005)" y1="37.197018" x2="9.8855033" gradientUnits="userSpaceOnUse" y2="52.090678" xlink:type="simple" xlink:actuate="onLoad" id="linearGradient27471" xlink:show="other">
            <stop stop-opacity="1.0000000" stop-color="#9aa29a" offset="0.0000000"/>
            <stop stop-opacity="1.0000000" stop-color="#b5beb5" offset="1.0000000"/>
        </linearGradient>
        <linearGradient x1="11.233107" gradientTransform="matrix(1.370928,0,0,1.443758,2.431133,-0.140786)" y1="13.686079" x2="21.111549" gradientUnits="userSpaceOnUse" y2="24.132717" xlink:type="simple" xlink:actuate="onLoad" id="linearGradient27468" xlink:show="other">
            <stop stop-opacity="1" stop-color="#ffffff" offset="0"/>
            <stop stop-opacity="1.0000000" stop-color="#ededed" offset="1.0000000"/>
        </linearGradient>
        <linearGradient x1="8.7803760" gradientTransform="matrix(2.3949,0,0,0.781058,2.879512,0.343005)" y1="37.784682" x2="9.7619219" gradientUnits="userSpaceOnUse" y2="32.203162" xlink:type="simple" xlink:actuate="onLoad" id="linearGradient27463" xlink:show="other">
            <stop stop-opacity="0.12871288" stop-color="#000000" offset="0.0000000"/>
            <stop stop-opacity="0.0000000" stop-color="#000000" offset="1.0000000"/>
        </linearGradient>
        <radialGradient gradientTransform="scale(1.902215,0.525703)" gradientUnits="userSpaceOnUse" xlink:type="simple" r="7.2284161" xlink:actuate="onLoad" cx="6.7027131" cy="73.615714" xlink:show="other" fx="6.7027131" fy="73.615714">
            <stop stop-opacity="1" stop-color="#000000" offset="0"/>
            <stop stop-opacity="0" stop-color="#000000" offset="1"/>
        </radialGradient>
        <linearGradient xlink:type="simple" xlink:actuate="onLoad" xlink:show="other">
            <stop stop-opacity="1" stop-color="#000000" offset="0"/>
            <stop stop-opacity="0" stop-color="#000000" offset="1"/>
        </linearGradient>
        <linearGradient xlink:type="simple" xlink:actuate="onLoad" xlink:show="other">
            <stop stop-opacity="1.0000000" stop-color="#ffffff" offset="0.0000000"/>
            <stop stop-opacity="1.0000000" stop-color="#e2e2e2" offset="1.0000000"/>
        </linearGradient>
        <linearGradient xlink:type="simple" xlink:actuate="onLoad" xlink:show="other">
            <stop stop-opacity="1.0000000" stop-color="#989690" offset="0.0000000"/>
            <stop stop-opacity="1.0000000" stop-color="#656460" offset="1.0000000"/>
        </linearGradient>
        <linearGradient xlink:type="simple" xlink:actuate="onLoad" xlink:show="other">
            <stop stop-opacity="1.0000000" stop-color="#ededed" offset="0.0000000"/>
            <stop stop-opacity="1.0000000" stop-color="#c8c8c8" offset="1.0000000"/>
        </linearGradient>
        <linearGradient xlink:type="simple" xlink:actuate="onLoad" xlink:show="other">
            <stop stop-opacity="1" stop-color="#ffffff" offset="0"/>
            <stop stop-opacity="1.0000000" stop-color="#dcdcdc" offset="1.0000000"/>
        </linearGradient>
        <linearGradient xlink:type="simple" xlink:actuate="onLoad" xlink:show="other">
            <stop stop-opacity="1.0000000" stop-color="#9aa29a" offset="0.0000000"/>
            <stop stop-opacity="1.0000000" stop-color="#b5beb5" offset="1.0000000"/>
        </linearGradient>
        <linearGradient xlink:type="simple" xlink:actuate="onLoad" xlink:show="other">
            <stop stop-opacity="1" stop-color="#ffffff" offset="0"/>
            <stop stop-opacity="1.0000000" stop-color="#ededed" offset="1.0000000"/>
        </linearGradient>
        <linearGradient xlink:type="simple" xlink:actuate="onLoad" xlink:show="other">
            <stop stop-opacity="0.12871288" stop-color="#000000" offset="0.0000000"/>
            <stop stop-opacity="0.0000000" stop-color="#000000" offset="1.0000000"/>
        </linearGradient>
        <linearGradient x1="302.85715" gradientTransform="matrix(2.774389,0,0,1.969706,-1892.179,-872.8854)" y1="366.64789" x2="302.85715" gradientUnits="userSpaceOnUse" y2="609.50507" xlink:type="simple" xlink:actuate="onLoad" id="linearGradient5027" xlink:show="other">
            <stop stop-opacity="0" stop-color="#000000" offset="0"/>
            <stop stop-opacity="1" stop-color="#000000" offset="0.5"/>
            <stop stop-opacity="0" stop-color="#000000" offset="1"/>
        </linearGradient>
        <linearGradient xlink:type="simple" xlink:actuate="onLoad" xlink:show="other">
            <stop stop-opacity="0" stop-color="#000000" offset="0"/>
            <stop stop-opacity="1" stop-color="#000000" offset="0.5"/>
            <stop stop-opacity="0" stop-color="#000000" offset="1"/>
        </linearGradient>
        <radialGradient gradientTransform="matrix(2.774389,0,0,1.969706,-1891.633,-872.8854)" id="radialGradient5029" gradientUnits="userSpaceOnUse" xlink:show="other" xlink:type="simple" r="117.14286" cx="605.71429" fx="605.71429" cy="486.64789" fy="486.64789" xlink:actuate="onLoad">
            <stop stop-opacity="1" stop-color="#000000" offset="0"/>
            <stop stop-opacity="0" stop-color="#000000" offset="1"/>
        </radialGradient>
        <linearGradient xlink:type="simple" xlink:actuate="onLoad" xlink:show="other">
            <stop stop-opacity="1" stop-color="#000000" offset="0"/>
            <stop stop-opacity="0" stop-color="#000000" offset="1"/>
        </linearGradient>
        <radialGradient gradientTransform="matrix(-2.774389,0,0,1.969706,112.7623,-872.8854)" id="radialGradient5031" gradientUnits="userSpaceOnUse" xlink:show="other" xlink:type="simple" r="117.14286" cx="605.71429" fx="605.71429" cy="486.64789" fy="486.64789" xlink:actuate="onLoad">
            <stop stop-opacity="1" stop-color="#000000" offset="0"/>
            <stop stop-opacity="0" stop-color="#000000" offset="1"/>
        </radialGradient>
        <linearGradient gradientTransform="matrix(1.343475,0,0,1.417854,-29.526347,0.314599)" id="linearGradient27488" gradientUnits="userSpaceOnUse" xlink:show="other" xlink:type="simple" x1="2.0618774" y1="15.257116" x2="30.599684" y2="15.257116" xlink:actuate="onLoad">
            <stop stop-opacity="1.0000000" stop-color="#989690" offset="0.0000000"/>
            <stop stop-opacity="1.0000000" stop-color="#656460" offset="1.0000000"/>
        </linearGradient>
        <linearGradient gradientTransform="matrix(1.343475,0,0,1.417854,2.8795114,0.314599)" id="linearGradient3307" gradientUnits="userSpaceOnUse" xlink:show="other" xlink:type="simple" x1="2.0618774" y1="15.257116" y2="15.257116" x2="30.599684" xlink:actuate="onLoad">
            <stop stop-opacity="1.0000000" stop-color="#989690" offset="0.0000000"/>
            <stop stop-opacity="1.0000000" stop-color="#656460" offset="1.0000000"/>
        </linearGradient>
        <linearGradient gradientTransform="matrix(1.370928,0,0,1.443758,2.431133,-0.140786)" id="linearGradient3314" gradientUnits="userSpaceOnUse" xlink:show="other" xlink:type="simple" x1="11.233107" y1="13.686079" y2="24.132717" x2="21.111549" xlink:actuate="onLoad">
            <stop stop-opacity="1" stop-color="#ffffff" offset="0"/>
            <stop stop-opacity="1.0000000" stop-color="#ededed" offset="1.0000000"/>
        </linearGradient>
    </defs>
    <g transform="matrix(1.2343447,0,0,1.2343447,-0.4955764,15.086308)">
        <g transform="matrix(2.312904e-2,0,0,1.485743e-2,45.32054,39.61432)" display="inline">
            <rect fill-opacity="0.40206185" display="inline" stroke="none" visibility="visible" stroke-linecap="round" width="1339.6335" stroke-miterlimit="4" stroke-opacity="1" fill="url(#linearGradient5027)" stroke-dasharray="none" stroke-width="1" color="#000000" height="478.35718" x="-1559.2523" stroke-linejoin="miter" y="-150.69685" stroke-dashoffset="0" fill-rule="nonzero"/>
            <path fill-opacity="0.40206185" display="inline" stroke="none" d="M -219.61876 -150.68037 C -219.61876 -150.68037 -219.61876 327.6504 -219.61876 327.6504 C -76.74459 328.55087 125.78146 220.48076 125.78138 88.45424 C 125.78138 -43.572304 -33.655437 -150.68036 -219.61876 -150.68037 z " visibility="visible" stroke-linecap="round" stroke-miterlimit="4" stroke-opacity="1" fill="url(#radialGradient5029)" stroke-dasharray="none" stroke-width="1" color="#000000" stroke-linejoin="miter" stroke-dashoffset="0" fill-rule="nonzero"/>
            <path fill-opacity="0.40206185" display="inline" stroke="none" d="M -1559.2523 -150.68037 C -1559.2523 -150.68037 -1559.2523 327.6504 -1559.2523 327.6504 C -1702.1263 328.55087 -1904.6523 220.48076 -1904.6523 88.45424 C -1904.6523 -43.572304 -1745.2156 -150.68036 -1559.2523 -150.68037 z " visibility="visible" stroke-linecap="round" stroke-miterlimit="4" stroke-opacity="1" fill="url(#radialGradient5031)" stroke-dasharray="none" stroke-width="1" color="#000000" stroke-linejoin="miter" stroke-dashoffset="0" fill-rule="nonzero"/>
        </g>
        <path stroke-linecap="butt" fill-opacity="1" fill="url(#linearGradient27486)" fill-rule="evenodd" stroke-linejoin="round" d="M 6.33344 16.972252 L 6.33344 41.4818 L 43.305557 41.4818 L 43.2445 17.08986 C 43.24105 15.712272 31.396 2.412111 29.210876 2.412111 L 20.659391 2.412111 C 18.362072 2.412111 6.33344 15.673953 6.33344 16.972252 z " stroke="none" stroke-width="0.8566044" stroke-opacity="1" stroke-miterlimit="4"/>
        <path stroke-linecap="butt" fill-opacity="1" fill="url(#linearGradient27483)" fill-rule="evenodd" stroke-linejoin="miter" d="M 6.923061 16.787104 C 6.5250225 16.356976 18.809963 3.0935378 20.66721 3.0935378 L 29.042965 3.0935378 C 30.790447 3.0935378 43.079567 16.221603 42.47008 16.978956 L 31.608858 30.47515 L 19.295372 30.156843 L 6.923061 16.787104 z " stroke="none" stroke-width="0.25pt" stroke-opacity="1"/>
        <path stroke-linecap="butt" fill-opacity="0.14619883" fill="#000000" fill-rule="evenodd" stroke-linejoin="miter" d="M 19.07753 30.01759 L 11.744526 21.271584 L 36.56295 14.335513 L 39.59222 20.551966 L 32.175957 29.992298 " stroke="none" stroke-width="1" stroke-opacity="1" stroke-miterlimit="4"/>
        <path stroke-linecap="butt" fill-opacity="0.14619883" fill="#000000" fill-rule="evenodd" stroke-linejoin="miter" d="M 18.291767 29.83626 L 10.809167 21.026146 L 35.456635 14.132812 L 38.63071 20.403812 L 31.390192 29.810968 " stroke="none" stroke-width="1" stroke-opacity="1" stroke-miterlimit="4"/>
        <path stroke-linecap="butt" fill-opacity="0.14619883" fill="#000000" fill-rule="evenodd" stroke-linejoin="miter" d="M 18.775312 29.957146 L 11.100386 21.296623 L 36.068405 14.232329 L 39.35411 20.824726 L 31.87374 29.931856 " stroke="none" stroke-width="1" stroke-opacity="1" stroke-miterlimit="4"/>
        <path stroke-linecap="butt" fill-opacity="1" fill="url(#linearGradient27477)" fill-rule="evenodd" stroke-linejoin="miter" d="M 18.593985 30.440693 L 11.260975 21.694689 L 35.972553 14.801355 L 39.083366 21.18877 L 31.963198 30.1747 " stroke="none" stroke-width="1" stroke-opacity="1" stroke-miterlimit="4"/>
        <path stroke-linecap="butt" fill-opacity="1" fill="url(#linearGradient27474)" fill-rule="evenodd" stroke-linejoin="miter" d="M 20.488434 29.064331 L 7.0924697 40.03632 L 21.001312 30.432013 L 30.01947 30.432013 L 42.438515 39.914207 L 30.575092 29.064331 L 20.488434 29.064331 z " stroke="none" stroke-width="1" stroke-opacity="1" stroke-miterlimit="4"/>
        <path fill-opacity="1" display="inline" stroke="none" d="M 6.963475 16.885143 L 18.479649 31.201334 L 19.548153 30.346533 L 6.963475 16.885143 z " visibility="visible" stroke-linecap="butt" stroke-miterlimit="4" stroke-opacity="1" fill="url(#linearGradient27471)" stroke-width="1" color="#000000" stroke-linejoin="miter" stroke-dashoffset="0" fill-rule="evenodd"/>
        <path stroke-linecap="butt" fill-opacity="1" fill="url(#linearGradient3314)" fill-rule="evenodd" stroke-linejoin="miter" d="M 20.9375 3.03125 C 20.451668 3.03125 20.021463 3.2847917 19.46875 3.65625 C 18.916037 4.0277085 18.262875 4.538385 17.5625 5.15625 C 16.161753 6.39198 14.538117 8.052297 12.96875 9.71875 C 11.399383 11.385203 9.890345 13.079613 8.78125 14.40625 C 8.226703 15.069568 7.7930527 15.623447 7.46875 16.0625 C 7.306598 16.282026 7.1576433 16.469242 7.0625 16.625 C 7.014929 16.702879 6.9703674 16.771727 6.9375 16.84375 C 6.9046326 16.915771 6.8747926 16.97026 6.875 17.125 L 6.90625 40.34375 L 6.90625 40.78125 L 7.34375 40.78125 L 42.28125 40.78125 L 42.71875 40.78125 L 42.71875 40.34375 L 42.65625 17.25 C 42.655827 17.093431 42.62602 17.039295 42.59375 16.96875 C 42.56148 16.898205 42.515484 16.827192 42.46875 16.75 C 42.37528 16.595613 42.25339 16.407412 42.09375 16.1875 C 41.774464 15.747677 41.32725 15.168334 40.78125 14.5 C 39.68925 13.163332 38.19922 11.465301 36.65625 9.78125 C 35.11328 8.0971985 33.49763 6.437515 32.125 5.1875 C 31.438684 4.562493 30.820955 4.032365 30.28125 3.65625 C 29.741545 3.280135 29.329576 3.03125 28.84375 3.03125 L 20.9375 3.03125 z M 20.9375 3.875 L 28.84375 3.875 C 28.899876 3.875 29.292736 4.0345592 29.78125 4.375 C 30.269764 4.7154408 30.892595 5.2024374 31.5625 5.8125 C 32.90231 7.0326247 34.49942 8.703107 36.03125 10.375 C 37.56308 12.046893 39.014755 13.741754 40.09375 15.0625 C 40.633247 15.722873 41.072147 16.270311 41.375 16.6875 C 41.526424 16.896093 41.646664 17.068436 41.71875 17.1875 C 41.741013 17.224268 41.76829 17.256807 41.78125 17.28125 L 41.84375 39.90625 L 7.78125 39.90625 L 7.75 17.15625 L 7.75 17.125 C 7.7626 17.101667 7.7921777 17.095768 7.8125 17.0625 C 7.88508 16.94368 8.002858 16.770168 8.15625 16.5625 C 8.463034 16.147165 8.88988 15.592532 9.4375 14.9375 C 10.53274 13.627436 12.036053 11.935311 13.59375 10.28125 C 15.151447 8.62719 16.789333 7.018383 18.15625 5.8125 C 18.839708 5.2095585 19.436632 4.7116146 19.9375 4.375 C 20.438368 4.0383854 20.860264 3.875 20.9375 3.875 z " stroke="none" stroke-width="0.85660428" stroke-opacity="1" stroke-miterlimit="4"/>
        <path stroke-linecap="butt" fill-opacity="1" fill="#ffffff" fill-rule="evenodd" stroke-linejoin="miter" d="M 20.957272 30.452732 L 9.015772 38.723587 L 11.235205 38.729694 L 21.23333 31.860756 L 30.05524 30.437916 L 20.957272 30.452732 z " stroke="none" stroke-width="1" stroke-opacity="1" stroke-miterlimit="4"/>
        <path stroke-linecap="butt" fill-opacity="1" fill="#ffffff" fill-rule="evenodd" stroke-linejoin="miter" d="M 11.427536 21.670296 L 12.752479 23.08072 L 35.543312 16.19653 L 38.458443 21.878897 L 39.072495 21.16698 L 36.00308 14.789145 L 11.427536 21.670296 z " stroke="none" stroke-width="1px" stroke-opacity="1"/>
        <path stroke-linecap="butt" fill-opacity="1" fill="url(#linearGradient27463)" fill-rule="evenodd" stroke-linejoin="miter" d="M 13.308098 23.63634 L 19.33445 30.090092 L 20.531174 29.064331 L 30.617832 29.107073 L 31.429892 29.833652 L 35.40472 25.089502 C 34.25074 23.67908 13.308098 23.63634 13.308098 23.63634 z " stroke="none" stroke-width="1px" stroke-opacity="1"/>
        <path fill-opacity="1" display="inline" stroke="none" d="M 41.812935 17.847944 L 31.861317 30.479233 L 30.792812 29.624432 L 41.812935 17.847944 z " visibility="visible" stroke-linecap="butt" stroke-miterlimit="4" stroke-opacity="1" fill="#b1b1b1" stroke-width="1" color="#000000" stroke-linejoin="miter" stroke-dashoffset="0" fill-rule="evenodd"/>
        <path stroke-linecap="butt" fill-opacity="1" fill="url(#linearGradient3307)" fill-rule="evenodd" stroke-linejoin="round" d="M 20.65586 1.96875 C 20.162655 1.96875 19.730164 2.242844 19.15586 2.625 C 18.581556 3.007156 17.889717 3.5483167 17.15586 4.1875 C 15.688142 5.4658666 13.965831 7.1604505 12.312109 8.90625 C 10.658387 10.65205 9.078806 12.43765 7.905859 13.875 C 7.3193846 14.593675 6.8445487 15.21501 6.499609 15.71875 C 6.327139 15.97062 6.1945815 16.213934 6.0933585 16.40625 C 5.992135 16.598566 5.9058585 16.722265 5.9058585 16.96875 L 5.9058585 41.46875 C 5.9033346 41.585537 5.9486175 41.69829 6.0312176 41.78089 C 6.113818 41.86349 6.2265706 41.908775 6.343359 41.90625 L 43.312107 41.90625 C 43.54359 41.894352 43.723618 41.70048 43.71836 41.46875 L 43.687107 17.09375 C 43.68651 16.854635 43.599285 16.697224 43.499607 16.5 C 43.399933 16.302776 43.26337 16.068966 43.09336 15.8125 C 42.753326 15.29957 42.264385 14.663754 41.687107 13.9375 C 40.53255 12.484992 38.99848 10.693096 37.374607 8.9375 C 35.750736 7.181904 34.05889 5.4706516 32.624607 4.1875 C 31.907469 3.545924 31.245213 3.00861 30.687107 2.625 C 30.129004 2.24139 29.708744 1.96875 29.218357 1.96875 L 20.65586 1.96875 z M 20.65586 2.84375 L 29.218357 2.84375 C 29.274254 2.84375 29.679176 2.994626 30.187107 3.34375 C 30.69504 3.692874 31.330189 4.216911 32.030857 4.84375 C 33.432198 6.097428 35.107395 7.789607 36.71836 9.53125 C 38.32932 11.272893 39.89521 13.040031 41.030857 14.46875 C 41.59868 15.18311 42.057667 15.834399 42.374607 16.3125 C 42.53308 16.551552 42.64308 16.7573 42.71836 16.90625 C 42.79364 17.0552 42.812275 17.160664 42.812107 17.09375 L 42.874607 41.0625 L 6.749609 41.0625 L 6.749609 16.96875 C 6.749609 17.052948 6.767259 16.925835 6.843359 16.78125 C 6.9194593 16.636665 7.0574336 16.45376 7.218359 16.21875 C 7.540208 15.748731 8.0162525 15.113446 8.593359 14.40625 C 9.747572 12.991858 11.296508 11.231948 12.937109 9.5 C 14.57771 7.768052 16.284588 6.0613008 17.71836 4.8125 C 18.435244 4.1880994 19.101376 3.6919224 19.624607 3.34375 C 20.147844 2.9955773 20.574734 2.84375 20.65586 2.84375 z " stroke="none" stroke-width="0.8566044" stroke-opacity="1" stroke-miterlimit="4"/>
        <g transform="translate(5e-7,2.5e-6)" display="inline">
            <path fill-opacity="1" display="block" stroke="none" d="M 69.375 125.0 C 69.375 132.93909 62.939095 139.375 55.0 139.375 C 47.060905 139.375 40.625 132.93909 40.625 125.0 C 40.625 117.060905 47.060905 110.625 55.0 110.625 C 62.939095 110.625 69.375 117.060905 69.375 125.0 z " visibility="visible" stroke-linecap="butt" transform="matrix(0.783292,0,0,0.783292,-6.340883,-86.65168)" stroke-miterlimit="4" stroke-opacity="1" fill="url(#radialGradient1558)" stroke-width="1.25000024" color="#000000" stroke-linejoin="round" stroke-dashoffset="0" fill-rule="nonzero"/>
        </g>
    </g>
</svg>
