<?xml version="1.0" encoding="UTF-8"?>
<svg xmlns="http://www.w3.org/2000/svg" xmlns:xlink="http://www.w3.org/1999/xlink" contentScriptType="text/ecmascript" width="60" baseProfile="tiny" zoomAndPan="magnify" contentStyleType="text/css" viewBox="0 0 60 80" height="80" preserveAspectRatio="xMidYMid meet" version="1.1">
    <defs>
        <linearGradient x1="99.7773" gradientTransform="matrix(0.200685,0,0,0.200685,-54.33576,-1.050787)" y1="15.4238" x2="153.0005" gradientUnits="userSpaceOnUse" y2="248.6311" xlink:type="simple" xlink:actuate="onLoad" id="linearGradient3773" xlink:show="other">
            <stop stop-color="#184375" offset="0"/>
            <stop stop-color="#c8bddc" offset="1"/>
        </linearGradient>
        <radialGradient gradientTransform="matrix(1.399258,-2.234445e-7,8.196178e-8,0.513264,4.365074,4.839285)" id="radialGradient2308" gradientUnits="userSpaceOnUse" xlink:show="other" xlink:type="simple" r="11.689870" cx="14.287618" fx="14.287618" cy="68.872971" fy="72.568001" xlink:actuate="onLoad">
            <stop stop-opacity="0.32673267" stop-color="#000000" offset="0.0000000"/>
            <stop stop-opacity="0" stop-color="#000000" offset="1"/>
        </radialGradient>
        <radialGradient gradientTransform="matrix(1.000000,0.000000,0.000000,1.010300,1.007969e-18,-0.159801)" gradientUnits="userSpaceOnUse" xlink:type="simple" r="7.2848282" xlink:actuate="onLoad" cx="165.06104" id="radialGradient16850" cy="23.333008" xlink:show="other">
            <stop stop-color="#ef3535" offset="0"/>
            <stop stop-opacity="0" stop-color="#a40000" offset="1"/>
        </radialGradient>
        <linearGradient gradientTransform="matrix(1.161878,0,0,0.992497,-5.112111,6.400522e-2)" id="radialGradient16850" gradientUnits="userSpaceOnUse" xlink:show="other" xlink:type="simple" x1="39.619942" y1="44.540932" x2="-3.532515" y2="-11.889042" r="7.2848282" cx="165.06104" cy="23.333008" xlink:actuate="onLoad">
            <stop offset="0" stop-color="#ef3535"/>
            <stop stop-opacity="0" stop-color="#a40000" offset="1"/>
        </linearGradient>
        <radialGradient gradientTransform="matrix(1,0,0,1.060381,0,-2.299514)" id="XMLID_52_" gradientUnits="userSpaceOnUse" xlink:show="other" xlink:type="simple" r="8.3887873" cx="34.376091" fx="34.376091" cy="37.50008" fy="37.50008" xlink:actuate="onLoad">
            <stop offset="0" stop-color="#ef3535"/>
            <stop stop-opacity="1" stop-color="#c91a1a" offset="0"/>
            <stop stop-opacity="1" stop-color="#ff4c4c" offset="1"/>
        </radialGradient>
        <linearGradient gradientTransform="matrix(3.624438,0,0,3.624438,-1053.179,-16.8472)" id="XMLID_52_" gradientUnits="userSpaceOnUse" xlink:show="other" xlink:type="simple" x1="296.76199" y1="12.012225" x2="297.79822" y2="10.946587" r="7.2848282" cx="165.06104" cy="23.333008" xlink:actuate="onLoad">
            <stop offset="0" stop-color="#ef3535"/>
            <stop stop-opacity="1" stop-color="#c91a1a" offset="0"/>
            <stop stop-opacity="1" stop-color="#ff4c4c" offset="1"/>
        </linearGradient>
        <linearGradient xlink:type="simple" xlink:actuate="onLoad" id="linearGradient2251" xlink:show="other">
            <stop stop-opacity="1" stop-color="#df2a2a" offset="0"/>
            <stop stop-opacity="0" stop-color="#df2a2a" offset="1"/>
        </linearGradient>
        <linearGradient x1="298.47852" y1="13.599585" x2="298.86948" gradientUnits="userSpaceOnUse" y2="13.802949" xlink:type="simple" xlink:actuate="onLoad" id="linearGradient2251" xlink:show="other">
            <stop stop-opacity="1" stop-color="#df2a2a" offset="0"/>
            <stop stop-opacity="0" stop-color="#df2a2a" offset="1"/>
        </linearGradient>
        <linearGradient gradientTransform="matrix(1.161878,0,0,0.992497,-2.666967,6.400522e-2)" id="XMLID_52_" gradientUnits="userSpaceOnUse" xlink:show="other" xlink:type="simple" x1="13.82536" y1="40.068752" x2="7.6700611" y2="2.3262277" r="7.2848282" cx="165.06104" cy="23.333008" xlink:actuate="onLoad">
            <stop offset="0" stop-color="#ef3535"/>
            <stop stop-opacity="1" stop-color="#c91a1a" offset="0"/>
            <stop stop-opacity="1" stop-color="#ff4c4c" offset="1"/>
        </linearGradient>
        <linearGradient gradientTransform="matrix(1.161878,0,0,0.992497,-2.430779,0.265761)" id="XMLID_52_" gradientUnits="userSpaceOnUse" xlink:show="other" xlink:type="simple" x1="7.184845" y1="31.056622" x2="25.152235" y2="50.774887" r="7.2848282" cx="165.06104" cy="23.333008" xlink:actuate="onLoad">
            <stop offset="0" stop-color="#ef3535"/>
            <stop stop-opacity="1" stop-color="#c91a1a" offset="0"/>
            <stop stop-opacity="1" stop-color="#ff4c4c" offset="1"/>
        </linearGradient>
        <linearGradient xlink:type="simple" xlink:actuate="onLoad" id="linearGradient2269" xlink:show="other">
            <stop stop-opacity="1" stop-color="#000000" offset="0"/>
            <stop stop-opacity="0" stop-color="#000000" offset="1"/>
        </linearGradient>
        <radialGradient gradientTransform="matrix(1,0,0,0.32526,0,28.08607)" id="linearGradient2269" gradientUnits="userSpaceOnUse" xlink:show="other" xlink:type="simple" r="18.0625" cx="25.1875" fx="25.1875" cy="41.625" fy="41.625" xlink:actuate="onLoad">
            <stop stop-opacity="1" stop-color="#000000" offset="0"/>
            <stop stop-opacity="0" stop-color="#000000" offset="1"/>
        </radialGradient>
        <linearGradient x1="68.175293" y1="21.424805" x2="74.587158" gradientUnits="userSpaceOnUse" y2="27.836672" xlink:type="simple" xlink:actuate="onLoad" id="XMLID_45_" xlink:show="other">
            <stop stop-color="#babdb6" offset="0"/>
            <stop stop-color="#eeeeec" offset="1"/>
        </linearGradient>
        <linearGradient x1="22.225399" y1="23.843431" x2="24.190449" gradientUnits="userSpaceOnUse" y2="22.860907" xlink:type="simple" xlink:actuate="onLoad" id="XMLID_45_" xlink:show="other">
            <stop offset="0" stop-color="#babdb6"/>
            <stop offset="1" stop-color="#eeeeec"/>
        </linearGradient>
        <linearGradient x1="20.288025" y1="6.4603648" x2="24.32597" gradientUnits="userSpaceOnUse" y2="23.942537" xlink:type="simple" xlink:actuate="onLoad" id="linearGradient2229" xlink:show="other">
            <stop stop-opacity="1" stop-color="#e2e2e2" offset="0"/>
            <stop stop-opacity="1" stop-color="#d8d8d8" offset="1"/>
        </linearGradient>
        <linearGradient gradientTransform="matrix(4.053427,0,0,4.136601,-1175.535,-11.90495)" id="XMLID_897_" gradientUnits="userSpaceOnUse" xlink:show="other" xlink:type="simple" x1="292.97168" y1="4.7592773" x2="296.93979" y2="10.711433" xlink:actuate="onLoad">
            <stop offset="0" stop-color="#eeeeec"/>
            <stop stop-opacity="1" stop-color="#ffffff" offset="1"/>
        </linearGradient>
        <linearGradient gradientTransform="matrix(3.637893,0,0,3.470375,-1056.116,-16.00724)" id="XMLID_52_" gradientUnits="userSpaceOnUse" xlink:show="other" xlink:type="simple" x1="296.48611" y1="15.506916" x2="296.52905" y2="9.8769522" r="7.2848282" cx="165.06104" cy="23.333008" xlink:actuate="onLoad">
            <stop offset="0" stop-color="#ef3535"/>
            <stop stop-opacity="1" stop-color="#c91a1a" offset="0"/>
            <stop stop-opacity="1" stop-color="#ff4c4c" offset="1"/>
        </linearGradient>
        <radialGradient gradientTransform="matrix(1.000000,0.000000,0.000000,1.010300,1.007969e-18,-0.159801)" gradientUnits="userSpaceOnUse" xlink:type="simple" r="7.2848282" xlink:actuate="onLoad" cx="165.06104" id="XMLID_52_" cy="23.333008" xlink:show="other">
            <stop stop-color="#ef3535" offset="0"/>
            <stop stop-opacity="1" stop-color="#c91a1a" offset="0"/>
            <stop stop-opacity="1" stop-color="#ff4c4c" offset="1"/>
        </radialGradient>
        <linearGradient gradientTransform="matrix(1.000000,0.000000,0.000000,1.010300,1.007969e-18,-0.159801)" id="XMLID_52_" gradientUnits="userSpaceOnUse" xlink:show="other" xlink:type="simple" x1="294.59497" y1="12.187603" x2="297.18515" y2="13.3396" r="7.2848282" cx="165.06104" cy="23.333008" xlink:actuate="onLoad">
            <stop offset="0" stop-color="#ef3535"/>
            <stop stop-opacity="1" stop-color="#c91a1a" offset="0"/>
            <stop stop-opacity="1" stop-color="#ff4c4c" offset="1"/>
        </linearGradient>
        <linearGradient xlink:type="simple" xlink:actuate="onLoad" id="linearGradient2229" xlink:show="other">
            <stop stop-opacity="1" stop-color="#e2e2e2" offset="0"/>
            <stop stop-opacity="1" stop-color="#d8d8d8" offset="1"/>
        </linearGradient>
        <linearGradient x1="20.288025" y1="6.4603648" x2="24.32597" gradientUnits="userSpaceOnUse" y2="23.942537" xlink:type="simple" xlink:actuate="onLoad" id="linearGradient2229" xlink:show="other">
            <stop stop-opacity="1" stop-color="#e2e2e2" offset="0"/>
            <stop stop-opacity="1" stop-color="#d8d8d8" offset="1"/>
        </linearGradient>
        <linearGradient x1="292.97168" y1="4.7592773" x2="296.93979" gradientUnits="userSpaceOnUse" y2="10.711433" xlink:type="simple" xlink:actuate="onLoad" id="XMLID_897_" xlink:show="other">
            <stop stop-color="#eeeeec" offset="0"/>
            <stop stop-opacity="1" stop-color="#ffffff" offset="1"/>
        </linearGradient>
        <linearGradient gradientTransform="matrix(-4.127761,0,0,4.136601,1244.465,-11.90495)" id="XMLID_897_" gradientUnits="userSpaceOnUse" xlink:show="other" xlink:type="simple" x1="292.97168" y1="4.7592773" x2="296.93979" y2="10.711433" xlink:actuate="onLoad">
            <stop offset="0" stop-color="#eeeeec"/>
            <stop stop-opacity="1" stop-color="#ffffff" offset="1"/>
        </linearGradient>
        <linearGradient x1="18.935766" y1="23.667896" x2="53.588623" gradientUnits="userSpaceOnUse" y2="26.649363" xlink:type="simple" xlink:actuate="onLoad" xlink:show="other">
            <stop stop-opacity="1" stop-color="#729fcf" offset="0"/>
            <stop stop-opacity="1" stop-color="#528ac5" offset="1"/>
        </linearGradient>
        <linearGradient x1="36.713837" y1="31.455952" x2="37.124462" gradientUnits="userSpaceOnUse" y2="24.842253" xlink:type="simple" xlink:actuate="onLoad" xlink:show="other">
            <stop stop-opacity="1" stop-color="#3977c3" offset="0"/>
            <stop stop-opacity="0" stop-color="#89aedc" offset="1"/>
        </linearGradient>
        <linearGradient x1="32.647972" y1="30.748846" x2="37.124462" gradientUnits="userSpaceOnUse" y2="24.842253" xlink:type="simple" xlink:actuate="onLoad" xlink:show="other">
            <stop stop-opacity="1" stop-color="#c4d7eb" offset="0"/>
            <stop stop-opacity="0" stop-color="#c4d7eb" offset="1"/>
        </linearGradient>
        <linearGradient x1="62.513836" y1="36.061237" x2="15.984863" gradientUnits="userSpaceOnUse" y2="20.60858" xlink:type="simple" xlink:actuate="onLoad" xlink:show="other">
            <stop stop-opacity="1" stop-color="#b9cfe7" offset="0"/>
            <stop stop-opacity="1" stop-color="#729fcf" offset="1"/>
        </linearGradient>
        <linearGradient x1="37.128052" gradientTransform="matrix(-1,0,0,-1,47.52791,45.84741)" y1="29.729605" x2="37.065414" gradientUnits="userSpaceOnUse" y2="26.194071" xlink:type="simple" xlink:actuate="onLoad" xlink:show="other">
            <stop stop-opacity="1" stop-color="#3465a4" offset="0"/>
            <stop stop-opacity="0" stop-color="#3465a4" offset="1"/>
        </linearGradient>
        <linearGradient x1="13.478554" gradientTransform="translate(0.465413,-0.277593)" y1="10.612206" x2="15.419417" gradientUnits="userSpaceOnUse" y2="19.115122" xlink:type="simple" xlink:actuate="onLoad" xlink:show="other">
            <stop stop-opacity="1" stop-color="#3465a4" offset="0"/>
            <stop stop-opacity="1" stop-color="#5b86be" offset="0.33333334"/>
            <stop stop-opacity="0" stop-color="#83a8d8" offset="1"/>
        </linearGradient>
        <radialGradient gradientTransform="matrix(1,0,0,0.536723,0,16.87306)" gradientUnits="userSpaceOnUse" xlink:type="simple" r="15.644737" xlink:actuate="onLoad" cx="24.837126" cy="36.421127" xlink:show="other" fx="24.837126" fy="36.421127">
            <stop stop-opacity="1" stop-color="#000000" offset="0"/>
            <stop stop-opacity="0" stop-color="#000000" offset="1"/>
        </radialGradient>
        <linearGradient xlink:type="simple" xlink:actuate="onLoad" xlink:show="other">
            <stop stop-opacity="1" stop-color="#729fcf" offset="0"/>
            <stop stop-opacity="1" stop-color="#afc9e4" offset="1"/>
        </linearGradient>
        <linearGradient xlink:type="simple" xlink:actuate="onLoad" xlink:show="other">
            <stop stop-opacity="0.54639173" stop-color="#32342f" offset="0.0000000"/>
            <stop stop-opacity="0" stop-color="#32342f" offset="1"/>
        </linearGradient>
        <radialGradient gradientUnits="userSpaceOnUse" xlink:type="simple" r="14.375000" xlink:actuate="onLoad" cx="55.000000" cy="125.00000" xlink:show="other" fx="55.000000" fy="125.00000">
            <stop stop-opacity="1.0000000" stop-color="#ffffff" offset="0.0000000"/>
            <stop stop-opacity="0.89108908" stop-color="#fff520" offset="0.50000000"/>
            <stop stop-opacity="0.0000000" stop-color="#fff300" offset="1.0000000"/>
        </radialGradient>
        <linearGradient xlink:type="simple" xlink:actuate="onLoad" xlink:show="other">
            <stop stop-opacity="1.0000000" stop-color="#ffffff" offset="0.0000000"/>
            <stop stop-opacity="0.89108908" stop-color="#fff520" offset="0.50000000"/>
            <stop stop-opacity="0.0000000" stop-color="#fff300" offset="1.0000000"/>
        </linearGradient>
        <linearGradient x1="2.0618774" gradientTransform="matrix(1.343475,0,0,1.417854,2.879511,0.314599)" y1="15.257116" x2="30.599684" gradientUnits="userSpaceOnUse" y2="15.257116" xlink:type="simple" xlink:actuate="onLoad" xlink:show="other">
            <stop stop-opacity="1.0000000" stop-color="#989690" offset="0.0000000"/>
            <stop stop-opacity="1.0000000" stop-color="#656460" offset="1.0000000"/>
        </linearGradient>
        <linearGradient x1="11.572842" gradientTransform="matrix(1.343475,0,0,1.417854,2.879511,0.314599)" y1="4.7461626" x2="18.475286" gradientUnits="userSpaceOnUse" y2="26.022910" xlink:type="simple" xlink:actuate="onLoad" xlink:show="other">
            <stop stop-opacity="1.0000000" stop-color="#ffffff" offset="0.0000000"/>
            <stop stop-opacity="1.0000000" stop-color="#e2e2e2" offset="1.0000000"/>
        </linearGradient>
        <linearGradient x1="5.8266134" gradientTransform="matrix(1.570607,0,0,1.190976,2.879512,0.343005)" y1="7.2310905" x2="13.467486" gradientUnits="userSpaceOnUse" y2="17.876846" xlink:type="simple" xlink:actuate="onLoad" xlink:show="other">
            <stop stop-opacity="1.0000000" stop-color="#ededed" offset="0.0000000"/>
            <stop stop-opacity="1.0000000" stop-color="#c8c8c8" offset="1.0000000"/>
        </linearGradient>
        <linearGradient x1="10.184240" gradientTransform="matrix(1.819266,0,0,1.028193,2.879512,0.343005)" y1="15.148383" x2="15.310744" gradientUnits="userSpaceOnUse" y2="29.568739" xlink:type="simple" xlink:actuate="onLoad" xlink:show="other">
            <stop stop-opacity="1" stop-color="#ffffff" offset="0"/>
            <stop stop-opacity="1.0000000" stop-color="#dcdcdc" offset="1.0000000"/>
        </linearGradient>
        <linearGradient x1="8.9156475" gradientTransform="matrix(2.454781,0,0,0.762004,2.879512,0.343005)" y1="37.197018" x2="9.8855033" gradientUnits="userSpaceOnUse" y2="52.090678" xlink:type="simple" xlink:actuate="onLoad" xlink:show="other">
            <stop stop-opacity="1.0000000" stop-color="#9aa29a" offset="0.0000000"/>
            <stop stop-opacity="1.0000000" stop-color="#b5beb5" offset="1.0000000"/>
        </linearGradient>
        <linearGradient x1="8.9156475" gradientTransform="matrix(2.454781,0,0,0.762004,2.879512,0.343005)" y1="37.197018" x2="9.8855033" gradientUnits="userSpaceOnUse" y2="52.090678" xlink:type="simple" xlink:actuate="onLoad" xlink:show="other">
            <stop stop-opacity="1.0000000" stop-color="#9aa29a" offset="0.0000000"/>
            <stop stop-opacity="1.0000000" stop-color="#b5beb5" offset="1.0000000"/>
        </linearGradient>
        <linearGradient x1="11.233107" gradientTransform="matrix(1.370928,0,0,1.443758,2.431133,-0.140786)" y1="13.686079" x2="21.111549" gradientUnits="userSpaceOnUse" y2="24.132717" xlink:type="simple" xlink:actuate="onLoad" xlink:show="other">
            <stop stop-opacity="1" stop-color="#ffffff" offset="0"/>
            <stop stop-opacity="1.0000000" stop-color="#ededed" offset="1.0000000"/>
        </linearGradient>
        <linearGradient x1="8.7803760" gradientTransform="matrix(2.3949,0,0,0.781058,2.879512,0.343005)" y1="37.784682" x2="9.7619219" gradientUnits="userSpaceOnUse" y2="32.203162" xlink:type="simple" xlink:actuate="onLoad" xlink:show="other">
            <stop stop-opacity="0.12871288" stop-color="#000000" offset="0.0000000"/>
            <stop stop-opacity="0.0000000" stop-color="#000000" offset="1.0000000"/>
        </linearGradient>
        <radialGradient gradientTransform="scale(1.902215,0.525703)" gradientUnits="userSpaceOnUse" xlink:type="simple" r="7.2284161" xlink:actuate="onLoad" cx="6.7027131" cy="73.615714" xlink:show="other" fx="6.7027131" fy="73.615714">
            <stop stop-opacity="1" stop-color="#000000" offset="0"/>
            <stop stop-opacity="0" stop-color="#000000" offset="1"/>
        </radialGradient>
        <linearGradient xlink:type="simple" xlink:actuate="onLoad" xlink:show="other">
            <stop stop-opacity="1" stop-color="#000000" offset="0"/>
            <stop stop-opacity="0" stop-color="#000000" offset="1"/>
        </linearGradient>
        <linearGradient xlink:type="simple" xlink:actuate="onLoad" xlink:show="other">
            <stop stop-opacity="1.0000000" stop-color="#ffffff" offset="0.0000000"/>
            <stop stop-opacity="1.0000000" stop-color="#e2e2e2" offset="1.0000000"/>
        </linearGradient>
        <linearGradient xlink:type="simple" xlink:actuate="onLoad" xlink:show="other">
            <stop stop-opacity="1.0000000" stop-color="#989690" offset="0.0000000"/>
            <stop stop-opacity="1.0000000" stop-color="#656460" offset="1.0000000"/>
        </linearGradient>
        <linearGradient xlink:type="simple" xlink:actuate="onLoad" xlink:show="other">
            <stop stop-opacity="1.0000000" stop-color="#ededed" offset="0.0000000"/>
            <stop stop-opacity="1.0000000" stop-color="#c8c8c8" offset="1.0000000"/>
        </linearGradient>
        <linearGradient xlink:type="simple" xlink:actuate="onLoad" xlink:show="other">
            <stop stop-opacity="1" stop-color="#ffffff" offset="0"/>
            <stop stop-opacity="1.0000000" stop-color="#dcdcdc" offset="1.0000000"/>
        </linearGradient>
        <linearGradient xlink:type="simple" xlink:actuate="onLoad" xlink:show="other">
            <stop stop-opacity="1.0000000" stop-color="#9aa29a" offset="0.0000000"/>
            <stop stop-opacity="1.0000000" stop-color="#b5beb5" offset="1.0000000"/>
        </linearGradient>
        <linearGradient xlink:type="simple" xlink:actuate="onLoad" xlink:show="other">
            <stop stop-opacity="1" stop-color="#ffffff" offset="0"/>
            <stop stop-opacity="1.0000000" stop-color="#ededed" offset="1.0000000"/>
        </linearGradient>
        <linearGradient xlink:type="simple" xlink:actuate="onLoad" xlink:show="other">
            <stop stop-opacity="0.12871288" stop-color="#000000" offset="0.0000000"/>
            <stop stop-opacity="0.0000000" stop-color="#000000" offset="1.0000000"/>
        </linearGradient>
        <linearGradient x1="302.85715" gradientTransform="matrix(2.774389,0,0,1.969706,-1892.179,-872.8854)" y1="366.64789" x2="302.85715" gradientUnits="userSpaceOnUse" y2="609.50507" xlink:type="simple" xlink:actuate="onLoad" xlink:show="other">
            <stop stop-opacity="0" stop-color="#000000" offset="0"/>
            <stop stop-opacity="1" stop-color="#000000" offset="0.5"/>
            <stop stop-opacity="0" stop-color="#000000" offset="1"/>
        </linearGradient>
        <linearGradient xlink:type="simple" xlink:actuate="onLoad" xlink:show="other">
            <stop stop-opacity="0" stop-color="#000000" offset="0"/>
            <stop stop-opacity="1" stop-color="#000000" offset="0.5"/>
            <stop stop-opacity="0" stop-color="#000000" offset="1"/>
        </linearGradient>
        <radialGradient gradientTransform="matrix(2.774389,0,0,1.969706,-1891.633,-872.8854)" gradientUnits="userSpaceOnUse" xlink:type="simple" r="117.14286" xlink:actuate="onLoad" cx="605.71429" cy="486.64789" xlink:show="other" fx="605.71429" fy="486.64789">
            <stop stop-opacity="1" stop-color="#000000" offset="0"/>
            <stop stop-opacity="0" stop-color="#000000" offset="1"/>
        </radialGradient>
        <linearGradient xlink:type="simple" xlink:actuate="onLoad" xlink:show="other">
            <stop stop-opacity="1" stop-color="#000000" offset="0"/>
            <stop stop-opacity="0" stop-color="#000000" offset="1"/>
        </linearGradient>
        <radialGradient gradientTransform="matrix(-2.774389,0,0,1.969706,112.7623,-872.8854)" gradientUnits="userSpaceOnUse" xlink:type="simple" r="117.14286" xlink:actuate="onLoad" cx="605.71429" cy="486.64789" xlink:show="other" fx="605.71429" fy="486.64789">
            <stop stop-opacity="1" stop-color="#000000" offset="0"/>
            <stop stop-opacity="0" stop-color="#000000" offset="1"/>
        </radialGradient>
        <linearGradient x1="2.0618774" gradientTransform="matrix(1.343475,0,0,1.417854,-29.526347,0.314599)" y1="15.257116" x2="30.599684" gradientUnits="userSpaceOnUse" y2="15.257116" xlink:type="simple" xlink:actuate="onLoad" xlink:show="other">
            <stop stop-opacity="1.0000000" stop-color="#989690" offset="0.0000000"/>
            <stop stop-opacity="1.0000000" stop-color="#656460" offset="1.0000000"/>
        </linearGradient>
        <linearGradient x1="2.0618774" gradientTransform="matrix(1.343475,0,0,1.417854,2.8795114,0.314599)" y1="15.257116" x2="30.599684" gradientUnits="userSpaceOnUse" y2="15.257116" xlink:type="simple" xlink:actuate="onLoad" xlink:show="other">
            <stop stop-opacity="1.0000000" stop-color="#989690" offset="0.0000000"/>
            <stop stop-opacity="1.0000000" stop-color="#656460" offset="1.0000000"/>
        </linearGradient>
        <linearGradient x1="11.233107" gradientTransform="matrix(1.370928,0,0,1.443758,2.431133,-0.140786)" y1="13.686079" x2="21.111549" gradientUnits="userSpaceOnUse" y2="24.132717" xlink:type="simple" xlink:actuate="onLoad" xlink:show="other">
            <stop stop-opacity="1" stop-color="#ffffff" offset="0"/>
            <stop stop-opacity="1.0000000" stop-color="#ededed" offset="1.0000000"/>
        </linearGradient>
    </defs>
    <g transform="matrix(1.2426122,0,0,1.2426122,-0.2664824,8.7793814)">
        <g>
            <path fill-opacity="1" display="inline" stroke="none" d="M 44.285717 38.714287 C 44.285717 44.147247 35.36339 48.551533 24.357143 48.551533 C 13.350898 48.551533 4.4285717 44.147247 4.4285717 38.714287 C 4.4285717 33.281326 13.350898 28.87704 24.357143 28.87704 C 35.36339 28.87704 44.285717 33.281326 44.285717 38.714287 z " visibility="visible" stroke-linecap="round" transform="matrix(1.18638,0,0,1.18638,-4.539687,-7.794678)" stroke-miterlimit="4" stroke-opacity="1" fill="url(#radialGradient2308)" stroke-width="0.50000042" color="#000000" stroke-linejoin="miter" stroke-dashoffset="0" fill-rule="evenodd"/>
        </g>
        <g>
            <path fill-opacity="1" display="inline" stroke="#3f4561" d="M 22.699524 0.9474696 C 22.22635 0.9798452 21.766436 1.0531317 21.301672 1.1063164 L 21.269903 1.1063164 L 20.157976 7.1742673 C 18.34562 7.5870047 16.640562 8.287457 15.106644 9.239277 L 10.118853 5.6493373 C 8.770521 6.6961412 7.543552 7.9170046 6.465374 9.239277 L 9.928236 14.290607 C 8.876814 15.89739 8.086153 17.732094 7.640841 19.659632 C 7.640765 19.668743 7.640779 19.689812 7.640841 19.6914 L 1.60466 20.644482 C 1.494303 21.545853 1.445813 22.477386 1.445813 23.40842 C 1.445813 24.170172 1.466846 24.921747 1.541121 25.664043 L 7.577303 26.744202 C 8.0066 28.840364 8.822112 30.797989 9.960006 32.52623 L 6.370066 37.45048 C 7.398201 38.726864 8.585171 39.88896 9.864698 40.913345 L 14.947798 37.418713 C 16.724274 38.551956 18.707344 39.346603 20.8569 39.737877 L 21.809984 45.742287 C 22.487236 45.803936 23.18176 45.80583 23.874992 45.80583 C 24.853676 45.805824 25.788511 45.768738 26.734236 45.64698 L 27.877932 39.51549 C 29.91886 39.007587 31.836111 38.12649 33.501114 36.942173 L 38.393597 40.500343 C 39.66237 39.420895 40.822582 38.180153 41.824688 36.846863 L 38.26652 31.700224 C 39.230125 30.036028 39.897816 28.19986 40.23622 26.235891 L 46.24063 25.282812 C 46.29329 24.65622 46.30417 24.048546 46.30417 23.40842 C 46.30417 22.29602 46.174877 21.205317 46.01825 20.136171 L 39.91853 19.024244 C 39.44052 17.259165 38.656216 15.612364 37.6629 14.13176 L 41.25284 9.207507 C 40.140076 7.846653 38.87072 6.589526 37.47228 5.5222597 L 32.293877 9.08043 C 30.805548 8.200202 29.203896 7.524816 27.464931 7.1424975 L 26.51185 1.1063164 C 25.644367 1.0042729 24.769749 0.9474696 23.874992 0.9474696 C 23.633163 0.94746965 23.384289 0.93986064 23.144297 0.9474696 C 23.0273 0.9511792 22.911524 0.94066346 22.794832 0.9474696 C 22.763227 0.949313 22.73107 0.9453113 22.699524 0.9474696 z M 23.525528 16.387386 C 23.641592 16.381496 23.757471 16.387386 23.874992 16.387386 C 27.635595 16.387386 30.705408 19.457195 30.705408 23.217802 C 30.705408 26.978409 27.635595 30.016447 23.874992 30.016447 C 20.114388 30.016447 17.076344 26.978409 17.076344 23.217802 C 17.076347 19.574717 19.92756 16.569963 23.525528 16.387386 z " visibility="visible" stroke-linecap="round" stroke-miterlimit="4" stroke-opacity="1" fill="url(#linearGradient3773)" stroke-dasharray="none" stroke-width="1" color="#000000" stroke-linejoin="round" stroke-dashoffset="0" fill-rule="nonzero"/>
            <path fill-opacity="0.64772728" display="inline" stroke="#ffffff" d="M 36.239223 23.781591 C 36.239223 30.81103 30.54074 36.509514 23.5113 36.509514 C 16.481863 36.509514 10.783379 30.81103 10.783379 23.781591 C 10.783379 16.752153 16.481863 11.053669 23.5113 11.053669 C 30.54074 11.053669 36.239223 16.752153 36.239223 23.781591 z " visibility="visible" stroke-linecap="butt" transform="matrix(0.616598,0,0,0.616598,9.38202,8.539674)" stroke-miterlimit="4" stroke-opacity="1" fill="none" stroke-dasharray="none" stroke-width="1.62180054" color="#000000" stroke-linejoin="miter" stroke-dashoffset="0" fill-rule="nonzero"/>
            <path fill-opacity="0.34659089" display="inline" stroke="#ffffff" d="M 21.995808 2.1484673 L 21.103024 8.023525 C 19.404257 8.410395 16.279442 9.593603 14.841657 10.485771 L 10.091975 6.940627 C 8.828145 7.9218254 8.741474 7.9883657 7.730867 9.227769 L 11.165063 14.320988 C 10.179537 15.827071 8.995796 18.510984 8.570778 20.42893 C 8.570778 20.42893 2.552988 21.443356 2.552988 21.443356 C 2.449547 22.288237 2.49926 24.096527 2.56888 24.792303 L 8.317097 25.82782 C 8.71949 27.79261 10.225324 30.955233 11.291904 32.57516 L 7.656902 37.37772 C 8.620601 38.57411 8.813474 38.683582 10.01281 39.64377 L 14.873441 36.082733 C 16.538582 37.14495 19.84373 38.437107 21.858572 38.80386 L 22.6563 44.604954 C 23.291107 44.662735 25.044828 44.82483 25.931284 44.7107 L 26.824066 38.67182 C 28.737083 38.195747 32.04254 36.838898 33.60319 35.7288 L 38.458626 39.23696 C 39.64788 38.225166 39.65853 38.07271 40.597836 36.822975 L 36.999817 31.708668 C 37.90303 30.148767 39.070904 27.098068 39.388096 25.257189 L 45.27905 24.279743 C 45.3284 23.692425 45.3308 22.05458 45.18399 21.05244 L 39.18209 20.016922 C 38.73404 18.362465 37.196415 15.381153 36.26536 13.993342 L 40.08007 9.190785 C 39.037052 7.915218 38.64924 7.7402 37.338448 6.7398214 L 32.313995 10.337839 C 30.91894 9.512778 28.137096 8.255042 26.507114 7.896684 L 25.619528 2.1484673 C 24.806414 2.0528188 22.460487 2.095292 21.995808 2.1484673 z " visibility="visible" stroke-linecap="butt" stroke-miterlimit="4" stroke-opacity="1" fill="none" stroke-dasharray="none" stroke-width="0.99999923" color="#000000" stroke-linejoin="miter" stroke-dashoffset="0" fill-rule="nonzero"/>
            <path fill-opacity="0.5" display="inline" stroke="none" d="M 10.102903 6.2970657 C 8.754569 7.3438697 8.165647 7.9719224 7.0874686 9.294194 L 10.489927 14.259153 C 9.438507 15.857755 8.331627 18.426111 8.1423855 19.987703 C 8.1423855 19.987703 2.079886 21.0319 2.079886 21.0319 C 2.010913 21.595257 1.90625 22.884804 1.90625 22.884804 L 2.083027 24.447304 C 2.5107567 24.53564 2.9231815 24.61782 3.364277 24.666052 L 3.864277 23.134804 C 4.2083178 23.16328 4.5439296 23.197304 4.895527 23.197304 C 5.2467346 23.197304 5.6139846 23.163471 5.958027 23.134804 L 6.426777 24.666052 C 6.868065 24.61782 7.3115487 24.53564 7.739277 24.447304 L 7.739277 22.884804 C 8.425034 22.72518 9.071278 22.497044 9.708027 22.228552 L 10.645527 23.509804 C 11.047878 23.327707 11.421123 23.133984 11.801777 22.916052 L 11.301777 21.416052 C 11.89901 21.053804 12.463529 20.620708 12.989277 20.166052 L 14.270527 21.103552 C 14.596162 20.806973 14.91164 20.491692 15.208027 20.166052 L 14.270527 18.916052 C 14.725373 18.390305 15.127027 17.826172 15.489277 17.228552 L 16.989277 17.697304 C 17.207209 17.316456 17.432571 16.943209 17.614277 16.541054 L 16.333027 15.603553 C 16.601517 14.966804 16.798016 14.320561 16.958029 13.634803 L 18.551777 13.634803 C 18.640112 13.207076 18.691236 12.763591 18.739277 12.322303 L 17.239277 11.853553 C 17.26814 11.509705 17.301777 11.142456 17.301777 10.791053 C 17.301777 10.43965 17.267752 10.104039 17.239277 9.759803 L 18.739277 9.291054 C 18.69373 8.871166 18.633686 8.449056 18.551777 8.041054 C 17.404348 8.440354 15.999117 9.194173 14.983265 9.824525 L 10.102903 6.2970657 z " visibility="visible" stroke-linecap="butt" stroke-miterlimit="4" stroke-opacity="1" fill="#ffffff" stroke-dasharray="none" stroke-width="1" color="#000000" stroke-linejoin="miter" stroke-dashoffset="0" fill-rule="nonzero"/>
            <path fill-opacity="0.5" display="inline" stroke="none" d="M 37.23664 17.217754 C 36.85286 17.39913 36.490005 17.603508 36.12324 17.813295 L 36.692886 19.548136 C 35.995792 19.970436 35.33816 20.467825 34.725006 20.998152 L 33.2491 19.91064 C 32.86901 20.256538 32.507328 20.618223 32.161587 20.998152 L 33.2491 22.47406 C 32.718773 23.087372 32.221546 23.745005 31.799084 24.441936 L 31.255327 24.260683 C 31.207644 24.960968 31.018948 25.62217 30.737469 26.228563 L 30.841038 26.306242 C 30.52788 27.048922 30.27649 27.83664 30.090136 28.636623 L 28.614227 28.636623 C 28.477943 28.722076 28.343676 28.821684 28.199938 28.895555 C 28.121569 29.310822 28.065023 29.71288 28.018688 30.138426 L 29.77942 30.708076 C 29.746033 31.10935 29.727633 31.515268 29.727633 31.925053 C 29.727633 32.33499 29.746037 32.740753 29.77942 33.14203 L 28.018688 33.71168 C 28.074703 34.226433 28.148678 34.74035 28.251724 35.239372 L 30.090136 35.21348 C 30.218256 35.763466 30.393202 36.32092 30.582108 36.844746 C 31.327024 36.557465 32.05594 36.21456 32.731236 35.80902 C 32.31965 34.59298 32.083908 33.27991 32.083908 31.925053 C 32.083908 26.72712 35.37629 22.288397 39.98131 20.58386 L 38.8938 20.402609 C 38.671017 19.579948 38.38248 18.774015 38.013435 18.02044 C 38.00258 17.998276 37.99851 17.96486 37.987545 17.94276 L 37.935757 17.890976 L 37.23664 17.217754 z " visibility="visible" stroke-linecap="butt" stroke-miterlimit="4" stroke-opacity="1" fill="#ffffff" stroke-dasharray="none" stroke-width="1" color="#000000" stroke-linejoin="miter" stroke-dashoffset="0" fill-rule="nonzero"/>
        </g>
    </g>
</svg>
