<?xml version="1.0" encoding="UTF-8"?>
<svg xmlns="http://www.w3.org/2000/svg" xmlns:xlink="http://www.w3.org/1999/xlink" contentScriptType="text/ecmascript" width="60" baseProfile="tiny" zoomAndPan="magnify" contentStyleType="text/css" viewBox="0 0 60 80" height="80" preserveAspectRatio="xMidYMid meet" version="1.0">
    <defs>
        <radialGradient gradientTransform="matrix(1,0,0,0.5,0,20)" id="radialGradient4044" gradientUnits="userSpaceOnUse" xlink:show="other" xlink:type="simple" r="17.142857" cx="23.857143" fx="23.857143" cy="40.000000" fy="40.000000" xlink:actuate="onLoad">
            <stop stop-opacity="1" stop-color="#000000" offset="0"/>
            <stop stop-opacity="0" stop-color="#000000" offset="1"/>
        </radialGradient>
        <linearGradient x1="16.071430" gradientTransform="translate(-5.19362,-3.314069)" y1="19.500000" x2="15.785715" gradientUnits="userSpaceOnUse" y2="30.000000" xlink:type="simple" xlink:actuate="onLoad" id="linearGradient4042" xlink:show="other">
            <stop stop-opacity="1" stop-color="#ffffff" offset="0"/>
            <stop stop-opacity="0" stop-color="#ffffff" offset="1"/>
        </linearGradient>
        <linearGradient x1="24.000000" y1="16.525082" x2="24.000000" gradientUnits="userSpaceOnUse" y2="13.284962" xlink:type="simple" xlink:actuate="onLoad" id="linearGradient4040" xlink:show="other">
            <stop stop-opacity="1.0000000" stop-color="#ffffff" offset="0.0000000"/>
            <stop stop-opacity="1.0000000" stop-color="#e7e6ae" offset="1.0000000"/>
        </linearGradient>
        <linearGradient x1="17.160095" gradientTransform="translate(-5.050764,-5.956924)" y1="14.004482" x2="37.969398" gradientUnits="userSpaceOnUse" y2="56.575912" xlink:type="simple" xlink:actuate="onLoad" id="linearGradient4038" xlink:show="other">
            <stop stop-opacity="1" stop-color="#ffffff" offset="0"/>
            <stop stop-opacity="0" stop-color="#ffffff" offset="1"/>
        </linearGradient>
        <linearGradient x1="10.116071" gradientTransform="translate(-5.050764,-5.956924)" y1="17.511776" x2="38.013393" gradientUnits="userSpaceOnUse" y2="17.511776" xlink:type="simple" xlink:actuate="onLoad" id="linearGradient4036" xlink:show="other">
            <stop stop-opacity="1.0000000" stop-color="#f79403" offset="0.0000000"/>
            <stop stop-opacity="1.0000000" stop-color="#fdb343" offset="0.18691589"/>
            <stop stop-opacity="1.0000000" stop-color="#fdb74f" offset="0.43008122"/>
            <stop stop-opacity="1.0000000" stop-color="#8f5601" offset="1.0000000"/>
        </linearGradient>
        <linearGradient x1="25.064732" gradientTransform="translate(-5.050764,-5.956924)" y1="21.857143" x2="25.207588" gradientUnits="userSpaceOnUse" y2="25.428572" xlink:type="simple" xlink:actuate="onLoad" id="linearGradient4034" xlink:show="other">
            <stop stop-opacity="1.0000000" stop-color="#7d4b01" offset="0.0000000"/>
            <stop stop-opacity="1.0000000" stop-color="#535353" offset="1.0000000"/>
        </linearGradient>
        <linearGradient x1="9.3030529" gradientTransform="translate(-5.050764,-5.956924)" y1="26.718750" x2="38.826412" gradientUnits="userSpaceOnUse" y2="26.718750" xlink:type="simple" xlink:actuate="onLoad" id="linearGradient4032" xlink:show="other">
            <stop stop-opacity="1.0000000" stop-color="#7e807a" offset="0.0000000"/>
            <stop stop-opacity="1.0000000" stop-color="#babbb8" offset="0.25000000"/>
            <stop stop-opacity="1.0000000" stop-color="#a5a6a3" offset="0.50000000"/>
            <stop stop-opacity="1.0000000" stop-color="#333432" offset="1.0000000"/>
        </linearGradient>
        <linearGradient x1="24.000000" y1="16.525082" x2="24.000000" gradientUnits="userSpaceOnUse" y2="13.284962" xlink:type="simple" xlink:actuate="onLoad" id="linearGradient4030" xlink:show="other">
            <stop stop-opacity="1.0000000" stop-color="#ffffff" offset="0.0000000"/>
            <stop stop-opacity="1.0000000" stop-color="#e7e6ae" offset="1.0000000"/>
        </linearGradient>
        <linearGradient x1="24.000000" y1="16.525082" x2="24.000000" gradientUnits="userSpaceOnUse" y2="13.284962" xlink:type="simple" xlink:actuate="onLoad" xlink:show="other">
            <stop stop-opacity="1.0000000" stop-color="#ffffff" offset="0.0000000"/>
            <stop stop-opacity="1.0000000" stop-color="#e7e6ae" offset="1.0000000"/>
        </linearGradient>
        <radialGradient gradientTransform="matrix(1,0,0,0.5,-7.086869e-16,20)" gradientUnits="userSpaceOnUse" xlink:type="simple" r="17.142857" xlink:actuate="onLoad" cx="23.857143" cy="40.000000" xlink:show="other" fx="23.857143" fy="40.000000">
            <stop stop-opacity="1" stop-color="#000000" offset="0"/>
            <stop stop-opacity="0" stop-color="#000000" offset="1"/>
        </radialGradient>
        <linearGradient x1="4.1914" y1="11.1133" x2="47.3197" gradientUnits="userSpaceOnUse" y2="56.0523" xlink:type="simple" xlink:actuate="onLoad" id="linearGradient3980" xlink:show="other">
            <stop stop-color="#d4d4d4" offset="0"/>
            <stop stop-color="#e2e2e2" offset="0.3982"/>
            <stop stop-color="#ffffff" offset="1"/>
        </linearGradient>
        <radialGradient gradientTransform="matrix(1,0,0,0.5,0,20)" id="radialGradient3105" gradientUnits="userSpaceOnUse" xlink:show="other" xlink:type="simple" r="17.142857" cx="23.857143" fx="23.857143" cy="40.000000" fy="40.000000" xlink:actuate="onLoad">
            <stop stop-opacity="1" stop-color="#000000" offset="0"/>
            <stop stop-opacity="0" stop-color="#000000" offset="1"/>
        </radialGradient>
        <linearGradient x1="4.1914" y1="11.1133" x2="47.3197" gradientUnits="userSpaceOnUse" y2="56.0523" xlink:type="simple" xlink:actuate="onLoad" xlink:show="other">
            <stop stop-color="#d4d4d4" offset="0"/>
            <stop stop-color="#e2e2e2" offset="0.3982"/>
            <stop stop-color="#ffffff" offset="1"/>
        </linearGradient>
        <radialGradient gradientTransform="matrix(1,0,0,0.5,2.000293e-14,20)" gradientUnits="userSpaceOnUse" xlink:type="simple" r="17.142857" xlink:actuate="onLoad" cx="23.857143" cy="40.000000" xlink:show="other" fx="23.857143" fy="40.000000">
            <stop stop-opacity="1" stop-color="#000000" offset="0"/>
            <stop stop-opacity="0" stop-color="#000000" offset="1"/>
        </radialGradient>
        <radialGradient gradientTransform="matrix(1.000000,0.000000,0.000000,0.500000,5.299057e-16,20.00000)" gradientUnits="userSpaceOnUse" xlink:type="simple" r="17.142857" xlink:actuate="onLoad" cx="23.857143" cy="40.000000" xlink:show="other" fx="23.857143" fy="40.000000">
            <stop stop-opacity="1" stop-color="#000000" offset="0"/>
            <stop stop-opacity="0" stop-color="#000000" offset="1"/>
        </radialGradient>
        <linearGradient x1="24.000000" y1="16.525082" x2="24.000000" gradientUnits="userSpaceOnUse" y2="13.284962" xlink:type="simple" xlink:actuate="onLoad" xlink:show="other">
            <stop stop-opacity="1.0000000" stop-color="#ffffff" offset="0.0000000"/>
            <stop stop-opacity="1.0000000" stop-color="#e7e6ae" offset="1.0000000"/>
        </linearGradient>
        <linearGradient x1="16.071430" gradientTransform="translate(-5.193620,-3.314069)" y1="19.500000" x2="15.785715" gradientUnits="userSpaceOnUse" y2="30.000000" xlink:type="simple" xlink:actuate="onLoad" xlink:show="other">
            <stop stop-opacity="1" stop-color="#ffffff" offset="0"/>
            <stop stop-opacity="0" stop-color="#ffffff" offset="1"/>
        </linearGradient>
        <linearGradient x1="25.064732" gradientTransform="translate(-5.050764,-5.956924)" y1="21.857143" x2="25.207588" gradientUnits="userSpaceOnUse" y2="25.428572" xlink:type="simple" xlink:actuate="onLoad" xlink:show="other">
            <stop stop-opacity="1.0000000" stop-color="#7d4b01" offset="0.0000000"/>
            <stop stop-opacity="1.0000000" stop-color="#535353" offset="1.0000000"/>
        </linearGradient>
        <linearGradient x1="17.160095" gradientTransform="translate(-5.050764,-5.956924)" y1="14.004482" x2="37.969398" gradientUnits="userSpaceOnUse" y2="56.575912" xlink:type="simple" xlink:actuate="onLoad" xlink:show="other">
            <stop stop-opacity="1" stop-color="#ffffff" offset="0"/>
            <stop stop-opacity="0" stop-color="#ffffff" offset="1"/>
        </linearGradient>
        <linearGradient x1="10.116071" gradientTransform="translate(-5.050764,-5.956924)" y1="17.511776" x2="38.013393" gradientUnits="userSpaceOnUse" y2="17.511776" xlink:type="simple" xlink:actuate="onLoad" xlink:show="other">
            <stop stop-opacity="1.0000000" stop-color="#f79403" offset="0.0000000"/>
            <stop stop-opacity="1.0000000" stop-color="#fdb343" offset="0.18691589"/>
            <stop stop-opacity="1.0000000" stop-color="#fdb74f" offset="0.43008122"/>
            <stop stop-opacity="1.0000000" stop-color="#8f5601" offset="1.0000000"/>
        </linearGradient>
        <linearGradient x1="24.000000" y1="16.525082" x2="24.000000" gradientUnits="userSpaceOnUse" y2="13.284962" xlink:type="simple" xlink:actuate="onLoad" xlink:show="other">
            <stop stop-opacity="1.0000000" stop-color="#ffffff" offset="0.0000000"/>
            <stop stop-opacity="1.0000000" stop-color="#e7e6ae" offset="1.0000000"/>
        </linearGradient>
        <linearGradient x1="9.3030529" gradientTransform="translate(-5.050764,-5.956924)" y1="26.718750" x2="38.826412" gradientUnits="userSpaceOnUse" y2="26.718750" xlink:type="simple" xlink:actuate="onLoad" xlink:show="other">
            <stop stop-opacity="1.0000000" stop-color="#7e807a" offset="0.0000000"/>
            <stop stop-opacity="1.0000000" stop-color="#babbb8" offset="0.25000000"/>
            <stop stop-opacity="1.0000000" stop-color="#a5a6a3" offset="0.50000000"/>
            <stop stop-opacity="1.0000000" stop-color="#333432" offset="1.0000000"/>
        </linearGradient>
        <radialGradient gradientTransform="matrix(1,0,0,0.5,0,20)" id="radialGradient4132" gradientUnits="userSpaceOnUse" xlink:show="other" xlink:type="simple" r="17.142857" cx="23.857143" fx="23.857143" cy="40.000000" fy="40.000000" xlink:actuate="onLoad">
            <stop stop-opacity="1" stop-color="#000000" offset="0"/>
            <stop stop-opacity="0" stop-color="#000000" offset="1"/>
        </radialGradient>
        <linearGradient xlink:type="simple" xlink:actuate="onLoad" xlink:show="other">
            <stop stop-opacity="1" stop-color="#000000" offset="0"/>
            <stop stop-opacity="0" stop-color="#000000" offset="1"/>
        </linearGradient>
        <linearGradient xlink:type="simple" xlink:actuate="onLoad" xlink:show="other">
            <stop stop-opacity="1.0000000" stop-color="#7e807a" offset="0.0000000"/>
            <stop stop-opacity="1.0000000" stop-color="#babbb8" offset="0.25000000"/>
            <stop stop-opacity="1.0000000" stop-color="#a5a6a3" offset="0.50000000"/>
            <stop stop-opacity="1.0000000" stop-color="#333432" offset="1.0000000"/>
        </linearGradient>
        <linearGradient xlink:type="simple" xlink:actuate="onLoad" xlink:show="other">
            <stop stop-opacity="1.0000000" stop-color="#f79403" offset="0.0000000"/>
            <stop stop-opacity="1.0000000" stop-color="#fdb343" offset="0.18691589"/>
            <stop stop-opacity="1.0000000" stop-color="#fdb74f" offset="0.43008122"/>
            <stop stop-opacity="1.0000000" stop-color="#8f5601" offset="1.0000000"/>
        </linearGradient>
        <linearGradient xlink:type="simple" xlink:actuate="onLoad" xlink:show="other">
            <stop stop-opacity="1" stop-color="#ffffff" offset="0"/>
            <stop stop-opacity="0" stop-color="#ffffff" offset="1"/>
        </linearGradient>
        <linearGradient xlink:type="simple" xlink:actuate="onLoad" xlink:show="other">
            <stop stop-opacity="1.0000000" stop-color="#7d4b01" offset="0.0000000"/>
            <stop stop-opacity="1.0000000" stop-color="#535353" offset="1.0000000"/>
        </linearGradient>
        <linearGradient x1="4.1914" y1="11.1133" x2="47.3197" gradientUnits="userSpaceOnUse" y2="56.0523" xlink:type="simple" xlink:actuate="onLoad" xlink:show="other">
            <stop stop-color="#d4d4d4" offset="0"/>
            <stop stop-color="#e2e2e2" offset="0.3982"/>
            <stop stop-color="#ffffff" offset="1"/>
        </linearGradient>
        <linearGradient xlink:type="simple" xlink:actuate="onLoad" xlink:show="other">
            <stop stop-opacity="1" stop-color="#ffffff" offset="0"/>
            <stop stop-opacity="0" stop-color="#ffffff" offset="1"/>
        </linearGradient>
        <linearGradient xlink:type="simple" xlink:actuate="onLoad" xlink:show="other">
            <stop stop-opacity="1.0000000" stop-color="#ffffff" offset="0.0000000"/>
            <stop stop-opacity="1.0000000" stop-color="#e7e6ae" offset="1.0000000"/>
        </linearGradient>
        <radialGradient gradientTransform="matrix(0.36343,0,0,0.181715,10.42172,-9.2617e-2)" id="radialGradient3383" gradientUnits="userSpaceOnUse" xlink:show="other" xlink:type="simple" r="17.142857" cx="23.857143" fx="23.857143" cy="40.000000" fy="40.000000" xlink:actuate="onLoad">
            <stop stop-opacity="1" stop-color="#000000" offset="0"/>
            <stop stop-opacity="0" stop-color="#000000" offset="1"/>
        </radialGradient>
        <radialGradient gradientTransform="matrix(1.027895,0,0,0.5756295,-4.901584,8.50562)" id="radialGradient3392" gradientUnits="userSpaceOnUse" xlink:show="other" xlink:type="simple" r="17.142857" cx="23.857143" fx="23.857143" cy="40.000000" fy="40.000000" xlink:actuate="onLoad">
            <stop stop-opacity="1" stop-color="#000000" offset="0"/>
            <stop stop-opacity="0" stop-color="#000000" offset="1"/>
        </radialGradient>
        <linearGradient gradientTransform="matrix(0.270725,0,0,0.223511,44.369844,0.910809)" id="linearGradient4030" gradientUnits="userSpaceOnUse" xlink:show="other" xlink:type="simple" x1="24.000000" y1="16.525082" x2="24.000000" y2="13.284962" xlink:actuate="onLoad">
            <stop stop-opacity="1.0000000" stop-color="#ffffff" offset="0.0000000"/>
            <stop stop-opacity="1.0000000" stop-color="#e7e6ae" offset="1.0000000"/>
        </linearGradient>
        <linearGradient gradientTransform="matrix(0.270725,0,0,0.223511,12.2289,0.910809)" id="linearGradient3402" gradientUnits="userSpaceOnUse" xlink:show="other" xlink:type="simple" x1="24.000000" y1="16.525082" y2="13.284962" x2="24.000000" xlink:actuate="onLoad">
            <stop stop-opacity="1.0000000" stop-color="#ffffff" offset="0.0000000"/>
            <stop stop-opacity="1.0000000" stop-color="#e7e6ae" offset="1.0000000"/>
        </linearGradient>
        <linearGradient gradientTransform="matrix(1.037291,0,0,0.954619,25.923391,-4.31836)" id="linearGradient4040" gradientUnits="userSpaceOnUse" xlink:show="other" xlink:type="simple" x1="24.000000" y1="16.525082" x2="24.000000" y2="13.284962" xlink:actuate="onLoad">
            <stop stop-opacity="1.0000000" stop-color="#ffffff" offset="0.0000000"/>
            <stop stop-opacity="1.0000000" stop-color="#e7e6ae" offset="1.0000000"/>
        </linearGradient>
        <linearGradient gradientTransform="matrix(1.037291,0,0,0.954619,-5.9457416,-4.31836)" id="linearGradient3412" gradientUnits="userSpaceOnUse" xlink:show="other" xlink:type="simple" x1="24.000000" y1="16.525082" y2="13.284962" x2="24.000000" xlink:actuate="onLoad">
            <stop stop-opacity="1.0000000" stop-color="#ffffff" offset="0.0000000"/>
            <stop stop-opacity="1.0000000" stop-color="#e7e6ae" offset="1.0000000"/>
        </linearGradient>
        <linearGradient gradientTransform="translate(-5.050764,-5.956924)" id="linearGradient3418" gradientUnits="userSpaceOnUse" xlink:show="other" xlink:type="simple" x1="17.160095" y1="14.004482" y2="56.575912" x2="37.969398" xlink:actuate="onLoad">
            <stop stop-opacity="1" stop-color="#ffffff" offset="0"/>
            <stop stop-opacity="0" stop-color="#ffffff" offset="1"/>
        </linearGradient>
        <linearGradient gradientTransform="translate(-5.050764,-5.956924)" id="linearGradient4032" gradientUnits="userSpaceOnUse" xlink:show="other" xlink:type="simple" x1="9.3030529" y1="26.718750" x2="38.826412" y2="26.718750" xlink:actuate="onLoad">
            <stop stop-opacity="1.0000000" stop-color="#7e807a" offset="0.0000000"/>
            <stop stop-opacity="1.0000000" stop-color="#babbb8" offset="0.25000000"/>
            <stop stop-opacity="1.0000000" stop-color="#a5a6a3" offset="0.50000000"/>
            <stop stop-opacity="1.0000000" stop-color="#333432" offset="1.0000000"/>
        </linearGradient>
        <linearGradient gradientTransform="translate(-5.050764,-5.956924)" id="linearGradient4034" gradientUnits="userSpaceOnUse" xlink:show="other" xlink:type="simple" x1="25.064732" y1="21.857143" x2="25.207588" y2="25.428572" xlink:actuate="onLoad">
            <stop stop-opacity="1.0000000" stop-color="#7d4b01" offset="0.0000000"/>
            <stop stop-opacity="1.0000000" stop-color="#535353" offset="1.0000000"/>
        </linearGradient>
        <linearGradient gradientTransform="translate(-5.050764,-5.956924)" id="linearGradient4036" gradientUnits="userSpaceOnUse" xlink:show="other" xlink:type="simple" x1="10.116071" y1="17.511776" x2="38.013393" y2="17.511776" xlink:actuate="onLoad">
            <stop stop-opacity="1.0000000" stop-color="#f79403" offset="0.0000000"/>
            <stop stop-opacity="1.0000000" stop-color="#fdb343" offset="0.18691589"/>
            <stop stop-opacity="1.0000000" stop-color="#fdb74f" offset="0.43008122"/>
            <stop stop-opacity="1.0000000" stop-color="#8f5601" offset="1.0000000"/>
        </linearGradient>
        <linearGradient gradientTransform="translate(-5.050764,-5.956924)" id="linearGradient4038" gradientUnits="userSpaceOnUse" xlink:show="other" xlink:type="simple" x1="17.160095" y1="14.004482" x2="37.969398" y2="56.575912" xlink:actuate="onLoad">
            <stop stop-opacity="1" stop-color="#ffffff" offset="0"/>
            <stop stop-opacity="0" stop-color="#ffffff" offset="1"/>
        </linearGradient>
        <linearGradient gradientTransform="translate(-5.19362,-3.314069)" id="linearGradient4042" gradientUnits="userSpaceOnUse" xlink:show="other" xlink:type="simple" x1="16.071430" y1="19.500000" x2="15.785715" y2="30.000000" xlink:actuate="onLoad">
            <stop stop-opacity="1" stop-color="#ffffff" offset="0"/>
            <stop stop-opacity="0" stop-color="#ffffff" offset="1"/>
        </linearGradient>
        <linearGradient gradientTransform="matrix(1.037291,0,0,0.954619,-5.9457416,-4.31836)" id="linearGradient4040" gradientUnits="userSpaceOnUse" xlink:show="other" xlink:type="simple" x1="24.000000" y1="16.525082" x2="24.000000" y2="13.284962" xlink:actuate="onLoad">
            <stop stop-opacity="1.0000000" stop-color="#ffffff" offset="0.0000000"/>
            <stop stop-opacity="1.0000000" stop-color="#e7e6ae" offset="1.0000000"/>
        </linearGradient>
        <linearGradient gradientTransform="translate(26.818368,-5.956924)" id="linearGradient4034" gradientUnits="userSpaceOnUse" xlink:show="other" xlink:type="simple" x1="25.064732" y1="21.857143" x2="25.207588" y2="25.428572" xlink:actuate="onLoad">
            <stop stop-opacity="1.0000000" stop-color="#7d4b01" offset="0.0000000"/>
            <stop stop-opacity="1.0000000" stop-color="#535353" offset="1.0000000"/>
        </linearGradient>
        <linearGradient gradientTransform="translate(-5.0507643,-5.956924)" id="linearGradient3456" gradientUnits="userSpaceOnUse" xlink:show="other" xlink:type="simple" x1="25.064732" y1="21.857143" y2="25.428572" x2="25.207588" xlink:actuate="onLoad">
            <stop stop-opacity="1.0000000" stop-color="#7d4b01" offset="0.0000000"/>
            <stop stop-opacity="1.0000000" stop-color="#535353" offset="1.0000000"/>
        </linearGradient>
    </defs>
    <g transform="matrix(1.2445185,0,0,1.2445185,-0.8850355,14.322098)">
        <path fill-opacity="1" display="block" stroke="none" d="M 37.24211 31.5308 C 37.24316 35.056667 33.88483 38.314953 28.432432 40.078056 C 22.980028 41.841156 16.262081 41.841156 10.809678 40.078056 C 5.3572736 38.314953 1.9989486 35.056667 1.9999985 31.5308 C 1.9989486 28.004932 5.3572736 24.746649 10.809678 22.983545 C 16.262081 21.220444 22.980028 21.220444 28.432432 22.983545 C 33.88483 24.746649 37.24316 28.004932 37.24211 31.5308 z " visibility="visible" stroke-linecap="butt" stroke-miterlimit="10" stroke-opacity="1" fill="url(#radialGradient3392)" stroke-dasharray="none" stroke-width="1" color="#000000" stroke-linejoin="miter" stroke-dashoffset="0" fill-rule="nonzero"/>
        <g transform="matrix(1.008529,0,0,0.982935,-0.172022,0.592473)">
            <path fill-opacity="1" display="block" stroke="none" d="M 18.886736 2.949324 C 11.027309 2.949324 4.6367373 5.7518253 4.636736 9.199326 C 4.636736 9.446711 4.636736 32.066685 4.636736 32.324326 C 4.636736 35.771828 11.027308 38.57433 18.886736 38.57433 C 26.746164 38.57433 33.3912 35.771824 33.3912 32.324326 C 33.3912 32.120262 33.3912 9.403386 33.3912 9.199326 C 33.3912 5.751824 26.746164 2.949324 18.886736 2.949324 z " visibility="visible" stroke-linecap="butt" stroke-miterlimit="10" stroke-opacity="1" fill="url(#linearGradient4032)" stroke-dasharray="none" stroke-width="1.0043689" color="#000000" stroke-linejoin="miter" stroke-dashoffset="0" fill-rule="nonzero"/>
            <path fill-opacity="1" display="block" stroke="none" d="M 18.890528 3.2058463 C 11.265384 3.2058463 5.0653086 5.924809 5.065307 9.269542 C 5.065307 9.509552 5.065307 15.577426 5.065307 15.827386 C 5.065307 19.17212 11.265383 21.475285 18.890528 21.475285 C 26.515676 21.475285 32.96263 19.17212 32.962627 15.827386 C 32.962627 15.629408 32.962627 9.467519 32.962627 9.269542 C 32.962627 5.924808 26.515676 3.2058463 18.890528 3.2058463 z " visibility="visible" stroke-linecap="butt" stroke-miterlimit="10" stroke-opacity="1" fill="url(#linearGradient4036)" stroke-dasharray="none" stroke-width="0.76899999" color="#000000" stroke-linejoin="miter" stroke-dashoffset="0" fill-rule="nonzero"/>
            <path fill-opacity="1" display="block" stroke="none" d="M 18.90625 3.21875 C 15.182681 3.21875 11.803927 3.8760648 9.3125 4.96875 C 8.066787 5.515093 7.017759 6.174854 6.28125 6.9375 C 5.544741 7.7001457 5.0937505 8.603781 5.09375 9.5625 C 5.09375 9.793145 5.09375 31.447292 5.09375 31.6875 C 5.09375 32.64622 5.544741 33.549854 6.28125 34.3125 C 7.0177593 35.075146 8.066787 35.703655 9.3125 36.25 C 11.803927 37.342686 15.182681 38.0 18.90625 38.0 C 22.629816 38.0 26.045124 37.340874 28.59375 36.25 C 29.868065 35.704563 30.92808 35.073715 31.6875 34.3125 C 32.44692 33.551285 32.906254 32.652397 32.90625 31.6875 C 32.90625 31.497145 32.90625 9.752757 32.90625 9.5625 C 32.90625 8.597603 32.44692 7.698716 31.6875 6.9375 C 30.92808 6.176284 29.868065 5.5141873 28.59375 4.96875 C 26.045124 3.877876 22.629816 3.21875 18.90625 3.21875 z M 18.90625 4.21875 C 22.51044 4.21875 25.83768 4.887093 28.21875 5.90625 C 29.409286 6.415828 30.337519 7.0235257 30.96875 7.65625 C 31.599981 8.288975 31.90625 8.920256 31.90625 9.5625 C 31.90625 9.752759 31.90625 31.497343 31.90625 31.6875 C 31.906252 32.329742 31.599981 32.961025 30.96875 33.59375 C 30.337519 34.226475 29.409286 34.83417 28.21875 35.34375 C 25.837679 36.362907 22.510439 37.0 18.90625 37.0 C 15.302059 37.0 12.038396 36.361095 9.71875 35.34375 C 8.558928 34.835075 7.6409087 34.225044 7.03125 33.59375 C 6.4215913 32.962456 6.125 32.335922 6.125 31.6875 C 6.125 31.447292 6.125 9.793157 6.125 9.5625 C 6.125 8.914078 6.4215913 8.256294 7.03125 7.625 C 7.6409087 6.9937057 8.558928 6.414923 9.71875 5.90625 C 12.038396 4.888904 15.302059 4.21875 18.90625 4.21875 z " visibility="visible" stroke-linecap="butt" stroke-miterlimit="10" stroke-opacity="1" fill="url(#linearGradient3418)" stroke-dasharray="none" stroke-width="1.0043689" color="#000000" stroke-linejoin="miter" stroke-dashoffset="0" fill-rule="nonzero"/>
            <path fill-opacity="1" display="block" stroke="none" d="M 36.857143 14.071428 C 36.857143 17.108995 31.100803 19.571428 24.0 19.571428 C 16.899197 19.571428 11.142858 17.108995 11.142858 14.071428 C 11.142858 11.033862 16.899197 8.571428 24.0 8.571428 C 31.100803 8.571428 36.857143 11.033862 36.857143 14.071428 z " visibility="visible" stroke-linecap="butt" transform="matrix(1.037291,0,0,0.954619,-5.945742,-4.31836)" stroke-miterlimit="10" stroke-opacity="1" fill="#fed496" stroke-dasharray="none" stroke-width="1.00931752" color="#000000" stroke-linejoin="miter" stroke-dashoffset="0" fill-rule="nonzero"/>
            <path fill-opacity="0.49367083" display="block" stroke="none" d="M 8.592095 13.757359 L 8.949238 30.543074 L 13.520666 31.828789 L 13.377809 15.114502 C 13.377809 15.114502 15.449237 15.114502 18.80638 14.900216 C 13.590637 14.667143 7.6230073 12.425536 5.5920954 10.971645 C 7.0089946 13.063821 8.592095 13.757359 8.592095 13.757359 z " visibility="visible" stroke-linecap="butt" stroke-miterlimit="4" stroke-opacity="1" fill="url(#linearGradient4042)" stroke-dasharray="none" stroke-width="1" color="#000000" stroke-linejoin="miter" stroke-dashoffset="0" fill-rule="nonzero"/>
            <path fill-opacity="1" display="block" stroke="none" d="M 18.943369 3.375 C 15.207145 3.375 11.844082 3.9554696 9.349618 4.9375 C 8.1023855 5.4285154 7.060024 6.0284367 6.3183675 6.71875 C 5.5767117 7.4090633 5.0996175 8.227724 5.0996175 9.125 C 5.0996175 10.022277 5.5767117 10.840936 6.3183675 11.53125 C 7.060024 12.221564 8.1023855 12.790235 9.349618 13.28125 C 11.844082 14.26328 15.207145 14.875 18.943369 14.875 C 22.679592 14.875 26.073904 14.26328 28.568369 13.28125 C 29.8156 12.790235 30.826712 12.221563 31.568369 11.53125 C 32.310024 10.840937 32.787117 10.022276 32.787117 9.125 C 32.787117 8.227724 32.310024 7.4090633 31.568369 6.71875 C 30.826712 6.0284367 29.8156 5.4285154 28.568369 4.9375 C 26.073904 3.9554696 22.679592 3.375 18.943369 3.375 z M 18.943369 4.375 C 22.572744 4.375 25.860931 4.9567575 28.193369 5.875 C 29.359587 6.334121 30.272787 6.871514 30.880869 7.4375 C 31.488949 8.003486 31.787119 8.572417 31.787119 9.125 C 31.787115 9.677583 31.48895 10.215264 30.880869 10.78125 C 27.5407 13.452088 23.020927 13.745222 18.943369 13.875 C 15.313991 13.875 12.025803 13.293242 9.693368 12.375 C 8.52715 11.915879 7.613949 11.347236 7.005868 10.78125 C 6.3977866 10.215264 6.0996175 9.677583 6.0996175 9.125 C 6.0996175 8.572417 6.3977866 8.003486 7.005868 7.4375 C 7.613949 6.871514 8.52715 6.334121 9.693368 5.875 C 12.025803 4.9567575 15.313992 4.375 18.943369 4.375 z " visibility="visible" stroke-linecap="butt" stroke-miterlimit="10" stroke-opacity="1" fill="url(#linearGradient3412)" stroke-dasharray="none" stroke-width="1.00436866" color="#000000" stroke-linejoin="miter" stroke-dashoffset="0" fill-rule="nonzero"/>
            <path fill-opacity="1" display="block" stroke="none" d="M 18.880869 2.4375 C 14.891466 2.4375 11.26558 3.1432674 8.599618 4.3125 C 7.266637 4.897116 6.197463 5.5930347 5.4121175 6.40625 C 4.626773 7.2194657 4.130869 8.170477 4.1308675 9.1875 C 4.130869 9.434761 4.1308675 32.05486 4.1308675 32.3125 C 4.1308675 33.329525 4.626773 34.280537 5.4121175 35.09375 C 6.197463 35.906963 7.266637 36.602882 8.599618 37.1875 C 11.26558 38.35673 14.891465 39.0625 18.880869 39.0625 C 22.870272 39.0625 26.559652 38.386173 29.287119 37.21875 C 30.65085 36.63504 31.789747 35.936783 32.599617 35.125 C 33.40949 34.313217 33.880867 33.3357 33.880867 32.3125 C 33.88087 32.108105 33.880867 9.391557 33.880867 9.1875 C 33.880867 8.164298 33.40949 7.218035 32.599617 6.40625 C 31.789747 5.594465 30.650852 4.8962107 29.287119 4.3125 C 26.559652 3.1450784 22.870272 2.4375 18.880869 2.4375 z M 18.880869 3.4375 C 22.750893 3.4375 26.320957 4.154296 28.880869 5.25 C 30.160824 5.797852 31.199188 6.441706 31.880869 7.125 C 32.56255 7.808294 32.880867 8.486951 32.880867 9.1875 C 32.880867 9.391563 32.88087 32.10877 32.880867 32.3125 C 32.880867 33.013046 32.56255 33.722958 31.880869 34.40625 C 31.199186 35.089542 30.160824 35.733395 28.880869 36.28125 C 26.320957 37.376957 22.750893 38.0625 18.880869 38.0625 C 15.010843 38.0625 11.500049 37.375145 9.005868 36.28125 C 7.7587776 35.734303 6.7893634 35.08811 6.1308675 34.40625 C 5.472373 33.724384 5.1308675 33.01923 5.1308675 32.3125 C 5.1308675 32.05486 5.130869 9.43501 5.1308675 9.1875 C 5.1308675 8.480774 5.472373 7.8068633 6.1308675 7.125 C 6.7893634 6.4431367 7.7587776 5.7969465 9.005868 5.25 C 11.500049 4.156107 15.010844 3.4375 18.880869 3.4375 z " visibility="visible" stroke-linecap="butt" stroke-miterlimit="10" stroke-opacity="1" fill="url(#linearGradient3456)" stroke-dasharray="none" stroke-width="1.0043689" color="#000000" stroke-linejoin="miter" stroke-dashoffset="0" fill-rule="nonzero"/>
        </g>
        <path fill-opacity="0.65822784" display="block" stroke="none" d="M 25.32235 7.175983 C 25.32272 8.289031 24.135328 9.317607 22.207537 9.874185 C 20.279743 10.430761 17.9045 10.430761 15.976708 9.874185 C 14.048916 9.317607 12.861522 8.289031 12.861893 7.175983 C 12.861522 6.062935 14.048916 5.034359 15.976708 4.477782 C 17.9045 3.9212048 20.279743 3.9212048 22.207537 4.477782 C 24.135328 5.034359 25.32272 6.062935 25.32235 7.175983 z " visibility="visible" stroke-linecap="butt" stroke-miterlimit="10" stroke-opacity="1" fill="url(#radialGradient3383)" stroke-dasharray="none" stroke-width="1" color="#000000" stroke-linejoin="miter" stroke-dashoffset="0" fill-rule="nonzero"/>
        <g transform="translate(0.306575,1)">
            <path fill-opacity="1" display="block" stroke="#b46c02" d="M 18.83868 2.2227073 C 16.835886 2.2227073 14.207396 2.93686 14.207396 3.815376 C 14.207396 3.878416 14.207396 6.379381 14.207396 6.445035 C 14.207396 7.323551 16.835886 8.037704 18.83868 8.037704 C 20.841476 8.037704 23.249096 7.323551 23.249096 6.445035 C 23.249096 6.3930354 23.249096 3.867376 23.249096 3.815376 C 23.249096 2.9368591 20.841476 2.2227073 18.83868 2.2227073 z " visibility="visible" stroke-linecap="butt" transform="matrix(0.995388,0,0,1.031815,6.552243e-2,-0.293424)" stroke-miterlimit="10" stroke-opacity="1" fill="#fcaf3e" stroke-dasharray="none" stroke-width="0.98674041" color="#000000" stroke-linejoin="miter" stroke-dashoffset="0" fill-rule="nonzero"/>
            <path fill-opacity="1" display="block" stroke="none" d="M 36.857143 14.071428 C 36.857143 17.108995 31.100803 19.571428 24.0 19.571428 C 16.899197 19.571428 11.142858 17.108995 11.142858 14.071428 C 11.142858 11.033862 16.899197 8.571428 24.0 8.571428 C 31.100803 8.571428 36.857143 11.033862 36.857143 14.071428 z " visibility="visible" stroke-linecap="butt" transform="matrix(0.270725,0,0,0.223511,12.2289,0.910809)" stroke-miterlimit="10" stroke-opacity="1" fill="#fed496" stroke-dasharray="none" stroke-width="4.065238" color="#000000" stroke-linejoin="miter" stroke-dashoffset="0" fill-rule="nonzero"/>
            <path fill-opacity="1" display="block" stroke="none" d="M 18.734056 2.3125 C 17.725157 2.3125 16.814247 2.469694 16.109056 2.71875 C 15.756459 2.843278 15.447731 2.9829888 15.202806 3.1875 C 14.957881 3.3920112 14.734056 3.701488 14.734056 4.0625 C 14.734056 4.423512 14.957882 4.701739 15.202806 4.90625 C 15.44773 5.110761 15.756459 5.281722 16.109056 5.40625 C 16.814247 5.655306 17.725157 5.78125 18.734056 5.78125 C 19.742956 5.78125 20.653864 5.655306 21.359056 5.40625 C 21.711653 5.281722 22.02038 5.110761 22.265306 4.90625 C 22.510233 4.701739 22.702805 4.4235115 22.702806 4.0625 C 22.702806 3.701488 22.51023 3.3920112 22.265306 3.1875 C 22.020382 2.9829888 21.711653 2.843278 21.359056 2.71875 C 20.653864 2.469694 19.742956 2.3125 18.734056 2.3125 z M 18.734056 3.3125 C 19.64752 3.3125 20.460716 3.4603832 21.015306 3.65625 C 21.2926 3.7541835 21.501707 3.879116 21.609056 3.96875 C 21.716404 4.058384 21.702806 4.0840473 21.702806 4.0625 C 21.702806 4.040953 21.716404 4.066616 21.609056 4.15625 C 21.501707 4.245884 21.2926 4.370816 21.015306 4.46875 C 20.460716 4.6646166 19.647522 4.78125 18.734056 4.78125 C 17.82059 4.78125 16.976147 4.6646166 16.421556 4.46875 C 16.14426 4.3708167 15.935153 4.245884 15.827806 4.15625 C 15.720459 4.066616 15.734056 4.040953 15.734056 4.0625 C 15.734056 4.0840473 15.720459 4.058384 15.827806 3.96875 C 15.935153 3.879116 16.14426 3.7541835 16.421556 3.65625 C 16.976147 3.4603832 17.820593 3.3125 18.734056 3.3125 z " visibility="visible" stroke-linecap="butt" stroke-miterlimit="10" stroke-opacity="1" fill="url(#linearGradient3402)" stroke-dasharray="none" stroke-width="0.99999911" color="#000000" stroke-linejoin="miter" stroke-dashoffset="0" fill-rule="nonzero"/>
        </g>
        <g>
            <path fill-opacity="0.5" display="block" stroke="none" d="M 41.0 40.0 C 41.001022 43.06262 37.733833 45.89281 32.429398 47.424267 C 27.12496 48.955723 20.589329 48.955723 15.28489 47.424267 C 9.980453 45.89281 6.713266 43.06262 6.7142873 40.0 C 6.713266 36.93738 9.980453 34.10719 15.28489 32.575733 C 20.589329 31.044275 27.12496 31.044275 32.429398 32.575733 C 37.733833 34.10719 41.001022 36.93738 41.0 40.0 z " visibility="visible" stroke-linecap="butt" transform="matrix(0.683333,0,0,0.323981,17.57956,30.81773)" stroke-miterlimit="10" stroke-opacity="1" fill="url(#radialGradient3105)" stroke-dasharray="none" stroke-width="1" color="#000000" stroke-linejoin="miter" stroke-dashoffset="0" fill-rule="nonzero"/>
            <g stroke-miterlimit="4" fill-rule="nonzero" transform="matrix(0.625,0,0,0.625,18.73909,17.94873)" stroke="#000000">
                <path fill="none" d="M 48.0 48.0 L 0.0 48.0 L 0.0 0.0 L 48.0 0.0 L 48.0 48.0 z " stroke="none"/>
            </g>
            <g>
                <path transform="matrix(1.005605,0,0,0.973549,12.74538,5.001568)" fill="#cc0000" fill-rule="nonzero" stroke-dasharray="none" d="M 33.386135 38.07159 L 22.511148 17.821611 C 22.198648 17.259115 21.636148 16.946615 21.011148 16.946615 C 20.386148 16.946615 19.82365 17.321611 19.511152 17.884111 L 8.886161 38.134094 C 8.636161 38.63409 8.636161 39.32159 8.948661 39.82159 C 9.26116 40.32159 9.76116 40.57159 10.38616 40.57159 L 31.88614 40.57159 C 32.511135 40.57159 33.073635 40.25909 33.323635 39.75909 C 33.636135 39.25909 33.636135 38.63409 33.386135 38.07159 z " stroke="#510000" stroke-width="1.0106653" stroke-opacity="1" stroke-miterlimit="4"/>
                <g stroke-miterlimit="4" fill-rule="nonzero" transform="matrix(0.628502,0,0,0.608468,18.78643,18.65104)" stroke="#000000">
                    <linearGradient x1="4.1914001" y1="11.1133" x2="47.319698" gradientUnits="userSpaceOnUse" y2="56.052299" xlink:type="simple" xlink:actuate="onLoad" xlink:show="other">
                        <stop stop-color="#d4d4d4" offset="0"/>
                        <stop stop-color="#e2e2e2" offset="0.3982"/>
                        <stop stop-color="#ffffff" offset="1"/>
                    </linearGradient>
                    <path fill="url(#linearGradient3980)" d="M 9.5 37.6 C 9.2 38.1 9.5 38.5 10.0 38.5 L 38.2 38.5 C 38.7 38.5 39.0 38.1 38.7 37.6 L 24.4 11.0 C 24.1 10.5 23.7 10.5 23.5 11.0 L 9.5 37.6 z " stroke="none"/>
                </g>
            </g>
            <g stroke-miterlimit="4" fill-rule="nonzero" transform="matrix(0.543542,0,0,0.549893,21.00934,19.92504)" stroke="#000000">
                <path d="M 23.9 36.5 C 22.6 36.5 21.6 35.5 21.6 34.2 C 21.6 32.8 22.5 31.9 23.9 31.9 C 25.3 31.9 26.1 32.8 26.2 34.2 C 26.2 35.5 25.3 36.5 23.9 36.5 L 23.9 36.5 z M 22.5 30.6 L 21.9 19.1 L 25.9 19.1 L 25.3 30.6 L 22.4 30.6 L 22.5 30.6 z " stroke="none"/>
            </g>
        </g>
    </g>
</svg>
