<?xml version="1.0" encoding="UTF-8"?>
<svg xmlns="http://www.w3.org/2000/svg" xmlns:xlink="http://www.w3.org/1999/xlink" contentScriptType="text/ecmascript" width="84" baseProfile="tiny" zoomAndPan="magnify" contentStyleType="text/css" viewBox="0 0 84 72" height="72" preserveAspectRatio="xMidYMid meet" version="1.1">
    <defs>
        <linearGradient x1="24" gradientTransform="matrix(-1,0,0,1,48,0)" y1="19.505583" x2="19.982143" gradientUnits="userSpaceOnUse" y2="19.550226" xlink:type="simple" xlink:actuate="onLoad" id="linearGradient7552" xlink:show="other">
            <stop stop-color="#888a85" offset="0"/>
            <stop stop-opacity="0" stop-color="#d3d7cf" offset="1"/>
        </linearGradient>
        <linearGradient x1="24" gradientTransform="matrix(-1,0,0,1,48,0)" y1="19.996655" x2="32" gradientUnits="userSpaceOnUse" y2="19.90625" xlink:type="simple" xlink:actuate="onLoad" id="linearGradient7550" xlink:show="other">
            <stop stop-color="#babdb6" offset="0"/>
            <stop stop-opacity="0" stop-color="#d3d7cf" offset="1"/>
        </linearGradient>
        <linearGradient x1="19.940901" y1="10.918805" x2="24" gradientUnits="userSpaceOnUse" y2="22.750927" xlink:type="simple" xlink:actuate="onLoad" id="linearGradient7548" xlink:show="other">
            <stop stop-opacity="1" stop-color="#cccccc" offset="0"/>
            <stop stop-opacity="1" stop-color="#9b9b9b" offset="1"/>
        </linearGradient>
        <linearGradient x1="15.714286" y1="16.82852" x2="36.482143" gradientUnits="userSpaceOnUse" y2="20.667807" xlink:type="simple" xlink:actuate="onLoad" id="linearGradient7546" xlink:show="other">
            <stop stop-opacity="1" stop-color="#ffffff" offset="0"/>
            <stop stop-opacity="1" stop-color="#e3e3e3" offset="1"/>
        </linearGradient>
        <linearGradient x1="6.7230334" y1="37.683041" x2="37.804565" gradientUnits="userSpaceOnUse" y2="29.096745" xlink:type="simple" xlink:actuate="onLoad" id="linearGradient7544" xlink:show="other">
            <stop stop-opacity="1" stop-color="#ffffff" offset="0"/>
            <stop stop-opacity="0" stop-color="#ffffff" offset="1"/>
        </linearGradient>
        <linearGradient x1="37.535713" y1="34.196426" x2="9.9285688" gradientUnits="userSpaceOnUse" y2="20.089285" xlink:type="simple" xlink:actuate="onLoad" id="linearGradient7542" xlink:show="other">
            <stop stop-opacity="1" stop-color="#babdb6" offset="0"/>
            <stop stop-opacity="1" stop-color="#8f9488" offset="1"/>
        </linearGradient>
        <radialGradient gradientTransform="matrix(1,0,0,0.3,0,25.725)" id="radialGradient7540" gradientUnits="userSpaceOnUse" xlink:show="other" xlink:type="simple" r="22.5" cx="24" fx="24" cy="36.75" fy="36.75" xlink:actuate="onLoad">
            <stop stop-color="#555753" offset="0"/>
            <stop stop-opacity="0" stop-color="#555753" offset="1"/>
        </radialGradient>
        <radialGradient gradientTransform="matrix(2.592963,-7.7469e-24,-5.714443e-24,2.252104,-25.05975,-18.941)" gradientUnits="userSpaceOnUse" xlink:type="simple" r="6.6562500" xlink:actuate="onLoad" cx="15.414371" cy="13.078408" xlink:show="other" fx="15.414371" fy="13.078408">
            <stop stop-opacity="1" stop-color="#ffffff" offset="0"/>
            <stop stop-opacity="0.24761905" stop-color="#ffffff" offset="1.0000000"/>
        </radialGradient>
        <radialGradient gradientUnits="userSpaceOnUse" xlink:type="simple" r="8.3085051" xlink:actuate="onLoad" cx="18.240929" cy="21.817987" xlink:show="other" fx="18.240929" fy="21.817987">
            <stop stop-opacity="0.20784314" stop-color="#729fcf" offset="0.0000000"/>
            <stop stop-opacity="0.67619050" stop-color="#729fcf" offset="1.0000000"/>
        </radialGradient>
        <linearGradient x1="18.292673" y1="13.602121" x2="17.500893" gradientUnits="userSpaceOnUse" y2="25.743469" xlink:type="simple" xlink:actuate="onLoad" xlink:show="other">
            <stop stop-opacity="1" stop-color="#ffffff" offset="0"/>
            <stop stop-opacity="0.21904762" stop-color="#ffffff" offset="0.50000000"/>
            <stop stop-opacity="1.0000000" stop-color="#ffffff" offset="1.0000000"/>
        </linearGradient>
        <linearGradient x1="30.656250" gradientTransform="matrix(1.334593,0,0,1.291292,-6.973842,-7.460658)" y1="34.000000" x2="33.218750" gradientUnits="userSpaceOnUse" y2="31.062500" xlink:type="simple" xlink:actuate="onLoad" xlink:show="other">
            <stop stop-opacity="1" stop-color="#7d7d7d" offset="0"/>
            <stop stop-opacity="1.0000000" stop-color="#b1b1b1" offset="0.50000000"/>
            <stop stop-opacity="1.0000000" stop-color="#686868" offset="1.0000000"/>
        </linearGradient>
        <linearGradient x1="27.366341" y1="26.580296" x2="31.335964" gradientUnits="userSpaceOnUse" y2="30.557772" xlink:type="simple" xlink:actuate="onLoad" xlink:show="other">
            <stop stop-opacity="1.0000000" stop-color="#8a8a8a" offset="0.0000000"/>
            <stop stop-opacity="1.0000000" stop-color="#484848" offset="1.0000000"/>
        </linearGradient>
        <radialGradient gradientTransform="matrix(1,0,0,0.237968,-1.864568e-14,28.93278)" gradientUnits="userSpaceOnUse" xlink:type="simple" r="16.528622" xlink:actuate="onLoad" cx="24.130018" cy="37.967922" xlink:show="other" fx="24.130018" fy="37.967922">
            <stop stop-opacity="1" stop-color="#000000" offset="0"/>
            <stop stop-opacity="0" stop-color="#000000" offset="1"/>
        </radialGradient>
        <linearGradient xlink:type="simple" xlink:actuate="onLoad" xlink:show="other">
            <stop stop-opacity="1" stop-color="#ffffff" offset="0"/>
            <stop stop-opacity="1" stop-color="#e3e3e3" offset="1"/>
        </linearGradient>
        <linearGradient xlink:type="simple" xlink:actuate="onLoad" xlink:show="other">
            <stop stop-color="#babdb6" offset="0"/>
            <stop stop-opacity="0" stop-color="#d3d7cf" offset="1"/>
        </linearGradient>
        <linearGradient xlink:type="simple" xlink:actuate="onLoad" xlink:show="other">
            <stop stop-color="#888a85" offset="0"/>
            <stop stop-opacity="0" stop-color="#d3d7cf" offset="1"/>
        </linearGradient>
        <linearGradient xlink:type="simple" xlink:actuate="onLoad" xlink:show="other">
            <stop stop-opacity="1" stop-color="#cccccc" offset="0"/>
            <stop stop-opacity="1" stop-color="#9b9b9b" offset="1"/>
        </linearGradient>
        <linearGradient xlink:type="simple" xlink:actuate="onLoad" xlink:show="other">
            <stop stop-opacity="1" stop-color="#babdb6" offset="0"/>
            <stop stop-opacity="1" stop-color="#8f9488" offset="1"/>
        </linearGradient>
        <linearGradient xlink:type="simple" xlink:actuate="onLoad" xlink:show="other">
            <stop stop-color="#555753" offset="0"/>
            <stop stop-opacity="0" stop-color="#555753" offset="1"/>
        </linearGradient>
        <linearGradient xlink:type="simple" xlink:actuate="onLoad" xlink:show="other">
            <stop stop-opacity="1" stop-color="#ffffff" offset="0"/>
            <stop stop-opacity="0" stop-color="#ffffff" offset="1"/>
        </linearGradient>
        <linearGradient xlink:type="simple" xlink:actuate="onLoad" xlink:show="other">
            <stop stop-opacity="1" stop-color="#000000" offset="0"/>
            <stop stop-opacity="0" stop-color="#000000" offset="1"/>
        </linearGradient>
        <linearGradient xlink:type="simple" xlink:actuate="onLoad" xlink:show="other">
            <stop stop-opacity="1.0000000" stop-color="#8a8a8a" offset="0.0000000"/>
            <stop stop-opacity="1.0000000" stop-color="#484848" offset="1.0000000"/>
        </linearGradient>
        <linearGradient xlink:type="simple" xlink:actuate="onLoad" xlink:show="other">
            <stop stop-opacity="1" stop-color="#7d7d7d" offset="0"/>
            <stop stop-opacity="1.0000000" stop-color="#b1b1b1" offset="0.50000000"/>
            <stop stop-opacity="1.0000000" stop-color="#686868" offset="1.0000000"/>
        </linearGradient>
        <linearGradient xlink:type="simple" xlink:actuate="onLoad" xlink:show="other">
            <stop stop-opacity="1" stop-color="#ffffff" offset="0"/>
            <stop stop-opacity="0.21904762" stop-color="#ffffff" offset="0.50000000"/>
            <stop stop-opacity="1.0000000" stop-color="#ffffff" offset="1.0000000"/>
        </linearGradient>
        <linearGradient xlink:type="simple" xlink:actuate="onLoad" xlink:show="other">
            <stop stop-opacity="0.20784314" stop-color="#729fcf" offset="0.0000000"/>
            <stop stop-opacity="0.67619050" stop-color="#729fcf" offset="1.0000000"/>
        </linearGradient>
        <linearGradient xlink:type="simple" xlink:actuate="onLoad" xlink:show="other">
            <stop stop-opacity="1" stop-color="#ffffff" offset="0"/>
            <stop stop-opacity="0.24761905" stop-color="#ffffff" offset="1.0000000"/>
        </linearGradient>
        <linearGradient x1="42.1875" y1="31" x2="45" gradientUnits="userSpaceOnUse" y2="39.984692" xlink:type="simple" xlink:actuate="onLoad" xlink:show="other">
            <stop stop-opacity="1" stop-color="#bbbdba" offset="0"/>
            <stop stop-opacity="1" stop-color="#70746e" offset="1"/>
        </linearGradient>
        <linearGradient x1="35.996582" gradientTransform="translate(5.14757,-3.034792)" y1="40.458221" x2="33.664921" gradientUnits="userSpaceOnUse" y2="37.770721" xlink:type="simple" xlink:actuate="onLoad" xlink:show="other">
            <stop stop-opacity="1" stop-color="#7c7c7c" offset="0"/>
            <stop stop-opacity="1" stop-color="#b8b8b8" offset="1"/>
        </linearGradient>
        <linearGradient x1="33.396004" gradientTransform="translate(5.14757,-3.409792)" y1="36.921333" x2="34.170048" gradientUnits="userSpaceOnUse" y2="38.070381" xlink:type="simple" xlink:actuate="onLoad" xlink:show="other">
            <stop stop-opacity="1" stop-color="#ffffff" offset="0"/>
            <stop stop-opacity="0" stop-color="#ffffff" offset="1"/>
        </linearGradient>
        <radialGradient gradientTransform="matrix(1.710531,0,0,1.124849,-11.56833,1.802582)" gradientUnits="userSpaceOnUse" xlink:type="simple" r="19.96875" xlink:actuate="onLoad" cx="12.700491" cy="10.404876" xlink:show="other" fx="12.700491" fy="10.404876">
            <stop stop-opacity="1" stop-color="#ffffff" offset="0"/>
            <stop stop-opacity="0" stop-color="#ffffff" offset="1"/>
        </radialGradient>
        <linearGradient gradientTransform="matrix(1.434003,0,0,0.990087,52.32167,2.838918)" gradientUnits="userSpaceOnUse" stroke-miterlimit="4.0000000" xlink:show="other" xlink:type="simple" stroke-dasharray="none" y1="3.7319" x1="12.4873" y2="36.0328" x2="31.0813" stroke-width="1.2166667" xlink:actuate="onLoad">
            <stop stroke-width="1.2166667" stroke-miterlimit="4.0000000" stroke-dasharray="none" stop-color="#d2d2d2" offset="0"/>
            <stop stroke-width="1.2166667" stroke-miterlimit="4.0000000" stroke-dasharray="none" stop-color="#ededed" offset="1"/>
        </linearGradient>
        <linearGradient gradientTransform="matrix(1.098989,0,0,1.106697,-1.953865,-4.922453)" gradientUnits="userSpaceOnUse" stroke-miterlimit="4.0000000" xlink:show="other" xlink:type="simple" stroke-dasharray="none" y1="24.6274" x1="21.9326" y2="7.1091" x2="21.9326" stroke-width="1.2166667" xlink:actuate="onLoad">
            <stop stroke-width="1.2166667" stroke-miterlimit="4.0000000" stroke-dasharray="none" stop-color="#d0d6e5" offset="0"/>
            <stop stroke-width="1.2166667" stroke-miterlimit="4.0000000" stroke-dasharray="none" stop-color="#093a80" offset="1"/>
        </linearGradient>
        <linearGradient gradientTransform="matrix(1.098989,0,0,-0.797757,-1.953865,37.324)" gradientUnits="userSpaceOnUse" stroke-miterlimit="4.0000000" xlink:show="other" xlink:type="simple" stroke-dasharray="none" y1="24.627399" x1="21.9326" y2="7.1090999" x2="21.9326" stroke-width="1.2166667" xlink:actuate="onLoad">
            <stop stop-opacity="1" stop-color="#8595bc" offset="0"/>
            <stop stop-opacity="1" stop-color="#041a3b" offset="1"/>
        </linearGradient>
        <radialGradient gradientTransform="matrix(1.000000,0.000000,0.000000,0.184000,0.000000,33.97501)" gradientUnits="userSpaceOnUse" xlink:type="simple" r="22.097088" xlink:actuate="onLoad" cx="24.218407" cy="41.636040" xlink:show="other" fx="24.218407" fy="41.636040">
            <stop stop-opacity="1" stop-color="#000000" offset="0"/>
            <stop stop-opacity="0" stop-color="#000000" offset="1"/>
        </radialGradient>
        <linearGradient gradientUnits="userSpaceOnUse" stroke-miterlimit="4.0000000" xlink:show="other" xlink:type="simple" stroke-dasharray="none" x1="21.9326" y1="24.6274" y2="7.1091" x2="21.9326" stroke-width="1.2166667" xlink:actuate="onLoad">
            <stop stroke-width="1.2166667" stroke-miterlimit="4.0000000" stroke-dasharray="none" stop-color="#d0d6e5" offset="0"/>
            <stop stroke-width="1.2166667" stroke-miterlimit="4.0000000" stroke-dasharray="none" stop-color="#093a80" offset="1"/>
        </linearGradient>
        <linearGradient gradientUnits="userSpaceOnUse" stroke-miterlimit="4.0000000" xlink:show="other" xlink:type="simple" stroke-dasharray="none" x1="21.877" y1="30.3413" y2="22.5769" x2="21.9168" stroke-width="1.2166667" xlink:actuate="onLoad">
            <stop stop-opacity="1.0000000" stop-color="#5e4f07" offset="0.0000000"/>
            <stop stop-opacity="1.0000000" stop-color="#348a31" offset="1.0000000"/>
        </linearGradient>
        <linearGradient gradientUnits="userSpaceOnUse" stroke-miterlimit="4.0000000" xlink:show="other" xlink:type="simple" stroke-dasharray="none" x1="12.4873" y1="3.7319" y2="36.0328" x2="31.0813" stroke-width="1.2166667" xlink:actuate="onLoad">
            <stop stroke-width="1.2166667" stroke-miterlimit="4.0000000" stroke-dasharray="none" stop-color="#d2d2d2" offset="0"/>
            <stop stroke-width="1.2166667" stroke-miterlimit="4.0000000" stroke-dasharray="none" stop-color="#ededed" offset="1"/>
        </linearGradient>
        <linearGradient xlink:type="simple" xlink:actuate="onLoad" xlink:show="other">
            <stop stop-opacity="1" stop-color="#000000" offset="0"/>
            <stop stop-opacity="0" stop-color="#000000" offset="1"/>
        </linearGradient>
        <linearGradient xlink:type="simple" xlink:actuate="onLoad" xlink:show="other">
            <stop stop-opacity="1.0000000" stop-color="#715b26" offset="0.0000000"/>
            <stop stop-opacity="1.0000000" stop-color="#312710" offset="1.0000000"/>
        </linearGradient>
        <linearGradient gradientUnits="userSpaceOnUse" stroke-miterlimit="4.0000000" xlink:show="other" xlink:type="simple" stroke-dasharray="none" x1="21.9326" y1="24.6274" y2="7.1091" x2="21.9326" stroke-width="1.2166667" xlink:actuate="onLoad">
            <stop stop-opacity="1" stop-color="#8595bc" offset="0"/>
            <stop stop-opacity="1" stop-color="#041a3b" offset="1"/>
        </linearGradient>
        <linearGradient xlink:type="simple" xlink:actuate="onLoad" xlink:show="other">
            <stop stop-opacity="1" stop-color="#ffffff" offset="0"/>
            <stop stop-opacity="0" stop-color="#ffffff" offset="1"/>
        </linearGradient>
        <linearGradient xlink:type="simple" xlink:actuate="onLoad" xlink:show="other">
            <stop stop-opacity="1" stop-color="#7c7c7c" offset="0"/>
            <stop stop-opacity="1" stop-color="#b8b8b8" offset="1"/>
        </linearGradient>
        <linearGradient xlink:type="simple" xlink:actuate="onLoad" xlink:show="other">
            <stop stop-opacity="1" stop-color="#ffffff" offset="0"/>
            <stop stop-opacity="0" stop-color="#ffffff" offset="1"/>
        </linearGradient>
        <linearGradient xlink:type="simple" xlink:actuate="onLoad" xlink:show="other">
            <stop stop-opacity="1" stop-color="#bbbdba" offset="0"/>
            <stop stop-opacity="1" stop-color="#70746e" offset="1"/>
        </linearGradient>
        <linearGradient x1="302.85715" gradientTransform="matrix(2.774389,0,0,1.969706,-1892.179,-872.8854)" y1="366.64789" x2="302.85715" gradientUnits="userSpaceOnUse" y2="609.50507" xlink:type="simple" xlink:actuate="onLoad" id="linearGradient6715" xlink:show="other">
            <stop stop-opacity="0" stop-color="#000000" offset="0"/>
            <stop stop-opacity="1" stop-color="#000000" offset="0.5"/>
            <stop stop-opacity="0" stop-color="#000000" offset="1"/>
        </linearGradient>
        <linearGradient xlink:type="simple" xlink:actuate="onLoad" xlink:show="other">
            <stop stop-opacity="0" stop-color="#000000" offset="0"/>
            <stop stop-opacity="1" stop-color="#000000" offset="0.5"/>
            <stop stop-opacity="0" stop-color="#000000" offset="1"/>
        </linearGradient>
        <radialGradient gradientTransform="matrix(2.774389,0,0,1.969706,-1891.633,-872.8854)" id="radialGradient6717" gradientUnits="userSpaceOnUse" xlink:show="other" xlink:type="simple" r="117.14286" cx="605.71429" fx="605.71429" cy="486.64789" fy="486.64789" xlink:actuate="onLoad">
            <stop stop-opacity="1" stop-color="#000000" offset="0"/>
            <stop stop-opacity="0" stop-color="#000000" offset="1"/>
        </radialGradient>
        <linearGradient xlink:type="simple" xlink:actuate="onLoad" xlink:show="other">
            <stop stop-opacity="1" stop-color="#000000" offset="0"/>
            <stop stop-opacity="0" stop-color="#000000" offset="1"/>
        </linearGradient>
        <radialGradient gradientTransform="matrix(-2.774389,0,0,1.969706,112.7623,-872.8854)" id="radialGradient6719" gradientUnits="userSpaceOnUse" xlink:show="other" xlink:type="simple" r="117.14286" cx="605.71429" fx="605.71429" cy="486.64789" fy="486.64789" xlink:actuate="onLoad">
            <stop stop-opacity="1" stop-color="#000000" offset="0"/>
            <stop stop-opacity="0" stop-color="#000000" offset="1"/>
        </radialGradient>
        <linearGradient gradientTransform="translate(-0.599666,-0.578168)" id="linearGradient4387" gradientUnits="userSpaceOnUse" xlink:show="other" xlink:type="simple" x1="2.7612331" y1="6.1102505" y2="18.693317" x2="18.772917" xlink:actuate="onLoad">
            <stop stop-opacity="1" stop-color="#fdfdfd" offset="0"/>
            <stop stop-opacity="1.0000000" stop-color="#d4d4d4" offset="1.0000000"/>
        </linearGradient>
        <linearGradient x1="2.7612331" y1="6.1102505" x2="18.772917" gradientUnits="userSpaceOnUse" y2="18.693317" xlink:type="simple" xlink:actuate="onLoad" id="linearGradient4385" xlink:show="other">
            <stop stop-opacity="1" stop-color="#fdfdfd" offset="0"/>
            <stop stop-opacity="1.0000000" stop-color="#d4d4d4" offset="1.0000000"/>
        </linearGradient>
        <linearGradient x1="10.678571" y1="15.928572" x2="7.9285712" gradientUnits="userSpaceOnUse" y2="11.107142" xlink:type="simple" xlink:actuate="onLoad" id="linearGradient3599" xlink:show="other">
            <stop stop-opacity="1" stop-color="#939393" offset="0"/>
            <stop stop-opacity="1.0000000" stop-color="#d9d9d9" offset="1.0000000"/>
        </linearGradient>
        <radialGradient gradientTransform="matrix(1.000000,0.000000,0.000000,0.207120,0.000000,35.11327)" id="linearGradient3575" gradientUnits="userSpaceOnUse" xlink:show="other" xlink:type="simple" r="22.071428" cx="24.642857" fx="24.642857" cy="44.285713" fy="44.285713" xlink:actuate="onLoad">
            <stop stop-opacity="1" stop-color="#000000" offset="0"/>
            <stop stop-opacity="0" stop-color="#000000" offset="1"/>
        </radialGradient>
        <linearGradient x1="5.4635010" y1="13.142847" x2="21.536488" gradientUnits="userSpaceOnUse" y2="49.142849" xlink:type="simple" xlink:actuate="onLoad" id="linearGradient2619" xlink:show="other">
            <stop stop-opacity="1" stop-color="#ffffff" offset="0"/>
            <stop stop-opacity="0" stop-color="#ffffff" offset="1"/>
        </linearGradient>
        <radialGradient gradientTransform="matrix(2.883137,0,0,2.136047,-64.96822,-52.48586)" id="radialGradient2607" gradientUnits="userSpaceOnUse" xlink:show="other" xlink:type="simple" r="19.571430" cx="27.216267" fx="27.216267" cy="35.673447" fy="35.673447" xlink:actuate="onLoad">
            <stop stop-opacity="1.0000000" stop-color="#5d5d5d" offset="0.0000000"/>
            <stop stop-opacity="1.0000000" stop-color="#444444" offset="1.0000000"/>
        </radialGradient>
        <linearGradient xlink:type="simple" xlink:actuate="onLoad" id="linearGradient2502" xlink:show="other">
            <stop stop-opacity="1" stop-color="#fdfdfd" offset="0"/>
            <stop stop-opacity="1.0000000" stop-color="#d4d4d4" offset="1.0000000"/>
        </linearGradient>
        <linearGradient xlink:type="simple" xlink:actuate="onLoad" id="linearGradient2601" xlink:show="other">
            <stop stop-opacity="1.0000000" stop-color="#5d5d5d" offset="0.0000000"/>
            <stop stop-opacity="1.0000000" stop-color="#444444" offset="1.0000000"/>
        </linearGradient>
        <linearGradient xlink:type="simple" xlink:actuate="onLoad" id="linearGradient2613" xlink:show="other">
            <stop stop-opacity="1" stop-color="#ffffff" offset="0"/>
            <stop stop-opacity="0" stop-color="#ffffff" offset="1"/>
        </linearGradient>
        <linearGradient xlink:type="simple" xlink:actuate="onLoad" id="linearGradient3575" xlink:show="other">
            <stop stop-opacity="1" stop-color="#000000" offset="0"/>
            <stop stop-opacity="0" stop-color="#000000" offset="1"/>
        </linearGradient>
        <linearGradient xlink:type="simple" xlink:actuate="onLoad" id="linearGradient3593" xlink:show="other">
            <stop stop-opacity="1" stop-color="#939393" offset="0"/>
            <stop stop-opacity="1.0000000" stop-color="#d9d9d9" offset="1.0000000"/>
        </linearGradient>
        <linearGradient gradientTransform="matrix(2.774389,0,0,1.969706,-1892.179,-872.8854)" id="linearGradient5048" gradientUnits="userSpaceOnUse" xlink:show="other" xlink:type="simple" x1="302.85715" y1="366.64789" x2="302.85715" y2="609.50507" xlink:actuate="onLoad">
            <stop stop-opacity="0" stop-color="#000000" offset="0"/>
            <stop stop-opacity="1" stop-color="#000000" offset="0.5"/>
            <stop stop-opacity="0" stop-color="#000000" offset="1"/>
        </linearGradient>
        <linearGradient xlink:type="simple" xlink:actuate="onLoad" id="linearGradient5048" xlink:show="other">
            <stop stop-opacity="0" stop-color="#000000" offset="0"/>
            <stop stop-opacity="1" stop-color="#000000" offset="0.5"/>
            <stop stop-opacity="0" stop-color="#000000" offset="1"/>
        </linearGradient>
        <radialGradient gradientTransform="matrix(2.774389,0,0,1.969706,-1891.633,-872.8854)" id="linearGradient5060" gradientUnits="userSpaceOnUse" xlink:show="other" xlink:type="simple" r="117.14286" cx="605.71429" fx="605.71429" cy="486.64789" fy="486.64789" xlink:actuate="onLoad">
            <stop stop-opacity="1" stop-color="#000000" offset="0"/>
            <stop stop-opacity="0" stop-color="#000000" offset="1"/>
        </radialGradient>
        <linearGradient xlink:type="simple" xlink:actuate="onLoad" id="linearGradient5060" xlink:show="other">
            <stop stop-opacity="1" stop-color="#000000" offset="0"/>
            <stop stop-opacity="0" stop-color="#000000" offset="1"/>
        </linearGradient>
        <radialGradient gradientTransform="matrix(-2.774389,0,0,1.969706,112.7623,-872.8854)" id="linearGradient5060" gradientUnits="userSpaceOnUse" xlink:show="other" xlink:type="simple" r="117.14286" cx="605.71429" fx="605.71429" cy="486.64789" fy="486.64789" xlink:actuate="onLoad">
            <stop stop-opacity="1" stop-color="#000000" offset="0"/>
            <stop stop-opacity="0" stop-color="#000000" offset="1"/>
        </radialGradient>
        <linearGradient gradientTransform="matrix(2.774389,0,0,1.969706,-1892.179,-872.8854)" id="linearGradient2959" gradientUnits="userSpaceOnUse" xlink:show="other" xlink:type="simple" x1="302.85715" y1="366.64789" y2="609.50507" x2="302.85715" xlink:actuate="onLoad">
            <stop stop-opacity="0" stop-color="#000000" offset="0"/>
            <stop stop-opacity="1" stop-color="#000000" offset="0.5"/>
            <stop stop-opacity="0" stop-color="#000000" offset="1"/>
        </linearGradient>
        <radialGradient gradientTransform="matrix(2.774389,0,0,1.969706,-1891.633,-872.8854)" id="radialGradient2961" gradientUnits="userSpaceOnUse" xlink:show="other" xlink:type="simple" r="117.14286" cx="605.71429" fx="605.71429" cy="486.64789" fy="486.64789" xlink:actuate="onLoad">
            <stop stop-opacity="1" stop-color="#000000" offset="0"/>
            <stop stop-opacity="0" stop-color="#000000" offset="1"/>
        </radialGradient>
        <radialGradient gradientTransform="matrix(-2.774389,0,0,1.969706,112.7623,-872.8854)" id="radialGradient2963" gradientUnits="userSpaceOnUse" xlink:show="other" xlink:type="simple" r="117.14286" cx="605.71429" fx="605.71429" cy="486.64789" fy="486.64789" xlink:actuate="onLoad">
            <stop stop-opacity="1" stop-color="#000000" offset="0"/>
            <stop stop-opacity="0" stop-color="#000000" offset="1"/>
        </radialGradient>
    </defs>
    <g transform="matrix(1.5192058,0,0,1.5192058,5.8247633,-5.2428371)">
        <g transform="matrix(1.0365688,0,0,1.0365688,-0.8776515,2.9605111)">
            <path fill-opacity="0.50196078" display="block" stroke="none" d="M 46.5 36.75 C 46.5 40.47792 36.426407 43.5 24.0 43.5 C 11.573593 43.5 1.5 40.47792 1.5 36.75 C 1.5 33.02208 11.573593 30.0 24.0 30.0 C 36.426407 30.0 46.5 33.02208 46.5 36.75 z " visibility="visible" stroke-linecap="round" transform="matrix(1.066667,0,0,0.962963,-1.600001,1.111111)" stroke-miterlimit="4" stroke-opacity="1" fill="url(#radialGradient7540)" stroke-dasharray="none" stroke-width="1" color="#000000" stroke-linejoin="miter" stroke-dashoffset="17.85" fill-rule="nonzero"/>
            <path fill-opacity="1" display="block" stroke="#3e263b" d="M 4.5 11.5 L 43.5 11.5 L 47.5 38.5 L 29.0 38.5 L 28.0 37.5 C 26.0 39.0 22.0 39.0 20.0 37.5 L 19.0 38.5 L 0.5 38.5 L 4.5 11.5 z " visibility="visible" id="rect1304" stroke-linecap="round" stroke-miterlimit="4" stroke-opacity="1" fill="#523856" stroke-dasharray="none" stroke-width="1" color="#000000" stroke-linejoin="round" stroke-dashoffset="17.85" fill-rule="nonzero"/>
            <path fill-opacity="0.13333333" display="block" stroke="#ffffff" d="M 5.28125 12.40625 L 1.5625 37.59375 L 18.59375 37.59375 L 19.34375 36.84375 C 19.667152 36.507336 20.191452 36.467007 20.5625 36.75 C 21.327469 37.323727 22.653015 37.71875 24.0 37.71875 C 25.346985 37.71875 26.672531 37.323727 27.4375 36.75 C 27.808548 36.467007 28.332848 36.507336 28.65625 36.84375 L 29.40625 37.59375 L 46.4375 37.59375 L 42.71875 12.40625 L 5.28125 12.40625 z " visibility="visible" stroke-linecap="round" stroke-miterlimit="4" stroke-opacity="1" fill="none" stroke-dasharray="none" stroke-width="1" color="#000000" stroke-linejoin="round" xlink:href="#rect1304" stroke-dashoffset="17.85" fill-rule="nonzero"/>
            <path fill-opacity="1" stroke="#888a85" d="M 2.0 36.5 C 7.666667 36.5 16.0 35.0 19.0 36.5 C 22.0 34.0 26.0 34.0 29.0 36.5 C 32.0 35.0 41.0 36.5 46.0 36.5 L 45.5 34.0 C 38.5 31.5 29.0 28.5 24.0 33.0 C 19.0 28.5 9.5 31.5 2.5 34.0 L 2.0 36.5 z " id="path2180" stroke-linecap="butt" stroke-miterlimit="4" stroke-opacity="1" fill="url(#linearGradient7542)" stroke-dasharray="none" stroke-width="1" stroke-linejoin="miter" fill-rule="evenodd"/>
            <path fill-opacity="0.30196078" stroke="url(#linearGradient7544)" d="M 14.125 31.9375 C 10.58845 32.39383 6.767423 33.62388 3.40625 34.8125 L 3.3125 35.375 C 5.8346972 35.295406 8.678905 35.038338 11.4375 34.875 C 14.331687 34.703632 16.846628 34.699177 18.78125 35.40625 C 20.133116 34.409775 21.661646 33.894157 23.21875 33.75 C 21.053265 31.84142 17.820494 31.460665 14.125 31.9375 z M 28.6875 31.9375 C 27.15954 32.214977 25.855251 32.803413 24.78125 33.75 C 26.338354 33.894157 27.866884 34.409775 29.21875 35.40625 C 31.197569 34.6847 33.83505 34.703224 36.8125 34.875 C 39.629963 35.037544 42.386124 35.2625 44.6875 35.34375 L 44.59375 34.8125 C 41.232574 33.62388 37.41155 32.39383 33.875 31.9375 C 32.012337 31.697157 30.240328 31.655508 28.6875 31.9375 z " stroke-linecap="butt" stroke-miterlimit="4" stroke-opacity="1" fill="none" stroke-dasharray="none" stroke-width="1" stroke-linejoin="miter" xlink:href="#path2180" fill-rule="evenodd"/>
            <path fill-opacity="1" stroke="url(#linearGradient7548)" d="M 2.5 34.0 C 9.0 31.5 20.0 29.0 24.0 33.0 C 28.0 29.0 39.0 31.5 45.5 34.0 L 42.5 10.5 C 37.0 8.0 27.5 6.0 24.0 9.0 C 20.0 6.0 12.0 8.0 5.5 10.5 L 2.5 34.0 z " id="path2182" stroke-linecap="butt" stroke-miterlimit="4" stroke-opacity="1" fill="url(#linearGradient7546)" stroke-dasharray="none" stroke-width="1" stroke-linejoin="miter" fill-rule="evenodd"/>
            <path fill-opacity="1" display="block" stroke="none" d="M 24.0 9.5 C 22.0 8.0 19.5 7.5 16.0 8.0 L 16.0 30.5 C 18.0 29.5 22.0 30.5 24.0 32.5 L 24.0 9.5 z " visibility="visible" stroke-linecap="round" stroke-miterlimit="4" stroke-opacity="1" fill="url(#linearGradient7550)" stroke-width="1" color="#000000" stroke-linejoin="miter" stroke-dashoffset="17.85" fill-rule="nonzero"/>
            <path fill-opacity="1" display="block" stroke="none" d="M 24.0 9.5 C 25.221264 8.803878 26.327772 7.906932 28.0 8.0 L 29.0 30.5 C 27.5 30.0 25.5 31.5 24.0 32.5 L 24.0 9.5 z " visibility="visible" stroke-linecap="round" stroke-miterlimit="4" stroke-opacity="1" fill="url(#linearGradient7552)" stroke-width="1" color="#000000" stroke-linejoin="miter" stroke-dashoffset="17.85" fill-rule="nonzero"/>
            <path fill-opacity="0.65098039" stroke="#ffffff" d="M 17.0 8.5 C 13.686857 8.771486 9.831006 9.909934 6.34375 11.21875 L 3.59375 32.65625 C 6.7156262 31.555996 10.446534 30.517776 14.09375 30.125 C 17.9428 29.710487 21.586231 30.019594 24.0 31.90625 C 26.413769 30.019594 30.0572 29.710487 33.90625 30.125 C 37.553463 30.517776 41.284374 31.555996 44.40625 32.65625 L 41.65625 11.1875 C 39.04206 10.053977 35.59032 8.995665 32.375 8.59375 C 28.988396 8.170424 25.951176 8.555242 24.59375 9.71875 C 24.262672 9.997242 23.783138 10.010203 23.4375 9.75 C 22.596584 9.119313 21.522982 8.711392 20.21875 8.53125 C 19.242489 8.396407 18.155603 8.405307 17.0 8.5 z " stroke-linecap="butt" stroke-miterlimit="4" stroke-opacity="1" fill="none" stroke-dasharray="none" stroke-width="1" stroke-linejoin="miter" xlink:href="#path2182" fill-rule="evenodd"/>
        </g>
    </g>
    <g transform="matrix(0.8748427,0,0,0.8748427,35.837191,28.597914)">
        <g transform="matrix(2.33489e-2,0,0,2.086758e-2,45.33878,41.86789)">
            <rect fill-opacity="0.40206185" display="inline" stroke="none" visibility="visible" stroke-linecap="round" width="1339.6335" stroke-miterlimit="4" stroke-opacity="1" fill="url(#linearGradient2959)" stroke-dasharray="none" stroke-width="1" color="#000000" height="478.35718" x="-1559.2523" stroke-linejoin="miter" y="-150.69685" stroke-dashoffset="0" fill-rule="nonzero"/>
            <path fill-opacity="0.40206185" display="inline" stroke="none" d="M -219.61876 -150.68037 C -219.61876 -150.68037 -219.61876 327.6504 -219.61876 327.6504 C -76.74459 328.55087 125.78146 220.48076 125.78138 88.45424 C 125.78138 -43.572304 -33.655437 -150.68036 -219.61876 -150.68037 z " visibility="visible" stroke-linecap="round" stroke-miterlimit="4" stroke-opacity="1" fill="url(#radialGradient2961)" stroke-dasharray="none" stroke-width="1" color="#000000" stroke-linejoin="miter" stroke-dashoffset="0" fill-rule="nonzero"/>
            <path fill-opacity="0.40206185" display="inline" stroke="none" d="M -1559.2523 -150.68037 C -1559.2523 -150.68037 -1559.2523 327.6504 -1559.2523 327.6504 C -1702.1263 328.55087 -1904.6523 220.48076 -1904.6523 88.45424 C -1904.6523 -43.572304 -1745.2156 -150.68036 -1559.2523 -150.68037 z " visibility="visible" stroke-linecap="round" stroke-miterlimit="4" stroke-opacity="1" fill="url(#radialGradient2963)" stroke-dasharray="none" stroke-width="1" color="#000000" stroke-linejoin="miter" stroke-dashoffset="0" fill-rule="nonzero"/>
        </g>
        <rect fill-opacity="1" display="block" stroke="#1b1b1b" visibility="visible" stroke-linecap="butt" width="38.14286" stroke-miterlimit="4" stroke-opacity="1" fill="url(#radialGradient2607)" stroke-dasharray="none" stroke-width="1" color="#000000" height="27.999996" x="5.4285707" stroke-linejoin="miter" rx="1.1428572" y="16.57143" ry="1.1428572" stroke-dashoffset="0" fill-rule="nonzero"/>
        <rect fill-opacity="0.31155778" display="block" stroke="url(#linearGradient2619)" visibility="visible" stroke-linecap="butt" width="36.072987" stroke-miterlimit="4" stroke-opacity="1" fill="none" stroke-dasharray="none" stroke-width="0.99999964" color="#000000" height="26.060221" x="6.3920727" stroke-linejoin="miter" rx="0.27372196" y="17.489294" ry="0.27372196" stroke-dashoffset="0" fill-rule="nonzero"/>
        <g transform="matrix(-0.97271,0.232023,0.232023,0.97271,45.78579,5.110631)">
            <rect fill-opacity="1" display="block" stroke="#2b2b2b" visibility="visible" stroke-linecap="butt" width="39.805996" transform="matrix(0.974407,-0.22479,0.22479,0.974407,0,0)" stroke-miterlimit="4" stroke-opacity="1" fill="url(#linearGradient4385)" stroke-dasharray="none" stroke-width="1.00000024" color="#000000" height="6.50879" x="1.7052064" stroke-linejoin="miter" rx="1.1428572" y="10.35317" ry="1.1428572" stroke-dashoffset="0" fill-rule="nonzero"/>
            <path stroke-linecap="butt" fill-opacity="1" fill="#000000" fill-rule="evenodd" stroke-linejoin="miter" d="M 9.189639 8.969182 L 6.7610674 15.540611 L 11.475352 14.254897 L 13.903923 7.9691825 L 9.189639 8.969182 z " stroke="none" stroke-width="0.25pt" stroke-opacity="1"/>
            <path stroke-linecap="butt" fill-opacity="1" fill="#000000" fill-rule="evenodd" stroke-linejoin="miter" d="M 18.332497 6.8977537 L 16.046782 13.397754 L 20.761068 12.254897 L 23.04678 5.897754 L 18.332497 6.8977537 z " stroke="none" stroke-width="0.25pt" stroke-opacity="1"/>
            <path stroke-linecap="butt" fill-opacity="1" fill="#000000" fill-rule="evenodd" stroke-linejoin="miter" d="M 27.903925 4.683468 L 25.618208 11.11204 L 30.332495 9.969183 L 32.61821 3.6834683 L 27.903925 4.683468 z " stroke="none" stroke-width="0.25pt" stroke-opacity="1"/>
            <path fill-opacity="1" display="block" stroke="none" d="M 39.412853 2.0182896 C 39.64193 2.1743436 39.814095 2.3819103 39.8816 2.6745396 L 40.613743 5.7504325 L 39.890533 7.750433 L 35.203033 8.835254 L 37.48428 2.478111 L 39.412853 2.0182896 z " visibility="visible" stroke-linecap="butt" stroke-miterlimit="4" stroke-opacity="1" fill="#000000" stroke-dasharray="none" stroke-width="1" color="#000000" stroke-linejoin="miter" stroke-dashoffset="0" fill-rule="nonzero"/>
            <rect fill-opacity="1" display="block" stroke="#ffffff" visibility="visible" stroke-linecap="butt" width="37.842842" transform="matrix(0.974407,-0.22479,0.22479,0.974407,0,0)" stroke-miterlimit="4" stroke-opacity="0.57512949" fill="none" stroke-dasharray="none" stroke-width="1" color="#000000" height="4.6068902" x="2.6716552" stroke-linejoin="miter" rx="0.26506385" y="11.327118" ry="0.26506385" stroke-dashoffset="0" fill-rule="nonzero"/>
        </g>
        <rect fill-opacity="1" display="block" stroke="#2e2e2e" visibility="visible" stroke-linecap="butt" width="40.077335" transform="matrix(0.974407,-0.22479,0.22479,0.974407,0,0)" stroke-miterlimit="4" stroke-opacity="1" fill="url(#linearGradient4387)" stroke-dasharray="none" stroke-width="0.99999833" color="#000000" height="6.9415727" x="0.67043102" stroke-linejoin="miter" rx="1.1428553" y="9.6851511" ry="1.1428553" stroke-dashoffset="0" fill-rule="nonzero"/>
        <path stroke-linecap="butt" fill-opacity="1" fill="#000000" fill-rule="evenodd" stroke-linejoin="miter" d="M 10.142858 8.142858 L 7.7142863 14.714286 L 12.428572 13.428572 L 14.857143 7.1428576 L 10.142858 8.142858 z " stroke="none" stroke-width="0.25pt" stroke-opacity="1"/>
        <path stroke-linecap="butt" fill-opacity="1" fill="#000000" fill-rule="evenodd" stroke-linejoin="miter" d="M 19.428572 5.7857146 L 16.785715 12.785715 L 21.5 11.642858 L 24.142859 4.7857146 L 19.428572 5.7857146 z " stroke="none" stroke-width="0.25pt" stroke-opacity="1"/>
        <path stroke-linecap="butt" fill-opacity="1" fill="#000000" fill-rule="evenodd" stroke-linejoin="miter" d="M 29.071428 3.6428573 L 26.5 10.785715 L 31.214285 9.642858 L 33.785713 2.6428573 L 29.071428 3.6428573 z " stroke="none" stroke-width="0.25pt" stroke-opacity="1"/>
        <path fill-opacity="1" display="block" stroke="none" d="M 41.294643 0.9776787 C 41.523716 1.1337326 41.695885 1.3412997 41.763393 1.6339287 L 42.424107 4.28125 L 41.343754 7.0669646 L 36.22768 8.294643 L 38.58036 1.5803572 L 41.294643 0.9776787 z " visibility="visible" stroke-linecap="butt" stroke-miterlimit="4" stroke-opacity="1" fill="#000000" stroke-dasharray="none" stroke-width="1" color="#000000" stroke-linejoin="miter" stroke-dashoffset="0" fill-rule="nonzero"/>
        <rect fill-opacity="1" display="block" stroke="#ffffff" visibility="visible" stroke-linecap="butt" width="38.199306" transform="matrix(0.974407,-0.22479,0.22479,0.974407,0,0)" stroke-miterlimit="4" stroke-opacity="0.57512949" fill="none" stroke-dasharray="none" stroke-width="0.99999809" color="#000000" height="4.9147058" x="1.6368761" stroke-linejoin="miter" rx="0.26506338" y="10.659099" ry="0.26506338" stroke-dashoffset="0" fill-rule="nonzero"/>
        <path stroke-linecap="butt" fill-opacity="1" fill="url(#linearGradient3599)" fill-rule="evenodd" stroke-linejoin="miter" stroke-dasharray="none" d="M 6.5357146 10.892862 L 6.5357146 18.678576 C 6.5357146 19.142862 6.928571 19.571434 7.3928576 19.607147 L 15.285713 19.607147 C 16.149378 19.607147 16.559574 18.345297 15.892855 17.678576 L 9.678571 10.392862 C 8.714286 9.000005 6.5357146 9.678576 6.5357146 10.892862 z " stroke="#1b1b1b" stroke-width="1" stroke-opacity="1" stroke-miterlimit="4"/>
        <path fill-opacity="1" display="block" stroke="none" d="M 9.035714 17.196428 C 9.035941 17.368832 8.944095 17.528236 8.7948265 17.614504 C 8.645557 17.700773 8.461586 17.700773 8.312317 17.614504 C 8.163049 17.528236 8.071202 17.368832 8.071429 17.196428 C 8.071202 17.024025 8.163049 16.86462 8.312317 16.778353 C 8.461586 16.692083 8.645557 16.692083 8.7948265 16.778353 C 8.944095 16.86462 9.035941 17.024025 9.035714 17.196428 z " visibility="visible" stroke-linecap="round" transform="translate(-7.142886e-2,-4.964285)" stroke-miterlimit="4" stroke-opacity="1" fill="#ffffff" stroke-dasharray="none" stroke-width="1" color="#000000" stroke-linejoin="round" stroke-dashoffset="0" fill-rule="nonzero"/>
        <path fill-opacity="1" display="block" stroke="none" d="M 9.035714 17.196428 C 9.035941 17.368832 8.944095 17.528236 8.7948265 17.614504 C 8.645557 17.700773 8.461586 17.700773 8.312317 17.614504 C 8.163049 17.528236 8.071202 17.368832 8.071429 17.196428 C 8.071202 17.024025 8.163049 16.86462 8.312317 16.778353 C 8.461586 16.692083 8.645557 16.692083 8.7948265 16.778353 C 8.944095 16.86462 9.035941 17.024025 9.035714 17.196428 z " visibility="visible" stroke-linecap="round" transform="translate(-7.142884e-2,0.321429)" stroke-miterlimit="4" stroke-opacity="1" fill="#ffffff" stroke-dasharray="none" stroke-width="1" color="#000000" stroke-linejoin="round" stroke-dashoffset="0" fill-rule="nonzero"/>
        <path fill-opacity="1" display="block" stroke="none" d="M 9.035714 17.196428 C 9.035941 17.368832 8.944095 17.528236 8.7948265 17.614504 C 8.645557 17.700773 8.461586 17.700773 8.312317 17.614504 C 8.163049 17.528236 8.071202 17.368832 8.071429 17.196428 C 8.071202 17.024025 8.163049 16.86462 8.312317 16.778353 C 8.461586 16.692083 8.645557 16.692083 8.7948265 16.778353 C 8.944095 16.86462 9.035941 17.024025 9.035714 17.196428 z " visibility="visible" stroke-linecap="round" transform="translate(4.964285,0.321429)" stroke-miterlimit="4" stroke-opacity="1" fill="#ffffff" stroke-dasharray="none" stroke-width="1" color="#000000" stroke-linejoin="round" stroke-dashoffset="0" fill-rule="nonzero"/>
        <g fill-opacity="0.26130652" transform="translate(0,4)" stroke-opacity="0.26130652">
            <path stroke-linecap="butt" fill-opacity="0.75" fill="none" fill-rule="evenodd" stroke-linejoin="miter" stroke-dasharray="none" d="M 10.0 28.428572 L 38.0 28.428572 " stroke="#ffffff" stroke-width="1" stroke-opacity="1" stroke-miterlimit="4"/>
            <path stroke-linecap="butt" fill-opacity="0.75" fill="none" fill-rule="evenodd" stroke-linejoin="miter" stroke-dasharray="none" d="M 10.0 32.571423 L 38.0 32.571423 " stroke="#ffffff" stroke-width="1" stroke-opacity="1" stroke-miterlimit="4"/>
            <path stroke-linecap="butt" fill-opacity="0.75" fill="none" fill-rule="evenodd" stroke-linejoin="miter" stroke-dasharray="none" d="M 32.5 28.0 L 32.5 24.0 " stroke="#ffffff" stroke-width="1" stroke-opacity="1" stroke-miterlimit="4"/>
            <path stroke-linecap="butt" fill-opacity="0.75" fill="none" fill-rule="evenodd" stroke-linejoin="miter" stroke-dasharray="none" d="M 10.0 32.571423 L 38.0 32.571423 " stroke="#ffffff" stroke-width="1" stroke-opacity="1" stroke-miterlimit="4"/>
            <path stroke-linecap="butt" fill-opacity="0.75" fill="none" fill-rule="evenodd" stroke-linejoin="miter" stroke-dasharray="none" d="M 22.5 28.0 L 22.5 24.0 " stroke="#ffffff" stroke-width="1" stroke-opacity="1" stroke-miterlimit="4"/>
            <path stroke-linecap="butt" fill-opacity="0.75" fill="none" fill-rule="evenodd" stroke-linejoin="miter" stroke-dasharray="none" d="M 9.742934 36.571423 L 23.042767 36.571423 " stroke="#ffffff" stroke-width="0.9999997" stroke-opacity="1" stroke-miterlimit="4"/>
        </g>
        <g fill="#ffffff" fill-opacity="1" transform="matrix(0.688056,0,0,0.688056,11.98189,14.73331)">
            <path stroke-linecap="butt" fill-opacity="1" fill="#ffffff" fill-rule="nonzero" stroke-linejoin="miter" d="M 13.817087 27.83871 C 13.930688 28.803867 14.061948 29.766424 14.212013 30.726637 L 12.104297 31.841955 C 11.971325 30.898588 11.859805 29.948671 11.653276 29.01819 L 13.817087 27.83871 z " stroke="none" stroke-width="1pt" stroke-opacity="1"/>
            <path stroke-linecap="butt" fill-opacity="1" fill="#ffffff" fill-rule="nonzero" stroke-linejoin="miter" d="M 17.66506 28.673199 C 17.64089 30.752443 18.34306 29.86598 15.754098 31.262304 C 16.56951 29.95874 17.94573 28.643936 19.302725 29.817295 C 21.893911 30.238968 17.868876 32.299286 19.657894 30.131624 C 22.257908 27.86176 21.8802 29.134104 24.062212 29.26306 C 25.842436 29.693266 25.858408 29.319391 23.49196 30.679722 C 23.523989 30.651796 23.556019 30.623873 23.588049 30.595947 L 25.826668 29.648989 C 25.801378 29.687675 25.776089 29.726368 25.750795 29.765057 C 22.939447 31.442532 24.0824 30.948809 22.103508 30.691366 C 20.237158 30.36368 19.228119 30.138071 21.882668 29.206652 C 20.743225 30.500572 18.901455 32.506542 17.264072 31.089588 C 15.675562 29.919043 19.396606 28.676254 18.028685 30.358608 C 15.346131 31.837217 15.628223 31.910467 15.467942 29.792686 L 17.66506 28.673199 z " stroke="none" stroke-width="1pt" stroke-opacity="1"/>
            <path stroke-linecap="butt" fill-opacity="1" fill="#ffffff" fill-rule="nonzero" stroke-linejoin="miter" d="M 29.174994 26.230787 C 29.320925 27.738745 29.40078 29.250332 29.580135 30.755472 C 31.003609 32.606216 27.75316 35.38944 28.232912 32.564304 C 28.574991 29.320496 28.88323 28.720137 31.761658 27.684322 C 32.30935 28.667664 32.609386 29.822268 33.465683 30.41228 C 28.625608 32.96395 35.159428 28.931067 35.886627 28.54494 C 36.351547 28.435797 36.82648 28.379616 37.298916 28.314188 L 35.37816 29.751505 C 34.913315 29.819572 34.443104 29.870403 33.993176 30.012669 C 36.991756 28.1011 33.42477 30.85456 31.487156 31.83022 C 30.56341 31.105995 30.343693 29.935795 29.703924 28.949903 C 32.849915 26.7311 30.336554 28.808674 30.341827 31.527237 C 30.058289 33.87733 27.021652 35.07712 27.526846 31.833696 C 27.354082 30.35189 27.276842 28.851328 26.996748 27.386364 L 29.174994 26.230787 z " stroke="none" stroke-width="1pt" stroke-opacity="1"/>
        </g>
        <g transform="matrix(1.013963,0,0,1.013963,1.878556,5.469083)">
            <path stroke-linecap="butt" fill-opacity="1" fill="#ffffff" fill-rule="nonzero" stroke-linejoin="miter" d="M 11.316278 22.373913 C 13.137134 21.040705 12.443447 22.09282 12.444714 23.52077 C 12.430049 24.807117 12.620598 26.077652 12.907135 27.327364 L 11.644224 28.009508 C 11.357063 26.749617 11.164834 25.469172 11.168897 24.173077 C 11.149082 22.620295 10.880245 22.220438 12.516062 21.502216 L 11.316278 22.373913 z " stroke="none" stroke-width="1pt" stroke-opacity="1"/>
            <path stroke-linecap="butt" fill-opacity="1" fill="#ffffff" fill-rule="nonzero" stroke-linejoin="miter" d="M 15.610946 22.41318 C 15.586578 23.203484 15.586964 23.994452 15.583955 24.78508 C 15.582875 25.117012 15.582924 25.448948 15.582616 25.780884 L 14.317899 26.425287 C 14.317592 26.093807 14.317641 25.762327 14.316561 25.430847 C 14.313575 24.649393 14.314193 23.867575 14.28957 23.086454 L 15.610946 22.41318 z " stroke="none" stroke-width="1pt" stroke-opacity="1"/>
            <path stroke-linecap="butt" fill-opacity="1" fill="#ffffff" fill-rule="nonzero" stroke-linejoin="miter" d="M 17.83328 21.200996 C 17.93205 21.997349 17.950388 22.856152 17.978428 23.673828 C 17.986397 23.914995 17.991625 24.156244 17.998224 24.397451 L 16.740671 25.042645 C 16.73285 24.802517 16.72747 24.56231 16.717205 24.322264 C 16.68142 23.507156 16.675482 22.674053 16.511906 21.874271 L 17.83328 21.200996 z " stroke="none" stroke-width="1pt" stroke-opacity="1"/>
            <path stroke-linecap="butt" fill-opacity="1" fill="#ffffff" fill-rule="nonzero" stroke-linejoin="miter" d="M 20.257648 20.594904 C 20.061483 21.277119 19.9888 21.990784 19.919992 22.698524 C 19.852596 23.459764 19.822369 24.223412 19.791332 24.986753 L 18.53422 25.621449 C 18.564177 24.858065 18.593786 24.094534 18.649763 23.332487 C 18.705132 22.644363 18.73276 21.926924 18.936272 21.26818 L 20.257648 20.594904 z " stroke="none" stroke-width="1pt" stroke-opacity="1"/>
            <path stroke-linecap="butt" fill-opacity="1" fill="#ffffff" fill-rule="nonzero" stroke-linejoin="miter" d="M 9.896926 22.31034 C 10.803649 22.501268 11.723703 22.658903 12.639116 22.814075 C 14.789061 23.146229 16.945692 23.441011 19.107212 23.68769 C 20.011148 23.780205 20.914436 23.87797 21.81681 23.984419 L 20.64879 24.810816 C 19.754597 24.700329 18.859589 24.597013 17.963957 24.498589 C 15.801624 24.238152 13.642863 23.943888 11.488982 23.62143 C 10.560864 23.472227 9.627104 23.290016 8.697141 23.182034 L 9.896926 22.31034 z " stroke="none" stroke-width="1pt" stroke-opacity="1"/>
        </g>
    </g>
</svg>
