<?xml version="1.0" encoding="UTF-8"?>
<svg xmlns="http://www.w3.org/2000/svg" xmlns:xlink="http://www.w3.org/1999/xlink" contentScriptType="text/ecmascript" width="88" baseProfile="tiny" zoomAndPan="magnify" contentStyleType="text/css" viewBox="0 0 88 88" height="88" preserveAspectRatio="xMidYMid meet" version="1.0">
    <defs>
        <linearGradient gradientTransform="matrix(0.9644306,0,0,0.9614211,0.8618226,0.6342073)" id="linearGradient3676" gradientUnits="userSpaceOnUse" xlink:show="other" xlink:type="simple" x1="4.2964764" y1="3.5751467" y2="38.913116" x2="39.552456" xlink:actuate="onLoad">
            <stop stop-opacity="1" stop-color="#eeeeec" offset="0"/>
            <stop stop-opacity="0" stop-color="#eeeeec" offset="1"/>
        </linearGradient>
        <radialGradient gradientTransform="matrix(1,0,0,0.201878,0,36.03783)" id="radialGradient4156" gradientUnits="userSpaceOnUse" xlink:show="other" xlink:type="simple" r="13.474453" cx="30.428225" fx="30.428225" cy="45.153286" fy="45.153286" xlink:actuate="onLoad">
            <stop stop-opacity="1" stop-color="#000000" offset="0"/>
            <stop stop-opacity="0" stop-color="#000000" offset="1"/>
        </radialGradient>
        <linearGradient xlink:type="simple" xlink:actuate="onLoad" id="linearGradient5919" xlink:show="other">
            <stop stop-opacity="1" stop-color="#000000" offset="0"/>
            <stop stop-opacity="0" stop-color="#000000" offset="1"/>
        </linearGradient>
        <linearGradient xlink:type="simple" xlink:actuate="onLoad" id="linearGradient3670" xlink:show="other">
            <stop stop-opacity="1" stop-color="#eeeeec" offset="0"/>
            <stop stop-opacity="0" stop-color="#eeeeec" offset="1"/>
        </linearGradient>
    </defs>
    <g transform="matrix(1.7477954,0,0,1.7477954,0.247797,4.8465598)">
        <path fill-opacity="0.44999994" display="inline" stroke="none" d="M 43.90268 45.15329 C 43.90268 46.655613 37.86996 47.873486 30.428226 47.873486 C 22.98649 47.873486 16.953772 46.655613 16.953772 45.15329 C 16.953772 43.650967 22.98649 42.433094 30.428225 42.433094 C 37.86996 42.433094 43.90268 43.650967 43.90268 45.15329 z " stroke-linecap="round" transform="matrix(1.2245395,0,0,1.716477,-12.760564,-36.173728)" stroke-miterlimit="4" stroke-opacity="1" fill="url(#radialGradient4156)" stroke-dasharray="none" stroke-width="1.79999995" stroke-linejoin="round"/>
        <rect fill-opacity="1" display="inline" stroke="none" width="31.983152" stroke-miterlimit="4" stroke-opacity="1" fill="#003a80" stroke-dasharray="none" stroke-width="0.87800002" height="41" x="8.0168476" rx="13.210433" y="2" ry="17.46759" stroke-dashoffset="0" fill-rule="evenodd"/>
        <rect fill-opacity="0.75428569" display="inline" stroke="none" width="29.906187" stroke-miterlimit="4" stroke-opacity="1" fill="#006ef2" stroke-dasharray="none" stroke-width="0.87800002" height="38.43642" x="9.0938129" rx="12.352555" y="3.5635803" ry="16.375404" stroke-dashoffset="0" fill-rule="evenodd"/>
        <path stroke-linecap="butt" fill-opacity="1" display="inline" fill="#ffffff" fill-rule="evenodd" stroke-linejoin="miter" d="M 14.57116 15.803935 L 16.6779 13.821117 L 22.881084 19.439104 L 22.881084 6.0 L 33.765915 16.134409 L 26.6264 22.964111 L 34.0 29.903982 L 22.881084 39.707916 L 22.881084 26.378967 L 16.91198 32.107113 L 14.454117 29.903982 L 22.295876 22.853956 L 14.57116 15.803935 z " stroke="none" stroke-width="1px" stroke-opacity="1"/>
        <path stroke-linecap="butt" fill-opacity="0.79428573" display="inline" fill="#0059c4" fill-rule="evenodd" stroke-linejoin="miter" d="M 25.924156 12.747946 L 25.924156 19.797968 L 29.552435 16.49327 L 25.924156 12.747946 z " stroke="none" stroke-width="1px" stroke-opacity="1"/>
        <path stroke-dashoffset="0" fill-opacity="0.35" display="inline" fill="url(#linearGradient3676)" fill-rule="evenodd" d="M 21.604002 4.071429 L 26.459824 4.071429 C 29.556671 4.071429 32.360893 5.6991854 34.428574 8.356762 C 26.733892 15.046254 21.76274 19.748213 16.230398 39.0 C 12.367893 36.49525 10.071429 31.180178 10.071429 24.99906 L 10.071429 19.605549 C 10.071429 10.999645 15.214957 4.071429 21.604002 4.071429 z " stroke="none" stroke-width="1" stroke-opacity="1" stroke-miterlimit="4"/>
        <path stroke-linecap="butt" fill-opacity="0.79428573" display="inline" fill="#0059c4" fill-rule="evenodd" stroke-linejoin="miter" d="M 25.807112 26.737837 L 26.041199 33.016766 L 29.669476 30.042536 L 25.807112 26.737837 z " stroke="none" stroke-width="1px" stroke-opacity="1"/>
        <rect fill-opacity="1" display="inline" stroke="#eeeeec" width="28.950731" stroke-miterlimit="4" stroke-opacity="0.46052632" fill="none" stroke-dasharray="none" stroke-width="1" height="37.92485" x="9.5492687" rx="11.957911" y="3.5751467" ry="16.157457" stroke-dashoffset="0" fill-rule="evenodd"/>
    </g>
</svg>
