<?xml version="1.0" encoding="UTF-8"?>
<svg xmlns="http://www.w3.org/2000/svg" xmlns:xlink="http://www.w3.org/1999/xlink" xmlns:sodipodi="http://sodipodi.sourceforge.net/DTD/sodipodi-0.dtd" contentScriptType="text/ecmascript" zoomAndPan="magnify" baseProfile="tiny" contentStyleType="text/css" version="1.0" width="48.000000px" preserveAspectRatio="xMidYMid meet" viewBox="0 0 48.000000 48.000000" height="48.000000px">
    <defs>
        <linearGradient xlink:type="simple" xlink:actuate="onLoad" id="linearGradient7844" xlink:show="other">
            <stop stop-opacity="1" stop-color="#000000" offset="0"/>
            <stop stop-opacity="0" stop-color="#000000" offset="1"/>
        </linearGradient>
        <linearGradient xlink:type="simple" xlink:actuate="onLoad" id="linearGradient7670" xlink:show="other">
            <stop stop-opacity="1" stop-color="#dfdfdf" offset="0"/>
            <stop stop-opacity="1.0000000" stop-color="#c0c0c0" offset="1.0000000"/>
        </linearGradient>
        <linearGradient gradientTransform="matrix(1.008511,0.000000,0.000000,1.000000,-47.59576,-0.285714)" id="linearGradient7676" gradientUnits="userSpaceOnUse" xlink:show="other" xlink:type="simple" x1="64.571426" y1="9.7142859" y2="40.857143" x2="72.857140" xlink:actuate="onLoad">
            <stop stop-opacity="1" stop-color="#dfdfdf" offset="0"/>
            <stop stop-opacity="1.0000000" stop-color="#c0c0c0" offset="1.0000000"/>
        </linearGradient>
        <radialGradient gradientTransform="matrix(1.000000,0.000000,0.000000,0.333333,1.298874e-16,25.06362)" id="radialGradient7850" gradientUnits="userSpaceOnUse" xlink:show="other" xlink:type="simple" r="22.728432" cx="24.546707" fx="24.546707" cy="37.595428" fy="37.595428" xlink:actuate="onLoad">
            <stop stop-opacity="1" stop-color="#000000" offset="0"/>
            <stop stop-opacity="0" stop-color="#000000" offset="1"/>
        </radialGradient>
        <linearGradient x1="14.9966" y1="11.1885" x2="32.511" gradientUnits="userSpaceOnUse" y2="34.3075" xlink:type="simple" xlink:actuate="onLoad" id="aigrd1" xlink:show="other">
            <stop stop-color="#ebebeb" offset="0"/>
            <stop stop-color="#ffffff" offset="0.5"/>
            <stop stop-color="#ebebeb" offset="1"/>
        </linearGradient>
        <linearGradient x1="12.2744" y1="32.4165" x2="35.3912" gradientUnits="userSpaceOnUse" y2="14.2033" xlink:type="simple" xlink:actuate="onLoad" id="aigrd2" xlink:show="other">
            <stop stop-color="#fbfbfb" offset="0"/>
            <stop stop-color="#b6b6b6" offset="0.5"/>
            <stop stop-color="#e4e4e4" offset="1"/>
        </linearGradient>
        <linearGradient xlink:type="simple" xlink:actuate="onLoad" id="linearGradient4236" xlink:show="other">
            <stop stop-opacity="0.32673267" stop-color="#ffffff" offset="0.0000000"/>
            <stop stop-opacity="0.60396039" stop-color="#ffffff" offset="1.0000000"/>
        </linearGradient>
        <linearGradient xlink:type="simple" xlink:actuate="onLoad" id="linearGradient6028" xlink:show="other">
            <stop stop-opacity="1" stop-color="#ffffff" offset="0"/>
            <stop stop-opacity="0" stop-color="#ffffff" offset="1"/>
        </linearGradient>
        <linearGradient xlink:type="simple" xlink:actuate="onLoad" id="linearGradient6036" xlink:show="other">
            <stop stop-opacity="1" stop-color="#ffffff" offset="0"/>
            <stop stop-opacity="0" stop-color="#ffffff" offset="1"/>
        </linearGradient>
        <linearGradient x1="12.2744" y1="32.4165" x2="35.3912" gradientUnits="userSpaceOnUse" y2="14.2033" xlink:type="simple" xlink:actuate="onLoad" id="linearGradient3394" xlink:show="other">
            <stop stop-opacity="1.0000000" stop-color="#fff307" offset="0.0000000"/>
            <stop stop-opacity="1.0000000" stop-color="#166eff" offset="0.50000000"/>
            <stop stop-opacity="0.0000000" stop-color="#ffffff" offset="1.0000000"/>
        </linearGradient>
        <radialGradient gradientTransform="matrix(1,0,0,0.333333,0,25.06362)" id="radialGradient10566" gradientUnits="userSpaceOnUse" xlink:show="other" xlink:type="simple" r="22.728432" cx="24.546707" fx="24.546707" cy="37.595428" fy="37.595428" xlink:actuate="onLoad">
            <stop stop-opacity="1" stop-color="#000000" offset="0"/>
            <stop stop-opacity="0" stop-color="#000000" offset="1"/>
        </radialGradient>
        <linearGradient gradientTransform="matrix(0.683145,0,0,0.683145,18.55581,18.12886)" id="aigrd1" gradientUnits="userSpaceOnUse" xlink:show="other" xlink:type="simple" x1="14.9966" y1="11.1885" x2="32.511" y2="34.3075" xlink:actuate="onLoad">
            <stop offset="0" stop-color="#ebebeb"/>
            <stop offset="0.5" stop-color="#ffffff"/>
            <stop offset="1" stop-color="#ebebeb"/>
        </linearGradient>
        <linearGradient gradientTransform="matrix(0.705308,0,0,0.705308,18.02392,17.61692)" id="aigrd2" gradientUnits="userSpaceOnUse" xlink:show="other" xlink:type="simple" x1="12.2744" y1="32.4165" x2="35.3912" y2="14.2033" xlink:actuate="onLoad">
            <stop offset="0" stop-color="#fbfbfb"/>
            <stop offset="0.5" stop-color="#b6b6b6"/>
            <stop offset="1" stop-color="#e4e4e4"/>
        </linearGradient>
        <linearGradient gradientTransform="matrix(0.717302,0,0,0.717302,17.73603,18.06909)" id="linearGradient4236" gradientUnits="userSpaceOnUse" xlink:show="other" xlink:type="simple" x1="21.125000" y1="14.625000" x2="29.000000" y2="28.000000" xlink:actuate="onLoad">
            <stop stop-opacity="0.32673267" stop-color="#ffffff" offset="0.0000000"/>
            <stop stop-opacity="0.60396039" stop-color="#ffffff" offset="1.0000000"/>
        </linearGradient>
        <linearGradient gradientTransform="matrix(0.717302,0,0,0.717302,17.73603,18.06909)" id="linearGradient4236" gradientUnits="userSpaceOnUse" xlink:show="other" xlink:type="simple" x1="21.125000" y1="14.625000" x2="29.000000" y2="28.000000" xlink:actuate="onLoad">
            <stop stop-opacity="0.32673267" stop-color="#ffffff" offset="0.0000000"/>
            <stop stop-opacity="0.60396039" stop-color="#ffffff" offset="1.0000000"/>
        </linearGradient>
        <linearGradient gradientTransform="matrix(0.573842,0,0,0.573842,20.97995,19.56347)" id="linearGradient6036" gradientUnits="userSpaceOnUse" xlink:show="other" xlink:type="simple" x1="10.501720" y1="3.6100161" x2="48.798885" y2="54.698483" xlink:actuate="onLoad">
            <stop stop-opacity="1" stop-color="#ffffff" offset="0"/>
            <stop stop-opacity="0" stop-color="#ffffff" offset="1"/>
        </linearGradient>
        <linearGradient x1="28.702885" y1="31.494707" x2="17.742729" gradientUnits="userSpaceOnUse" y2="18.366575" xlink:type="simple" xlink:actuate="onLoad" id="linearGradient6028" xlink:show="other">
            <stop stop-opacity="1" stop-color="#ffffff" offset="0"/>
            <stop stop-opacity="0" stop-color="#ffffff" offset="1"/>
        </linearGradient>
        <radialGradient gradientTransform="matrix(0.441746,0.498655,-0.407098,0.360624,32.00755,10.21308)" id="linearGradient3394" gradientUnits="userSpaceOnUse" xlink:show="other" xlink:type="simple" y1="32.4165" x1="12.2744" x2="35.3912" y2="14.2033" r="21.333334" cx="37.751469" fx="37.751469" cy="27.569166" fy="27.569166" xlink:actuate="onLoad">
            <stop stop-opacity="1.0000000" stop-color="#fff307" offset="0.0000000"/>
            <stop stop-opacity="1.0000000" stop-color="#166eff" offset="0.50000000"/>
            <stop stop-opacity="0.0000000" stop-color="#ffffff" offset="1.0000000"/>
        </radialGradient>
        <linearGradient gradientTransform="matrix(0.683145,0,0,0.683145,18.55581,18.12886)" id="aigrd1" gradientUnits="userSpaceOnUse" xlink:show="other" xlink:type="simple" x1="14.9966" y1="11.1885" x2="32.511" y2="34.3075" xlink:actuate="onLoad">
            <stop offset="0" stop-color="#ebebeb"/>
            <stop offset="0.5" stop-color="#ffffff"/>
            <stop offset="1" stop-color="#ebebeb"/>
        </linearGradient>
        <linearGradient gradientTransform="matrix(0.705308,0,0,0.705308,18.02392,17.61692)" id="aigrd2" gradientUnits="userSpaceOnUse" xlink:show="other" xlink:type="simple" x1="12.2744" y1="32.4165" x2="35.3912" y2="14.2033" xlink:actuate="onLoad">
            <stop offset="0" stop-color="#fbfbfb"/>
            <stop offset="0.5" stop-color="#b6b6b6"/>
            <stop offset="1" stop-color="#e4e4e4"/>
        </linearGradient>
        <linearGradient gradientTransform="matrix(0.717302,0,0,0.717302,17.73603,18.06909)" id="linearGradient4236" gradientUnits="userSpaceOnUse" xlink:show="other" xlink:type="simple" x1="21.125000" y1="14.625000" x2="29.000000" y2="28.000000" xlink:actuate="onLoad">
            <stop stop-opacity="0.32673267" stop-color="#ffffff" offset="0.0000000"/>
            <stop stop-opacity="0.60396039" stop-color="#ffffff" offset="1.0000000"/>
        </linearGradient>
        <linearGradient gradientTransform="matrix(0.717302,0,0,0.717302,17.73603,18.06909)" id="linearGradient4236" gradientUnits="userSpaceOnUse" xlink:show="other" xlink:type="simple" x1="21.125000" y1="14.625000" x2="29.000000" y2="28.000000" xlink:actuate="onLoad">
            <stop stop-opacity="0.32673267" stop-color="#ffffff" offset="0.0000000"/>
            <stop stop-opacity="0.60396039" stop-color="#ffffff" offset="1.0000000"/>
        </linearGradient>
        <linearGradient gradientTransform="matrix(0.573842,0,0,0.573842,20.97995,19.56347)" id="linearGradient6036" gradientUnits="userSpaceOnUse" xlink:show="other" xlink:type="simple" x1="10.501720" y1="3.6100161" x2="48.798885" y2="54.698483" xlink:actuate="onLoad">
            <stop stop-opacity="1" stop-color="#ffffff" offset="0"/>
            <stop stop-opacity="0" stop-color="#ffffff" offset="1"/>
        </linearGradient>
        <linearGradient x1="28.702885" y1="31.494707" x2="17.742729" gradientUnits="userSpaceOnUse" y2="18.366575" xlink:type="simple" xlink:actuate="onLoad" id="linearGradient16706" xlink:show="other">
            <stop stop-opacity="1" stop-color="#ffffff" offset="0"/>
            <stop stop-opacity="0" stop-color="#ffffff" offset="1"/>
        </linearGradient>
        <radialGradient gradientTransform="matrix(0.441746,0.498655,-0.407098,0.360624,32.00755,10.21308)" id="linearGradient3394" gradientUnits="userSpaceOnUse" xlink:show="other" xlink:type="simple" y1="32.4165" x1="12.2744" x2="35.3912" y2="14.2033" r="21.333334" cx="37.751469" fx="37.751469" cy="27.569166" fy="27.569166" xlink:actuate="onLoad">
            <stop stop-opacity="1.0000000" stop-color="#fff307" offset="0.0000000"/>
            <stop stop-opacity="1.0000000" stop-color="#166eff" offset="0.50000000"/>
            <stop stop-opacity="0.0000000" stop-color="#ffffff" offset="1.0000000"/>
        </radialGradient>
        <radialGradient gradientTransform="matrix(0.441746,0.498655,-0.407098,0.360624,29.364696,7.284509)" id="radialGradient16711" gradientUnits="userSpaceOnUse" xlink:show="other" xlink:type="simple" y1="32.4165" x1="12.2744" x2="35.3912" y2="14.2033" r="21.333334" cx="37.751469" fx="37.751469" cy="27.569166" fy="27.569166" xlink:actuate="onLoad">
            <stop stop-opacity="1.0000000" stop-color="#fff307" offset="0.0000000"/>
            <stop stop-opacity="1.0000000" stop-color="#166eff" offset="0.50000000"/>
            <stop stop-opacity="0.0000000" stop-color="#ffffff" offset="1.0000000"/>
        </radialGradient>
        <linearGradient gradientTransform="matrix(0.717302,0,0,0.717302,15.093176,15.140519)" id="linearGradient16718" gradientUnits="userSpaceOnUse" xlink:show="other" xlink:type="simple" x1="21.125000" y1="14.625000" y2="28.000000" x2="29.000000" xlink:actuate="onLoad">
            <stop stop-opacity="0.32673267" stop-color="#ffffff" offset="0.0000000"/>
            <stop stop-opacity="0.60396039" stop-color="#ffffff" offset="1.0000000"/>
        </linearGradient>
        <linearGradient gradientTransform="matrix(0.717302,0,0,0.717302,15.093176,15.140519)" id="linearGradient16721" gradientUnits="userSpaceOnUse" xlink:show="other" xlink:type="simple" x1="21.125000" y1="14.625000" y2="28.000000" x2="29.000000" xlink:actuate="onLoad">
            <stop stop-opacity="0.32673267" stop-color="#ffffff" offset="0.0000000"/>
            <stop stop-opacity="0.60396039" stop-color="#ffffff" offset="1.0000000"/>
        </linearGradient>
        <linearGradient gradientTransform="matrix(0.705308,0,0,0.705308,15.381066,14.688349)" id="linearGradient16725" gradientUnits="userSpaceOnUse" xlink:show="other" xlink:type="simple" x1="12.2744" y1="32.4165" y2="14.2033" x2="35.3912" xlink:actuate="onLoad">
            <stop offset="0" stop-color="#fbfbfb"/>
            <stop offset="0.5" stop-color="#b6b6b6"/>
            <stop offset="1" stop-color="#e4e4e4"/>
        </linearGradient>
        <linearGradient gradientTransform="matrix(0.683145,0,0,0.683145,15.912956,15.200289)" id="linearGradient16728" gradientUnits="userSpaceOnUse" xlink:show="other" xlink:type="simple" x1="14.9966" y1="11.1885" y2="34.3075" x2="32.511" xlink:actuate="onLoad">
            <stop offset="0" stop-color="#ebebeb"/>
            <stop offset="0.5" stop-color="#ffffff"/>
            <stop offset="1" stop-color="#ebebeb"/>
        </linearGradient>
    </defs>
    <g>
        <path fill-opacity="1.0000000" display="inline" stroke="#606060" d="M 7.066352 9.832633 L 11.142857 5.571429 L 34.714287 5.571429 L 39.034664 9.933648 L 7.066352 9.832633 z " visibility="visible" stroke-linecap="round" stroke-miterlimit="4.0000000" stroke-opacity="1.0000000" fill="#6b6c69" stroke-dasharray="none" stroke-width="1.0000000" color="#000000" stroke-linejoin="round" stroke-dashoffset="0.0000000" fill-rule="evenodd"/>
        <path fill-opacity="0.62566847" display="inline" stroke="none" d="M 47.27514 37.59543 C 47.275726 40.302254 42.94384 42.80355 35.9114 44.15702 C 28.878956 45.51049 20.214458 45.51049 13.182016 44.15702 C 6.1495733 42.80355 1.8176875 40.302254 1.8182756 37.59543 C 1.8176875 34.888603 6.1495733 32.387306 13.182016 31.033838 C 20.214458 29.680368 28.878956 29.680368 35.9114 31.033838 C 42.94384 32.387306 47.275726 34.888603 47.27514 37.59543 z " visibility="visible" stroke-linecap="round" transform="matrix(0.902222,0.000000,0.000000,0.902222,0.400123,3.675998)" stroke-miterlimit="4.0000000" stroke-opacity="1.0000000" fill="url(#radialGradient7850)" stroke-dasharray="1.0000000 1.0000000" stroke-width="1.0000000" color="#000000" stroke-linejoin="round" stroke-dashoffset="0.0000000" fill-rule="evenodd"/>
        <rect fill-opacity="1.0000000" display="inline" stroke="#606060" visibility="visible" stroke-linecap="butt" width="32.848644" stroke-miterlimit="4.0000000" stroke-opacity="1.0000000" fill="url(#linearGradient7676)" stroke-dasharray="none" stroke-width="1.0000001" color="#000000" height="31.142857" x="6.5756874" stroke-linejoin="miter" rx="1.4285721" y="9.4285717" ry="1.4285715" stroke-dashoffset="0.0000000" fill-rule="evenodd"/>
        <path fill-opacity="1.0000000" display="inline" stroke="none" d="M 38.857143 22.756128 L 38.857143 39.1847 C 38.857143 39.65956 38.49401 40.041843 38.042946 40.041843 L 15.874474 40.041843 L 15.923863 22.756128 C 15.923863 22.756128 38.857143 22.756128 38.857143 22.756128 z " visibility="visible" stroke-linecap="butt" stroke-miterlimit="4.0000000" stroke-opacity="1.0000000" fill="#a40000" stroke-dasharray="1.0000000 1.0000000" stroke-width="1.0000000" color="#000000" stroke-linejoin="miter" stroke-dashoffset="0.0000000" fill-rule="evenodd"/>
        <path fill-opacity="1.0000000" display="inline" stroke="#606060" d="M 15.379549 11.285714 L 15.379549 39.285713 " visibility="visible" stroke-linecap="butt" stroke-miterlimit="4.0000000" stroke-opacity="1.0000000" fill="none" stroke-dasharray="1.0000000 1.0000000" stroke-width="1.0000000" color="#000000" stroke-linejoin="miter" stroke-dashoffset="0.0000000" fill-rule="evenodd"/>
        <path fill-opacity="1.0000000" display="inline" stroke="none" d="M 38.857143 22.613272 L 38.857143 11.470414 C 38.857143 10.995557 38.49401 10.613271 38.042946 10.613271 L 15.874474 10.613271 L 15.923863 22.613272 C 15.923863 22.613272 38.857143 22.613272 38.857143 22.613272 z " visibility="visible" stroke-linecap="butt" stroke-miterlimit="4.0000000" stroke-opacity="1.0000000" fill="#f0f0f0" stroke-dasharray="1.0000000 1.0000000" stroke-width="1.0000000" color="#000000" stroke-linejoin="miter" stroke-dashoffset="0.0000000" fill-rule="evenodd"/>
        <path fill-opacity="0.516" display="inline" stroke="#ffffff" d="M 11.512932 6.527468 C 11.512932 6.527468 34.28505 6.527468 34.28505 6.527468 C 34.28505 6.527468 38.54205 10.784467 38.54205 10.784467 L 38.54205 39.215523 C 38.54205 39.50329 38.310375 39.73496 38.022614 39.73496 L 7.9773984 39.73496 C 7.689632 39.73496 7.457964 39.50329 7.457964 39.215523 L 7.457964 10.784467 C 7.457964 10.784467 11.512932 6.527468 11.512932 6.527468 z " visibility="visible" stroke-linecap="butt" stroke-miterlimit="4" stroke-opacity="1" fill="none" stroke-width="0.99999994000000003" color="#000000" stroke-linejoin="miter" stroke-dashoffset="0" fill-rule="evenodd"/>
        <path fill-opacity="0.62566845" display="inline" stroke="none" d="M 47.27514 37.59543 C 47.275726 40.302254 42.94384 42.80355 35.9114 44.15702 C 28.878956 45.51049 20.214458 45.51049 13.182016 44.15702 C 6.1495733 42.80355 1.8176875 40.302254 1.8182756 37.59543 C 1.8176875 34.888603 6.1495733 32.387306 13.182016 31.033838 C 20.214458 29.680368 28.878956 29.680368 35.9114 31.033838 C 42.94384 32.387306 47.275726 34.888603 47.27514 37.59543 z " visibility="visible" stroke-linecap="round" transform="matrix(0.55024,0,0,0.55024,18.897263,20.337496)" stroke-miterlimit="4" stroke-opacity="1" fill="url(#radialGradient10566)" stroke-dasharray="1, 1" stroke-width="1" stroke-linejoin="round" stroke-dashoffset="0" fill-rule="evenodd"/>
        <path fill="url(#linearGradient16728)" d="M 32.308437 19.025904 C 25.681927 19.025904 20.353392 24.354437 20.353392 30.980946 C 20.353392 37.607456 25.681927 42.93599 32.308437 42.93599 C 38.934944 42.93599 44.26348 37.607456 44.26348 30.980946 C 44.26348 24.354437 38.934944 19.025904 32.308437 19.025904 L 32.308437 19.025904 z M 32.308437 33.850155 C 30.7372 33.850155 29.439224 32.55218 29.439224 30.980946 C 29.439224 29.409712 30.7372 28.111736 32.308437 28.111736 C 33.87967 28.111736 35.177643 29.409712 35.177643 30.980946 C 35.177643 32.55218 33.87967 33.850155 32.308437 33.850155 z " stroke-miterlimit="4" fill-rule="nonzero" stroke="none"/>
        <path fill="url(#linearGradient16725)" fill-rule="nonzero" d="M 32.308453 18.638071 C 25.466965 18.638071 19.965565 24.139475 19.965565 30.98096 C 19.965565 37.82245 25.466965 43.32385 32.308453 43.32385 C 39.149937 43.32385 44.65134 37.82245 44.65134 30.98096 C 44.65134 24.139475 39.149937 18.638071 32.308453 18.638071 L 32.308453 18.638071 z M 32.308453 33.943253 C 30.686243 33.943253 29.346157 32.60317 29.346157 30.98096 C 29.346157 29.358751 30.686243 28.018667 32.308453 28.018667 C 33.93066 28.018667 35.270744 29.358751 35.270744 30.98096 C 35.270744 32.60317 33.93066 33.943253 32.308453 33.943253 z " stroke="#808080" stroke-opacity="1" stroke-miterlimit="4"/>
        <path fill-opacity="0.10999995" fill-rule="nonzero" d="M 32.308437 25.182753 C 29.070484 25.182753 26.51024 27.818296 26.51024 30.980946 C 26.51024 34.2189 29.145784 36.77914 32.308437 36.77914 C 35.546387 36.77914 38.10663 34.1436 38.10663 30.980946 C 38.10663 27.742992 35.47109 25.182753 32.308437 25.182753 L 32.308437 25.182753 z M 32.308437 34.1436 C 30.576508 34.1436 29.145784 32.712875 29.145784 30.980946 C 29.145784 29.249018 30.576508 27.818296 32.308437 27.818296 C 34.040363 27.818296 35.47109 29.249018 35.47109 30.980946 C 35.47109 32.712875 34.040363 34.1436 32.308437 34.1436 z " stroke="none" stroke-opacity="0.10999995" stroke-miterlimit="4"/>
        <path fill-opacity="1" fill="url(#linearGradient16721)" fill-rule="nonzero" d="M 35.507664 19.88814 L 33.443787 27.918863 C 34.08919 28.09074 34.605328 28.490108 34.955936 29.04276 L 42.067112 24.710663 C 40.61228 22.340858 38.27734 20.597324 35.507664 19.88814 z " stroke="none" stroke-opacity="1" stroke-miterlimit="4"/>
        <path fill-opacity="1" fill="url(#linearGradient16718)" fill-rule="nonzero" d="M 28.269056 41.749695 L 30.986343 33.915897 C 30.357264 33.69153 29.875715 33.25107 29.571745 32.671455 L 22.128405 36.404095 C 23.383429 38.885513 25.567081 40.81515 28.269056 41.749695 z " stroke="none" stroke-opacity="1" stroke-miterlimit="4"/>
        <path fill-opacity="0.54644811000000004" fill="none" fill-rule="nonzero" d="M 32.308434 19.620232 C 26.011353 19.620232 20.94772 24.683865 20.94772 30.980944 C 20.94772 37.278023 26.011353 42.341656 32.308434 42.341656 C 38.60551 42.341656 43.669144 37.278023 43.669144 30.980944 C 43.669144 24.683865 38.60551 19.620232 32.308434 19.620232 L 32.308434 19.620232 z " stroke="#ffffff" stroke-opacity="1" stroke-miterlimit="4"/>
        <path fill-opacity="0.31638417" display="inline" stroke="url(#linearGradient16706)" d="M 30.405592 24.93064 C 30.405592 28.298912 27.675068 31.029434 24.306797 31.029434 C 20.938524 31.029434 18.208 28.298912 18.208 24.93064 C 18.208 21.562366 20.938524 18.831844 24.306797 18.831844 C 27.675068 18.831844 30.405592 21.562366 30.405592 24.93064 z " visibility="visible" stroke-linecap="butt" transform="matrix(0.573842,0,0,0.573842,18.387826,16.685619)" stroke-miterlimit="4" stroke-opacity="1" fill="none" stroke-width="1.62159407" stroke-linejoin="miter" stroke-dashoffset="0" fill-rule="nonzero"/>
        <path fill-opacity="0.11428564" fill="url(#radialGradient16711)" fill-rule="nonzero" d="M 32.308437 20.137072 C 26.29783 20.137072 21.46456 24.97034 21.46456 30.980946 C 21.46456 36.99155 26.29783 41.82482 32.308437 41.82482 C 38.31904 41.82482 43.15231 36.99155 43.15231 30.980946 C 43.15231 24.97034 38.31904 20.137072 32.308437 20.137072 L 32.308437 20.137072 z M 32.308437 33.583477 C 30.88324 33.583477 29.705904 32.40614 29.705904 30.980946 C 29.705904 29.555752 30.88324 28.378416 32.308437 28.378416 C 33.73363 28.378416 34.910965 29.555752 34.910965 30.980946 C 34.910965 32.40614 33.73363 33.583477 32.308437 33.583477 z " stroke="none" stroke-opacity="1" stroke-miterlimit="4"/>
    </g>
</svg>
