<?xml version="1.0" encoding="UTF-8"?>
<svg xmlns="http://www.w3.org/2000/svg" xmlns:xlink="http://www.w3.org/1999/xlink" contentScriptType="text/ecmascript" width="26" baseProfile="tiny" zoomAndPan="magnify" contentStyleType="text/css" viewBox="0 0 26 26" height="26" preserveAspectRatio="xMidYMid meet" version="1.0">
    <defs>
        <linearGradient gradientTransform="matrix(0.200685,0,0,0.200685,-54.33576,-1.050787)" id="linearGradient3773" gradientUnits="userSpaceOnUse" xlink:show="other" xlink:type="simple" x1="99.7773" y1="15.4238" y2="248.6311" x2="153.0005" xlink:actuate="onLoad">
            <stop offset="0" stop-color="#184375"/>
            <stop offset="1" stop-color="#c8bddc"/>
        </linearGradient>
        <linearGradient gradientTransform="matrix(1.241935,0,0,1.241935,-5.027508,-7.208988)" id="linearGradient3264" gradientUnits="userSpaceOnUse" xlink:show="other" xlink:type="simple" x1="14.462892" y1="12.284524" x2="34.534348" y2="39.684914" xlink:actuate="onLoad">
            <stop stop-opacity="1" stop-color="#c9c9c9" offset="0"/>
            <stop stop-opacity="1" stop-color="#f8f8f8" offset="0.25"/>
            <stop stop-opacity="1" stop-color="#e2e2e2" offset="0.5"/>
            <stop stop-opacity="1" stop-color="#b0b0b0" offset="0.75"/>
            <stop stop-opacity="1" stop-color="#c9c9c9" offset="1"/>
        </linearGradient>
        <radialGradient gradientTransform="matrix(1.399258,-2.234445e-7,8.196178e-8,0.513264,4.365074,4.839285)" id="radialGradient2308" gradientUnits="userSpaceOnUse" xlink:show="other" xlink:type="simple" r="11.689870" cx="14.287618" fx="14.287618" cy="68.872971" fy="72.568001" xlink:actuate="onLoad">
            <stop stop-opacity="0.32673267" stop-color="#000000" offset="0.0000000"/>
            <stop stop-opacity="0" stop-color="#000000" offset="1"/>
        </radialGradient>
        <linearGradient gradientTransform="matrix(0.200685,0.000000,0.000000,0.200685,-0.585758,-1.050787)" id="aigrd1" gradientUnits="userSpaceOnUse" xlink:show="other" xlink:type="simple" x1="99.7773" y1="15.4238" x2="153.0005" y2="248.6311" xlink:actuate="onLoad">
            <stop offset="0" stop-color="#184375"/>
            <stop offset="1" stop-color="#c8bddc"/>
        </linearGradient>
        <linearGradient x1="99.7773" y1="15.4238" x2="153.0005" gradientUnits="userSpaceOnUse" y2="248.6311" xlink:type="simple" xlink:actuate="onLoad" id="aigrd1" xlink:show="other">
            <stop stop-color="#184375" offset="0"/>
            <stop stop-color="#c8bddc" offset="1"/>
        </linearGradient>
        <linearGradient xlink:type="simple" xlink:actuate="onLoad" id="linearGradient2300" xlink:show="other">
            <stop stop-opacity="0.32673267" stop-color="#000000" offset="0.0000000"/>
            <stop stop-opacity="0" stop-color="#000000" offset="1"/>
        </linearGradient>
        <linearGradient gradientTransform="matrix(1.241935,0,0,1.241935,-5.027508,-7.208988)" id="linearGradient3264" gradientUnits="userSpaceOnUse" xlink:show="other" xlink:type="simple" x1="14.462892" y1="12.284524" x2="34.534348" y2="39.684914" xlink:actuate="onLoad">
            <stop stop-opacity="1" stop-color="#c9c9c9" offset="0"/>
            <stop stop-opacity="1" stop-color="#f8f8f8" offset="0.25"/>
            <stop stop-opacity="1" stop-color="#e2e2e2" offset="0.5"/>
            <stop stop-opacity="1" stop-color="#b0b0b0" offset="0.75"/>
            <stop stop-opacity="1" stop-color="#c9c9c9" offset="1"/>
        </linearGradient>
        <linearGradient xlink:type="simple" xlink:actuate="onLoad" id="linearGradient3264" xlink:show="other">
            <stop stop-opacity="1" stop-color="#c9c9c9" offset="0"/>
            <stop stop-opacity="1" stop-color="#f8f8f8" offset="0.25"/>
            <stop stop-opacity="1" stop-color="#e2e2e2" offset="0.5"/>
            <stop stop-opacity="1" stop-color="#b0b0b0" offset="0.75"/>
            <stop stop-opacity="1" stop-color="#c9c9c9" offset="1"/>
        </linearGradient>
    </defs>
    <g transform="matrix(0.5403379,0,0,0.5403379,0.1140446,0.3181953)">
        <g>
            <path fill-opacity="1" display="inline" stroke="none" d="M 44.285717 38.714287 C 44.285717 44.147247 35.36339 48.551533 24.357143 48.551533 C 13.350898 48.551533 4.4285717 44.147247 4.4285717 38.714287 C 4.4285717 33.281326 13.350898 28.87704 24.357143 28.87704 C 35.36339 28.87704 44.285717 33.281326 44.285717 38.714287 z " visibility="visible" stroke-linecap="round" transform="matrix(1.18638,0,0,1.18638,-4.539687,-7.794678)" stroke-miterlimit="4" stroke-opacity="1" fill="url(#radialGradient2308)" stroke-width="0.50000042" color="#000000" stroke-linejoin="miter" stroke-dashoffset="0" fill-rule="evenodd"/>
        </g>
        <g>
            <path fill-opacity="1" display="inline" stroke="#3f4561" d="M 22.699524 0.9474696 C 22.22635 0.9798452 21.766436 1.0531317 21.301672 1.1063164 L 21.269903 1.1063164 L 20.157976 7.1742673 C 18.34562 7.5870047 16.640562 8.287457 15.106644 9.239277 L 10.118853 5.6493373 C 8.770521 6.6961412 7.543552 7.9170046 6.465374 9.239277 L 9.928236 14.290607 C 8.876814 15.89739 8.086153 17.732094 7.640841 19.659632 C 7.640765 19.668743 7.640779 19.689812 7.640841 19.6914 L 1.60466 20.644482 C 1.494303 21.545853 1.445813 22.477386 1.445813 23.408419 C 1.445813 24.170172 1.466846 24.921747 1.541121 25.664043 L 7.577303 26.744202 C 8.0066 28.840364 8.822112 30.797989 9.960006 32.52623 L 6.370066 37.45048 C 7.398201 38.726864 8.585171 39.88896 9.864698 40.913345 L 14.947798 37.418713 C 16.724274 38.551956 18.707344 39.346603 20.8569 39.737877 L 21.809984 45.742287 C 22.487236 45.803936 23.181759 45.80583 23.874992 45.80583 C 24.853676 45.805824 25.788511 45.768738 26.734236 45.64698 L 27.877932 39.51549 C 29.91886 39.007587 31.836111 38.12649 33.501114 36.942173 L 38.393597 40.500343 C 39.66237 39.420895 40.822582 38.180153 41.824688 36.846863 L 38.26652 31.700224 C 39.230125 30.036028 39.897816 28.19986 40.23622 26.235891 L 46.24063 25.282812 C 46.29329 24.65622 46.30417 24.048546 46.30417 23.408419 C 46.30417 22.296019 46.174877 21.205317 46.01825 20.136171 L 39.91853 19.024244 C 39.44052 17.259165 38.656216 15.612364 37.6629 14.13176 L 41.25284 9.207507 C 40.140076 7.846653 38.87072 6.589526 37.472282 5.5222597 L 32.293877 9.08043 C 30.805548 8.200202 29.203896 7.524816 27.464931 7.1424975 L 26.51185 1.1063164 C 25.644367 1.0042729 24.769749 0.9474696 23.874992 0.9474696 C 23.633165 0.94746965 23.384287 0.93986064 23.144297 0.9474696 C 23.0273 0.95117915 22.911524 0.94066346 22.794832 0.9474696 C 22.763227 0.949313 22.73107 0.9453113 22.699524 0.9474696 z M 23.525528 16.387386 C 23.641592 16.381496 23.757471 16.387386 23.874992 16.387386 C 27.635597 16.387386 30.705408 19.457195 30.705408 23.217802 C 30.705408 26.978409 27.635595 30.016447 23.874992 30.016447 C 20.114388 30.016447 17.076345 26.978409 17.076345 23.217802 C 17.076347 19.574717 19.927559 16.569963 23.525528 16.387386 z " visibility="visible" stroke-linecap="round" stroke-miterlimit="4" stroke-opacity="1" fill="url(#linearGradient3773)" stroke-dasharray="none" stroke-width="1" color="#000000" stroke-linejoin="round" stroke-dashoffset="0" fill-rule="nonzero"/>
            <path fill-opacity="0.64772728" display="inline" stroke="#ffffff" d="M 36.239223 23.781591 C 36.239223 30.81103 30.54074 36.509514 23.511301 36.509514 C 16.481863 36.509514 10.783379 30.81103 10.783379 23.781591 C 10.783379 16.752153 16.481863 11.053669 23.511301 11.053669 C 30.54074 11.053669 36.239223 16.752153 36.239223 23.781591 z " visibility="visible" stroke-linecap="butt" transform="matrix(0.616598,0,0,0.616598,9.38202,8.539674)" stroke-miterlimit="4" stroke-opacity="1" fill="none" stroke-dasharray="none" stroke-width="1.62180054" color="#000000" stroke-linejoin="miter" stroke-dashoffset="0" fill-rule="nonzero"/>
            <path fill-opacity="0.34659089" display="inline" stroke="#ffffff" d="M 21.995808 2.1484673 L 21.103024 8.023525 C 19.404255 8.410395 16.279442 9.593603 14.841657 10.485771 L 10.091975 6.940627 C 8.828145 7.9218254 8.741474 7.9883657 7.730867 9.227769 L 11.165063 14.320988 C 10.179537 15.827071 8.995796 18.510983 8.570778 20.42893 C 8.570778 20.42893 2.552988 21.443356 2.552988 21.443356 C 2.449547 22.288235 2.49926 24.096527 2.56888 24.792303 L 8.317097 25.82782 C 8.71949 27.79261 10.225324 30.955233 11.291904 32.57516 L 7.656902 37.37772 C 8.620601 38.57411 8.813474 38.683586 10.01281 39.64377 L 14.873441 36.082733 C 16.538582 37.14495 19.84373 38.437107 21.858572 38.80386 L 22.6563 44.604954 C 23.291107 44.662735 25.044828 44.82483 25.931284 44.7107 L 26.824066 38.67182 C 28.737083 38.195747 32.04254 36.838898 33.60319 35.7288 L 38.458626 39.23696 C 39.64788 38.225166 39.65853 38.07271 40.597836 36.822975 L 36.999817 31.708668 C 37.90303 30.148767 39.070904 27.098068 39.388096 25.257189 L 45.27905 24.279743 C 45.3284 23.692425 45.3308 22.054579 45.18399 21.05244 L 39.18209 20.016922 C 38.73404 18.362465 37.196415 15.381153 36.26536 13.993342 L 40.080074 9.190785 C 39.037052 7.915218 38.64924 7.7402 37.338448 6.7398214 L 32.313995 10.337839 C 30.91894 9.512778 28.137096 8.255042 26.507114 7.896684 L 25.619528 2.1484673 C 24.806414 2.0528188 22.460487 2.095292 21.995808 2.1484673 z " visibility="visible" stroke-linecap="butt" stroke-miterlimit="4" stroke-opacity="1" fill="none" stroke-dasharray="none" stroke-width="0.99999923" color="#000000" stroke-linejoin="miter" stroke-dashoffset="0" fill-rule="nonzero"/>
            <path fill-opacity="0.5" display="inline" stroke="none" d="M 10.102903 6.2970657 C 8.754569 7.3438697 8.165647 7.9719224 7.0874686 9.294194 L 10.489927 14.259153 C 9.438507 15.857755 8.331627 18.426113 8.1423855 19.987705 C 8.1423855 19.987705 2.079886 21.0319 2.079886 21.0319 C 2.010913 21.595257 1.90625 22.884804 1.90625 22.884804 L 2.083027 24.447304 C 2.5107567 24.535639 2.9231815 24.617819 3.364277 24.666052 L 3.864277 23.134804 C 4.2083178 23.16328 4.5439296 23.197304 4.895527 23.197304 C 5.2467346 23.197304 5.6139846 23.163471 5.958027 23.134804 L 6.426777 24.666052 C 6.868065 24.617819 7.3115487 24.535639 7.739277 24.447304 L 7.739277 22.884804 C 8.425034 22.72518 9.071278 22.497044 9.708027 22.228552 L 10.645527 23.509804 C 11.047878 23.327707 11.421123 23.133984 11.801777 22.916052 L 11.301777 21.416052 C 11.89901 21.053804 12.463529 20.620707 12.989277 20.166052 L 14.270527 21.103552 C 14.596162 20.806973 14.91164 20.491692 15.208027 20.166052 L 14.270527 18.916052 C 14.725373 18.390305 15.127027 17.826172 15.489277 17.228552 L 16.989277 17.697304 C 17.207209 17.316456 17.432571 16.943209 17.614277 16.541054 L 16.333027 15.603553 C 16.601517 14.966804 16.798016 14.320561 16.958029 13.634803 L 18.551777 13.634803 C 18.640112 13.207076 18.691236 12.763591 18.739277 12.322303 L 17.239277 11.853553 C 17.26814 11.509705 17.301777 11.142456 17.301777 10.791053 C 17.301777 10.43965 17.267752 10.104039 17.239277 9.759803 L 18.739277 9.291054 C 18.69373 8.871166 18.633686 8.449056 18.551777 8.041054 C 17.404348 8.440354 15.999117 9.194173 14.983265 9.824525 L 10.102903 6.2970657 z " visibility="visible" stroke-linecap="butt" stroke-miterlimit="4" stroke-opacity="1" fill="#ffffff" stroke-dasharray="none" stroke-width="1" color="#000000" stroke-linejoin="miter" stroke-dashoffset="0" fill-rule="nonzero"/>
            <path fill-opacity="0.5" display="inline" stroke="none" d="M 37.23664 17.217754 C 36.85286 17.39913 36.490005 17.603508 36.123238 17.813295 L 36.692886 19.548136 C 35.995792 19.970436 35.338158 20.467825 34.725006 20.998152 L 33.2491 19.91064 C 32.86901 20.256538 32.507328 20.618223 32.161587 20.998152 L 33.2491 22.47406 C 32.718773 23.087372 32.221546 23.745003 31.799084 24.441936 L 31.255327 24.260683 C 31.207645 24.960968 31.018948 25.62217 30.737467 26.228563 L 30.841038 26.306242 C 30.52788 27.048922 30.27649 27.83664 30.090136 28.636623 L 28.614227 28.636623 C 28.477945 28.722076 28.343676 28.821684 28.199938 28.895555 C 28.121569 29.310822 28.065025 29.71288 28.018688 30.138426 L 29.77942 30.708075 C 29.746033 31.10935 29.727633 31.515268 29.727633 31.925053 C 29.727633 32.33499 29.746035 32.740753 29.77942 33.14203 L 28.018688 33.711678 C 28.074703 34.226433 28.148678 34.74035 28.251724 35.239372 L 30.090136 35.21348 C 30.218256 35.763466 30.393202 36.32092 30.582108 36.844746 C 31.327024 36.557465 32.05594 36.21456 32.731236 35.80902 C 32.31965 34.59298 32.083908 33.27991 32.083908 31.925053 C 32.083908 26.72712 35.37629 22.288397 39.98131 20.58386 L 38.8938 20.402609 C 38.671017 19.579947 38.38248 18.774015 38.013435 18.02044 C 38.00258 17.998276 37.99851 17.96486 37.987545 17.94276 L 37.935757 17.890976 L 37.23664 17.217754 z " visibility="visible" stroke-linecap="butt" stroke-miterlimit="4" stroke-opacity="1" fill="#ffffff" stroke-dasharray="none" stroke-width="1" color="#000000" stroke-linejoin="miter" stroke-dashoffset="0" fill-rule="nonzero"/>
        </g>
    </g>
</svg>
