<?xml version="1.0" encoding="UTF-8"?>
<svg xmlns="http://www.w3.org/2000/svg" xmlns:xlink="http://www.w3.org/1999/xlink" contentScriptType="text/ecmascript" width="352" baseProfile="tiny" zoomAndPan="magnify" contentStyleType="text/css" viewBox="-176 -208 352 416" height="416" preserveAspectRatio="xMidYMid meet" version="1.0">
    <defs>
        <linearGradient xlink:type="simple" xlink:actuate="onLoad" xlink:show="other">
            <stop stop-opacity="1" stop-color="#888a85" offset="0"/>
            <stop stop-opacity="1" stop-color="#ffffff" offset="1"/>
        </linearGradient>
        <linearGradient x1="279.5" y1="-0.592" x2="279.5" gradientUnits="userSpaceOnUse" y2="194.408" xlink:type="simple" xlink:actuate="onLoad" xlink:show="other">
            <stop stop-color="#b3ddff" offset="0"/>
            <stop stop-color="#5aa7e0" offset="0.521"/>
            <stop stop-color="#cfecff" offset="1"/>
        </linearGradient>
        <linearGradient x1="77.5" y1="197.408" x2="318.5" gradientUnits="userSpaceOnUse" y2="406.408" xlink:type="simple" xlink:actuate="onLoad" xlink:show="other">
            <stop stop-color="#b3ddff" offset="0"/>
            <stop stop-color="#5aa7e0" offset="0.5"/>
            <stop stop-color="#0046b7" offset="1"/>
        </linearGradient>
        <linearGradient x1="-3.5" y1="4.408" x2="221.392" gradientUnits="userSpaceOnUse" y2="350.71" xlink:type="simple" xlink:actuate="onLoad" xlink:show="other">
            <stop stop-color="#b3ddff" offset="0"/>
            <stop stop-color="#5aa7e0" offset="0.532"/>
            <stop stop-color="#0046b7" offset="1"/>
        </linearGradient>
        <linearGradient x1="273.098" y1="35.001" x2="273.098" gradientUnits="userSpaceOnUse" y2="107.462" xlink:type="simple" xlink:actuate="onLoad" id="shape42grad" xlink:show="other">
            <stop stop-color="#5aa7e0" offset="0"/>
            <stop stop-color="#0046b7" offset="1"/>
        </linearGradient>
        <linearGradient x1="279.668" y1="25.913" x2="275.582" gradientUnits="userSpaceOnUse" y2="33.644" xlink:type="simple" xlink:actuate="onLoad" id="shape43grad" xlink:show="other">
            <stop stop-color="#b3ddff" offset="0"/>
            <stop stop-color="#5aa7e0" offset="0.5"/>
            <stop stop-color="#0046b7" offset="1"/>
        </linearGradient>
        <linearGradient x1="278.38" y1="38.072" x2="279.7" gradientUnits="userSpaceOnUse" y2="107.462" xlink:type="simple" xlink:actuate="onLoad" id="shape45grad" xlink:show="other">
            <stop stop-color="#5aa7e0" offset="0"/>
            <stop stop-color="#0046b7" offset="1"/>
        </linearGradient>
        <radialGradient gradientUnits="userSpaceOnUse" xlink:type="simple" r="8.019" xlink:actuate="onLoad" cx="289.25" id="shape46grad" cy="32.465" xlink:show="other">
            <stop stop-color="#b3ddff" offset="0"/>
            <stop stop-color="#5aa7e0" offset="0.5"/>
            <stop stop-color="#0046b7" offset="1"/>
        </radialGradient>
        <g>
            <path fill="#5aa7e0" d="M 293.699 151.087 C 292.739 145.013 284.809 147.04 280.95 148.614 C 283.166 144.224 286.604 137.351 285.122 132.339 C 284.145 129.041 280.121 129.75 277.879 131.265 C 274.31 133.679 272.265 137.816 270.056 141.378 C 269.734 137.991 268.625 128.83 263.66 129.238 C 260.505 129.498 258.622 133.155 257.615 135.742 C 255.935 140.056 255.768 144.8 255.828 149.375 C 252.678 148.399 248.465 149.128 247.17 152.552 C 245.464 157.065 248.179 161.659 251.596 164.51 C 249.209 166.136 243.512 171.376 247.119 174.31 C 251.531 177.898 258.461 172.921 261.633 169.801 C 260.502 174.576 259.401 182.644 264.131 185.931 C 268.543 188.998 270.208 179.964 270.407 177.272 C 273.826 179.218 278.673 180.08 281.571 176.753 C 284.185 173.752 283.0 169.267 280.721 166.453 C 286.341 163.406 294.184 158.466 293.699 151.087 z " fill-rule="evenodd"/>
            <path fill="#3366cc" d="M 277.138 163.379 C 279.005 162.062 281.319 160.109 281.393 157.621 C 281.468 155.101 278.681 154.976 276.834 155.476 C 278.297 153.334 279.622 151.097 280.79 148.781 C 278.812 149.605 276.928 150.646 275.139 151.822 C 275.686 150.481 278.11 144.471 274.736 144.599 C 272.788 144.673 271.092 147.22 270.084 148.642 C 270.236 146.31 270.23 143.966 270.011 141.638 C 268.672 143.813 267.459 146.068 266.413 148.398 C 266.006 146.489 264.703 143.152 262.285 145.026 C 260.399 146.487 260.116 149.431 259.924 151.625 C 258.72 150.707 257.371 149.972 255.929 149.505 C 255.959 151.533 256.904 153.787 256.357 155.798 C 256.099 156.744 254.783 157.0 254.511 158.172 C 254.17 159.646 254.831 161.273 255.79 162.379 C 254.369 162.933 253.018 163.663 251.756 164.519 C 252.738 165.323 253.816 166.014 254.971 166.541 C 253.444 168.474 254.684 170.894 257.245 169.926 C 258.819 169.331 260.242 168.332 261.889 167.919 C 264.039 167.381 263.406 172.041 263.467 173.292 C 263.584 175.658 265.975 178.387 267.241 174.918 C 268.158 175.806 269.201 176.56 270.317 177.177 C 270.435 175.521 270.403 173.853 270.208 172.205 C 271.177 172.528 272.296 172.55 273.248 172.148 C 274.662 171.548 274.526 170.539 275.055 169.345 C 275.888 167.468 278.967 167.28 280.573 166.42 C 279.603 165.229 278.435 164.201 277.138 163.379 z " fill-rule="evenodd"/>
            <path fill="#0046b7" d="M 258.37 161.587 C 259.053 161.426 259.745 161.316 260.444 161.256 C 260.049 159.691 259.897 158.076 259.829 156.465 C 261.159 157.121 262.341 158.058 263.338 159.152 C 263.4 158.05 263.583 156.96 263.829 155.886 C 264.262 156.565 264.655 157.27 264.993 158.001 C 265.542 156.55 266.213 155.148 266.94 153.777 C 266.97 155.87 266.851 157.972 266.459 160.031 C 267.082 158.884 267.917 157.867 268.84 156.95 C 268.5 158.241 268.101 159.532 267.441 160.701 C 268.93 159.363 270.62 158.264 272.381 157.322 C 271.615 158.628 270.791 159.904 269.886 161.12 C 270.65 161.144 271.41 161.245 272.159 161.394 C 271.464 162.14 270.764 162.892 269.929 163.486 C 271.153 164.023 272.296 164.753 273.264 165.677 C 271.923 166.343 270.529 166.933 269.057 167.24 C 269.32 167.949 269.525 168.679 269.702 169.414 C 268.982 169.32 268.252 169.203 267.59 168.886 C 267.668 169.594 267.713 170.304 267.725 171.017 C 265.992 169.927 263.523 167.922 264.293 165.568 C 263.825 167.1 262.86 168.435 261.747 169.566 C 262.142 167.972 262.765 166.379 263.884 165.148 C 262.223 166.984 259.448 165.453 257.881 164.296 C 258.468 163.98 259.073 163.699 259.694 163.456 C 259.148 162.914 258.725 162.265 258.37 161.587 z " fill-rule="evenodd"/>
        </g>
        <g>
            <path fill="#8cc2ea" d="M 186.34 87.267 C 185.754 84.871 183.788 83.373 181.42 82.962 C 180.967 82.884 179.182 83.08 179.252 82.568 C 179.362 81.755 179.664 80.949 179.914 80.172 C 181.245 76.036 182.739 72.139 182.164 67.666 C 181.614 63.396 178.649 59.771 174.734 63.209 C 172.123 65.501 170.151 68.781 168.681 71.902 C 167.813 67.859 167.252 63.105 164.37 59.905 C 162.57 57.906 159.469 56.753 157.745 59.408 C 154.923 63.751 155.444 71.029 156.042 75.959 C 152.764 73.326 144.424 69.039 142.639 75.613 C 141.61 79.408 143.737 84.803 146.114 87.775 C 147.249 89.191 148.996 90.502 149.569 92.284 C 149.94 93.435 148.672 93.78 147.975 94.42 C 146.76 95.537 145.818 97.027 145.443 98.642 C 143.94 105.108 151.526 106.498 156.137 105.382 C 155.426 107.841 154.66 110.97 155.524 113.475 C 156.387 115.98 159.206 115.697 160.865 114.21 C 164.347 111.091 166.356 104.885 166.853 100.335 C 168.661 104.003 173.084 109.451 177.725 108.804 C 183.456 108.004 180.223 100.789 178.024 98.058 C 182.301 96.224 186.94 92.439 186.34 87.267 z " fill-rule="evenodd"/>
            <path fill="#5aa7e0" d="M 179.414 82.736 C 177.856 82.804 176.319 83.156 174.864 83.707 C 175.493 81.582 176.391 77.718 174.087 76.187 C 172.438 75.089 170.586 77.841 169.805 78.928 C 169.623 76.46 169.249 74.009 168.717 71.593 C 167.703 73.718 166.872 75.929 166.19 78.183 C 165.715 76.533 164.702 72.86 162.288 73.547 C 159.79 74.265 160.272 78.054 160.23 80.007 C 158.94 78.44 157.505 76.988 155.913 75.728 C 156.209 78.212 156.678 80.677 157.321 83.095 C 155.665 82.103 153.184 81.816 152.36 83.976 C 151.496 86.239 152.959 88.846 154.292 90.603 C 152.774 91.075 151.323 91.763 150.005 92.654 C 151.034 93.687 154.374 95.373 154.182 96.979 C 153.902 99.337 155.346 100.937 157.797 100.82 C 157.057 102.328 156.45 103.901 155.994 105.517 C 157.305 105.214 158.581 104.755 159.78 104.146 C 159.752 106.084 161.17 106.823 162.676 105.574 C 164.458 104.097 165.235 101.559 165.813 99.421 C 166.511 96.837 169.854 100.982 170.78 101.691 C 172.885 103.302 175.292 101.942 174.417 99.243 C 175.713 99.02 176.978 98.624 178.183 98.099 C 177.29 96.962 176.265 95.928 175.124 95.042 C 177.251 93.676 178.423 91.484 177.106 89.157 C 176.309 87.749 178.87 84.173 179.414 82.736 z " fill-rule="evenodd"/>
            <path fill="#3366cc" d="M 176.592 88.774 C 175.633 88.09 174.393 88.128 173.29 88.326 C 173.946 86.822 174.484 85.267 174.907 83.681 C 173.022 84.396 171.266 85.434 169.7 86.699 C 170.042 84.103 170.03 81.471 169.823 78.865 C 168.859 80.417 168.09 82.082 167.424 83.781 C 167.142 81.876 166.743 79.989 166.196 78.142 C 165.397 80.832 164.797 83.582 164.446 86.366 C 163.275 84.081 161.856 81.921 160.213 79.947 C 160.275 81.933 160.526 83.912 160.886 85.865 C 159.805 84.797 158.627 83.816 157.307 83.056 C 157.931 85.417 158.715 87.739 159.71 89.97 C 157.883 89.836 156.036 90.06 154.286 90.599 C 155.15 91.735 156.112 92.794 157.155 93.77 C 156.333 94.2 154.544 95.031 154.497 96.125 C 154.436 97.554 158.322 98.107 159.28 98.282 C 158.741 99.11 158.262 99.974 157.772 100.832 C 158.711 100.772 159.643 100.604 160.55 100.355 C 160.089 101.585 159.741 102.876 159.709 104.197 C 161.428 103.302 163.049 102.125 164.313 100.644 C 164.696 100.195 166.446 96.424 166.153 96.35 C 167.113 96.593 167.77 98.084 168.669 98.577 C 170.41 99.53 172.523 99.572 174.435 99.244 C 174.02 98.125 173.282 97.16 172.452 96.315 C 173.393 96.001 174.295 95.576 175.131 95.042 C 174.446 94.509 173.715 94.035 172.954 93.621 C 174.407 92.204 175.584 90.529 176.592 88.774 z " fill-rule="evenodd"/>
            <path fill="#0046b7" d="M 172.792 93.642 C 172.198 93.319 171.584 93.042 170.948 92.812 C 171.852 91.444 172.555 89.956 173.18 88.443 C 171.681 88.732 170.25 89.322 168.942 90.103 C 169.26 89.058 169.461 87.98 169.605 86.898 C 168.963 87.43 168.348 87.997 167.773 88.601 C 167.755 87.104 167.61 85.611 167.392 84.129 C 166.649 86.082 166.035 88.091 165.69 90.154 C 165.5 88.929 165.052 87.761 164.508 86.652 C 164.372 87.943 164.311 89.257 164.534 90.542 C 163.588 88.908 162.371 87.446 161.034 86.119 C 161.308 87.539 161.647 88.949 162.083 90.329 C 161.346 90.159 160.595 90.066 159.842 90.019 C 160.237 90.894 160.639 91.779 161.225 92.549 C 159.87 92.751 158.542 93.162 157.321 93.788 C 158.362 94.757 159.483 95.663 160.756 96.31 C 160.262 96.912 159.819 97.551 159.397 98.204 C 160.121 98.329 160.846 98.337 161.573 98.232 C 161.254 98.878 160.967 99.538 160.711 100.21 C 162.75 99.607 165.693 98.426 165.833 95.921 C 165.739 97.453 166.191 98.97 166.857 100.333 C 167.025 98.759 167.009 97.099 166.364 95.625 C 167.418 97.861 170.559 96.978 172.327 96.318 C 171.88 95.871 171.407 95.457 170.905 95.072 C 171.603 94.696 172.223 94.193 172.792 93.642 z " fill-rule="evenodd"/>
        </g>
        <g>
            <path fill="#3366cc" d="M 214.368 144.222 C 213.227 140.039 209.086 137.805 204.983 137.576 C 206.856 132.56 208.464 127.279 208.432 121.875 C 208.41 118.267 207.784 113.631 204.68 111.295 C 198.842 106.902 192.713 118.0 190.781 122.093 C 189.302 116.016 187.914 105.527 180.816 103.268 C 176.79 101.987 174.893 106.822 174.211 109.864 C 173.057 115.015 173.698 120.375 174.483 125.529 C 170.871 122.363 160.719 115.111 157.571 122.474 C 154.064 130.673 162.34 140.672 167.457 146.083 C 163.206 148.455 159.798 153.736 162.522 158.48 C 165.137 163.037 170.969 163.835 175.725 163.211 C 174.828 166.511 172.997 175.978 178.6 176.269 C 181.674 176.428 183.943 172.934 185.301 170.64 C 187.539 166.861 189.142 162.643 189.503 158.242 C 191.929 163.048 198.9 172.162 205.426 170.435 C 211.348 168.867 206.098 159.617 203.973 156.875 C 209.437 155.136 215.33 150.64 214.368 144.222 M 193.961 129.572 C 197.382 126.029 199.829 130.912 199.849 134.068 C 199.857 135.367 199.906 137.34 198.762 138.241 C 197.039 139.597 194.429 140.08 192.566 141.422 C 192.922 138.007 191.369 132.253 193.961 129.572 M 191.84 145.427 C 193.542 144.599 195.391 144.056 197.28 143.9 C 196.713 145.287 196.332 146.796 195.447 148.029 C 194.015 150.027 192.289 147.859 190.5 148.503 C 191.105 147.556 191.528 146.503 191.84 145.427 M 189.115 149.708 C 188.871 150.07 188.61 150.324 188.355 150.5 C 188.489 150.234 188.749 149.921 189.115 149.708 M 188.342 150.488 C 187.464 148.929 188.957 147.255 190.154 146.41 C 189.979 147.941 188.949 149.125 188.342 150.488 M 189.763 149.487 C 191.017 149.335 192.108 150.246 193.066 150.909 C 191.676 152.179 189.435 152.367 188.389 150.57 C 188.916 150.295 189.374 149.935 189.763 149.487 M 190.244 143.35 C 188.427 144.865 187.916 147.48 187.975 149.73 C 186.412 145.853 188.212 141.24 189.577 137.574 C 189.912 139.484 190.165 141.412 190.244 143.35 M 180.196 128.33 C 180.518 123.902 184.165 122.197 186.496 126.603 C 188.798 130.957 186.33 135.916 185.92 140.41 C 183.886 136.478 179.87 132.908 180.196 128.33 M 181.87 147.496 C 182.551 148.419 183.374 149.25 184.344 149.868 C 183.093 150.245 182.225 151.298 181.399 152.242 C 179.709 151.228 178.223 149.916 176.831 148.532 C 178.431 147.888 180.149 147.563 181.87 147.496 M 181.374 139.23 C 183.734 141.716 185.567 144.568 186.788 147.775 C 185.965 146.525 184.502 145.975 183.402 145.031 C 181.778 143.638 181.801 141.162 181.374 139.23 M 185.354 150.713 C 185.947 150.183 186.779 150.873 187.411 150.84 C 187.125 152.759 185.215 153.673 183.44 153.171 C 183.982 152.285 184.575 151.412 185.354 150.713 M 186.104 150.294 C 186.48 150.192 187.513 150.089 187.419 150.775 C 186.942 150.72 186.503 150.56 186.104 150.294 M 185.399 149.728 C 184.782 149.123 184.363 148.354 184.005 147.576 C 185.576 147.774 187.627 148.494 187.462 150.44 C 186.87 150.0 186.136 149.75 185.399 149.728 M 170.277 135.047 C 171.465 132.923 175.038 133.421 176.475 135.08 C 177.292 136.021 177.454 137.445 177.778 138.601 C 178.299 140.458 179.145 142.277 179.954 144.023 C 178.631 143.803 177.288 143.718 175.948 143.766 C 174.8 143.808 173.211 144.472 172.407 143.323 C 170.766 140.982 169.288 137.947 170.277 135.047 M 177.918 157.489 C 174.804 157.35 171.815 154.514 173.403 151.319 C 175.323 152.675 177.413 153.84 179.69 154.468 C 179.034 155.435 178.446 156.447 177.918 157.489 M 184.141 164.476 C 182.174 166.3 179.038 163.244 181.54 161.369 C 184.485 159.163 187.288 157.8 188.059 153.795 C 188.517 157.564 186.926 161.896 184.141 164.476 M 188.672 153.957 C 188.31 153.133 188.279 152.234 188.187 151.355 C 188.584 152.162 188.672 153.072 188.672 153.957 M 188.175 151.215 C 188.836 152.207 187.627 153.945 186.989 154.66 C 185.593 156.22 183.477 156.863 181.484 157.228 C 182.145 155.457 183.173 155.035 184.772 154.24 C 186.533 153.366 187.435 151.595 187.713 149.715 C 188.712 151.184 190.008 152.474 191.879 152.593 C 193.795 152.713 195.029 152.328 196.477 153.865 C 193.101 154.754 190.225 154.21 188.175 151.215 M 199.368 160.73 C 198.187 163.025 195.292 161.017 193.949 159.998 C 191.692 158.284 189.921 156.191 189.147 153.421 C 190.697 155.869 193.4 157.261 196.221 157.58 C 198.238 157.808 200.176 158.213 199.368 160.73 M 201.653 151.381 C 201.124 151.876 200.493 152.246 199.853 152.578 C 198.947 151.816 197.991 151.113 196.985 150.488 C 198.837 148.894 200.31 146.908 201.559 144.82 C 203.694 146.443 203.524 149.626 201.653 151.381 " fill-rule="evenodd"/>
        </g>
        <g>
            <path fill="#3366cc" d="M 143.652 136.248 C 140.958 133.201 138.262 130.153 135.567 127.105 C 134.098 125.443 132.627 123.781 131.158 122.119 C 130.309 121.16 128.465 118.138 127.241 117.828 C 125.5 117.386 122.506 119.591 120.911 120.197 C 117.239 121.59 113.336 122.589 109.469 123.264 C 106.286 123.82 103.977 122.994 102.975 126.696 C 102.217 129.49 102.231 132.623 102.698 135.466 C 103.323 139.261 104.167 143.045 102.893 146.812 C 101.679 150.399 99.682 153.697 97.278 156.609 C 94.446 152.528 91.401 148.509 91.103 143.355 C 90.759 137.419 91.307 131.464 92.243 125.604 C 92.993 120.919 94.313 115.908 98.317 112.937 C 102.178 110.07 107.35 109.4 112.032 109.482 C 106.762 105.46 101.493 101.439 96.224 97.417 C 98.452 96.139 100.492 94.33 103.003 93.615 C 105.259 92.973 108.061 93.638 110.352 93.912 C 111.87 94.093 114.042 94.678 115.493 93.974 C 117.255 93.119 118.333 89.91 119.409 88.368 C 119.124 91.234 117.482 95.669 120.485 97.388 C 124.807 99.864 129.079 102.433 133.374 104.958 C 130.307 101.105 127.604 96.974 125.154 92.708 C 122.965 88.895 120.424 84.226 121.782 79.697 C 113.904 79.876 111.049 86.734 110.717 93.646 C 108.0 88.445 107.564 81.627 110.291 76.337 C 111.569 73.855 113.458 72.916 115.315 71.076 C 117.085 69.323 114.87 65.538 114.343 63.582 C 112.621 57.176 111.577 50.617 109.796 44.228 C 108.945 41.173 109.967 38.173 110.418 35.136 C 110.957 31.517 111.495 27.899 112.032 24.281 C 118.04 28.084 123.085 33.218 126.432 39.516 C 130.258 46.718 132.524 54.611 134.956 62.357 C 136.209 49.912 137.137 37.39 138.563 24.97 C 138.891 22.117 142.576 14.425 145.175 20.321 C 147.375 25.312 146.662 31.819 146.284 37.097 C 146.387 33.49 146.56 29.884 146.867 26.289 C 146.888 26.039 147.707 20.054 148.392 22.018 C 149.286 20.148 151.182 11.923 153.953 15.902 C 155.606 18.276 155.829 20.87 156.259 23.65 C 156.827 27.31 158.0 30.88 158.93 34.459 C 159.721 31.568 160.51 28.677 161.301 25.787 C 165.125 37.555 164.183 50.164 163.279 62.302 C 158.095 61.789 149.635 60.721 146.428 66.041 C 145.43 67.694 145.352 69.723 145.118 71.587 C 144.812 74.027 144.352 76.455 143.965 78.882 C 143.223 83.544 142.356 88.185 141.587 92.841 C 141.245 94.917 142.471 94.564 143.483 95.929 C 144.797 97.707 145.065 100.041 145.139 102.184 C 145.305 106.939 144.159 111.667 144.625 116.421 C 145.055 120.791 148.331 124.097 148.715 128.336 C 148.856 129.895 149.187 132.779 148.231 134.13 C 147.241 135.53 145.122 135.664 143.652 136.248 z " fill-rule="evenodd"/>
            <g transform="translate(230.177,6.799) scale(-0.757,0.815)">
                <path fill="url(#shape42grad)" d="M 277.385 28.113 C 276.259 28.678 277.345 32.472 277.514 33.324 C 278.049 36.021 278.519 38.577 278.718 41.339 C 279.302 49.457 278.616 57.722 275.174 65.192 C 271.866 72.374 266.188 77.1 260.552 82.382 C 254.526 88.033 250.781 94.94 248.364 102.8 C 248.042 103.846 246.661 106.604 247.524 107.611 C 248.531 108.785 249.29 104.498 249.383 104.08 C 250.28 100.072 252.141 96.018 254.22 92.494 C 258.124 85.874 264.123 81.449 269.402 76.044 C 280.132 65.059 281.268 49.217 279.107 34.739 C 279.019 34.145 277.972 27.828 277.385 28.113 z " fill-rule="evenodd" transform="translate(-115.5,2.5)"/>
                <path fill="url(#shape43grad)" d="M 280.445 31.433 C 279.934 33.49 277.761 36.154 275.799 33.804 C 274.152 31.832 274.147 28.861 274.741 26.49 C 275.252 24.431 277.423 21.777 279.385 24.124 C 281.033 26.093 281.037 29.064 280.445 31.433 z " fill-rule="evenodd" transform="translate(-115.5,2.5)"/>
                <path stroke-linecap="round" transform="translate(-115.5,2.5)" fill="none" fill-rule="evenodd" stroke-linejoin="round" d="M 263.312 49.732 C 263.823 54.798 262.917 60.008 260.219 64.375 C 257.614 68.589 254.783 72.697 253.846 77.66 C 251.898 87.97 253.019 99.078 247.581 108.48 " stroke="#0046b7" stroke-width="1.698"/>
                <path fill="url(#shape45grad)" d="M 286.842 35.265 C 285.47 35.282 285.299 45.04 285.218 46.216 C 284.749 53.007 283.09 60.115 280.819 66.517 C 278.373 73.416 274.584 79.166 268.69 83.574 C 262.687 88.064 254.991 90.62 250.838 97.227 C 248.981 100.183 247.504 103.814 246.689 107.211 C 246.359 108.587 246.851 111.054 247.867 108.528 C 248.677 106.512 248.912 104.328 249.766 102.321 C 252.501 95.894 258.159 92.013 264.013 88.661 C 275.797 81.912 281.93 70.531 284.481 57.481 C 284.895 55.365 288.582 35.255 286.842 35.265 z " fill-rule="evenodd" transform="translate(-115.5,2.5)"/>
                <path fill="url(#shape46grad)" d="M 283.847 32.67 C 283.215 35.206 283.298 38.292 285.024 40.403 C 287.002 42.823 289.332 39.891 289.838 37.857 C 290.471 35.324 290.386 32.238 288.663 30.128 C 286.684 27.708 284.355 30.634 283.847 32.67 z " fill-rule="evenodd" transform="translate(-115.5,2.5)"/>
                <path transform="translate(-115.5,2.5)" fill="none" fill-rule="evenodd" d="M 252.674 48.925 C 252.012 46.903 250.132 52.475 249.977 53.23 C 248.765 59.137 248.839 65.475 248.572 71.484 C 248.031 83.603 248.222 95.748 247.429 107.859 " stroke="#0046b7" stroke-width="1.337"/>
                <path fill="#0046b7" d="M 250.915 45.154 C 250.386 47.269 250.841 49.72 252.264 51.4 C 253.792 53.203 256.1 52.175 256.618 50.089 C 257.147 47.974 256.697 45.521 255.27 43.841 C 253.741 42.039 251.434 43.07 250.915 45.154 z " fill-rule="evenodd" transform="translate(-115.5,2.5)"/>
                <path fill="#0046b7" d="M 261.653 45.232 C 261.128 47.348 261.577 49.802 263.002 51.484 C 264.532 53.287 266.841 52.257 267.359 50.17 C 267.885 48.056 267.434 45.605 266.01 43.925 C 264.482 42.125 262.173 43.144 261.653 45.232 z " fill-rule="evenodd" transform="translate(-115.5,2.5)"/>
            </g>
        </g>
        <g>
            <path fill="#0046b7" d="M 197.442 43.341 C 195.163 45.421 195.196 49.187 195.128 52.023 C 195.027 56.331 195.894 60.613 197.262 64.681 C 195.766 62.46 192.785 64.682 191.433 65.914 C 196.295 67.14 188.895 72.103 187.969 73.765 C 186.636 76.157 190.132 75.551 191.351 75.116 C 194.578 73.963 197.44 71.371 199.523 68.722 C 199.107 70.753 198.191 72.918 198.792 75.007 C 199.354 76.96 200.781 78.677 201.866 80.365 C 203.159 82.375 204.542 84.326 206.007 86.215 C 206.897 87.363 208.741 90.714 210.359 90.81 C 212.509 90.935 213.541 86.373 213.623 84.84 C 213.859 80.394 211.753 75.371 209.534 71.633 C 212.457 71.568 222.465 73.033 223.212 68.651 C 223.547 66.683 221.684 64.726 220.777 63.156 C 219.147 60.336 217.043 59.856 214.404 58.248 C 217.124 55.347 219.247 51.756 219.392 47.693 C 219.489 44.99 219.309 40.731 216.779 39.072 C 213.708 37.056 210.198 40.406 208.274 42.523 C 207.256 43.643 206.372 45.572 204.616 44.691 C 202.178 43.466 200.225 42.786 197.442 43.341 z " fill-rule="evenodd"/>
        </g>
    </defs>
    <rect fill-opacity="1" display="inline" stroke="#ffffff" visibility="visible" stroke-linecap="square" width="351.2225" stroke-miterlimit="4" stroke-opacity="0.25" fill="#eeeeec" stroke-dasharray="none" stroke-width="0.77750438" color="#000000" height="415.2225" x="-175.61125" stroke-linejoin="miter" rx="0.86429161" y="-207.61125" ry="0.9135437" stroke-dashoffset="0" fill-rule="nonzero"/>
    <rect fill-opacity="1" display="inline" stroke="#ffffff" visibility="visible" stroke-linecap="square" width="89.607101" stroke-miterlimit="4" stroke-opacity="0.25" fill="#fbf8f1" stroke-dasharray="none" stroke-width="0.39290172" color="#000000" height="415.60709" x="-175.80354" stroke-linejoin="miter" rx="0.22050598" y="-207.80354" ry="0.91438985" stroke-dashoffset="0" fill-rule="nonzero"/>
</svg>
