<?xml version="1.0" encoding="UTF-8"?>
<svg xmlns="http://www.w3.org/2000/svg" xmlns:xlink="http://www.w3.org/1999/xlink" contentScriptType="text/ecmascript" width="100" baseProfile="tiny" zoomAndPan="magnify" contentStyleType="text/css" viewBox="0 0 100 112" height="112" preserveAspectRatio="xMidYMid meet" version="1.0">
    <defs>
        <radialGradient gradientUnits="userSpaceOnUse" xlink:type="simple" r="29.889715" xlink:actuate="onLoad" cx="8.7468252" id="radialGradient5212" cy="6.8283234" xlink:show="other" fx="8.7468252" fy="6.8283234">
            <stop stop-opacity="1.0000000" stop-color="#9497b3" offset="0.0000000"/>
            <stop stop-opacity="1.0000000" stop-color="#4c4059" offset="1.0000000"/>
        </radialGradient>
        <linearGradient x1="19.667364" y1="4.2570662" x2="20.329933" gradientUnits="userSpaceOnUse" y2="5.2845874" xlink:type="simple" xlink:actuate="onLoad" xlink:show="other">
            <stop stop-opacity="1" stop-color="#c4a000" offset="0"/>
            <stop stop-opacity="0" stop-color="#c4a000" offset="1"/>
        </linearGradient>
        <radialGradient gradientTransform="matrix(3.63042,0,0,3.742066,-61.48607,-29.18618)" gradientUnits="userSpaceOnUse" xlink:type="simple" r="3.3478092" xlink:actuate="onLoad" cx="23.375" cy="10.972863" xlink:show="other" fx="23.375" fy="10.972863">
            <stop stop-opacity="1" stop-color="#c4a000" offset="0"/>
            <stop stop-opacity="0" stop-color="#c4a000" offset="1"/>
        </radialGradient>
        <linearGradient x1="6.3422160" y1="7.7893324" x2="22.218424" gradientUnits="userSpaceOnUse" y2="25.884274" xlink:type="simple" xlink:actuate="onLoad" id="linearGradient4313" xlink:show="other">
            <stop stop-opacity="1.0000000" stop-color="#a0a0a0" offset="0.0000000"/>
            <stop stop-opacity="1.0000000" stop-color="#ffffff" offset="1.0000000"/>
        </linearGradient>
        <radialGradient gradientUnits="userSpaceOnUse" xlink:type="simple" r="29.292715" xlink:actuate="onLoad" cx="11.901996" id="radialGradient4311" cy="10.045444" xlink:show="other" fx="11.901996" fy="10.045444">
            <stop stop-opacity="1.0000000" stop-color="#fffffd" offset="0.0000000"/>
            <stop stop-opacity="1.0000000" stop-color="#cbcbc9" offset="1.0000000"/>
        </radialGradient>
        <radialGradient gradientUnits="userSpaceOnUse" xlink:type="simple" r="15.532059" xlink:actuate="onLoad" cx="11.329200" id="radialGradient4309" cy="10.583970" xlink:show="other" fx="11.329200" fy="10.583970">
            <stop stop-opacity="0.17525773" stop-color="#f3f4ff" offset="0"/>
            <stop stop-opacity="1.0000000" stop-color="#9193af" offset="1.0000000"/>
        </radialGradient>
        <linearGradient x1="8.9156475" gradientTransform="matrix(3.123841,0,0,0.969691,-31.88758,-19.59492)" y1="37.197018" x2="9.8855033" gradientUnits="userSpaceOnUse" y2="52.090678" xlink:type="simple" xlink:actuate="onLoad" id="linearGradient4307" xlink:show="other">
            <stop stop-opacity="1.0000000" stop-color="#9aa29a" offset="0.0000000"/>
            <stop stop-opacity="1.0000000" stop-color="#b5beb5" offset="1.0000000"/>
        </linearGradient>
        <radialGradient gradientUnits="userSpaceOnUse" xlink:type="simple" r="8.6620579" xlink:actuate="onLoad" cx="31.112698" id="radialGradient3822" cy="19.008621" xlink:show="other" fx="31.112698" fy="19.008621">
            <stop stop-opacity="1" stop-color="#000000" offset="0"/>
            <stop stop-opacity="0" stop-color="#000000" offset="1"/>
        </radialGradient>
        <linearGradient xlink:type="simple" xlink:actuate="onLoad" xlink:show="other">
            <stop stop-opacity="1" stop-color="#000000" offset="0"/>
            <stop stop-opacity="0" stop-color="#000000" offset="1"/>
        </linearGradient>
        <linearGradient xlink:type="simple" xlink:actuate="onLoad" xlink:show="other">
            <stop stop-opacity="1.0000000" stop-color="#9aa29a" offset="0.0000000"/>
            <stop stop-opacity="1.0000000" stop-color="#b5beb5" offset="1.0000000"/>
        </linearGradient>
        <linearGradient xlink:type="simple" xlink:actuate="onLoad" xlink:show="other">
            <stop stop-opacity="1.0000000" stop-color="#9497b3" offset="0.0000000"/>
            <stop stop-opacity="1.0000000" stop-color="#4c4059" offset="1.0000000"/>
        </linearGradient>
        <linearGradient xlink:type="simple" xlink:actuate="onLoad" xlink:show="other">
            <stop stop-opacity="1.0000000" stop-color="#fffffd" offset="0.0000000"/>
            <stop stop-opacity="1.0000000" stop-color="#cbcbc9" offset="1.0000000"/>
        </linearGradient>
        <linearGradient xlink:type="simple" xlink:actuate="onLoad" xlink:show="other">
            <stop stop-opacity="1.0000000" stop-color="#a0a0a0" offset="0.0000000"/>
            <stop stop-opacity="1.0000000" stop-color="#ffffff" offset="1.0000000"/>
        </linearGradient>
        <linearGradient xlink:type="simple" xlink:actuate="onLoad" xlink:show="other">
            <stop stop-opacity="1.0000000" stop-color="#f3f4ff" offset="0.0000000"/>
            <stop stop-opacity="1.0000000" stop-color="#9193af" offset="1.0000000"/>
        </linearGradient>
        <linearGradient xlink:type="simple" xlink:actuate="onLoad" xlink:show="other">
            <stop stop-opacity="1.0000000" stop-color="#ffffff" offset="0.0000000"/>
            <stop stop-opacity="0.89108908" stop-color="#fff520" offset="0.50000000"/>
            <stop stop-opacity="0.0000000" stop-color="#fff300" offset="1.0000000"/>
        </linearGradient>
        <linearGradient xlink:type="simple" xlink:actuate="onLoad" xlink:show="other">
            <stop stop-opacity="1" stop-color="#c4a000" offset="0"/>
            <stop stop-opacity="0" stop-color="#c4a000" offset="1"/>
        </linearGradient>
        <linearGradient xlink:type="simple" xlink:actuate="onLoad" xlink:show="other">
            <stop stop-opacity="1" stop-color="#c4a000" offset="0"/>
            <stop stop-opacity="0" stop-color="#c4a000" offset="1"/>
        </linearGradient>
        <linearGradient x1="1420.5474" gradientTransform="matrix(2.050967,0,0.167197,-0.988984,-2791.942,99.82423)" y1="-50.919434" x2="1420.6542" gradientUnits="userSpaceOnUse" y2="-79.574341" xlink:type="simple" xlink:actuate="onLoad" xlink:show="other">
            <stop stop-color="#c4a000" offset="0"/>
            <stop stop-color="#957a00" offset="1"/>
        </linearGradient>
        <linearGradient x1="1668.7646" gradientTransform="matrix(1.213781,0,0.282495,-1.671173,-1774.231,387.0328)" y1="185.30176" x2="1679.5989" gradientUnits="userSpaceOnUse" y2="175.78883" xlink:type="simple" xlink:actuate="onLoad" xlink:show="other">
            <stop stop-color="#ffffff" offset="0"/>
            <stop stop-color="#cfcfcf" offset="1"/>
        </linearGradient>
        <linearGradient x1="1668.7646" gradientTransform="matrix(1.213781,0,0.282495,-1.671173,-1834.231,751.0328)" y1="185.30176" x2="1679.5989" gradientUnits="userSpaceOnUse" y2="175.78883" xlink:type="simple" xlink:actuate="onLoad" xlink:show="other">
            <stop stop-color="#ffffff" offset="0"/>
            <stop stop-color="#cfcfcf" offset="1"/>
        </linearGradient>
        <linearGradient xlink:type="simple" xlink:actuate="onLoad" xlink:show="other">
            <stop stop-opacity="1" stop-color="#e2e2e2" offset="0"/>
            <stop stop-opacity="1" stop-color="#d8d8d8" offset="1"/>
        </linearGradient>
        <radialGradient gradientTransform="matrix(1.000000,0.000000,0.000000,1.010300,1.007969e-18,-0.159801)" gradientUnits="userSpaceOnUse" xlink:type="simple" r="7.2848282" xlink:actuate="onLoad" cx="165.06104" cy="23.333008" xlink:show="other">
            <stop stop-color="#ef3535" offset="0"/>
            <stop stop-opacity="0" stop-color="#a40000" offset="1"/>
        </radialGradient>
        <linearGradient x1="292.97168" y1="4.7592773" x2="296.93979" gradientUnits="userSpaceOnUse" y2="10.711433" xlink:type="simple" xlink:actuate="onLoad" xlink:show="other">
            <stop stop-color="#eeeeec" offset="0"/>
            <stop stop-opacity="1" stop-color="#ffffff" offset="1"/>
        </linearGradient>
        <linearGradient x1="1668.7646" gradientTransform="matrix(1.213800,0.000000,0.282500,-1.671200,46.72625,447.9442)" y1="185.30176" x2="1679.5989" gradientUnits="userSpaceOnUse" y2="175.78883" xlink:type="simple" xlink:actuate="onLoad" xlink:show="other">
            <stop stop-color="#ffffff" offset="0"/>
            <stop stop-color="#cfcfcf" offset="1"/>
        </linearGradient>
        <linearGradient x1="1420.5474" gradientTransform="matrix(2.051000,0.000000,0.167200,-0.989000,-799.2049,221.0724)" y1="-50.919434" x2="1420.6542" gradientUnits="userSpaceOnUse" y2="-79.574341" xlink:type="simple" xlink:actuate="onLoad" xlink:show="other">
            <stop stop-color="#c4a000" offset="0"/>
            <stop stop-color="#957a00" offset="1"/>
        </linearGradient>
        <radialGradient gradientTransform="matrix(1.000000,0.000000,0.000000,1.010300,1.007969e-18,-0.159801)" gradientUnits="userSpaceOnUse" xlink:type="simple" r="7.2848282" xlink:actuate="onLoad" cx="165.06104" cy="23.333008" xlink:show="other">
            <stop stop-color="#ef3535" offset="0"/>
            <stop stop-opacity="1" stop-color="#c91a1a" offset="0"/>
            <stop stop-opacity="1" stop-color="#ff4c4c" offset="1"/>
        </radialGradient>
        <linearGradient x1="68.175293" y1="21.424805" x2="74.587158" gradientUnits="userSpaceOnUse" y2="27.836672" xlink:type="simple" xlink:actuate="onLoad" xlink:show="other">
            <stop stop-color="#babdb6" offset="0"/>
            <stop stop-color="#eeeeec" offset="1"/>
        </linearGradient>
        <radialGradient gradientUnits="userSpaceOnUse" xlink:type="simple" r="29.889715" xlink:actuate="onLoad" cx="8.7468252" cy="6.8283234" xlink:show="other" fx="8.7468252" fy="6.8283234">
            <stop stop-opacity="1.0000000" stop-color="#9497b3" offset="0.0000000"/>
            <stop stop-opacity="1.0000000" stop-color="#4c4059" offset="1.0000000"/>
        </radialGradient>
        <linearGradient x1="6.3422160" y1="7.7893324" x2="22.218424" gradientUnits="userSpaceOnUse" y2="25.884274" xlink:type="simple" xlink:actuate="onLoad" xlink:show="other">
            <stop stop-opacity="1.0000000" stop-color="#a0a0a0" offset="0.0000000"/>
            <stop stop-opacity="1.0000000" stop-color="#ffffff" offset="1.0000000"/>
        </linearGradient>
        <radialGradient gradientUnits="userSpaceOnUse" xlink:type="simple" r="29.292715" xlink:actuate="onLoad" cx="11.901996" cy="10.045444" xlink:show="other" fx="11.901996" fy="10.045444">
            <stop stop-opacity="1.0000000" stop-color="#fffffd" offset="0.0000000"/>
            <stop stop-opacity="1.0000000" stop-color="#cbcbc9" offset="1.0000000"/>
        </radialGradient>
        <radialGradient gradientUnits="userSpaceOnUse" xlink:type="simple" r="15.532059" xlink:actuate="onLoad" cx="11.329200" cy="10.583970" xlink:show="other" fx="11.329200" fy="10.583970">
            <stop stop-opacity="1.0000000" stop-color="#f3f4ff" offset="0.0000000"/>
            <stop stop-opacity="1.0000000" stop-color="#9193af" offset="1.0000000"/>
        </radialGradient>
        <linearGradient x1="8.9156475" gradientTransform="matrix(3.123841,0.000000,0.000000,0.969691,-31.88758,-19.59492)" y1="37.197018" x2="9.8855033" gradientUnits="userSpaceOnUse" y2="52.090678" xlink:type="simple" xlink:actuate="onLoad" xlink:show="other">
            <stop stop-opacity="1.0000000" stop-color="#9aa29a" offset="0.0000000"/>
            <stop stop-opacity="1.0000000" stop-color="#b5beb5" offset="1.0000000"/>
        </linearGradient>
        <radialGradient gradientUnits="userSpaceOnUse" xlink:type="simple" r="8.6620579" xlink:actuate="onLoad" cx="31.112698" cy="19.008621" xlink:show="other" fx="31.112698" fy="19.008621">
            <stop stop-opacity="1" stop-color="#000000" offset="0"/>
            <stop stop-opacity="0" stop-color="#000000" offset="1"/>
        </radialGradient>
        <linearGradient xlink:type="simple" xlink:actuate="onLoad" xlink:show="other">
            <stop stop-opacity="1.0000000" stop-color="#9aa29a" offset="0.0000000"/>
            <stop stop-opacity="1.0000000" stop-color="#b5beb5" offset="1.0000000"/>
        </linearGradient>
        <linearGradient xlink:type="simple" xlink:actuate="onLoad" xlink:show="other">
            <stop stop-opacity="1.0000000" stop-color="#9497b3" offset="0.0000000"/>
            <stop stop-opacity="1.0000000" stop-color="#4c4059" offset="1.0000000"/>
        </linearGradient>
        <linearGradient xlink:type="simple" xlink:actuate="onLoad" xlink:show="other">
            <stop stop-opacity="1.0000000" stop-color="#fffffd" offset="0.0000000"/>
            <stop stop-opacity="1.0000000" stop-color="#cbcbc9" offset="1.0000000"/>
        </linearGradient>
        <linearGradient xlink:type="simple" xlink:actuate="onLoad" xlink:show="other">
            <stop stop-opacity="1.0000000" stop-color="#a0a0a0" offset="0.0000000"/>
            <stop stop-opacity="1.0000000" stop-color="#ffffff" offset="1.0000000"/>
        </linearGradient>
        <linearGradient xlink:type="simple" xlink:actuate="onLoad" xlink:show="other">
            <stop stop-opacity="1.0000000" stop-color="#f3f4ff" offset="0.0000000"/>
            <stop stop-opacity="1.0000000" stop-color="#9193af" offset="1.0000000"/>
        </linearGradient>
        <linearGradient xlink:type="simple" xlink:actuate="onLoad" xlink:show="other">
            <stop stop-opacity="1.0000000" stop-color="#ffffff" offset="0.0000000"/>
            <stop stop-opacity="0.89108908" stop-color="#fff520" offset="0.50000000"/>
            <stop stop-opacity="0.0000000" stop-color="#fff300" offset="1.0000000"/>
        </linearGradient>
        <linearGradient gradientTransform="matrix(1.163838,0,0,1.163838,14.692456,2.777556)" id="linearGradient4313" gradientUnits="userSpaceOnUse" xlink:show="other" xlink:type="simple" x1="6.3422160" y1="7.7893324" x2="22.218424" y2="25.884274" xlink:actuate="onLoad">
            <stop stop-opacity="1.0000000" stop-color="#a0a0a0" offset="0.0000000"/>
            <stop stop-opacity="1.0000000" stop-color="#ffffff" offset="1.0000000"/>
        </linearGradient>
        <linearGradient gradientTransform="matrix(1.163838,0,0,1.163838,4.8248014,2.777556)" id="linearGradient75211" gradientUnits="userSpaceOnUse" xlink:show="other" xlink:type="simple" x1="6.3422160" y1="7.7893324" y2="25.884274" x2="22.218424" xlink:actuate="onLoad">
            <stop stop-opacity="1.0000000" stop-color="#a0a0a0" offset="0.0000000"/>
            <stop stop-opacity="1.0000000" stop-color="#ffffff" offset="1.0000000"/>
        </linearGradient>
        <linearGradient id="linearGradient3262" gradientUnits="userSpaceOnUse" xlink:show="other" xlink:type="simple" x1="44.578426" y1="43.227707" x2="3.0851226" y2="1.7124513" r="15.532059" cx="11.329200" fx="11.329200" cy="10.583970" fy="10.583970" xlink:actuate="onLoad">
            <stop stop-opacity="0.17525773" stop-color="#f3f4ff" offset="0"/>
            <stop stop-opacity="1.0000000" stop-color="#9193af" offset="1.0000000"/>
        </linearGradient>
    </defs>
    <g transform="matrix(2.0268241,0,0,2.0178368,-5.6649e-2,4.648694)">
        <path fill-opacity="1" display="inline" stroke="none" d="M 39.774757 19.00862 C 39.774757 23.792542 35.89662 27.670675 31.112698 27.670675 C 26.328775 27.670675 22.45064 23.792542 22.45064 19.00862 C 22.45064 14.224696 26.328775 10.346561 31.112698 10.346561 C 35.89662 10.346561 39.774757 14.224696 39.774757 19.00862 z " visibility="visible" stroke-linecap="round" transform="matrix(2.563158,0,0,1.219602,-55.98414,14.04144)" stroke-miterlimit="4" stroke-opacity="1" fill="url(#radialGradient3822)" stroke-dasharray="none" stroke-width="1px" color="#000000" stroke-linejoin="round" stroke-dashoffset="0" fill-rule="evenodd"/>
        <path fill-opacity="1" display="inline" stroke="none" d="M 18.587591 1.403729 L 4.226755 18.096664 L 5.4854717 19.339844 L 18.587591 1.403729 z " visibility="visible" stroke-linecap="butt" stroke-miterlimit="4" stroke-opacity="1" fill="url(#linearGradient4307)" stroke-width="1" color="#000000" stroke-linejoin="miter" stroke-dashoffset="0" fill-rule="evenodd"/>
        <path stroke-linecap="butt" fill-opacity="1" fill="#fefefe" fill-rule="evenodd" stroke-linejoin="miter" d="M 18.467176 1.3138036 L 5.6605716 19.072613 L 7.4900985 20.687912 L 18.467176 1.3138036 z " stroke="none" stroke-width="1" stroke-opacity="1" stroke-miterlimit="4"/>
        <path fill-opacity="1" stroke="#605773" d="M 31.160711 16.910715 C 31.16206 22.2387 28.320389 27.162537 23.706446 29.826914 C 19.0925 32.491295 13.407498 32.491295 8.793554 29.826914 C 4.17961 27.162537 1.3379384 22.2387 1.3392859 16.910715 C 1.3379384 11.582732 4.17961 6.658896 8.793554 3.9945152 C 13.407498 1.3301349 19.0925 1.3301349 23.706446 3.9945152 C 28.320389 6.658896 31.16206 11.582732 31.160711 16.910715 z " stroke-linecap="round" transform="matrix(1.431529,0,0,1.431529,0.569459,-1.654618)" stroke-miterlimit="4" stroke-opacity="1" fill="url(#radialGradient5212)" stroke-width="0.69855404" stroke-linejoin="round" stroke-dashoffset="0" fill-rule="evenodd"/>
        <path fill-opacity="1" stroke="none" d="M 31.160711 16.910715 C 31.16206 22.2387 28.320389 27.162537 23.706446 29.826914 C 19.0925 32.491295 13.407498 32.491295 8.793554 29.826914 C 4.17961 27.162537 1.3379384 22.2387 1.3392859 16.910715 C 1.3379384 11.582732 4.17961 6.658896 8.793554 3.9945152 C 13.407498 1.3301349 19.0925 1.3301349 23.706446 3.9945152 C 28.320389 6.658896 31.16206 11.582732 31.160711 16.910715 z " stroke-linecap="round" transform="matrix(1.163838,0,0,1.163838,4.824801,2.777556)" stroke-miterlimit="4" stroke-opacity="1" fill="url(#radialGradient4311)" stroke-width="0.71139598" stroke-linejoin="round" stroke-dashoffset="0" fill-rule="evenodd"/>
        <path fill-opacity="1" stroke="none" d="M 17.324116 7.693205 C 17.324331 7.914397 17.206451 8.118878 17.014933 8.229537 C 16.82341 8.340196 16.587385 8.340196 16.395863 8.229537 C 16.204342 8.118878 16.086462 7.914397 16.08668 7.693205 C 16.086462 7.4720135 16.204342 7.2675314 16.395863 7.1568727 C 16.587385 7.0462146 16.82341 7.0462146 17.014933 7.1568727 C 17.206451 7.2675314 17.324331 7.4720135 17.324116 7.693205 z " stroke-linecap="round" transform="matrix(2.749493,0,0,2.749493,-22.30073,-12.40939)" stroke-miterlimit="4" stroke-opacity="1" fill="#b6b9b1" stroke-width="1.36871839" stroke-linejoin="round" stroke-dashoffset="0" fill-rule="evenodd"/>
        <path fill-opacity="1" stroke="none" d="M 17.324116 7.693205 C 17.324331 7.914397 17.206451 8.118878 17.014933 8.229537 C 16.82341 8.340196 16.587385 8.340196 16.395863 8.229537 C 16.204342 8.118878 16.086462 7.914397 16.08668 7.693205 C 16.086462 7.4720135 16.204342 7.2675314 16.395863 7.1568727 C 16.587385 7.0462146 16.82341 7.0462146 17.014933 7.1568727 C 17.206451 7.2675314 17.324331 7.4720135 17.324116 7.693205 z " stroke-linecap="round" transform="matrix(2.749493,0,0,2.749493,-22.30073,14.80922)" stroke-miterlimit="4" stroke-opacity="1" fill="#b6b9b1" stroke-width="1.36871839" stroke-linejoin="round" stroke-dashoffset="0" fill-rule="evenodd"/>
        <path fill-opacity="1" stroke="none" d="M 17.324116 7.693205 C 17.324331 7.914397 17.206451 8.118878 17.014933 8.229537 C 16.82341 8.340196 16.587385 8.340196 16.395863 8.229537 C 16.204342 8.118878 16.086462 7.914397 16.08668 7.693205 C 16.086462 7.4720135 16.204342 7.2675314 16.395863 7.1568727 C 16.587385 7.0462146 16.82341 7.0462146 17.014933 7.1568727 C 17.206451 7.2675314 17.324331 7.4720135 17.324116 7.693205 z " stroke-linecap="round" transform="matrix(2.749493,0,0,2.749493,-35.91004,1.19989)" stroke-miterlimit="4" stroke-opacity="1" fill="#b6b9b1" stroke-width="1.36871839" stroke-linejoin="round" stroke-dashoffset="0" fill-rule="evenodd"/>
        <path fill-opacity="1" stroke="none" d="M 17.324116 7.693205 C 17.324331 7.914397 17.206451 8.118878 17.014933 8.229537 C 16.82341 8.340196 16.587385 8.340196 16.395863 8.229537 C 16.204342 8.118878 16.086462 7.914397 16.08668 7.693205 C 16.086462 7.4720135 16.204342 7.2675314 16.395863 7.1568727 C 16.587385 7.0462146 16.82341 7.0462146 17.014933 7.1568727 C 17.206451 7.2675314 17.324331 7.4720135 17.324116 7.693205 z " stroke-linecap="round" transform="matrix(2.749493,0,0,2.749493,-8.691448,1.19989)" stroke-miterlimit="4" stroke-opacity="1" fill="#b6b9b1" stroke-width="1.36871839" stroke-linejoin="round" stroke-dashoffset="0" fill-rule="evenodd"/>
        <path stroke-linecap="round" stroke-dashoffset="0" fill-opacity="1.0" fill="url(#linearGradient3262)" fill-rule="evenodd" stroke-linejoin="round" d="M 23.831772 1.7124528 C 20.24966 1.7124528 16.688744 2.6594892 13.479662 4.512614 C 7.0614977 8.218864 3.083249 15.047685 3.0851233 22.459105 C 3.0832489 29.870523 7.0614977 36.741776 13.479662 40.448017 C 19.897825 44.15427 27.76572 44.15427 34.183884 40.448017 C 40.602047 36.74177 44.5803 29.870523 44.578423 22.459105 C 44.5803 15.047685 40.602047 8.218864 34.183884 4.512614 C 30.974804 2.6594892 27.413889 1.7124528 23.831772 1.7124528 z M 23.831772 2.730693 C 27.240864 2.730693 30.662132 3.5969665 33.717194 5.361148 C 39.827305 8.889512 43.56197 15.403406 43.560184 22.459105 C 43.56197 29.514803 39.827305 36.0287 33.717194 39.557056 C 27.607075 43.085423 20.05647 43.085423 13.946355 39.557056 C 7.83624 36.0287 4.101579 29.514803 4.103364 22.459105 C 4.101579 15.403406 7.83624 8.889512 13.946355 5.361148 C 17.001411 3.5969665 20.422684 2.730693 23.831772 2.730693 z " stroke="none" stroke-width="0.73656511" stroke-opacity="1" stroke-miterlimit="4"/>
        <path stroke-linecap="round" stroke-dashoffset="0" fill-opacity="1" fill="url(#linearGradient75211)" fill-rule="evenodd" stroke-linejoin="round" d="M 23.726095 4.6875 C 20.657892 4.6875 17.5998 5.475226 14.851096 7.0625 C 9.353688 10.237048 5.9744897 16.12058 5.9760957 22.46875 C 5.9744906 28.81692 9.353688 34.669205 14.851096 37.84375 C 20.348503 41.0183 27.134935 41.018295 32.632347 37.84375 C 38.129753 34.66921 41.508957 28.81692 41.507343 22.46875 C 41.508953 16.12058 38.129753 10.237048 32.632347 7.0625 C 29.88364 5.4752264 26.7943 4.6875 23.726095 4.6875 z M 23.726095 5.5 C 26.651045 5.5 29.573664 6.2676167 32.194847 7.78125 C 37.437202 10.808517 40.665127 16.4151 40.663597 22.46875 C 40.66513 28.5224 37.437202 34.097736 32.194847 37.125 C 26.952484 40.152267 20.499704 40.152267 15.257346 37.125 C 10.014987 34.097736 6.787065 28.5224 6.788596 22.46875 C 6.787065 16.4151 10.014986 10.808517 15.257346 7.78125 C 17.878527 6.2676167 20.801147 5.5 23.726095 5.5 z " stroke="none" stroke-width="0.8279497" stroke-opacity="1" stroke-miterlimit="4"/>
    </g>
    <path fill-opacity="1" stroke="#000000" d="M 54.093964 49.866447 C 54.093964 53.375965 51.346603 56.220978 47.95757 56.220978 C 44.56853 56.220978 41.821175 53.375965 41.821175 49.866447 C 41.821175 46.356937 44.56853 43.51192 47.95757 43.51192 C 51.346603 43.51192 54.093964 46.356937 54.093964 49.866447 z " stroke-linecap="round" stroke-miterlimit="4" stroke-opacity="1" fill="#f3f3f3" stroke-dasharray="none" stroke-width="2.47128344" stroke-linejoin="round" stroke-dashoffset="0" fill-rule="evenodd"/>
</svg>
