<?xml version="1.0" encoding="UTF-8"?>
<svg xmlns="http://www.w3.org/2000/svg" xmlns:xlink="http://www.w3.org/1999/xlink" contentScriptType="text/ecmascript" width="88" baseProfile="tiny" zoomAndPan="magnify" contentStyleType="text/css" viewBox="0 0 88 88" height="88" preserveAspectRatio="xMidYMid meet" version="1.0">
    <defs>
        <linearGradient x1="-21.658581" y1="15.649428" x2="-21.962101" gradientUnits="userSpaceOnUse" y2="21.336346" xlink:type="simple" xlink:actuate="onLoad" xlink:show="other">
            <stop stop-opacity="1" stop-color="#ffffff" offset="0"/>
            <stop stop-opacity="0" stop-color="#ffffff" offset="1"/>
        </linearGradient>
        <linearGradient x1="-22.822565" y1="28.337734" x2="-22.113543" gradientUnits="userSpaceOnUse" y2="22.661524" xlink:type="simple" xlink:actuate="onLoad" xlink:show="other">
            <stop stop-opacity="1" stop-color="#ffffff" offset="0"/>
            <stop stop-opacity="0" stop-color="#ffffff" offset="1"/>
        </linearGradient>
        <linearGradient x1="-25.176178" y1="30.057165" x2="-22.113543" gradientUnits="userSpaceOnUse" y2="22.661524" xlink:type="simple" xlink:actuate="onLoad" xlink:show="other">
            <stop stop-opacity="1" stop-color="#ffffff" offset="0"/>
            <stop stop-opacity="0" stop-color="#ffffff" offset="1"/>
        </linearGradient>
        <linearGradient x1="-25.176178" y1="30.057165" x2="-22.252472" gradientUnits="userSpaceOnUse" y2="21.041553" xlink:type="simple" xlink:actuate="onLoad" xlink:show="other">
            <stop stop-opacity="1" stop-color="#ffffff" offset="0"/>
            <stop stop-opacity="0" stop-color="#ffffff" offset="1"/>
        </linearGradient>
        <radialGradient gradientUnits="userSpaceOnUse" xlink:type="simple" r="6.7175145" xlink:actuate="onLoad" cx="12.071323" cy="12.493138" xlink:show="other" fx="12.071323" fy="12.493138">
            <stop stop-opacity="1" stop-color="#ffffff" offset="0"/>
            <stop stop-opacity="0" stop-color="#ffffff" offset="1"/>
        </radialGradient>
        <radialGradient gradientUnits="userSpaceOnUse" xlink:type="simple" r="6.7175145" xlink:actuate="onLoad" cx="12.071323" cy="12.493138" xlink:show="other" fx="12.071323" fy="12.493138">
            <stop stop-opacity="1" stop-color="#ffffff" offset="0"/>
            <stop stop-opacity="0" stop-color="#ffffff" offset="1"/>
        </radialGradient>
        <radialGradient gradientUnits="userSpaceOnUse" xlink:type="simple" r="6.7175145" xlink:actuate="onLoad" cx="12.071323" cy="12.493138" xlink:show="other" fx="12.071323" fy="12.493138">
            <stop stop-opacity="1" stop-color="#ffffff" offset="0"/>
            <stop stop-opacity="0" stop-color="#ffffff" offset="1"/>
        </radialGradient>
        <radialGradient gradientUnits="userSpaceOnUse" xlink:type="simple" r="6.7175145" xlink:actuate="onLoad" cx="12.071323" cy="12.493138" xlink:show="other" fx="12.071323" fy="12.493138">
            <stop stop-opacity="1" stop-color="#ffffff" offset="0"/>
            <stop stop-opacity="0" stop-color="#ffffff" offset="1"/>
        </radialGradient>
        <radialGradient gradientTransform="scale(0.999989,1.000011)" gradientUnits="userSpaceOnUse" xlink:type="simple" r="43.526714" xlink:actuate="onLoad" cx="15.601279" cy="12.142302" xlink:show="other" fx="15.601279" fy="12.142302">
            <stop stop-opacity="1.0000000" stop-color="#ffffff" offset="0.0000000"/>
            <stop stop-opacity="0.16494845" stop-color="#ffffff" offset="1.0000000"/>
        </radialGradient>
        <radialGradient gradientTransform="scale(1.64399,0.608276)" id="radialGradient4120" gradientUnits="userSpaceOnUse" xlink:show="other" xlink:type="simple" r="12.289036" cx="15.115514" fx="15.115514" cy="63.965388" fy="63.965388" xlink:actuate="onLoad">
            <stop stop-opacity="1" stop-color="#000000" offset="0"/>
            <stop stop-opacity="0" stop-color="#000000" offset="1"/>
        </radialGradient>
        <radialGradient gradientTransform="scale(0.999989,1.000011)" id="radialGradient3968" gradientUnits="userSpaceOnUse" xlink:show="other" xlink:type="simple" r="29.993349" cx="18.247644" fx="18.247644" cy="15.716079" fy="15.716079" xlink:actuate="onLoad">
            <stop stop-opacity="1.0000000" stop-color="#d3e9ff" offset="0.0000000"/>
            <stop stop-opacity="1.0000000" stop-color="#d3e9ff" offset="0.15517241"/>
            <stop stop-opacity="1.0000000" stop-color="#4074ae" offset="0.75000000"/>
            <stop stop-opacity="1.0000000" stop-color="#36486c" offset="1.0000000"/>
        </radialGradient>
        <linearGradient xlink:type="simple" xlink:actuate="onLoad" xlink:show="other">
            <stop stop-opacity="1.0000000" stop-color="#d3e9ff" offset="0.0000000"/>
            <stop stop-opacity="1.0000000" stop-color="#d3e9ff" offset="0.15517241"/>
            <stop stop-opacity="1.0000000" stop-color="#4074ae" offset="0.75000000"/>
            <stop stop-opacity="1.0000000" stop-color="#36486c" offset="1.0000000"/>
        </linearGradient>
        <linearGradient xlink:type="simple" xlink:actuate="onLoad" xlink:show="other">
            <stop stop-opacity="1" stop-color="#000000" offset="0"/>
            <stop stop-opacity="0" stop-color="#000000" offset="1"/>
        </linearGradient>
        <linearGradient xlink:type="simple" xlink:actuate="onLoad" xlink:show="other">
            <stop stop-opacity="1.0000000" stop-color="#ffffff" offset="0.0000000"/>
            <stop stop-opacity="0.16494845" stop-color="#ffffff" offset="1.0000000"/>
        </linearGradient>
        <linearGradient xlink:type="simple" xlink:actuate="onLoad" xlink:show="other">
            <stop stop-opacity="1" stop-color="#ffffff" offset="0"/>
            <stop stop-opacity="0" stop-color="#ffffff" offset="1"/>
        </linearGradient>
        <linearGradient xlink:type="simple" xlink:actuate="onLoad" xlink:show="other">
            <stop stop-opacity="1" stop-color="#ffffff" offset="0"/>
            <stop stop-opacity="0" stop-color="#ffffff" offset="1"/>
        </linearGradient>
        <radialGradient gradientTransform="scale(0.999989,1.000011)" id="radialGradient3324" gradientUnits="userSpaceOnUse" xlink:show="other" xlink:type="simple" r="43.526714" cx="15.601279" fx="15.601279" cy="12.142302" fy="12.142302" xlink:actuate="onLoad">
            <stop stop-opacity="1.0000000" stop-color="#ffffff" offset="0.0000000"/>
            <stop stop-opacity="0.16494845" stop-color="#ffffff" offset="1.0000000"/>
        </radialGradient>
        <radialGradient gradientTransform="matrix(1,0,0,0.237968,0,28.93278)" id="radialGradient2842" gradientUnits="userSpaceOnUse" xlink:show="other" xlink:type="simple" r="16.528622" cx="24.130018" fx="24.130018" cy="37.967922" fy="37.967922" xlink:actuate="onLoad">
            <stop stop-opacity="1" stop-color="#000000" offset="0"/>
            <stop stop-opacity="0" stop-color="#000000" offset="1"/>
        </radialGradient>
        <linearGradient x1="18.292673" y1="13.602121" x2="17.500893" gradientUnits="userSpaceOnUse" y2="25.743469" xlink:type="simple" xlink:actuate="onLoad" id="linearGradient2366" xlink:show="other">
            <stop stop-opacity="1" stop-color="#ffffff" offset="0"/>
            <stop stop-opacity="0.21904762" stop-color="#ffffff" offset="0.50000000"/>
            <stop stop-opacity="1.0000000" stop-color="#ffffff" offset="1.0000000"/>
        </linearGradient>
        <radialGradient gradientTransform="matrix(2.592963,0,0,2.252104,-25.05975,-18.941)" id="radialGradient4473" gradientUnits="userSpaceOnUse" xlink:show="other" xlink:type="simple" r="6.6562500" cx="15.414371" fx="15.414371" cy="13.078408" fy="13.078408" xlink:actuate="onLoad">
            <stop stop-opacity="1" stop-color="#ffffff" offset="0"/>
            <stop stop-opacity="0.24761905" stop-color="#ffffff" offset="1.0000000"/>
        </radialGradient>
        <radialGradient id="radialGradient4460" gradientUnits="userSpaceOnUse" xlink:show="other" xlink:type="simple" r="8.3085051" cx="18.240929" fx="18.240929" cy="21.817987" fy="21.817987" xlink:actuate="onLoad">
            <stop stop-opacity="0.20784314" stop-color="#729fcf" offset="0.0000000"/>
            <stop stop-opacity="0.67619050" stop-color="#729fcf" offset="1.0000000"/>
        </radialGradient>
        <linearGradient gradientTransform="matrix(1.334593,0,0,1.291292,-6.973842,-7.460658)" id="linearGradient4446" gradientUnits="userSpaceOnUse" xlink:show="other" xlink:type="simple" x1="30.656250" y1="34.000000" y2="31.062500" x2="33.218750" xlink:actuate="onLoad">
            <stop stop-opacity="1" stop-color="#7d7d7d" offset="0"/>
            <stop stop-opacity="1.0000000" stop-color="#b1b1b1" offset="0.50000000"/>
            <stop stop-opacity="1.0000000" stop-color="#686868" offset="1.0000000"/>
        </linearGradient>
        <linearGradient xlink:type="simple" xlink:actuate="onLoad" id="linearGradient4440" xlink:show="other">
            <stop stop-opacity="1" stop-color="#7d7d7d" offset="0"/>
            <stop stop-opacity="1.0000000" stop-color="#b1b1b1" offset="0.50000000"/>
            <stop stop-opacity="1.0000000" stop-color="#686868" offset="1.0000000"/>
        </linearGradient>
        <linearGradient xlink:type="simple" xlink:actuate="onLoad" id="linearGradient4454" xlink:show="other">
            <stop stop-opacity="0.20784314" stop-color="#729fcf" offset="0.0000000"/>
            <stop stop-opacity="0.67619050" stop-color="#729fcf" offset="1.0000000"/>
        </linearGradient>
        <linearGradient xlink:type="simple" xlink:actuate="onLoad" id="linearGradient4467" xlink:show="other">
            <stop stop-opacity="1" stop-color="#ffffff" offset="0"/>
            <stop stop-opacity="0.24761905" stop-color="#ffffff" offset="1.0000000"/>
        </linearGradient>
        <linearGradient xlink:type="simple" xlink:actuate="onLoad" id="linearGradient4477" xlink:show="other">
            <stop stop-opacity="1" stop-color="#000000" offset="0"/>
            <stop stop-opacity="0" stop-color="#000000" offset="1"/>
        </linearGradient>
        <linearGradient xlink:type="simple" xlink:actuate="onLoad" id="linearGradient2366" xlink:show="other">
            <stop stop-opacity="1" stop-color="#ffffff" offset="0"/>
            <stop stop-opacity="0.21904762" stop-color="#ffffff" offset="0.50000000"/>
            <stop stop-opacity="1.0000000" stop-color="#ffffff" offset="1.0000000"/>
        </linearGradient>
        <linearGradient xlink:type="simple" xlink:actuate="onLoad" id="linearGradient2846" xlink:show="other">
            <stop stop-opacity="1.0000000" stop-color="#8a8a8a" offset="0.0000000"/>
            <stop stop-opacity="1.0000000" stop-color="#484848" offset="1.0000000"/>
        </linearGradient>
        <linearGradient x1="27.366341" y1="26.580296" x2="31.335964" gradientUnits="userSpaceOnUse" y2="30.557772" xlink:type="simple" xlink:actuate="onLoad" id="linearGradient2846" xlink:show="other">
            <stop stop-opacity="1.0000000" stop-color="#8a8a8a" offset="0.0000000"/>
            <stop stop-opacity="1.0000000" stop-color="#484848" offset="1.0000000"/>
        </linearGradient>
        <linearGradient x1="27.366341" y1="26.580296" x2="31.335964" gradientUnits="userSpaceOnUse" y2="30.557772" xlink:type="simple" xlink:actuate="onLoad" id="linearGradient9909" xlink:show="other">
            <stop stop-opacity="1.0000000" stop-color="#8a8a8a" offset="0.0000000"/>
            <stop stop-opacity="1.0000000" stop-color="#484848" offset="1.0000000"/>
        </linearGradient>
        <linearGradient gradientTransform="matrix(1.245743,0,0,1.245743,-3.425346,-6.177033)" id="linearGradient9916" gradientUnits="userSpaceOnUse" xlink:show="other" xlink:type="simple" x1="18.292673" y1="13.602121" y2="25.743469" x2="17.500893" xlink:actuate="onLoad">
            <stop stop-opacity="1" stop-color="#ffffff" offset="0"/>
            <stop stop-opacity="0.21904762" stop-color="#ffffff" offset="0.50000000"/>
            <stop stop-opacity="1.0000000" stop-color="#ffffff" offset="1.0000000"/>
        </linearGradient>
    </defs>
    <g transform="matrix(1.7356543,0,0,1.7356543,1.6798925,1.7359219)">
        <path transform="matrix(1,0,0,1.243244,0,-10.27241)" fill-opacity="1" fill="url(#radialGradient4120)" d="M 45.052803 38.908627 C 45.05594 41.58001 41.205948 44.04896 34.95381 45.384983 C 28.70168 46.72101 20.997826 46.72101 14.745692 45.384983 C 8.493558 44.04896 4.6435647 41.58001 4.646702 38.908627 C 4.6435647 36.237247 8.493558 33.768295 14.745692 32.43227 C 20.997826 31.096245 28.70168 31.096245 34.95381 32.43227 C 41.205948 33.768295 45.05594 36.237247 45.052803 38.908627 z " stroke="none" stroke-opacity="1"/>
        <path fill-opacity="1" fill="url(#radialGradient3968)" fill-rule="nonzero" stroke-dasharray="none" d="M 43.95985 23.4855 C 43.95985 34.195217 35.27775 42.877224 24.569504 42.877224 C 13.860279 42.877224 5.1786666 34.19512 5.1786666 23.4855 C 5.1786666 12.776272 13.860279 4.0951514 24.569504 4.0951514 C 35.27775 4.0951514 43.95985 12.776272 43.95985 23.4855 L 43.95985 23.4855 z " stroke="#39396c" stroke-width="0.71439725" stroke-opacity="1" stroke-miterlimit="4"/>
        <g transform="matrix(0.982371,0,0,0.982371,0.121079,0.232914)" fill-opacity="0.71345029" fill="#204a87" fill-rule="nonzero" stroke="none" stroke-opacity="1" stroke-miterlimit="4">
            <g fill="#204a87">
                <g fill="#204a87">
                    <path fill="#204a87" d="M 44.0713 20.7144 C 44.0713 20.9771 44.0713 20.7144 44.0713 20.7144 L 43.5264 21.3316 C 43.1924 20.938 42.8174 20.607 42.4366 20.2613 L 41.6007 20.3843 L 40.837 19.521 L 40.837 20.5894 L 41.4913 21.0845 L 41.9268 21.5777 L 42.5088 20.9195 C 42.6553 21.1939 42.7998 21.4683 42.9453 21.7427 L 42.9453 22.565 L 42.29 23.3052 L 41.0908 24.1284 L 40.1826 25.0347 L 39.6006 24.3745 L 39.8916 23.6343 L 39.3105 22.9761 L 38.3291 20.8784 L 37.4932 19.9331 L 37.2744 20.1792 L 37.6025 21.3726 L 38.2197 22.0718 C 38.5722 23.0894 38.9209 24.062 39.3838 25.0347 C 40.1016 25.0347 40.7783 24.9585 41.4912 24.8687 L 41.4912 25.4449 L 40.6191 27.5841 L 39.8193 28.4884 L 39.165 29.8888 C 39.165 30.6564 39.165 31.424 39.165 32.1915 L 39.3838 33.0978 L 39.0205 33.508 L 38.2197 34.0021 L 37.3838 34.7013 L 38.0752 35.4826 L 37.1299 36.3068 L 37.3115 36.84 L 35.8935 38.4455 L 34.9492 38.4455 L 34.1494 38.9396 L 33.6396 38.9396 L 33.6396 38.2814 L 33.4228 36.963 C 33.1415 36.1368 32.8486 35.3165 32.5507 34.4962 C 32.5507 33.8907 32.5868 33.2911 32.623 32.6857 L 32.9873 31.8634 L 32.4775 30.8751 L 32.5146 29.5177 L 31.8232 28.7364 L 32.1689 27.6055 L 31.6064 26.9673 L 30.624 26.9673 L 30.2969 26.5972 L 29.3155 27.2149 L 28.9161 26.7613 L 28.0069 27.543 C 27.3897 26.8433 26.7715 26.1441 26.1534 25.4449 L 25.4268 23.7164 L 26.0811 22.7301 L 25.7178 22.319 L 26.5166 20.4254 C 27.1729 19.609 27.8584 18.8258 28.5518 18.0397 L 29.7881 17.7106 L 31.169 17.5465 L 32.1143 17.7936 L 33.459 19.15 L 33.9317 18.6158 L 34.585 18.5338 L 35.8213 18.9449 L 36.7666 18.9449 L 37.4209 18.3687 L 37.7119 17.9576 L 37.0566 17.5465 L 35.9658 17.4645 C 35.6631 17.0446 35.3818 16.6032 35.0224 16.2301 L 34.6581 16.3942 L 34.5126 17.4645 L 33.8583 16.7243 L 33.7138 15.9001 L 32.9872 15.3259 L 32.6952 15.3259 L 33.4227 16.1482 L 33.1317 16.8884 L 32.5506 17.0525 L 32.9139 16.3123 L 32.2586 15.9842 L 31.6785 15.326 L 30.5867 15.5721 L 30.4422 15.9002 L 29.7879 16.3123 L 29.4246 17.2176 L 28.5164 17.6697 L 28.116 17.2176 L 27.6805 17.2176 L 27.6805 15.7362 L 28.6258 15.2421 L 29.3524 15.2421 L 29.2059 14.6669 L 28.6258 14.0907 L 29.6063 13.8846 L 30.1512 13.2684 L 30.5867 12.5272 L 31.3875 12.5272 L 31.1687 11.952 L 31.6785 11.6229 L 31.6785 12.2811 L 32.7683 12.5272 L 33.8581 11.6229 L 33.9313 11.2108 L 34.8756 10.5531 C 34.5338 10.5956 34.192 10.6268 33.858 10.7177 L 33.858 9.9766 L 34.2213 9.1538 L 33.858 9.1538 L 33.0596 9.894 L 32.8408 10.3056 L 33.0596 10.8823 L 32.6953 11.8686 L 32.1142 11.5395 L 31.6064 10.9643 L 30.8056 11.5395 L 30.5146 10.2236 L 31.8955 9.3188 L 31.8955 8.8247 L 32.7685 8.249 L 34.1494 7.9194 L 35.0947 8.249 L 36.8388 8.5781 L 36.4033 9.0713 L 35.458 9.0713 L 36.4033 10.0586 L 37.1299 9.2363 L 37.3506 8.8745 C 37.3506 8.8745 40.1377 11.3725 41.7305 14.105 C 43.3233 16.8384 44.0713 20.0601 44.0713 20.7144 z "/>
                </g>
            </g>
            <g fill="#204a87">
                <g fill="#204a87">
                    <path fill="#204a87" d="M 26.0703 9.2363 L 25.9971 9.7295 L 26.5069 10.0586 L 27.378 9.4829 L 26.9425 8.9892 L 26.3605 9.3188 L 26.0705 9.2363 "/>
                </g>
            </g>
            <g fill="#204a87">
                <g fill="#204a87">
                    <path fill="#204a87" d="M 26.8701 5.8633 L 24.9795 5.1226 L 22.7998 5.3692 L 20.1094 6.1094 L 19.6006 6.6035 L 21.2725 7.7549 L 21.2725 8.4131 L 20.6182 9.0713 L 21.4912 10.8003 L 22.0713 10.4702 L 22.7998 9.3188 C 23.9228 8.9716 24.9297 8.5781 25.9971 8.0844 L 26.8701 5.8632 "/>
                </g>
            </g>
            <g fill="#204a87">
                <g fill="#204a87">
                    <path fill="#204a87" d="M 28.833 12.7749 L 28.542 12.0337 L 28.0322 12.1987 L 28.1787 13.103 L 28.833 12.7749 "/>
                </g>
            </g>
            <g fill="#204a87">
                <g fill="#204a87">
                    <path fill="#204a87" d="M 29.123 12.6089 L 28.9775 13.5972 L 29.7773 13.4322 L 30.3584 12.857 L 29.8496 12.3629 C 29.6787 11.9078 29.4824 11.483 29.2685 11.0465 L 28.833 11.0465 L 28.833 11.5397 L 29.123 11.8688 L 29.123 12.609 "/>
                </g>
            </g>
            <g fill="#204a87">
                <g fill="#204a87">
                    <path fill="#204a87" d="M 18.3652 28.2422 L 17.7832 27.0899 L 16.6929 26.8433 L 16.1114 25.2808 L 14.6578 25.4449 L 13.4224 24.5406 L 12.1133 25.692 L 12.1133 25.8736 C 11.7173 25.7593 11.2305 25.7437 10.8779 25.5269 L 10.5869 24.7046 L 10.5869 23.7993 L 9.7148 23.8813 C 9.7876 23.3051 9.8598 22.7299 9.9331 22.1538 L 9.4238 22.1538 L 8.9155 22.812 L 8.4062 23.0581 L 7.6791 22.6479 L 7.6063 21.7426 L 7.7518 20.7553 L 8.8426 19.933 L 9.7147 19.933 L 9.8597 19.4389 L 10.95 19.685 L 11.7498 20.6733 L 11.8953 19.0268 L 13.2766 17.8754 L 13.7854 16.641 L 14.803 16.2299 L 15.3845 15.4076 L 16.6926 15.1596 L 17.3474 14.1733 C 16.6931 14.1733 16.0388 14.1733 15.3845 14.1733 L 16.6203 13.5971 L 17.4919 13.5971 L 18.7282 13.185 L 18.8737 12.6928 L 18.4372 12.2807 L 17.9284 12.1157 L 18.0739 11.6225 L 17.7106 10.8823 L 16.838 11.2104 L 16.9835 10.5527 L 15.9659 9.9765 L 15.1666 11.3744 L 15.2389 11.8685 L 14.4396 12.1986 L 13.9303 13.2679 L 13.7125 12.2806 L 12.3312 11.7044 L 12.1129 10.9642 L 13.9303 9.8939 L 14.7301 9.1537 L 14.8029 8.2489 L 14.3669 8.0018 L 13.7854 7.9193 L 13.4221 8.8246 C 13.4221 8.8246 12.8142 8.9437 12.6579 8.9823 C 10.6618 10.8217 6.6286 14.7924 5.6916 22.2885 C 5.7287 22.4623 6.3708 23.4701 6.3708 23.4701 L 7.8972 24.3744 L 9.4236 24.7865 L 10.0784 25.6097 L 11.0955 26.3499 L 11.677 26.2679 L 12.113 26.4642 L 12.113 26.597 L 11.5319 28.16 L 11.0954 28.8182 L 11.2409 29.1483 L 10.8776 30.3807 L 12.1862 32.7674 L 13.4943 33.9197 L 14.0763 34.742 L 14.0031 36.4705 L 14.4396 37.4568 L 14.0031 39.3494 C 14.0031 39.3494 13.9689 39.3377 14.0246 39.5271 C 14.0808 39.7166 16.3537 40.9783 16.4982 40.8709 C 16.6422 40.7615 16.7653 40.6658 16.7653 40.6658 L 16.6203 40.2556 L 17.2014 39.6794 L 17.4197 39.1032 L 18.365 38.7731 L 19.0916 36.9626 L 18.8738 36.4704 L 19.3816 35.7302 L 20.4724 35.4822 L 21.0544 34.1658 L 20.9089 32.5213 L 21.781 31.2869 L 21.9265 30.0525 C 20.7331 29.4607 19.5495 28.8513 18.365 28.242 "/>
                </g>
            </g>
            <g fill="#204a87">
                <g fill="#204a87">
                    <path fill="#204a87" d="M 16.7656 9.5649 L 17.4922 10.0586 L 18.0742 10.0586 L 18.0742 9.4829 L 17.3476 9.1538 L 16.7656 9.5649 "/>
                </g>
            </g>
            <g fill="#204a87">
                <g fill="#204a87">
                    <path fill="#204a87" d="M 14.876 8.9072 L 14.5122 9.812 L 15.2393 9.812 L 15.6031 8.9892 C 15.9166 8.7675 16.2286 8.5444 16.5479 8.331 L 17.275 8.5781 C 17.7594 8.9072 18.2438 9.2363 18.7286 9.5649 L 19.4561 8.9072 L 18.6558 8.5781 L 18.292 7.8374 L 16.9111 7.6728 L 16.8383 7.2612 L 16.184 7.4262 L 15.8936 8.002 L 15.5298 7.2613 L 15.3848 7.5904 L 15.4576 8.4132 L 14.876 8.9072 "/>
                </g>
            </g>
            <g fill="#204a87">
                <g fill="#204a87" fill-opacity="0.75" stroke-opacity="0.75">
                    <path fill="#204a87" d=""/>
                </g>
                <g fill="#204a87">
                    <path fill="#204a87" d=""/>
                </g>
            </g>
            <g fill="#204a87">
                <g fill="#204a87" fill-opacity="0.75" stroke-opacity="0.75">
                    <path fill="#204a87" d=""/>
                </g>
                <g fill="#204a87">
                    <path fill="#204a87" d=""/>
                </g>
            </g>
            <g fill="#204a87">
                <g fill="#204a87">
                    <path fill="#204a87" d="M 17.4922 6.8496 L 17.856 6.521 L 18.5831 6.3564 C 19.0811 6.1142 19.5811 5.9511 20.1095 5.7802 L 19.8195 5.2865 L 18.881 5.4213 L 18.4376 5.8632 L 17.7066 5.9692 L 17.0567 6.2744 L 16.7408 6.4272 L 16.5479 6.6855 L 17.4922 6.8496 "/>
                </g>
            </g>
            <g fill="#204a87">
                <g fill="#204a87">
                    <path fill="#204a87" d="M 18.7285 14.6665 L 19.165 14.0083 L 18.5102 13.5151 L 18.7285 14.6665 "/>
                </g>
            </g>
        </g>
        <path fill-opacity="1" fill="url(#radialGradient3324)" fill-rule="nonzero" d="M 24.5625 4.59375 C 14.12694 4.59375 5.65625 13.064421 5.65625 23.5 C 5.65625 33.935936 14.126909 42.406246 24.5625 42.40625 C 34.997185 42.40625 43.46875 33.93604 43.46875 23.5 C 43.46875 13.064406 34.99715 4.59375 24.5625 4.59375 z M 24.5625 5.59375 C 34.45669 5.59375 42.46875 13.60488 42.46875 23.5 C 42.46875 33.39559 34.456665 41.40625 24.5625 41.40625 C 14.667384 41.406246 6.65625 33.39551 6.65625 23.5 C 6.65625 13.604866 14.667354 5.59375 24.5625 5.59375 z " stroke="none" stroke-opacity="1" stroke-miterlimit="4"/>
    </g>
    <g transform="matrix(0.7458125,0,0,0.7458125,43.946268,46.642381)">
        <g transform="matrix(1.3408196,0,0,1.3408196,-12.345565,-16.108866)">
            <path fill-opacity="1" display="inline" stroke="none" d="M 18.625 2.15625 C 9.944806 2.15625 2.875 9.194807 2.875 17.875 C 2.875 26.555195 9.944807 33.625 18.625 33.625 C 21.70806 33.625 24.3811 32.482277 26.75 30.9375 C 26.904177 31.600616 27.228308 32.242577 27.8125 32.75 L 38.75 42.28125 C 40.390625 43.70628 42.922493 43.51129 44.34375 41.875 C 45.768772 40.23437 45.57379 37.73376 43.9375 36.3125 L 32.96875 26.78125 C 32.562164 26.428097 32.100773 26.209288 31.625 26.0625 C 33.191025 23.68546 34.375 20.985016 34.375 17.875 C 34.375 9.194808 27.305193 2.15625 18.625 2.15625 z M 18.5625 5.375 C 22.173271 5.375 25.217398 6.5032287 27.375 8.5625 C 29.532602 10.621771 30.84375 13.626424 30.84375 17.65625 C 30.84375 21.770306 29.488544 24.804363 27.3125 26.84375 C 25.136456 28.883137 22.094173 29.96875 18.5625 29.96875 C 11.759631 29.968752 6.25 24.958963 6.25 17.65625 C 6.25 10.158497 11.569235 5.375 18.5625 5.375 z M 30.15625 27.875 C 30.741013 27.793583 31.215721 27.898615 31.65625 28.28125 L 42.625 37.8125 C 43.455544 38.533897 43.530132 39.736294 42.8125 40.5625 C 42.091103 41.39304 40.888702 41.467632 40.0625 40.75 L 29.125 31.25 C 28.606485 30.799623 28.524952 30.234406 28.6875 29.4375 L 28.96875 28.03125 L 30.15625 27.875 z " visibility="visible" stroke-linecap="round" stroke-miterlimit="10" stroke-opacity="1" fill="url(#linearGradient9909)" stroke-width="2.00000095" color="#000000" stroke-linejoin="miter" stroke-dashoffset="0" fill-rule="evenodd"/>
            <path fill-opacity="0.17112301" display="inline" stroke="none" d="M 40.65864 37.96792 C 40.65864 40.14021 33.258526 41.9012 24.13002 41.9012 C 15.0015135 41.9012 7.601397 40.14021 7.601397 37.96792 C 7.601397 35.795628 15.0015135 34.034637 24.13002 34.034637 C 33.258526 34.034637 40.65864 35.795628 40.65864 37.96792 z " visibility="visible" stroke-linecap="round" transform="matrix(1.446431,0,0,1.51999,-10.97453,-17.75168)" stroke-miterlimit="10" stroke-opacity="1" fill="url(#radialGradient2842)" stroke-dasharray="none" stroke-width="1" color="#000000" stroke-linejoin="miter" stroke-dashoffset="0" fill-rule="evenodd"/>
            <path fill-opacity="1" display="inline" stroke="none" d="M 18.627567 3.1435547 C 10.488439 3.1435547 3.882768 9.749226 3.882768 17.888355 C 3.882768 26.027487 10.488439 32.63316 18.627567 32.63316 C 22.107124 32.63316 25.17857 31.248764 27.701292 29.230513 C 27.495916 30.237392 27.623257 31.26588 28.457436 31.990437 L 39.42152 41.51785 C 40.654938 42.589176 42.508984 42.448807 43.58031 41.21539 C 44.65164 39.98197 44.51127 38.12793 43.27785 37.0566 L 32.313766 27.529188 C 31.642242 26.945908 30.820892 26.77322 30.007532 26.886465 C 31.994232 24.374044 33.37237 21.337664 33.37237 17.888355 C 33.37237 9.749226 26.7667 3.1435547 18.627567 3.1435547 z M 18.551954 4.369738 C 26.191412 4.369738 31.843727 9.158689 31.843727 17.661512 C 31.843727 26.336626 26.02704 30.953287 18.551954 30.953287 C 11.249005 30.953287 5.260181 25.475197 5.260181 17.661512 C 5.260181 9.677406 11.084819 4.369738 18.551954 4.369738 z " visibility="visible" stroke-linecap="round" stroke-miterlimit="10" stroke-opacity="1" fill="#dcdcdc" stroke-dasharray="none" stroke-width="2.00000095" color="#000000" stroke-linejoin="miter" stroke-dashoffset="0" fill-rule="evenodd"/>
            <path fill-opacity="1" display="inline" stroke="none" d="M 18.602903 3.0803552 C 10.437465 3.0803552 3.8104408 9.707379 3.8104408 17.87282 C 3.8104408 26.03826 10.437465 32.665283 18.602903 32.665283 C 22.093708 32.665283 25.175081 31.276417 27.70596 29.251638 C 27.49992 30.261774 27.627672 31.293585 28.464548 32.020485 L 39.464073 41.578693 C 40.701477 42.653484 42.561516 42.51266 43.636303 41.275257 C 44.711098 40.037853 44.57027 38.177814 43.33287 37.103024 L 32.333347 27.544815 C 31.659649 26.959652 30.835642 26.786402 30.019651 26.900017 C 32.012775 24.379473 33.395367 21.333277 33.395367 17.87282 C 33.395367 9.707379 26.768345 3.0803552 18.602903 3.0803552 z M 18.527046 6.266424 C 24.808153 6.266424 29.905865 11.364135 29.905865 17.645245 C 29.905865 23.926352 24.808153 29.02406 18.527046 29.02406 C 12.245938 29.02406 7.148228 23.926352 7.148228 17.645245 C 7.148228 11.364135 12.245938 6.266424 18.527046 6.266424 z " visibility="visible" stroke-linecap="round" stroke-miterlimit="10" stroke-opacity="1" fill="#dcdcdc" stroke-dasharray="none" stroke-width="1.00000036" color="#000000" stroke-linejoin="miter" stroke-dashoffset="0" fill-rule="evenodd"/>
            <path fill-opacity="1" display="inline" stroke="none" d="M 39.507004 41.57769 C 39.02833 39.304504 40.904335 36.76627 43.091057 36.789314 C 43.091057 36.789314 32.33069 27.531204 32.33069 27.531204 C 29.3859 27.474499 28.061188 29.80382 28.553877 32.131126 L 39.507004 41.57769 z " visibility="visible" stroke-linecap="round" stroke-miterlimit="10" stroke-opacity="1" fill="url(#linearGradient4446)" stroke-dasharray="none" stroke-width="1" color="#000000" stroke-linejoin="miter" stroke-dashoffset="0" fill-rule="evenodd"/>
            <path fill-opacity="1" display="inline" stroke="none" d="M 18.375156 3.12711 C 10.507091 3.12711 4.126971 9.507233 4.126971 17.375296 C 4.126971 25.24336 10.507092 31.662413 18.375156 31.662413 C 26.24322 31.662413 32.62334 25.24336 32.62334 17.375296 C 32.62334 9.507231 26.24322 3.12711 18.375156 3.12711 z M 18.375156 4.139276 C 25.702158 4.139276 31.650105 10.048295 31.650105 17.375296 C 31.650105 24.702295 25.702156 30.650244 18.375156 30.650244 C 11.048155 30.650244 5.100208 24.702295 5.100208 17.375296 C 5.100208 10.048295 11.048155 4.139276 18.375156 4.139276 z " visibility="visible" stroke-linecap="round" stroke-miterlimit="10" stroke-opacity="1" fill="url(#linearGradient9916)" stroke-width="0.8027336" color="#000000" stroke-linejoin="miter" stroke-dashoffset="0" fill-rule="evenodd"/>
            <rect fill-opacity="0.43315507" display="inline" stroke="#ffffff" visibility="visible" stroke-linecap="round" width="19.048439" transform="matrix(0.752986,0.658037,-0.648902,0.760872,0,0)" stroke-miterlimit="10" stroke-opacity="1" fill="none" stroke-dasharray="none" stroke-width="1.00003111" color="#000000" height="4.4404783" x="40.373337" stroke-linejoin="miter" rx="2.1366608" y="0.14086054" ry="1.8879365" stroke-dashoffset="0" fill-rule="evenodd"/>
            <path fill-opacity="1" stroke="#3063a3" d="M 25.897785 18.478292 C 25.899529 21.447796 24.316317 24.192478 21.744942 25.677732 C 19.173565 27.162989 16.004995 27.162989 13.43362 25.677732 C 10.862245 24.192478 9.279034 21.447796 9.280776 18.478292 C 9.279034 15.508788 10.862245 12.764108 13.43362 11.278852 C 16.004995 9.793597 19.173565 9.793597 21.744942 11.278852 C 24.316317 12.764108 25.899529 15.508788 25.897785 18.478292 z " visibility="visible" stroke-linecap="round" transform="matrix(1.398614,0,0,1.398614,-6.224338,-8.298958)" stroke-miterlimit="10" stroke-opacity="1" fill="url(#radialGradient4460)" stroke-width="0.71499395" color="#000000" stroke-linejoin="miter" stroke-dashoffset="0" fill-rule="evenodd"/>
            <path fill-opacity="0.83422457" display="inline" stroke="none" d="M 18.156916 7.3966937 C 12.949325 7.3966937 8.732368 11.613651 8.732368 16.82124 C 8.732368 18.325216 9.152676 19.709015 9.77954 20.971144 C 11.03192 21.432756 12.362297 21.746828 13.774307 21.746828 C 19.945263 21.746828 24.873589 16.88519 25.254412 10.809698 C 23.523449 8.764167 21.044374 7.3966937 18.156916 7.3966937 z " visibility="visible" stroke-linecap="round" stroke-miterlimit="10" stroke-opacity="1" fill="url(#radialGradient4473)" stroke-dasharray="none" stroke-width="1" color="#000000" stroke-linejoin="miter" stroke-dashoffset="0" fill-rule="evenodd"/>
        </g>
    </g>
</svg>
