<?xml version="1.0" encoding="UTF-8" standalone="no"?>
<!-- Created with Inkscape (http://www.inkscape.org/) -->
<svg
   xmlns:dc="http://purl.org/dc/elements/1.1/"
   xmlns:cc="http://creativecommons.org/ns#"
   xmlns:rdf="http://www.w3.org/1999/02/22-rdf-syntax-ns#"
   xmlns:svg="http://www.w3.org/2000/svg"
   xmlns="http://www.w3.org/2000/svg"
   xmlns:xlink="http://www.w3.org/1999/xlink"
   xmlns:sodipodi="http://sodipodi.sourceforge.net/DTD/sodipodi-0.dtd"
   xmlns:inkscape="http://www.inkscape.org/namespaces/inkscape"
   width="48"
   height="48"
   id="svg2"
   sodipodi:version="0.32"
   inkscape:version="0.46"
   version="1.0"
   sodipodi:docname="spicebird-mail-dark.svg"
   sodipodi:docbase="D:\Documents and Settings\Chris\Desktop\inkscape"
   inkscape:output_extension="org.inkscape.output.svg.inkscape">
  <defs
     id="defs4">
    <linearGradient
       inkscape:collect="always"
       id="linearGradient7262">
      <stop
         style="stop-color:#eeeeec;stop-opacity:1;"
         offset="0"
         id="stop7264" />
      <stop
         style="stop-color:#eeeeec;stop-opacity:0;"
         offset="1"
         id="stop7266" />
    </linearGradient>
    <linearGradient
       inkscape:collect="always"
       xlink:href="#linearGradient6945"
       id="linearGradient18121"
       gradientUnits="userSpaceOnUse"
       x1="20.375"
       y1="21.875"
       x2="26.75"
       y2="28.759682" />
    <linearGradient
       inkscape:collect="always"
       xlink:href="#linearGradient6945"
       id="linearGradient18119"
       gradientUnits="userSpaceOnUse"
       x1="20.375"
       y1="21.875"
       x2="26.75"
       y2="28.25" />
    <linearGradient
       inkscape:collect="always"
       xlink:href="#linearGradient6945"
       id="linearGradient18117"
       gradientUnits="userSpaceOnUse"
       x1="20.375"
       y1="21.875"
       x2="26.373533"
       y2="28.88929" />
    <linearGradient
       inkscape:collect="always"
       xlink:href="#linearGradient6945"
       id="linearGradient18115"
       gradientUnits="userSpaceOnUse"
       x1="20.375"
       y1="21.875"
       x2="26.150101"
       y2="28.25" />
    <linearGradient
       inkscape:collect="always"
       xlink:href="#linearGradient6945"
       id="linearGradient18113"
       gradientUnits="userSpaceOnUse"
       x1="20.375"
       y1="22.474899"
       x2="26.161907"
       y2="28.25" />
    <linearGradient
       inkscape:collect="always"
       xlink:href="#linearGradient6945"
       id="linearGradient18111"
       gradientUnits="userSpaceOnUse"
       x1="20.375"
       y1="21.875"
       x2="26.75"
       y2="28.25" />
    <linearGradient
       inkscape:collect="always"
       xlink:href="#linearGradient6945"
       id="linearGradient18109"
       gradientUnits="userSpaceOnUse"
       x1="20.375"
       y1="21.875"
       x2="26.75"
       y2="28.25" />
    <linearGradient
       inkscape:collect="always"
       xlink:href="#linearGradient8028"
       id="linearGradient18107"
       gradientUnits="userSpaceOnUse"
       x1="25.865906"
       y1="-40.465305"
       x2="23.732271"
       y2="-49.625301" />
    <linearGradient
       inkscape:collect="always"
       xlink:href="#linearGradient2789"
       id="linearGradient18105"
       gradientUnits="userSpaceOnUse"
       x1="25.593685"
       y1="20.92672"
       x2="26.1399"
       y2="51.027462" />
    <radialGradient
       inkscape:collect="always"
       xlink:href="#linearGradient6945"
       id="radialGradient18103"
       gradientUnits="userSpaceOnUse"
       gradientTransform="matrix(1.1808962,2.5803091e-7,-2.5808558e-7,1.180889,58.654343,29.611676)"
       cx="10.5"
       cy="10.498917"
       fx="10.5"
       fy="10.498917"
       r="10.495841" />
    <linearGradient
       id="linearGradient13229">
      <stop
         style="stop-color:#a40000;stop-opacity:1;"
         offset="0"
         id="stop13231" />
      <stop
         style="stop-color:#e20000;stop-opacity:1;"
         offset="1"
         id="stop13233" />
    </linearGradient>
    <linearGradient
       inkscape:collect="always"
       xlink:href="#linearGradient13229"
       id="linearGradient18101"
       gradientUnits="userSpaceOnUse"
       x1="6.4844961"
       y1="2.7784653"
       x2="15.279374"
       y2="17.377569" />
    <radialGradient
       inkscape:collect="always"
       xlink:href="#linearGradient6917"
       id="radialGradient18099"
       gradientUnits="userSpaceOnUse"
       gradientTransform="matrix(1,0,0,0.2886598,0,19.828608)"
       cx="16"
       cy="27.875"
       fx="16"
       fy="27.875"
       r="12.125" />
    <inkscape:perspective
       sodipodi:type="inkscape:persp3d"
       inkscape:vp_x="0 : 24 : 1"
       inkscape:vp_y="0 : 1000 : 0"
       inkscape:vp_z="48 : 24 : 1"
       inkscape:persp3d-origin="24 : 16 : 1"
       id="perspective79" />
    <linearGradient
       inkscape:collect="always"
       id="linearGradient8028">
      <stop
         style="stop-color:#ffffff;stop-opacity:1;"
         offset="0"
         id="stop8030" />
      <stop
         style="stop-color:#ffffff;stop-opacity:0;"
         offset="1"
         id="stop8032" />
    </linearGradient>
    <linearGradient
       inkscape:collect="always"
       xlink:href="#linearGradient8028"
       id="linearGradient5695"
       gradientUnits="userSpaceOnUse"
       x1="25.865906"
       y1="-40.465305"
       x2="23.732271"
       y2="-49.625301" />
    <linearGradient
       inkscape:collect="always"
       id="linearGradient2789">
      <stop
         style="stop-color:white;stop-opacity:1;"
         offset="0"
         id="stop2791" />
      <stop
         style="stop-color:white;stop-opacity:0;"
         offset="1"
         id="stop2793" />
    </linearGradient>
    <linearGradient
       inkscape:collect="always"
       xlink:href="#linearGradient2789"
       id="linearGradient5693"
       gradientUnits="userSpaceOnUse"
       x1="25.593685"
       y1="20.92672"
       x2="26.1399"
       y2="51.027462" />
    <linearGradient
       id="linearGradient2276">
      <stop
         style="stop-color:#f57900;stop-opacity:1;"
         offset="0"
         id="stop2278" />
      <stop
         style="stop-color:#fcaf3e;stop-opacity:1;"
         offset="1"
         id="stop2280" />
    </linearGradient>
    <radialGradient
       inkscape:collect="always"
       xlink:href="#linearGradient2276"
       id="radialGradient5691"
       gradientUnits="userSpaceOnUse"
       gradientTransform="matrix(2.147084,4.691471e-7,-4.692465e-7,2.147071,1.426465,-49.56895)"
       cx="10.5"
       cy="10.498917"
       fx="10.5"
       fy="10.498917"
       r="10.495841" />
    <linearGradient
       id="linearGradient2322">
      <stop
         style="stop-color:white;stop-opacity:1;"
         offset="0"
         id="stop2324" />
      <stop
         style="stop-color:#c1c7bc;stop-opacity:1;"
         offset="1"
         id="stop2326" />
    </linearGradient>
    <radialGradient
       inkscape:collect="always"
       xlink:href="#linearGradient2322"
       id="radialGradient5689"
       gradientUnits="userSpaceOnUse"
       gradientTransform="matrix(0.4044676,0,0,0.427577,4.3012139,2.476585)"
       cx="10.78257"
       cy="15.491104"
       fx="10.78257"
       fy="15.491104"
       r="17.709194" />
    <linearGradient
       inkscape:collect="always"
       id="linearGradient6917">
      <stop
         style="stop-color:#000000;stop-opacity:1;"
         offset="0"
         id="stop6919" />
      <stop
         style="stop-color:#000000;stop-opacity:0;"
         offset="1"
         id="stop6921" />
    </linearGradient>
    <radialGradient
       inkscape:collect="always"
       xlink:href="#linearGradient6917"
       id="radialGradient5687"
       gradientUnits="userSpaceOnUse"
       gradientTransform="matrix(1,0,0,0.2886598,0,19.828608)"
       cx="16"
       cy="27.875"
       fx="16"
       fy="27.875"
       r="12.125" />
    <linearGradient
       id="linearGradient12604">
      <stop
         style="stop-color:#cc0000;stop-opacity:1;"
         offset="0"
         id="stop12606" />
      <stop
         style="stop-color:#ef2929;stop-opacity:1"
         offset="1"
         id="stop12608" />
    </linearGradient>
    <linearGradient
       inkscape:collect="always"
       id="linearGradient6934">
      <stop
         style="stop-color:#babdb6;stop-opacity:1"
         offset="0"
         id="stop6936" />
      <stop
         style="stop-color:#babdb6;stop-opacity:0"
         offset="1"
         id="stop6938" />
    </linearGradient>
    <linearGradient
       inkscape:collect="always"
       id="linearGradient5060">
      <stop
         style="stop-color:black;stop-opacity:1;"
         offset="0"
         id="stop5062" />
      <stop
         style="stop-color:black;stop-opacity:0;"
         offset="1"
         id="stop5064" />
    </linearGradient>
    <linearGradient
       id="linearGradient5048">
      <stop
         style="stop-color:black;stop-opacity:0;"
         offset="0"
         id="stop5050" />
      <stop
         id="stop5056"
         offset="0.5"
         style="stop-color:black;stop-opacity:1;" />
      <stop
         style="stop-color:black;stop-opacity:0;"
         offset="1"
         id="stop5052" />
    </linearGradient>
    <linearGradient
       id="linearGradient6945"
       inkscape:collect="always">
      <stop
         id="stop6947"
         offset="0"
         style="stop-color:#ffffff;stop-opacity:1" />
      <stop
         id="stop6949"
         offset="1"
         style="stop-color:#d3d7cf;stop-opacity:1" />
    </linearGradient>
    <linearGradient
       id="linearGradient7063"
       inkscape:collect="always">
      <stop
         id="stop7065"
         offset="0"
         style="stop-color:#000000;stop-opacity:1;" />
      <stop
         id="stop7067"
         offset="1"
         style="stop-color:#000000;stop-opacity:0;" />
    </linearGradient>
    <linearGradient
       inkscape:collect="always"
       xlink:href="#linearGradient5048"
       id="linearGradient9753"
       gradientUnits="userSpaceOnUse"
       gradientTransform="matrix(2.774389,0,0,1.969706,-1892.179,-872.8854)"
       x1="302.85715"
       y1="366.64789"
       x2="302.85715"
       y2="609.50507" />
    <radialGradient
       inkscape:collect="always"
       xlink:href="#linearGradient5060"
       id="radialGradient9755"
       gradientUnits="userSpaceOnUse"
       gradientTransform="matrix(2.774389,0,0,1.969706,-1891.633,-872.8854)"
       cx="605.71429"
       cy="486.64789"
       fx="605.71429"
       fy="486.64789"
       r="117.14286" />
    <radialGradient
       inkscape:collect="always"
       xlink:href="#linearGradient5060"
       id="radialGradient9757"
       gradientUnits="userSpaceOnUse"
       gradientTransform="matrix(-2.774389,0,0,1.969706,112.7623,-872.8854)"
       cx="605.71429"
       cy="486.64789"
       fx="605.71429"
       fy="486.64789"
       r="117.14286" />
    <radialGradient
       inkscape:collect="always"
       xlink:href="#linearGradient6945"
       id="radialGradient9763"
       gradientUnits="userSpaceOnUse"
       gradientTransform="matrix(2.6083242,0,0,2.218814,-74.941381,-118.61799)"
       cx="13.107393"
       cy="61.48016"
       fx="13.107393"
       fy="61.48016"
       r="18.5" />
    <linearGradient
       inkscape:collect="always"
       xlink:href="#linearGradient6934"
       id="linearGradient5548"
       gradientUnits="userSpaceOnUse"
       gradientTransform="matrix(1.1,0,0,1.1,-1.5499999,-49.949999)"
       x1="14.125"
       y1="79.045456"
       x2="14.125"
       y2="75.812637" />
    <linearGradient
       inkscape:collect="always"
       xlink:href="#linearGradient7063"
       id="linearGradient5557"
       gradientUnits="userSpaceOnUse"
       x1="12.875"
       y1="35.314098"
       x2="12.875"
       y2="15.75"
       gradientTransform="matrix(1.1,0,0,1.1,-2.6499999,-3.7499991)" />
    <radialGradient
       inkscape:collect="always"
       xlink:href="#linearGradient6945"
       id="radialGradient5560"
       gradientUnits="userSpaceOnUse"
       gradientTransform="matrix(2.2149148,0,0,1.885741,-16.586435,-12.920863)"
       cx="12.5"
       cy="15.927882"
       fx="12.5"
       fy="15.927882"
       r="18.5" />
    <radialGradient
       inkscape:collect="always"
       xlink:href="#linearGradient2276"
       id="radialGradient6349"
       gradientUnits="userSpaceOnUse"
       gradientTransform="matrix(2.147084,4.691471e-7,-4.692465e-7,2.147071,1.426465,-49.56895)"
       cx="10.5"
       cy="10.498917"
       fx="10.5"
       fy="10.498917"
       r="10.495841" />
    <linearGradient
       inkscape:collect="always"
       xlink:href="#linearGradient2789"
       id="linearGradient6351"
       gradientUnits="userSpaceOnUse"
       x1="25.593685"
       y1="20.92672"
       x2="26.1399"
       y2="51.027462" />
    <radialGradient
       inkscape:collect="always"
       xlink:href="#linearGradient6945"
       id="radialGradient6470"
       gradientUnits="userSpaceOnUse"
       gradientTransform="matrix(2.2372877,0,0,1.885741,-16.799429,-12.920863)"
       cx="12.5"
       cy="15.927882"
       fx="12.5"
       fy="15.927882"
       r="18.5" />
    <linearGradient
       inkscape:collect="always"
       xlink:href="#linearGradient7262"
       id="linearGradient7268"
       x1="20.034309"
       y1="76.567162"
       x2="20.121286"
       y2="58.370258"
       gradientUnits="userSpaceOnUse" />
  </defs>
  <sodipodi:namedview
     id="base"
     pagecolor="#ffffff"
     bordercolor="#666666"
     borderopacity="0.37647059"
     inkscape:pageopacity="0"
     inkscape:pageshadow="2"
     inkscape:zoom="1"
     inkscape:cx="24"
     inkscape:cy="24"
     inkscape:document-units="px"
     inkscape:current-layer="layer1"
     width="48px"
     height="48px"
     inkscape:showpageshadow="false"
     inkscape:window-width="1022"
     inkscape:window-height="974"
     inkscape:window-x="1280"
     inkscape:window-y="22"
     borderlayer="true"
     showgrid="false"
     inkscape:grid-points="true"
     showborder="true"
     showguides="true"
     inkscape:guide-bbox="true"
     inkscape:object-paths="false"
     inkscape:grid-bbox="true">
    <inkscape:grid
       id="GridFromPre046Settings"
       type="xygrid"
       originx="0px"
       originy="0px"
       spacingx="0.5px"
       spacingy="0.5px"
       color="#0000ff"
       empcolor="#0000ff"
       opacity="0.2"
       empopacity="0.4"
       empspacing="2" />
  </sodipodi:namedview>
  <metadata
     id="metadata7">
    <rdf:RDF>
      <cc:Work
         rdf:about="">
        <dc:format>image/svg+xml</dc:format>
        <dc:type
           rdf:resource="http://purl.org/dc/dcmitype/StillImage" />
        <dc:creator>
          <cc:Agent>
            <dc:title>Lapo Calamandrei</dc:title>
          </cc:Agent>
        </dc:creator>
        <cc:license
           rdf:resource="http://creativecommons.org/licenses/GPL/2.0/" />
        <dc:title>Mail stuff</dc:title>
      </cc:Work>
      <cc:License
         rdf:about="http://creativecommons.org/licenses/GPL/2.0/">
        <cc:permits
           rdf:resource="http://web.resource.org/cc/Reproduction" />
        <cc:permits
           rdf:resource="http://web.resource.org/cc/Distribution" />
        <cc:requires
           rdf:resource="http://web.resource.org/cc/Notice" />
        <cc:permits
           rdf:resource="http://web.resource.org/cc/DerivativeWorks" />
        <cc:requires
           rdf:resource="http://web.resource.org/cc/ShareAlike" />
        <cc:requires
           rdf:resource="http://web.resource.org/cc/SourceCode" />
      </cc:License>
    </rdf:RDF>
  </metadata>
  <g
     inkscape:label="Livello 1"
     inkscape:groupmode="layer"
     id="layer1">
    <g
       id="g7676">
      <g
         transform="matrix(2.4379026e-2,0,0,1.1764699e-2,46.183574,35.811884)"
         id="g10468"
         style="opacity:0.7;display:inline">
        <rect
           style="opacity:0.39195981;fill:url(#linearGradient9753);fill-opacity:1;fill-rule:nonzero;stroke:none;stroke-width:1;stroke-linecap:round;stroke-linejoin:miter;marker:none;marker-start:none;marker-mid:none;marker-end:none;stroke-miterlimit:4;stroke-dasharray:none;stroke-dashoffset:0;stroke-opacity:1;visibility:visible;display:inline;overflow:visible"
           id="rect10470"
           width="1339.6335"
           height="478.35718"
           x="-1559.2523"
           y="-150.69685" />
        <path
           style="opacity:0.40206185;fill:url(#radialGradient9755);fill-opacity:1;fill-rule:nonzero;stroke:none;stroke-width:1;stroke-linecap:round;stroke-linejoin:miter;marker:none;marker-start:none;marker-mid:none;marker-end:none;stroke-miterlimit:4;stroke-dasharray:none;stroke-dashoffset:0;stroke-opacity:1;visibility:visible;display:inline;overflow:visible"
           d="M -219.61876,-150.68038 C -219.61876,-150.68038 -219.61876,327.65041 -219.61876,327.65041 C -76.744594,328.55086 125.78146,220.48075 125.78138,88.454235 C 125.78138,-43.572302 -33.655436,-150.68036 -219.61876,-150.68038 z"
           id="path10472"
           sodipodi:nodetypes="cccc" />
        <path
           sodipodi:nodetypes="cccc"
           id="path10474"
           d="M -1559.2523,-150.68038 C -1559.2523,-150.68038 -1559.2523,327.65041 -1559.2523,327.65041 C -1702.1265,328.55086 -1904.6525,220.48075 -1904.6525,88.454235 C -1904.6525,-43.572302 -1745.2157,-150.68036 -1559.2523,-150.68038 z"
           style="opacity:0.40206185;fill:url(#radialGradient9757);fill-opacity:1;fill-rule:nonzero;stroke:none;stroke-width:1;stroke-linecap:round;stroke-linejoin:miter;marker:none;marker-start:none;marker-mid:none;marker-end:none;stroke-miterlimit:4;stroke-dasharray:none;stroke-dashoffset:0;stroke-opacity:1;visibility:visible;display:inline;overflow:visible" />
      </g>
      <rect
         ry="1.6568109"
         rx="1.7045379"
         y="10.5"
         x="4.5"
         height="27"
         width="39.999996"
         id="rect10476"
         style="fill:url(#radialGradient6470);fill-opacity:1;fill-rule:evenodd;stroke:#2e3436;stroke-width:1;stroke-linecap:butt;stroke-linejoin:miter;stroke-miterlimit:4;stroke-dasharray:none;stroke-dashoffset:0.69999992000000000;stroke-opacity:1" />
      <path
         sodipodi:nodetypes="cccccssscccccc"
         id="path10478"
         d="M 6.0468751,11 C 5.4426693,11 4.9812501,10.942668 4.9812501,11.546876 L 4.9812501,13.093751 L 14.984375,25.846876 L 16.221875,24.471876 C 16.738185,23.955565 17.24966,23.278394 18.3875,22.821876 C 19.52534,22.365359 21.229504,22.100001 24.3,22.100001 C 27.358145,22.1 29.072299,22.365796 30.2125,22.821876 C 31.352701,23.277957 31.860352,23.954103 32.378125,24.471876 L 33.615625,25.846876 L 43.679741,13.947626 L 43.61875,11.546876 C 43.61875,10.942671 43.157333,11 42.553125,11 L 6.0468751,11 z"
         style="opacity:0.23134329;fill:url(#linearGradient5557);fill-opacity:1;fill-rule:evenodd;stroke:none;stroke-width:0.89999998;stroke-linecap:butt;stroke-linejoin:round;stroke-miterlimit:4;stroke-opacity:1" />
      <path
         sodipodi:nodetypes="ccssscccccc"
         id="path10480"
         d="M 6.1750001,35.825001 L 15.815625,24.284376 C 16.331935,23.768065 17.24966,23.278394 18.3875,22.821876 C 19.52534,22.365359 21.229504,22.100001 24.3,22.100001 C 27.358145,22.1 29.072299,22.365796 30.2125,22.821876 C 31.352701,23.277957 31.860352,23.954103 32.378125,24.471876 L 43.55,36.950001 L 32.378125,25.571876 C 30.129717,23.405323 27.408053,23.072504 24.3,23.200001 C 21.362065,23.254495 18.289267,23.199638 16.221875,25.571876 L 6.1750001,35.825001 z"
         style="fill:#888a85;fill-opacity:1;fill-rule:evenodd;stroke:none;stroke-width:0.89999998;stroke-linecap:butt;stroke-linejoin:round;stroke-miterlimit:4;stroke-dasharray:none;stroke-opacity:1" />
      <path
         sodipodi:nodetypes="ccccccccc"
         id="path10482"
         d="M 6.1750001,35.8174 L 16.221875,26.695525 C 18.289267,24.323287 21.362065,24.378144 24.3,24.32365 C 27.408053,24.196153 30.129717,24.528972 32.378125,26.695525 L 43.55,36.97365 L 32.378125,25.595525 C 30.129717,23.428972 27.408053,23.096153 24.3,23.22365 C 21.362065,23.278144 18.289267,23.223287 16.221875,25.595525 L 6.1750001,35.8174 z"
         style="fill:#ffffff;fill-opacity:1;fill-rule:evenodd;stroke:none;stroke-width:0.89999998;stroke-linecap:butt;stroke-linejoin:round;stroke-miterlimit:4;stroke-dasharray:none;stroke-opacity:1" />
      <path
         sodipodi:nodetypes="ccssscccccc"
         id="path10486"
         d="M 5.0500001,13.300001 L 15.846875,26.028126 C 16.363185,26.544438 17.24966,27.284109 18.3875,27.740626 C 19.52534,28.197144 21.417004,28.431251 24.4875,28.431251 C 27.545645,28.431253 29.072299,28.06718 30.2125,27.611099 C 31.352701,27.155019 32.226299,26.600856 32.744072,26.083082 L 44,13.300001 L 32.378125,24.678126 C 30.129717,26.84468 27.715108,27.293965 24.482973,27.293965 C 21.603053,27.293965 18.289267,27.050364 16.221875,24.678126 L 5.0500001,13.300001 z"
         style="fill:#888a85;fill-opacity:1;fill-rule:evenodd;stroke:none;stroke-width:0.89999998;stroke-linecap:butt;stroke-linejoin:round;stroke-miterlimit:4;stroke-dasharray:none;stroke-opacity:1" />
      <path
         sodipodi:nodetypes="ccccccccc"
         id="path10488"
         d="M 5.0500001,13.300001 L 16.221875,23.578126 C 18.289267,25.950364 21.362065,25.895507 24.3,25.950001 C 27.408053,26.077499 30.129717,25.74468 32.378125,23.578126 L 43.55,13.300001 L 32.378125,24.678126 C 30.129717,26.84468 27.408053,27.177499 24.3,27.050001 C 21.362065,26.995507 18.289267,27.050364 16.221875,24.678126 L 5.0500001,13.300001 z"
         style="fill:#ffffff;fill-opacity:1;fill-rule:evenodd;stroke:none;stroke-width:0.89999998;stroke-linecap:butt;stroke-linejoin:round;stroke-miterlimit:4;stroke-dasharray:none;stroke-opacity:1" />
      <path
         sodipodi:nodetypes="ccccsssccccc"
         id="path10484"
         d="M -42.09375,13.40909 C -42.615962,13.40909 -43.045455,13.717138 -43.045455,14.239352 L -43.045455,15.3125 L -32.15625,26.15625 C -31.62588,26.686621 -31.33576,27.070931 -30.5,27.40625 C -29.66424,27.741569 -28.231595,28 -25.5,28 C -22.77988,28.000001 -21.339284,27.741964 -20.5,27.40625 C -19.660716,27.070536 -19.372801,26.685301 -18.84375,26.15625 L -7.5909091,15.3125 L -7.5909091,14.572454 C -7.5909091,13.612563 -8.424918,13.40909 -8.7119405,13.40909 L -42.09375,13.40909 z"
         style="fill:url(#radialGradient9763);fill-opacity:1;fill-rule:evenodd;stroke:none;stroke-width:0.89999998;stroke-linecap:butt;stroke-linejoin:round;stroke-miterlimit:4;stroke-opacity:1"
         transform="matrix(1.1,0,0,1.1,52.35,-3.7499991)" />
      <path
         transform="matrix(0.9525773,0,0,1.0999999,19.654491,11.166158)"
         d="M 28.125,27.875 A 12.125,3.5 0 1 1 3.875,27.875 A 12.125,3.5 0 1 1 28.125,27.875 z"
         sodipodi:ry="3.5"
         sodipodi:rx="12.125"
         sodipodi:cy="27.875"
         sodipodi:cx="16"
         id="path6973"
         style="opacity:0.4;fill:url(#radialGradient5687);fill-opacity:1;fill-rule:nonzero;stroke:none;stroke-width:1;stroke-linecap:butt;stroke-linejoin:miter;marker:none;marker-start:none;marker-mid:none;marker-end:none;stroke-miterlimit:4;stroke-dasharray:none;stroke-dashoffset:0;stroke-opacity:1;visibility:visible;display:inline;overflow:visible"
         sodipodi:type="arc" />
      <path
         transform="matrix(-0.33,0,0,-0.33,41.769492,41.19141)"
         d="M 23.5,23.65625 A 1.25,1.25 0 1 1 21,23.65625 A 1.25,1.25 0 1 1 23.5,23.65625 z"
         sodipodi:ry="1.25"
         sodipodi:rx="1.25"
         sodipodi:cy="23.65625"
         sodipodi:cx="22.25"
         id="path6989"
         style="opacity:0.47422683;fill:#ffffff;fill-opacity:1;fill-rule:evenodd;stroke:none;stroke-width:1;stroke-linecap:round;stroke-linejoin:round;marker:none;marker-start:none;marker-mid:none;marker-end:none;stroke-miterlimit:4;stroke-dasharray:none;stroke-dashoffset:0;stroke-opacity:1;visibility:visible;display:inline;overflow:visible"
         sodipodi:type="arc" />
      <path
         sodipodi:nodetypes="ccccccc"
         id="path10492"
         d="M 5,28.446876 L 5,35.855966 C 5,36.489617 5.6904171,37 6.3059677,37 L 42.553125,37 C 43.126236,37 43.55,36.526234 43.55,35.953126 L 43.55,28.446876 L 5,28.446876 z"
         style="opacity:0.55597014000000000;fill:url(#linearGradient5548);fill-opacity:1;fill-rule:evenodd;stroke:none;stroke-width:0.99999987999999995;stroke-linecap:butt;stroke-linejoin:round;stroke-miterlimit:4;stroke-dashoffset:0.69999992000000000;stroke-opacity:0.99236641999999997" />
      <path
         sodipodi:nodetypes="ccccccccc"
         id="path10490"
         d="M 6.90625,55.499999 C 6.6497165,55.499999 6.4090908,55.649715 6.4090908,55.90625 L 6.4090908,78.09375 C 6.4090908,78.176379 6.6490309,78.592369 6.9847629,78.592369 L 40.502131,78.592369 C 40.758662,78.592369 40.954545,78.350281 40.954545,78.09375 L 40.954545,55.990863 C 40.954545,55.889455 40.578235,55.499999 40.446614,55.499999 L 6.90625,55.499999 z"
         style="opacity:0.69999999999999996;fill:none;fill-opacity:1;fill-rule:evenodd;stroke:url(#linearGradient7268);stroke-width:0.91636375000000003;stroke-linecap:butt;stroke-linejoin:round;stroke-miterlimit:4;stroke-dashoffset:0.69999992000000000;stroke-opacity:1;stroke-dasharray:none"
         transform="matrix(1.1,0,0,1.0826087,-1.5499999,-48.584782)" />
      <g
         transform="translate(-36.344456,-11.236468)"
         id="g18084">
        <path
           sodipodi:type="arc"
           style="opacity:0.4;fill:url(#radialGradient18099);fill-opacity:1;fill-rule:nonzero;stroke:none;stroke-width:1;stroke-linecap:butt;stroke-linejoin:miter;marker:none;marker-start:none;marker-mid:none;marker-end:none;stroke-miterlimit:4;stroke-dasharray:none;stroke-dashoffset:0;stroke-opacity:1;visibility:visible;display:inline;overflow:visible"
           id="path6314"
           sodipodi:cx="16"
           sodipodi:cy="27.875"
           sodipodi:rx="12.125"
           sodipodi:ry="3.5"
           d="M 28.125,27.875 A 12.125,3.5 0 1 1 3.875,27.875 A 12.125,3.5 0 1 1 28.125,27.875 z"
           transform="matrix(0.9525773,0,0,1.0999999,55.828549,20.7121)" />
        <path
           sodipodi:type="arc"
           style="fill:url(#linearGradient18101);fill-opacity:1;stroke:#babdb6;stroke-width:0.38685802;stroke-linecap:round;stroke-linejoin:round;stroke-miterlimit:4;stroke-dasharray:none;stroke-opacity:1"
           id="path6975"
           sodipodi:cx="8.6624146"
           sodipodi:cy="10.078017"
           sodipodi:rx="6.4298334"
           sodipodi:ry="7.0996075"
           d="M 15.092248,10.078017 A 6.4298334,7.0996075 0 1 1 2.2325811,10.078017 A 6.4298334,7.0996075 0 1 1 15.092248,10.078017 z"
           transform="matrix(1.4903233,0,0,1.3947774,58.121397,27.686758)" />
        <path
           style="fill:url(#radialGradient18103);fill-opacity:1;stroke:#a40000;stroke-width:1;stroke-linecap:round;stroke-linejoin:round;stroke-miterlimit:4;stroke-dasharray:none;stroke-opacity:1"
           d="M 70.610913,30.203342 C 64.306188,30.443212 59.244789,35.648611 59.244789,42.011016 C 59.244789,48.526117 64.537935,53.818688 71.053749,53.818688 C 77.569562,53.818688 82.862711,48.526119 82.862711,42.011016 C 82.862711,35.495913 77.569562,30.203342 71.053749,30.203342 C 70.901034,30.203342 70.762226,30.197585 70.610913,30.203342 z M 70.57401,32.564877 C 70.735037,32.556714 70.890704,32.564877 71.053749,32.564877 C 76.271208,32.564877 80.500918,36.798752 80.500918,42.011016 C 80.500918,47.223279 76.271208,51.457153 71.053749,51.457153 C 65.83629,51.457153 61.606581,47.223279 61.606581,42.011016 C 61.606581,36.961634 65.582191,32.817932 70.57401,32.564877 z"
           id="path6979" />
        <path
           style="opacity:0.11855672;fill:#000000;fill-opacity:1;stroke:none;stroke-width:1.00000048;stroke-linecap:round;stroke-linejoin:round;stroke-miterlimit:4;stroke-dasharray:none;stroke-opacity:1"
           d="M 71.1151,32.342469 C 65.887693,32.342469 61.426037,36.599189 61.426037,41.826844 C 61.426037,42.038947 61.384177,42.285405 61.397912,42.494032 C 61.728142,37.56594 66.103562,33.645594 71.1151,33.645594 C 76.126637,33.645594 80.377056,37.534691 80.707287,42.462782 C 80.721021,42.254155 80.710412,42.038947 80.710412,41.826844 C 80.710412,36.59919 76.342507,32.342468 71.1151,32.342469 z"
           id="path6977"
           sodipodi:nodetypes="cscscsc" />
        <path
           sodipodi:type="arc"
           style="opacity:0.51030926;fill:none;fill-opacity:1;fill-rule:evenodd;stroke:url(#linearGradient18105);stroke-width:1.76543915;stroke-linecap:round;stroke-linejoin:round;marker:none;marker-start:none;marker-mid:none;marker-end:none;stroke-miterlimit:4;stroke-dasharray:none;stroke-dashoffset:0;stroke-opacity:1;visibility:visible;display:inline;overflow:visible"
           id="path6981"
           sodipodi:cx="23.5"
           sodipodi:cy="24.75"
           sodipodi:rx="19.013592"
           sodipodi:ry="19.013592"
           d="M 42.513592,24.75 A 19.013592,19.013592 0 1 1 4.4864082,24.75 A 19.013592,19.013592 0 1 1 42.513592,24.75 z"
           transform="matrix(0.5664313,0,0,0.5664313,57.741475,28.022624)" />
        <path
           sodipodi:type="arc"
           style="opacity:0.5;fill:none;fill-opacity:1;fill-rule:evenodd;stroke:url(#linearGradient18107);stroke-width:0.60858172;stroke-linecap:round;stroke-linejoin:round;stroke-miterlimit:4;stroke-dasharray:none;stroke-dashoffset:0.69999992;stroke-opacity:1"
           id="path8026"
           sodipodi:cx="23.732271"
           sodipodi:cy="-46.711533"
           sodipodi:rx="17.103146"
           sodipodi:ry="7.115262"
           d="M 40.835417,-46.711533 A 17.103146,7.115262 0 1 1 6.6291256,-46.711533 A 17.103146,7.115262 0 1 1 40.835417,-46.711533 z"
           transform="matrix(0.5829096,0,-3.4192576e-2,1.4011554,55.638829,107.47472)" />
        <path
           sodipodi:type="arc"
           style="fill:url(#linearGradient18109);fill-opacity:1;fill-rule:evenodd;stroke:#888a85;stroke-width:1;stroke-linecap:round;stroke-linejoin:round;marker:none;marker-start:none;marker-mid:none;marker-end:none;stroke-miterlimit:4;stroke-dasharray:none;stroke-dashoffset:0;stroke-opacity:0.99607843;visibility:visible;display:inline;overflow:visible"
           id="path6987"
           sodipodi:cx="23.5625"
           sodipodi:cy="25.0625"
           sodipodi:rx="2.6875"
           sodipodi:ry="2.6875"
           d="M 26.25,25.0625 A 2.6875,2.6875 0 1 1 20.875,25.0625 A 2.6875,2.6875 0 1 1 26.25,25.0625 z"
           transform="matrix(0.55,0,0,0.55,64.208415,28.067166)" />
        <path
           sodipodi:type="arc"
           style="fill:url(#linearGradient18111);fill-opacity:1;fill-rule:evenodd;stroke:#888a85;stroke-width:1;stroke-linecap:round;stroke-linejoin:round;marker:none;marker-start:none;marker-mid:none;marker-end:none;stroke-miterlimit:4;stroke-dasharray:none;stroke-dashoffset:0;stroke-opacity:0.99607843;visibility:visible;display:inline;overflow:visible"
           id="path2380"
           sodipodi:cx="23.5625"
           sodipodi:cy="25.0625"
           sodipodi:rx="2.6875"
           sodipodi:ry="2.6875"
           d="M 26.25,25.0625 A 2.6875,2.6875 0 1 1 20.875,25.0625 A 2.6875,2.6875 0 1 1 26.25,25.0625 z"
           transform="matrix(0.55,0,0,0.55,61.295188,25.664276)" />
        <path
           sodipodi:type="arc"
           style="fill:url(#linearGradient18113);fill-opacity:1;fill-rule:evenodd;stroke:#888a85;stroke-width:1;stroke-linecap:round;stroke-linejoin:round;marker:none;marker-start:none;marker-mid:none;marker-end:none;stroke-miterlimit:4;stroke-dasharray:none;stroke-dashoffset:0;stroke-opacity:0.99607843;visibility:visible;display:inline;overflow:visible"
           id="path2384"
           sodipodi:cx="23.5625"
           sodipodi:cy="25.0625"
           sodipodi:rx="2.6875"
           sodipodi:ry="2.6875"
           d="M 26.25,25.0625 A 2.6875,2.6875 0 1 1 20.875,25.0625 A 2.6875,2.6875 0 1 1 26.25,25.0625 z"
           transform="matrix(0.55,0,0,0.55,58.381961,32.743808)" />
        <path
           sodipodi:type="arc"
           style="fill:url(#linearGradient18115);fill-opacity:1;fill-rule:evenodd;stroke:#888a85;stroke-width:1;stroke-linecap:round;stroke-linejoin:round;marker:none;marker-start:none;marker-mid:none;marker-end:none;stroke-miterlimit:4;stroke-dasharray:none;stroke-dashoffset:0;stroke-opacity:0.99607843;visibility:visible;display:inline;overflow:visible"
           id="path2386"
           sodipodi:cx="23.5625"
           sodipodi:cy="25.0625"
           sodipodi:rx="2.6875"
           sodipodi:ry="2.6875"
           d="M 26.25,25.0625 A 2.6875,2.6875 0 1 1 20.875,25.0625 A 2.6875,2.6875 0 1 1 26.25,25.0625 z"
           transform="matrix(0.55,0,0,0.55,61.295188,30.521303)" />
        <path
           sodipodi:type="arc"
           style="fill:url(#linearGradient18117);fill-opacity:1;fill-rule:evenodd;stroke:#888a85;stroke-width:1;stroke-linecap:round;stroke-linejoin:round;marker:none;marker-start:none;marker-mid:none;marker-end:none;stroke-miterlimit:4;stroke-dasharray:none;stroke-dashoffset:0;stroke-opacity:0.99607843;visibility:visible;display:inline;overflow:visible"
           id="path2388"
           sodipodi:cx="23.5625"
           sodipodi:cy="25.0625"
           sodipodi:rx="2.6875"
           sodipodi:ry="2.6875"
           d="M 26.25,25.0625 A 2.6875,2.6875 0 1 1 20.875,25.0625 A 2.6875,2.6875 0 1 1 26.25,25.0625 z"
           transform="matrix(0.55,0,0,0.55,55.468735,21.422255)" />
        <path
           sodipodi:type="arc"
           style="fill:url(#linearGradient18119);fill-opacity:1;fill-rule:evenodd;stroke:#888a85;stroke-width:1;stroke-linecap:round;stroke-linejoin:round;marker:none;marker-start:none;marker-mid:none;marker-end:none;stroke-miterlimit:4;stroke-dasharray:none;stroke-dashoffset:0;stroke-opacity:0.99607843;visibility:visible;display:inline;overflow:visible"
           id="path8280"
           sodipodi:cx="23.5625"
           sodipodi:cy="25.0625"
           sodipodi:rx="2.6875"
           sodipodi:ry="2.6875"
           d="M 26.25,25.0625 A 2.6875,2.6875 0 1 1 20.875,25.0625 A 2.6875,2.6875 0 1 1 26.25,25.0625 z"
           transform="matrix(0.55,0,0,0.55,55.468735,34.817425)" />
        <path
           sodipodi:type="arc"
           style="fill:url(#linearGradient18121);fill-opacity:1;fill-rule:evenodd;stroke:#888a85;stroke-width:1;stroke-linecap:round;stroke-linejoin:round;marker:none;marker-start:none;marker-mid:none;marker-end:none;stroke-miterlimit:4;stroke-dasharray:none;stroke-dashoffset:0;stroke-opacity:0.99607843;visibility:visible;display:inline;overflow:visible"
           id="path8282"
           sodipodi:cx="23.5625"
           sodipodi:cy="25.0625"
           sodipodi:rx="2.6875"
           sodipodi:ry="2.6875"
           d="M 26.25,25.0625 A 2.6875,2.6875 0 1 1 20.875,25.0625 A 2.6875,2.6875 0 1 1 26.25,25.0625 z"
           transform="matrix(0.55,0,0,0.55,58.381961,23.502772)" />
      </g>
    </g>
  </g>
</svg>
