<?xml version="1.0" encoding="UTF-8" standalone="no"?>
<!-- Created with Inkscape (http://www.inkscape.org/) -->
<svg
   xmlns:dc="http://purl.org/dc/elements/1.1/"
   xmlns:cc="http://creativecommons.org/ns#"
   xmlns:rdf="http://www.w3.org/1999/02/22-rdf-syntax-ns#"
   xmlns:svg="http://www.w3.org/2000/svg"
   xmlns="http://www.w3.org/2000/svg"
   xmlns:xlink="http://www.w3.org/1999/xlink"
   xmlns:sodipodi="http://sodipodi.sourceforge.net/DTD/sodipodi-0.dtd"
   xmlns:inkscape="http://www.inkscape.org/namespaces/inkscape"
   width="48"
   height="48"
   id="svg2"
   sodipodi:version="0.32"
   inkscape:version="0.46"
   version="1.0"
   sodipodi:docname="stratocaster.svg"
   inkscape:output_extension="org.inkscape.output.svg.inkscape">
  <defs
     id="defs4">
    <linearGradient
       inkscape:collect="always"
       id="linearGradient6597">
      <stop
         style="stop-color:#555753;stop-opacity:1;"
         offset="0"
         id="stop6599" />
      <stop
         style="stop-color:#555753;stop-opacity:0;"
         offset="1"
         id="stop6601" />
    </linearGradient>
    <linearGradient
       inkscape:collect="always"
       id="linearGradient6681">
      <stop
         style="stop-color:#eeeeec;stop-opacity:1;"
         offset="0"
         id="stop6683" />
      <stop
         style="stop-color:#eeeeec;stop-opacity:0;"
         offset="1"
         id="stop6685" />
    </linearGradient>
    <linearGradient
       inkscape:collect="always"
       id="linearGradient6561">
      <stop
         style="stop-color:#eeeeec;stop-opacity:1;"
         offset="0"
         id="stop6563" />
      <stop
         style="stop-color:#eeeeec;stop-opacity:0;"
         offset="1"
         id="stop6565" />
    </linearGradient>
    <linearGradient
       inkscape:collect="always"
       id="linearGradient6382">
      <stop
         style="stop-color:#2d3136;stop-opacity:1;"
         offset="0"
         id="stop6384" />
      <stop
         style="stop-color:#2d3136;stop-opacity:0;"
         offset="1"
         id="stop6386" />
    </linearGradient>
    <linearGradient
       id="linearGradient6346">
      <stop
         style="stop-color:#ce5c00;stop-opacity:1;"
         offset="0"
         id="stop6348" />
      <stop
         id="stop6364"
         offset="0.75154936"
         style="stop-color:#ce5c00;stop-opacity:1;" />
      <stop
         id="stop6354"
         offset="0.8653692"
         style="stop-color:#cc0000;stop-opacity:1;" />
      <stop
         style="stop-color:#2e3436;stop-opacity:1;"
         offset="1"
         id="stop6350" />
    </linearGradient>
    <linearGradient
       id="linearGradient6326">
      <stop
         style="stop-color:#f57900;stop-opacity:1;"
         offset="0"
         id="stop6328" />
      <stop
         style="stop-color:#2e3436;stop-opacity:1;"
         offset="1"
         id="stop6330" />
    </linearGradient>
    <linearGradient
       id="linearGradient6318">
      <stop
         style="stop-color:#f4d4a2;stop-opacity:1;"
         offset="0"
         id="stop6320" />
      <stop
         style="stop-color:#8f5902;stop-opacity:1;"
         offset="1"
         id="stop6322" />
    </linearGradient>
    <inkscape:perspective
       sodipodi:type="inkscape:persp3d"
       inkscape:vp_x="0 : 526.18109 : 1"
       inkscape:vp_y="0 : 1000 : 0"
       inkscape:vp_z="744.09448 : 526.18109 : 1"
       inkscape:persp3d-origin="372.04724 : 350.78739 : 1"
       id="perspective10" />
    <linearGradient
       inkscape:collect="always"
       xlink:href="#linearGradient6382"
       id="linearGradient6627"
       gradientUnits="userSpaceOnUse"
       x1="7.8292212"
       y1="7.8975673"
       x2="7.0989451"
       y2="5.1933417" />
    <linearGradient
       inkscape:collect="always"
       xlink:href="#linearGradient6382"
       id="linearGradient6629"
       gradientUnits="userSpaceOnUse"
       x1="8.2091942"
       y1="7.8975673"
       x2="7.40589"
       y2="5.1933417" />
    <linearGradient
       inkscape:collect="always"
       xlink:href="#linearGradient6382"
       id="linearGradient6631"
       gradientUnits="userSpaceOnUse"
       x1="8.5941105"
       y1="7.8975673"
       x2="7.40589"
       y2="4.5510449" />
    <linearGradient
       inkscape:collect="always"
       xlink:href="#linearGradient6561"
       id="linearGradient6636"
       gradientUnits="userSpaceOnUse"
       x1="11.434017"
       y1="14.100346"
       x2="21.477226"
       y2="47.780243" />
    <radialGradient
       inkscape:collect="always"
       xlink:href="#linearGradient6346"
       id="radialGradient6678"
       gradientUnits="userSpaceOnUse"
       gradientTransform="matrix(-0.8343302,0.8342291,-0.7008702,-0.7007853,49.550362,42.614185)"
       cx="14.76215"
       cy="31.462133"
       fx="14.76215"
       fy="31.462133"
       r="10.976831" />
    <linearGradient
       inkscape:collect="always"
       xlink:href="#linearGradient6318"
       id="linearGradient5747"
       gradientUnits="userSpaceOnUse"
       gradientTransform="translate(-0.2458387,-1.1062745)"
       x1="29.197683"
       y1="14.162621"
       x2="36.300751"
       y2="21.967999" />
    <linearGradient
       inkscape:collect="always"
       xlink:href="#linearGradient6681"
       id="linearGradient5749"
       gradientUnits="userSpaceOnUse"
       x1="26.081305"
       y1="14.873239"
       x2="33.258003"
       y2="22.125481" />
    <linearGradient
       inkscape:collect="always"
       xlink:href="#linearGradient6597"
       id="linearGradient6603"
       x1="8.71457"
       y1="7.788218"
       x2="7.3256707"
       y2="4.173203"
       gradientUnits="userSpaceOnUse" />
    <linearGradient
       inkscape:collect="always"
       xlink:href="#linearGradient6597"
       id="linearGradient6607"
       gradientUnits="userSpaceOnUse"
       x1="8.71457"
       y1="7.788218"
       x2="7.3256707"
       y2="4.173203" />
    <linearGradient
       inkscape:collect="always"
       xlink:href="#linearGradient6597"
       id="linearGradient6611"
       gradientUnits="userSpaceOnUse"
       x1="8.71457"
       y1="7.788218"
       x2="7.3256707"
       y2="4.173203" />
    <linearGradient
       inkscape:collect="always"
       xlink:href="#linearGradient6597"
       id="linearGradient6615"
       gradientUnits="userSpaceOnUse"
       x1="8.71457"
       y1="7.788218"
       x2="7.3256707"
       y2="4.173203" />
    <linearGradient
       inkscape:collect="always"
       xlink:href="#linearGradient6597"
       id="linearGradient6619"
       gradientUnits="userSpaceOnUse"
       x1="8.71457"
       y1="7.788218"
       x2="7.3256707"
       y2="4.173203" />
    <linearGradient
       inkscape:collect="always"
       xlink:href="#linearGradient6597"
       id="linearGradient6624"
       gradientUnits="userSpaceOnUse"
       x1="8.71457"
       y1="7.788218"
       x2="7.3256707"
       y2="4.173203" />
    <linearGradient
       inkscape:collect="always"
       xlink:href="#linearGradient6597"
       id="linearGradient6628"
       gradientUnits="userSpaceOnUse"
       x1="8.71457"
       y1="7.788218"
       x2="7.3256707"
       y2="4.173203" />
  </defs>
  <sodipodi:namedview
     id="base"
     pagecolor="#ffffff"
     bordercolor="#666666"
     borderopacity="1.0"
     gridtolerance="10000"
     guidetolerance="10"
     objecttolerance="10"
     inkscape:pageopacity="0.0"
     inkscape:pageshadow="2"
     inkscape:zoom="1"
     inkscape:cx="24"
     inkscape:cy="24"
     inkscape:document-units="px"
     inkscape:current-layer="layer1"
     showgrid="false"
     inkscape:showpageshadow="false"
     inkscape:window-width="1022"
     inkscape:window-height="967"
     inkscape:window-x="1280"
     inkscape:window-y="26" />
  <metadata
     id="metadata7">
    <rdf:RDF>
      <cc:Work
         rdf:about="">
        <dc:format>image/svg+xml</dc:format>
        <dc:type
           rdf:resource="http://purl.org/dc/dcmitype/StillImage" />
      </cc:Work>
    </rdf:RDF>
  </metadata>
  <g
     inkscape:label="Layer 1"
     inkscape:groupmode="layer"
     id="layer1">
    <path
       style="fill:#2d3136;fill-opacity:1;fill-rule:evenodd;stroke:#2d3136;stroke-width:1px;stroke-linecap:butt;stroke-linejoin:miter;stroke-opacity:1"
       d="M 22.27797,28.033655 L 20.056269,23.165798 C 18.374713,21.484445 16.743491,19.014505 19.038489,15.974768 C 20.07318,14.604314 17.888977,11.523564 16.222652,14.580324 C 14.556328,17.637084 13.099848,23.04041 9.1157785,27.061592 C 7.4373254,28.755682 4.3898749,29.255725 2.933659,30.725507 C -0.16172516,33.849726 -0.011610259,37.28332 1.7524392,39.28836 L 9.0297425,46.509883 C 10.492379,47.961303 15.081373,47.89671 17.534481,45.783796 C 20.045191,43.621269 20.327697,41.134142 21.296843,38.831148 C 23.03914,34.690895 25.821216,33.154346 28.416118,32.527376 C 31.01102,31.900403 31.535124,27.372237 29.591952,28.154866 C 27.681637,28.924261 25.258142,31.367813 22.27797,28.033655 z"
       id="path6250"
       sodipodi:nodetypes="ccszsscssszsc" />
    <path
       style="opacity:0.65;fill:url(#radialGradient6678);fill-opacity:1;fill-rule:evenodd;stroke:none;stroke-width:1px;stroke-linecap:butt;stroke-linejoin:miter;stroke-opacity:1"
       d="M 19.298911,29.798422 L 17.656538,26.195838 C 15.391392,24.978092 18.371799,16.805389 15.333578,20.225143 C 14.101763,22.487379 12.774404,25.511371 9.8292152,28.48735 C 8.5884342,29.741106 4.930368,30.877593 3.8538741,31.965343 C 1.5656397,34.277503 2.1189086,38.048975 3.4229661,39.532857 L 8.8026445,44.877333 C 9.8838825,45.951497 14.809277,45.775953 16.622714,44.212237 C 18.478735,42.611802 17.857189,39.493779 18.57362,37.789388 C 23.308657,29.582934 32.015736,34.018046 19.298911,29.798422 z"
       id="path6344"
       sodipodi:nodetypes="cccsscsscc" />
    <path
       style="opacity:0.95;fill:#eeeeec;fill-opacity:1;fill-rule:evenodd;stroke:none;stroke-width:1;stroke-linecap:round;stroke-linejoin:round;stroke-miterlimit:4;stroke-dasharray:none;stroke-dashoffset:0;stroke-opacity:1"
       d="M 8.8546625,31.785502 C 8.1398345,29.118052 12.735768,27.221023 14.12674,26.558289 C 15.404787,25.949359 16.147216,22.872742 16.666701,21.710258 C 17.000624,20.963019 18.186979,21.134038 18.688504,22.0026 L 19.140092,23.835366 L 22.329344,28.924602 C 22.344712,28.924602 22.533824,29.064971 22.749597,29.236534 C 23.297071,29.671838 23.884807,29.979237 24.481055,30.142122 C 24.902071,30.257137 25.105877,30.275974 25.662758,30.251344 C 26.544151,30.212359 27.173292,30.000074 28.659552,29.240163 C 29.278543,28.923677 29.871677,28.649108 29.977626,28.630007 C 30.713635,28.497315 30.344887,30.044296 29.781307,30.93286 C 29.527042,31.333747 29.417101,31.50276 28.509969,31.769873 C 24.612542,32.917507 22.289322,35.293951 20.893338,38.409007 C 20.751658,38.725155 20.447712,39.515522 20.217901,40.165379 C 19.491545,42.219354 19.263896,42.731836 18.674694,43.639456 C 18.054855,44.696286 16.600675,44.484555 16.814762,43.291255 C 17.667974,38.535538 9.4981615,34.898963 8.8546625,31.785502 z"
       id="path6316"
       sodipodi:nodetypes="csscccssssssssscsc" />
    <path
       style="opacity:0.9;fill:#555753;fill-opacity:1;fill-rule:evenodd;stroke:none;stroke-width:1;stroke-linecap:round;stroke-linejoin:round;stroke-miterlimit:4;stroke-dasharray:none;stroke-dashoffset:0;stroke-opacity:1"
       d="M 17.096473,26.872825 C 16.837234,26.614732 16.424598,26.614237 16.190528,26.849348 L 14.796227,28.283539 C 14.562156,28.518649 14.579836,28.909396 14.839074,29.167487 L 17.994213,32.287984 C 18.253453,32.546077 18.66602,32.590764 18.900091,32.355654 L 20.294392,30.921465 C 20.52126,30.693587 20.510454,30.317446 20.273607,30.059645 L 19.344118,30.98631 L 18.991103,30.632218 L 18.770468,30.410911 L 18.439518,30.078951 L 18.19682,29.835513 L 17.865867,29.503552 L 17.645234,29.282245 L 17.314283,28.950285 L 17.071585,28.706847 L 16.740634,28.374887 L 16.52,28.153579 L 16.166985,27.799488 L 17.096473,26.872825 z"
       id="path6551"
       sodipodi:nodetypes="ccccccccccccccccccccc" />
    <path
       style="opacity:1;fill:#555753;fill-opacity:1;fill-rule:evenodd;stroke:none;stroke-width:1;stroke-linecap:round;stroke-linejoin:round;stroke-miterlimit:4;stroke-dasharray:none;stroke-dashoffset:0;stroke-opacity:1"
       d="M 11.678591,32.267229 C 11.414946,32.013639 11.002362,32.020252 10.772376,32.259358 L 9.4029806,33.717349 C 9.1729936,33.956456 9.1974006,34.34684 9.4610456,34.600428 L 12.669458,37.666125 C 12.933105,37.919715 13.34638,37.95729 13.576368,37.718183 L 14.945762,36.260193 C 15.168671,36.028442 15.151389,35.652543 14.910138,35.398861 L 13.996746,36.341395 L 13.637685,35.993435 L 14.551076,35.0509 L 14.326664,34.833427 L 13.413271,35.775961 L 13.076653,35.449749 L 13.990044,34.507215 L 13.743192,34.267994 L 12.829799,35.210528 L 12.493177,34.884316 L 13.406571,33.941782 L 13.182157,33.724308 L 12.268766,34.666842 L 11.932146,34.34063 L 12.845539,33.398096 L 12.598684,33.158874 L 11.685292,34.101408 L 11.348673,33.775196 L 12.262066,32.832662 L 12.037652,32.615188 L 11.124261,33.557721 L 10.7652,33.209763 L 11.678591,32.267229 z"
       id="rect6374" />
    <path
       sodipodi:type="arc"
       style="opacity:0.85;fill:#eeeeec;fill-opacity:1;fill-rule:evenodd;stroke:url(#linearGradient6627);stroke-width:0.63376021;stroke-linecap:round;stroke-linejoin:round;stroke-miterlimit:4;stroke-dasharray:none;stroke-dashoffset:0;stroke-opacity:1"
       id="path6376"
       sodipodi:cx="7.40589"
       sodipodi:cy="6.5454545"
       sodipodi:rx="0.8911652"
       sodipodi:ry="1.0140845"
       d="M 8.2970552,6.5454545 A 0.8911652,1.0140845 0 1 1 6.5147248,6.5454545 A 0.8911652,1.0140845 0 1 1 8.2970552,6.5454545 z"
       transform="matrix(0.8415948,0,0,0.7395833,11.725949,37.799616)" />
    <path
       sodipodi:type="arc"
       style="opacity:0.85;fill:#eeeeec;fill-opacity:1;fill-rule:evenodd;stroke:url(#linearGradient6629);stroke-width:0.63376021;stroke-linecap:round;stroke-linejoin:round;stroke-miterlimit:4;stroke-dasharray:none;stroke-dashoffset:0;stroke-opacity:1"
       id="path6378"
       sodipodi:cx="7.40589"
       sodipodi:cy="6.5454545"
       sodipodi:rx="0.8911652"
       sodipodi:ry="1.0140845"
       d="M 8.2970552,6.5454545 A 0.8911652,1.0140845 0 1 1 6.5147248,6.5454545 A 0.8911652,1.0140845 0 1 1 8.2970552,6.5454545 z"
       transform="matrix(0.8415948,0,0,0.7395833,11.467626,34.862037)" />
    <path
       sodipodi:type="arc"
       style="opacity:0.85;fill:#eeeeec;fill-opacity:1;fill-rule:evenodd;stroke:url(#linearGradient6631);stroke-width:0.63376021;stroke-linecap:round;stroke-linejoin:round;stroke-miterlimit:4;stroke-dasharray:none;stroke-dashoffset:0;stroke-opacity:1"
       id="path6380"
       sodipodi:cx="7.40589"
       sodipodi:cy="6.5454545"
       sodipodi:rx="0.8911652"
       sodipodi:ry="1.0140845"
       d="M 8.2970552,6.5454545 A 0.8911652,1.0140845 0 1 1 6.5147248,6.5454545 A 0.8911652,1.0140845 0 1 1 8.2970552,6.5454545 z"
       transform="matrix(0.8415948,0,0,0.7395833,10.115513,32.096351)" />
    <path
       style="fill:#555753;fill-rule:evenodd;stroke:#555753;stroke-width:1px;stroke-linecap:round;stroke-linejoin:round;stroke-opacity:1"
       d="M 12.941623,30.446132 L 16.587865,34.115991"
       id="path6555"
       sodipodi:nodetypes="cc" />
    <path
       style="opacity:0.4;fill:none;fill-rule:evenodd;stroke:url(#linearGradient6636);stroke-width:1px;stroke-linecap:round;stroke-linejoin:miter;stroke-opacity:1"
       d="M 19.105037,23.555384 C 18.201432,22.65178 17.150835,20.513625 17.095466,20.256052 C 16.827482,19.009407 16.787198,17.757547 17.68824,16.241224 C 18.254309,15.298029 18.609625,14.995094 18.060567,14.424283 C 17.732386,14.0831 17.636083,14.240107 16.83654,15.509565 C 14.976924,19.479529 13.729872,23.496707 10.328952,27.248362 C 8.3587239,29.516722 5.3152914,30.081728 3.9697407,31.160371 C 1.6687432,33.215639 0.57817988,36.071356 2.4053428,38.495801 L 9.3265047,45.395646 C 10.042271,46.250821 11.112165,46.496167 12.321949,46.505961 C 14.280406,46.521816 16.484671,45.701815 17.43918,44.512164"
       id="path6559"
       sodipodi:nodetypes="cscscccccsc" />
    <g
       id="g5713"
       transform="matrix(0.9997107,-2.4053189e-2,2.4053189e-2,0.9997107,-0.3776738,0.758374)">
      <g
         id="g5683">
        <path
           style="fill:url(#linearGradient5747);fill-opacity:1;fill-rule:evenodd;stroke:#361f00;stroke-width:1px;stroke-linecap:butt;stroke-linejoin:round;stroke-opacity:1"
           d="M 42.517874,3.2768183 L 35.211931,7.1590073 L 34.928356,8.8014504 L 16.053637,27.120468 L 19.459904,30.5029 L 37.458688,11.559225 C 38.711007,10.295086 40.428189,9.6635198 41.987707,10.554166 L 44.904213,4.9756797 C 47.110568,5.3708838 47.986488,0.085173853 42.517874,3.2768183 z"
           id="path5478"
           sodipodi:nodetypes="ccccccccc" />
        <path
           style="opacity:0.5;fill:none;fill-rule:evenodd;stroke:url(#linearGradient5749);stroke-width:1px;stroke-linecap:butt;stroke-linejoin:miter;stroke-opacity:1"
           d="M 44.496799,3.3956466 L 36.138284,7.7900128 L 35.846351,9.2804097 L 17.485275,27.134443 L 19.790013,29.423816"
           id="path6621"
           sodipodi:nodetypes="ccccc" />
        <g
           id="g6304"
           transform="translate(-12.169014,-3.0729839)">
          <path
             d="M 30.129069,30.311067 C 30.175115,30.10526 30.274312,29.925673 30.388944,29.751474 C 30.646668,29.45225 30.947197,29.192595 31.265122,28.959411 C 31.661567,28.725316 32.023526,28.444527 32.383986,28.159969 C 32.646094,27.963981 32.911355,27.773335 33.184221,27.592661 C 33.398079,27.443077 33.587116,27.264074 33.774347,27.083515 C 33.977767,26.898785 34.166596,26.699912 34.333436,26.481687 C 34.491987,26.277106 34.680143,26.100189 34.842499,25.897917 C 34.993655,25.69438 35.163362,25.506745 35.335799,25.321355 C 35.514842,25.140199 35.721084,24.989054 35.929511,24.843878 C 36.193258,24.656121 36.448185,24.456493 36.703124,24.257078 C 36.958266,24.08178 37.204695,23.893081 37.461533,23.720449 C 37.744043,23.519797 38.005795,23.292231 38.27907,23.079586 C 38.573399,22.838604 38.884076,22.61911 39.185564,22.387593 C 39.471292,22.168562 39.7403,21.929087 40.023725,21.707201 C 40.33381,21.464919 40.622551,21.195522 40.914526,20.931713 C 41.173741,20.700774 41.385914,20.426127 41.600332,20.154926 C 41.88173,19.799639 42.135956,19.424344 42.397053,19.054125 C 42.66295,18.684776 42.962658,18.341448 43.24473,17.984555 C 43.452466,17.698907 43.668362,17.421316 43.896197,17.151627 C 44.092242,16.947539 44.306443,16.762149 44.504188,16.559826 C 44.765379,16.251355 45.151943,16.091762 45.517033,15.935711 C 45.697675,15.86834 45.88789,15.830874 46.071286,15.772624 C 46.080184,15.769798 46.381537,15.658536 46.388296,15.656043 C 46.287926,15.726175 46.804075,15.443383 46.701203,15.498611 C 46.610255,15.547439 46.523674,15.605282 46.428705,15.645737 C 46.385597,15.6641 46.506135,15.592926 46.54414,15.565517 C 46.643292,15.49401 46.660524,15.478 46.75366,15.402631 C 46.935385,15.257648 47.078251,15.072522 47.215955,14.886993 C 47.344928,14.710899 47.462614,14.526985 47.587506,14.348051 C 47.732938,14.163366 47.850065,13.961323 47.96924,13.759572 C 48.075166,13.606305 48.168278,13.444773 48.272355,13.290304 C 48.358494,13.150062 48.460152,13.020904 48.546779,12.881069 C 48.671745,12.705935 48.769652,12.51411 48.891766,12.337294 C 49.036505,12.144707 49.167521,11.941611 49.290089,11.734281 C 49.339828,11.660033 49.384735,11.582865 49.418333,11.500854 C 49.424683,11.485356 49.418432,11.534385 49.419753,11.551082 C 50.195434,11.102239 49.86878,11.257016 49.73184,11.411907 C 49.658215,11.495182 49.589822,11.583726 49.522594,11.672153 C 49.425711,11.842404 49.339751,12.022035 49.27355,12.206886 C 49.236221,12.328829 49.21299,12.473342 49.306789,12.573925 C 49.449791,12.639962 49.624211,12.644123 49.777336,12.619909 C 49.872706,12.603597 49.961724,12.580101 50.049402,12.539635 C 50.075777,12.527462 50.153244,12.487636 50.12803,12.50206 C 49.693648,12.750559 49.64681,12.79212 49.811605,12.663396 C 49.908531,12.565419 49.993405,12.457102 50.074443,12.345892 C 50.181374,12.232748 50.263478,12.101056 50.356592,11.977271 C 50.450361,11.826132 50.41886,11.867152 50.820129,11.800533 C 50.854928,11.794755 50.782845,11.860436 50.764938,11.890829 C 50.68825,12.020994 50.620748,12.153759 50.557137,12.2907 C 50.425714,12.548219 50.304091,12.808273 50.141738,13.048087 C 49.926182,13.351334 49.683507,13.633083 49.467019,13.935851 C 49.235705,14.245097 49.007786,14.556535 48.762941,14.855294 C 48.559596,15.144238 48.317814,15.398405 48.05954,15.637977 C 47.769491,15.901806 47.451816,16.132727 47.140968,16.370915 C 46.89435,16.565638 46.633485,16.740661 46.37783,16.922979 C 46.135401,17.096821 45.902707,17.282555 45.669334,17.467959 C 45.488111,17.600766 45.295941,17.718149 45.115366,17.851732 C 44.941856,17.953708 44.5359,18.371671 44.457767,18.175463 C 44.439604,18.129853 44.460852,18.10441 44.478397,18.065233 C 44.64937,17.809663 44.879848,17.608896 45.108088,17.406833 C 45.39963,17.138052 45.670547,16.847795 45.930615,16.548738 C 45.994267,16.464931 46.07029,16.391271 46.109654,16.293281 C 46.111431,16.288858 46.108403,16.302673 46.100743,16.339476 C 46.082879,16.346621 46.065016,16.353766 46.047152,16.360911 C 46.022296,16.372869 45.998086,16.386274 45.972584,16.396786 C 45.791245,16.471529 45.959034,16.387978 45.764386,16.480951 C 45.635658,16.542438 45.384068,16.688435 45.949506,16.371627 C 45.625748,16.584595 45.348141,16.852486 45.084191,17.133635 C 44.84781,17.405583 44.619735,17.685613 44.402581,17.97324 C 44.139947,18.296808 43.908967,18.643823 43.677346,18.98974 C 43.474893,19.292819 43.293264,19.608796 43.10635,19.921498 C 42.95009,20.168358 42.798883,20.418258 42.65278,20.671257 C 42.489706,20.940703 42.285087,21.182369 42.084979,21.42467 C 41.938661,21.59726 41.800006,21.77874 41.631736,21.931232 C 41.595374,21.964184 41.397069,22.124734 41.361054,22.154049 C 41.058798,22.404592 40.733501,22.624355 40.412487,22.849514 C 40.202949,22.989112 40.022079,23.165708 39.820717,23.315786 C 39.724295,23.387651 39.624117,23.454339 39.526417,23.524455 C 39.258586,23.73993 38.964666,23.917009 38.680088,24.108182 C 38.307581,24.344038 37.967509,24.624085 37.630678,24.907192 C 37.164915,25.295427 36.715481,25.702819 36.264279,26.107821 C 35.888105,26.447846 35.542854,26.821845 35.233659,27.223582 C 35.01569,27.520805 34.76757,27.793124 34.537032,28.08017 C 34.501909,28.123847 34.467935,28.168475 34.431662,28.211202 C 34.306325,28.358838 34.324274,28.322674 34.200268,28.472959 C 34.08103,28.617467 33.970573,28.770177 33.855741,28.918198 C 33.623017,29.196493 33.437363,29.508038 33.266004,29.826488 C 33.1431,30.040639 33.062115,30.275188 32.953928,30.496368 C 32.922882,30.559838 32.826457,30.731198 32.789916,30.79681 C 32.665119,31.001821 32.508281,31.184334 32.348286,31.362226 C 32.130134,31.612826 31.840703,31.829878 31.51192,31.906926 C 31.323711,31.893171 31.166655,31.762957 31.022481,31.650982 C 30.820339,31.492516 30.798419,31.346228 30.767696,31.103875 C 30.750659,30.880689 30.734899,30.655171 30.768692,30.433083 C 30.814493,30.261274 30.899188,30.101797 30.999076,29.955598 C 31.096562,29.81773 31.201296,29.689811 31.32384,29.573554 C 31.657609,29.29016 32.078092,29.142444 32.456183,28.932414 C 32.369001,28.982269 32.286671,29.041781 32.194636,29.081978 C 32.140974,29.105415 32.292455,29.017511 32.339907,28.983198 C 32.50059,28.867005 32.651918,28.738728 32.813414,28.623368 C 32.987756,28.497268 33.145679,28.349106 33.283773,28.184303 C 33.378049,28.072156 33.453369,27.944915 33.557271,27.84085 C 33.638009,27.759984 33.704873,27.711011 33.795471,27.638337 C 34.306704,27.280661 34.881547,27.029433 35.422898,26.722663 C 35.815057,26.506507 36.205745,26.287486 36.601065,26.077078 C 36.602495,26.076307 36.909645,25.910778 36.915599,25.907479 C 36.962563,25.881458 37.103086,25.802786 37.055525,25.827698 C 36.962963,25.876183 36.877097,25.938247 36.780553,25.978217 C 36.733377,25.997748 36.863737,25.918981 36.90561,25.889764 C 36.948123,25.860102 36.991007,25.830976 37.033706,25.801582 C 37.262987,25.647417 37.484161,25.482389 37.704494,25.315919 C 37.889851,25.176841 38.060918,25.016307 38.207601,24.836817 C 38.325732,24.696866 38.419137,24.540263 38.516064,24.38572 C 38.617055,24.237416 38.734801,24.098028 38.858215,23.967503 C 38.981942,23.852568 39.072948,23.722508 39.125886,23.562504 C 39.133308,23.539385 39.140731,23.516266 39.148154,23.493147 L 39.618824,23.271856 C 39.611078,23.294901 39.603331,23.317946 39.595585,23.340991 C 39.544886,23.509243 39.461253,23.652085 39.330007,23.771318 C 39.244851,23.856318 39.175208,23.951761 39.095322,24.04126 C 39.07592,24.062997 39.052616,24.081198 39.034381,24.103923 C 39.015697,24.127208 39.001498,24.153762 38.985056,24.178681 C 38.888133,24.336742 38.793814,24.496743 38.672419,24.637866 C 38.529881,24.824651 38.350905,24.984452 38.168518,25.131455 C 37.942153,25.29907 37.716407,25.46721 37.483037,25.625151 C 37.397073,25.68359 37.315924,25.749219 37.227591,25.80401 C 36.903673,26.004931 36.57492,26.195707 36.236264,26.37024 C 35.849525,26.573195 35.467944,26.786022 35.084891,26.995771 C 34.839413,27.133078 34.871882,27.117394 34.619704,27.248339 C 34.546297,27.286456 34.481384,27.364032 34.398718,27.361207 C 34.329245,27.358833 34.6385,27.270131 34.573039,27.246744 C 34.561342,27.242565 34.260225,27.445957 34.239122,27.460025 C 34.134492,27.545382 34.023805,27.628715 33.93652,27.732944 C 33.908665,27.766205 33.836831,27.873461 33.810356,27.909337 C 33.791249,27.93523 33.770797,27.960104 33.751017,27.985487 C 33.610842,28.158252 33.451122,28.313234 33.270288,28.443517 C 32.876498,28.711445 32.533063,29.045127 32.084569,29.231863 C 31.820935,29.373244 32.048485,29.254748 31.790456,29.37968 C 31.746739,29.400847 31.619845,29.472059 31.660261,29.445119 C 32.266143,29.04126 31.933558,29.286164 31.79984,29.379015 C 31.668449,29.493618 31.574674,29.612081 31.470582,29.750135 C 31.370963,29.893723 31.28228,30.04402 31.225952,30.210549 C 31.178233,30.427963 31.19504,30.65036 31.210952,30.870995 C 31.236136,31.072962 31.280489,31.250984 31.449144,31.381637 C 31.585718,31.484118 31.744276,31.606938 31.92383,31.589398 C 32.132501,31.515779 32.007171,31.555029 31.609464,31.792105 C 31.587279,31.80533 31.655136,31.767777 31.676561,31.753354 C 31.755434,31.700256 31.820641,31.630538 31.881848,31.558539 C 32.044685,31.374684 32.217116,31.197616 32.352633,30.991512 C 32.400675,30.911032 32.483807,30.774755 32.525478,30.692361 C 32.637732,30.470404 32.715425,30.231438 32.843098,30.016993 C 33.006152,29.692748 33.189241,29.377502 33.427738,29.101851 C 33.541259,28.95507 33.647899,28.802023 33.764005,28.657354 C 33.960062,28.413066 33.794381,28.634211 33.992373,28.399232 C 34.027616,28.357404 34.059317,28.312715 34.092789,28.269457 C 34.333899,27.978493 34.592542,27.703246 34.819968,27.400929 C 35.140461,26.995284 35.487974,26.60938 35.875376,26.266395 C 36.326026,25.864159 36.77582,25.460896 37.234337,25.067664 C 37.555053,24.790717 37.874461,24.510143 38.233965,24.283341 C 38.517356,24.08614 38.821834,23.919394 39.088553,23.697708 C 39.137328,23.662156 39.186103,23.626604 39.234879,23.591053 C 39.284418,23.557595 39.335053,23.525706 39.383496,23.490681 C 39.588988,23.342106 39.76998,23.162198 39.9803,23.019827 C 40.298625,22.795984 40.623939,22.581257 40.922465,22.330625 C 41.011454,22.257393 41.104368,22.188867 41.191139,22.113021 C 41.361015,21.964534 41.501133,21.786901 41.642716,21.612457 C 41.843153,21.376249 42.041622,21.135361 42.204067,20.871 C 42.351773,20.615903 42.507613,20.365849 42.665039,20.116724 C 42.861541,19.800389 43.054058,19.481509 43.261086,19.171848 C 43.488494,18.829827 43.714412,18.485942 43.966177,18.161134 C 44.186123,17.869904 44.418215,17.587344 44.657629,17.312004 C 44.672248,17.296304 44.914164,17.03613 44.929879,17.020659 C 45.104712,16.84853 45.302878,16.699829 45.494685,16.547754 C 45.832518,16.349769 46.161111,16.146267 46.528565,16.009565 C 46.54445,16.01525 46.563337,16.015726 46.576219,16.02662 C 46.654896,16.093153 46.407483,16.311846 46.377091,16.360889 C 46.103294,16.658947 45.822393,16.950637 45.532739,17.23333 C 45.327411,17.424859 45.110223,17.60544 44.961817,17.847602 C 44.954835,17.858607 44.943217,17.890709 44.922174,17.892346 C 44.91931,17.892569 44.919119,17.884327 44.916626,17.885752 C 44.776155,17.966065 44.639462,18.052844 44.499485,18.134014 C 44.450164,18.162614 44.709427,17.996498 44.642383,18.040019 C 44.826488,17.898173 45.027938,17.780022 45.219081,17.648018 C 45.720054,17.264023 44.954906,17.855179 45.452369,17.454991 C 45.605304,17.33196 45.772421,17.225571 45.924877,17.101759 C 46.186257,16.916759 46.452219,16.738574 46.706922,16.544195 C 47.015534,16.304833 47.337706,16.081117 47.625255,15.81571 C 47.883581,15.580731 48.124526,15.327737 48.32591,15.041299 C 48.575649,14.739013 48.817844,14.431222 49.05149,14.116262 C 49.258682,13.820902 49.481598,13.537883 49.690691,13.244311 C 49.860496,13.007784 49.983044,12.748525 50.117713,12.491213 C 50.177753,12.359668 50.240514,12.229638 50.302103,12.098852 C 50.315766,12.069837 50.314438,12.028258 50.341523,12.011084 C 50.50689,11.906226 50.687329,11.827023 50.863987,11.742566 C 50.875708,11.736963 50.847727,11.762833 50.839597,11.772966 C 50.730683,11.885012 50.66677,12.031339 50.552054,12.139116 C 50.469508,12.253894 50.385764,12.36354 50.292915,12.470165 C 50.022656,12.69259 49.716884,12.871814 49.371049,12.922776 C 49.200533,12.938186 49.001422,12.942266 48.852801,12.846495 C 48.758994,12.723713 48.766946,12.569098 48.806094,12.42497 C 48.875849,12.234046 48.973732,12.054727 49.060121,11.871259 C 49.125275,11.784478 49.196862,11.702097 49.259783,11.613717 C 49.27631,11.590504 49.288288,11.564066 49.306356,11.54203 C 49.439938,11.379109 49.87876,11.506194 49.846248,11.213388 C 49.934263,11.259912 49.892622,11.304747 49.850269,11.375207 C 49.767883,11.512269 49.847839,11.394018 49.751664,11.5297 C 49.624952,11.738005 49.492352,11.943778 49.346299,12.139026 C 49.229148,12.312646 49.136972,12.500769 49.017417,12.67292 C 48.931825,12.815057 48.833143,12.946461 48.74251,13.085486 C 48.633928,13.23921 48.544189,13.404641 48.431032,13.555207 C 48.30592,13.755578 48.193321,13.963536 48.044858,14.148433 C 47.924769,14.330118 47.805121,14.512354 47.676531,14.688145 C 47.537271,14.877137 47.395877,15.069788 47.212151,15.218251 C 46.848384,15.51454 46.444257,15.762309 46.01349,15.949086 C 45.721176,16.056393 45.422683,16.141311 45.12866,16.242878 C 45.089124,16.260203 45.049484,16.277293 45.010053,16.294854 C 44.972715,16.311482 44.864609,16.368505 44.898355,16.345443 C 45.004988,16.27257 45.119626,16.212157 45.229766,16.144701 C 45.26221,16.12483 45.162238,16.180327 45.131452,16.202681 C 45.065219,16.250773 45.016031,16.310147 44.960898,16.369756 C 44.761948,16.577609 44.542021,16.763895 44.336298,16.964943 C 44.19256,17.135698 44.266318,17.05118 44.114926,17.218412 C 43.956299,17.405985 43.828361,17.617371 43.667822,17.80357 C 43.380713,18.164738 43.069606,18.506563 42.79774,18.879779 C 42.546961,19.244574 42.301979,19.61363 42.036544,19.968018 C 41.822516,20.244078 41.607668,20.522173 41.346194,20.755675 C 41.052209,21.016946 40.765656,21.288117 40.458542,21.533392 C 40.174414,21.752995 39.90831,21.994995 39.622779,22.213031 C 39.320726,22.447102 39.004616,22.662896 38.71035,22.907283 C 38.44115,23.115037 38.18821,23.343185 37.913516,23.544062 C 37.651227,23.710903 37.409736,23.910236 37.148188,24.078942 C 36.897191,24.276727 36.643594,24.471225 36.388279,24.663453 C 36.180603,24.806279 35.976263,24.955831 35.793534,25.130114 C 35.618179,25.314473 35.449015,25.504556 35.292688,25.705491 C 35.209573,25.81044 35.130205,25.92023 35.036423,26.016168 C 34.948001,26.106624 34.945828,26.090677 34.862731,26.187528 C 34.835671,26.219066 34.812311,26.253599 34.7871,26.286635 C 34.619291,26.506934 34.433597,26.71156 34.227242,26.896931 C 34.162343,26.959278 34.102574,27.026832 34.037483,27.088978 C 33.914087,27.206792 33.773083,27.30733 33.640753,27.414415 C 33.358173,27.59825 33.082187,27.79054 32.810078,27.989598 C 32.443464,28.271917 32.083841,28.563424 31.68112,28.794623 C 31.375654,29.016031 31.093724,29.265149 30.846424,29.550824 C 30.740743,29.713544 30.630016,29.879023 30.607786,30.077025 L 30.129069,30.311067 z"
             id="path6292"
             style="opacity:0.45;fill:#8f5902;fill-opacity:1;fill-rule:evenodd;stroke:none;stroke-width:1;stroke-linecap:round;stroke-linejoin:round;stroke-miterlimit:4;stroke-dasharray:none;stroke-dashoffset:0;stroke-opacity:1" />
          <path
             d="M 48.935727,11.135651 C 48.980404,10.953361 49.076199,10.792842 49.174801,10.635535 C 49.301209,10.456314 49.447249,10.290777 49.61175,10.145844 C 49.953622,9.8665634 50.338423,9.6457819 50.7472,9.4782689 C 51.058479,9.3478302 51.374075,9.2285017 51.682663,9.091278 C 51.97217,8.951623 52.264712,8.8205322 52.547979,8.6682432 C 52.790569,8.5511712 53.034134,8.4360067 53.267419,8.3013575 C 53.645691,8.0874662 52.896511,8.5107238 53.05454,8.425035 C 53.235335,8.3270014 53.413304,8.2238423 53.592389,8.1227196 C 53.700214,8.0618352 53.378903,8.2485958 53.268323,8.3043195 C 53.205881,8.3357856 53.382289,8.2232681 53.438783,8.1820674 C 53.586843,8.047991 53.740502,7.9241486 53.905007,7.8107363 C 54.088279,7.681122 54.280903,7.5651466 54.470477,7.4449878 C 54.776943,7.2998679 55.057314,7.0835536 55.377537,6.9628728 C 55.538654,6.9059509 55.69646,6.9865406 55.850254,7.0320177 C 55.87679,7.0418828 55.903327,7.0517478 55.929864,7.0616129 L 55.502089,7.3496483 C 55.477055,7.3402698 55.452021,7.3308913 55.426987,7.3215129 C 55.274429,7.2774082 55.124567,7.2154697 54.968619,7.2843097 C 54.785839,7.361132 54.206963,7.6820192 54.939852,7.2631372 C 54.748224,7.3791573 54.558926,7.5007732 54.373532,7.6263157 C 54.211329,7.7404746 54.050851,7.854285 53.910358,7.9956329 C 53.667793,8.1676152 53.505791,8.2614777 53.205838,8.4327351 C 53.100754,8.4927327 53.623563,8.1883105 53.517755,8.2470211 C 53.304044,8.365604 53.09664,8.4953277 52.882185,8.6126148 C 52.648479,8.7408153 52.40886,8.8569535 52.168894,8.9729176 C 51.885509,9.1205095 51.594393,9.2508238 51.306468,9.3891179 C 50.99807,9.522613 50.684149,9.6423788 50.374419,9.7724809 C 50.096837,9.8922158 50.194513,9.8600715 50.486827,9.6687658 C 50.525474,9.6434736 50.406934,9.715218 50.368267,9.7404792 C 50.266558,9.806926 50.177737,9.889118 50.077262,9.9571836 C 49.911571,10.095373 49.766556,10.257607 49.638884,10.431277 C 49.544871,10.577108 49.445606,10.728021 49.414444,10.901609 L 48.935727,11.135651 z"
             id="path6294"
             style="opacity:0.45;fill:#8f5902;fill-opacity:1;fill-rule:evenodd;stroke:none;stroke-width:1;stroke-linecap:round;stroke-linejoin:round;stroke-miterlimit:4;stroke-dasharray:none;stroke-dashoffset:0;stroke-opacity:1" />
          <path
             d="M 51.500701,12.324184 C 51.458775,12.084043 51.437079,11.842127 51.436084,11.598553 C 51.433739,11.406456 51.472429,11.217796 51.495088,11.027857 C 51.529258,10.862901 51.557717,10.697058 51.588593,10.531443 C 51.621525,10.350804 51.686973,10.18168 51.781493,10.025138 C 52.004389,9.7313059 52.355775,9.5628355 52.692383,9.4271872 C 52.908507,9.3677558 53.110052,9.2689768 53.331097,9.2269972 C 53.364027,9.2222109 53.397397,9.2198249 53.429887,9.2126382 C 53.481979,9.2011159 53.556462,9.1709666 53.607996,9.1563659 C 53.704055,9.1291505 53.799658,9.113277 53.894738,9.0818389 C 53.926263,9.0680642 53.958093,9.0549688 53.989311,9.0405147 C 54.145375,8.9682577 54.533372,8.7728833 53.835468,9.1441787 C 53.777394,9.175075 53.943352,9.0687946 53.995429,9.0286055 C 54.131189,8.921919 54.239634,8.7882666 54.330642,8.6427109 C 54.402066,8.5331621 54.466143,8.4182904 54.550245,8.3178288 L 55.032877,8.1161784 C 54.936496,8.2075643 54.873517,8.3241523 54.801187,8.434611 C 54.710655,8.5862544 54.606867,8.727904 54.46749,8.8394304 C 54.176994,9.0754233 53.841321,9.2535451 53.494387,9.3916648 C 53.307722,9.4467984 53.118282,9.49812 52.927025,9.5338045 C 52.711433,9.5852724 52.506688,9.6688969 52.29699,9.7396961 C 52.133255,9.8141894 51.744882,10.025686 52.466441,9.6228978 C 52.494337,9.6073256 52.412747,9.6577079 52.387688,9.6775261 C 52.316873,9.7335315 52.308753,9.7493278 52.250758,9.8166567 C 52.1593,9.9765947 52.077552,10.122311 52.045244,10.308463 C 52.019544,10.47248 52.001285,10.637948 51.959565,10.798803 C 51.932038,10.990374 51.884284,11.179837 51.878815,11.373729 C 51.871523,11.606199 51.881039,11.844289 51.967972,12.063248 L 51.500701,12.324184 z"
             id="path6296"
             style="opacity:0.45;fill:#8f5902;fill-opacity:1;fill-rule:evenodd;stroke:none;stroke-width:1;stroke-linecap:round;stroke-linejoin:round;stroke-miterlimit:4;stroke-dasharray:none;stroke-dashoffset:0;stroke-opacity:1" />
          <path
             d="M 56.536056,6.7370041 C 56.531136,6.9451813 56.487715,7.1460442 56.408476,7.3379847 C 56.29713,7.5787652 56.169113,7.8123908 56.041156,8.0448557 C 55.875446,8.3568742 55.677034,8.6501808 55.493338,8.9517348 C 55.330802,9.2327003 55.134594,9.4910022 54.930654,9.7427937 C 54.75812,9.9926917 54.547987,10.212627 54.37262,10.460042 C 54.216258,10.675591 54.073537,10.900486 53.923311,11.12014 C 53.811842,11.288746 53.677244,11.439551 53.556154,11.601081 C 53.465867,11.714677 53.403727,11.841692 53.363424,11.980111 L 52.896843,12.203031 C 52.931397,12.054611 52.998498,11.921776 53.092339,11.801053 C 53.133241,11.746135 53.168466,11.687036 53.210885,11.633282 C 53.294025,11.527925 53.396318,11.436027 53.465245,11.319106 C 53.624354,11.10059 53.766042,10.86936 53.929027,10.65335 C 54.098777,10.39922 54.316785,10.184287 54.488515,9.93103 C 54.696572,9.6809672 54.890606,9.4206755 55.060656,9.1431866 C 55.242114,8.8445804 55.442163,8.5558559 55.599084,8.2431814 C 55.720905,8.0131951 55.841756,7.7820913 55.952849,7.5468762 C 56.036559,7.3673019 56.087275,7.1801413 56.058054,6.9805583 L 56.536056,6.7370041 z"
             id="path6298"
             style="opacity:0.45;fill:#8f5902;fill-opacity:1;fill-rule:evenodd;stroke:none;stroke-width:1;stroke-linecap:round;stroke-linejoin:round;stroke-miterlimit:4;stroke-dasharray:none;stroke-dashoffset:0;stroke-opacity:1" />
          <path
             d="M 47.283915,13.708014 C 47.099492,13.917084 46.907037,14.115522 46.690221,14.290948 C 46.40562,14.488759 46.151731,14.723108 45.932811,14.991183 C 45.786544,15.18592 45.6452,15.384432 45.526203,15.597104 L 45.070825,15.799919 C 45.198732,15.583491 45.346397,15.379468 45.49613,15.177718 C 45.708885,14.906981 45.958992,14.66871 46.241621,14.471074 C 46.448098,14.306507 46.641056,14.12741 46.798779,13.914137 L 47.283915,13.708014 z"
             id="path6300"
             style="opacity:0.45;fill:#8f5902;fill-opacity:1;fill-rule:evenodd;stroke:none;stroke-width:1;stroke-linecap:round;stroke-linejoin:round;stroke-miterlimit:4;stroke-dasharray:none;stroke-dashoffset:0;stroke-opacity:1" />
          <path
             d="M 42.754372,18.115312 C 42.574367,18.320667 42.384819,18.517316 42.204681,18.722521 C 41.958806,19.034218 41.650394,19.287742 41.349689,19.54401 C 40.938628,19.895242 40.49732,20.207742 40.067987,20.535547 C 39.661734,20.865055 39.285421,21.230061 38.933278,21.616378 C 38.665708,21.895373 38.422773,22.194121 38.195524,22.506272 C 38.049722,22.701652 37.913209,22.902894 37.755737,23.089236 C 37.627826,23.214646 37.519139,23.341317 37.457425,23.510948 L 36.988224,23.730551 C 37.050589,23.54349 37.144597,23.416715 37.291191,23.285545 C 37.457014,23.098934 37.598687,22.895645 37.750672,22.697975 C 37.995015,22.381215 38.246457,22.071138 38.528419,21.786352 C 38.88193,21.395978 39.262242,21.0315 39.667798,20.695115 C 40.092838,20.37001 40.531983,20.063285 40.936268,19.71162 C 41.227765,19.458721 41.525457,19.207022 41.769677,18.906586 C 41.932505,18.712616 42.107686,18.528898 42.261697,18.327624 L 42.754372,18.115312 z"
             id="path6302"
             style="opacity:0.45;fill:#8f5902;fill-opacity:1;fill-rule:evenodd;stroke:none;stroke-width:1;stroke-linecap:round;stroke-linejoin:round;stroke-miterlimit:4;stroke-dasharray:none;stroke-dashoffset:0;stroke-opacity:1" />
        </g>
        <path
           style="fill:none;fill-rule:evenodd;stroke:#361f00;stroke-width:0.60000002;stroke-linecap:butt;stroke-linejoin:miter;stroke-miterlimit:4;stroke-dasharray:none;stroke-opacity:1"
           d="M 17.946222,25.628682 C 21.049936,28.732395 21.049936,28.732395 21.049936,28.732395"
           id="path6454" />
        <path
           style="fill:none;fill-rule:evenodd;stroke:#361f00;stroke-width:0.60000002;stroke-linecap:butt;stroke-linejoin:miter;stroke-miterlimit:4;stroke-dasharray:none;stroke-opacity:1"
           d="M 19.221511,24.199744 C 22.325225,27.303457 22.325225,27.303457 22.325225,27.303457"
           id="path6456" />
        <path
           style="fill:none;fill-rule:evenodd;stroke:#361f00;stroke-width:0.60000002;stroke-linecap:butt;stroke-linejoin:miter;stroke-miterlimit:4;stroke-dasharray:none;stroke-opacity:1"
           d="M 20.512163,23.03201 C 23.615877,26.135723 23.615877,26.135723 23.615877,26.135723"
           id="path6458" />
        <path
           style="fill:none;fill-rule:evenodd;stroke:#361f00;stroke-width:0.60000002;stroke-linecap:butt;stroke-linejoin:miter;stroke-miterlimit:4;stroke-dasharray:none;stroke-opacity:1"
           d="M 21.741356,21.679898 C 24.84507,24.783611 24.84507,24.783611 24.84507,24.783611"
           id="path6460" />
        <path
           style="fill:none;fill-rule:evenodd;stroke:#361f00;stroke-width:0.60000002;stroke-linecap:butt;stroke-linejoin:miter;stroke-miterlimit:4;stroke-dasharray:none;stroke-opacity:1"
           d="M 23.216389,20.573624 C 26.320103,23.677337 26.320103,23.677337 26.320103,23.677337"
           id="path6462" />
        <path
           style="fill:none;fill-rule:evenodd;stroke:#361f00;stroke-width:0.60000002;stroke-linecap:butt;stroke-linejoin:miter;stroke-miterlimit:4;stroke-dasharray:none;stroke-opacity:1"
           d="M 24.322663,19.28297 C 27.426377,22.386683 27.426377,22.386683 27.426377,22.386683"
           id="path6464" />
        <path
           style="fill:none;fill-rule:evenodd;stroke:#361f00;stroke-width:0.60000002;stroke-linecap:butt;stroke-linejoin:miter;stroke-miterlimit:4;stroke-dasharray:none;stroke-opacity:1"
           d="M 25.674775,18.299616 C 28.778489,21.403329 28.778489,21.403329 28.778489,21.403329"
           id="path6466" />
        <path
           style="fill:none;fill-rule:evenodd;stroke:#361f00;stroke-width:0.60000002;stroke-linecap:butt;stroke-linejoin:miter;stroke-miterlimit:4;stroke-dasharray:none;stroke-opacity:1"
           d="M 26.903969,17.070422 C 30.007683,20.174135 30.007683,20.174135 30.007683,20.174135"
           id="path6468" />
        <path
           style="fill:none;fill-rule:evenodd;stroke:#361f00;stroke-width:0.60000002;stroke-linecap:butt;stroke-linejoin:miter;stroke-miterlimit:4;stroke-dasharray:none;stroke-opacity:1"
           d="M 28.010243,15.779769 C 31.113957,18.883482 31.113957,18.883482 31.113957,18.883482"
           id="path6470" />
        <path
           style="fill:none;fill-rule:evenodd;stroke:#361f00;stroke-width:0.60000002;stroke-linecap:butt;stroke-linejoin:miter;stroke-miterlimit:4;stroke-dasharray:none;stroke-opacity:1"
           d="M 29.055057,14.489116 C 32.158771,17.592829 32.158771,17.592829 32.158771,17.592829"
           id="path6472" />
        <path
           style="fill:none;fill-rule:evenodd;stroke:#361f00;stroke-width:0.60000002;stroke-linecap:butt;stroke-linejoin:miter;stroke-miterlimit:4;stroke-dasharray:none;stroke-opacity:1"
           d="M 30.345711,13.382843 C 33.449425,16.486556 33.449425,16.486556 33.449425,16.486556"
           id="path6474" />
        <path
           style="fill:none;fill-rule:evenodd;stroke:#361f00;stroke-width:0.60000002;stroke-linecap:butt;stroke-linejoin:miter;stroke-miterlimit:4;stroke-dasharray:none;stroke-opacity:1"
           d="M 31.390525,12.153649 C 34.494239,15.257362 34.494239,15.257362 34.494239,15.257362"
           id="path6476" />
        <path
           style="fill:none;fill-rule:evenodd;stroke:#361f00;stroke-width:0.60000002;stroke-linecap:butt;stroke-linejoin:miter;stroke-miterlimit:4;stroke-dasharray:none;stroke-opacity:1"
           d="M 32.558258,10.985915 C 35.661972,14.089628 35.661972,14.089628 35.661972,14.089628"
           id="path6478" />
        <path
           style="fill:none;fill-rule:evenodd;stroke:#361f00;stroke-width:0.60000002;stroke-linecap:butt;stroke-linejoin:miter;stroke-miterlimit:4;stroke-dasharray:none;stroke-opacity:1"
           d="M 33.664532,9.9411013 C 36.768246,13.044814 36.768246,13.044814 36.768246,13.044814"
           id="path6480" />
        <path
           style="fill:none;fill-rule:evenodd;stroke:#361f00;stroke-width:0.60000002;stroke-linecap:butt;stroke-linejoin:miter;stroke-miterlimit:4;stroke-dasharray:none;stroke-opacity:1"
           d="M 34.832266,8.7119083 C 37.93598,11.815621 37.93598,11.815621 37.93598,11.815621"
           id="path6482" />
      </g>
      <g
         transform="matrix(1.0356212,-0.5250769,0.5250769,1.0356212,-16.867493,2.5748734)"
         id="g6541">
        <path
           style="fill:#babdb6;fill-rule:evenodd;stroke:#555753;stroke-width:0.25836957;stroke-linecap:butt;stroke-linejoin:miter;stroke-miterlimit:4;stroke-dasharray:none;stroke-opacity:1"
           d="M 38.40625,22.96875 L 38.40625,23.4375 L 38.84375,23.4375 L 38.84375,24.21875 C 38.714461,24.297838 38.625,24.431194 38.625,24.59375 C 38.625,24.84215 38.814099,25.03125 39.0625,25.03125 C 39.3109,25.03125 39.531252,24.842149 39.53125,24.59375 C 39.53125,24.422062 39.422755,24.294609 39.28125,24.21875 L 39.28125,23.4375 L 39.71875,23.4375 L 39.71875,22.96875 L 38.40625,22.96875 z"
           id="path6520" />
        <path
           style="fill:#babdb6;fill-rule:evenodd;stroke:#555753;stroke-width:0.25836957;stroke-linecap:butt;stroke-linejoin:miter;stroke-miterlimit:4;stroke-dasharray:none;stroke-opacity:1"
           d="M 40.006567,22.96875 L 40.006567,23.4375 L 40.444067,23.4375 L 40.444067,24.21875 C 40.314778,24.297838 40.225317,24.431194 40.225317,24.59375 C 40.225317,24.84215 40.414416,25.03125 40.662817,25.03125 C 40.911217,25.03125 41.131569,24.842149 41.131567,24.59375 C 41.131567,24.422062 41.023072,24.294609 40.881567,24.21875 L 40.881567,23.4375 L 41.319067,23.4375 L 41.319067,22.96875 L 40.006567,22.96875 z"
           id="path6531" />
        <path
           style="fill:#babdb6;fill-rule:evenodd;stroke:#555753;stroke-width:0.25836957;stroke-linecap:butt;stroke-linejoin:miter;stroke-miterlimit:4;stroke-dasharray:none;stroke-opacity:1"
           d="M 41.606954,22.96875 L 41.606954,23.4375 L 42.044454,23.4375 L 42.044454,24.21875 C 41.915165,24.297838 41.825704,24.431194 41.825704,24.59375 C 41.825704,24.84215 42.014803,25.03125 42.263204,25.03125 C 42.511604,25.03125 42.731956,24.842149 42.731954,24.59375 C 42.731954,24.422062 42.623459,24.294609 42.481954,24.21875 L 42.481954,23.4375 L 42.919454,23.4375 L 42.919454,22.96875 L 41.606954,22.96875 z"
           id="path6533" />
        <path
           style="fill:#babdb6;fill-rule:evenodd;stroke:#555753;stroke-width:0.25836957;stroke-linecap:butt;stroke-linejoin:miter;stroke-miterlimit:4;stroke-dasharray:none;stroke-opacity:1"
           d="M 43.207528,22.96875 L 43.207528,23.4375 L 43.645028,23.4375 L 43.645028,24.21875 C 43.515739,24.297838 43.426278,24.431194 43.426278,24.59375 C 43.426278,24.84215 43.615377,25.03125 43.863778,25.03125 C 44.112178,25.03125 44.33253,24.842149 44.332528,24.59375 C 44.332528,24.422062 44.224033,24.294609 44.082528,24.21875 L 44.082528,23.4375 L 44.520028,23.4375 L 44.520028,22.96875 L 43.207528,22.96875 z"
           id="path6535" />
        <path
           style="fill:#babdb6;fill-rule:evenodd;stroke:#555753;stroke-width:0.25836957;stroke-linecap:butt;stroke-linejoin:miter;stroke-miterlimit:4;stroke-dasharray:none;stroke-opacity:1"
           d="M 44.808342,22.96875 L 44.808342,23.4375 L 45.245842,23.4375 L 45.245842,24.21875 C 45.116553,24.297838 45.027092,24.431194 45.027092,24.59375 C 45.027092,24.84215 45.216191,25.03125 45.464592,25.03125 C 45.712992,25.03125 45.933344,24.842149 45.933342,24.59375 C 45.933342,24.422062 45.824847,24.294609 45.683342,24.21875 L 45.683342,23.4375 L 46.120842,23.4375 L 46.120842,22.96875 L 44.808342,22.96875 z"
           id="path6537" />
        <path
           style="fill:#babdb6;fill-rule:evenodd;stroke:#555753;stroke-width:0.25836957;stroke-linecap:butt;stroke-linejoin:miter;stroke-miterlimit:4;stroke-dasharray:none;stroke-opacity:1"
           d="M 46.409357,22.96875 L 46.409357,23.4375 L 46.846857,23.4375 L 46.846857,24.21875 C 46.717568,24.297838 46.628107,24.431194 46.628107,24.59375 C 46.628107,24.84215 46.817206,25.03125 47.065607,25.03125 C 47.314007,25.03125 47.534359,24.842149 47.534357,24.59375 C 47.534357,24.422062 47.425862,24.294609 47.284357,24.21875 L 47.284357,23.4375 L 47.721857,23.4375 L 47.721857,22.96875 L 46.409357,22.96875 z"
           id="path6539" />
      </g>
    </g>
    <path
       sodipodi:type="arc"
       style="opacity:1;fill:none;fill-opacity:1;fill-rule:evenodd;stroke:url(#linearGradient6603);stroke-width:0.50274229;stroke-linecap:round;stroke-linejoin:round;stroke-miterlimit:4;stroke-dasharray:none;stroke-dashoffset:0;stroke-opacity:1"
       id="path6595"
       sodipodi:cx="7.3256707"
       sodipodi:cy="6.4367814"
       sodipodi:rx="1.1340996"
       sodipodi:ry="1.1034483"
       d="M 8.4597703,6.4367814 A 1.1340996,1.1034483 0 1 1 6.1915711,6.4367814 A 1.1340996,1.1034483 0 1 1 8.4597703,6.4367814 z"
       transform="matrix(0.3924648,0,0,0.4032445,26.742509,26.943915)" />
    <path
       sodipodi:type="arc"
       style="opacity:1;fill:none;fill-opacity:1;fill-rule:evenodd;stroke:url(#linearGradient6607);stroke-width:0.50274229;stroke-linecap:round;stroke-linejoin:round;stroke-miterlimit:4;stroke-dasharray:none;stroke-dashoffset:0;stroke-opacity:1"
       id="path6605"
       sodipodi:cx="7.3256707"
       sodipodi:cy="6.4367814"
       sodipodi:rx="1.1340996"
       sodipodi:ry="1.1034483"
       d="M 8.4597703,6.4367814 A 1.1340996,1.1034483 0 1 1 6.1915711,6.4367814 A 1.1340996,1.1034483 0 1 1 8.4597703,6.4367814 z"
       transform="matrix(0.3924648,0,0,0.4032445,22.381637,29.956128)" />
    <path
       sodipodi:type="arc"
       style="opacity:1;fill:none;fill-opacity:1;fill-rule:evenodd;stroke:url(#linearGradient6611);stroke-width:0.50274229;stroke-linecap:round;stroke-linejoin:round;stroke-miterlimit:4;stroke-dasharray:none;stroke-dashoffset:0;stroke-opacity:1"
       id="path6609"
       sodipodi:cx="7.3256707"
       sodipodi:cy="6.4367814"
       sodipodi:rx="1.1340996"
       sodipodi:ry="1.1034483"
       d="M 8.4597703,6.4367814 A 1.1340996,1.1034483 0 1 1 6.1915711,6.4367814 A 1.1340996,1.1034483 0 1 1 8.4597703,6.4367814 z"
       transform="matrix(0.3924648,0,0,0.4032445,19.439108,27.197507)" />
    <path
       sodipodi:type="arc"
       style="opacity:1;fill:none;fill-opacity:1;fill-rule:evenodd;stroke:url(#linearGradient6615);stroke-width:0.50274229;stroke-linecap:round;stroke-linejoin:round;stroke-miterlimit:4;stroke-dasharray:none;stroke-dashoffset:0;stroke-opacity:1"
       id="path6613"
       sodipodi:cx="7.3256707"
       sodipodi:cy="6.4367814"
       sodipodi:rx="1.1340996"
       sodipodi:ry="1.1034483"
       d="M 8.4597703,6.4367814 A 1.1340996,1.1034483 0 1 1 6.1915711,6.4367814 A 1.1340996,1.1034483 0 1 1 8.4597703,6.4367814 z"
       transform="matrix(0.3924648,0,0,0.4032445,14.289683,19.841185)" />
    <path
       sodipodi:type="arc"
       style="opacity:1;fill:none;fill-opacity:1;fill-rule:evenodd;stroke:url(#linearGradient6619);stroke-width:0.50274229;stroke-linecap:round;stroke-linejoin:round;stroke-miterlimit:4;stroke-dasharray:none;stroke-dashoffset:0;stroke-opacity:1"
       id="path6617"
       sodipodi:cx="7.3256707"
       sodipodi:cy="6.4367814"
       sodipodi:rx="1.1340996"
       sodipodi:ry="1.1034483"
       d="M 8.4597703,6.4367814 A 1.1340996,1.1034483 0 1 1 6.1915711,6.4367814 A 1.1340996,1.1034483 0 1 1 8.4597703,6.4367814 z"
       transform="matrix(0.3924648,0,0,0.4032445,11.46976,24.745399)" />
    <path
       sodipodi:type="arc"
       style="opacity:1;fill:none;fill-opacity:1;fill-rule:evenodd;stroke:url(#linearGradient6624);stroke-width:0.50274229;stroke-linecap:round;stroke-linejoin:round;stroke-miterlimit:4;stroke-dasharray:none;stroke-dashoffset:0;stroke-opacity:1"
       id="path6622"
       sodipodi:cx="7.3256707"
       sodipodi:cy="6.4367814"
       sodipodi:rx="1.1340996"
       sodipodi:ry="1.1034483"
       d="M 8.4597703,6.4367814 A 1.1340996,1.1034483 0 1 1 6.1915711,6.4367814 A 1.1340996,1.1034483 0 1 1 8.4597703,6.4367814 z"
       transform="matrix(0.3924648,0,0,0.4032445,17.109607,29.956127)" />
    <path
       sodipodi:type="arc"
       style="opacity:1;fill:none;fill-opacity:1;fill-rule:evenodd;stroke:url(#linearGradient6628);stroke-width:0.50274229;stroke-linecap:round;stroke-linejoin:round;stroke-miterlimit:4;stroke-dasharray:none;stroke-dashoffset:0;stroke-opacity:1"
       id="path6626"
       sodipodi:cx="7.3256707"
       sodipodi:cy="6.4367814"
       sodipodi:rx="1.1340996"
       sodipodi:ry="1.1034483"
       d="M 8.4597703,6.4367814 A 1.1340996,1.1034483 0 1 1 6.1915711,6.4367814 A 1.1340996,1.1034483 0 1 1 8.4597703,6.4367814 z"
       transform="matrix(0.3924648,0,0,0.4032445,6.7494535,28.668771)" />
  </g>
</svg>
