<?xml version="1.0" encoding="UTF-8" standalone="no"?>
<!-- Created with Inkscape (http://www.inkscape.org/) -->
<svg xmlns:dc="http://purl.org/dc/elements/1.1/" xmlns:cc="http://creativecommons.org/ns#" xmlns:rdf="http://www.w3.org/1999/02/22-rdf-syntax-ns#" xmlns:svg="http://www.w3.org/2000/svg" xmlns="http://www.w3.org/2000/svg" xmlns:xlink="http://www.w3.org/1999/xlink" xmlns:sodipodi="http://sodipodi.sourceforge.net/DTD/sodipodi-0.dtd" xmlns:inkscape="http://www.inkscape.org/namespaces/inkscape" width="48" height="48" id="svg2" version="1.1" inkscape:version="0.47pre4 r22446" sodipodi:docname="twf.svg" inkscape:export-filename="/home/vicing/.icons/Unsorted/twf.png" inkscape:export-xdpi="90" inkscape:export-ydpi="90">
  <defs id="defs4">
    <inkscape:perspective sodipodi:type="inkscape:persp3d" inkscape:vp_x="0 : 24 : 1" inkscape:vp_y="0 : 1000 : 0" inkscape:vp_z="48 : 24 : 1" inkscape:persp3d-origin="24 : 16 : 1" id="perspective36"/>
    <linearGradient inkscape:collect="always" id="linearGradient8037">
      <stop style="stop-color:#888a85;stop-opacity:1;" offset="0" id="stop8039"/>
      <stop style="stop-color:#babdb6;stop-opacity:1" offset="1" id="stop8041"/>
    </linearGradient>
    <linearGradient id="linearGradient8011" inkscape:collect="always">
      <stop id="stop8013" offset="0" style="stop-color:#babdb6;stop-opacity:1"/>
      <stop id="stop8015" offset="1" style="stop-color:#888a85;stop-opacity:1"/>
    </linearGradient>
    <linearGradient inkscape:collect="always" id="linearGradient7989">
      <stop style="stop-color:#babdb6;stop-opacity:1" offset="0" id="stop7991"/>
      <stop style="stop-color:#555753;stop-opacity:1" offset="1" id="stop7993"/>
    </linearGradient>
    <linearGradient inkscape:collect="always" id="linearGradient7975">
      <stop style="stop-color:#729fcf;stop-opacity:1" offset="0" id="stop7977"/>
      <stop style="stop-color:#3465a4;stop-opacity:1" offset="1" id="stop7979"/>
    </linearGradient>
    <radialGradient inkscape:collect="always" xlink:href="#linearGradient7989" id="radialGradient7999" gradientUnits="userSpaceOnUse" gradientTransform="matrix(0.80232144,-1.0697656,0.76021342,0.57015808,-777.4021,458.00096)" cx="16.265734" cy="1034.3829" fx="16.265734" fy="1034.3829" r="14.956565"/>
    <radialGradient inkscape:collect="always" xlink:href="#linearGradient8011" id="radialGradient8009" gradientUnits="userSpaceOnUse" gradientTransform="matrix(-0.63371322,-0.48709941,-0.67390294,0.88087468,738.01163,132.78314)" cx="31.514494" cy="1031.6158" fx="31.514494" fy="1031.6158" r="13.599408"/>
    <linearGradient inkscape:collect="always" xlink:href="#linearGradient8011" id="linearGradient8017" x1="15.935957" y1="1034.2831" x2="4.5349088" y2="1034.41" gradientUnits="userSpaceOnUse"/>
    <linearGradient inkscape:collect="always" xlink:href="#linearGradient8011" id="linearGradient8031" gradientUnits="userSpaceOnUse" x1="15.935957" y1="1034.2831" x2="4.5349088" y2="1034.41"/>
    <linearGradient inkscape:collect="always" xlink:href="#linearGradient7975" id="linearGradient8035" x1="30" y1="1027.3622" x2="40" y2="1037.3622" gradientUnits="userSpaceOnUse" gradientTransform="matrix(1.0040417,0,0,1.0064045,0.01189861,-5.7095387)"/>
    <linearGradient inkscape:collect="always" xlink:href="#linearGradient8037" id="linearGradient8043" x1="10" y1="1017.3622" x2="25" y2="1027.3622" gradientUnits="userSpaceOnUse" gradientTransform="matrix(1.0040417,0,0,1.0064045,0.01189861,-5.7095387)"/>
    <filter inkscape:collect="always" id="filter8067" x="-0.05" width="1.1" y="-0.2625" height="1.525">
      <feGaussianBlur inkscape:collect="always" stdDeviation="0.875" id="feGaussianBlur8069"/>
    </filter>
  </defs>
  <sodipodi:namedview id="base" pagecolor="#ffffff" bordercolor="#666666" borderopacity="1.0" inkscape:pageopacity="0.0" inkscape:pageshadow="2" inkscape:zoom="11.313708" inkscape:cx="27.377173" inkscape:cy="53.875933" inkscape:document-units="px" inkscape:current-layer="layer1" showgrid="true" inkscape:showpageshadow="false" inkscape:window-width="1400" inkscape:window-height="961" inkscape:window-x="0" inkscape:window-y="27" inkscape:window-maximized="1">
    <inkscape:grid type="xygrid" id="grid7167" empspacing="5" visible="true" enabled="true" snapvisiblegridlinesonly="true"/>
  </sodipodi:namedview>
  <metadata id="metadata7">
    <rdf:RDF>
      <cc:Work rdf:about="">
        <dc:format>image/svg+xml</dc:format>
        <dc:type rdf:resource="http://purl.org/dc/dcmitype/StillImage"/>
        <dc:title/>
      </cc:Work>
    </rdf:RDF>
  </metadata>
  <g inkscape:label="Layer 1" inkscape:groupmode="layer" id="layer1" transform="translate(0,-1004.3622)">
    <path sodipodi:type="arc" style="opacity:0.1300813;fill:#2e3436;fill-opacity:1;fill-rule:nonzero;stroke:none;filter:url(#filter8067)" id="path8045" sodipodi:cx="23" sodipodi:cy="37" sodipodi:rx="21" sodipodi:ry="4" d="m 44,37 c 0,2.209139 -9.40202,4 -21,4 -11.59798,0 -21,-1.790861 -21,-4 0,-2.209139 9.40202,-4 21,-4 11.59798,0 21,1.790861 21,4 z" transform="matrix(0.88371707,0,0,1,6.2325659,1008.3622)"/>
    <path sodipodi:nodetypes="csccccccccccc" id="path7174" style="font-size:40px;font-style:normal;font-variant:normal;font-weight:900;font-stretch:normal;text-align:start;line-height:100%;writing-mode:lr-tb;text-anchor:start;fill:url(#linearGradient8035);fill-opacity:1;stroke:#204a87;stroke-width:1.00522244;stroke-linecap:butt;font-family:Hiruko;-inkscape-font-specification:Hiruko Heavy" d="m 31.786557,1022.9634 c 0.466714,-0.6143 1.064803,-0.971 1.794269,-1.07 0.729473,-0.1 1.392306,0.079 1.98864,0.5343 l 10.927932,8.3404 -3.218726,4.2636 -8.406817,-6.3765 -3.332203,4.414 8.406816,6.3764 -3.332202,4.414 -8.406818,-6.3765 -3.288823,4.3565 -4.730357,-3.6094 11.598283,-15.2668"/>
    <g id="g7985" style="fill:url(#linearGradient8017);fill-opacity:1;stroke:#888a85" transform="matrix(1.0040394,-0.00214715,0.00214211,1.0064022,-2.8967574,-7.8141818)">
      <path sodipodi:nodetypes="ccccc" id="path7178" d="m 13.784785,1035.9573 -8.3387445,-6.338 -3.2701892,4.2753 8.3386967,6.338 3.270237,-4.2753 z" style="fill:url(#linearGradient8031);fill-opacity:1;stroke:#555753"/>
    </g>
    <path d="m 31.876073,1024.1826 c 0.444703,-0.5854 1.029784,-1.2087 1.751102,-1.311 0.631436,-0.09 1.222883,0.2431 1.790426,0.6759 l 9.711099,7.3658 -2.044822,2.7086 -8.406818,-6.3764 -4.543912,6.0189 8.406816,6.3766 -2.120492,2.8087 -8.406818,-6.3763 -3.31324,4.3888 -3.285285,-2.5133 10.462129,-13.7665" style="font-size:40px;font-style:normal;font-variant:normal;font-weight:900;font-stretch:normal;text-align:start;line-height:100%;writing-mode:lr-tb;text-anchor:start;fill:none;stroke:#729fcf;stroke-width:0.95727086;stroke-linecap:butt;font-family:Hiruko;-inkscape-font-specification:Hiruko Heavy" id="path8003" sodipodi:nodetypes="caccccccccccc"/>
    <path d="m 30.429567,1021.9342 c 0.463032,-0.6172 0.642859,-1.291 0.539728,-2.0216 -0.10302,-0.7307 -0.454807,-1.3214 -1.053443,-1.7731 l -10.977612,-8.2747 -3.218727,4.2636 8.406817,6.3766 -3.332204,4.4138 -8.406816,-6.3764 -3.3322029,4.4139 8.4068159,6.3766 -3.288824,4.3564 4.750956,3.5821 11.505519,-15.3372" style="font-size:40px;font-style:normal;font-variant:normal;font-weight:900;font-stretch:normal;text-align:start;line-height:100%;writing-mode:lr-tb;text-anchor:start;fill:url(#radialGradient8009);fill-opacity:1;stroke:#555753;stroke-width:1.00522244;stroke-linecap:butt;font-family:Hiruko;-inkscape-font-specification:Hiruko Heavy" id="path8007" sodipodi:nodetypes="csccccccccccc"/>
    <path sodipodi:nodetypes="caccccccccccc" id="path8005" style="font-size:40px;font-style:normal;font-variant:normal;font-weight:900;font-stretch:normal;text-align:start;line-height:100%;writing-mode:lr-tb;text-anchor:start;fill:url(#linearGradient8043);fill-opacity:1;stroke:#babdb6;stroke-width:0.95727086;stroke-linecap:butt;font-family:Hiruko;-inkscape-font-specification:Hiruko Heavy" d="m 29.078501,1022.0607 c 0.441178,-0.5881 0.880477,-1.3218 0.782706,-2.0455 -0.08556,-0.6334 -0.565773,-1.1135 -1.135496,-1.5434 l -9.618111,-7.2952 -2.044822,2.7087 8.386888,6.3613 -4.543914,6.019 -8.386887,-6.3614 -2.120493,2.8089 8.386888,6.3614 -3.313241,4.3888 3.222526,2.4442 10.384134,-13.847"/>
    <path style="fill:none;stroke:#babdb6;stroke-width:1.00522244px;stroke-linecap:butt;stroke-linejoin:miter;stroke-opacity:1" d="m 4.9583027,1029.7471 6.8191973,5.1723 -2.0755591,2.7494 -6.8191973,-5.1723 2.0755591,-2.7494 z" id="path8033" sodipodi:nodetypes="ccccc"/>
  </g>
</svg>