<?xml version="1.0" encoding="UTF-8" standalone="no"?>
<!-- Created with Inkscape (http://www.inkscape.org/) -->
<svg
   xmlns:dc="http://purl.org/dc/elements/1.1/"
   xmlns:cc="http://creativecommons.org/ns#"
   xmlns:rdf="http://www.w3.org/1999/02/22-rdf-syntax-ns#"
   xmlns:svg="http://www.w3.org/2000/svg"
   xmlns="http://www.w3.org/2000/svg"
   xmlns:xlink="http://www.w3.org/1999/xlink"
   xmlns:sodipodi="http://sodipodi.sourceforge.net/DTD/sodipodi-0.dtd"
   xmlns:inkscape="http://www.inkscape.org/namespaces/inkscape"
   width="48px"
   height="48px"
   id="svg5474"
   sodipodi:version="0.32"
   inkscape:version="0.46"
   sodipodi:docname="tweetdeck.svg"
   inkscape:output_extension="org.inkscape.output.svg.inkscape"
   inkscape:export-filename="C:\Documents and Settings\StarkC\Desktop\original inkscape\tweetdeck\tweetdeck.png"
   inkscape:export-xdpi="90"
   inkscape:export-ydpi="90">
  <defs
     id="defs5476">
    <radialGradient
       inkscape:collect="always"
       xlink:href="#linearGradient5060"
       id="radialGradient4907"
       gradientUnits="userSpaceOnUse"
       gradientTransform="matrix(-2.774389,0,0,1.969706,112.7623,-872.8854)"
       cx="605.71429"
       cy="486.64789"
       fx="605.71429"
       fy="486.64789"
       r="117.14286" />
    <linearGradient
       inkscape:collect="always"
       id="linearGradient5060">
      <stop
         style="stop-color:black;stop-opacity:1;"
         offset="0"
         id="stop5062" />
      <stop
         style="stop-color:black;stop-opacity:0;"
         offset="1"
         id="stop5064" />
    </linearGradient>
    <radialGradient
       inkscape:collect="always"
       xlink:href="#linearGradient5060"
       id="radialGradient4905"
       gradientUnits="userSpaceOnUse"
       gradientTransform="matrix(2.774389,0,0,1.969706,-1891.633,-872.8854)"
       cx="605.71429"
       cy="486.64789"
       fx="605.71429"
       fy="486.64789"
       r="117.14286" />
    <linearGradient
       id="linearGradient5048">
      <stop
         style="stop-color:black;stop-opacity:0;"
         offset="0"
         id="stop5050" />
      <stop
         id="stop5056"
         offset="0.5"
         style="stop-color:black;stop-opacity:1;" />
      <stop
         style="stop-color:black;stop-opacity:0;"
         offset="1"
         id="stop5052" />
    </linearGradient>
    <linearGradient
       inkscape:collect="always"
       xlink:href="#linearGradient5048"
       id="linearGradient4903"
       gradientUnits="userSpaceOnUse"
       gradientTransform="matrix(2.774389,0,0,1.969706,-1892.179,-872.8854)"
       x1="302.85715"
       y1="366.64789"
       x2="302.85715"
       y2="609.50507" />
    <linearGradient
       id="linearGradient6518">
      <stop
         style="stop-color:#ffffff;stop-opacity:0.5840708;"
         offset="0"
         id="stop6520" />
      <stop
         style="stop-color:#ffffff;stop-opacity:0;"
         offset="1"
         id="stop6522" />
    </linearGradient>
    <linearGradient
       id="linearGradient6282">
      <stop
         style="stop-color:#edd400;stop-opacity:1;"
         offset="0"
         id="stop6284" />
      <stop
         style="stop-color:#ac9a00;stop-opacity:1;"
         offset="1"
         id="stop6286" />
    </linearGradient>
    <inkscape:perspective
       sodipodi:type="inkscape:persp3d"
       inkscape:vp_x="0 : 24 : 1"
       inkscape:vp_y="0 : 1000 : 0"
       inkscape:vp_z="48 : 24 : 1"
       inkscape:persp3d-origin="24 : 16 : 1"
       id="perspective5482" />
    <linearGradient
       inkscape:collect="always"
       xlink:href="#linearGradient6282"
       id="linearGradient6288"
       x1="24"
       y1="16.147461"
       x2="24"
       y2="43.606735"
       gradientUnits="userSpaceOnUse"
       gradientTransform="translate(0,1)" />
    <linearGradient
       inkscape:collect="always"
       xlink:href="#linearGradient6518"
       id="linearGradient6524"
       x1="17.049683"
       y1="11.625478"
       x2="19.006369"
       y2="24.899826"
       gradientUnits="userSpaceOnUse"
       gradientTransform="translate(0,-2)" />
  </defs>
  <sodipodi:namedview
     id="base"
     pagecolor="#ffffff"
     bordercolor="#666666"
     borderopacity="1.0"
     inkscape:pageopacity="0.0"
     inkscape:pageshadow="2"
     inkscape:zoom="1"
     inkscape:cx="24"
     inkscape:cy="24"
     inkscape:current-layer="layer1"
     showgrid="true"
     inkscape:grid-bbox="true"
     inkscape:document-units="px"
     inkscape:showpageshadow="false"
     showguides="true"
     inkscape:guide-bbox="true" />
  <metadata
     id="metadata5479">
    <rdf:RDF>
      <cc:Work
         rdf:about="">
        <dc:format>image/svg+xml</dc:format>
        <dc:type
           rdf:resource="http://purl.org/dc/dcmitype/StillImage" />
      </cc:Work>
    </rdf:RDF>
  </metadata>
  <g
     id="layer1"
     inkscape:label="Layer 1"
     inkscape:groupmode="layer">
    <g
       id="g5809">
      <g
         transform="matrix(1.4775167e-2,0,0,1.0452441e-2,37.141558,43.57515)"
         id="g6055"
         style="opacity:0.5;display:inline">
        <rect
           style="opacity:0.39195981;fill:url(#linearGradient4903);fill-opacity:1;fill-rule:nonzero;stroke:none;stroke-width:1;stroke-linecap:round;stroke-linejoin:miter;marker:none;marker-start:none;marker-mid:none;marker-end:none;stroke-miterlimit:4;stroke-dasharray:none;stroke-dashoffset:0;stroke-opacity:1;visibility:visible;display:inline;overflow:visible"
           id="rect6057"
           width="1339.6335"
           height="478.35718"
           x="-1559.2523"
           y="-150.69685" />
        <path
           style="opacity:0.40206185;fill:url(#radialGradient4905);fill-opacity:1;fill-rule:nonzero;stroke:none;stroke-width:1;stroke-linecap:round;stroke-linejoin:miter;marker:none;marker-start:none;marker-mid:none;marker-end:none;stroke-miterlimit:4;stroke-dasharray:none;stroke-dashoffset:0;stroke-opacity:1;visibility:visible;display:inline;overflow:visible"
           d="M -219.61876,-150.68038 C -219.61876,-150.68038 -219.61876,327.65041 -219.61876,327.65041 C -76.744594,328.55086 125.78146,220.48075 125.78138,88.454235 C 125.78138,-43.572302 -33.655436,-150.68036 -219.61876,-150.68038 z"
           id="path6059"
           sodipodi:nodetypes="cccc" />
        <path
           sodipodi:nodetypes="cccc"
           id="path6061"
           d="M -1559.2523,-150.68038 C -1559.2523,-150.68038 -1559.2523,327.65041 -1559.2523,327.65041 C -1702.1265,328.55086 -1904.6525,220.48075 -1904.6525,88.454235 C -1904.6525,-43.572302 -1745.2157,-150.68036 -1559.2523,-150.68038 z"
           style="opacity:0.40206185;fill:url(#radialGradient4907);fill-opacity:1;fill-rule:nonzero;stroke:none;stroke-width:1;stroke-linecap:round;stroke-linejoin:miter;marker:none;marker-start:none;marker-mid:none;marker-end:none;stroke-miterlimit:4;stroke-dasharray:none;stroke-dashoffset:0;stroke-opacity:1;visibility:visible;display:inline;overflow:visible" />
      </g>
      <path
         sodipodi:nodetypes="cccccccccccc"
         id="path5486"
         d="M 9.5,37.5 L 21,37.5 L 24,43.5 L 27,37.5 L 38.5,37.5 C 39.995727,37.5 41.5,35.995094 41.5,34.5 L 41.5,5.5 C 41.5,3.9799972 40.009308,2.5 38.5,2.5 L 9.5,2.5 C 7.9971854,2.5 6.5,3.9999825 6.5,5.5 L 6.5,34.5 C 6.5,36.002298 7.9991048,37.5 9.5,37.5 z"
         style="fill:url(#linearGradient6288);fill-opacity:1;fill-rule:evenodd;stroke:#5d4c00;stroke-width:1px;stroke-linecap:butt;stroke-linejoin:round;stroke-opacity:1" />
      <path
         sodipodi:nodetypes="cccccccccccc"
         id="path5490"
         d="M 9.5,36.5 L 21.654757,36.5 L 24,41.233758 L 26.341086,36.5 L 38.349495,36.5 C 39.606041,36.5 40.5,35.420646 40.5,34.377146 L 40.5,5.6168302 C 40.5,4.6501698 39.684111,3.5 38.372929,3.5 L 9.703125,3.5 C 8.6435537,3.5 7.5,4.3660407 7.5,5.7031249 L 7.5,34.5 C 7.5,35.670245 8.7502719,36.5 9.5,36.5 z"
         style="opacity:0.65;fill:none;fill-rule:evenodd;stroke:#ffffff;stroke-width:1px;stroke-linecap:butt;stroke-linejoin:miter;stroke-opacity:1" />
      <path
         sodipodi:nodetypes="ccccccc"
         id="path6508"
         d="M 8,5.6407641 L 8,17.829299 C 21.783687,17.829299 27.674282,9.518627 40,9.518627 L 40,5.6178343 C 40,4.7892655 39.249367,4 38.438217,4 L 9.6611465,4 C 8.8504226,4 8,4.7261707 8,5.6407641 z"
         style="opacity:0.85;fill:url(#linearGradient6524);fill-opacity:1;fill-rule:evenodd;stroke:none;stroke-width:1px;stroke-linecap:butt;stroke-linejoin:miter;stroke-opacity:1" />
      <g
         transform="matrix(1.1742496,0,0,1.1632644,-4.1860758,-5.5507968)"
         id="g6504">
        <path
           style="fill:#555753;fill-opacity:1;fill-rule:evenodd;stroke:#2e3436;stroke-width:0.85561937;stroke-linecap:round;stroke-linejoin:round;stroke-miterlimit:4;stroke-dasharray:none;stroke-dashoffset:0;stroke-opacity:1"
           d="M 20.677877,20.427988 C 22.35895,19.048208 25.566823,10.99693 28.699125,10.085634 C 31.840451,9.171713 31.931556,10.542693 32.63072,10.478967 C 33.339702,10.414347 35.365105,9.304192 35.495452,9.53034 C 35.628809,9.761713 32.786924,13.708183 32.610963,14.366027 C 32.436351,15.018827 33.827352,22.775631 30.516745,25.2174 C 27.262529,27.61758 25.142905,26.721322 25.142905,26.721322 L 18.939282,28.919361 L 14.273504,32.701845 C 13.858402,32.790824 12.236011,32.16267 12.545835,31.739103 L 14.729141,29.296544 L 12.827952,29.186744 L 14.739469,26.739637 L 13.575319,26.455244 L 20.677877,20.427988 z"
           id="rect2694"
           sodipodi:nodetypes="czzzzzccccccccz" />
        <path
           style="opacity:0.25;fill:none;fill-rule:evenodd;stroke:#ffffff;stroke-width:0.85561937px;stroke-linecap:butt;stroke-linejoin:miter;stroke-opacity:1"
           d="M 33.630497,11.040211 L 32.838145,11.318706 C 32.478781,11.385905 32.060945,11.337224 31.878905,11.180194 C 31.469325,10.938319 31.242734,10.645627 30.826857,10.648306 C 28.985423,10.660052 28.250623,11.081002 27.113831,12.314132 C 24.910321,14.70438 23.037921,19.228893 21.463032,20.881023 L 15.276006,26.148589 C 15.724121,26.547091 15.712968,26.952261 15.244085,27.484527 L 14.541343,28.38904 C 15.000155,28.362394 15.876391,28.824599 15.506622,29.706645 L 13.787368,31.644803 L 14.034025,31.77844 L 18.535937,28.129167 L 25.126847,25.816135 C 26.927142,26.582813 30.079593,25.033523 31.033966,23.285027 C 31.915668,21.66967 32.016063,18.32006 31.764006,15.112723 C 31.705614,14.600555 31.747632,14.121567 31.978557,13.659134 L 33.630497,11.040211 z"
           id="path6502"
           sodipodi:nodetypes="cccsscccccccccsccc" />
      </g>
    </g>
  </g>
</svg>
