<?xml version="1.0" encoding="UTF-8"?>
<svg xmlns="http://www.w3.org/2000/svg" xmlns:xlink="http://www.w3.org/1999/xlink" xmlns:sodipodi="http://sodipodi.sourceforge.net/DTD/sodipodi-0.dtd" contentScriptType="text/ecmascript" zoomAndPan="magnify" baseProfile="tiny" contentStyleType="text/css" version="1.0" width="48px" preserveAspectRatio="xMidYMid meet" viewBox="0 0 48 48" height="48px">
    <defs>
        <linearGradient xlink:type="simple" xlink:actuate="onLoad" id="linearGradient7138" xlink:show="other">
            <stop stop-opacity="1" stop-color="#ffffff" offset="0"/>
            <stop stop-opacity="0" stop-color="#ffffff" offset="1"/>
        </linearGradient>
        <linearGradient xlink:type="simple" xlink:actuate="onLoad" id="linearGradient7087" xlink:show="other">
            <stop stop-opacity="1" stop-color="#888a85" offset="0"/>
            <stop stop-opacity="1" stop-color="#b8b9b6" offset="1"/>
        </linearGradient>
        <linearGradient xlink:type="simple" xlink:actuate="onLoad" id="linearGradient7079" xlink:show="other">
            <stop stop-opacity="1" stop-color="#000000" offset="0"/>
            <stop stop-opacity="0" stop-color="#000000" offset="1"/>
        </linearGradient>
        <linearGradient xlink:type="simple" xlink:actuate="onLoad" id="linearGradient7069" xlink:show="other">
            <stop stop-opacity="1" stop-color="#888a85" offset="0"/>
            <stop stop-opacity="0" stop-color="#888a85" offset="1"/>
        </linearGradient>
        <radialGradient gradientUnits="userSpaceOnUse" xlink:type="simple" r="14.1515" xlink:actuate="onLoad" cx="9.3418" id="aigrd4" cy="22.6138" xlink:show="other" fx="9.3418" fy="22.6138">
            <stop stop-color="#767676" offset="0"/>
            <stop stop-color="#484848" offset="1"/>
        </radialGradient>
        <radialGradient gradientTransform="translate(1.971678,9.220141)" id="radialGradient6540" gradientUnits="userSpaceOnUse" xlink:show="other" xlink:type="simple" r="14.1515" cx="20.655508" fx="20.655508" cy="24.735121" fy="24.735121" xlink:actuate="onLoad">
            <stop offset="0" stop-color="#767676"/>
            <stop offset="1" stop-color="#484848"/>
        </radialGradient>
        <linearGradient gradientTransform="matrix(0.884878,0,0,0.884878,5.318113,5.943159)" id="linearGradient7075" gradientUnits="userSpaceOnUse" xlink:show="other" xlink:type="simple" x1="46.54464" y1="35.24506" y2="34.140205" x2="40.820396" xlink:actuate="onLoad">
            <stop stop-opacity="1" stop-color="#888a85" offset="0"/>
            <stop stop-opacity="0" stop-color="#888a85" offset="1"/>
        </linearGradient>
        <radialGradient gradientTransform="matrix(1,0,0,0.663934,0,9.061528)" id="radialGradient7085" gradientUnits="userSpaceOnUse" xlink:show="other" xlink:type="simple" r="21.566757" cx="23.157747" fx="23.157747" cy="26.963573" fy="26.963573" xlink:actuate="onLoad">
            <stop stop-opacity="1" stop-color="#000000" offset="0"/>
            <stop stop-opacity="0" stop-color="#000000" offset="1"/>
        </radialGradient>
        <linearGradient x1="23.816254" y1="12.75" x2="29.049412" gradientUnits="userSpaceOnUse" y2="25.772396" xlink:type="simple" xlink:actuate="onLoad" id="linearGradient7093" xlink:show="other">
            <stop stop-opacity="1" stop-color="#888a85" offset="0"/>
            <stop stop-opacity="1" stop-color="#b8b9b6" offset="1"/>
        </linearGradient>
        <linearGradient gradientTransform="translate(0,2)" id="linearGradient7144" gradientUnits="userSpaceOnUse" xlink:show="other" xlink:type="simple" x1="43.6875" y1="32.133045" y2="32.133045" x2="26.625" xlink:actuate="onLoad">
            <stop stop-opacity="1" stop-color="#ffffff" offset="0"/>
            <stop stop-opacity="0" stop-color="#ffffff" offset="1"/>
        </linearGradient>
    </defs>
    <g>
        <path fill-opacity="0.70329674" display="inline" stroke="none" d="M 44.724503 26.963572 C 44.724503 34.87169 35.068737 41.282486 23.157745 41.282486 C 11.246756 41.282486 1.5909901 34.87169 1.5909901 26.963572 C 1.5909901 19.055454 11.246756 12.644657 23.157745 12.644657 C 35.068737 12.644657 44.724503 19.055454 44.724503 26.963572 z " visibility="visible" stroke-linecap="round" transform="translate(1.237437,0.762563)" stroke-miterlimit="4" stroke-opacity="1" fill="url(#radialGradient7085)" stroke-dasharray="none" stroke-width="1" color="#000000" stroke-linejoin="round" stroke-dashoffset="0" fill-rule="evenodd"/>
        <path fill-opacity="1" display="inline" stroke="#6d6f6a" d="M 40.5 21.0 C 40.5 25.556349 33.8962 29.25 25.75 29.25 C 17.6038 29.25 11.0 25.556349 11.0 21.0 C 11.0 16.443651 17.6038 12.75 25.75 12.75 C 33.8962 12.75 40.5 16.443651 40.5 21.0 z " visibility="visible" stroke-linecap="round" transform="matrix(1.254237,0,0,1.541926,-9.79661,-6.279528)" stroke-miterlimit="4" stroke-opacity="1" fill="#a1a39f" stroke-dasharray="none" stroke-width="0.7190817" color="#000000" stroke-linejoin="round" stroke-dashoffset="0" fill-rule="evenodd"/>
        <path fill-opacity="1" display="inline" stroke="none" d="M 40.5 21.0 C 40.5 25.556349 33.8962 29.25 25.75 29.25 C 17.6038 29.25 11.0 25.556349 11.0 21.0 C 11.0 16.443651 17.6038 12.75 25.75 12.75 C 33.8962 12.75 40.5 16.443651 40.5 21.0 z " visibility="visible" stroke-linecap="round" transform="matrix(0.764011,0,0,1.001814,2.310475,2.543083)" stroke-miterlimit="4" stroke-opacity="1" fill="#555753" stroke-dasharray="none" stroke-width="1.11522388" color="#000000" stroke-linejoin="round" stroke-dashoffset="0" fill-rule="evenodd"/>
        <path fill="url(#radialGradient6540)" fill-rule="nonzero" d="M 46.025803 41.22623 C 46.025803 41.22623 37.70191 37.489223 32.369804 37.959515 C 26.686792 38.46075 17.193027 38.79695 13.471708 32.920177 C 29.269804 37.68464 36.558697 29.774427 47.251087 34.22969 C 47.251087 34.22969 46.025803 41.22623 46.025803 41.22623 z " stroke="#3b3d39" stroke-opacity="1" stroke-miterlimit="4"/>
        <path fill-opacity="1" display="inline" stroke="#757972" d="M 40.5 21.0 C 40.5 25.556349 33.8962 29.25 25.75 29.25 C 17.6038 29.25 11.0 25.556349 11.0 21.0 C 11.0 16.443651 17.6038 12.75 25.75 12.75 C 33.8962 12.75 40.5 16.443651 40.5 21.0 z " visibility="visible" stroke-linecap="round" transform="matrix(0.760969,0,0,0.986663,2.905048,0.584267)" stroke-miterlimit="4" stroke-opacity="1" fill="url(#linearGradient7093)" stroke-dasharray="none" stroke-width="1.23408842" color="#000000" stroke-linejoin="round" stroke-dashoffset="0" fill-rule="evenodd"/>
        <path fill-opacity="1" display="inline" stroke="#888a85" d="M 21.09375 7.71875 C 11.536229 8.244424 4.0 14.13337 4.0 21.25 C 4.0 28.711046 12.288003 34.781254 22.5 34.78125 C 32.711998 34.78125 41.0 28.711044 41.0 21.25 C 41.0 13.788954 32.711998 7.71875 22.5 7.71875 C 22.460108 7.71875 22.414831 7.7185655 22.375 7.71875 C 22.136944 7.719853 21.892094 7.7111096 21.65625 7.71875 C 21.541092 7.722481 21.4271 7.7134786 21.3125 7.71875 C 21.236996 7.722224 21.169006 7.714611 21.09375 7.71875 z M 19.71875 9.90625 C 19.782003 9.901143 19.84234 9.90972 19.90625 9.90625 C 20.040354 9.898969 20.175795 9.90625 20.3125 9.90625 C 23.228891 9.90625 25.59375 11.608453 25.59375 13.6875 C 25.59375 15.766547 23.228891 17.4375 20.3125 17.4375 C 17.396109 17.4375 15.03125 15.766547 15.03125 13.6875 C 15.03125 11.752352 17.083204 10.119037 19.71875 9.90625 z M 31.21875 14.5 C 31.285397 14.494037 31.338936 14.504252 31.40625 14.5 C 31.523003 14.492625 31.631386 14.502149 31.75 14.5 C 31.7982 14.499127 31.826508 14.5 31.875 14.5 C 34.97845 14.5 37.5 16.314203 37.5 18.53125 C 37.5 20.748297 34.978455 22.53125 31.875 22.53125 C 28.771545 22.531252 26.25 20.748297 26.25 18.53125 C 26.25 16.483248 28.441784 14.748443 31.21875 14.5 z M 12.0 17.65625 C 12.217826 17.638428 12.463035 17.65625 12.6875 17.65625 C 15.879889 17.65625 18.46875 19.498598 18.46875 21.78125 C 18.46875 24.063902 15.879889 25.90625 12.6875 25.90625 C 9.495112 25.90625 6.90625 24.063902 6.90625 21.78125 C 6.90625 19.659098 9.119854 17.891914 12.0 17.65625 z M 23.53125 22.78125 C 23.555223 22.778463 23.56969 22.78384 23.59375 22.78125 C 23.5965 22.781132 23.622452 22.781216 23.625 22.78125 C 23.627552 22.781296 23.653492 22.781347 23.65625 22.78125 C 23.662493 22.781357 23.684305 22.781364 23.6875 22.78125 C 23.713652 22.781427 23.755013 22.780869 23.78125 22.78125 C 23.78446 22.781172 23.806269 22.781168 23.8125 22.78125 C 24.053476 22.761473 24.28293 22.78125 24.53125 22.78125 C 28.062916 22.78125 30.9375 24.810812 30.9375 27.34375 C 30.9375 29.87669 28.062916 31.9375 24.53125 31.9375 C 20.999584 31.9375 18.125 29.876688 18.125 27.34375 C 18.125 25.06178 20.486444 23.13504 23.53125 22.78125 z " visibility="visible" stroke-linecap="round" stroke-miterlimit="4" stroke-opacity="1" fill="#d3d7cf" stroke-dasharray="none" stroke-width="1" color="#000000" stroke-linejoin="round" stroke-dashoffset="0" fill-rule="evenodd"/>
        <path fill-opacity="0.5" display="inline" stroke="#ffffff" d="M 40.65864 19.00862 C 40.65864 26.428581 32.387924 32.44365 22.185474 32.44365 C 11.983027 32.44365 3.712309 26.428581 3.712309 19.00862 C 3.712309 11.588657 11.983027 5.57359 22.185474 5.57359 C 32.387924 5.57359 40.65864 11.588657 40.65864 19.00862 z " visibility="visible" stroke-linecap="round" transform="matrix(0.950533,0,0,0.9375,1.450995,3.320621)" stroke-miterlimit="4" stroke-opacity="1" fill="none" stroke-dasharray="none" stroke-width="1.05932878999999990" color="#000000" stroke-linejoin="round" stroke-dashoffset="0" fill-rule="evenodd"/>
        <path fill-opacity="1" display="inline" stroke="none" d="M 46.875 34.493904 L 45.79344 40.543896 C 43.18442 39.66846 41.61139 38.97574 38.72227 38.287037 L 39.0541 33.37439 C 40.952633 33.173084 43.91738 33.516125 46.875 34.493904 z " visibility="visible" stroke-linecap="round" stroke-miterlimit="4" stroke-opacity="1" fill="url(#linearGradient7075)" stroke-dasharray="none" stroke-width="1" color="#000000" stroke-linejoin="round" stroke-dashoffset="0" fill-rule="evenodd"/>
        <path fill-opacity="0.70329674" display="inline" stroke="none" d="M 46.875 34.3125 L 46.6875 35.1875 C 38.5826 32.158615 31.121435 34.96078 23.3125 35.1875 C 33.923553 34.30492 37.402744 31.471844 46.875 34.3125 z " visibility="visible" stroke-linecap="round" stroke-miterlimit="4" stroke-opacity="1" fill="url(#linearGradient7144)" stroke-dasharray="none" stroke-width="1" color="#000000" stroke-linejoin="round" stroke-dashoffset="0" fill-rule="evenodd"/>
    </g>
</svg>
