<?xml version="1.0" encoding="UTF-8"?>
<svg xmlns="http://www.w3.org/2000/svg" xmlns:xlink="http://www.w3.org/1999/xlink" contentScriptType="text/ecmascript" width="88" baseProfile="tiny" zoomAndPan="magnify" contentStyleType="text/css" viewBox="0 0 88 88" height="88" preserveAspectRatio="xMidYMid meet" version="1.0">
    <defs>
        <linearGradient xlink:type="simple" xlink:actuate="onLoad" id="linearGradient3823" xlink:show="other">
            <stop stop-opacity="1" stop-color="#ef2929" offset="0"/>
            <stop stop-opacity="0" stop-color="#ef2929" offset="1"/>
        </linearGradient>
        <linearGradient gradientTransform="matrix(1.0009031,0,0,1.0375154,13.968358,13.026617)" id="linearGradient3823" gradientUnits="userSpaceOnUse" xlink:show="other" xlink:type="simple" x1="15.821683" y1="15.989761" x2="14.372151" y2="14.54023" xlink:actuate="onLoad">
            <stop stop-opacity="1" stop-color="#ef2929" offset="0"/>
            <stop stop-opacity="0" stop-color="#ef2929" offset="1"/>
        </linearGradient>
        <linearGradient xlink:type="simple" xlink:actuate="onLoad" id="linearGradient3815" xlink:show="other">
            <stop stop-opacity="1" stop-color="#ef2929" offset="0"/>
            <stop stop-opacity="0" stop-color="#ef2929" offset="1"/>
        </linearGradient>
        <linearGradient gradientTransform="matrix(1.0009031,0,0,1.0375154,13.968358,13.026617)" id="linearGradient3815" gradientUnits="userSpaceOnUse" xlink:show="other" xlink:type="simple" x1="15.291184" y1="6.4436507" x2="17.416643" y2="4.3181915" xlink:actuate="onLoad">
            <stop stop-opacity="1" stop-color="#ef2929" offset="0"/>
            <stop stop-opacity="0" stop-color="#ef2929" offset="1"/>
        </linearGradient>
        <linearGradient xlink:type="simple" xlink:actuate="onLoad" id="linearGradient3831" xlink:show="other">
            <stop stop-opacity="1" stop-color="#ef2929" offset="0"/>
            <stop stop-opacity="0" stop-color="#ef2929" offset="1"/>
        </linearGradient>
        <linearGradient gradientTransform="matrix(1.0009031,0,0,1.0375154,13.968358,13.026617)" id="linearGradient3831" gradientUnits="userSpaceOnUse" xlink:show="other" xlink:type="simple" x1="6.4302521" y1="15.967495" x2="8.122447" y2="14.2753" xlink:actuate="onLoad">
            <stop stop-opacity="1" stop-color="#ef2929" offset="0"/>
            <stop stop-opacity="0" stop-color="#ef2929" offset="1"/>
        </linearGradient>
        <linearGradient gradientTransform="matrix(1.0009031,0,0,1.0375154,13.968358,13.026617)" id="linearGradient3807" gradientUnits="userSpaceOnUse" xlink:show="other" xlink:type="simple" x1="6.055223" y1="6.3116894" x2="4.4831853" y2="4.7396517" xlink:actuate="onLoad">
            <stop stop-opacity="1" stop-color="#ef2929" offset="0"/>
            <stop stop-opacity="0" stop-color="#ef2929" offset="1"/>
        </linearGradient>
        <linearGradient xlink:type="simple" xlink:actuate="onLoad" id="linearGradient3839" xlink:show="other">
            <stop stop-opacity="1" stop-color="#FFFFFF" offset="0"/>
            <stop stop-opacity="1" stop-color="#eeeeec" offset="1"/>
        </linearGradient>
        <radialGradient gradientTransform="matrix(0.5004516,0,0,0.5182883,12.967455,12.417459)" id="linearGradient3839" gradientUnits="userSpaceOnUse" xlink:show="other" xlink:type="simple" r="19.5" cx="24" fx="24" cy="22.136841" fy="22.136841" xlink:actuate="onLoad">
            <stop stop-opacity="1" stop-color="#FFFFFF" offset="0"/>
            <stop stop-opacity="1" stop-color="#eeeeec" offset="1"/>
        </radialGradient>
        <linearGradient xlink:type="simple" xlink:actuate="onLoad" id="linearGradient8089" xlink:show="other">
            <stop stop-opacity="1" stop-color="#000000" offset="0"/>
            <stop stop-opacity="0" stop-color="#000000" offset="1"/>
        </linearGradient>
        <radialGradient gradientTransform="matrix(1.658923,0,0,1.6075643,-17.038135,-18.069862)" id="linearGradient8089" gradientUnits="userSpaceOnUse" xlink:show="other" xlink:type="simple" r="12.048545" cx="25.85755" fx="25.85755" cy="29.541006" fy="29.541006" xlink:actuate="onLoad">
            <stop stop-opacity="1" stop-color="#000000" offset="0"/>
            <stop stop-opacity="0" stop-color="#000000" offset="1"/>
        </radialGradient>
        <linearGradient xlink:type="simple" xlink:actuate="onLoad" id="linearGradient6764" xlink:show="other">
            <stop stop-opacity="1" stop-color="#000000" offset="0"/>
            <stop stop-opacity="0" stop-color="#000000" offset="1"/>
        </linearGradient>
        <radialGradient gradientTransform="matrix(0.901746,7.393792e-3,-1.201839e-3,0.329372,2.127997,26.71591)" id="radialGradient6774" gradientUnits="userSpaceOnUse" xlink:show="other" xlink:type="simple" r="17.02107" cx="21.148216" fx="21.148216" cy="41.692692" fy="41.692692" xlink:actuate="onLoad">
            <stop stop-opacity="1" stop-color="#000000" offset="0"/>
            <stop stop-opacity="0" stop-color="#000000" offset="1"/>
        </radialGradient>
        <linearGradient xlink:type="simple" xlink:actuate="onLoad" id="linearGradient3957" xlink:show="other">
            <stop stop-opacity="0.33333334" stop-color="#fffeff" offset="0"/>
            <stop stop-opacity="0.21568628" stop-color="#fffeff" offset="1"/>
        </linearGradient>
        <linearGradient gradientTransform="matrix(0.509273,0,0,0.473768,79.162491,1.132317)" id="linearGradient3957" gradientUnits="userSpaceOnUse" xlink:show="other" xlink:type="simple" x1="21.993773" y1="33.955299" x2="20.917078" y2="15.814602" xlink:actuate="onLoad">
            <stop stop-opacity="0.33333334" stop-color="#fffeff" offset="0"/>
            <stop stop-opacity="0.21568628" stop-color="#fffeff" offset="1"/>
        </linearGradient>
        <linearGradient xlink:type="simple" xlink:actuate="onLoad" id="linearGradient11503" xlink:show="other">
            <stop stop-opacity="1" stop-color="#729fcf" offset="0"/>
            <stop stop-opacity="1" stop-color="#3465a4" offset="1"/>
        </linearGradient>
        <linearGradient x1="31.542158" y1="27.633146" x2="39.232777" gradientUnits="userSpaceOnUse" y2="40.738911" xlink:type="simple" xlink:actuate="onLoad" id="linearGradient11503" xlink:show="other">
            <stop stop-opacity="1" stop-color="#729fcf" offset="0"/>
            <stop stop-opacity="1" stop-color="#3465a4" offset="1"/>
        </linearGradient>
        <linearGradient xlink:type="simple" xlink:actuate="onLoad" id="linearGradient11521" xlink:show="other">
            <stop stop-opacity="1" stop-color="#000000" offset="0"/>
            <stop stop-opacity="0" stop-color="#000000" offset="1"/>
        </linearGradient>
        <radialGradient gradientTransform="matrix(0.93716,5.010655e-6,-1.282451e-6,0.239994,2.175866,34.06314)" id="linearGradient11521" gradientUnits="userSpaceOnUse" xlink:show="other" xlink:type="simple" r="10.937500" cx="34.625000" fx="34.625000" cy="46.352013" fy="46.352013" xlink:actuate="onLoad">
            <stop stop-opacity="1" stop-color="#000000" offset="0"/>
            <stop stop-opacity="0" stop-color="#000000" offset="1"/>
        </radialGradient>
        <radialGradient gradientTransform="matrix(1,0,0,0.374558,0,24.47041)" gradientUnits="userSpaceOnUse" xlink:type="simple" r="17.6875" xlink:actuate="onLoad" cx="24.8125" cy="39.125" xlink:show="other" fx="24.8125" fy="39.125">
            <stop stop-opacity="1" stop-color="#000000" offset="0"/>
            <stop stop-opacity="0" stop-color="#000000" offset="1"/>
        </radialGradient>
        <linearGradient x1="30.5" y1="0.033532728" x2="30.5" gradientUnits="userSpaceOnUse" y2="23.559282" xlink:type="simple" xlink:actuate="onLoad" id="linearGradient6543" xlink:show="other">
            <stop stop-opacity="1" stop-color="#ffffff" offset="0"/>
            <stop stop-opacity="0" stop-color="#ffffff" offset="1"/>
        </linearGradient>
        <linearGradient xlink:type="simple" xlink:actuate="onLoad" xlink:show="other">
            <stop stop-opacity="1" stop-color="#729fcf" offset="0"/>
            <stop stop-opacity="1" stop-color="#3465a4" offset="1"/>
        </linearGradient>
        <linearGradient xlink:type="simple" xlink:actuate="onLoad" id="linearGradient3807" xlink:show="other">
            <stop stop-opacity="1" stop-color="#ef2929" offset="0"/>
            <stop stop-opacity="0" stop-color="#ef2929" offset="1"/>
        </linearGradient>
        <linearGradient x1="16.125" y1="7.5312462" x2="47.125" gradientUnits="userSpaceOnUse" y2="45.656246" xlink:type="simple" xlink:actuate="onLoad" id="linearGradient3807" xlink:show="other">
            <stop stop-opacity="1" stop-color="#ef2929" offset="0"/>
            <stop stop-opacity="0" stop-color="#ef2929" offset="1"/>
        </linearGradient>
        <linearGradient xlink:type="simple" xlink:actuate="onLoad" id="linearGradient4547" xlink:show="other">
            <stop stop-opacity="1" stop-color="#FFFFFF" offset="0"/>
            <stop stop-opacity="0" stop-color="#FFFFFF" offset="1"/>
        </linearGradient>
        <linearGradient gradientTransform="matrix(0.8823527,0,0,0.726245,3,3.4637946)" id="linearGradient4547" gradientUnits="userSpaceOnUse" xlink:show="other" xlink:type="simple" x1="21.142857" y1="8.5714283" x2="22.453627" y2="25.181578" xlink:actuate="onLoad">
            <stop stop-opacity="1" stop-color="#FFFFFF" offset="0"/>
            <stop stop-opacity="0" stop-color="#FFFFFF" offset="1"/>
        </linearGradient>
        <linearGradient xlink:type="simple" xlink:actuate="onLoad" id="linearGradient3799" xlink:show="other">
            <stop stop-opacity="1" stop-color="#ffffff" offset="0"/>
            <stop stop-opacity="0" stop-color="#ffffff" offset="1"/>
        </linearGradient>
        <linearGradient gradientTransform="matrix(1,0,0,0.9991486,0,3.7036169e-2)" id="linearGradient3799" gradientUnits="userSpaceOnUse" xlink:show="other" xlink:type="simple" x1="11.437499" y1="6.1083822" x2="38.375" y2="37.733383" xlink:actuate="onLoad">
            <stop stop-opacity="1" stop-color="#ffffff" offset="0"/>
            <stop stop-opacity="0" stop-color="#ffffff" offset="1"/>
        </linearGradient>
        <linearGradient xlink:type="simple" xlink:actuate="onLoad" id="linearGradient3835" xlink:show="other">
            <stop stop-opacity="1" stop-color="#d7d9d5" offset="0"/>
            <stop stop-opacity="1" stop-color="#b9bcb5" offset="0.5"/>
            <stop stop-opacity="1" stop-color="#d7d9d5" offset="1"/>
        </linearGradient>
        <linearGradient gradientTransform="matrix(1,0,0,0.9991892,0,3.6043804e-2)" id="linearGradient3835" gradientUnits="userSpaceOnUse" xlink:show="other" xlink:type="simple" x1="23.6875" y1="23.960518" x2="39.75" y2="23.960518" xlink:actuate="onLoad">
            <stop stop-opacity="1" stop-color="#d7d9d5" offset="0"/>
            <stop stop-opacity="1" stop-color="#b9bcb5" offset="0.5"/>
            <stop stop-opacity="1" stop-color="#d7d9d5" offset="1"/>
        </linearGradient>
        <radialGradient gradientTransform="matrix(-1.050733,1.050733,-0.825077,-0.825077,69.79845,3.974823)" gradientUnits="userSpaceOnUse" xlink:type="simple" r="21.205021" xlink:actuate="onLoad" cx="25.397615" cy="18.51367" xlink:show="other" fx="25.397615" fy="18.51367">
            <stop stop-opacity="1" stop-color="#5c3566" offset="0"/>
            <stop stop-opacity="0" stop-color="#5c3566" offset="1"/>
        </radialGradient>
        <radialGradient gradientTransform="matrix(0,2.234074,-1.875741,0,49.33379,-48.7898)" gradientUnits="userSpaceOnUse" xlink:type="simple" r="18.769213" xlink:actuate="onLoad" cx="26.415443" cy="11.787436" xlink:show="other" fx="26.415443" fy="11.787436">
            <stop stop-opacity="1" stop-color="#ad7fa8" offset="0"/>
            <stop stop-opacity="1" stop-color="#ad7fa8" offset="1"/>
        </radialGradient>
        <linearGradient x1="29.57472" y1="17.800808" x2="29.57472" gradientUnits="userSpaceOnUse" y2="51.458286" xlink:type="simple" xlink:actuate="onLoad" xlink:show="other">
            <stop stop-opacity="1" stop-color="#75507b" offset="0"/>
            <stop stop-opacity="1" stop-color="#ad7fa8" offset="1"/>
        </linearGradient>
        <radialGradient gradientTransform="matrix(0,1.934247,-1.875741,0,49.33379,-40.86975)" gradientUnits="userSpaceOnUse" xlink:type="simple" r="18.769213" xlink:actuate="onLoad" cx="26.415443" cy="11.787436" xlink:show="other" fx="26.415443" fy="11.787436">
            <stop stop-opacity="1" stop-color="#8ae234" offset="0"/>
            <stop stop-opacity="0" stop-color="#73d216" offset="1"/>
        </radialGradient>
        <radialGradient gradientTransform="matrix(-0.206566,0.770914,-1.392812,-0.373203,61.67344,16.76019)" gradientUnits="userSpaceOnUse" xlink:type="simple" r="21.205021" xlink:actuate="onLoad" cx="9.8163519" cy="25.721907" xlink:show="other" fx="9.8163519" fy="25.721907">
            <stop stop-opacity="1" stop-color="#4e9a06" offset="0"/>
            <stop stop-opacity="0" stop-color="#4e9a06" offset="1"/>
        </radialGradient>
        <linearGradient x1="29.57472" y1="10.923145" x2="29.57472" gradientUnits="userSpaceOnUse" y2="47.859665" xlink:type="simple" xlink:actuate="onLoad" xlink:show="other">
            <stop stop-opacity="1" stop-color="#73d216" offset="0"/>
            <stop stop-opacity="1" stop-color="#8ae234" offset="1"/>
        </linearGradient>
        <radialGradient gradientTransform="matrix(1.114829,0,0,0.217949,-2.902778,33.32188)" gradientUnits="userSpaceOnUse" xlink:type="simple" r="20.682873" xlink:actuate="onLoad" cx="25.279068" cy="42.608311" xlink:show="other" fx="25.279068" fy="42.608311">
            <stop stop-opacity="1" stop-color="#babdb6" offset="0"/>
            <stop stop-opacity="0" stop-color="#babdb6" offset="1"/>
        </radialGradient>
        <linearGradient xlink:type="simple" xlink:actuate="onLoad" xlink:show="other">
            <stop stop-opacity="1" stop-color="#4e9a06" offset="0"/>
            <stop stop-opacity="0" stop-color="#4e9a06" offset="1"/>
        </linearGradient>
        <linearGradient xlink:type="simple" xlink:actuate="onLoad" xlink:show="other">
            <stop stop-opacity="1" stop-color="#8ae234" offset="0"/>
            <stop stop-opacity="0" stop-color="#73d216" offset="1"/>
        </linearGradient>
        <linearGradient xlink:type="simple" xlink:actuate="onLoad" xlink:show="other">
            <stop stop-opacity="1" stop-color="#73d216" offset="0"/>
            <stop stop-opacity="1" stop-color="#8ae234" offset="1"/>
        </linearGradient>
        <linearGradient xlink:type="simple" xlink:actuate="onLoad" xlink:show="other">
            <stop stop-opacity="1" stop-color="#babdb6" offset="0"/>
            <stop stop-opacity="0" stop-color="#babdb6" offset="1"/>
        </linearGradient>
        <linearGradient xlink:type="simple" xlink:actuate="onLoad" xlink:show="other">
            <stop stop-opacity="1" stop-color="#ad7fa8" offset="0"/>
            <stop stop-opacity="1" stop-color="#ad7fa8" offset="1"/>
        </linearGradient>
        <linearGradient xlink:type="simple" xlink:actuate="onLoad" xlink:show="other">
            <stop stop-opacity="1" stop-color="#75507b" offset="0"/>
            <stop stop-opacity="1" stop-color="#ad7fa8" offset="1"/>
        </linearGradient>
        <linearGradient xlink:type="simple" xlink:actuate="onLoad" xlink:show="other">
            <stop stop-opacity="1" stop-color="#5c3566" offset="0"/>
            <stop stop-opacity="0" stop-color="#5c3566" offset="1"/>
        </linearGradient>
        <radialGradient gradientTransform="matrix(1.658923,0,0,1.6075643,-17.038135,-18.069862)" id="linearGradient8089" gradientUnits="userSpaceOnUse" xlink:show="other" xlink:type="simple" r="12.048545" cx="25.85755" fx="25.85755" cy="29.541006" fy="29.541006" xlink:actuate="onLoad">
            <stop stop-opacity="1" stop-color="#000000" offset="0"/>
            <stop stop-opacity="0" stop-color="#000000" offset="1"/>
        </radialGradient>
        <radialGradient gradientTransform="matrix(0.5004516,0,0,0.5182883,12.967455,12.417459)" id="linearGradient3839" gradientUnits="userSpaceOnUse" xlink:show="other" xlink:type="simple" r="19.5" cx="24" fx="24" cy="22.136841" fy="22.136841" xlink:actuate="onLoad">
            <stop stop-opacity="1" stop-color="#FFFFFF" offset="0"/>
            <stop stop-opacity="1" stop-color="#eeeeec" offset="1"/>
        </radialGradient>
        <linearGradient gradientTransform="matrix(1.0009031,0,0,1.0375154,13.968358,13.026617)" id="linearGradient3807" gradientUnits="userSpaceOnUse" xlink:show="other" xlink:type="simple" x1="6.055223" y1="6.3116894" x2="4.4831853" y2="4.7396517" xlink:actuate="onLoad">
            <stop stop-opacity="1" stop-color="#ef2929" offset="0"/>
            <stop stop-opacity="0" stop-color="#ef2929" offset="1"/>
        </linearGradient>
        <linearGradient gradientTransform="matrix(1.0009031,0,0,1.0375154,13.968358,13.026617)" id="linearGradient3831" gradientUnits="userSpaceOnUse" xlink:show="other" xlink:type="simple" x1="6.4302521" y1="15.967495" x2="8.122447" y2="14.2753" xlink:actuate="onLoad">
            <stop stop-opacity="1" stop-color="#ef2929" offset="0"/>
            <stop stop-opacity="0" stop-color="#ef2929" offset="1"/>
        </linearGradient>
        <linearGradient gradientTransform="matrix(1.0009031,0,0,1.0375154,13.968358,13.026617)" id="linearGradient3815" gradientUnits="userSpaceOnUse" xlink:show="other" xlink:type="simple" x1="15.291184" y1="6.4436507" x2="17.416643" y2="4.3181915" xlink:actuate="onLoad">
            <stop stop-opacity="1" stop-color="#ef2929" offset="0"/>
            <stop stop-opacity="0" stop-color="#ef2929" offset="1"/>
        </linearGradient>
        <linearGradient gradientTransform="matrix(1.0009031,0,0,1.0375154,13.968358,13.026617)" id="linearGradient3823" gradientUnits="userSpaceOnUse" xlink:show="other" xlink:type="simple" x1="15.821683" y1="15.989761" x2="14.372151" y2="14.54023" xlink:actuate="onLoad">
            <stop stop-opacity="1" stop-color="#ef2929" offset="0"/>
            <stop stop-opacity="0" stop-color="#ef2929" offset="1"/>
        </linearGradient>
        <radialGradient gradientTransform="matrix(1.658923,0,0,1.6075643,-17.038135,-18.069862)" id="linearGradient8089" gradientUnits="userSpaceOnUse" xlink:show="other" xlink:type="simple" r="12.048545" cx="25.85755" fx="25.85755" cy="29.541006" fy="29.541006" xlink:actuate="onLoad">
            <stop stop-opacity="1" stop-color="#000000" offset="0"/>
            <stop stop-opacity="0" stop-color="#000000" offset="1"/>
        </radialGradient>
        <radialGradient gradientTransform="matrix(0.5004516,0,0,0.5182883,12.967455,12.417459)" id="linearGradient3839" gradientUnits="userSpaceOnUse" xlink:show="other" xlink:type="simple" r="19.5" cx="24" fx="24" cy="22.136841" fy="22.136841" xlink:actuate="onLoad">
            <stop stop-opacity="1" stop-color="#FFFFFF" offset="0"/>
            <stop stop-opacity="1" stop-color="#eeeeec" offset="1"/>
        </radialGradient>
        <linearGradient gradientTransform="matrix(1.0009031,0,0,1.0375154,13.968358,13.026617)" id="linearGradient3807" gradientUnits="userSpaceOnUse" xlink:show="other" xlink:type="simple" x1="6.055223" y1="6.3116894" x2="4.4831853" y2="4.7396517" xlink:actuate="onLoad">
            <stop stop-opacity="1" stop-color="#ef2929" offset="0"/>
            <stop stop-opacity="0" stop-color="#ef2929" offset="1"/>
        </linearGradient>
        <linearGradient gradientTransform="matrix(1.0009031,0,0,1.0375154,13.968358,13.026617)" id="linearGradient3831" gradientUnits="userSpaceOnUse" xlink:show="other" xlink:type="simple" x1="6.4302521" y1="15.967495" x2="8.122447" y2="14.2753" xlink:actuate="onLoad">
            <stop stop-opacity="1" stop-color="#ef2929" offset="0"/>
            <stop stop-opacity="0" stop-color="#ef2929" offset="1"/>
        </linearGradient>
        <linearGradient gradientTransform="matrix(1.0009031,0,0,1.0375154,13.968358,13.026617)" id="linearGradient3815" gradientUnits="userSpaceOnUse" xlink:show="other" xlink:type="simple" x1="15.291184" y1="6.4436507" x2="17.416643" y2="4.3181915" xlink:actuate="onLoad">
            <stop stop-opacity="1" stop-color="#ef2929" offset="0"/>
            <stop stop-opacity="0" stop-color="#ef2929" offset="1"/>
        </linearGradient>
        <linearGradient gradientTransform="matrix(1.0009031,0,0,1.0375154,13.968358,13.026617)" id="linearGradient3823" gradientUnits="userSpaceOnUse" xlink:show="other" xlink:type="simple" x1="15.821683" y1="15.989761" x2="14.372151" y2="14.54023" xlink:actuate="onLoad">
            <stop stop-opacity="1" stop-color="#ef2929" offset="0"/>
            <stop stop-opacity="0" stop-color="#ef2929" offset="1"/>
        </linearGradient>
        <radialGradient gradientTransform="matrix(1.658923,0,0,1.6075643,-17.038135,-18.069862)" id="linearGradient8089" gradientUnits="userSpaceOnUse" xlink:show="other" xlink:type="simple" r="12.048545" cx="25.85755" fx="25.85755" cy="29.541006" fy="29.541006" xlink:actuate="onLoad">
            <stop stop-opacity="1" stop-color="#000000" offset="0"/>
            <stop stop-opacity="0" stop-color="#000000" offset="1"/>
        </radialGradient>
        <radialGradient gradientTransform="matrix(0.5004516,0,0,0.5182883,12.967455,12.417459)" id="linearGradient3839" gradientUnits="userSpaceOnUse" xlink:show="other" xlink:type="simple" r="19.5" cx="24" fx="24" cy="22.136841" fy="22.136841" xlink:actuate="onLoad">
            <stop stop-opacity="1" stop-color="#FFFFFF" offset="0"/>
            <stop stop-opacity="1" stop-color="#eeeeec" offset="1"/>
        </radialGradient>
        <linearGradient gradientTransform="matrix(1.0009031,0,0,1.0375154,13.968358,13.026617)" id="linearGradient3807" gradientUnits="userSpaceOnUse" xlink:show="other" xlink:type="simple" x1="6.055223" y1="6.3116894" x2="4.4831853" y2="4.7396517" xlink:actuate="onLoad">
            <stop stop-opacity="1" stop-color="#ef2929" offset="0"/>
            <stop stop-opacity="0" stop-color="#ef2929" offset="1"/>
        </linearGradient>
        <linearGradient gradientTransform="matrix(1.0009031,0,0,1.0375154,13.968358,13.026617)" id="linearGradient3831" gradientUnits="userSpaceOnUse" xlink:show="other" xlink:type="simple" x1="6.4302521" y1="15.967495" x2="8.122447" y2="14.2753" xlink:actuate="onLoad">
            <stop stop-opacity="1" stop-color="#ef2929" offset="0"/>
            <stop stop-opacity="0" stop-color="#ef2929" offset="1"/>
        </linearGradient>
        <linearGradient gradientTransform="matrix(1.0009031,0,0,1.0375154,13.968358,13.026617)" id="linearGradient3815" gradientUnits="userSpaceOnUse" xlink:show="other" xlink:type="simple" x1="15.291184" y1="6.4436507" x2="17.416643" y2="4.3181915" xlink:actuate="onLoad">
            <stop stop-opacity="1" stop-color="#ef2929" offset="0"/>
            <stop stop-opacity="0" stop-color="#ef2929" offset="1"/>
        </linearGradient>
        <linearGradient gradientTransform="matrix(1.0009031,0,0,1.0375154,13.968358,13.026617)" id="linearGradient3823" gradientUnits="userSpaceOnUse" xlink:show="other" xlink:type="simple" x1="15.821683" y1="15.989761" x2="14.372151" y2="14.54023" xlink:actuate="onLoad">
            <stop stop-opacity="1" stop-color="#ef2929" offset="0"/>
            <stop stop-opacity="0" stop-color="#ef2929" offset="1"/>
        </linearGradient>
        <linearGradient gradientTransform="matrix(1.0009031,0,0,1.0375154,10.695714,84.556359)" id="linearGradient3823" gradientUnits="userSpaceOnUse" xlink:show="other" xlink:type="simple" x1="15.821683" y1="15.989761" x2="14.372151" y2="14.54023" xlink:actuate="onLoad">
            <stop stop-opacity="1" stop-color="#ef2929" offset="0"/>
            <stop stop-opacity="0" stop-color="#ef2929" offset="1"/>
        </linearGradient>
        <linearGradient gradientTransform="matrix(1.0009031,0,0,1.0375154,10.695714,84.556359)" id="linearGradient3815" gradientUnits="userSpaceOnUse" xlink:show="other" xlink:type="simple" x1="15.291184" y1="6.4436507" x2="17.416643" y2="4.3181915" xlink:actuate="onLoad">
            <stop stop-opacity="1" stop-color="#ef2929" offset="0"/>
            <stop stop-opacity="0" stop-color="#ef2929" offset="1"/>
        </linearGradient>
        <linearGradient gradientTransform="matrix(1.0009031,0,0,1.0375154,10.695714,84.556359)" id="linearGradient3831" gradientUnits="userSpaceOnUse" xlink:show="other" xlink:type="simple" x1="6.4302521" y1="15.967495" x2="8.122447" y2="14.2753" xlink:actuate="onLoad">
            <stop stop-opacity="1" stop-color="#ef2929" offset="0"/>
            <stop stop-opacity="0" stop-color="#ef2929" offset="1"/>
        </linearGradient>
        <linearGradient gradientTransform="matrix(1.0009031,0,0,1.0375154,10.695714,84.556359)" id="linearGradient3807" gradientUnits="userSpaceOnUse" xlink:show="other" xlink:type="simple" x1="6.055223" y1="6.3116894" x2="4.4831853" y2="4.7396517" xlink:actuate="onLoad">
            <stop stop-opacity="1" stop-color="#ef2929" offset="0"/>
            <stop stop-opacity="0" stop-color="#ef2929" offset="1"/>
        </linearGradient>
        <radialGradient gradientTransform="matrix(0.5004516,0,0,0.5182883,9.6948108,83.947201)" id="linearGradient3839" gradientUnits="userSpaceOnUse" xlink:show="other" xlink:type="simple" r="19.5" cx="24" fx="24" cy="22.136841" fy="22.136841" xlink:actuate="onLoad">
            <stop stop-opacity="1" stop-color="#FFFFFF" offset="0"/>
            <stop stop-opacity="1" stop-color="#eeeeec" offset="1"/>
        </radialGradient>
        <radialGradient gradientTransform="matrix(1.658923,0,0,1.6075643,-17.038135,-18.069862)" id="radialGradient4610" gradientUnits="userSpaceOnUse" xlink:show="other" xlink:type="simple" r="12.048545" cx="25.85755" fx="25.85755" cy="29.541006" fy="29.541006" xlink:actuate="onLoad">
            <stop stop-opacity="1" stop-color="#000000" offset="0"/>
            <stop stop-opacity="0" stop-color="#000000" offset="1"/>
        </radialGradient>
        <radialGradient gradientTransform="matrix(0.5004516,0,0,0.5182883,9.6948108,83.947201)" id="radialGradient4612" gradientUnits="userSpaceOnUse" xlink:show="other" xlink:type="simple" r="19.5" cx="24" fx="24" cy="22.136841" fy="22.136841" xlink:actuate="onLoad">
            <stop stop-opacity="1" stop-color="#FFFFFF" offset="0"/>
            <stop stop-opacity="1" stop-color="#eeeeec" offset="1"/>
        </radialGradient>
        <linearGradient gradientTransform="matrix(1.0009031,0,0,1.0375154,10.695714,84.556359)" id="linearGradient4614" gradientUnits="userSpaceOnUse" xlink:show="other" xlink:type="simple" x1="6.055223" y1="6.3116894" y2="4.7396517" x2="4.4831853" xlink:actuate="onLoad">
            <stop stop-opacity="1" stop-color="#ef2929" offset="0"/>
            <stop stop-opacity="0" stop-color="#ef2929" offset="1"/>
        </linearGradient>
        <linearGradient gradientTransform="matrix(1.0009031,0,0,1.0375154,10.695714,84.556359)" id="linearGradient4616" gradientUnits="userSpaceOnUse" xlink:show="other" xlink:type="simple" x1="6.4302521" y1="15.967495" y2="14.2753" x2="8.122447" xlink:actuate="onLoad">
            <stop stop-opacity="1" stop-color="#ef2929" offset="0"/>
            <stop stop-opacity="0" stop-color="#ef2929" offset="1"/>
        </linearGradient>
        <linearGradient gradientTransform="matrix(1.0009031,0,0,1.0375154,10.695714,84.556359)" id="linearGradient4618" gradientUnits="userSpaceOnUse" xlink:show="other" xlink:type="simple" x1="15.291184" y1="6.4436507" y2="4.3181915" x2="17.416643" xlink:actuate="onLoad">
            <stop stop-opacity="1" stop-color="#ef2929" offset="0"/>
            <stop stop-opacity="0" stop-color="#ef2929" offset="1"/>
        </linearGradient>
        <linearGradient gradientTransform="matrix(1.0009031,0,0,1.0375154,10.695714,84.556359)" id="linearGradient4620" gradientUnits="userSpaceOnUse" xlink:show="other" xlink:type="simple" x1="15.821683" y1="15.989761" y2="14.54023" x2="14.372151" xlink:actuate="onLoad">
            <stop stop-opacity="1" stop-color="#ef2929" offset="0"/>
            <stop stop-opacity="0" stop-color="#ef2929" offset="1"/>
        </linearGradient>
    </defs>
    <g transform="matrix(2.2459649,0,0,2.2459649,-24.501929,7.3822723)">
        <path fill-opacity="1" fill="none" d="M 20.53125 2.5 C 17.81752 2.5 15.5 5.0792546 15.5 8.46875 L 15.5 20.53125 C 15.5 23.920744 17.81752 26.5 20.53125 26.5 L 34.53125 26.5 C 35.08221 26.503178 35.528072 26.949036 35.53125 27.5 L 35.53125 29.09375 L 38.75 26.6875 C 38.923103 26.563772 39.130985 26.498123 39.34375 26.5 L 41.5 26.5 C 43.245975 26.5 44.034664 25.931929 44.625 24.9375 C 45.215336 23.943071 45.5 22.371296 45.5 20.53125 L 45.5 8.46875 C 45.5 5.079255 43.18248 2.5 40.46875 2.5 L 20.53125 2.5 z " stroke="#ffffff" stroke-width="1" stroke-opacity="1" stroke-miterlimit="4"/>
        <path fill-opacity="1" fill="#efefef" d="M 20.53125 1.5 C 17.192692 1.5 14.5 4.611235 14.5 8.46875 L 14.5 20.53125 C 14.5 24.388763 17.192692 27.5 20.53125 27.5 L 34.530205 27.5 L 34.530205 31.107569 L 39.353554 27.485508 L 41.5 27.5 C 45.512737 27.5 46.5 24.38319 46.5 20.53125 L 46.5 8.46875 C 46.5 4.611235 43.80731 1.5 40.46875 1.5 L 20.53125 1.5 z " stroke="#787878" stroke-width="1" stroke-opacity="1" stroke-miterlimit="4"/>
        <path fill-opacity="1" fill="url(#linearGradient6543)" d="M 20.53125 2.53125 C 17.841732 2.53125 15.53125 5.097391 15.53125 8.46875 L 15.53125 20.53125 C 15.53125 23.902609 17.841732 26.46875 20.53125 26.46875 L 34.53125 26.46875 C 35.097744 26.476048 35.5552 26.933508 35.5625 27.5 L 35.5625 29.0 L 38.71875 26.65625 C 38.90173 26.528627 39.120743 26.46292 39.34375 26.46875 L 41.5 26.46875 C 43.23589 26.46875 44.009537 25.921608 44.59375 24.9375 C 45.177963 23.953392 45.46875 22.367968 45.46875 20.53125 L 45.46875 8.46875 C 45.46875 5.0973916 43.158268 2.53125 40.46875 2.53125 L 20.53125 2.53125 z " stroke="#ffffff" stroke-width="1" stroke-opacity="1" stroke-miterlimit="4"/>
    </g>
    <path fill-opacity="0.24456524" stroke="none" d="M 37.375645 40.0703 C 37.375645 43.1666 29.755053 45.676647 20.354574 45.676647 C 10.954097 45.676647 3.3335035 43.1666 3.3335035 40.0703 C 3.3335035 36.974003 10.954097 34.463955 20.354574 34.463955 C 29.755053 34.463955 37.375645 36.974003 37.375645 40.0703 z " stroke-linecap="round" transform="matrix(1.292516,0,0,0.802661,25.763393,46.797299)" stroke-miterlimit="4" stroke-opacity="0.72941176" fill="url(#radialGradient6774)" stroke-dasharray="none" stroke-width="1.02600002" stroke-linejoin="miter" stroke-dashoffset="0"/>
    <g transform="matrix(1.8737224,0,0,1.8737224,3.5558779,-142.5767)">
        <path fill-opacity="0.20740739" display="inline" stroke="none" d="M 19.78125 13.9375 C 19.22286 13.975709 18.68546 14.200343 18.28125 14.625 C 17.94922 14.973823 17.799717 15.395148 17.6875 15.78125 C 17.648016 15.815284 17.54685 15.882288 17.40625 15.96875 C 17.15572 16.122812 16.674973 16.325865 16.15625 16.5625 C 15.659379 16.789164 15.052411 17.055796 14.5 17.625 C 14.185216 17.949352 13.93606 18.4057 13.84375 18.9375 C 13.748287 19.487465 13.855341 20.027876 14.09375 20.5 C 14.524574 21.353165 15.336698 21.862572 16.125 21.96875 C 16.3225 21.995352 16.368423 21.942154 16.53125 21.9375 C 16.143764 23.038143 15.90625 24.19663 15.90625 25.4375 C 15.90625 26.607327 16.124805 27.709229 16.46875 28.75 C 15.751736 29.253292 15.140252 29.842714 14.75 30.5 C 14.364149 31.149876 13.992776 32.10629 14.46875 33.09375 C 14.738972 33.65436 15.24756 33.98477 15.75 34.15625 C 16.108568 34.27863 16.456818 34.264114 16.8125 34.25 C 16.827042 34.479004 16.798805 34.618443 16.875 34.9375 C 17.025007 35.565643 17.410126 36.26988 18.09375 36.78125 C 18.445454 37.04433 18.950008 37.300133 19.5625 37.28125 C 20.13905 37.263477 20.613457 37.06437 20.96875 36.75 C 21.556767 36.229717 21.781048 35.618233 22.0 35.1875 C 22.025255 35.137817 22.0654 35.07887 22.09375 35.03125 C 23.29074 35.55348 24.58576 35.84375 25.96875 35.84375 C 27.212503 35.84375 28.419067 35.615345 29.53125 35.1875 C 29.566689 35.251328 29.58476 35.31116 29.625 35.375 C 30.276403 36.40843 31.556177 37.29894 33.09375 37.09375 C 33.95316 36.97906 34.737732 36.49037 35.09375 35.75 C 35.39432 35.12494 35.381237 34.565304 35.40625 34.34375 C 35.43205 34.115257 35.45316 34.101585 35.4375 34.125 C 35.46851 34.10634 35.571323 34.05895 35.78125 34.0 C 36.22945 33.87414 36.693188 33.662132 37.09375 33.28125 C 37.59697 32.802757 37.85394 32.131126 37.6875 31.40625 C 37.44365 30.344252 36.683872 29.892937 36.21875 29.5625 C 35.964455 29.381842 35.70017 29.2243 35.4375 29.0625 C 35.841534 27.928146 36.0625 26.707893 36.0625 25.4375 C 36.0625 24.476568 35.89343 23.563496 35.65625 22.6875 C 35.853683 22.608065 36.057747 22.539255 36.25 22.4375 C 36.792343 22.150444 37.585712 21.70808 37.84375 20.6875 C 37.994705 20.090454 37.86424 19.466976 37.53125 18.96875 C 37.236675 18.528004 36.84923 18.247576 36.46875 18.03125 C 36.0731 17.8063 35.936226 17.690536 35.90625 17.65625 C 35.912 17.672476 35.898026 17.625443 35.875 17.53125 C 35.774616 17.120577 35.406857 16.015413 34.28125 15.25 C 33.609886 14.793472 32.8678 14.596224 32.125 14.625 C 31.38548 14.653651 30.691427 14.873045 30.09375 15.21875 C 29.860554 15.353633 29.664383 15.52338 29.46875 15.6875 C 28.369984 15.269572 27.194826 15.03125 25.96875 15.03125 C 24.84349 15.03125 23.784636 15.241627 22.78125 15.59375 C 22.54508 15.316488 22.298206 15.041664 22.03125 14.8125 C 21.505262 14.360973 20.77416 13.869559 19.78125 13.9375 z M 17.65625 15.84375 C 17.642572 15.893236 17.6058 15.95156 17.59375 16.0 C 17.593616 16.00054 17.61537 15.896268 17.625 15.875 C 17.63463 15.853732 17.649603 15.855304 17.65625 15.84375 z M 25.96875 21.34375 C 28.133753 21.343748 29.90625 23.16048 29.90625 25.4375 C 29.90625 27.71452 28.133755 29.53125 25.96875 29.53125 C 23.803747 29.531252 22.03125 27.71452 22.03125 25.4375 C 22.03125 23.16048 23.803745 21.34375 25.96875 21.34375 z M 32.40625 33.4375 C 32.380753 33.540054 32.35929 33.627262 32.34375 33.71875 C 32.329212 33.696957 32.32846 33.712826 32.3125 33.6875 C 32.29121 33.653725 32.271416 33.600452 32.25 33.5625 C 32.30141 33.51972 32.355644 33.481335 32.40625 33.4375 z " stroke-linecap="round" transform="translate(-4.2726442,71.529742)" stroke-miterlimit="4" stroke-opacity="1" fill="url(#radialGradient4610)" stroke-dasharray="none" stroke-width="2.41591406" stroke-linejoin="miter" stroke-dashoffset="1.20000057"/>
        <path stroke-linecap="round" stroke-dashoffset="1.20000057" fill-opacity="1" fill="none" stroke-linejoin="miter" stroke-dasharray="none" d="M 18.202488 89.225174 C 18.202488 90.943306 15.84741 93.86346 15.199778 92.33773 C 13.954148 89.40318 12.097113 92.04548 11.218889 90.30633 C 10.35137 88.58837 14.439248 88.493355 14.839396 86.88488 C 15.415745 84.56814 18.202488 87.50706 18.202488 89.225174 z " stroke="#edd400" stroke-width="2.99999595" stroke-opacity="1" stroke-miterlimit="4"/>
        <path stroke-linecap="round" stroke-dashoffset="1.20000057" fill-opacity="1" fill="none" stroke-linejoin="miter" stroke-dasharray="none" d="M 31.41306 89.92109 C 33.52765 91.12336 29.869015 92.33773 28.21152 92.33773 C 26.554024 92.33773 25.208809 90.943306 25.208809 89.225174 C 25.208809 87.50706 27.607897 86.0044 29.155968 87.05708 C 30.6811 88.09417 29.273254 88.70448 31.41306 89.92109 z " stroke="#edd400" stroke-width="2.99999595" stroke-opacity="1" stroke-miterlimit="4"/>
        <path stroke-linecap="round" stroke-dashoffset="1.20000057" fill-opacity="1" fill="none" stroke-linejoin="miter" stroke-dasharray="none" d="M 18.202488 102.71288 C 16.401407 103.28495 16.183523 107.12825 14.762578 106.06535 C 13.259913 104.94132 15.035886 102.93183 12.684946 103.25059 C 10.344796 103.56788 11.918833 100.3314 15.199778 99.600334 C 16.8176 99.23985 18.202488 100.99476 18.202488 102.71288 z " stroke="#edd400" stroke-width="2.99999595" stroke-opacity="1" stroke-miterlimit="4"/>
        <path stroke-linecap="round" stroke-dashoffset="1.20000057" fill-opacity="1" fill="none" stroke-linejoin="miter" stroke-dasharray="none" d="M 31.080025 102.99006 C 28.531792 103.70561 30.416643 105.83409 28.606482 106.07566 C 26.867887 106.30768 26.149282 104.26295 25.916555 102.71288 C 25.685186 101.17187 26.953686 98.52092 28.21152 99.600334 C 29.293972 100.52925 33.646328 102.26943 31.080025 102.99006 z " stroke="#edd400" stroke-width="2.99999595" stroke-opacity="1" stroke-miterlimit="4"/>
        <path stroke-linecap="round" fill-opacity="1" stroke-dashoffset="1.20000057" fill="none" stroke-linejoin="miter" d="M 18.202488 89.225174 C 18.202488 90.943306 15.84741 93.86346 15.199778 92.33773 C 13.954148 89.40318 12.097113 92.04548 11.218889 90.30633 C 10.35137 88.58837 14.439248 88.493355 14.839396 86.88488 C 15.415745 84.56814 18.202488 87.50706 18.202488 89.225174 z " stroke="#ffffff" stroke-width="0.99999857" stroke-opacity="1" stroke-miterlimit="4"/>
        <path stroke-linecap="round" fill-opacity="1" stroke-dashoffset="1.20000057" fill="none" stroke-linejoin="miter" d="M 31.41306 89.92109 C 33.52765 91.12336 29.869015 92.33773 28.21152 92.33773 C 26.554024 92.33773 25.208809 90.943306 25.208809 89.225174 C 25.208809 87.50706 27.607897 86.0044 29.155968 87.05708 C 30.6811 88.09417 29.273254 88.70448 31.41306 89.92109 z " stroke="#ffffff" stroke-width="0.99999857" stroke-opacity="1" stroke-miterlimit="4"/>
        <path stroke-linecap="round" fill-opacity="1" stroke-dashoffset="1.20000057" fill="none" stroke-linejoin="miter" d="M 18.202488 102.71288 C 16.401407 103.28495 16.183523 107.12825 14.762578 106.06535 C 13.259913 104.94132 15.035886 102.93183 12.684946 103.25059 C 10.344796 103.56788 11.918833 100.3314 15.199778 99.600334 C 16.8176 99.23985 18.202488 100.99476 18.202488 102.71288 z " stroke="#ffffff" stroke-width="0.99999857" stroke-opacity="1" stroke-miterlimit="4"/>
        <path stroke-linecap="round" fill-opacity="1" stroke-dashoffset="1.20000057" fill="none" stroke-linejoin="miter" d="M 31.080025 102.99006 C 28.531792 103.70561 30.416643 105.83409 28.606482 106.07566 C 26.867887 106.30768 26.149282 104.26295 25.916555 102.71288 C 25.685186 101.17187 26.953686 98.52092 28.21152 99.600334 C 29.293972 100.52925 33.646328 102.26943 31.080025 102.99006 z " stroke="#ffffff" stroke-width="0.99999857" stroke-opacity="1" stroke-miterlimit="4"/>
        <path stroke-linecap="round" stroke-dashoffset="1.20000057" fill-opacity="1" fill="url(#radialGradient4612)" stroke-linejoin="round" stroke-dasharray="none" d="M 21.705648 86.11263 C 16.456917 86.11263 12.197069 90.528305 12.197069 95.96903 C 12.197069 101.40976 16.456917 105.82543 21.705648 105.82543 C 26.95438 105.82543 31.214228 101.40976 31.214228 95.96903 C 31.214228 90.528305 26.95438 86.11263 21.705648 86.11263 z M 21.705648 91.30021 C 24.191889 91.30021 26.209711 93.391846 26.209711 95.96903 C 26.209711 98.54622 24.191889 100.63785 21.705648 100.63785 C 19.219408 100.63785 17.201584 98.54622 17.201584 95.96903 C 17.201584 93.391846 19.219408 91.30021 21.705648 91.30021 z " stroke="#888a85" stroke-width="0.99999881" stroke-opacity="1" stroke-miterlimit="4"/>
        <path stroke-linecap="butt" fill-opacity="1" fill="url(#linearGradient4614)" fill-rule="evenodd" stroke-linejoin="miter" d="M 17.889704 86.95562 C 15.716002 87.94824 13.967899 89.760284 13.010302 92.013504 C 15.00939 91.98985 16.308168 93.01668 17.576923 94.08854 C 18.030285 93.025 18.865507 92.159225 19.891512 91.68928 C 19.530636 89.89253 18.9023 88.28684 17.889704 86.95562 z " stroke="none" stroke-width="1px" stroke-opacity="1"/>
        <path stroke-linecap="round" stroke-dashoffset="1.20000057" fill-opacity="1" fill="url(#linearGradient4616)" stroke-linejoin="miter" stroke-dasharray="none" d="M 17.576923 97.849525 C 16.054716 98.2384 14.532509 98.34127 13.010302 99.92456 C 13.967899 102.17778 15.716002 103.98982 17.889704 104.98245 C 18.161148 103.14068 18.681017 101.46452 19.891512 100.24878 C 18.865507 99.77884 18.030285 98.91306 17.576923 97.849525 z " stroke="none" stroke-width="1" stroke-opacity="1" stroke-miterlimit="4"/>
        <path stroke-linecap="butt" fill-opacity="1" fill="url(#linearGradient4618)" fill-rule="evenodd" stroke-linejoin="miter" d="M 25.521591 86.95562 C 24.546322 88.2255 23.715792 89.64013 23.519785 91.68928 C 24.54579 92.159225 25.381012 93.025 25.834373 94.08854 C 27.425549 92.77616 28.966673 91.91423 30.400993 92.013504 C 29.443396 89.760284 27.695295 87.94824 25.521591 86.95562 z " stroke="none" stroke-width="1px" stroke-opacity="1"/>
        <path stroke-linecap="butt" fill-opacity="1" fill="url(#linearGradient4620)" fill-rule="evenodd" stroke-linejoin="miter" d="M 25.834373 97.849525 C 25.381012 98.91306 24.54579 99.77884 23.519785 100.24878 C 24.531416 101.48231 25.13806 103.12082 25.521591 104.98245 C 27.695295 103.98982 29.443396 102.17778 30.400993 99.92456 C 29.318224 98.70556 27.70139 98.12743 25.834373 97.849525 z " stroke="none" stroke-width="1px" stroke-opacity="1"/>
        <path stroke-linecap="round" fill="none" fill-rule="evenodd" stroke-linejoin="miter" d="M 17.576923 94.08854 C 18.030285 93.025 18.865507 92.159225 19.891512 91.68928 M 17.889704 86.95562 C 15.716002 87.94824 13.967899 89.760284 13.010302 92.013504 " stroke="#a40000" stroke-width="0.99999881px" stroke-opacity="1"/>
        <path stroke-linecap="round" fill="none" fill-rule="evenodd" stroke-linejoin="miter" d="M 30.400993 92.013504 C 29.443396 89.760284 27.695295 87.94824 25.521591 86.95562 M 23.519785 91.68928 C 24.54579 92.159225 25.381012 93.025 25.834373 94.08854 " stroke="#a40000" stroke-width="0.99999881px" stroke-opacity="1"/>
        <path stroke-linecap="round" fill="none" fill-rule="evenodd" stroke-linejoin="miter" d="M 25.834373 97.849525 C 25.381012 98.91306 24.54579 99.77884 23.519785 100.24878 M 25.521591 104.98245 C 27.695295 103.98982 29.443396 102.17778 30.400993 99.92456 " stroke="#a40000" stroke-width="0.99999881px" stroke-opacity="1"/>
        <path stroke-linecap="round" stroke-dashoffset="1.20000057" fill-opacity="1" fill="none" stroke-linejoin="miter" stroke-dasharray="none" d="M 19.891512 100.24878 C 18.865507 99.77884 18.030285 98.91306 17.576923 97.849525 M 13.010302 99.92456 C 13.967899 102.17778 15.716002 103.98982 17.889704 104.98245 " stroke="#a40000" stroke-width="0.99999881" stroke-opacity="1" stroke-miterlimit="4"/>
        <path fill-opacity="0.4" stroke="#ffffff" d="M 18.0 10.28125 C 18.0 14.544198 14.418278 18.0 10.0 18.0 C 5.581722 18.0 2.0 14.544198 2.0 10.28125 C 2.0 6.018302 5.581722 2.5625 10.0 2.5625 C 14.418278 2.5625 18.0 6.018302 18.0 10.28125 z " stroke-linecap="round" transform="matrix(1.0869136,0,0,1.1719034,10.836515,83.920402)" stroke-miterlimit="4" stroke-opacity="1" fill="none" stroke-dasharray="none" stroke-width="0.88604563" stroke-linejoin="miter" stroke-dashoffset="1.20000057"/>
        <path fill-opacity="0.44711537" stroke="#ffffff" d="M 18.0 10.28125 C 18.0 14.544198 14.418278 18.0 10.0 18.0 C 5.581722 18.0 2.0 14.544198 2.0 10.28125 C 2.0 6.018302 5.581722 2.5625 10.0 2.5625 C 14.418278 2.5625 18.0 6.018302 18.0 10.28125 z " stroke-linecap="round" transform="matrix(0.6530547,0,0,0.7016326,15.175107,88.755382)" stroke-miterlimit="4" stroke-opacity="1" fill="none" stroke-dasharray="none" stroke-width="1.47730517" stroke-linejoin="miter" stroke-dashoffset="1.20000057"/>
    </g>
</svg>
