<?xml version="1.0" encoding="UTF-8" standalone="no"?>
<svg
   xmlns:dc="http://purl.org/dc/elements/1.1/"
   xmlns:cc="http://creativecommons.org/ns#"
   xmlns:rdf="http://www.w3.org/1999/02/22-rdf-syntax-ns#"
   xmlns:svg="http://www.w3.org/2000/svg"
   xmlns="http://www.w3.org/2000/svg"
   xmlns:xlink="http://www.w3.org/1999/xlink"
   xmlns:sodipodi="http://sodipodi.sourceforge.net/DTD/sodipodi-0.dtd"
   xmlns:inkscape="http://www.inkscape.org/namespaces/inkscape"
   contentScriptType="text/ecmascript"
   width="88"
   baseProfile="tiny"
   zoomAndPan="magnify"
   contentStyleType="text/css"
   viewBox="0 0 88 88"
   height="88"
   preserveAspectRatio="xMidYMid meet"
   version="1.0"
   id="svg118693"
   sodipodi:version="0.32"
   inkscape:version="0.46"
   sodipodi:docname="voip.svg"
   inkscape:output_extension="org.inkscape.output.svg.inkscape">
  <metadata
     id="metadata118894">
    <rdf:RDF>
      <cc:Work
         rdf:about="">
        <dc:format>image/svg+xml</dc:format>
        <dc:type
           rdf:resource="http://purl.org/dc/dcmitype/StillImage" />
      </cc:Work>
    </rdf:RDF>
  </metadata>
  <sodipodi:namedview
     inkscape:window-height="682"
     inkscape:window-width="1024"
     inkscape:pageshadow="2"
     inkscape:pageopacity="0.0"
     guidetolerance="10.0"
     gridtolerance="10.0"
     objecttolerance="10.0"
     borderopacity="1.0"
     bordercolor="#666666"
     pagecolor="#ffffff"
     id="base"
     showgrid="false"
     inkscape:zoom="5.25"
     inkscape:cx="16"
     inkscape:cy="44"
     inkscape:window-x="0"
     inkscape:window-y="52"
     inkscape:current-layer="svg118693" />
  <defs
     id="defs118695">
    <linearGradient
       inkscape:collect="always"
       xlink:href="#linearGradient2844"
       id="linearGradient33043"
       gradientUnits="userSpaceOnUse"
       gradientTransform="matrix(1.0058958,0,0,1.0062796,-59.327841,-1.0389543)"
       x1="72.375"
       y1="28.301006"
       x2="72.375"
       y2="31.375868" />
    <linearGradient
       inkscape:collect="always"
       xlink:href="#linearGradient2844"
       id="linearGradient33046"
       gradientUnits="userSpaceOnUse"
       gradientTransform="matrix(1.0058958,0,0,1.0062796,-59.327841,-1.0389543)"
       x1="92.586792"
       y1="6.5408134"
       x2="92.586792"
       y2="10.352213" />
    <linearGradient
       inkscape:collect="always"
       xlink:href="#linearGradient2894"
       id="linearGradient33061"
       gradientUnits="userSpaceOnUse"
       x1="23.166052"
       y1="14.216306"
       x2="23.462088"
       y2="12.756512" />
    <radialGradient
       inkscape:collect="always"
       xlink:href="#linearGradient2946"
       id="radialGradient33059"
       gradientUnits="userSpaceOnUse"
       gradientTransform="matrix(1.065299,0,0,1.069873,-2.349853,-1.383156)"
       cx="35.573643"
       cy="23.087391"
       fx="35.573643"
       fy="23.087391"
       r="5.4555612" />
    <radialGradient
       inkscape:collect="always"
       xlink:href="#linearGradient2946"
       id="radialGradient33057"
       gradientUnits="userSpaceOnUse"
       gradientTransform="matrix(1.172449,1.635808e-7,-1.396764e-7,1.001117,-0.689313,0.375097)"
       cx="7.0907202"
       cy="22.561522"
       fx="7.0907202"
       fy="22.561522"
       r="5.4701443" />
    <radialGradient
       inkscape:collect="always"
       xlink:href="#linearGradient2946"
       id="radialGradient33067"
       gradientUnits="userSpaceOnUse"
       gradientTransform="matrix(-0.691755,0.4704573,-0.1051497,-0.1547285,41.494405,13.757999)"
       cx="26.307215"
       cy="-4.3154221"
       fx="26.307215"
       fy="-4.3154221"
       r="20.988943" />
    <linearGradient
       inkscape:collect="always"
       xlink:href="#linearGradient2844"
       id="linearGradient4898"
       gradientUnits="userSpaceOnUse"
       gradientTransform="translate(-34.87377,2.0118012)"
       x1="72.375"
       y1="28.301006"
       x2="72.375"
       y2="31.375868" />
    <linearGradient
       id="linearGradient2844"
       inkscape:collect="always">
      <stop
         id="stop2846"
         offset="0"
         style="stop-color:white;stop-opacity:1;" />
      <stop
         id="stop2848"
         offset="1"
         style="stop-color:white;stop-opacity:0;" />
    </linearGradient>
    <linearGradient
       inkscape:collect="always"
       xlink:href="#linearGradient2844"
       id="linearGradient4896"
       gradientUnits="userSpaceOnUse"
       gradientTransform="translate(-34.87377,2.0118012)"
       x1="92.586792"
       y1="6.5408134"
       x2="92.586792"
       y2="10.352213" />
    <linearGradient
       id="linearGradient2894"
       inkscape:collect="always">
      <stop
         id="stop2896"
         offset="0"
         style="stop-color:white;stop-opacity:1;" />
      <stop
         id="stop2898"
         offset="1"
         style="stop-color:white;stop-opacity:0.43629342" />
    </linearGradient>
    <linearGradient
       inkscape:collect="always"
       xlink:href="#linearGradient2894"
       id="linearGradient4894"
       gradientUnits="userSpaceOnUse"
       x1="23.166052"
       y1="14.216306"
       x2="23.462088"
       y2="12.756512" />
    <radialGradient
       inkscape:collect="always"
       xlink:href="#linearGradient2946"
       id="radialGradient4892"
       gradientUnits="userSpaceOnUse"
       gradientTransform="matrix(1.065299,0,0,1.069873,-2.349853,-1.383156)"
       cx="35.573643"
       cy="23.087391"
       fx="35.573643"
       fy="23.087391"
       r="5.4555612" />
    <radialGradient
       inkscape:collect="always"
       xlink:href="#linearGradient2946"
       id="radialGradient4890"
       gradientUnits="userSpaceOnUse"
       gradientTransform="matrix(1.172449,1.635808e-7,-1.396764e-7,1.001117,-0.689313,0.375097)"
       cx="7.0907202"
       cy="22.561522"
       fx="7.0907202"
       fy="22.561522"
       r="5.4701443" />
    <linearGradient
       id="linearGradient2946">
      <stop
         id="stop2948"
         offset="0"
         style="stop-color:#8ae234;stop-opacity:1" />
      <stop
         id="stop2950"
         offset="1"
         style="stop-color:#73d216;stop-opacity:1" />
    </linearGradient>
    <radialGradient
       inkscape:collect="always"
       xlink:href="#linearGradient2946"
       id="radialGradient4888"
       gradientUnits="userSpaceOnUse"
       gradientTransform="matrix(0.816865,0.15569,-3.481055e-2,0.182643,6.565118,17.41837)"
       cx="26.307215"
       cy="-4.3154221"
       fx="26.307215"
       fy="-4.3154221"
       r="20.988943" />
    <inkscape:perspective
       sodipodi:type="inkscape:persp3d"
       inkscape:vp_x="0 : 44 : 1"
       inkscape:vp_y="0 : 1000 : 0"
       inkscape:vp_z="88 : 44 : 1"
       inkscape:persp3d-origin="44 : 29.333333 : 1"
       id="perspective118896" />
    <linearGradient
       x1="-21.658581"
       y1="15.649428"
       x2="-21.962101"
       gradientUnits="userSpaceOnUse"
       y2="21.336346"
       xlink:type="simple"
       xlink:actuate="onLoad"
       xlink:show="other"
       id="linearGradient118697">
      <stop
         stop-opacity="1"
         stop-color="#ffffff"
         offset="0"
         id="stop118699" />
      <stop
         stop-opacity="0"
         stop-color="#ffffff"
         offset="1"
         id="stop118701" />
    </linearGradient>
    <linearGradient
       x1="-22.822565"
       y1="28.337734"
       x2="-22.113543"
       gradientUnits="userSpaceOnUse"
       y2="22.661524"
       xlink:type="simple"
       xlink:actuate="onLoad"
       xlink:show="other"
       id="linearGradient118703">
      <stop
         stop-opacity="1"
         stop-color="#ffffff"
         offset="0"
         id="stop118705" />
      <stop
         stop-opacity="0"
         stop-color="#ffffff"
         offset="1"
         id="stop118707" />
    </linearGradient>
    <linearGradient
       x1="-25.176178"
       y1="30.057165"
       x2="-22.113543"
       gradientUnits="userSpaceOnUse"
       y2="22.661524"
       xlink:type="simple"
       xlink:actuate="onLoad"
       xlink:show="other"
       id="linearGradient118709">
      <stop
         stop-opacity="1"
         stop-color="#ffffff"
         offset="0"
         id="stop118711" />
      <stop
         stop-opacity="0"
         stop-color="#ffffff"
         offset="1"
         id="stop118713" />
    </linearGradient>
    <linearGradient
       x1="-25.176178"
       y1="30.057165"
       x2="-22.252472"
       gradientUnits="userSpaceOnUse"
       y2="21.041553"
       xlink:type="simple"
       xlink:actuate="onLoad"
       xlink:show="other"
       id="linearGradient118715">
      <stop
         stop-opacity="1"
         stop-color="#ffffff"
         offset="0"
         id="stop118717" />
      <stop
         stop-opacity="0"
         stop-color="#ffffff"
         offset="1"
         id="stop118719" />
    </linearGradient>
    <radialGradient
       gradientUnits="userSpaceOnUse"
       xlink:type="simple"
       r="6.7175145"
       xlink:actuate="onLoad"
       cx="12.071323"
       cy="12.493138"
       xlink:show="other"
       fx="12.071323"
       fy="12.493138"
       id="radialGradient118721">
      <stop
         stop-opacity="1"
         stop-color="#ffffff"
         offset="0"
         id="stop118723" />
      <stop
         stop-opacity="0"
         stop-color="#ffffff"
         offset="1"
         id="stop118725" />
    </radialGradient>
    <radialGradient
       gradientUnits="userSpaceOnUse"
       xlink:type="simple"
       r="6.7175145"
       xlink:actuate="onLoad"
       cx="12.071323"
       cy="12.493138"
       xlink:show="other"
       fx="12.071323"
       fy="12.493138"
       id="radialGradient118727">
      <stop
         stop-opacity="1"
         stop-color="#ffffff"
         offset="0"
         id="stop118729" />
      <stop
         stop-opacity="0"
         stop-color="#ffffff"
         offset="1"
         id="stop118731" />
    </radialGradient>
    <radialGradient
       gradientUnits="userSpaceOnUse"
       xlink:type="simple"
       r="6.7175145"
       xlink:actuate="onLoad"
       cx="12.071323"
       cy="12.493138"
       xlink:show="other"
       fx="12.071323"
       fy="12.493138"
       id="radialGradient118733">
      <stop
         stop-opacity="1"
         stop-color="#ffffff"
         offset="0"
         id="stop118735" />
      <stop
         stop-opacity="0"
         stop-color="#ffffff"
         offset="1"
         id="stop118737" />
    </radialGradient>
    <radialGradient
       gradientUnits="userSpaceOnUse"
       xlink:type="simple"
       r="6.7175145"
       xlink:actuate="onLoad"
       cx="12.071323"
       cy="12.493138"
       xlink:show="other"
       fx="12.071323"
       fy="12.493138"
       id="radialGradient118739">
      <stop
         stop-opacity="1"
         stop-color="#ffffff"
         offset="0"
         id="stop118741" />
      <stop
         stop-opacity="0"
         stop-color="#ffffff"
         offset="1"
         id="stop118743" />
    </radialGradient>
    <radialGradient
       gradientTransform="scale(0.999989,1.000011)"
       id="radialGradient4132"
       gradientUnits="userSpaceOnUse"
       xlink:show="other"
       xlink:type="simple"
       r="43.526714"
       cx="15.601279"
       fx="15.601279"
       cy="12.142302"
       fy="12.142302"
       xlink:actuate="onLoad">
      <stop
         stop-opacity="1.0000000"
         stop-color="#ffffff"
         offset="0.0000000"
         id="stop118746" />
      <stop
         stop-opacity="0.16494845"
         stop-color="#ffffff"
         offset="1.0000000"
         id="stop118748" />
    </radialGradient>
    <radialGradient
       gradientTransform="scale(1.64399,0.608276)"
       id="radialGradient4120"
       gradientUnits="userSpaceOnUse"
       xlink:show="other"
       xlink:type="simple"
       r="12.289036"
       cx="15.115514"
       fx="15.115514"
       cy="63.965388"
       fy="63.965388"
       xlink:actuate="onLoad">
      <stop
         stop-opacity="1"
         stop-color="#000000"
         offset="0"
         id="stop118751" />
      <stop
         stop-opacity="0"
         stop-color="#000000"
         offset="1"
         id="stop118753" />
    </radialGradient>
    <radialGradient
       gradientTransform="scale(0.999989,1.000011)"
       id="radialGradient3968"
       gradientUnits="userSpaceOnUse"
       xlink:show="other"
       xlink:type="simple"
       r="29.993349"
       cx="18.247644"
       fx="18.247644"
       cy="15.716079"
       fy="15.716079"
       xlink:actuate="onLoad">
      <stop
         stop-opacity="1.0000000"
         stop-color="#d3e9ff"
         offset="0.0000000"
         id="stop118756" />
      <stop
         stop-opacity="1.0000000"
         stop-color="#d3e9ff"
         offset="0.15517241"
         id="stop118758" />
      <stop
         stop-opacity="1.0000000"
         stop-color="#4074ae"
         offset="0.75000000"
         id="stop118760" />
      <stop
         stop-opacity="1.0000000"
         stop-color="#36486c"
         offset="1.0000000"
         id="stop118762" />
    </radialGradient>
    <linearGradient
       xlink:type="simple"
       xlink:actuate="onLoad"
       xlink:show="other"
       id="linearGradient118764">
      <stop
         stop-opacity="1.0000000"
         stop-color="#d3e9ff"
         offset="0.0000000"
         id="stop118766" />
      <stop
         stop-opacity="1.0000000"
         stop-color="#d3e9ff"
         offset="0.15517241"
         id="stop118768" />
      <stop
         stop-opacity="1.0000000"
         stop-color="#4074ae"
         offset="0.75000000"
         id="stop118770" />
      <stop
         stop-opacity="1.0000000"
         stop-color="#36486c"
         offset="1.0000000"
         id="stop118772" />
    </linearGradient>
    <linearGradient
       xlink:type="simple"
       xlink:actuate="onLoad"
       xlink:show="other"
       id="linearGradient118774">
      <stop
         stop-opacity="1"
         stop-color="#000000"
         offset="0"
         id="stop118776" />
      <stop
         stop-opacity="0"
         stop-color="#000000"
         offset="1"
         id="stop118778" />
    </linearGradient>
    <linearGradient
       xlink:type="simple"
       xlink:actuate="onLoad"
       xlink:show="other"
       id="linearGradient118780">
      <stop
         stop-opacity="1.0000000"
         stop-color="#ffffff"
         offset="0.0000000"
         id="stop118782" />
      <stop
         stop-opacity="0.16494845"
         stop-color="#ffffff"
         offset="1.0000000"
         id="stop118784" />
    </linearGradient>
    <linearGradient
       xlink:type="simple"
       xlink:actuate="onLoad"
       xlink:show="other"
       id="linearGradient118786">
      <stop
         stop-opacity="1"
         stop-color="#ffffff"
         offset="0"
         id="stop118788" />
      <stop
         stop-opacity="0"
         stop-color="#ffffff"
         offset="1"
         id="stop118790" />
    </linearGradient>
    <linearGradient
       xlink:type="simple"
       xlink:actuate="onLoad"
       xlink:show="other"
       id="linearGradient118792">
      <stop
         stop-opacity="1"
         stop-color="#ffffff"
         offset="0"
         id="stop118794" />
      <stop
         stop-opacity="0"
         stop-color="#ffffff"
         offset="1"
         id="stop118796" />
    </linearGradient>
    <radialGradient
       gradientTransform="scale(0.999989,1.000011)"
       id="radialGradient3324"
       gradientUnits="userSpaceOnUse"
       xlink:show="other"
       xlink:type="simple"
       r="43.526714"
       cx="15.601279"
       fx="15.601279"
       cy="12.142302"
       fy="12.142302"
       xlink:actuate="onLoad">
      <stop
         stop-opacity="1.0000000"
         stop-color="#ffffff"
         offset="0.0000000"
         id="stop118799" />
      <stop
         stop-opacity="0.16494845"
         stop-color="#ffffff"
         offset="1.0000000"
         id="stop118801" />
    </radialGradient>
    <radialGradient
       inkscape:collect="always"
       xlink:href="#linearGradient2946"
       id="radialGradient18687"
       gradientUnits="userSpaceOnUse"
       gradientTransform="matrix(-0.691755,0.4704573,-0.1051497,-0.1547285,41.494405,13.757999)"
       cx="26.307215"
       cy="-4.3154221"
       fx="26.307215"
       fy="-4.3154221"
       r="20.988943" />
    <linearGradient
       inkscape:collect="always"
       xlink:href="#linearGradient2844"
       id="linearGradient20416"
       gradientUnits="userSpaceOnUse"
       gradientTransform="matrix(1.7621444,0,0,1.7628167,-91.846197,10.897682)"
       x1="72.375"
       y1="28.301006"
       x2="72.375"
       y2="31.375868" />
    <linearGradient
       inkscape:collect="always"
       xlink:href="#linearGradient2844"
       id="linearGradient20419"
       gradientUnits="userSpaceOnUse"
       gradientTransform="matrix(1.7621444,0,0,1.7628167,-91.846197,10.897682)"
       x1="92.586792"
       y1="6.5408134"
       x2="92.586792"
       y2="10.352213" />
    <radialGradient
       inkscape:collect="always"
       xlink:href="#linearGradient2946"
       id="radialGradient20425"
       gradientUnits="userSpaceOnUse"
       gradientTransform="matrix(-1.2118275,0.8241546,-0.1842029,-0.2710559,84.775827,36.819222)"
       cx="26.307215"
       cy="-4.3154221"
       fx="26.307215"
       fy="-4.3154221"
       r="20.988943" />
  </defs>
  <g
     transform="matrix(1.7356543,0,0,1.7356543,1.6798925,1.7359219)"
     id="g118803">
    <path
       transform="matrix(1,0,0,1.243244,0,-10.27241)"
       fill-opacity="1"
       fill="url(#radialGradient4120)"
       d="M 45.052803 38.908627 C 45.05594 41.58001 41.205948 44.04896 34.95381 45.384983 C 28.70168 46.72101 20.997826 46.72101 14.745692 45.384983 C 8.493558 44.04896 4.6435647 41.58001 4.646702 38.908627 C 4.6435647 36.237247 8.493558 33.768295 14.745692 32.43227 C 20.997826 31.096245 28.70168 31.096245 34.95381 32.43227 C 41.205948 33.768295 45.05594 36.237247 45.052803 38.908627 z "
       stroke="none"
       stroke-opacity="1"
       id="path118805" />
    <path
       fill-opacity="1"
       fill="url(#radialGradient3968)"
       fill-rule="nonzero"
       stroke-dasharray="none"
       d="M 43.95985 23.4855 C 43.95985 34.195217 35.27775 42.877224 24.569504 42.877224 C 13.860279 42.877224 5.1786666 34.19512 5.1786666 23.4855 C 5.1786666 12.776272 13.860279 4.0951514 24.569504 4.0951514 C 35.27775 4.0951514 43.95985 12.776272 43.95985 23.4855 L 43.95985 23.4855 z "
       stroke="#39396c"
       stroke-width="0.71439725"
       stroke-opacity="1"
       stroke-miterlimit="4"
       id="path118807" />
    <g
       transform="matrix(0.982371,0,0,0.982371,0.121079,0.232914)"
       fill-opacity="0.71345029"
       fill="#204a87"
       fill-rule="nonzero"
       stroke="none"
       stroke-opacity="1"
       stroke-miterlimit="4"
       id="g118809">
      <g
         fill="#204a87"
         id="g118811">
        <g
           fill="#204a87"
           id="g118813">
          <path
             fill="#204a87"
             d="M 44.0713 20.7144 C 44.0713 20.9771 44.0713 20.7144 44.0713 20.7144 L 43.5264 21.3316 C 43.1924 20.938 42.8174 20.607 42.4366 20.2613 L 41.6007 20.3843 L 40.837 19.521 L 40.837 20.5894 L 41.4913 21.0845 L 41.9268 21.5777 L 42.5088 20.9195 C 42.6553 21.1939 42.7998 21.4683 42.9453 21.7427 L 42.9453 22.565 L 42.29 23.3052 L 41.0908 24.1284 L 40.1826 25.0347 L 39.6006 24.3745 L 39.8916 23.6343 L 39.3105 22.9761 L 38.3291 20.8784 L 37.4932 19.9331 L 37.2744 20.1792 L 37.6025 21.3726 L 38.2197 22.0718 C 38.5722 23.0894 38.9209 24.062 39.3838 25.0347 C 40.1016 25.0347 40.7783 24.9585 41.4912 24.8687 L 41.4912 25.4449 L 40.6191 27.5841 L 39.8193 28.4884 L 39.165 29.8888 C 39.165 30.6564 39.165 31.424 39.165 32.1915 L 39.3838 33.0978 L 39.0205 33.508 L 38.2197 34.0021 L 37.3838 34.7013 L 38.0752 35.4826 L 37.1299 36.3068 L 37.3115 36.84 L 35.8935 38.4455 L 34.9492 38.4455 L 34.1494 38.9396 L 33.6396 38.9396 L 33.6396 38.2814 L 33.4228 36.963 C 33.1415 36.1368 32.8486 35.3165 32.5507 34.4962 C 32.5507 33.8907 32.5868 33.2911 32.623 32.6857 L 32.9873 31.8634 L 32.4775 30.8751 L 32.5146 29.5177 L 31.8232 28.7364 L 32.1689 27.6055 L 31.6064 26.9673 L 30.624 26.9673 L 30.2969 26.5972 L 29.3155 27.2149 L 28.9161 26.7613 L 28.0069 27.543 C 27.3897 26.8433 26.7715 26.1441 26.1534 25.4449 L 25.4268 23.7164 L 26.0811 22.7301 L 25.7178 22.319 L 26.5166 20.4254 C 27.1729 19.609 27.8584 18.8258 28.5518 18.0397 L 29.7881 17.7106 L 31.169 17.5465 L 32.1143 17.7936 L 33.459 19.15 L 33.9317 18.6158 L 34.585 18.5338 L 35.8213 18.9449 L 36.7666 18.9449 L 37.4209 18.3687 L 37.7119 17.9576 L 37.0566 17.5465 L 35.9658 17.4645 C 35.6631 17.0446 35.3818 16.6032 35.0224 16.2301 L 34.6581 16.3942 L 34.5126 17.4645 L 33.8583 16.7243 L 33.7138 15.9001 L 32.9872 15.3259 L 32.6952 15.3259 L 33.4227 16.1482 L 33.1317 16.8884 L 32.5506 17.0525 L 32.9139 16.3123 L 32.2586 15.9842 L 31.6785 15.326 L 30.5867 15.5721 L 30.4422 15.9002 L 29.7879 16.3123 L 29.4246 17.2176 L 28.5164 17.6697 L 28.116 17.2176 L 27.6805 17.2176 L 27.6805 15.7362 L 28.6258 15.2421 L 29.3524 15.2421 L 29.2059 14.6669 L 28.6258 14.0907 L 29.6063 13.8846 L 30.1512 13.2684 L 30.5867 12.5272 L 31.3875 12.5272 L 31.1687 11.952 L 31.6785 11.6229 L 31.6785 12.2811 L 32.7683 12.5272 L 33.8581 11.6229 L 33.9313 11.2108 L 34.8756 10.5531 C 34.5338 10.5956 34.192 10.6268 33.858 10.7177 L 33.858 9.9766 L 34.2213 9.1538 L 33.858 9.1538 L 33.0596 9.894 L 32.8408 10.3056 L 33.0596 10.8823 L 32.6953 11.8686 L 32.1142 11.5395 L 31.6064 10.9643 L 30.8056 11.5395 L 30.5146 10.2236 L 31.8955 9.3188 L 31.8955 8.8247 L 32.7685 8.249 L 34.1494 7.9194 L 35.0947 8.249 L 36.8388 8.5781 L 36.4033 9.0713 L 35.458 9.0713 L 36.4033 10.0586 L 37.1299 9.2363 L 37.3506 8.8745 C 37.3506 8.8745 40.1377 11.3725 41.7305 14.105 C 43.3233 16.8384 44.0713 20.0601 44.0713 20.7144 z "
             id="path118815" />
        </g>
      </g>
      <g
         fill="#204a87"
         id="g118817">
        <g
           fill="#204a87"
           id="g118819">
          <path
             fill="#204a87"
             d="M 26.0703 9.2363 L 25.9971 9.7295 L 26.5069 10.0586 L 27.378 9.4829 L 26.9425 8.9892 L 26.3605 9.3188 L 26.0705 9.2363 "
             id="path118821" />
        </g>
      </g>
      <g
         fill="#204a87"
         id="g118823">
        <g
           fill="#204a87"
           id="g118825">
          <path
             fill="#204a87"
             d="M 26.8701 5.8633 L 24.9795 5.1226 L 22.7998 5.3692 L 20.1094 6.1094 L 19.6006 6.6035 L 21.2725 7.7549 L 21.2725 8.4131 L 20.6182 9.0713 L 21.4912 10.8003 L 22.0713 10.4702 L 22.7998 9.3188 C 23.9228 8.9716 24.9297 8.5781 25.9971 8.0844 L 26.8701 5.8632 "
             id="path118827" />
        </g>
      </g>
      <g
         fill="#204a87"
         id="g118829">
        <g
           fill="#204a87"
           id="g118831">
          <path
             fill="#204a87"
             d="M 28.833 12.7749 L 28.542 12.0337 L 28.0322 12.1987 L 28.1787 13.103 L 28.833 12.7749 "
             id="path118833" />
        </g>
      </g>
      <g
         fill="#204a87"
         id="g118835">
        <g
           fill="#204a87"
           id="g118837">
          <path
             fill="#204a87"
             d="M 29.123 12.6089 L 28.9775 13.5972 L 29.7773 13.4322 L 30.3584 12.857 L 29.8496 12.3629 C 29.6787 11.9078 29.4824 11.483 29.2685 11.0465 L 28.833 11.0465 L 28.833 11.5397 L 29.123 11.8688 L 29.123 12.609 "
             id="path118839" />
        </g>
      </g>
      <g
         fill="#204a87"
         id="g118841">
        <g
           fill="#204a87"
           id="g118843">
          <path
             fill="#204a87"
             d="M 18.3652 28.2422 L 17.7832 27.0899 L 16.6929 26.8433 L 16.1114 25.2808 L 14.6578 25.4449 L 13.4224 24.5406 L 12.1133 25.692 L 12.1133 25.8736 C 11.7173 25.7593 11.2305 25.7437 10.8779 25.5269 L 10.5869 24.7046 L 10.5869 23.7993 L 9.7148 23.8813 C 9.7876 23.3051 9.8598 22.7299 9.9331 22.1538 L 9.4238 22.1538 L 8.9155 22.812 L 8.4062 23.0581 L 7.6791 22.6479 L 7.6063 21.7426 L 7.7518 20.7553 L 8.8426 19.933 L 9.7147 19.933 L 9.8597 19.4389 L 10.95 19.685 L 11.7498 20.6733 L 11.8953 19.0268 L 13.2766 17.8754 L 13.7854 16.641 L 14.803 16.2299 L 15.3845 15.4076 L 16.6926 15.1596 L 17.3474 14.1733 C 16.6931 14.1733 16.0388 14.1733 15.3845 14.1733 L 16.6203 13.5971 L 17.4919 13.5971 L 18.7282 13.185 L 18.8737 12.6928 L 18.4372 12.2807 L 17.9284 12.1157 L 18.0739 11.6225 L 17.7106 10.8823 L 16.838 11.2104 L 16.9835 10.5527 L 15.9659 9.9765 L 15.1666 11.3744 L 15.2389 11.8685 L 14.4396 12.1986 L 13.9303 13.2679 L 13.7125 12.2806 L 12.3312 11.7044 L 12.1129 10.9642 L 13.9303 9.8939 L 14.7301 9.1537 L 14.8029 8.2489 L 14.3669 8.0018 L 13.7854 7.9193 L 13.4221 8.8246 C 13.4221 8.8246 12.8142 8.9437 12.6579 8.9823 C 10.6618 10.8217 6.6286 14.7924 5.6916 22.2885 C 5.7287 22.4623 6.3708 23.4701 6.3708 23.4701 L 7.8972 24.3744 L 9.4236 24.7865 L 10.0784 25.6097 L 11.0955 26.3499 L 11.677 26.2679 L 12.113 26.4642 L 12.113 26.597 L 11.5319 28.16 L 11.0954 28.8182 L 11.2409 29.1483 L 10.8776 30.3807 L 12.1862 32.7674 L 13.4943 33.9197 L 14.0763 34.742 L 14.0031 36.4705 L 14.4396 37.4568 L 14.0031 39.3494 C 14.0031 39.3494 13.9689 39.3377 14.0246 39.5271 C 14.0808 39.7166 16.3537 40.9783 16.4982 40.8709 C 16.6422 40.7615 16.7653 40.6658 16.7653 40.6658 L 16.6203 40.2556 L 17.2014 39.6794 L 17.4197 39.1032 L 18.365 38.7731 L 19.0916 36.9626 L 18.8738 36.4704 L 19.3816 35.7302 L 20.4724 35.4822 L 21.0544 34.1658 L 20.9089 32.5213 L 21.781 31.2869 L 21.9265 30.0525 C 20.7331 29.4607 19.5495 28.8513 18.365 28.242 "
             id="path118845" />
        </g>
      </g>
      <g
         fill="#204a87"
         id="g118847">
        <g
           fill="#204a87"
           id="g118849">
          <path
             fill="#204a87"
             d="M 16.7656 9.5649 L 17.4922 10.0586 L 18.0742 10.0586 L 18.0742 9.4829 L 17.3476 9.1538 L 16.7656 9.5649 "
             id="path118851" />
        </g>
      </g>
      <g
         fill="#204a87"
         id="g118853">
        <g
           fill="#204a87"
           id="g118855">
          <path
             fill="#204a87"
             d="M 14.876 8.9072 L 14.5122 9.812 L 15.2393 9.812 L 15.6031 8.9892 C 15.9166 8.7675 16.2286 8.5444 16.5479 8.331 L 17.275 8.5781 C 17.7594 8.9072 18.2438 9.2363 18.7286 9.5649 L 19.4561 8.9072 L 18.6558 8.5781 L 18.292 7.8374 L 16.9111 7.6728 L 16.8383 7.2612 L 16.184 7.4262 L 15.8936 8.002 L 15.5298 7.2613 L 15.3848 7.5904 L 15.4576 8.4132 L 14.876 8.9072 "
             id="path118857" />
        </g>
      </g>
      <g
         fill="#204a87"
         id="g118859">
        <g
           fill="#204a87"
           fill-opacity="0.75"
           stroke-opacity="0.75"
           id="g118861">
          <path
             fill="#204a87"
             d=""
             id="path118863" />
        </g>
        <g
           fill="#204a87"
           id="g118865">
          <path
             fill="#204a87"
             d=""
             id="path118867" />
        </g>
      </g>
      <g
         fill="#204a87"
         id="g118869">
        <g
           fill="#204a87"
           fill-opacity="0.75"
           stroke-opacity="0.75"
           id="g118871">
          <path
             fill="#204a87"
             d=""
             id="path118873" />
        </g>
        <g
           fill="#204a87"
           id="g118875">
          <path
             fill="#204a87"
             d=""
             id="path118877" />
        </g>
      </g>
      <g
         fill="#204a87"
         id="g118879">
        <g
           fill="#204a87"
           id="g118881">
          <path
             fill="#204a87"
             d="M 17.4922 6.8496 L 17.856 6.521 L 18.5831 6.3564 C 19.0811 6.1142 19.5811 5.9511 20.1095 5.7802 L 19.8195 5.2865 L 18.881 5.4213 L 18.4376 5.8632 L 17.7066 5.9692 L 17.0567 6.2744 L 16.7408 6.4272 L 16.5479 6.6855 L 17.4922 6.8496 "
             id="path118883" />
        </g>
      </g>
      <g
         fill="#204a87"
         id="g118885">
        <g
           fill="#204a87"
           id="g118887">
          <path
             fill="#204a87"
             d="M 18.7285 14.6665 L 19.165 14.0083 L 18.5102 13.5151 L 18.7285 14.6665 "
             id="path118889" />
        </g>
      </g>
    </g>
    <path
       fill-opacity="1"
       fill="url(#radialGradient3324)"
       fill-rule="nonzero"
       d="M 24.5625 4.59375 C 14.12694 4.59375 5.65625 13.064421 5.65625 23.5 C 5.65625 33.935936 14.126909 42.406246 24.5625 42.40625 C 34.997185 42.40625 43.46875 33.93604 43.46875 23.5 C 43.46875 13.064406 34.997154 4.59375 24.5625 4.59375 z M 24.5625 5.59375 C 34.45669 5.59375 42.46875 13.60488 42.46875 23.5 C 42.46875 33.39559 34.456665 41.40625 24.5625 41.40625 C 14.667384 41.406246 6.65625 33.39551 6.65625 23.5 C 6.65625 13.604866 14.667354 5.59375 24.5625 5.59375 z "
       stroke="none"
       stroke-opacity="1"
       stroke-miterlimit="4"
       id="path118891" />
  </g>
  <rect
     inkscape:transform-center-x="-0.26691096"
     transform="matrix(-0.499857,0.8661079,-0.8659428,-0.5001431,0,0)"
     inkscape:transform-center-y="0.99612571"
     ry="2.609117"
     rx="2.6096141"
     y="-75.231781"
     x="-20.732677"
     height="7.0492549"
     width="21.212194"
     id="rect18667"
     style="fill:#8ae234;fill-opacity:1;stroke:#4e9a06;stroke-width:0.87590802;stroke-linecap:round;stroke-linejoin:miter;stroke-miterlimit:4;stroke-dasharray:none;stroke-dashoffset:0;stroke-opacity:1" />
  <rect
     inkscape:transform-center-x="-0.26691096"
     transform="matrix(0.8659428,-0.5001431,-0.499857,-0.8661079,0,0)"
     inkscape:transform-center-y="0.99612571"
     ry="2.6096141"
     rx="2.609117"
     y="-73.551971"
     x="-14.392682"
     height="7.0505981"
     width="21.208153"
     id="rect18669"
     style="fill:#8ae234;fill-opacity:1;stroke:#4e9a06;stroke-width:0.87590802;stroke-linecap:round;stroke-linejoin:miter;stroke-miterlimit:4;stroke-dasharray:none;stroke-dashoffset:0;stroke-opacity:1" />
  <path
     id="path18671"
     d="M 66.687894,62.189548 C 79.720886,49.151586 84.690219,32.674672 78.447251,24.249207 C 77.623283,22.008962 76.040074,20.042764 73.813598,18.756817 C 73.297921,18.458977 72.757009,18.219078 72.217128,18.016707 L 61.82061,36.052003 C 62.265743,36.418546 62.745649,36.805899 63.261326,37.103738 C 64.488874,37.812734 65.792786,38.210116 67.116214,38.389191 C 68.57732,43.285418 66.080005,50.332671 60.45777,55.95705 C 54.835536,61.581428 47.790969,64.079698 42.89661,62.618034 C 42.716839,61.297229 42.279789,60.025793 41.572709,58.800627 C 41.274984,58.284754 40.926718,57.765708 40.560313,57.320409 L 22.531895,67.720892 C 22.734188,68.26098 22.974001,68.802095 23.271722,69.31797 C 24.584115,71.591967 26.620325,73.222247 28.917772,74.031299 C 37.38014,80.124737 53.724387,75.158 66.687894,62.189548 z"
     style="fill:url(#radialGradient20425);fill-opacity:1;stroke:#4e9a06;stroke-width:0.87590802;stroke-linecap:round;stroke-linejoin:miter;marker-start:none;stroke-miterlimit:4;stroke-dasharray:none;stroke-dashoffset:0;stroke-opacity:1" />
  <path
     transform="matrix(-1.2460247,1.2464999,-1.2460247,-1.2464999,109.83117,45.392818)"
     d="M 10.28125,18.03125 C 9.5736169,17.93258 8.8345396,17.989006 8.09375,18.1875 C 5.1417658,18.978483 3.3968235,21.986655 4.1875,24.9375 C 4.2294144,25.093927 4.2860071,25.253209 4.34375,25.40625 L 14.9375,22.59375 C 14.913297,22.408905 14.887368,22.225284 14.84375,22.0625 C 14.250695,19.849188 12.415004,18.328774 10.28125,18.03125 z"
     id="path18673"
     style="fill:url(#radialGradient33057);fill-opacity:1;stroke:none;stroke-width:1.00000012;stroke-linecap:round;stroke-linejoin:miter;stroke-miterlimit:4;stroke-dasharray:none;stroke-dashoffset:0;stroke-opacity:1"
     inkscape:original="M 10.34375 17.5625 C 9.5718404 17.454867 8.7685364 17.504448 7.96875 17.71875 C 4.769604 18.57596 2.8615416 21.863355 3.71875 25.0625 C 3.8062083 25.388899 3.9270339 25.702183 4.0625 26 L 15.46875 22.9375 C 15.437158 22.61185 15.399959 22.263899 15.3125 21.9375 C 14.669594 19.538141 12.659479 17.885398 10.34375 17.5625 z "
     inkscape:radius="-0.47406253"
     sodipodi:type="inkscape:offset" />
  <path
     transform="matrix(-1.2460247,1.2464999,-1.2460247,-1.2464999,109.83117,45.392818)"
     d="M 37.75,18.03125 C 35.617916,18.328542 33.780097,19.850896 33.1875,22.0625 C 33.139948,22.239965 33.125627,22.41277 33.09375,22.59375 L 43.65625,25.40625 C 43.713949,25.253325 43.770626,25.093772 43.8125,24.9375 C 44.603318,21.986127 42.886463,18.977673 39.9375,18.1875 C 39.197252,17.989151 38.457043,17.932662 37.75,18.03125 z"
     id="path18675"
     style="fill:url(#radialGradient33059);fill-opacity:1;stroke:none;stroke-width:1.00000012;stroke-linecap:round;stroke-linejoin:miter;stroke-miterlimit:4;stroke-dasharray:none;stroke-dashoffset:0;stroke-opacity:1"
     inkscape:original="M 37.6875 17.5625 C 35.371771 17.885399 33.361656 19.538141 32.71875 21.9375 C 32.631291 22.263899 32.562841 22.611851 32.53125 22.9375 L 43.9375 26 C 44.072966 25.702183 44.193789 25.388898 44.28125 25.0625 C 45.138458 21.863355 43.261646 18.575959 40.0625 17.71875 C 39.262714 17.504448 38.45941 17.454867 37.6875 17.5625 z "
     inkscape:radius="-0.47841442"
     sodipodi:type="inkscape:offset" />
  <path
     transform="matrix(-1.2460247,1.2464999,-1.2460247,-1.2464999,109.83117,45.392818)"
     d="M 24,11.53125 C 18.921657,11.53125 14.291861,12.675735 10.90625,14.46875 C 7.5206391,16.261765 5.4645692,18.660869 5.09375,21.15625 C 5.0762252,21.25403 5.0446482,21.348761 5,21.4375 C 4.5294438,22.455912 4.4040816,23.606892 4.71875,24.78125 C 4.6773163,24.626617 4.7076549,24.66492 4.78125,24.90625 C 4.8062906,24.988364 4.7737549,24.972537 4.78125,25.03125 C 4.781408,25.041666 4.781408,25.052084 4.78125,25.0625 C 4.7931605,25.093232 4.8035892,25.124518 4.8125,25.15625 C 4.805474,25.06881 4.8126453,25.133916 4.84375,25.25 C 4.843908,25.260416 4.843908,25.270834 4.84375,25.28125 L 5.09375,26.28125 C 5.1622416,26.536864 5.354334,26.635025 5.625,26.5625 L 14.4375,24.21875 C 14.693114,24.150259 14.791275,23.958167 14.71875,23.6875 C 14.718592,23.677084 14.718592,23.666666 14.71875,23.65625 L 14.46875,22.65625 C 14.491254,22.740236 14.502581,22.724236 14.4375,22.59375 C 14.395536,22.514837 14.364022,22.430798 14.34375,22.34375 C 14.304919,22.159697 14.286823,22.122924 14.3125,22.21875 C 14.142918,21.58586 13.85979,21.01337 13.46875,20.5 C 13.216496,20.177036 13.179682,19.735262 13.375,19.375 C 15.034329,16.303335 19.210187,14.46875 24,14.46875 C 28.789814,14.46875 32.965672,16.303335 34.625,19.375 C 34.820318,19.735262 34.783504,20.177036 34.53125,20.5 C 34.155167,20.99464 33.894164,21.564097 33.71875,22.21875 C 33.713479,22.238423 33.700283,22.261112 33.6875,22.3125 C 33.667228,22.399548 33.635714,22.483587 33.59375,22.5625 C 33.535416,22.666858 33.518774,22.73406 33.53125,22.6875 L 33.28125,23.65625 C 33.281408,23.666666 33.281408,23.677084 33.28125,23.6875 C 33.208726,23.958166 33.338137,24.150259 33.59375,24.21875 L 42.34375,26.5625 C 42.614418,26.635025 42.837758,26.505615 42.90625,26.25 L 43.15625,25.28125 C 43.156092,25.270834 43.156092,25.260416 43.15625,25.25 C 43.187354,25.133919 43.194526,25.068809 43.1875,25.15625 C 43.187648,25.071952 43.198143,24.987991 43.21875,24.90625 C 43.292343,24.664932 43.322681,24.626633 43.28125,24.78125 C 43.602546,23.582157 43.461215,22.371283 42.96875,21.34375 C 42.924102,21.255011 42.892525,21.16028 42.875,21.0625 C 42.471132,18.583777 40.407544,16.213918 37.03125,14.4375 C 33.654956,12.661082 29.051262,11.53125 24,11.53125 z"
     id="path18677"
     style="opacity:0.58620689000000004;fill:none;fill-opacity:1;stroke:#ffffff;stroke-width:0.99394917000000005;stroke-linecap:round;stroke-linejoin:miter;stroke-miterlimit:4;stroke-dasharray:none;stroke-dashoffset:0;stroke-opacity:1"
     inkscape:original="M 24 10.5 C 13.540342 10.5 4.9369948 15.115197 4.0625 21 C 3.4945247 22.229253 3.3411412 23.653245 3.71875 25.0625 C 3.7334834 25.117486 3.7647122 25.16452 3.78125 25.21875 C 3.7841345 25.228209 3.7783138 25.240565 3.78125 25.25 C 3.788405 25.339046 3.8197661 25.441741 3.84375 25.53125 L 4.09375 26.53125 C 4.3060333 27.323502 5.1139975 27.774783 5.90625 27.5625 L 14.6875 25.21875 C 15.479752 25.006467 15.931033 24.198503 15.71875 23.40625 L 15.46875 22.40625 C 15.442215 22.307218 15.387727 22.213173 15.34375 22.125 C 15.33063 22.062813 15.328837 21.998469 15.3125 21.9375 C 15.104309 21.160519 14.74048 20.477891 14.28125 19.875 C 15.658933 17.324703 19.487863 15.5 24 15.5 C 28.512138 15.5 32.341068 17.324703 33.71875 19.875 C 33.261083 20.476943 32.926458 21.162323 32.71875 21.9375 C 32.707694 21.978762 32.697913 22.020638 32.6875 22.0625 C 32.628492 22.168063 32.564047 22.283851 32.53125 22.40625 L 32.28125 23.40625 C 32.068968 24.198502 32.520248 25.006467 33.3125 25.21875 L 42.09375 27.5625 C 42.886004 27.774784 43.693967 27.323502 43.90625 26.53125 L 44.15625 25.53125 C 44.180234 25.441741 44.211595 25.339045 44.21875 25.25 C 44.219511 25.240527 44.218173 25.228207 44.21875 25.21875 C 44.235288 25.16452 44.266516 25.117486 44.28125 25.0625 C 44.666771 23.623715 44.503631 22.15269 43.90625 20.90625 C 42.954722 15.066284 34.403892 10.5 24 10.5 z "
     inkscape:radius="-1.0299597"
     sodipodi:type="inkscape:offset" />
  <path
     id="path18679"
     d="M 71.317357,21.584759 L 67.132265,28.856377 C 67.938088,29.739869 69.092384,30.288665 70.381218,30.288665 C 72.812976,30.288665 74.786574,28.314311 74.786579,25.881624 C 74.786579,23.77195 73.297541,22.016271 71.317357,21.584759 z"
     style="opacity:0.8;fill:url(#linearGradient20419);fill-opacity:1;stroke:none;stroke-width:1.29538584;stroke-linecap:round;stroke-linejoin:miter;stroke-miterlimit:4;stroke-dasharray:none;stroke-dashoffset:0;stroke-opacity:1;display:inline" />
  <path
     id="path18681"
     d="M 38.222084,59.70567 L 30.898172,64.002534 C 31.39189,65.896374 33.091262,67.307817 35.13833,67.307817 C 37.570089,67.307817 39.543687,65.333462 39.543692,62.900775 C 39.543692,61.65605 39.052469,60.50733 38.222084,59.70567 z"
     style="opacity:0.8;fill:url(#linearGradient20416);fill-opacity:1;stroke:none;stroke-width:1.29538584;stroke-linecap:round;stroke-linejoin:miter;stroke-miterlimit:4;stroke-dasharray:none;stroke-dashoffset:0;stroke-opacity:1;display:inline" />
  <path
     transform="matrix(1.7621444,0,0,1.7628167,-92.727269,9.4653936)"
     d="M 91.96875,6.578125 A 0.734375,0.734375 0 1 1 90.5,6.578125 A 0.734375,0.734375 0 1 1 91.96875,6.578125 z"
     sodipodi:ry="0.734375"
     sodipodi:rx="0.734375"
     sodipodi:cy="6.578125"
     sodipodi:cx="91.234375"
     id="path18683"
     style="fill:#ecfbdd;fill-opacity:1;stroke:none;stroke-width:1;stroke-linecap:round;stroke-linejoin:miter;stroke-miterlimit:4;stroke-dasharray:none;stroke-dashoffset:0;stroke-opacity:1"
     sodipodi:type="arc" />
  <path
     transform="matrix(1.7621444,0,0,1.7628167,-125.27187,46.429457)"
     d="M 91.96875,6.578125 A 0.734375,0.734375 0 1 1 90.5,6.578125 A 0.734375,0.734375 0 1 1 91.96875,6.578125 z"
     sodipodi:ry="0.734375"
     sodipodi:rx="0.734375"
     sodipodi:cy="6.578125"
     sodipodi:cx="91.234375"
     id="path18685"
     style="fill:#ecfbdd;fill-opacity:1;stroke:none;stroke-width:1;stroke-linecap:round;stroke-linejoin:miter;stroke-miterlimit:4;stroke-dasharray:none;stroke-dashoffset:0;stroke-opacity:1;display:inline"
     sodipodi:type="arc" />
</svg>
