<?xml version="1.0" encoding="UTF-8"?>
<svg xmlns="http://www.w3.org/2000/svg" xmlns:xlink="http://www.w3.org/1999/xlink" contentScriptType="text/ecmascript" width="88" baseProfile="tiny" zoomAndPan="magnify" contentStyleType="text/css" viewBox="0 0 88 88" height="88" preserveAspectRatio="xMidYMid meet" version="1.0">
    <defs>
        <linearGradient x1="16.125" gradientTransform="matrix(0.508836,0,0,0.467573,-1.226211,-0.38349)" y1="13" x2="27.375" gradientUnits="userSpaceOnUse" y2="28.875" xlink:type="simple" xlink:actuate="onLoad" id="linearGradient37105" xlink:show="other">
            <stop stop-opacity="0.87628865" stop-color="#ffffff" offset="0.0000000"/>
            <stop stop-opacity="0.0000000" stop-color="#fffffe" offset="1.0000000"/>
        </linearGradient>
        <linearGradient x1="-18.213005" y1="7.8469815" x2="-23.30942" gradientUnits="userSpaceOnUse" y2="-4.3756437" xlink:type="simple" xlink:actuate="onLoad" id="linearGradient37103" xlink:show="other">
            <stop stop-opacity="1" stop-color="#edd400" offset="0"/>
            <stop stop-opacity="1" stop-color="#ffef66" offset="1"/>
        </linearGradient>
        <linearGradient x1="16.125" gradientTransform="matrix(0.508836,0,0,0.467573,-1.226211,-0.38349)" y1="13" x2="27.375" gradientUnits="userSpaceOnUse" y2="28.875" xlink:type="simple" xlink:actuate="onLoad" id="linearGradient37101" xlink:show="other">
            <stop stop-opacity="0.87628865" stop-color="#ffffff" offset="0.0000000"/>
            <stop stop-opacity="0.0000000" stop-color="#fffffe" offset="1.0000000"/>
        </linearGradient>
        <linearGradient x1="-18.213005" y1="7.8469815" x2="-23.30942" gradientUnits="userSpaceOnUse" y2="-4.3756437" xlink:type="simple" xlink:actuate="onLoad" id="linearGradient37099" xlink:show="other">
            <stop stop-opacity="1" stop-color="#edd400" offset="0"/>
            <stop stop-opacity="1" stop-color="#ffef66" offset="1"/>
        </linearGradient>
        <linearGradient x1="16.125" gradientTransform="matrix(0.508836,0,0,0.467573,-1.226211,-0.38349)" y1="13" x2="27.375" gradientUnits="userSpaceOnUse" y2="28.875" xlink:type="simple" xlink:actuate="onLoad" id="linearGradient37097" xlink:show="other">
            <stop stop-opacity="0.87628865" stop-color="#ffffff" offset="0.0000000"/>
            <stop stop-opacity="0.0000000" stop-color="#fffffe" offset="1.0000000"/>
        </linearGradient>
        <linearGradient x1="-18.213005" y1="7.8469815" x2="-23.30942" gradientUnits="userSpaceOnUse" y2="-4.3756437" xlink:type="simple" xlink:actuate="onLoad" id="linearGradient37095" xlink:show="other">
            <stop stop-opacity="1" stop-color="#edd400" offset="0"/>
            <stop stop-opacity="1" stop-color="#ffef66" offset="1"/>
        </linearGradient>
        <linearGradient x1="16.125" gradientTransform="matrix(0.508836,0,0,0.467573,-1.226211,-0.38349)" y1="13" x2="27.375" gradientUnits="userSpaceOnUse" y2="28.875" xlink:type="simple" xlink:actuate="onLoad" id="linearGradient37075" xlink:show="other">
            <stop stop-opacity="0.87628865" stop-color="#ffffff" offset="0.0000000"/>
            <stop stop-opacity="0.0000000" stop-color="#fffffe" offset="1.0000000"/>
        </linearGradient>
        <linearGradient x1="-18.213005" y1="7.8469815" x2="-23.30942" gradientUnits="userSpaceOnUse" y2="-4.3756437" xlink:type="simple" xlink:actuate="onLoad" id="linearGradient37073" xlink:show="other">
            <stop stop-opacity="1" stop-color="#edd400" offset="0"/>
            <stop stop-opacity="1" stop-color="#ffef66" offset="1"/>
        </linearGradient>
        <linearGradient xlink:type="simple" xlink:actuate="onLoad" id="linearGradient3807" xlink:show="other">
            <stop stop-opacity="1" stop-color="#1d1d1c" offset="0"/>
            <stop stop-opacity="1" stop-color="#1d1d1c" offset="1"/>
        </linearGradient>
        <linearGradient xlink:type="simple" xlink:actuate="onLoad" id="linearGradient4547" xlink:show="other">
            <stop stop-opacity="1" stop-color="#FFFFFF" offset="0"/>
            <stop stop-opacity="0" stop-color="#FFFFFF" offset="1"/>
        </linearGradient>
        <linearGradient xlink:type="simple" xlink:actuate="onLoad" id="linearGradient3835" xlink:show="other">
            <stop stop-opacity="1" stop-color="#d7d9d5" offset="0"/>
            <stop stop-opacity="1" stop-color="#b9bcb5" offset="0.5"/>
            <stop stop-opacity="1" stop-color="#d7d9d5" offset="1"/>
        </linearGradient>
        <radialGradient gradientTransform="matrix(-1.050733,1.050733,-0.825077,-0.825077,69.79845,3.974823)" gradientUnits="userSpaceOnUse" xlink:type="simple" r="21.205021" xlink:actuate="onLoad" cx="25.397615" cy="18.51367" xlink:show="other" fx="25.397615" fy="18.51367">
            <stop stop-opacity="1" stop-color="#5c3566" offset="0"/>
            <stop stop-opacity="0" stop-color="#5c3566" offset="1"/>
        </radialGradient>
        <radialGradient gradientTransform="matrix(0,2.234074,-1.875741,0,49.33379,-48.7898)" gradientUnits="userSpaceOnUse" xlink:type="simple" r="18.769213" xlink:actuate="onLoad" cx="26.415443" cy="11.787436" xlink:show="other" fx="26.415443" fy="11.787436">
            <stop stop-opacity="1" stop-color="#ad7fa8" offset="0"/>
            <stop stop-opacity="1" stop-color="#ad7fa8" offset="1"/>
        </radialGradient>
        <linearGradient x1="29.57472" y1="17.800808" x2="29.57472" gradientUnits="userSpaceOnUse" y2="51.458286" xlink:type="simple" xlink:actuate="onLoad" xlink:show="other">
            <stop stop-opacity="1" stop-color="#75507b" offset="0"/>
            <stop stop-opacity="1" stop-color="#ad7fa8" offset="1"/>
        </linearGradient>
        <radialGradient gradientTransform="matrix(0,1.934247,-1.875741,0,49.33379,-40.86975)" gradientUnits="userSpaceOnUse" xlink:type="simple" r="18.769213" xlink:actuate="onLoad" cx="26.415443" cy="11.787436" xlink:show="other" fx="26.415443" fy="11.787436">
            <stop stop-opacity="1" stop-color="#8ae234" offset="0"/>
            <stop stop-opacity="0" stop-color="#73d216" offset="1"/>
        </radialGradient>
        <radialGradient gradientTransform="matrix(-0.206566,0.770914,-1.392812,-0.373203,61.67344,16.76019)" gradientUnits="userSpaceOnUse" xlink:type="simple" r="21.205021" xlink:actuate="onLoad" cx="9.8163519" cy="25.721907" xlink:show="other" fx="9.8163519" fy="25.721907">
            <stop stop-opacity="1" stop-color="#4e9a06" offset="0"/>
            <stop stop-opacity="0" stop-color="#4e9a06" offset="1"/>
        </radialGradient>
        <linearGradient x1="29.57472" y1="10.923145" x2="29.57472" gradientUnits="userSpaceOnUse" y2="47.859665" xlink:type="simple" xlink:actuate="onLoad" xlink:show="other">
            <stop stop-opacity="1" stop-color="#73d216" offset="0"/>
            <stop stop-opacity="1" stop-color="#8ae234" offset="1"/>
        </linearGradient>
        <radialGradient gradientTransform="matrix(1.114829,0,0,0.217949,-2.902778,33.32188)" gradientUnits="userSpaceOnUse" xlink:type="simple" r="20.682873" xlink:actuate="onLoad" cx="25.279068" cy="42.608311" xlink:show="other" fx="25.279068" fy="42.608311">
            <stop stop-opacity="1" stop-color="#babdb6" offset="0"/>
            <stop stop-opacity="0" stop-color="#babdb6" offset="1"/>
        </radialGradient>
        <linearGradient xlink:type="simple" xlink:actuate="onLoad" xlink:show="other">
            <stop stop-opacity="1" stop-color="#4e9a06" offset="0"/>
            <stop stop-opacity="0" stop-color="#4e9a06" offset="1"/>
        </linearGradient>
        <linearGradient xlink:type="simple" xlink:actuate="onLoad" xlink:show="other">
            <stop stop-opacity="1" stop-color="#8ae234" offset="0"/>
            <stop stop-opacity="0" stop-color="#73d216" offset="1"/>
        </linearGradient>
        <linearGradient xlink:type="simple" xlink:actuate="onLoad" xlink:show="other">
            <stop stop-opacity="1" stop-color="#73d216" offset="0"/>
            <stop stop-opacity="1" stop-color="#8ae234" offset="1"/>
        </linearGradient>
        <linearGradient xlink:type="simple" xlink:actuate="onLoad" xlink:show="other">
            <stop stop-opacity="1" stop-color="#babdb6" offset="0"/>
            <stop stop-opacity="0" stop-color="#babdb6" offset="1"/>
        </linearGradient>
        <linearGradient xlink:type="simple" xlink:actuate="onLoad" xlink:show="other">
            <stop stop-opacity="1" stop-color="#ad7fa8" offset="0"/>
            <stop stop-opacity="1" stop-color="#ad7fa8" offset="1"/>
        </linearGradient>
        <linearGradient xlink:type="simple" xlink:actuate="onLoad" xlink:show="other">
            <stop stop-opacity="1" stop-color="#75507b" offset="0"/>
            <stop stop-opacity="1" stop-color="#ad7fa8" offset="1"/>
        </linearGradient>
        <linearGradient xlink:type="simple" xlink:actuate="onLoad" xlink:show="other">
            <stop stop-opacity="1" stop-color="#5c3566" offset="0"/>
            <stop stop-opacity="0" stop-color="#5c3566" offset="1"/>
        </linearGradient>
        <linearGradient gradientTransform="matrix(1.6777409,0,0,1.6777409,1.2176084,2.4191591)" id="linearGradient27614" gradientUnits="userSpaceOnUse" xlink:show="other" xlink:type="simple" x1="16.125" y1="7.5312462" y2="45.656246" x2="47.125" xlink:actuate="onLoad">
            <stop stop-opacity="1" stop-color="#1d1d1c" offset="0"/>
            <stop stop-opacity="1" stop-color="#1d1d1c" offset="1"/>
        </linearGradient>
        <linearGradient gradientTransform="matrix(1.4803592,0,0,1.2184509,6.2508311,8.230509)" id="linearGradient27617" gradientUnits="userSpaceOnUse" xlink:show="other" xlink:type="simple" x1="21.142857" y1="8.5714283" y2="25.181578" x2="22.453627" xlink:actuate="onLoad">
            <stop stop-opacity="1" stop-color="#FFFFFF" offset="0"/>
            <stop stop-opacity="0" stop-color="#FFFFFF" offset="1"/>
        </linearGradient>
        <linearGradient gradientTransform="matrix(1.6777409,0,0,1.6763806,1.2176084,2.4796313)" id="linearGradient27625" gradientUnits="userSpaceOnUse" xlink:show="other" xlink:type="simple" x1="23.6875" y1="23.960518" y2="23.960518" x2="39.75" xlink:actuate="onLoad">
            <stop stop-opacity="1" stop-color="#d7d9d5" offset="0"/>
            <stop stop-opacity="1" stop-color="#b9bcb5" offset="0.5"/>
            <stop stop-opacity="1" stop-color="#d7d9d5" offset="1"/>
        </linearGradient>
    </defs>
    <rect fill-opacity="0.3" display="inline" stroke="none" visibility="visible" stroke-linecap="round" width="31" transform="matrix(1.3530168,0,0,1.2201752,10.42827,22.857093)" stroke-miterlimit="4" stroke-opacity="1" fill="#383838" stroke-dasharray="none" stroke-width="3" height="5.5" x="9.3125" stroke-linejoin="round" rx="2.8416667" y="41" ry="2.5208333" stroke-dashoffset="0" fill-rule="nonzero"/>
    <rect fill-opacity="1" display="inline" stroke="#888a85" stroke-linecap="round" width="36.910301" stroke-miterlimit="4" stroke-opacity="1" fill="url(#linearGradient27625)" stroke-dasharray="none" stroke-width="0.8" height="68.710655" x="25.544849" stroke-linejoin="round" rx="3.6475646" y="8.2912521" ry="4.1129398"/>
    <rect fill-opacity="0.5" display="inline" stroke="#ffffff" stroke-linecap="round" width="33.449959" stroke-miterlimit="4" stroke-opacity="1" fill="none" stroke-dasharray="none" stroke-width="1.67774081000000000" height="65.431892" x="27.32745" stroke-linejoin="round" rx="2.5989764" y="9.9689932" ry="2.3799293"/>
    <path stroke-linecap="round" fill-opacity="1" display="inline" fill="#eeeeec" stroke-linejoin="miter" stroke-dasharray="none" d="M 29.010277 59.940502 L 28.900331 67.90067 C 28.924173 69.52401 28.772688 72.29244 30.191084 72.83011 C 30.191084 72.83011 37.049206 73.6183 43.96715 73.6183 C 50.885113 73.6183 57.985226 72.81592 57.985226 72.76349 C 59.504944 72.26536 59.20116 69.5209 59.20116 67.97326 L 59.145977 59.792213 C 59.374237 58.309284 57.896687 57.048798 56.344975 57.048798 L 31.74002 57.048798 C 30.286224 57.073513 28.98076 58.284573 29.010277 59.940502 z " stroke="#888a85" stroke-width="0.8" stroke-opacity="1" stroke-miterlimit="4"/>
    <rect fill-opacity="1" stroke="none" stroke-linecap="butt" width="25.166113" stroke-miterlimit="4" stroke-opacity="1" fill="#254774" stroke-dasharray="none" stroke-width="1" height="31.877077" x="31.416945" stroke-linejoin="round" rx="0" y="19.196568" ry="0" stroke-dashoffset="0" fill-rule="nonzero"/>
    <path stroke-linecap="butt" fill-opacity="0.5" fill="url(#linearGradient27617)" fill-rule="evenodd" stroke-linejoin="miter" d="M 31.416945 42.29185 C 35.78753 42.1526 45.42837 30.607288 56.583057 29.840569 L 56.583057 19.196568 L 31.416945 19.196568 L 31.416945 42.29185 z " stroke="none" stroke-width="1px" stroke-opacity="1"/>
    <rect fill-opacity="0.77307691000000001" stroke="url(#linearGradient27614)" stroke-linecap="butt" width="26.843855" stroke-miterlimit="4" stroke-opacity="1" fill="none" stroke-dasharray="none" stroke-width="0.8" height="33.449951" x="30.578074" stroke-linejoin="round" rx="0.78895456" y="18.357697" ry="0.54863238" stroke-dashoffset="0" fill-rule="nonzero"/>
    <rect fill-opacity="1" stroke="#888a85" stroke-linecap="butt" width="5.8720932" stroke-miterlimit="4" stroke-opacity="1" fill="#000000" stroke-dasharray="none" stroke-width="0.83887047" height="4.1943521" x="50.291531" stroke-linejoin="round" rx="1.3822953" y="11.227299" ry="1.3106683" fill-rule="evenodd"/>
    <path stroke-linecap="round" fill-opacity="1" display="inline" fill="none" stroke-linejoin="miter" stroke-dasharray="none" d="M 30.169031 64.91501 L 52.635544 64.99852 L 57.841366 65.017876 " stroke="#555753" stroke-width="0.83887023" stroke-opacity="1" stroke-miterlimit="4"/>
    <rect fill-opacity="1" stroke="#888a85" stroke-linecap="butt" width="19.923174" stroke-miterlimit="4" stroke-opacity="1" fill="#eeeeec" stroke-dasharray="none" stroke-width="0.8" height="9.961587" x="34.038414" stroke-linejoin="round" rx="1.7434049" y="60.406078" ry="1.4790285" fill-rule="evenodd"/>
    <g transform="matrix(1.8678791,0,0,1.939474,-3.5754126,3.3233046)">
        <rect fill-opacity="1" stroke="none" stroke-linecap="butt" width="4.0164661" stroke-opacity="1" fill="#f6f7f7" stroke-width="1px" height="3.0883913" x="23.469669" stroke-linejoin="round" rx="0.35355341" y="30.441942" ry="0.53356391" fill-rule="evenodd"/>
        <rect fill-opacity="1" stroke="#444643" stroke-linecap="butt" width="5.8782458" stroke-miterlimit="4" stroke-opacity="1" fill="#c7c7c0" stroke-dasharray="none" stroke-width="0.440736" height="5.5507412" x="22.537441" stroke-linejoin="round" rx="1.5163262" y="29.199259" ry="1.4396373" fill-rule="evenodd"/>
    </g>
    <g transform="matrix(0.7918264,0,0,0.8371741,23.887398,38.506782)">
        <rect fill-opacity="1" stroke="none" stroke-linecap="butt" width="4.0164661" stroke-opacity="1" fill="#f6f7f7" stroke-width="1px" height="3.0883913" x="23.469669" stroke-linejoin="round" rx="0.35355341" y="30.441942" ry="0.53356391" fill-rule="evenodd"/>
        <rect fill-opacity="1" stroke="#444643" stroke-linecap="butt" width="5.8782458" stroke-miterlimit="4" stroke-opacity="1" fill="#c7c7c0" stroke-dasharray="none" stroke-width="1.03031957" height="5.5507412" x="22.537441" stroke-linejoin="round" rx="1.5163262" y="29.199259" ry="1.4396373" fill-rule="evenodd"/>
    </g>
    <g transform="matrix(0.7072518,0,0,0.7072518,7.3008048,34.972073)">
        <path stroke-linecap="round" transform="matrix(0.436316,3.992828e-2,-4.167603e-2,0.418019,19.21122,10.68537)" fill-opacity="1" stroke-dashoffset="0" fill="url(#linearGradient37103)" stroke-linejoin="miter" d="M -2.8284285 20.422836 L -17.601885 14.361198 L -30.970612 23.094784 L -29.770905 7.171243 L -42.258236 -3.3681824 L -26.543177 -5.0524936 L -21.011229 -21.54756 L -12.472083 -6.388468 L 3.2767756 -7.691485 L -7.003397 5.009592 L -2.8284285 20.422836 z " stroke="#ce9500" stroke-width="2.33092999" stroke-opacity="1" stroke-miterlimit="4"/>
        <path stroke-linecap="round" transform="matrix(0.339199,3.189605e-2,-3.23995e-2,0.333928,17.19142,10.82257)" fill-opacity="1" stroke-dashoffset="0" fill="none" stroke-linejoin="miter" d="M -2.2329776 19.836573 L -17.406296 13.680784 L -30.89161 22.557852 L -29.254456 7.1219134 L -41.304417 -2.9306746 L -26.222095 -4.419117 L -20.548729 -20.797655 L -11.892781 -5.7797556 L 3.443396 -7.311132 L -7.003397 5.009592 L -2.2329776 19.836573 z " stroke="#ffffff" stroke-width="2.95783615" stroke-opacity="0.46296297" stroke-miterlimit="4"/>
        <path stroke-linecap="butt" fill-opacity="1" fill="url(#linearGradient37105)" fill-rule="evenodd" stroke-linejoin="miter" d="M 7.4066663 12.292224 L 4.004268 8.845316 L 8.61844 8.792618 L 10.853258 3.8674176 L 13.088076 8.702792 L 17.850952 8.873821 C 8.183077 9.438804 13.19467 13.889764 7.4066663 12.292224 z " stroke="none" stroke-width="1px" stroke-opacity="1"/>
    </g>
    <g transform="matrix(0.9497239,0,0,0.9497239,24.754567,10.595899)">
        <path stroke-linecap="round" transform="matrix(0.436316,3.992828e-2,-4.167603e-2,0.418019,19.21122,10.68537)" fill-opacity="1" stroke-dashoffset="0" fill="url(#linearGradient37099)" stroke-linejoin="miter" d="M -2.8284285 20.422836 L -17.601885 14.361198 L -30.970612 23.094784 L -29.770905 7.171243 L -42.258236 -3.3681824 L -26.543177 -5.0524936 L -21.011229 -21.54756 L -12.472083 -6.388468 L 3.2767756 -7.691485 L -7.003397 5.009592 L -2.8284285 20.422836 z " stroke="#ce9500" stroke-width="2.33092999" stroke-opacity="1" stroke-miterlimit="4"/>
        <path stroke-linecap="round" transform="matrix(0.339199,3.189605e-2,-3.23995e-2,0.333928,17.19142,10.82257)" fill-opacity="1" stroke-dashoffset="0" fill="none" stroke-linejoin="miter" d="M -2.2329776 19.836573 L -17.406296 13.680784 L -30.89161 22.557852 L -29.254456 7.1219134 L -41.304417 -2.9306746 L -26.222095 -4.419117 L -20.548729 -20.797655 L -11.892781 -5.7797556 L 3.443396 -7.311132 L -7.003397 5.009592 L -2.2329776 19.836573 z " stroke="#ffffff" stroke-width="2.95783615" stroke-opacity="0.46296297" stroke-miterlimit="4"/>
        <path stroke-linecap="butt" fill-opacity="1" fill="url(#linearGradient37101)" fill-rule="evenodd" stroke-linejoin="miter" d="M 7.4066663 12.292224 L 4.004268 8.845316 L 8.61844 8.792618 L 10.853258 3.8674176 L 13.088076 8.702792 L 17.850952 8.873821 C 8.183077 9.438804 13.19467 13.889764 7.4066663 12.292224 z " stroke="none" stroke-width="1px" stroke-opacity="1"/>
    </g>
    <g transform="matrix(1.261021,0,0,1.261021,55.476721,4.0517582)">
        <path stroke-linecap="round" transform="matrix(0.436316,3.992828e-2,-4.167603e-2,0.418019,19.21122,10.68537)" fill-opacity="1" stroke-dashoffset="0" fill="url(#linearGradient37095)" stroke-linejoin="miter" d="M -2.8284285 20.422836 L -17.601885 14.361198 L -30.970612 23.094784 L -29.770905 7.171243 L -42.258236 -3.3681824 L -26.543177 -5.0524936 L -21.011229 -21.54756 L -12.472083 -6.388468 L 3.2767756 -7.691485 L -7.003397 5.009592 L -2.8284285 20.422836 z " stroke="#ce9500" stroke-width="2.33092999" stroke-opacity="1" stroke-miterlimit="4"/>
        <path stroke-linecap="round" transform="matrix(0.339199,3.189605e-2,-3.23995e-2,0.333928,17.19142,10.82257)" fill-opacity="1" stroke-dashoffset="0" fill="none" stroke-linejoin="miter" d="M -2.2329776 19.836573 L -17.406296 13.680784 L -30.89161 22.557852 L -29.254456 7.1219134 L -41.304417 -2.9306746 L -26.222095 -4.419117 L -20.548729 -20.797655 L -11.892781 -5.7797556 L 3.443396 -7.311132 L -7.003397 5.009592 L -2.2329776 19.836573 z " stroke="#ffffff" stroke-width="2.95783615" stroke-opacity="0.46296297" stroke-miterlimit="4"/>
        <path stroke-linecap="butt" fill-opacity="1" fill="url(#linearGradient37097)" fill-rule="evenodd" stroke-linejoin="miter" d="M 7.4066663 12.292224 L 4.004268 8.845316 L 8.61844 8.792618 L 10.853258 3.8674176 L 13.088076 8.702792 L 17.850952 8.873821 C 8.183077 9.438804 13.19467 13.889764 7.4066663 12.292224 z " stroke="none" stroke-width="1px" stroke-opacity="1"/>
    </g>
    <g transform="matrix(0.4856469,0,0,0.4856469,6.0209178,59.140111)">
        <path stroke-linecap="round" transform="matrix(0.436316,3.992828e-2,-4.167603e-2,0.418019,19.21122,10.68537)" fill-opacity="1" stroke-dashoffset="0" fill="url(#linearGradient37073)" stroke-linejoin="miter" d="M -2.8284285 20.422836 L -17.601885 14.361198 L -30.970612 23.094784 L -29.770905 7.171243 L -42.258236 -3.3681824 L -26.543177 -5.0524936 L -21.011229 -21.54756 L -12.472083 -6.388468 L 3.2767756 -7.691485 L -7.003397 5.009592 L -2.8284285 20.422836 z " stroke="#ce9500" stroke-width="2.33092999" stroke-opacity="1" stroke-miterlimit="4"/>
        <path stroke-linecap="round" transform="matrix(0.339199,3.189605e-2,-3.23995e-2,0.333928,17.19142,10.82257)" fill-opacity="1" stroke-dashoffset="0" fill="none" stroke-linejoin="miter" d="M -2.2329776 19.836573 L -17.406296 13.680784 L -30.89161 22.557852 L -29.254456 7.1219134 L -41.304417 -2.9306746 L -26.222095 -4.419117 L -20.548729 -20.797655 L -11.892781 -5.7797556 L 3.443396 -7.311132 L -7.003397 5.009592 L -2.2329776 19.836573 z " stroke="#ffffff" stroke-width="2.95783615" stroke-opacity="0.46296297" stroke-miterlimit="4"/>
        <path stroke-linecap="butt" fill-opacity="1" fill="url(#linearGradient37075)" fill-rule="evenodd" stroke-linejoin="miter" d="M 7.4066663 12.292224 L 4.004268 8.845316 L 8.61844 8.792618 L 10.853258 3.8674176 L 13.088076 8.702792 L 17.850952 8.873821 C 8.183077 9.438804 13.19467 13.889764 7.4066663 12.292224 z " stroke="none" stroke-width="1px" stroke-opacity="1"/>
    </g>
</svg>
