<?xml version="1.0" encoding="UTF-8" standalone="no"?>
<svg
   xmlns:dc="http://purl.org/dc/elements/1.1/"
   xmlns:cc="http://creativecommons.org/ns#"
   xmlns:rdf="http://www.w3.org/1999/02/22-rdf-syntax-ns#"
   xmlns:svg="http://www.w3.org/2000/svg"
   xmlns="http://www.w3.org/2000/svg"
   xmlns:xlink="http://www.w3.org/1999/xlink"
   xmlns:sodipodi="http://sodipodi.sourceforge.net/DTD/sodipodi-0.dtd"
   xmlns:inkscape="http://www.inkscape.org/namespaces/inkscape"
   contentScriptType="text/ecmascript"
   width="88"
   baseProfile="tiny"
   zoomAndPan="magnify"
   contentStyleType="text/css"
   viewBox="0 0 88 88"
   height="88"
   preserveAspectRatio="xMidYMid meet"
   version="1.0"
   id="svg118693"
   sodipodi:version="0.32"
   inkscape:version="0.46"
   sodipodi:docname="search.svg"
   inkscape:output_extension="org.inkscape.output.svg.inkscape">
  <metadata
     id="metadata118894">
    <rdf:RDF>
      <cc:Work
         rdf:about="">
        <dc:format>image/svg+xml</dc:format>
        <dc:type
           rdf:resource="http://purl.org/dc/dcmitype/StillImage" />
      </cc:Work>
    </rdf:RDF>
  </metadata>
  <sodipodi:namedview
     inkscape:window-height="682"
     inkscape:window-width="1024"
     inkscape:pageshadow="2"
     inkscape:pageopacity="0.0"
     guidetolerance="10.0"
     gridtolerance="10.0"
     objecttolerance="10.0"
     borderopacity="1.0"
     bordercolor="#666666"
     pagecolor="#ffffff"
     id="base"
     showgrid="false"
     inkscape:zoom="5.25"
     inkscape:cx="44"
     inkscape:cy="44"
     inkscape:window-x="0"
     inkscape:window-y="52"
     inkscape:current-layer="svg118693" />
  <defs
     id="defs118695">
    <linearGradient
       id="linearGradient4467">
      <stop
         id="stop4469"
         offset="0"
         style="stop-color:#ffffff;stop-opacity:1;" />
      <stop
         id="stop4471"
         offset="1.0000000"
         style="stop-color:#ffffff;stop-opacity:0.24761905;" />
    </linearGradient>
    <radialGradient
       inkscape:collect="always"
       xlink:href="#linearGradient4467"
       id="radialGradient1539"
       gradientUnits="userSpaceOnUse"
       gradientTransform="matrix(2.592963,0,0,2.252104,-25.05975,-18.941)"
       cx="15.414371"
       cy="13.078408"
       fx="15.414371"
       fy="13.078408"
       r="6.6562500" />
    <linearGradient
       id="linearGradient4454">
      <stop
         id="stop4456"
         offset="0.0000000"
         style="stop-color:#729fcf;stop-opacity:0.20784314;" />
      <stop
         id="stop4458"
         offset="1.0000000"
         style="stop-color:#729fcf;stop-opacity:0.67619050;" />
    </linearGradient>
    <radialGradient
       inkscape:collect="always"
       xlink:href="#linearGradient4454"
       id="radialGradient1537"
       gradientUnits="userSpaceOnUse"
       cx="18.240929"
       cy="21.817987"
       fx="18.240929"
       fy="21.817987"
       r="8.3085051" />
    <linearGradient
       id="linearGradient2366">
      <stop
         style="stop-color:#ffffff;stop-opacity:1;"
         offset="0"
         id="stop2368" />
      <stop
         id="stop2374"
         offset="0.50000000"
         style="stop-color:#ffffff;stop-opacity:0.21904762;" />
      <stop
         style="stop-color:#ffffff;stop-opacity:1.0000000;"
         offset="1.0000000"
         id="stop2370" />
    </linearGradient>
    <linearGradient
       inkscape:collect="always"
       xlink:href="#linearGradient2366"
       id="linearGradient1533"
       gradientUnits="userSpaceOnUse"
       x1="18.292673"
       y1="13.602121"
       x2="17.500893"
       y2="25.743469" />
    <linearGradient
       id="linearGradient4440">
      <stop
         id="stop4442"
         offset="0"
         style="stop-color:#7d7d7d;stop-opacity:1;" />
      <stop
         style="stop-color:#b1b1b1;stop-opacity:1.0000000;"
         offset="0.50000000"
         id="stop4448" />
      <stop
         id="stop4444"
         offset="1.0000000"
         style="stop-color:#686868;stop-opacity:1.0000000;" />
    </linearGradient>
    <linearGradient
       inkscape:collect="always"
       xlink:href="#linearGradient4440"
       id="linearGradient1531"
       gradientUnits="userSpaceOnUse"
       gradientTransform="matrix(1.334593,0,0,1.291292,-6.973842,-7.460658)"
       x1="30.656250"
       y1="34.000000"
       x2="33.218750"
       y2="31.062500" />
    <linearGradient
       id="linearGradient2846">
      <stop
         style="stop-color:#8a8a8a;stop-opacity:1.0000000;"
         offset="0.0000000"
         id="stop19264" />
      <stop
         style="stop-color:#484848;stop-opacity:1.0000000;"
         offset="1.0000000"
         id="stop2850" />
    </linearGradient>
    <linearGradient
       inkscape:collect="always"
       xlink:href="#linearGradient2846"
       id="linearGradient1529"
       gradientUnits="userSpaceOnUse"
       x1="27.366341"
       y1="26.580296"
       x2="31.335964"
       y2="30.557772" />
    <linearGradient
       id="linearGradient4477"
       inkscape:collect="always">
      <stop
         id="stop4479"
         offset="0"
         style="stop-color:#000000;stop-opacity:1;" />
      <stop
         id="stop4481"
         offset="1"
         style="stop-color:#000000;stop-opacity:0;" />
    </linearGradient>
    <radialGradient
       inkscape:collect="always"
       xlink:href="#linearGradient4477"
       id="radialGradient1527"
       gradientUnits="userSpaceOnUse"
       gradientTransform="matrix(1,0,0,0.237968,0,28.93278)"
       cx="24.130018"
       cy="37.967922"
       fx="24.130018"
       fy="37.967922"
       r="16.528622" />
    <linearGradient
       id="linearGradient2946">
      <stop
         id="stop2948"
         offset="0"
         style="stop-color:#8ae234;stop-opacity:1" />
      <stop
         id="stop2950"
         offset="1"
         style="stop-color:#73d216;stop-opacity:1" />
    </linearGradient>
    <inkscape:perspective
       sodipodi:type="inkscape:persp3d"
       inkscape:vp_x="0 : 44 : 1"
       inkscape:vp_y="0 : 1000 : 0"
       inkscape:vp_z="88 : 44 : 1"
       inkscape:persp3d-origin="44 : 29.333333 : 1"
       id="perspective118896" />
    <linearGradient
       x1="-21.658581"
       y1="15.649428"
       x2="-21.962101"
       gradientUnits="userSpaceOnUse"
       y2="21.336346"
       xlink:type="simple"
       xlink:actuate="onLoad"
       xlink:show="other"
       id="linearGradient118697">
      <stop
         stop-opacity="1"
         stop-color="#ffffff"
         offset="0"
         id="stop118699" />
      <stop
         stop-opacity="0"
         stop-color="#ffffff"
         offset="1"
         id="stop118701" />
    </linearGradient>
    <linearGradient
       x1="-22.822565"
       y1="28.337734"
       x2="-22.113543"
       gradientUnits="userSpaceOnUse"
       y2="22.661524"
       xlink:type="simple"
       xlink:actuate="onLoad"
       xlink:show="other"
       id="linearGradient118703">
      <stop
         stop-opacity="1"
         stop-color="#ffffff"
         offset="0"
         id="stop118705" />
      <stop
         stop-opacity="0"
         stop-color="#ffffff"
         offset="1"
         id="stop118707" />
    </linearGradient>
    <linearGradient
       x1="-25.176178"
       y1="30.057165"
       x2="-22.113543"
       gradientUnits="userSpaceOnUse"
       y2="22.661524"
       xlink:type="simple"
       xlink:actuate="onLoad"
       xlink:show="other"
       id="linearGradient118709">
      <stop
         stop-opacity="1"
         stop-color="#ffffff"
         offset="0"
         id="stop118711" />
      <stop
         stop-opacity="0"
         stop-color="#ffffff"
         offset="1"
         id="stop118713" />
    </linearGradient>
    <linearGradient
       x1="-25.176178"
       y1="30.057165"
       x2="-22.252472"
       gradientUnits="userSpaceOnUse"
       y2="21.041553"
       xlink:type="simple"
       xlink:actuate="onLoad"
       xlink:show="other"
       id="linearGradient118715">
      <stop
         stop-opacity="1"
         stop-color="#ffffff"
         offset="0"
         id="stop118717" />
      <stop
         stop-opacity="0"
         stop-color="#ffffff"
         offset="1"
         id="stop118719" />
    </linearGradient>
    <radialGradient
       gradientUnits="userSpaceOnUse"
       xlink:type="simple"
       r="6.7175145"
       xlink:actuate="onLoad"
       cx="12.071323"
       cy="12.493138"
       xlink:show="other"
       fx="12.071323"
       fy="12.493138"
       id="radialGradient118721">
      <stop
         stop-opacity="1"
         stop-color="#ffffff"
         offset="0"
         id="stop118723" />
      <stop
         stop-opacity="0"
         stop-color="#ffffff"
         offset="1"
         id="stop118725" />
    </radialGradient>
    <radialGradient
       gradientUnits="userSpaceOnUse"
       xlink:type="simple"
       r="6.7175145"
       xlink:actuate="onLoad"
       cx="12.071323"
       cy="12.493138"
       xlink:show="other"
       fx="12.071323"
       fy="12.493138"
       id="radialGradient118727">
      <stop
         stop-opacity="1"
         stop-color="#ffffff"
         offset="0"
         id="stop118729" />
      <stop
         stop-opacity="0"
         stop-color="#ffffff"
         offset="1"
         id="stop118731" />
    </radialGradient>
    <radialGradient
       gradientUnits="userSpaceOnUse"
       xlink:type="simple"
       r="6.7175145"
       xlink:actuate="onLoad"
       cx="12.071323"
       cy="12.493138"
       xlink:show="other"
       fx="12.071323"
       fy="12.493138"
       id="radialGradient118733">
      <stop
         stop-opacity="1"
         stop-color="#ffffff"
         offset="0"
         id="stop118735" />
      <stop
         stop-opacity="0"
         stop-color="#ffffff"
         offset="1"
         id="stop118737" />
    </radialGradient>
    <radialGradient
       gradientUnits="userSpaceOnUse"
       xlink:type="simple"
       r="6.7175145"
       xlink:actuate="onLoad"
       cx="12.071323"
       cy="12.493138"
       xlink:show="other"
       fx="12.071323"
       fy="12.493138"
       id="radialGradient118739">
      <stop
         stop-opacity="1"
         stop-color="#ffffff"
         offset="0"
         id="stop118741" />
      <stop
         stop-opacity="0"
         stop-color="#ffffff"
         offset="1"
         id="stop118743" />
    </radialGradient>
    <radialGradient
       gradientTransform="scale(0.999989,1.000011)"
       id="radialGradient4132"
       gradientUnits="userSpaceOnUse"
       xlink:show="other"
       xlink:type="simple"
       r="43.526714"
       cx="15.601279"
       fx="15.601279"
       cy="12.142302"
       fy="12.142302"
       xlink:actuate="onLoad">
      <stop
         stop-opacity="1.0000000"
         stop-color="#ffffff"
         offset="0.0000000"
         id="stop118746" />
      <stop
         stop-opacity="0.16494845"
         stop-color="#ffffff"
         offset="1.0000000"
         id="stop118748" />
    </radialGradient>
    <radialGradient
       gradientTransform="scale(1.64399,0.608276)"
       id="radialGradient4120"
       gradientUnits="userSpaceOnUse"
       xlink:show="other"
       xlink:type="simple"
       r="12.289036"
       cx="15.115514"
       fx="15.115514"
       cy="63.965388"
       fy="63.965388"
       xlink:actuate="onLoad">
      <stop
         stop-opacity="1"
         stop-color="#000000"
         offset="0"
         id="stop118751" />
      <stop
         stop-opacity="0"
         stop-color="#000000"
         offset="1"
         id="stop118753" />
    </radialGradient>
    <radialGradient
       gradientTransform="scale(0.999989,1.000011)"
       id="radialGradient3968"
       gradientUnits="userSpaceOnUse"
       xlink:show="other"
       xlink:type="simple"
       r="29.993349"
       cx="18.247644"
       fx="18.247644"
       cy="15.716079"
       fy="15.716079"
       xlink:actuate="onLoad">
      <stop
         stop-opacity="1.0000000"
         stop-color="#d3e9ff"
         offset="0.0000000"
         id="stop118756" />
      <stop
         stop-opacity="1.0000000"
         stop-color="#d3e9ff"
         offset="0.15517241"
         id="stop118758" />
      <stop
         stop-opacity="1.0000000"
         stop-color="#4074ae"
         offset="0.75000000"
         id="stop118760" />
      <stop
         stop-opacity="1.0000000"
         stop-color="#36486c"
         offset="1.0000000"
         id="stop118762" />
    </radialGradient>
    <linearGradient
       xlink:type="simple"
       xlink:actuate="onLoad"
       xlink:show="other"
       id="linearGradient118764">
      <stop
         stop-opacity="1.0000000"
         stop-color="#d3e9ff"
         offset="0.0000000"
         id="stop118766" />
      <stop
         stop-opacity="1.0000000"
         stop-color="#d3e9ff"
         offset="0.15517241"
         id="stop118768" />
      <stop
         stop-opacity="1.0000000"
         stop-color="#4074ae"
         offset="0.75000000"
         id="stop118770" />
      <stop
         stop-opacity="1.0000000"
         stop-color="#36486c"
         offset="1.0000000"
         id="stop118772" />
    </linearGradient>
    <linearGradient
       xlink:type="simple"
       xlink:actuate="onLoad"
       xlink:show="other"
       id="linearGradient118774">
      <stop
         stop-opacity="1"
         stop-color="#000000"
         offset="0"
         id="stop118776" />
      <stop
         stop-opacity="0"
         stop-color="#000000"
         offset="1"
         id="stop118778" />
    </linearGradient>
    <linearGradient
       xlink:type="simple"
       xlink:actuate="onLoad"
       xlink:show="other"
       id="linearGradient118780">
      <stop
         stop-opacity="1.0000000"
         stop-color="#ffffff"
         offset="0.0000000"
         id="stop118782" />
      <stop
         stop-opacity="0.16494845"
         stop-color="#ffffff"
         offset="1.0000000"
         id="stop118784" />
    </linearGradient>
    <linearGradient
       xlink:type="simple"
       xlink:actuate="onLoad"
       xlink:show="other"
       id="linearGradient118786">
      <stop
         stop-opacity="1"
         stop-color="#ffffff"
         offset="0"
         id="stop118788" />
      <stop
         stop-opacity="0"
         stop-color="#ffffff"
         offset="1"
         id="stop118790" />
    </linearGradient>
    <linearGradient
       xlink:type="simple"
       xlink:actuate="onLoad"
       xlink:show="other"
       id="linearGradient118792">
      <stop
         stop-opacity="1"
         stop-color="#ffffff"
         offset="0"
         id="stop118794" />
      <stop
         stop-opacity="0"
         stop-color="#ffffff"
         offset="1"
         id="stop118796" />
    </linearGradient>
    <radialGradient
       gradientTransform="scale(0.999989,1.000011)"
       id="radialGradient3324"
       gradientUnits="userSpaceOnUse"
       xlink:show="other"
       xlink:type="simple"
       r="43.526714"
       cx="15.601279"
       fx="15.601279"
       cy="12.142302"
       fy="12.142302"
       xlink:actuate="onLoad">
      <stop
         stop-opacity="1.0000000"
         stop-color="#ffffff"
         offset="0.0000000"
         id="stop118799" />
      <stop
         stop-opacity="0.16494845"
         stop-color="#ffffff"
         offset="1.0000000"
         id="stop118801" />
    </radialGradient>
    <radialGradient
       inkscape:collect="always"
       xlink:href="#linearGradient4467"
       id="radialGradient9542"
       gradientUnits="userSpaceOnUse"
       gradientTransform="matrix(2.7051291,0,0,2.3495253,1.2742248,11.040441)"
       cx="15.414371"
       cy="13.078408"
       fx="15.414371"
       fy="13.078408"
       r="6.6562500" />
    <linearGradient
       inkscape:collect="always"
       xlink:href="#linearGradient4440"
       id="linearGradient9548"
       gradientUnits="userSpaceOnUse"
       gradientTransform="matrix(1.3923247,0,0,1.3471506,20.142491,23.017399)"
       x1="30.656250"
       y1="34.000000"
       x2="33.218750"
       y2="31.062500" />
    <linearGradient
       inkscape:collect="always"
       xlink:href="#linearGradient2846"
       id="linearGradient9552"
       gradientUnits="userSpaceOnUse"
       x1="27.366341"
       y1="26.580296"
       x2="31.335964"
       y2="30.557772"
       gradientTransform="matrix(1.0432579,0,0,1.0432579,27.418007,30.800789)" />
  </defs>
  <g
     transform="matrix(1.7356543,0,0,1.7356543,1.6798925,1.7359219)"
     id="g118803">
    <path
       transform="matrix(1,0,0,1.243244,0,-10.27241)"
       fill-opacity="1"
       fill="url(#radialGradient4120)"
       d="M 45.052803 38.908627 C 45.05594 41.58001 41.205948 44.04896 34.95381 45.384983 C 28.70168 46.72101 20.997826 46.72101 14.745692 45.384983 C 8.493558 44.04896 4.6435647 41.58001 4.646702 38.908627 C 4.6435647 36.237247 8.493558 33.768295 14.745692 32.43227 C 20.997826 31.096245 28.70168 31.096245 34.95381 32.43227 C 41.205948 33.768295 45.05594 36.237247 45.052803 38.908627 z "
       stroke="none"
       stroke-opacity="1"
       id="path118805" />
    <path
       fill-opacity="1"
       fill="url(#radialGradient3968)"
       fill-rule="nonzero"
       stroke-dasharray="none"
       d="M 43.95985 23.4855 C 43.95985 34.195217 35.27775 42.877224 24.569504 42.877224 C 13.860279 42.877224 5.1786666 34.19512 5.1786666 23.4855 C 5.1786666 12.776272 13.860279 4.0951514 24.569504 4.0951514 C 35.27775 4.0951514 43.95985 12.776272 43.95985 23.4855 L 43.95985 23.4855 z "
       stroke="#39396c"
       stroke-width="0.71439725"
       stroke-opacity="1"
       stroke-miterlimit="4"
       id="path118807" />
    <g
       transform="matrix(0.982371,0,0,0.982371,0.121079,0.232914)"
       fill-opacity="0.71345029"
       fill="#204a87"
       fill-rule="nonzero"
       stroke="none"
       stroke-opacity="1"
       stroke-miterlimit="4"
       id="g118809">
      <g
         fill="#204a87"
         id="g118811">
        <g
           fill="#204a87"
           id="g118813">
          <path
             fill="#204a87"
             d="M 44.0713 20.7144 C 44.0713 20.9771 44.0713 20.7144 44.0713 20.7144 L 43.5264 21.3316 C 43.1924 20.938 42.8174 20.607 42.4366 20.2613 L 41.6007 20.3843 L 40.837 19.521 L 40.837 20.5894 L 41.4913 21.0845 L 41.9268 21.5777 L 42.5088 20.9195 C 42.6553 21.1939 42.7998 21.4683 42.9453 21.7427 L 42.9453 22.565 L 42.29 23.3052 L 41.0908 24.1284 L 40.1826 25.0347 L 39.6006 24.3745 L 39.8916 23.6343 L 39.3105 22.9761 L 38.3291 20.8784 L 37.4932 19.9331 L 37.2744 20.1792 L 37.6025 21.3726 L 38.2197 22.0718 C 38.5722 23.0894 38.9209 24.062 39.3838 25.0347 C 40.1016 25.0347 40.7783 24.9585 41.4912 24.8687 L 41.4912 25.4449 L 40.6191 27.5841 L 39.8193 28.4884 L 39.165 29.8888 C 39.165 30.6564 39.165 31.424 39.165 32.1915 L 39.3838 33.0978 L 39.0205 33.508 L 38.2197 34.0021 L 37.3838 34.7013 L 38.0752 35.4826 L 37.1299 36.3068 L 37.3115 36.84 L 35.8935 38.4455 L 34.9492 38.4455 L 34.1494 38.9396 L 33.6396 38.9396 L 33.6396 38.2814 L 33.4228 36.963 C 33.1415 36.1368 32.8486 35.3165 32.5507 34.4962 C 32.5507 33.8907 32.5868 33.2911 32.623 32.6857 L 32.9873 31.8634 L 32.4775 30.8751 L 32.5146 29.5177 L 31.8232 28.7364 L 32.1689 27.6055 L 31.6064 26.9673 L 30.624 26.9673 L 30.2969 26.5972 L 29.3155 27.2149 L 28.9161 26.7613 L 28.0069 27.543 C 27.3897 26.8433 26.7715 26.1441 26.1534 25.4449 L 25.4268 23.7164 L 26.0811 22.7301 L 25.7178 22.319 L 26.5166 20.4254 C 27.1729 19.609 27.8584 18.8258 28.5518 18.0397 L 29.7881 17.7106 L 31.169 17.5465 L 32.1143 17.7936 L 33.459 19.15 L 33.9317 18.6158 L 34.585 18.5338 L 35.8213 18.9449 L 36.7666 18.9449 L 37.4209 18.3687 L 37.7119 17.9576 L 37.0566 17.5465 L 35.9658 17.4645 C 35.6631 17.0446 35.3818 16.6032 35.0224 16.2301 L 34.6581 16.3942 L 34.5126 17.4645 L 33.8583 16.7243 L 33.7138 15.9001 L 32.9872 15.3259 L 32.6952 15.3259 L 33.4227 16.1482 L 33.1317 16.8884 L 32.5506 17.0525 L 32.9139 16.3123 L 32.2586 15.9842 L 31.6785 15.326 L 30.5867 15.5721 L 30.4422 15.9002 L 29.7879 16.3123 L 29.4246 17.2176 L 28.5164 17.6697 L 28.116 17.2176 L 27.6805 17.2176 L 27.6805 15.7362 L 28.6258 15.2421 L 29.3524 15.2421 L 29.2059 14.6669 L 28.6258 14.0907 L 29.6063 13.8846 L 30.1512 13.2684 L 30.5867 12.5272 L 31.3875 12.5272 L 31.1687 11.952 L 31.6785 11.6229 L 31.6785 12.2811 L 32.7683 12.5272 L 33.8581 11.6229 L 33.9313 11.2108 L 34.8756 10.5531 C 34.5338 10.5956 34.192 10.6268 33.858 10.7177 L 33.858 9.9766 L 34.2213 9.1538 L 33.858 9.1538 L 33.0596 9.894 L 32.8408 10.3056 L 33.0596 10.8823 L 32.6953 11.8686 L 32.1142 11.5395 L 31.6064 10.9643 L 30.8056 11.5395 L 30.5146 10.2236 L 31.8955 9.3188 L 31.8955 8.8247 L 32.7685 8.249 L 34.1494 7.9194 L 35.0947 8.249 L 36.8388 8.5781 L 36.4033 9.0713 L 35.458 9.0713 L 36.4033 10.0586 L 37.1299 9.2363 L 37.3506 8.8745 C 37.3506 8.8745 40.1377 11.3725 41.7305 14.105 C 43.3233 16.8384 44.0713 20.0601 44.0713 20.7144 z "
             id="path118815" />
        </g>
      </g>
      <g
         fill="#204a87"
         id="g118817">
        <g
           fill="#204a87"
           id="g118819">
          <path
             fill="#204a87"
             d="M 26.0703 9.2363 L 25.9971 9.7295 L 26.5069 10.0586 L 27.378 9.4829 L 26.9425 8.9892 L 26.3605 9.3188 L 26.0705 9.2363 "
             id="path118821" />
        </g>
      </g>
      <g
         fill="#204a87"
         id="g118823">
        <g
           fill="#204a87"
           id="g118825">
          <path
             fill="#204a87"
             d="M 26.8701 5.8633 L 24.9795 5.1226 L 22.7998 5.3692 L 20.1094 6.1094 L 19.6006 6.6035 L 21.2725 7.7549 L 21.2725 8.4131 L 20.6182 9.0713 L 21.4912 10.8003 L 22.0713 10.4702 L 22.7998 9.3188 C 23.9228 8.9716 24.9297 8.5781 25.9971 8.0844 L 26.8701 5.8632 "
             id="path118827" />
        </g>
      </g>
      <g
         fill="#204a87"
         id="g118829">
        <g
           fill="#204a87"
           id="g118831">
          <path
             fill="#204a87"
             d="M 28.833 12.7749 L 28.542 12.0337 L 28.0322 12.1987 L 28.1787 13.103 L 28.833 12.7749 "
             id="path118833" />
        </g>
      </g>
      <g
         fill="#204a87"
         id="g118835">
        <g
           fill="#204a87"
           id="g118837">
          <path
             fill="#204a87"
             d="M 29.123 12.6089 L 28.9775 13.5972 L 29.7773 13.4322 L 30.3584 12.857 L 29.8496 12.3629 C 29.6787 11.9078 29.4824 11.483 29.2685 11.0465 L 28.833 11.0465 L 28.833 11.5397 L 29.123 11.8688 L 29.123 12.609 "
             id="path118839" />
        </g>
      </g>
      <g
         fill="#204a87"
         id="g118841">
        <g
           fill="#204a87"
           id="g118843">
          <path
             fill="#204a87"
             d="M 18.3652 28.2422 L 17.7832 27.0899 L 16.6929 26.8433 L 16.1114 25.2808 L 14.6578 25.4449 L 13.4224 24.5406 L 12.1133 25.692 L 12.1133 25.8736 C 11.7173 25.7593 11.2305 25.7437 10.8779 25.5269 L 10.5869 24.7046 L 10.5869 23.7993 L 9.7148 23.8813 C 9.7876 23.3051 9.8598 22.7299 9.9331 22.1538 L 9.4238 22.1538 L 8.9155 22.812 L 8.4062 23.0581 L 7.6791 22.6479 L 7.6063 21.7426 L 7.7518 20.7553 L 8.8426 19.933 L 9.7147 19.933 L 9.8597 19.4389 L 10.95 19.685 L 11.7498 20.6733 L 11.8953 19.0268 L 13.2766 17.8754 L 13.7854 16.641 L 14.803 16.2299 L 15.3845 15.4076 L 16.6926 15.1596 L 17.3474 14.1733 C 16.6931 14.1733 16.0388 14.1733 15.3845 14.1733 L 16.6203 13.5971 L 17.4919 13.5971 L 18.7282 13.185 L 18.8737 12.6928 L 18.4372 12.2807 L 17.9284 12.1157 L 18.0739 11.6225 L 17.7106 10.8823 L 16.838 11.2104 L 16.9835 10.5527 L 15.9659 9.9765 L 15.1666 11.3744 L 15.2389 11.8685 L 14.4396 12.1986 L 13.9303 13.2679 L 13.7125 12.2806 L 12.3312 11.7044 L 12.1129 10.9642 L 13.9303 9.8939 L 14.7301 9.1537 L 14.8029 8.2489 L 14.3669 8.0018 L 13.7854 7.9193 L 13.4221 8.8246 C 13.4221 8.8246 12.8142 8.9437 12.6579 8.9823 C 10.6618 10.8217 6.6286 14.7924 5.6916 22.2885 C 5.7287 22.4623 6.3708 23.4701 6.3708 23.4701 L 7.8972 24.3744 L 9.4236 24.7865 L 10.0784 25.6097 L 11.0955 26.3499 L 11.677 26.2679 L 12.113 26.4642 L 12.113 26.597 L 11.5319 28.16 L 11.0954 28.8182 L 11.2409 29.1483 L 10.8776 30.3807 L 12.1862 32.7674 L 13.4943 33.9197 L 14.0763 34.742 L 14.0031 36.4705 L 14.4396 37.4568 L 14.0031 39.3494 C 14.0031 39.3494 13.9689 39.3377 14.0246 39.5271 C 14.0808 39.7166 16.3537 40.9783 16.4982 40.8709 C 16.6422 40.7615 16.7653 40.6658 16.7653 40.6658 L 16.6203 40.2556 L 17.2014 39.6794 L 17.4197 39.1032 L 18.365 38.7731 L 19.0916 36.9626 L 18.8738 36.4704 L 19.3816 35.7302 L 20.4724 35.4822 L 21.0544 34.1658 L 20.9089 32.5213 L 21.781 31.2869 L 21.9265 30.0525 C 20.7331 29.4607 19.5495 28.8513 18.365 28.242 "
             id="path118845" />
        </g>
      </g>
      <g
         fill="#204a87"
         id="g118847">
        <g
           fill="#204a87"
           id="g118849">
          <path
             fill="#204a87"
             d="M 16.7656 9.5649 L 17.4922 10.0586 L 18.0742 10.0586 L 18.0742 9.4829 L 17.3476 9.1538 L 16.7656 9.5649 "
             id="path118851" />
        </g>
      </g>
      <g
         fill="#204a87"
         id="g118853">
        <g
           fill="#204a87"
           id="g118855">
          <path
             fill="#204a87"
             d="M 14.876 8.9072 L 14.5122 9.812 L 15.2393 9.812 L 15.6031 8.9892 C 15.9166 8.7675 16.2286 8.5444 16.5479 8.331 L 17.275 8.5781 C 17.7594 8.9072 18.2438 9.2363 18.7286 9.5649 L 19.4561 8.9072 L 18.6558 8.5781 L 18.292 7.8374 L 16.9111 7.6728 L 16.8383 7.2612 L 16.184 7.4262 L 15.8936 8.002 L 15.5298 7.2613 L 15.3848 7.5904 L 15.4576 8.4132 L 14.876 8.9072 "
             id="path118857" />
        </g>
      </g>
      <g
         fill="#204a87"
         id="g118859">
        <g
           fill="#204a87"
           fill-opacity="0.75"
           stroke-opacity="0.75"
           id="g118861">
          <path
             fill="#204a87"
             d=""
             id="path118863" />
        </g>
        <g
           fill="#204a87"
           id="g118865">
          <path
             fill="#204a87"
             d=""
             id="path118867" />
        </g>
      </g>
      <g
         fill="#204a87"
         id="g118869">
        <g
           fill="#204a87"
           fill-opacity="0.75"
           stroke-opacity="0.75"
           id="g118871">
          <path
             fill="#204a87"
             d=""
             id="path118873" />
        </g>
        <g
           fill="#204a87"
           id="g118875">
          <path
             fill="#204a87"
             d=""
             id="path118877" />
        </g>
      </g>
      <g
         fill="#204a87"
         id="g118879">
        <g
           fill="#204a87"
           id="g118881">
          <path
             fill="#204a87"
             d="M 17.4922 6.8496 L 17.856 6.521 L 18.5831 6.3564 C 19.0811 6.1142 19.5811 5.9511 20.1095 5.7802 L 19.8195 5.2865 L 18.881 5.4213 L 18.4376 5.8632 L 17.7066 5.9692 L 17.0567 6.2744 L 16.7408 6.4272 L 16.5479 6.6855 L 17.4922 6.8496 "
             id="path118883" />
        </g>
      </g>
      <g
         fill="#204a87"
         id="g118885">
        <g
           fill="#204a87"
           id="g118887">
          <path
             fill="#204a87"
             d="M 18.7285 14.6665 L 19.165 14.0083 L 18.5102 13.5151 L 18.7285 14.6665 "
             id="path118889" />
        </g>
      </g>
    </g>
    <path
       fill-opacity="1"
       fill="url(#radialGradient3324)"
       fill-rule="nonzero"
       d="M 24.5625 4.59375 C 14.12694 4.59375 5.65625 13.064421 5.65625 23.5 C 5.65625 33.935936 14.126909 42.406246 24.5625 42.40625 C 34.997185 42.40625 43.46875 33.93604 43.46875 23.5 C 43.46875 13.064406 34.997154 4.59375 24.5625 4.59375 z M 24.5625 5.59375 C 34.45669 5.59375 42.46875 13.60488 42.46875 23.5 C 42.46875 33.39559 34.456665 41.40625 24.5625 41.40625 C 14.667384 41.406246 6.65625 33.39551 6.65625 23.5 C 6.65625 13.604866 14.667354 5.59375 24.5625 5.59375 z "
       stroke="none"
       stroke-opacity="1"
       stroke-miterlimit="4"
       id="path118891" />
  </g>
  <path
     transform="matrix(1.5090006,0,0,1.5857416,15.968742,12.281209)"
     d="M 40.65864,37.967922 A 16.528622,3.9332814 0 1 1 7.6013966,37.967922 A 16.528622,3.9332814 0 1 1 40.65864,37.967922 z"
     sodipodi:ry="3.9332814"
     sodipodi:rx="16.528622"
     sodipodi:cy="37.967922"
     sodipodi:cx="24.130018"
     id="path4475"
     style="opacity:0.17112301;fill:url(#radialGradient1527);fill-opacity:1;fill-rule:evenodd;stroke:none;stroke-width:1;stroke-linecap:round;stroke-linejoin:miter;marker:none;marker-start:none;marker-mid:none;marker-end:none;stroke-miterlimit:10;stroke-dasharray:none;stroke-dashoffset:0;stroke-opacity:1;visibility:visible;display:inline;overflow:visible"
     sodipodi:type="arc" />
  <path
     style="fill:#dcdcdc;fill-opacity:1;fill-rule:evenodd;stroke:url(#linearGradient9552);stroke-width:3.13584113;stroke-linecap:round;stroke-linejoin:miter;marker:none;marker-start:none;marker-mid:none;marker-end:none;stroke-miterlimit:10;stroke-dasharray:none;stroke-dashoffset:0;stroke-opacity:1;visibility:visible;display:inline;overflow:visible"
     d="M 46.851366,34.080327 C 38.360154,34.080327 31.468736,40.971746 31.468736,49.462958 C 31.468736,57.954169 38.360154,64.845589 46.851366,64.845589 C 50.481439,64.845589 53.685749,63.40131 56.317599,61.295751 C 56.103338,62.346187 56.236188,63.419164 57.106452,64.175064 L 68.544819,74.11461 C 69.83159,75.232282 71.765838,75.085841 72.88351,73.799069 C 74.001181,72.512296 73.85474,70.57805 72.567969,69.460379 L 61.129602,59.520832 C 60.429026,58.912321 59.572145,58.732161 58.723601,58.850307 C 60.796241,56.229203 62.233996,53.061474 62.233996,49.462958 C 62.233996,40.971746 55.342577,34.080327 46.851366,34.080327 z M 46.77248,35.359553 C 54.742406,35.359553 60.639229,40.355663 60.639229,49.226302 C 60.639229,58.276682 54.570921,63.093051 46.77248,63.093051 C 39.15362,63.093051 32.905732,57.377988 32.905732,49.226302 C 32.905732,40.896819 38.982332,35.359553 46.77248,35.359553 z"
     id="path2844"
     sodipodi:nodetypes="csscccscccscczzzz" />
  <path
     id="path4430"
     d="M 46.825635,34.014394 C 38.306975,34.014394 31.393279,40.928089 31.393279,49.446749 C 31.393279,57.965408 38.306975,64.879104 46.825635,64.879104 C 50.467442,64.879104 53.68211,63.430157 56.322469,61.317791 C 56.107515,62.371624 56.240794,63.448069 57.113871,64.206412 L 68.589213,74.178087 C 69.880143,75.299372 71.820644,75.152458 72.941928,73.861526 C 74.063212,72.570594 73.916297,70.630095 72.625367,69.508811 L 61.150026,59.537135 C 60.447185,58.926658 59.587534,58.745914 58.736247,58.864443 C 60.815587,56.234866 62.25799,53.056898 62.25799,49.446749 C 62.25799,40.928089 55.344294,34.014394 46.825635,34.014394 z M 46.746494,37.338286 C 53.29931,37.338286 58.617536,42.656513 58.617536,49.209328 C 58.617536,55.762144 53.29931,61.08037 46.746494,61.08037 C 40.193679,61.08037 34.875452,55.762144 34.875452,49.209328 C 34.875452,42.656513 40.193679,37.338286 46.746494,37.338286 z"
     style="fill:#dcdcdc;fill-opacity:1;fill-rule:evenodd;stroke:none;stroke-width:1.00000036;stroke-linecap:round;stroke-linejoin:miter;marker:none;marker-start:none;marker-mid:none;marker-end:none;stroke-miterlimit:10;stroke-dasharray:none;stroke-dashoffset:0;stroke-opacity:1;visibility:visible;display:inline;overflow:visible" />
  <path
     sodipodi:nodetypes="ccccc"
     id="path4438"
     d="M 68.634001,74.177043 C 68.134623,71.805522 70.091777,69.157489 72.373093,69.181533 C 72.373093,69.181533 61.147255,59.522935 61.147255,59.522935 C 58.075078,59.463776 56.693063,61.89386 57.207064,64.32184 L 68.634001,74.177043 z"
     style="fill:url(#linearGradient9548);fill-opacity:1;fill-rule:evenodd;stroke:none;stroke-width:1;stroke-linecap:round;stroke-linejoin:miter;marker:none;marker-start:none;marker-mid:none;marker-end:none;stroke-miterlimit:10;stroke-dasharray:none;stroke-dashoffset:0;stroke-opacity:1;visibility:visible;display:inline;overflow:visible" />
  <path
     transform="matrix(1.2996312,0,0,1.2996312,23.844488,24.356551)"
     d="M 28.549437,18.920233 A 11.048544,11.048544 0 1 1 6.4523487,18.920233 A 11.048544,11.048544 0 1 1 28.549437,18.920233 z"
     sodipodi:ry="11.048544"
     sodipodi:rx="11.048544"
     sodipodi:cy="18.920233"
     sodipodi:cx="17.500893"
     id="path4450"
     style="fill:none;fill-opacity:1;fill-rule:evenodd;stroke:#ffffff;stroke-width:1.20643400999999990;stroke-linecap:round;stroke-linejoin:miter;marker:none;marker-start:none;marker-mid:none;marker-end:none;stroke-miterlimit:10;stroke-dasharray:none;stroke-dashoffset:0;stroke-opacity:0.39215687;visibility:visible;display:inline;overflow:visible"
     sodipodi:type="arc" />
  <rect
     transform="matrix(0.7529858,0.6580368,-0.648902,0.760872,0,0)"
     ry="2.9601326"
     rx="3.3501136"
     y="5.2978272"
     x="82.971077"
     height="4.6325641"
     width="19.87244"
     id="rect4495"
     style="opacity:0.43315507;fill:none;fill-opacity:1;fill-rule:evenodd;stroke:#ffffff;stroke-width:1.56796873;stroke-linecap:round;stroke-linejoin:miter;marker:none;marker-start:none;marker-mid:none;marker-end:none;stroke-miterlimit:10;stroke-dasharray:none;stroke-dashoffset:0;stroke-opacity:1;visibility:visible;display:inline;overflow:visible" />
  <path
     transform="matrix(1.4591151,0,0,1.4591151,20.924417,22.142836)"
     d="M 25.897786,18.478292 A 8.3085051,8.3085051 0 1 1 9.280776,18.478292 A 8.3085051,8.3085051 0 1 1 25.897786,18.478292 z"
     sodipodi:ry="8.3085051"
     sodipodi:rx="8.3085051"
     sodipodi:cy="18.478292"
     sodipodi:cx="17.589281"
     id="path4452"
     style="fill:url(#radialGradient1537);fill-opacity:1;fill-rule:evenodd;stroke:#3063a3;stroke-width:1.07456946;stroke-linecap:round;stroke-linejoin:miter;marker:none;marker-start:none;marker-mid:none;marker-end:none;stroke-miterlimit:10;stroke-dashoffset:0;stroke-opacity:1;visibility:visible"
     sodipodi:type="arc" />
  <path
     id="path4462"
     d="M 46.360352,38.517448 C 40.927493,38.517448 36.528119,42.916822 36.528119,48.349682 C 36.528119,49.918715 36.966608,51.362374 37.620589,52.679101 C 38.927145,53.160682 40.315071,53.488338 41.788162,53.488338 C 48.226059,53.488338 53.367575,48.416397 53.764873,42.078092 C 51.959031,39.944075 49.372716,38.517448 46.360352,38.517448 z"
     style="opacity:0.83422457;fill:url(#radialGradient9542);fill-opacity:1;fill-rule:evenodd;stroke:none;stroke-width:1;stroke-linecap:round;stroke-linejoin:miter;marker:none;marker-start:none;marker-mid:none;marker-end:none;stroke-miterlimit:10;stroke-dasharray:none;stroke-dashoffset:0;stroke-opacity:1;visibility:visible;display:inline;overflow:visible" />
</svg>
