<?xml version="1.0" encoding="UTF-8" standalone="no"?>
<!-- Created with Inkscape (http://www.inkscape.org/) -->
<svg
   xmlns:dc="http://purl.org/dc/elements/1.1/"
   xmlns:cc="http://creativecommons.org/ns#"
   xmlns:rdf="http://www.w3.org/1999/02/22-rdf-syntax-ns#"
   xmlns:svg="http://www.w3.org/2000/svg"
   xmlns="http://www.w3.org/2000/svg"
   xmlns:xlink="http://www.w3.org/1999/xlink"
   xmlns:sodipodi="http://sodipodi.sourceforge.net/DTD/sodipodi-0.dtd"
   xmlns:inkscape="http://www.inkscape.org/namespaces/inkscape"
   width="22"
   height="22"
   id="svg2108"
   sodipodi:version="0.32"
   inkscape:version="0.46"
   sodipodi:docbase="/home/jesusda/docs/themes/iconos/pasodoble"
   sodipodi:docname="eMule_AdnzA_22.svg"
   inkscape:export-filename="./eMule_AdnzA_22.png"
   inkscape:export-xdpi="90"
   inkscape:export-ydpi="90"
   version="1.0"
   inkscape:output_extension="org.inkscape.output.svg.inkscape">
  <defs
     id="defs3">
    <inkscape:perspective
       sodipodi:type="inkscape:persp3d"
       inkscape:vp_x="0 : 11 : 1"
       inkscape:vp_y="0 : 1000 : 0"
       inkscape:vp_z="22 : 11 : 1"
       inkscape:persp3d-origin="11 : 7.3333333 : 1"
       id="perspective10651" />
    <linearGradient
       id="linearGradient34648">
      <stop
         id="stop34650"
         offset="0"
         style="stop-color:white;stop-opacity:1;" />
      <stop
         id="stop34652"
         offset="1"
         style="stop-color:white;stop-opacity:0" />
    </linearGradient>
    <linearGradient
       id="linearGradient25671">
      <stop
         style="stop-color:white;stop-opacity:1;"
         offset="0"
         id="stop25673" />
      <stop
         style="stop-color:white;stop-opacity:0;"
         offset="1"
         id="stop25675" />
    </linearGradient>
    <linearGradient
       id="linearGradient19466">
      <stop
         style="stop-color:#f1f1f1;stop-opacity:1;"
         offset="0"
         id="stop19468" />
      <stop
         style="stop-color:#babdb6;stop-opacity:1;"
         offset="1"
         id="stop19470" />
    </linearGradient>
    <linearGradient
       id="linearGradient11455">
      <stop
         style="stop-color:#e7a53c;stop-opacity:1;"
         offset="0"
         id="stop11457" />
      <stop
         style="stop-color:#c17d11;stop-opacity:1;"
         offset="1"
         id="stop11459" />
    </linearGradient>
    <linearGradient
       inkscape:collect="always"
       id="linearGradient3816">
      <stop
         style="stop-color:#000000;stop-opacity:1;"
         offset="0"
         id="stop3818" />
      <stop
         style="stop-color:#000000;stop-opacity:0;"
         offset="1"
         id="stop3820" />
    </linearGradient>
    <radialGradient
       inkscape:collect="always"
       xlink:href="#linearGradient3816"
       id="radialGradient9675"
       gradientUnits="userSpaceOnUse"
       cx="31.112698"
       cy="19.008621"
       fx="31.112698"
       fy="19.008621"
       r="8.6620579" />
    <linearGradient
       inkscape:collect="always"
       xlink:href="#linearGradient11455"
       id="linearGradient11461"
       x1="13.144103"
       y1="3.7709198"
       x2="15.282922"
       y2="10.841989"
       gradientUnits="userSpaceOnUse"
       gradientTransform="matrix(0.48801,-0.105595,0.105595,0.48801,-2.3906897,0.702471)" />
    <linearGradient
       inkscape:collect="always"
       xlink:href="#linearGradient11455"
       id="linearGradient14124"
       x1="30.288221"
       y1="9.9835567"
       x2="33.180138"
       y2="14.137809"
       gradientUnits="userSpaceOnUse"
       gradientTransform="matrix(0.455687,0,0,0.455687,0.2471183,0.336752)" />
    <radialGradient
       inkscape:collect="always"
       xlink:href="#linearGradient11455"
       id="radialGradient15914"
       cx="20.779243"
       cy="17.632784"
       fx="20.779243"
       fy="17.632784"
       r="12.684678"
       gradientTransform="matrix(8.059397e-2,0.126741,-0.189568,0.120546,12.461757,2.476324)"
       gradientUnits="userSpaceOnUse" />
    <linearGradient
       inkscape:collect="always"
       xlink:href="#linearGradient19466"
       id="linearGradient19472"
       x1="23.020285"
       y1="30.234846"
       x2="28.303734"
       y2="37.394302"
       gradientUnits="userSpaceOnUse"
       gradientTransform="matrix(0.455687,0,0,0.455687,0.2471183,0.336752)" />
    <linearGradient
       inkscape:collect="always"
       xlink:href="#linearGradient25671"
       id="linearGradient25677"
       x1="11.318041"
       y1="7.0598373"
       x2="16.425468"
       y2="13.332288"
       gradientUnits="userSpaceOnUse"
       gradientTransform="matrix(0.403492,-8.730701e-2,8.784143e-2,0.405962,1.2598843,1.51739)" />
    <linearGradient
       inkscape:collect="always"
       xlink:href="#linearGradient25671"
       id="linearGradient27530"
       x1="9.4548607"
       y1="-2.2937856"
       x2="27.017139"
       y2="27.461781"
       gradientUnits="userSpaceOnUse"
       gradientTransform="matrix(0.441762,0,0,0.450146,2.1695983,0.522829)" />
    <linearGradient
       inkscape:collect="always"
       xlink:href="#linearGradient25671"
       id="linearGradient28425"
       x1="26.714243"
       y1="4.4031796"
       x2="33.140091"
       y2="13.731877"
       gradientUnits="userSpaceOnUse"
       gradientTransform="matrix(0.444555,0,0,0.380954,2.0948513,1.221434)" />
    <linearGradient
       inkscape:collect="always"
       xlink:href="#linearGradient25671"
       id="linearGradient31979"
       x1="167.7552"
       y1="464.58746"
       x2="404.8714"
       y2="873.34998"
       gradientUnits="userSpaceOnUse" />
    <linearGradient
       inkscape:collect="always"
       xlink:href="#linearGradient19466"
       id="linearGradient32868"
       gradientUnits="userSpaceOnUse"
       gradientTransform="matrix(0.382545,0,0,0.407364,2.3878053,2.071142)"
       x1="23.020285"
       y1="30.234846"
       x2="28.303734"
       y2="37.394302" />
    <linearGradient
       inkscape:collect="always"
       xlink:href="#linearGradient34648"
       id="linearGradient33761"
       x1="21.203966"
       y1="30.258102"
       x2="24.958433"
       y2="37.234951"
       gradientUnits="userSpaceOnUse"
       gradientTransform="matrix(0.455687,0,0,0.455687,1.8420233,0.336752)" />
    <linearGradient
       inkscape:collect="always"
       xlink:href="#linearGradient34648"
       id="linearGradient35547"
       x1="35.920532"
       y1="45.451065"
       x2="34.458363"
       y2="42.953388"
       gradientUnits="userSpaceOnUse"
       gradientTransform="matrix(0.455687,0,0,0.455687,1.8420233,0.336752)" />
    <linearGradient
       inkscape:collect="always"
       xlink:href="#linearGradient19466"
       id="linearGradient36440"
       x1="277.4422"
       y1="592.78882"
       x2="255.77803"
       y2="737.88422"
       gradientUnits="userSpaceOnUse" />
    <linearGradient
       gradientUnits="userSpaceOnUse"
       y2="8.0405758"
       x2="14.959504"
       y1="8.0405758"
       x1="0.9415842"
       id="linearGradient8414"
       xlink:href="#linearGradient8408"
       inkscape:collect="always" />
    <filter
       height="1.4421053"
       y="-0.22105263"
       width="1.4421053"
       x="-0.22105263"
       id="filter8402"
       inkscape:collect="always">
      <feGaussianBlur
         id="feGaussianBlur8404"
         stdDeviation="0.53110998"
         inkscape:collect="always" />
    </filter>
    <radialGradient
       gradientUnits="userSpaceOnUse"
       r="2.8831685"
       fy="7.7108912"
       fx="10.04604"
       cy="7.7108912"
       cx="10.04604"
       id="radialGradient8352"
       xlink:href="#linearGradient8346"
       inkscape:collect="always" />
    <linearGradient
       gradientUnits="userSpaceOnUse"
       y2="8.0631005"
       x2="14.014852"
       y1="8.0631005"
       x1="6.6628713"
       id="linearGradient8334"
       xlink:href="#linearGradient8328"
       inkscape:collect="always" />
    <linearGradient
       gradientUnits="userSpaceOnUse"
       y2="8.040576"
       x2="11.666435"
       y1="8.040576"
       x1="2.9282179"
       id="linearGradient8324"
       xlink:href="#linearGradient8318"
       inkscape:collect="always" />
    <inkscape:perspective
       sodipodi:type="inkscape:persp3d"
       inkscape:vp_x="0 : 526.18109 : 1"
       inkscape:vp_y="0 : 1000 : 0"
       inkscape:vp_z="744.09448 : 526.18109 : 1"
       inkscape:persp3d-origin="372.04724 : 350.78739 : 1"
       id="perspective8308" />
    <inkscape:perspective
       id="perspective8100"
       inkscape:persp3d-origin="8 : 5.3333333 : 1"
       inkscape:vp_z="16 : 8 : 1"
       inkscape:vp_y="0 : 1000 : 0"
       inkscape:vp_x="0 : 8 : 1"
       sodipodi:type="inkscape:persp3d" />
    <linearGradient
       id="linearGradient8643">
      <stop
         style="stop-color:#c4a000;stop-opacity:1;"
         offset="0"
         id="stop8645" />
      <stop
         id="stop8647"
         offset="0.57282281"
         style="stop-color:#bea51b;stop-opacity:1;" />
      <stop
         style="stop-color:#f1dd58;stop-opacity:1;"
         offset="1"
         id="stop8649" />
    </linearGradient>
    <linearGradient
       id="linearGradient8519">
      <stop
         id="stop8521"
         offset="0"
         style="stop-color:#c4a000;stop-opacity:1;" />
      <stop
         style="stop-color:#e2c62e;stop-opacity:1;"
         offset="0.45050734"
         id="stop8523" />
      <stop
         id="stop8525"
         offset="1"
         style="stop-color:#c4a000;stop-opacity:1;" />
    </linearGradient>
    <linearGradient
       id="linearGradient8569">
      <stop
         id="stop8571"
         offset="0"
         style="stop-color:#c7c7c0;stop-opacity:1;" />
      <stop
         id="stop8573"
         offset="1"
         style="stop-color:#f2f2f0;stop-opacity:1;" />
    </linearGradient>
    <linearGradient
       id="linearGradient8533">
      <stop
         id="stop8535"
         offset="0"
         style="stop-color:#ae8e00;stop-opacity:1;" />
      <stop
         style="stop-color:#b29a19;stop-opacity:1;"
         offset="0.47016299"
         id="stop8541" />
      <stop
         id="stop8543"
         offset="1"
         style="stop-color:#ead129;stop-opacity:1;" />
    </linearGradient>
    <linearGradient
       id="linearGradient8529">
      <stop
         id="stop8531"
         offset="0"
         style="stop-color:#edd400;stop-opacity:1;" />
      <stop
         style="stop-color:#ffef63;stop-opacity:1;"
         offset="0.5"
         id="stop8538" />
      <stop
         id="stop8533"
         offset="1"
         style="stop-color:#edd400;stop-opacity:1;" />
    </linearGradient>
    <linearGradient
       id="linearGradient8449">
      <stop
         style="stop-color:#5e6358;stop-opacity:0.60283691;"
         offset="0"
         id="stop8451" />
      <stop
         id="stop8455"
         offset="0.54849237"
         style="stop-color:#73796b;stop-opacity:0.29078013;" />
      <stop
         style="stop-color:#939c89;stop-opacity:0.13475177;"
         offset="1"
         id="stop8453" />
    </linearGradient>
    <linearGradient
       id="linearGradient8318">
      <stop
         id="stop8320"
         offset="0"
         style="stop-color:#f3a253;stop-opacity:1;" />
      <stop
         id="stop8322"
         offset="1"
         style="stop-color:#ef2929;stop-opacity:1;" />
    </linearGradient>
    <linearGradient
       id="linearGradient8328">
      <stop
         id="stop8330"
         offset="0"
         style="stop-color:#f8d29a;stop-opacity:0.77254903;" />
      <stop
         id="stop8332"
         offset="1"
         style="stop-color:#f59a6a;stop-opacity:0.87450981;" />
    </linearGradient>
    <linearGradient
       id="linearGradient8338">
      <stop
         id="stop8340"
         offset="0"
         style="stop-color:#ef2929;stop-opacity:1;" />
      <stop
         id="stop8342"
         offset="1"
         style="stop-color:#ef2929;stop-opacity:0;" />
    </linearGradient>
    <linearGradient
       id="linearGradient8346">
      <stop
         id="stop8348"
         offset="0"
         style="stop-color:#f8ef76;stop-opacity:0.91489363;" />
      <stop
         id="stop8350"
         offset="1"
         style="stop-color:#f4e357;stop-opacity:0.47517732;" />
    </linearGradient>
    <linearGradient
       id="linearGradient8408">
      <stop
         id="stop8410"
         offset="0"
         style="stop-color:#bc1800;stop-opacity:1;" />
      <stop
         id="stop8412"
         offset="1"
         style="stop-color:#980000;stop-opacity:1;" />
    </linearGradient>
    <linearGradient
       inkscape:collect="always"
       xlink:href="#linearGradient8328"
       id="linearGradient11367"
       gradientUnits="userSpaceOnUse"
       x1="6.6628713"
       y1="8.0631005"
       x2="14.014852"
       y2="8.0631005"
       gradientTransform="matrix(0.6943985,0,0,0.6943985,0.4562934,11.141142)" />
    <linearGradient
       inkscape:collect="always"
       xlink:href="#linearGradient8408"
       id="linearGradient11370"
       gradientUnits="userSpaceOnUse"
       x1="0.9415842"
       y1="8.0405758"
       x2="14.959504"
       y2="8.0405758"
       gradientTransform="matrix(0.6943985,0,0,0.6943985,0.4562934,11.141142)" />
    <linearGradient
       inkscape:collect="always"
       xlink:href="#linearGradient8318"
       id="linearGradient11373"
       gradientUnits="userSpaceOnUse"
       x1="5.2455902"
       y1="8.040576"
       x2="9.8607454"
       y2="8.040576"
       gradientTransform="matrix(0.6943985,0,0,0.6943985,0.4562934,11.141142)" />
    <radialGradient
       inkscape:collect="always"
       xlink:href="#linearGradient8346"
       id="radialGradient11375"
       gradientUnits="userSpaceOnUse"
       cx="10.04604"
       cy="7.7108912"
       fx="10.04604"
       fy="7.7108912"
       r="2.8831685" />
  </defs>
  <sodipodi:namedview
     inkscape:showpageshadow="false"
     id="base"
     pagecolor="#ffffff"
     bordercolor="#666666"
     borderopacity="1.0"
     inkscape:pageopacity="0.0"
     inkscape:pageshadow="2"
     inkscape:zoom="54.001558"
     inkscape:cx="3.1089187"
     inkscape:cy="5.150812"
     inkscape:current-layer="layer1"
     showgrid="true"
     inkscape:grid-bbox="true"
     inkscape:document-units="px"
     fill="#9db029"
     stroke="#727e0a"
     inkscape:window-width="1014"
     inkscape:window-height="766"
     inkscape:window-x="0"
     inkscape:window-y="0"
     width="22px"
     height="22px">
    <inkscape:grid
       type="xygrid"
       id="grid10653" />
  </sodipodi:namedview>
  <metadata
     id="metadata4">
    <rdf:RDF>
      <cc:Work
         rdf:about="">
        <dc:format>image/svg+xml</dc:format>
        <dc:type
           rdf:resource="http://purl.org/dc/dcmitype/StillImage" />
        <dc:title>aMule</dc:title>
        <dc:creator>
          <cc:Agent>
            <dc:title>jEsuSdA 8)</dc:title>
          </cc:Agent>
        </dc:creator>
        <dc:source>http://www.jesusda.com</dc:source>
        <dc:subject>
          <rdf:Bag>
            <rdf:li>amule</rdf:li>
            <rdf:li>xmule</rdf:li>
            <rdf:li>edonkey</rdf:li>
            <rdf:li>p2p</rdf:li>
          </rdf:Bag>
        </dc:subject>
        <cc:license
           rdf:resource="http://creativecommons.org/licenses/by-sa/2.0/" />
      </cc:Work>
      <cc:License
         rdf:about="http://creativecommons.org/licenses/by-sa/2.0/">
        <cc:permits
           rdf:resource="http://web.resource.org/cc/Reproduction" />
        <cc:permits
           rdf:resource="http://web.resource.org/cc/Distribution" />
        <cc:requires
           rdf:resource="http://web.resource.org/cc/Notice" />
        <cc:requires
           rdf:resource="http://web.resource.org/cc/Attribution" />
        <cc:permits
           rdf:resource="http://web.resource.org/cc/DerivativeWorks" />
        <cc:requires
           rdf:resource="http://web.resource.org/cc/ShareAlike" />
      </cc:License>
    </rdf:RDF>
  </metadata>
  <g
     id="layer1"
     inkscape:label="cipek"
     inkscape:groupmode="layer"
     style="display:inline">
    <path
       transform="matrix(1.13149,0,0,0.294647,-22.92217,14.05127)"
       sodipodi:type="arc"
       style="opacity:0.4;color:black;fill:url(#radialGradient9675);fill-opacity:1;fill-rule:evenodd;stroke:none;stroke-width:1px;stroke-linecap:round;stroke-linejoin:round;marker:none;marker-start:none;marker-mid:none;marker-end:none;stroke-miterlimit:4;stroke-dasharray:none;stroke-dashoffset:0;stroke-opacity:1;visibility:visible;display:inline;overflow:visible"
       id="path4306"
       sodipodi:cx="31.112698"
       sodipodi:cy="19.008621"
       sodipodi:rx="8.6620579"
       sodipodi:ry="8.6620579"
       d="M 39.774755 19.008621 A 8.6620579 8.6620579 0 1 1  22.45064,19.008621 A 8.6620579 8.6620579 0 1 1  39.774755 19.008621 z" />
    <path
       style="fill:#cc0000;fill-opacity:1;fill-rule:evenodd;stroke:#a40000;stroke-width:1;stroke-linecap:butt;stroke-linejoin:miter;stroke-miterlimit:4;stroke-dasharray:none;stroke-opacity:1"
       d="M 15.447657,18.909656 C 15.563775,18.431219 17.299322,17.906479 17.876457,18.147843 C 18.513722,18.414353 19.236546,19.832994 19.090857,20.433279 C 18.974616,20.912228 17.591373,21.594944 17.090668,21.385544 C 16.376974,21.087069 15.301844,19.510453 15.447657,18.909656 z"
       id="path916"
       sodipodi:nodetypes="cssss" />
    <path
       style="fill:#8f5902;fill-opacity:1;fill-rule:evenodd;stroke:none;stroke-width:1pt;stroke-linecap:butt;stroke-linejoin:miter;stroke-opacity:1"
       d="M 15.880429,6.9039315 L 18.417828,8.5990589 L 16.342439,7.3445451 L 18.855266,9.8650158 L 15.880821,7.699388 L 17.892508,9.6617326 L 15.293747,7.9934806 L 15.880429,6.9039315 z"
       id="path917"
       sodipodi:nodetypes="cccccccc" />
    <path
       style="fill:#8e580d;fill-opacity:1;fill-rule:evenodd;stroke:none;stroke-width:1pt;stroke-linecap:butt;stroke-linejoin:miter;stroke-opacity:1"
       d="M 8.0858564,7.6987714 L 5.2363326,8.7164037 L 7.6069899,8.1249358 L 5.2390059,10.173261 L 8.0545373,8.4937403 L 5.9746584,10.649912 L 8.6298243,8.8056849 L 8.0858564,7.6987714 z"
       id="path919"
       sodipodi:nodetypes="cccccccc" />
    <path
       style="fill:url(#linearGradient14124);fill-opacity:1;fill-rule:evenodd;stroke:#8f5902;stroke-width:1;stroke-linecap:butt;stroke-linejoin:miter;stroke-miterlimit:4;stroke-dasharray:none;stroke-opacity:1"
       d="M 13.406361,4.7120508 C 14.248856,4.3695356 15.648009,4.3110525 16.614768,4.661753 C 18.24315,5.2524634 21.683282,7.336464 21.191783,7.5362812 C 20.421762,7.8493333 15.013795,6.9924774 12.830206,6.2003614 C 12.418654,6.0510666 12.987336,4.8824047 13.406361,4.7120508 z"
       id="path837"
       sodipodi:nodetypes="cssss" />
    <path
       style="fill:url(#linearGradient11461);fill-opacity:1;fill-rule:evenodd;stroke:#8f5902;stroke-width:1;stroke-miterlimit:4;stroke-dasharray:none;stroke-opacity:1"
       d="M 10.332659,6.7519931 C 10.230473,5.7485522 9.5607443,4.3472963 8.7147861,3.5823123 C 7.2898788,2.2937954 3.4604457,0.0060974777 3.5200597,0.59148927 C 3.6134566,1.508612 7.2630802,6.3620118 9.1738183,8.0898573 C 9.5339473,8.4155137 10.383484,7.2510679 10.332659,6.7519931 z"
       id="path839"
       sodipodi:nodetypes="cssss" />
    <path
       style="fill:#a76f1c;fill-opacity:1;fill-rule:evenodd;stroke:#8b580c;stroke-width:0.27308393;stroke-linecap:square;stroke-linejoin:miter;stroke-miterlimit:21;stroke-dasharray:none;stroke-opacity:1"
       d="M 10.581741,6.3218274 L 9.3420823,1.6950744 L 11.050313,4.8521944 L 11.125728,1.8243978 L 11.594307,4.8773043 L 13.250378,1.8219084 L 12.336192,5.8277606 L 10.581741,6.3218274 z"
       id="path866"
       sodipodi:nodetypes="cccccccc" />
    <path
       sodipodi:nodetypes="cscss"
       id="path21244"
       d="M 9.8782913,6.5292206 C 9.6142983,5.750145 9.3547333,5.2372767 8.3889994,4.4051167 C 7.7085863,3.8188136 6.4344957,2.5988712 5.2279615,2.0715395 C 6.1943895,3.8586505 7.7066687,5.2951438 9.0299223,6.7792809 C 9.2709043,7.0495621 10.009594,6.9167051 9.8782913,6.5292206 z"
       style="opacity:1;fill:none;fill-opacity:1;fill-rule:evenodd;stroke:url(#linearGradient25677);stroke-width:0.65582883;stroke-miterlimit:6.19999981;stroke-dasharray:none;stroke-opacity:0.47058824" />
    <path
       sodipodi:nodetypes="cscss"
       id="path27532"
       d="M 13.761331,5.5705368 C 14.11567,5.0847719 15.497856,5.1755121 16.416394,5.5213306 C 17.949424,6.0984962 18.929596,6.7790999 19.20029,6.9580516 C 14.038075,5.7635167 14.670048,5.7497926 13.415413,5.5564339 C 12.99987,5.4923923 13.566636,5.8374475 13.761331,5.5705368 z"
       style="fill:none;fill-opacity:1;fill-rule:evenodd;stroke:url(#linearGradient28425);stroke-width:0.69347227;stroke-linecap:butt;stroke-linejoin:miter;stroke-miterlimit:4;stroke-dasharray:none;stroke-opacity:1" />
    <path
       style="fill:url(#radialGradient15914);fill-opacity:1;fill-rule:evenodd;stroke:#8f5902;stroke-width:1;stroke-linecap:butt;stroke-linejoin:miter;stroke-miterlimit:4;stroke-dasharray:none;stroke-opacity:1"
       d="M 11.804459,5.5144582 C 10.672055,5.6297715 9.1035373,6.7320588 8.6613079,7.7364117 C 8.0320092,9.1656255 8.5898726,11.122243 8.5898726,12.815158 C 8.5898726,14.508074 7.4440286,17.538247 8.6613079,17.893905 C 10.920543,18.553996 17.225644,17.25903 19.019423,15.862407 C 19.916374,15.164047 17.317945,13.082354 16.733494,11.608956 C 16.151168,10.140912 16.445178,8.183139 15.519095,7.0380831 C 14.802167,6.1516399 12.957984,5.3969949 11.804459,5.5144582 z"
       id="path826"
       sodipodi:nodetypes="cccccccc" />
    <path
       style="fill:none;fill-opacity:1;fill-rule:evenodd;stroke:url(#linearGradient27530);stroke-width:0.69347227;stroke-linecap:butt;stroke-linejoin:miter;stroke-miterlimit:4;stroke-dasharray:none;stroke-opacity:1"
       d="M 9.1058713,15.308496 C 9.6880283,13.155988 9.3012133,11.002016 9.2209433,9.0658612 C 9.3936383,6.9273059 11.507833,5.7730337 13.438652,6.6441375 C 15.108602,7.3154412 15.307463,7.7619781 15.508458,10.279849 C 15.67412,11.415264 16.227151,12.600632 17.0141,13.456145 C 17.305253,13.983641 17.064572,14.594997 16.487713,14.675032 C 16.379599,14.723012 16.289766,14.807986 16.226349,14.908403"
       id="path26572"
       sodipodi:nodetypes="ccccccc" />
    <path
       sodipodi:nodetypes="cssss"
       id="path34654"
       d="M 15.983327,18.929107 C 16.070476,18.518606 16.896731,18.230366 17.329889,18.437456 C 17.808178,18.666123 18.520543,19.537451 18.411199,20.0525 C 18.323955,20.46344 17.592259,20.834681 17.216463,20.655015 C 16.680811,20.398923 15.873889,19.444595 15.983327,18.929107 z"
       style="fill:none;fill-opacity:1;fill-rule:evenodd;stroke:url(#linearGradient35547);stroke-width:0.69347227;stroke-linecap:butt;stroke-linejoin:miter;stroke-miterlimit:4;stroke-dasharray:none;stroke-opacity:1" />
    <path
       sodipodi:type="arc"
       style="fill:url(#linearGradient36440);fill-opacity:1;fill-rule:evenodd;stroke:#2e3436;stroke-width:32.18379211;stroke-miterlimit:4;stroke-dasharray:none"
       id="path829"
       sodipodi:cx="320.64716"
       sodipodi:cy="683.87244"
       sodipodi:rx="167.95804"
       sodipodi:ry="128.25887"
       d="M 488.60519,683.87244 A 167.95804,128.25887 0 1 1 152.68912,683.87244 A 167.95804,128.25887 0 1 1 488.60519,683.87244 z"
       transform="matrix(3.445074e-2,-5.558484e-3,6.593672e-3,2.695994e-2,-1.9482727,8.107935e-2)" />
    <path
       transform="matrix(3.195214e-2,-5.040951e-3,6.115456e-3,2.44498e-2,-0.8200607,1.621685)"
       d="M 473.74995,683.87244 A 153.1028,106.09241 0 1 1 167.54436,683.87244 A 153.1028,106.09241 0 1 1 473.74995,683.87244 z"
       sodipodi:ry="106.09241"
       sodipodi:rx="153.1028"
       sodipodi:cy="683.87244"
       sodipodi:cx="320.64716"
       id="path31086"
       style="fill:none;fill-opacity:1;fill-rule:evenodd;stroke:url(#linearGradient31979);stroke-width:24.3353405;stroke-miterlimit:4;stroke-dasharray:none"
       sodipodi:type="arc" />
    <path
       style="fill:#2e3436;fill-rule:evenodd;stroke:#555753;stroke-width:0.45568663;stroke-miterlimit:4;stroke-dasharray:none"
       d="M 15.804822,16.814673 C 15.643413,16.587555 16.321019,14.1438 16.733479,13.70394 C 16.916312,13.508958 17.703769,14.531398 17.5907,14.910141 C 17.394219,15.568308 15.929154,16.989624 15.804822,16.814673 z"
       id="path850"
       sodipodi:nodetypes="csss" />
    <path
       style="fill:#2e3436;fill-rule:evenodd;stroke:#555753;stroke-width:0.45568663;stroke-miterlimit:4;stroke-dasharray:none"
       d="M 11.78582,17.321574 C 11.845841,17.058301 10.235014,14.988213 9.6735543,14.707377 C 9.4246703,14.582888 9.0976103,15.787311 9.3547873,16.105601 C 9.8016983,16.65871 11.739585,17.524376 11.78582,17.321574 z"
       id="path851"
       sodipodi:nodetypes="csss" />
    <path
       transform="matrix(3.707097e-2,-1.206467e-2,1.285122e-2,3.874429e-2,-10.728193,-1.022307)"
       d="M 460.10323,460.94629 A 37.663319,55.986012 0 1 1 384.77659,460.94629 A 37.663319,55.986012 0 1 1 460.10323,460.94629 z"
       sodipodi:ry="55.986012"
       sodipodi:rx="37.663319"
       sodipodi:cy="460.94629"
       sodipodi:cx="422.43991"
       id="path28427"
       style="fill:#453317;fill-opacity:1;fill-rule:evenodd;stroke:#8f5902;stroke-width:3.42694306;stroke-miterlimit:4;stroke-dasharray:none"
       sodipodi:type="arc" />
    <path
       sodipodi:type="arc"
       style="fill:#eeeeec;fill-rule:evenodd;stroke:#555753;stroke-width:9.21779442;stroke-miterlimit:4;stroke-dasharray:none"
       id="path862"
       sodipodi:cx="422.43991"
       sodipodi:cy="460.94629"
       sodipodi:rx="37.663319"
       sodipodi:ry="55.986012"
       d="M 460.10323,460.94629 A 37.663319,55.986012 0 1 1 384.77659,460.94629 A 37.663319,55.986012 0 1 1 460.10323,460.94629 z"
       transform="matrix(3.73536e-2,-5.607981e-3,7.00095e-3,3.682909e-2,-7.9193467,-3.108732)" />
    <path
       sodipodi:type="arc"
       style="fill-rule:evenodd;stroke:#000000;stroke-width:1pt"
       id="path863"
       sodipodi:cx="297.23483"
       sodipodi:cy="487.41241"
       sodipodi:rx="24.43026"
       sodipodi:ry="23.412333"
       d="M 321.66509,487.41241 A 24.43026,23.412333 0 1 1 272.80457,487.41241 A 24.43026,23.412333 0 1 1 321.66509,487.41241 z"
       transform="matrix(3.443834e-2,-7.431423e-3,5.817846e-3,4.39898e-2,-1.5640117,-6.856339)" />
    <path
       sodipodi:type="arc"
       style="fill:#453317;fill-opacity:1;fill-rule:evenodd;stroke:#8f5902;stroke-width:3.42694306;stroke-miterlimit:4;stroke-dasharray:none"
       id="path30199"
       sodipodi:cx="422.43991"
       sodipodi:cy="460.94629"
       sodipodi:rx="37.663319"
       sodipodi:ry="55.986012"
       d="M 460.10323,460.94629 A 37.663319,55.986012 0 1 1 384.77659,460.94629 A 37.663319,55.986012 0 1 1 460.10323,460.94629 z"
       transform="matrix(-3.884658e-2,-3.279585e-3,-3.663187e-3,4.065532e-2,32.902217,-6.137976)" />
    <path
       sodipodi:type="arc"
       style="fill:#eeeeec;fill-rule:evenodd;stroke:#555753;stroke-width:9.21779728;stroke-miterlimit:4;stroke-dasharray:none"
       id="path828"
       sodipodi:cx="422.43991"
       sodipodi:cy="460.94629"
       sodipodi:rx="37.663319"
       sodipodi:ry="55.986012"
       d="M 460.10323,460.94629 A 37.663319,55.986012 0 1 1 384.77659,460.94629 A 37.663319,55.986012 0 1 1 460.10323,460.94629 z"
       transform="matrix(3.788286e-2,0,0,3.735091e-2,-1.5027547,-6.242656)" />
    <path
       sodipodi:type="arc"
       style="fill-rule:evenodd;stroke:#000000;stroke-width:1pt"
       id="path857"
       sodipodi:cx="297.23483"
       sodipodi:cy="487.41241"
       sodipodi:rx="24.43026"
       sodipodi:ry="23.412333"
       d="M 321.66509,487.41241 A 24.43026,23.412333 0 1 1 272.80457,487.41241 A 24.43026,23.412333 0 1 1 321.66509,487.41241 z"
       transform="matrix(3.49356e-2,0,0,4.378985e-2,3.8674413,-9.400939)" />
    <path
       transform="matrix(1.83873e-2,-4.102942e-3,3.106261e-3,2.428709e-2,4.3473303,1.354887)"
       d="M 321.66509,487.41241 A 24.43026,23.412333 0 1 1 272.80457,487.41241 A 24.43026,23.412333 0 1 1 321.66509,487.41241 z"
       sodipodi:ry="23.412333"
       sodipodi:rx="24.43026"
       sodipodi:cy="487.41241"
       sodipodi:cx="297.23483"
       id="path16807"
       style="fill:#ffffff;fill-opacity:1;fill-rule:evenodd;stroke:none;stroke-width:1pt"
       sodipodi:type="arc" />
    <path
       sodipodi:type="arc"
       style="fill:#ffffff;fill-opacity:1;fill-rule:evenodd;stroke:none;stroke-width:1pt"
       id="path17694"
       sodipodi:cx="297.23483"
       sodipodi:cy="487.41241"
       sodipodi:rx="24.43026"
       sodipodi:ry="23.412333"
       d="M 321.66509,487.41241 A 24.43026,23.412333 0 1 1 272.80457,487.41241 A 24.43026,23.412333 0 1 1 321.66509,487.41241 z"
       transform="matrix(1.83873e-2,-4.102942e-3,3.106261e-3,2.428709e-2,7.1264703,0.871558)" />
    <path
       style="fill:url(#linearGradient19472);fill-opacity:1;fill-rule:evenodd;stroke:#2e3436;stroke-width:0.69347227;stroke-miterlimit:1;stroke-dasharray:none"
       d="M 9.7328233,14.238585 C 10.826709,13.345514 15.180269,12.631624 16.447739,13.186952 C 17.180455,13.507986 15.747676,15.658004 15.733388,16.86767 C 15.723864,17.673634 16.998759,19.181049 16.519175,19.562481 C 15.593869,20.298409 12.565854,20.618905 11.518706,20.219751 C 10.899029,19.983543 11.99871,18.217619 11.733011,17.327759 C 11.403415,16.223896 9.1360743,14.725784 9.7328233,14.238585 z"
       id="path844"
       sodipodi:nodetypes="ccccccc" />
    <path
       sodipodi:nodetypes="ccccccc"
       id="path32866"
       d="M 10.819421,14.571451 C 11.737726,13.773084 14.424923,13.619105 15.770893,13.712769 C 15.842258,14.181008 15.075511,15.675722 15.063516,16.757112 C 15.05552,17.477608 15.733481,18.804153 16.035766,19.206432 C 15.257157,19.86204 12.746456,19.811997 12.065599,19.702939 C 12.068993,19.209837 12.638418,17.862334 12.415367,17.066839 C 12.138674,16.080034 10.318456,15.006984 10.819421,14.571451 z"
       style="fill:url(#linearGradient32868);fill-opacity:1;fill-rule:evenodd;stroke:url(#linearGradient33761);stroke-width:0.69347227;stroke-miterlimit:1;stroke-dasharray:none" />
    <path
       id="path8316"
       d="M 5.680439,20.530991 L 1.4573273,20.530991 L 1.4573273,19.123287 L 5.0580005,12.886738 L 6.4624967,12.886738 L 10.496951,19.874618 L 10.496951,20.562274 L 7.7137889,20.562274 L 4.9181839,15.720143 L 2.9255661,19.171459 L 5.7117213,19.171459 L 5.680439,20.530991 z"
       style="fill:url(#linearGradient11373);fill-opacity:1;fill-rule:evenodd;stroke:none;stroke-width:1;stroke-linecap:butt;stroke-linejoin:miter;stroke-miterlimit:4;stroke-dasharray:none;stroke-opacity:1" />
    <path
       style="fill:none;fill-rule:evenodd;stroke:url(#linearGradient11370);stroke-width:1;stroke-linecap:butt;stroke-linejoin:miter;stroke-miterlimit:4;stroke-dasharray:none;stroke-opacity:1"
       d="M 5.5010128,20.51535 L 1.4886096,20.51535 L 1.4886096,19.060722 L 5.2802163,12.516378 L 6.6847125,12.516378 L 10.543875,19.827695 L 10.543875,20.51535 L 7.7607122,20.51535 L 5.1959536,15.979395 L 3.1477819,19.521234 L 5.5166539,19.521234 L 5.5010128,20.51535 z"
       id="path9084"
       sodipodi:nodetypes="cccccccccccc" />
    <path
       style="fill:none;fill-rule:evenodd;stroke:url(#linearGradient11367);stroke-width:1;stroke-linecap:round;stroke-linejoin:round;stroke-miterlimit:4;stroke-dasharray:none;stroke-opacity:1"
       d="M 6.0839013,13.519395 L 9.2398899,19.51521 L 8.4938888,19.51521"
       id="path8326"
       sodipodi:nodetypes="ccc" />
    <path
       sodipodi:type="arc"
       style="opacity:0.69465649;fill:url(#radialGradient11375);fill-opacity:1;fill-rule:evenodd;stroke:none;stroke-width:1.67574728;stroke-linecap:round;stroke-linejoin:round;stroke-miterlimit:4;stroke-dasharray:none;stroke-opacity:1;filter:url(#filter8402)"
       id="path8336"
       sodipodi:cx="10.04604"
       sodipodi:cy="7.7108912"
       sodipodi:rx="2.8831685"
       sodipodi:ry="2.8831685"
       d="M 12.929208,7.7108912 A 2.8831685,2.8831685 0 1 1 7.1628711,7.7108912 A 2.8831685,2.8831685 0 1 1 12.929208,7.7108912 z"
       transform="matrix(0.6417082,0,0,0.6706108,0.1106453,11.688405)" />
  </g>
  <g
     inkscape:groupmode="layer"
     id="layer2"
     inkscape:label="dalsi cipek"
     style="display:inline" />
</svg>
