<?xml version="1.0" encoding="UTF-8" ?>
<!DOCTYPE svg PUBLIC "-//W3C//DTD SVG 1.1//EN" "http://www.w3.org/Graphics/SVG/1.1/DTD/svg11.dtd">
<svg width="80pt" height="80pt" viewBox="0 0 80 80" version="1.1" xmlns="http://www.w3.org/2000/svg">
<path fill="#808081" stroke="#808081" stroke-width="0.09375" opacity="1.00" d=" M 12.0 0.0 L 68.0 0.0 C 68.0 5.3 68.0 10.7 68.0 16.0 C 49.3 16.0 30.7 16.0 12.0 16.0 C 12.0 10.7 12.0 5.3 12.0 0.0 Z" />
<path fill="#808081" stroke="#808081" stroke-width="0.09375" opacity="1.00" d=" M 12.0 24.0 C 30.7 24.0 49.3 24.0 68.0 24.0 C 68.0 29.3 68.0 34.7 68.0 40.0 C 49.3 40.0 30.7 40.0 12.0 40.0 C 12.0 34.7 12.0 29.3 12.0 24.0 Z" />
<path fill="#808081" stroke="#808081" stroke-width="0.09375" opacity="1.00" d=" M 11.8 48.0 C 30.6 48.0 49.4 48.0 68.2 48.0 C 59.0 58.7 49.8 69.3 40.6 80.0 L 40.1 80.0 C 30.7 69.3 21.2 58.7 11.8 48.0 Z" />
</svg>
