<?xml version="1.0" encoding="UTF-8" ?>
<!DOCTYPE svg PUBLIC "-//W3C//DTD SVG 1.1//EN" "http://www.w3.org/Graphics/SVG/1.1/DTD/svg11.dtd">
<svg width="80pt" height="80pt" viewBox="0 0 80 80" version="1.1" xmlns="http://www.w3.org/2000/svg">
<path fill="#808181" stroke="#808181" stroke-width="0.09375" opacity="1.00" d=" M 51.0 0.0 L 51.7 0.0 C 67.0 5.1 78.2 19.8 80.0 35.7 L 80.0 44.3 C 78.4 60.1 67.9 75.1 52.6 80.0 L 52.0 80.0 C 52.0 77.3 52.0 74.7 52.0 72.0 C 62.5 67.9 69.9 57.9 72.0 47.0 C 75.6 31.2 66.0 13.9 51.0 8.0 C 51.0 5.3 51.0 2.7 51.0 0.0 Z" />
<path fill="#808181" stroke="#808181" stroke-width="0.09375" opacity="1.00" d=" M 11.1 28.0 C 18.8 20.5 26.4 13.0 34.0 5.4 C 34.0 28.5 34.0 51.6 34.0 74.6 C 26.4 66.7 18.8 58.8 11.1 51.0 C 7.4 51.0 3.7 51.0 0.0 51.0 L 0.0 28.0 C 3.7 28.0 7.4 28.0 11.1 28.0 Z" />
<path fill="#808181" stroke="#808181" stroke-width="0.09375" opacity="1.00" d=" M 45.0 23.4 C 51.7 26.1 57.4 32.5 57.3 40.0 C 57.3 47.5 51.7 53.9 45.0 56.6 C 45.0 45.5 45.0 34.5 45.0 23.4 Z" />
</svg>
