<?xml version="1.0" encoding="UTF-8" ?>
<!DOCTYPE svg PUBLIC "-//W3C//DTD SVG 1.1//EN" "http://www.w3.org/Graphics/SVG/1.1/DTD/svg11.dtd">
<svg width="80pt" height="80pt" viewBox="0 0 80 80" version="1.1" xmlns="http://www.w3.org/2000/svg">
<path fill="#1ca966" stroke="#1ca966" stroke-width="0.09375" opacity="1.00" d=" M 6.0 0.0 L 73.9 0.0 C 76.9 0.9 79.1 3.1 80.0 6.0 L 80.0 74.0 C 79.1 76.9 76.9 79.1 73.9 80.0 L 6.1 80.0 C 3.1 79.1 0.9 76.9 0.0 74.0 L 0.0 6.0 C 0.9 3.1 3.1 0.9 6.0 0.0 M 10.0 16.0 C 10.0 33.7 10.0 51.3 10.0 69.0 C 15.3 69.0 20.7 69.0 26.0 69.0 C 26.0 51.3 26.0 33.7 26.0 16.0 C 20.7 16.0 15.3 16.0 10.0 16.0 M 54.0 27.0 C 54.0 41.0 54.0 55.0 54.0 69.0 C 59.3 69.0 64.7 69.0 70.0 69.0 C 70.0 55.0 70.0 41.0 70.0 27.0 C 64.7 27.0 59.3 27.0 54.0 27.0 M 32.0 42.7 C 32.0 51.5 32.0 60.3 32.0 69.0 C 37.3 69.0 42.7 69.0 48.0 69.0 C 48.0 60.3 48.0 51.5 48.0 42.7 C 42.7 42.8 37.3 42.8 32.0 42.7 Z" />
<path fill="#ffffff" stroke="#ffffff" stroke-width="0.09375" opacity="1.00" d=" M 10.0 16.0 C 15.3 16.0 20.7 16.0 26.0 16.0 C 26.0 33.7 26.0 51.3 26.0 69.0 C 20.7 69.0 15.3 69.0 10.0 69.0 C 10.0 51.3 10.0 33.7 10.0 16.0 Z" />
<path fill="#ffffff" stroke="#ffffff" stroke-width="0.09375" opacity="1.00" d=" M 54.0 27.0 C 59.3 27.0 64.7 27.0 70.0 27.0 C 70.0 41.0 70.0 55.0 70.0 69.0 C 64.7 69.0 59.3 69.0 54.0 69.0 C 54.0 55.0 54.0 41.0 54.0 27.0 Z" />
<path fill="#ffffff" stroke="#ffffff" stroke-width="0.09375" opacity="1.00" d=" M 32.0 42.7 C 37.3 42.8 42.7 42.8 48.0 42.7 C 48.0 51.5 48.0 60.3 48.0 69.0 C 42.7 69.0 37.3 69.0 32.0 69.0 C 32.0 60.3 32.0 51.5 32.0 42.7 Z" />
</svg>
