<?xml version="1.0" encoding="UTF-8" ?>
<!DOCTYPE svg PUBLIC "-//W3C//DTD SVG 1.1//EN" "http://www.w3.org/Graphics/SVG/1.1/DTD/svg11.dtd">
<svg width="80pt" height="80pt" viewBox="0 0 80 80" version="1.1" xmlns="http://www.w3.org/2000/svg">
<path fill="#5781c2" stroke="#5781c2" stroke-width="0.09375" opacity="1.00" d=" M 6.1 0.0 L 73.9 0.0 C 76.9 0.9 79.1 3.1 80.0 6.1 L 80.0 73.9 C 79.1 76.9 76.9 79.1 73.9 80.0 L 6.1 80.0 C 3.1 79.1 0.9 76.9 0.0 73.9 L 0.0 6.1 C 0.9 3.1 3.1 0.9 6.1 0.0 M 16.0 16.0 C 16.0 17.7 16.0 19.3 16.0 21.0 C 32.0 21.0 48.0 21.0 64.0 21.0 C 64.0 19.3 64.0 17.7 64.0 16.0 C 48.0 16.0 32.0 16.0 16.0 16.0 M 16.0 26.0 C 16.0 27.7 16.0 29.3 16.0 31.0 C 32.0 31.0 48.0 31.0 64.0 31.0 C 64.0 29.3 64.0 27.7 64.0 26.0 C 48.0 26.0 32.0 26.0 16.0 26.0 M 16.0 36.0 C 16.0 37.7 16.0 39.3 16.0 41.0 C 32.0 41.0 48.0 41.0 64.0 41.0 C 64.0 39.3 64.0 37.7 64.0 36.0 C 48.0 36.0 32.0 36.0 16.0 36.0 M 16.0 46.0 C 16.0 47.7 16.0 49.3 16.0 51.0 C 32.0 51.0 48.0 51.0 64.0 51.0 C 64.0 49.3 64.0 47.7 64.0 46.0 C 48.0 46.0 32.0 46.0 16.0 46.0 M 16.0 56.0 C 16.0 57.7 16.0 59.3 16.0 61.0 C 25.0 61.0 34.0 61.0 43.0 61.0 C 43.0 59.3 43.0 57.7 43.0 56.0 C 34.0 56.0 25.0 56.0 16.0 56.0 Z" />
<path fill="#ffffff" stroke="#ffffff" stroke-width="0.09375" opacity="1.00" d=" M 16.0 16.0 C 32.0 16.0 48.0 16.0 64.0 16.0 C 64.0 17.7 64.0 19.3 64.0 21.0 C 48.0 21.0 32.0 21.0 16.0 21.0 C 16.0 19.3 16.0 17.7 16.0 16.0 Z" />
<path fill="#ffffff" stroke="#ffffff" stroke-width="0.09375" opacity="1.00" d=" M 16.0 26.0 C 32.0 26.0 48.0 26.0 64.0 26.0 C 64.0 27.7 64.0 29.3 64.0 31.0 C 48.0 31.0 32.0 31.0 16.0 31.0 C 16.0 29.3 16.0 27.7 16.0 26.0 Z" />
<path fill="#ffffff" stroke="#ffffff" stroke-width="0.09375" opacity="1.00" d=" M 16.0 36.0 C 32.0 36.0 48.0 36.0 64.0 36.0 C 64.0 37.7 64.0 39.3 64.0 41.0 C 48.0 41.0 32.0 41.0 16.0 41.0 C 16.0 39.3 16.0 37.7 16.0 36.0 Z" />
<path fill="#ffffff" stroke="#ffffff" stroke-width="0.09375" opacity="1.00" d=" M 16.0 46.0 C 32.0 46.0 48.0 46.0 64.0 46.0 C 64.0 47.7 64.0 49.3 64.0 51.0 C 48.0 51.0 32.0 51.0 16.0 51.0 C 16.0 49.3 16.0 47.7 16.0 46.0 Z" />
<path fill="#ffffff" stroke="#ffffff" stroke-width="0.09375" opacity="1.00" d=" M 16.0 56.0 C 25.0 56.0 34.0 56.0 43.0 56.0 C 43.0 57.7 43.0 59.3 43.0 61.0 C 34.0 61.0 25.0 61.0 16.0 61.0 C 16.0 59.3 16.0 57.7 16.0 56.0 Z" />
</svg>
