<?xml version="1.0" encoding="UTF-8" ?>
<!DOCTYPE svg PUBLIC "-//W3C//DTD SVG 1.1//EN" "http://www.w3.org/Graphics/SVG/1.1/DTD/svg11.dtd">
<svg width="80pt" height="80pt" viewBox="0 0 80 80" version="1.1" xmlns="http://www.w3.org/2000/svg">
<path fill="#f5b417" stroke="#f5b417" stroke-width="0.09375" opacity="1.00" d=" M 6.1 0.0 L 73.9 0.0 C 76.9 0.8 79.2 3.1 80.0 6.1 L 80.0 73.9 C 79.2 76.9 76.9 79.2 73.9 80.0 L 6.1 80.0 C 3.1 79.2 0.8 76.9 0.0 73.9 L 0.0 6.1 C 0.8 3.1 3.1 0.8 6.1 0.0 M 11.0 11.0 C 11.0 21.7 11.0 32.3 11.0 43.0 C 21.7 43.0 32.3 43.0 43.0 43.0 C 43.0 32.3 43.0 21.7 43.0 11.0 C 32.3 11.0 21.7 11.0 11.0 11.0 M 34.9 69.0 C 46.3 69.0 57.6 69.0 69.0 69.0 C 69.0 57.6 69.0 46.3 69.0 34.9 C 57.6 46.2 46.2 57.6 34.9 69.0 Z" />
<path fill="#ffffff" stroke="#ffffff" stroke-width="0.09375" opacity="1.00" d=" M 11.0 11.0 C 21.7 11.0 32.3 11.0 43.0 11.0 C 43.0 21.7 43.0 32.3 43.0 43.0 C 32.3 43.0 21.7 43.0 11.0 43.0 C 11.0 32.3 11.0 21.7 11.0 11.0 Z" />
<path fill="#ffffff" stroke="#ffffff" stroke-width="0.09375" opacity="1.00" d=" M 34.9 69.0 C 46.2 57.6 57.6 46.2 69.0 34.9 C 69.0 46.3 69.0 57.6 69.0 69.0 C 57.6 69.0 46.3 69.0 34.9 69.0 Z" />
</svg>
