<?xml version="1.0" encoding="UTF-8" ?>
<!DOCTYPE svg PUBLIC "-//W3C//DTD SVG 1.1//EN" "http://www.w3.org/Graphics/SVG/1.1/DTD/svg11.dtd">
<svg width="80pt" height="80pt" viewBox="0 0 80 80" version="1.1" xmlns="http://www.w3.org/2000/svg">
<path fill="#12a664" stroke="#12a664" stroke-width="0.09375" opacity="1.00" d=" M 7.6 0.0 L 22.9 0.0 C 28.8 8.7 34.4 17.6 40.4 26.3 C 46.2 17.5 51.9 8.7 57.8 0.0 L 73.1 0.0 C 64.7 12.1 56.2 24.2 47.9 36.5 C 57.9 50.9 67.9 65.5 77.8 80.0 L 63.0 80.0 C 55.5 69.0 47.9 58.0 40.3 47.0 C 35.1 54.4 29.8 61.8 24.6 69.2 C 31.7 69.3 38.7 69.2 45.7 69.3 C 45.8 72.8 45.7 76.4 45.7 80.0 L 2.8 80.0 C 12.7 65.4 22.8 50.9 32.8 36.4 C 24.4 24.2 16.0 12.1 7.6 0.0 Z" />
</svg>
