<?xml version="1.0" encoding="UTF-8" ?>
<!DOCTYPE svg PUBLIC "-//W3C//DTD SVG 1.1//EN" "http://www.w3.org/Graphics/SVG/1.1/DTD/svg11.dtd">
<svg width="80pt" height="80pt" viewBox="0 0 80 80" version="1.1" xmlns="http://www.w3.org/2000/svg">
<path fill="#808081" stroke="#808081" stroke-width="0.09375" opacity="1.00" d=" M 9.0 0.0 L 49.3 0.0 C 56.8 7.6 64.7 15.0 71.9 22.8 C 72.1 41.9 71.9 60.9 72.0 80.0 L 9.0 80.0 C 9.0 53.3 9.0 26.7 9.0 0.0 M 43.3 3.4 C 43.2 11.9 43.3 20.5 43.2 29.0 C 51.8 29.0 60.3 29.0 68.8 29.0 C 60.3 20.5 51.8 11.9 43.3 3.4 Z" />
<path fill="#ffffff" stroke="#ffffff" stroke-width="0.09375" opacity="1.00" d=" M 43.3 3.4 C 51.8 11.9 60.3 20.5 68.8 29.0 C 60.3 29.0 51.8 29.0 43.2 29.0 C 43.3 20.5 43.2 11.9 43.3 3.4 Z" />
</svg>
