<?xml version="1.0" encoding="UTF-8" ?>
<!DOCTYPE svg PUBLIC "-//W3C//DTD SVG 1.1//EN" "http://www.w3.org/Graphics/SVG/1.1/DTD/svg11.dtd">
<svg width="80pt" height="80pt" viewBox="0 0 80 80" version="1.1" xmlns="http://www.w3.org/2000/svg">
<path fill="#11a665" stroke="#11a665" stroke-width="0.09375" opacity="1.00" d=" M 5.8 0.0 L 74.1 0.0 C 76.9 0.9 78.9 3.0 80.0 5.8 L 80.0 73.9 C 79.1 76.9 76.9 79.1 73.9 80.0 L 6.1 80.0 C 3.2 79.1 1.1 77.0 0.0 74.2 L 0.0 6.0 C 0.9 3.2 3.0 1.1 5.8 0.0 M 15.3 22.2 C 12.7 23.4 11.0 26.2 10.8 29.0 C 10.6 33.1 13.9 36.8 18.0 37.2 C 22.8 37.7 27.4 32.9 26.4 28.0 C 25.7 23.1 19.8 19.9 15.3 22.2 M 32.0 27.0 C 32.0 28.7 32.0 30.3 32.0 32.0 C 44.3 32.0 56.7 32.0 69.0 32.0 C 69.0 30.3 69.0 28.7 69.0 27.0 C 56.7 27.0 44.3 27.0 32.0 27.0 M 15.4 43.5 C 10.7 45.5 9.2 52.3 12.9 56.0 C 16.7 60.5 24.7 58.6 26.2 53.0 C 28.5 46.9 21.2 40.5 15.4 43.5 M 32.0 48.0 C 32.0 49.7 32.0 51.3 32.0 53.0 C 44.3 53.0 56.7 53.0 69.0 53.0 C 69.0 51.3 69.0 49.7 69.0 48.0 C 56.7 48.0 44.3 48.0 32.0 48.0 Z" />
<path fill="#ffffff" stroke="#ffffff" stroke-width="0.09375" opacity="1.00" d=" M 15.3 22.2 C 19.8 19.9 25.7 23.1 26.4 28.0 C 27.4 32.9 22.8 37.7 18.0 37.2 C 13.9 36.8 10.6 33.1 10.8 29.0 C 11.0 26.2 12.7 23.4 15.3 22.2 Z" />
<path fill="#ffffff" stroke="#ffffff" stroke-width="0.09375" opacity="1.00" d=" M 32.0 27.0 C 44.3 27.0 56.7 27.0 69.0 27.0 C 69.0 28.7 69.0 30.3 69.0 32.0 C 56.7 32.0 44.3 32.0 32.0 32.0 C 32.0 30.3 32.0 28.7 32.0 27.0 Z" />
<path fill="#ffffff" stroke="#ffffff" stroke-width="0.09375" opacity="1.00" d=" M 15.4 43.5 C 21.2 40.5 28.5 46.9 26.2 53.0 C 24.7 58.6 16.7 60.5 12.9 56.0 C 9.2 52.3 10.7 45.5 15.4 43.5 Z" />
<path fill="#ffffff" stroke="#ffffff" stroke-width="0.09375" opacity="1.00" d=" M 32.0 48.0 C 44.3 48.0 56.7 48.0 69.0 48.0 C 69.0 49.7 69.0 51.3 69.0 53.0 C 56.7 53.0 44.3 53.0 32.0 53.0 C 32.0 51.3 32.0 49.7 32.0 48.0 Z" />
</svg>
