<?xml version="1.0" encoding="UTF-8" ?>
<!DOCTYPE svg PUBLIC "-//W3C//DTD SVG 1.1//EN" "http://www.w3.org/Graphics/SVG/1.1/DTD/svg11.dtd">
<svg width="80pt" height="80pt" viewBox="0 0 80 80" version="1.1" xmlns="http://www.w3.org/2000/svg">
<path fill="#1ca966" stroke="#1ca966" stroke-width="0.09375" opacity="1.00" d=" M 6.1 0.0 L 73.9 0.0 C 75.4 0.5 76.7 1.3 77.9 2.2 C 63.4 16.6 49.1 31.2 34.5 45.5 C 31.1 41.9 27.5 38.4 24.0 34.9 C 16.0 42.9 8.0 50.9 0.0 58.9 L 0.0 6.1 C 0.8 3.1 3.1 0.8 6.1 0.0 Z" />
<path fill="#ffffff" stroke="#ffffff" stroke-width="0.09375" opacity="1.00" d=" M 34.5 45.5 C 49.1 31.2 63.4 16.6 77.9 2.2 C 78.8 3.4 79.6 4.7 80.0 6.2 L 80.0 10.4 C 64.9 25.5 49.7 40.6 34.6 55.8 C 31.1 52.2 27.6 48.7 24.0 45.1 C 16.0 53.1 8.0 61.1 0.0 69.1 L 0.0 58.9 C 8.0 50.9 16.0 42.9 24.0 34.9 C 27.5 38.4 31.1 41.9 34.5 45.5 Z" />
<path fill="#1ca966" stroke="#1ca966" stroke-width="0.09375" opacity="1.00" d=" M 34.6 55.8 C 49.7 40.6 64.9 25.5 80.0 10.4 L 80.0 73.9 C 79.2 76.9 76.9 79.2 73.8 80.0 L 6.1 80.0 C 3.1 79.2 0.8 76.9 0.0 73.9 L 0.0 69.1 C 8.0 61.1 16.0 53.1 24.0 45.1 C 27.6 48.7 31.1 52.2 34.6 55.8 Z" />
</svg>
