<?xml version="1.0" encoding="UTF-8" ?>
<!DOCTYPE svg PUBLIC "-//W3C//DTD SVG 1.1//EN" "http://www.w3.org/Graphics/SVG/1.1/DTD/svg11.dtd">
<svg width="80pt" height="80pt" viewBox="0 0 80 80" version="1.1" xmlns="http://www.w3.org/2000/svg">
<path fill="#808081" stroke="#808081" stroke-width="0.09375" opacity="1.00" d=" M 6.3 0.0 L 74.7 0.0 L 74.0 0.0 C 76.9 0.9 79.4 3.2 80.0 6.3 L 80.0 73.8 C 79.3 76.8 76.9 79.3 73.8 80.0 L 6.2 80.0 C 3.1 79.2 0.7 76.8 0.0 73.7 L 0.0 6.2 C 0.7 3.1 3.2 0.7 6.3 0.0 M 29.3 33.9 C 23.1 40.8 16.8 47.7 10.7 54.8 C 10.8 57.9 10.7 60.9 10.8 64.0 C 30.3 64.0 49.7 64.0 69.2 64.0 C 69.2 60.9 69.3 57.9 69.2 54.8 C 65.1 49.4 60.4 44.4 56.0 39.2 C 52.3 43.3 48.9 47.6 45.2 51.6 C 39.9 45.7 34.6 39.8 29.3 33.9 Z" />
<path fill="#ffffff" stroke="#ffffff" stroke-width="0.09375" opacity="1.00" d=" M 29.3 33.9 C 34.6 39.8 39.9 45.7 45.2 51.6 C 48.9 47.6 52.3 43.3 56.0 39.2 C 60.4 44.4 65.1 49.4 69.2 54.8 C 69.3 57.9 69.2 60.9 69.2 64.0 C 49.7 64.0 30.3 64.0 10.8 64.0 C 10.7 60.9 10.8 57.9 10.7 54.8 C 16.8 47.7 23.1 40.8 29.3 33.9 Z" />
</svg>
