<?xml version="1.0" encoding="UTF-8" ?>
<!DOCTYPE svg PUBLIC "-//W3C//DTD SVG 1.1//EN" "http://www.w3.org/Graphics/SVG/1.1/DTD/svg11.dtd">
<svg width="80pt" height="80pt" viewBox="0 0 80 80" version="1.1" xmlns="http://www.w3.org/2000/svg">
<path fill="#ef4f34" stroke="#ef4f34" stroke-width="0.09375" opacity="1.00" d=" M 34.4 2.3 C 36.9 1.7 40.1 2.5 40.7 5.5 C 42.4 12.2 40.2 19.2 38.8 25.8 C 41.6 34.7 47.2 43.2 55.9 47.3 C 62.3 46.8 69.1 46.0 75.2 48.6 C 79.3 49.9 78.2 56.9 74.0 57.0 C 66.8 57.6 59.6 55.5 53.1 52.4 C 43.7 53.7 34.1 54.6 25.2 58.1 C 21.2 64.6 17.3 71.6 11.0 76.1 C 8.4 77.9 5.1 77.0 3.0 74.9 C 2.5 70.4 6.1 66.9 9.1 64.1 C 12.5 61.3 16.2 59.0 20.1 57.2 C 25.7 47.4 30.7 37.1 33.5 26.1 C 31.2 19.2 29.4 11.5 32.5 4.5 C 32.9 3.6 33.6 2.9 34.4 2.3 M 35.4 7.9 C 35.1 11.5 35.1 15.2 36.4 18.6 C 36.9 14.2 39.6 9.1 36.8 4.9 C 35.7 5.4 35.7 6.9 35.4 7.9 M 27.3 54.4 C 34.1 51.6 41.3 49.7 48.5 48.4 C 43.2 44.8 39.5 39.3 36.8 33.5 C 34.5 40.9 31.0 47.7 27.3 54.4 M 60.9 50.4 C 65.3 52.4 70.1 54.2 75.1 53.7 C 74.8 52.2 73.2 51.7 71.9 51.2 C 68.3 50.4 64.5 50.0 60.9 50.4 M 17.8 61.4 C 14.3 63.3 11.7 66.3 9.3 69.3 C 8.4 70.8 7.0 72.1 7.0 73.9 C 11.9 71.1 14.9 66.1 17.8 61.4 Z" />
</svg>
