<?xml version="1.0" encoding="UTF-8" ?>
<!DOCTYPE svg PUBLIC "-//W3C//DTD SVG 1.1//EN" "http://www.w3.org/Graphics/SVG/1.1/DTD/svg11.dtd">
<svg width="80pt" height="80pt" viewBox="0 0 80 80" version="1.1" xmlns="http://www.w3.org/2000/svg">
<path fill="#f3753c" stroke="#f3753c" stroke-width="0.09375" opacity="1.00" d=" M 8.0 0.0 L 48.6 0.0 C 55.4 0.9 61.9 4.4 66.2 9.8 C 72.7 17.7 73.9 29.4 69.4 38.5 C 63.7 51.0 47.5 57.1 35.0 51.3 C 35.0 60.9 35.0 70.4 35.0 80.0 L 19.0 80.0 C 19.0 57.7 19.0 35.3 19.0 13.0 C 15.3 13.0 11.7 13.0 8.0 13.0 C 8.0 8.7 8.0 4.3 8.0 0.0 M 35.0 13.0 C 35.0 22.0 35.0 31.0 35.0 40.0 C 39.1 39.9 43.2 40.3 47.2 39.7 C 52.6 39.0 57.2 34.8 58.5 29.6 C 60.1 23.3 56.1 16.3 50.1 14.1 C 45.3 12.3 40.0 13.2 35.0 13.0 Z" />
</svg>
