<?xml version="1.0" encoding="UTF-8" ?>
<!DOCTYPE svg PUBLIC "-//W3C//DTD SVG 1.1//EN" "http://www.w3.org/Graphics/SVG/1.1/DTD/svg11.dtd">
<svg width="80pt" height="80pt" viewBox="0 0 80 80" version="1.1" xmlns="http://www.w3.org/2000/svg">
<path fill="#16a765" stroke="#16a765" stroke-width="0.09375" opacity="1.00" d=" M 6.1 0.0 L 27.0 0.0 C 27.0 9.0 27.0 18.0 27.0 27.0 C 18.0 27.0 9.0 27.0 0.0 27.0 L 0.0 6.1 C 0.9 3.1 3.1 0.9 6.1 0.0 Z" />
<path fill="#ffffff" stroke="#ffffff" stroke-width="0.09375" opacity="1.00" d=" M 27.0 0.0 L 32.0 0.0 C 32.0 9.0 32.0 18.0 32.0 27.0 C 48.0 27.0 64.0 27.0 80.0 27.0 L 80.0 32.0 C 64.0 32.0 48.0 32.0 32.0 32.0 C 32.0 48.0 32.0 64.0 32.0 80.0 L 27.0 80.0 C 27.0 64.0 27.0 48.0 27.0 32.0 C 18.0 32.0 9.0 32.0 0.0 32.0 L 0.0 27.0 C 9.0 27.0 18.0 27.0 27.0 27.0 C 27.0 18.0 27.0 9.0 27.0 0.0 Z" />
<path fill="#16a765" stroke="#16a765" stroke-width="0.09375" opacity="1.00" d=" M 32.0 0.0 L 73.9 0.0 C 76.9 0.9 79.1 3.1 80.0 6.1 L 80.0 27.0 C 64.0 27.0 48.0 27.0 32.0 27.0 C 32.0 18.0 32.0 9.0 32.0 0.0 Z" />
<path fill="#16a765" stroke="#16a765" stroke-width="0.09375" opacity="1.00" d=" M 0.0 32.0 C 9.0 32.0 18.0 32.0 27.0 32.0 C 27.0 48.0 27.0 64.0 27.0 80.0 L 6.1 80.0 C 3.1 79.1 0.9 76.9 0.0 73.9 L 0.0 32.0 Z" />
<path fill="#16a765" stroke="#16a765" stroke-width="0.09375" opacity="1.00" d=" M 32.0 32.0 C 48.0 32.0 64.0 32.0 80.0 32.0 L 80.0 73.9 C 79.1 76.9 76.9 79.1 73.9 80.0 L 32.0 80.0 C 32.0 64.0 32.0 48.0 32.0 32.0 Z" />
</svg>
