<?xml version="1.0" encoding="UTF-8" ?>
<!DOCTYPE svg PUBLIC "-//W3C//DTD SVG 1.1//EN" "http://www.w3.org/Graphics/SVG/1.1/DTD/svg11.dtd">
<svg width="120pt" height="120pt" viewBox="0 0 120 120" version="1.1" xmlns="http://www.w3.org/2000/svg">
<path fill="#6f6db2" stroke="#6f6db2" stroke-width="0.09375" opacity="1.00" d=" M 9.8 0.0 L 110.1 0.0 C 115.0 0.9 119.0 4.9 120.0 9.8 L 120.0 110.1 C 119.1 115.0 115.1 119.0 110.2 120.0 L 9.9 120.0 C 5.0 119.1 1.0 115.1 0.0 110.2 L 0.0 9.9 C 0.9 5.0 4.9 1.0 9.8 0.0 M 17.0 16.0 C 17.0 21.3 17.0 26.7 17.0 32.0 C 45.7 32.0 74.3 32.0 103.0 32.0 C 103.0 26.7 103.0 21.3 103.0 16.0 C 74.3 16.0 45.7 16.0 17.0 16.0 M 17.0 39.0 C 17.0 60.7 17.0 82.3 17.0 104.0 C 37.7 104.0 58.3 104.0 79.0 104.0 C 79.0 82.3 79.0 60.7 79.0 39.0 C 58.3 39.0 37.7 39.0 17.0 39.0 M 87.0 39.0 C 87.0 60.7 87.0 82.3 87.0 104.0 C 92.3 104.0 97.7 104.0 103.0 104.0 C 103.0 82.3 103.0 60.7 103.0 39.0 C 97.7 39.0 92.3 39.0 87.0 39.0 Z" />
</svg>
