<?xml version="1.0" encoding="UTF-8" ?>
<!DOCTYPE svg PUBLIC "-//W3C//DTD SVG 1.1//EN" "http://www.w3.org/Graphics/SVG/1.1/DTD/svg11.dtd">
<svg width="80pt" height="76pt" viewBox="0 0 80 76" version="1.1" xmlns="http://www.w3.org/2000/svg">
<path fill="#818283" stroke="#818283" stroke-width="0.09375" opacity="1.00" d=" M 4.3 0.0 L 5.5 0.0 C 9.2 5.3 12.7 10.6 16.2 16.0 C 10.8 16.0 5.4 16.0 0.0 16.0 L 0.0 4.6 C 0.7 2.5 2.3 0.9 4.3 0.0 Z" />
<path fill="#ffffff" stroke="#ffffff" stroke-width="0.09375" opacity="1.00" d=" M 5.5 0.0 L 15.7 0.0 C 19.3 5.3 22.9 10.6 26.3 16.0 C 31.9 16.0 37.4 16.0 42.9 16.0 C 39.3 10.7 35.9 5.2 32.1 0.0 L 42.5 0.0 C 46.1 5.2 49.5 10.7 53.1 16.0 C 58.5 16.0 64.0 16.0 69.4 16.0 C 65.9 10.6 62.5 5.2 58.8 0.0 L 69.1 0.0 C 72.7 5.4 76.4 10.9 80.0 16.4 L 80.0 22.0 C 53.3 22.0 26.7 22.0 0.0 22.0 L 0.0 16.0 C 5.4 16.0 10.8 16.0 16.2 16.0 C 12.7 10.6 9.2 5.3 5.5 0.0 Z" />
<path fill="#818283" stroke="#818283" stroke-width="0.09375" opacity="1.00" d=" M 15.7 0.0 L 32.1 0.0 C 35.9 5.2 39.3 10.7 42.9 16.0 C 37.4 16.0 31.9 16.0 26.3 16.0 C 22.9 10.6 19.3 5.3 15.7 0.0 Z" />
<path fill="#818283" stroke="#818283" stroke-width="0.09375" opacity="1.00" d=" M 42.5 0.0 L 58.8 0.0 C 62.5 5.2 65.9 10.6 69.4 16.0 C 64.0 16.0 58.5 16.0 53.1 16.0 C 49.5 10.7 46.1 5.2 42.5 0.0 Z" />
<path fill="#818283" stroke="#818283" stroke-width="0.09375" opacity="1.00" d=" M 69.1 0.0 L 80.0 0.0 L 80.0 16.4 C 76.4 10.9 72.7 5.4 69.1 0.0 Z" />
<path fill="#818283" stroke="#818283" stroke-width="0.09375" opacity="1.00" d=" M 0.0 22.0 C 26.7 22.0 53.3 22.0 80.0 22.0 L 80.0 71.5 C 79.2 73.5 77.6 75.1 75.6 76.0 L 4.5 76.0 C 2.5 75.2 0.9 73.6 0.0 71.6 L 0.0 22.0 M 11.0 32.0 C 11.0 34.0 11.0 36.0 11.0 38.0 C 30.3 38.0 49.7 38.0 69.0 38.0 C 69.0 36.0 69.0 34.0 69.0 32.0 C 49.7 32.0 30.3 32.0 11.0 32.0 Z" />
<path fill="#ffffff" stroke="#ffffff" stroke-width="0.09375" opacity="1.00" d=" M 11.0 32.0 C 30.3 32.0 49.7 32.0 69.0 32.0 C 69.0 34.0 69.0 36.0 69.0 38.0 C 49.7 38.0 30.3 38.0 11.0 38.0 C 11.0 36.0 11.0 34.0 11.0 32.0 Z" />
</svg>
