<?xml version="1.0" encoding="UTF-8" ?>
<!DOCTYPE svg PUBLIC "-//W3C//DTD SVG 1.1//EN" "http://www.w3.org/Graphics/SVG/1.1/DTD/svg11.dtd">
<svg width="80pt" height="80pt" viewBox="0 0 80 80" version="1.1" xmlns="http://www.w3.org/2000/svg">
<path fill="#5680c0" stroke="#5680c0" stroke-width="0.09375" opacity="1.00" d=" M 0.0 0.0 L 13.5 0.0 C 17.1 18.2 20.3 36.4 24.0 54.6 C 27.8 36.4 30.9 18.2 34.6 0.0 L 45.5 0.0 C 49.1 18.2 52.2 36.6 56.1 54.8 C 59.5 40.2 62.7 25.6 66.0 11.0 C 61.7 11.0 57.3 11.0 53.0 11.0 C 53.0 7.3 53.0 3.7 53.0 0.0 L 80.0 0.0 L 80.0 0.9 C 73.7 27.2 67.7 53.7 61.5 80.0 L 50.5 80.0 C 47.0 62.6 43.7 45.1 40.0 27.7 C 36.3 45.1 33.1 62.6 29.4 80.0 L 18.5 80.0 C 12.3 53.7 6.4 27.3 0.0 1.1 L 0.0 0.0 Z" />
</svg>
