<?xml version="1.0" encoding="UTF-8"?>
<svg xmlns="http://www.w3.org/2000/svg" xmlns:xlink="http://www.w3.org/1999/xlink" contentScriptType="text/ecmascript" width="84" baseProfile="tiny" zoomAndPan="magnify" contentStyleType="text/css" viewBox="0 0 84 58.001" height="58.001" preserveAspectRatio="xMidYMid meet" version="1.0">
    <defs>
        <radialGradient gradientTransform="matrix(-2.774389,0,0,1.969706,112.7623,-872.8854)" id="radialGradient6719" gradientUnits="userSpaceOnUse" xlink:show="other" xlink:type="simple" r="117.14286" cx="605.71429" fx="605.71429" cy="486.64789" fy="486.64789" xlink:actuate="onLoad">
            <stop stop-opacity="1" stop-color="#000000" offset="0"/>
            <stop stop-opacity="0" stop-color="#000000" offset="1"/>
        </radialGradient>
        <linearGradient xlink:type="simple" xlink:actuate="onLoad" xlink:show="other">
            <stop stop-opacity="1" stop-color="#000000" offset="0"/>
            <stop stop-opacity="0" stop-color="#000000" offset="1"/>
        </linearGradient>
        <radialGradient gradientTransform="matrix(2.774389,0,0,1.969706,-1891.633,-872.8854)" id="radialGradient6717" gradientUnits="userSpaceOnUse" xlink:show="other" xlink:type="simple" r="117.14286" cx="605.71429" fx="605.71429" cy="486.64789" fy="486.64789" xlink:actuate="onLoad">
            <stop stop-opacity="1" stop-color="#000000" offset="0"/>
            <stop stop-opacity="0" stop-color="#000000" offset="1"/>
        </radialGradient>
        <linearGradient xlink:type="simple" xlink:actuate="onLoad" xlink:show="other">
            <stop stop-opacity="0" stop-color="#000000" offset="0"/>
            <stop stop-opacity="1" stop-color="#000000" offset="0.5"/>
            <stop stop-opacity="0" stop-color="#000000" offset="1"/>
        </linearGradient>
        <linearGradient x1="302.85715" gradientTransform="matrix(2.774389,0,0,1.969706,-1892.179,-872.8854)" y1="366.64789" x2="302.85715" gradientUnits="userSpaceOnUse" y2="609.50507" xlink:type="simple" xlink:actuate="onLoad" id="linearGradient6715" xlink:show="other">
            <stop stop-opacity="0" stop-color="#000000" offset="0"/>
            <stop stop-opacity="1" stop-color="#000000" offset="0.5"/>
            <stop stop-opacity="0" stop-color="#000000" offset="1"/>
        </linearGradient>
        <linearGradient xlink:type="simple" xlink:actuate="onLoad" xlink:show="other">
            <stop stop-opacity="1" stop-color="#000000" offset="0"/>
            <stop stop-opacity="0" stop-color="#000000" offset="1"/>
        </linearGradient>
        <linearGradient xlink:type="simple" xlink:actuate="onLoad" xlink:show="other">
            <stop stop-opacity="1" stop-color="#6194cb" offset="0"/>
            <stop stop-opacity="1" stop-color="#729fcf" offset="1"/>
        </linearGradient>
        <linearGradient xlink:type="simple" xlink:actuate="onLoad" xlink:show="other">
            <stop stop-opacity="1" stop-color="#424242" offset="0"/>
            <stop stop-opacity="1.0000000" stop-color="#777777" offset="1.0000000"/>
        </linearGradient>
        <linearGradient xlink:type="simple" xlink:actuate="onLoad" xlink:show="other">
            <stop stop-opacity="1" stop-color="#ffffff" offset="0"/>
            <stop stop-opacity="0" stop-color="#ffffff" offset="1"/>
        </linearGradient>
        <linearGradient xlink:type="simple" xlink:actuate="onLoad" xlink:show="other">
            <stop stop-opacity="1.0000000" stop-color="#202020" offset="0.0000000"/>
            <stop stop-opacity="1.0000000" stop-color="#b9b9b9" offset="1.0000000"/>
        </linearGradient>
        <radialGradient gradientTransform="matrix(1.055022,-2.734504e-2,0.177703,1.190929,-3.572177,-7.125301)" id="radialGradient238" gradientUnits="userSpaceOnUse" xlink:show="other" xlink:type="simple" r="30.905205" cx="20.706017" fx="20.706017" cy="37.517986" fy="37.517986" xlink:actuate="onLoad">
            <stop stop-opacity="1.0000000" stop-color="#202020" offset="0.0000000"/>
            <stop stop-opacity="1.0000000" stop-color="#b9b9b9" offset="1.0000000"/>
        </radialGradient>
        <linearGradient xlink:type="simple" xlink:actuate="onLoad" xlink:show="other">
            <stop stop-opacity="0.87628865" stop-color="#ffffff" offset="0.0000000"/>
            <stop stop-opacity="0.0000000" stop-color="#fffffe" offset="1.0000000"/>
        </linearGradient>
        <linearGradient x1="6.2297964" gradientTransform="matrix(1.516844,0,0,0.708978,-0.879573,-1.318166)" y1="13.773066" x2="9.8980894" gradientUnits="userSpaceOnUse" y2="66.834053" xlink:type="simple" xlink:actuate="onLoad" id="linearGradient491" xlink:show="other">
            <stop stop-opacity="0.87628865" stop-color="#ffffff" offset="0.0000000"/>
            <stop stop-opacity="0.0000000" stop-color="#fffffe" offset="1.0000000"/>
        </linearGradient>
        <linearGradient x1="13.035696" gradientTransform="matrix(1.317489,0,0,0.816256,-0.879573,-1.3181659)" y1="32.567184" x2="12.853771" gradientUnits="userSpaceOnUse" y2="46.689312" xlink:type="simple" xlink:actuate="onLoad" id="linearGradient322" xlink:show="other">
            <stop stop-opacity="0.35051546" stop-color="#ffffff" offset="0"/>
            <stop stop-opacity="0" stop-color="#ffffff" offset="1"/>
        </linearGradient>
        <linearGradient x1="18.112709" y1="31.36775" x2="15.514889" gradientUnits="userSpaceOnUse" y2="6.1802502" xlink:type="simple" xlink:actuate="onLoad" id="linearGradient3104" xlink:show="other">
            <stop stop-opacity="1" stop-color="#424242" offset="0"/>
            <stop stop-opacity="1.0000000" stop-color="#777777" offset="1.0000000"/>
        </linearGradient>
        <linearGradient x1="22.175976" y1="36.987999" x2="22.065331" gradientUnits="userSpaceOnUse" y2="32.050499" xlink:type="simple" xlink:actuate="onLoad" id="linearGradient9772" xlink:show="other">
            <stop stop-opacity="1" stop-color="#6194cb" offset="0"/>
            <stop stop-opacity="1" stop-color="#729fcf" offset="1"/>
        </linearGradient>
        <radialGradient gradientTransform="matrix(1,0,0,0.242494,0,31.50606)" gradientUnits="userSpaceOnUse" xlink:type="simple" r="19.136078" xlink:actuate="onLoad" cx="24.35099" cy="41.591846" xlink:show="other" fx="24.35099" fy="41.591846">
            <stop stop-opacity="1" stop-color="#000000" offset="0"/>
            <stop stop-opacity="0" stop-color="#000000" offset="1"/>
        </radialGradient>
        <linearGradient gradientTransform="matrix(1.317489,0,0,0.816256,-0.879573,-1.3181659)" id="linearGradient3259" gradientUnits="userSpaceOnUse" xlink:show="other" xlink:type="simple" x1="13.035696" y1="32.567184" y2="46.689312" x2="12.853771" xlink:actuate="onLoad">
            <stop stop-opacity="0.35051546" stop-color="#ffffff" offset="0"/>
            <stop stop-opacity="0" stop-color="#ffffff" offset="1"/>
        </linearGradient>
        <linearGradient gradientTransform="translate(14.717915,0)" id="linearGradient3104" gradientUnits="userSpaceOnUse" xlink:show="other" xlink:type="simple" x1="18.112709" y1="31.36775" x2="15.514889" y2="6.1802502" xlink:actuate="onLoad">
            <stop stop-opacity="1" stop-color="#424242" offset="0"/>
            <stop stop-opacity="1.0000000" stop-color="#777777" offset="1.0000000"/>
        </linearGradient>
        <linearGradient x1="18.112709" y1="31.36775" x2="15.514889" gradientUnits="userSpaceOnUse" y2="6.1802502" xlink:type="simple" xlink:actuate="onLoad" id="linearGradient3272" xlink:show="other">
            <stop stop-opacity="1" stop-color="#424242" offset="0"/>
            <stop stop-opacity="1.0000000" stop-color="#777777" offset="1.0000000"/>
        </linearGradient>
    </defs>
    <g transform="matrix(1.3588881,0,0,1.3588881,10.544356,-2.2805824)">
        <g>
            <g transform="matrix(2.262383e-2,0,0,2.086758e-2,43.38343,36.36962)" display="inline">
                <rect fill-opacity="0.40206185" display="inline" stroke="none" visibility="visible" stroke-linecap="round" width="1339.6335" stroke-miterlimit="4" stroke-opacity="1" fill="url(#linearGradient6715)" stroke-dasharray="none" stroke-width="1" color="#000000" height="478.35718" x="-1559.2523" stroke-linejoin="miter" y="-150.69685" stroke-dashoffset="0" fill-rule="nonzero"/>
                <path fill-opacity="0.40206185" display="inline" stroke="none" d="M -219.61876 -150.68037 C -219.61876 -150.68037 -219.61876 327.6504 -219.61876 327.6504 C -76.74459 328.55087 125.78146 220.48076 125.78138 88.45424 C 125.78138 -43.572304 -33.655437 -150.68036 -219.61876 -150.68037 z " visibility="visible" stroke-linecap="round" stroke-miterlimit="4" stroke-opacity="1" fill="url(#radialGradient6717)" stroke-dasharray="none" stroke-width="1" color="#000000" stroke-linejoin="miter" stroke-dashoffset="0" fill-rule="nonzero"/>
                <path fill-opacity="0.40206185" display="inline" stroke="none" d="M -1559.2523 -150.68037 C -1559.2523 -150.68037 -1559.2523 327.6504 -1559.2523 327.6504 C -1702.1263 328.55087 -1904.6523 220.48076 -1904.6523 88.45424 C -1904.6523 -43.572304 -1745.2156 -150.68036 -1559.2523 -150.68037 z " visibility="visible" stroke-linecap="round" stroke-miterlimit="4" stroke-opacity="1" fill="url(#radialGradient6719)" stroke-dasharray="none" stroke-width="1" color="#000000" stroke-linejoin="miter" stroke-dashoffset="0" fill-rule="nonzero"/>
            </g>
            <path stroke-linecap="round" fill-opacity="1" fill="url(#radialGradient238)" fill-rule="nonzero" stroke-linejoin="round" stroke-dasharray="none" d="M 4.5217805 38.687416 C 4.5435767 39.10372 4.9816856 39.520023 5.39799 39.520023 L 36.725018 39.520023 C 37.14131 39.520023 37.535824 39.10372 37.514027 38.687416 L 36.577583 11.460682 C 36.555782 11.044379 36.117687 10.628066 35.701385 10.628066 L 22.43051 10.628066 C 21.945452 10.628066 21.196035 10.312477 21.028866 9.521434 L 20.417477 6.6283627 C 20.262009 5.8926897 19.53526 5.590477 19.118956 5.590477 L 4.3400974 5.590477 C 3.9237847 5.590477 3.5292768 6.0067806 3.5510728 6.4230847 L 4.5217805 38.687416 z " stroke="none" stroke-width="1" stroke-opacity="1" stroke-miterlimit="4"/>
            <path fill-opacity="0.45142858" display="block" stroke="none" d="M 6.068343 38.864025 C 6.084686 39.17625 5.8874316 39.3844 5.5697584 39.280327 L 5.5697584 39.280327 C 5.2520766 39.17625 5.033027 38.9681 5.0166755 38.65587 L 4.068956 6.591384 C 4.0526133 6.279156 4.234142 6.0906134 4.54637 6.0906134 L 18.96842 6.0429196 C 19.280647 6.0429196 19.900364 6.3433924 20.101357 7.365102 L 20.674845 10.180636 C 20.247791 9.715379 20.255651 9.701017 20.037289 9.02393 L 19.631191 7.764748 C 19.412142 7.037101 18.932993 6.932848 18.620764 6.932848 L 5.732989 6.932848 C 5.420761 6.932848 5.2235074 7.141 5.2398586 7.4532366 L 6.1778636 38.9681 L 6.068343 38.864025 z " visibility="visible" stroke-linecap="butt" stroke-miterlimit="4" stroke-opacity="1" fill="url(#linearGradient491)" stroke-width="1.21380496" color="#000000" stroke-linejoin="miter" stroke-dashoffset="0" fill-rule="nonzero"/>
            <path stroke-linecap="round" fill-opacity="1" fill="url(#linearGradient3272)" fill-rule="nonzero" stroke-linejoin="round" d="M 4.3445845 5.09375 C 3.9697657 5.09375 3.6355617 5.2589025 3.4070845 5.5 C 3.1786077 5.7410975 3.0437465 6.0633645 3.0633345 6.4375 L 4.0320845 38.6875 C 4.0317583 38.69791 4.0317583 38.708336 4.0320845 38.71875 C 4.0516725 39.09289 4.2288566 39.39625 4.4695845 39.625 C 4.7103124 39.85375 5.0322666 40.03125 5.4070845 40.03125 L 36.719585 40.03125 C 37.0944 40.03125 37.42861 39.834846 37.657085 39.59375 C 37.88556 39.352657 38.020424 39.030388 38.000835 38.65625 L 37.063335 11.4375 C 37.043743 11.063369 36.86656 10.760002 36.625835 10.53125 C 36.385113 10.302498 36.063156 10.125 35.688335 10.125 L 22.438335 10.125 C 22.304241 10.125 22.054665 10.086986 21.875835 9.96875 C 21.697008 9.850513 21.5872 9.667051 21.532084 9.40625 L 20.907084 6.53125 C 20.799627 6.0227637 20.496948 5.6311345 20.157084 5.40625 C 19.81722 5.1813655 19.454975 5.09375 19.125835 5.09375 L 4.3445845 5.09375 z M 4.3445845 6.09375 L 19.125835 6.09375 C 19.212996 6.09375 19.428131 6.13986 19.594584 6.25 C 19.761038 6.36014 19.890324 6.4915633 19.938335 6.71875 L 20.532084 9.625 C 20.64414 10.155242 20.985647 10.543931 21.344584 10.78125 C 21.703522 11.018569 22.087368 11.125 22.438335 11.125 L 35.688335 11.125 C 35.729816 11.125 35.850483 11.166519 35.938335 11.25 C 36.026184 11.333481 36.061127 11.457828 36.063335 11.5 L 37.000835 38.71875 C 37.003044 38.760918 36.97449 38.83512 36.907085 38.90625 C 36.839676 38.977383 36.76106 39.03125 36.719585 39.03125 L 5.4070845 39.03125 C 5.365598 39.03125 5.2449355 38.989727 5.1570845 38.90625 C 5.078018 38.83112 5.0418086 38.736885 5.0320845 38.6875 L 4.0633345 6.40625 C 4.061126 6.3640814 4.089678 6.2586303 4.1570845 6.1875 C 4.2244916 6.1163697 4.3030906 6.09375 4.3445845 6.09375 z " stroke="none" stroke-width="1" stroke-opacity="1" stroke-miterlimit="4"/>
            <g transform="matrix(1.040764,0,5.449252e-2,1.040764,-8.670199,2.670594)" fill-opacity="0.75706213" fill="#ffffff" fill-rule="nonzero" stroke="none" stroke-width="0.99946535" stroke-miterlimit="4">
                <path fill="#ffffff" d="M 42.417183 8.515178 C 42.422268 8.418064 42.289024 8.268189 42.182064 8.268172 L 29.150663 8.266053 C 29.150663 8.266053 30.06238 8.854007 31.352476 8.862296 L 42.405975 8.933317 C 42.41706 8.721589 42.408695 8.677285 42.417183 8.515178 z " fill-opacity="0.50847461"/>
            </g>
            <path fill-opacity="1" display="block" stroke="#3465a4" d="M 39.78353 39.51062 C 40.927425 39.466557 41.74661 38.41432 41.830566 37.189617 C 42.622353 25.640928 43.48993 15.957666 43.48993 15.957666 C 43.56208 15.710182 43.322018 15.462699 43.00979 15.462699 L 8.638631 15.462699 C 8.638631 15.462699 6.788311 37.329594 6.788311 37.329594 C 6.673756 38.311657 6.322304 39.134308 5.238476 39.513306 L 39.78353 39.51062 z " visibility="visible" stroke-linecap="butt" stroke-miterlimit="4" stroke-opacity="1" fill="url(#linearGradient9772)" stroke-dasharray="none" stroke-width="0.68904287" color="#000000" stroke-linejoin="round" stroke-dashoffset="0" fill-rule="nonzero"/>
            <path stroke-linecap="round" fill-opacity="1" fill="url(#linearGradient3259)" fill-rule="evenodd" stroke-linejoin="miter" d="M 9.15625 15.96875 L 9.125 16.4375 L 7.40625 36.875 C 7.40558 36.882996 7.3909664 37.006073 7.34375 37.1875 C 7.2965336 37.368927 7.195885 37.570568 7.15625 37.625 L 6.59375 38.4375 L 7.5625 38.4375 C 10.275298 38.4375 37.091476 38.46875 38.96875 38.46875 C 39.721546 38.46875 40.286705 38.37567 40.71875 38.03125 C 41.150795 37.68683 41.29749 37.150387 41.34375 36.5625 L 42.90625 16.5625 L 42.9375 16.03125 L 42.40625 16.03125 L 9.625 15.96875 L 9.15625 15.96875 z M 10.09375 16.96875 L 41.875 17.03125 L 40.34375 36.5 C 40.30569 36.983624 40.221455 37.148193 40.09375 37.25 C 39.96604 37.351807 39.63793 37.46875 38.96875 37.46875 C 37.147575 37.46875 12.063958 37.438976 8.3125 37.4375 C 8.374097 37.20082 8.40558 36.976746 8.40625 36.96875 L 10.09375 16.96875 z " stroke="none" stroke-width="0.9999997px" stroke-opacity="1"/>
            <path stroke-linecap="butt" fill-opacity="0.0892857" fill="#ffffff" fill-rule="evenodd" stroke-linejoin="miter" d="M 9.620248 16.223183 L 8.453602 31.866451 C 8.453602 31.866451 16.749756 27.718376 27.119947 27.718376 C 37.490143 27.718376 42.67524 16.223183 42.67524 16.223183 L 9.620248 16.223183 z " stroke="none" stroke-width="1px" stroke-opacity="1"/>
        </g>
    </g>
</svg>
