<?xml version="1.0" encoding="UTF-8"?>
<svg xmlns="http://www.w3.org/2000/svg" xmlns:xlink="http://www.w3.org/1999/xlink" contentScriptType="text/ecmascript" width="88" baseProfile="tiny" zoomAndPan="magnify" contentStyleType="text/css" viewBox="0 0 88 88" height="88" preserveAspectRatio="xMidYMid meet" version="1.0">
    <defs>
        <linearGradient x1="-45.552807" y1="29.716238" x2="-25.763968" gradientUnits="userSpaceOnUse" y2="29.716238" xlink:type="simple" xlink:actuate="onLoad" id="linearGradient12483" xlink:show="other">
            <stop stop-opacity="1" stop-color="#aa9409" offset="0"/>
            <stop stop-opacity="1" stop-color="#e8cf00" offset="1"/>
        </linearGradient>
        <linearGradient xlink:type="simple" xlink:actuate="onLoad" xlink:show="other">
            <stop stop-opacity="1" stop-color="#aa9409" offset="0"/>
            <stop stop-opacity="1" stop-color="#e8cf00" offset="1"/>
        </linearGradient>
        <linearGradient x1="7.9508877" gradientTransform="matrix(0.9130932,0,0,0.6861297,29.108088,1.6685064)" y1="33.446442" x2="16.33275" gradientUnits="userSpaceOnUse" y2="37.376461" xlink:type="simple" xlink:actuate="onLoad" id="linearGradient12481" xlink:show="other">
            <stop stop-opacity="1" stop-color="#ffef81" offset="0"/>
            <stop stop-opacity="1" stop-color="#ebd52c" offset="0.5"/>
            <stop stop-opacity="1" stop-color="#dcc406" offset="1"/>
        </linearGradient>
        <linearGradient xlink:type="simple" xlink:actuate="onLoad" xlink:show="other">
            <stop stop-opacity="1" stop-color="#ffef81" offset="0"/>
            <stop stop-opacity="1" stop-color="#ebd52c" offset="0.5"/>
            <stop stop-opacity="1" stop-color="#dcc406" offset="1"/>
        </linearGradient>
        <linearGradient x1="48.145096" y1="15.226564" x2="1.6248673" gradientUnits="userSpaceOnUse" y2="0.059778176" xlink:type="simple" xlink:actuate="onLoad" xlink:show="other">
            <stop stop-opacity="1" stop-color="#ffffff" offset="0"/>
            <stop stop-opacity="0" stop-color="#ffffff" offset="1"/>
        </linearGradient>
        <linearGradient xlink:type="simple" xlink:actuate="onLoad" xlink:show="other">
            <stop stop-opacity="1" stop-color="#ffffff" offset="0"/>
            <stop stop-opacity="0" stop-color="#ffffff" offset="1"/>
        </linearGradient>
        <radialGradient gradientTransform="matrix(0.7622644,-0.1496634,2.0517737e-2,0.1339987,0.4926004,11.188696)" id="radialGradient12437" gradientUnits="userSpaceOnUse" xlink:show="other" xlink:type="simple" r="24.5" cx="21.705378" fx="21.705378" cy="10.688986" fy="10.688986" xlink:actuate="onLoad">
            <stop stop-opacity="1" stop-color="#ffef81" offset="0"/>
            <stop stop-opacity="1" stop-color="#ebd52c" offset="0.5"/>
            <stop stop-opacity="1" stop-color="#dcc406" offset="1"/>
        </radialGradient>
        <linearGradient x1="39.377171" gradientTransform="matrix(1.3593566,0,0,0.8070094,-18.953081,-1.2960381)" y1="45.968449" x2="18.916845" gradientUnits="userSpaceOnUse" y2="7.8910117" xlink:type="simple" xlink:actuate="onLoad" xlink:show="other">
            <stop stop-opacity="1" stop-color="#ffffff" offset="0"/>
            <stop stop-opacity="0" stop-color="#ffffff" offset="1"/>
        </linearGradient>
        <radialGradient gradientTransform="matrix(1.3430553,-0.3689581,0.4529539,0.7554643,-38.585964,12.277946)" id="radialGradient12443" gradientUnits="userSpaceOnUse" xlink:show="other" xlink:type="simple" r="13.5" cx="27.997972" fx="27.997972" cy="46.120361" fy="46.120361" xlink:actuate="onLoad">
            <stop stop-opacity="1" stop-color="#ffef81" offset="0"/>
            <stop stop-opacity="1" stop-color="#ebd52c" offset="0.5"/>
            <stop stop-opacity="1" stop-color="#dcc406" offset="1"/>
        </radialGradient>
        <linearGradient x1="-35.122688" y1="34.242237" x2="-35.074745" gradientUnits="userSpaceOnUse" y2="30.962345" xlink:type="simple" xlink:actuate="onLoad" xlink:show="other">
            <stop stop-opacity="1.0000000" stop-color="#ffffff" offset="0.0000000"/>
            <stop stop-opacity="0.0000000" stop-color="#ffffff" offset="1.0000000"/>
        </linearGradient>
        <linearGradient xlink:type="simple" xlink:actuate="onLoad" xlink:show="other">
            <stop stop-opacity="1.0000000" stop-color="#ffffff" offset="0.0000000"/>
            <stop stop-opacity="0.0000000" stop-color="#ffffff" offset="1.0000000"/>
        </linearGradient>
        <linearGradient x1="-35.658386" y1="33.416473" x2="-35.658386" gradientUnits="userSpaceOnUse" y2="28.205938" xlink:type="simple" xlink:actuate="onLoad" id="linearGradient12489" xlink:show="other">
            <stop stop-opacity="1" stop-color="#bca301" offset="0"/>
            <stop stop-opacity="0" stop-color="#fee964" offset="1"/>
        </linearGradient>
        <linearGradient xlink:type="simple" xlink:actuate="onLoad" xlink:show="other">
            <stop stop-opacity="1" stop-color="#bca301" offset="0"/>
            <stop stop-opacity="0" stop-color="#fee964" offset="1"/>
        </linearGradient>
        <linearGradient x1="-45.552807" y1="29.716238" x2="-25.763968" gradientUnits="userSpaceOnUse" y2="29.716238" xlink:type="simple" xlink:actuate="onLoad" id="linearGradient12469" xlink:show="other">
            <stop stop-opacity="1" stop-color="#aa9409" offset="0"/>
            <stop stop-opacity="1" stop-color="#e8cf00" offset="1"/>
        </linearGradient>
        <linearGradient x1="7.9508877" gradientTransform="matrix(0.9130932,0,0,0.6861297,-1.5736086,1.6685064)" y1="33.446442" x2="16.33275" gradientUnits="userSpaceOnUse" y2="37.376461" xlink:type="simple" xlink:actuate="onLoad" id="linearGradient12459" xlink:show="other">
            <stop stop-opacity="1" stop-color="#ffef81" offset="0"/>
            <stop stop-opacity="1" stop-color="#ebd52c" offset="0.5"/>
            <stop stop-opacity="1" stop-color="#dcc406" offset="1"/>
        </linearGradient>
        <radialGradient gradientTransform="matrix(1,0,0,0.351613,0,16.55413)" id="radialGradient12491" gradientUnits="userSpaceOnUse" xlink:show="other" xlink:type="simple" r="9.6875" cx="17.3125" fx="17.3125" cy="25.53125" fy="25.53125" xlink:actuate="onLoad">
            <stop stop-opacity="1" stop-color="#000000" offset="0"/>
            <stop stop-opacity="0" stop-color="#000000" offset="1"/>
        </radialGradient>
        <linearGradient xlink:type="simple" xlink:actuate="onLoad" xlink:show="other">
            <stop stop-opacity="1" stop-color="#000000" offset="0"/>
            <stop stop-opacity="0" stop-color="#000000" offset="1"/>
        </linearGradient>
        <radialGradient gradientTransform="matrix(1,0,0,0.351613,0,16.55413)" id="radialGradient12493" gradientUnits="userSpaceOnUse" xlink:show="other" xlink:type="simple" r="9.6875" cx="17.3125" fx="17.3125" cy="25.53125" fy="25.53125" xlink:actuate="onLoad">
            <stop stop-opacity="1" stop-color="#000000" offset="0"/>
            <stop stop-opacity="0" stop-color="#000000" offset="1"/>
        </radialGradient>
        <radialGradient gradientTransform="matrix(1,0,0,0.351613,0,16.55413)" id="radialGradient11965" gradientUnits="userSpaceOnUse" xlink:show="other" xlink:type="simple" r="9.6875" cx="17.3125" fx="17.3125" cy="25.53125" fy="25.53125" xlink:actuate="onLoad">
            <stop stop-opacity="1" stop-color="#000000" offset="0"/>
            <stop stop-opacity="0" stop-color="#000000" offset="1"/>
        </radialGradient>
        <linearGradient x1="48.145096" gradientTransform="matrix(0.9299057,0,0,1.1131719,2.294547,-2.4662939)" y1="15.226564" x2="1.6248673" gradientUnits="userSpaceOnUse" y2="0.059778176" xlink:type="simple" xlink:actuate="onLoad" id="linearGradient3280" xlink:show="other">
            <stop stop-opacity="1" stop-color="#ffffff" offset="0"/>
            <stop stop-opacity="0" stop-color="#ffffff" offset="1"/>
        </linearGradient>
        <linearGradient x1="39.377171" gradientTransform="matrix(1.3593566,0,0,0.8070094,-18.953081,-1.2960381)" y1="45.968449" x2="18.916845" gradientUnits="userSpaceOnUse" y2="7.8910117" xlink:type="simple" xlink:actuate="onLoad" id="linearGradient3287" xlink:show="other">
            <stop stop-opacity="1" stop-color="#ffffff" offset="0"/>
            <stop stop-opacity="0" stop-color="#ffffff" offset="1"/>
        </linearGradient>
        <linearGradient x1="-35.122688" gradientTransform="matrix(0.8653695,0,0,0.8954562,55.047597,7.208536)" y1="34.242237" x2="-35.074745" gradientUnits="userSpaceOnUse" y2="30.962345" xlink:type="simple" xlink:actuate="onLoad" id="linearGradient3294" xlink:show="other">
            <stop stop-opacity="1.0000000" stop-color="#ffffff" offset="0.0000000"/>
            <stop stop-opacity="0.0000000" stop-color="#ffffff" offset="1.0000000"/>
        </linearGradient>
        <linearGradient gradientTransform="matrix(0.9323477,0,0,0.8691961,57.779027,9.163766)" id="linearGradient3301" gradientUnits="userSpaceOnUse" xlink:show="other" xlink:type="simple" x1="-35.658386" y1="33.416473" y2="28.205938" x2="-35.658386" xlink:actuate="onLoad">
            <stop stop-opacity="1" stop-color="#bca301" offset="0"/>
            <stop stop-opacity="0" stop-color="#fee964" offset="1"/>
        </linearGradient>
    </defs>
    <g transform="matrix(1.6415298,0,0,1.6415298,3.0855342,9.2343357)">
        <path fill-opacity="0.41000001" display="inline" stroke="none" d="M 27.0 25.53125 C 27.0 27.41247 22.662758 28.9375 17.3125 28.9375 C 11.962241 28.9375 7.625 27.41247 7.625 25.53125 C 7.625 23.65003 11.962241 22.125 17.3125 22.125 C 22.662758 22.125 27.0 23.65003 27.0 25.53125 z " visibility="visible" stroke-linecap="butt" transform="matrix(1.6753859,0,0,2.0349641,-5.0145656,-16.886774)" stroke-miterlimit="4" stroke-opacity="1" fill="url(#radialGradient11965)" stroke-dasharray="none" stroke-width="1.10533953" color="#000000" stroke-linejoin="miter" stroke-dashoffset="0" fill-rule="nonzero"/>
        <path fill-opacity="0.1" display="inline" stroke="none" d="M 27.0 25.53125 C 27.0 27.41247 22.662758 28.9375 17.3125 28.9375 C 11.962241 28.9375 7.625 27.41247 7.625 25.53125 C 7.625 23.65003 11.962241 22.125 17.3125 22.125 C 22.662758 22.125 27.0 23.65003 27.0 25.53125 z " visibility="visible" stroke-linecap="butt" transform="matrix(0.684305,0,0,1.1069933,28.522028,7.966386)" stroke-miterlimit="4" stroke-opacity="1" fill="url(#radialGradient12493)" stroke-dasharray="none" stroke-width="1.10533953" color="#000000" stroke-linejoin="miter" stroke-dashoffset="0" fill-rule="nonzero"/>
        <path fill-opacity="0.1" display="inline" stroke="none" d="M 27.0 25.53125 C 27.0 27.41247 22.662758 28.9375 17.3125 28.9375 C 11.962241 28.9375 7.625 27.41247 7.625 25.53125 C 7.625 23.65003 11.962241 22.125 17.3125 22.125 C 22.662758 22.125 27.0 23.65003 27.0 25.53125 z " visibility="visible" stroke-linecap="butt" transform="matrix(0.684305,0,0,1.1069933,-3.2178256,7.966386)" stroke-miterlimit="4" stroke-opacity="1" fill="url(#radialGradient12491)" stroke-dasharray="none" stroke-width="1.10533953" color="#000000" stroke-linejoin="miter" stroke-dashoffset="0" fill-rule="nonzero"/>
        <path stroke-linecap="butt" fill="#edd400" fill-rule="evenodd" stroke-linejoin="miter" stroke-dasharray="none" d="M 8.690715 12.504556 L 2.5464945 24.121956 " stroke="#8c6f00" stroke-width="1" stroke-opacity="1" stroke-miterlimit="4"/>
        <path fill-opacity="1" fill="url(#linearGradient12459)" stroke-dasharray="none" d="M 4.495059 22.392397 L 13.821504 22.392397 C 14.833212 22.392397 15.647691 23.004423 15.647691 23.764656 L 15.647691 26.630655 C 15.647691 27.166376 14.874316 27.587637 13.821504 28.002916 C 10.896396 29.156729 7.5711703 29.280266 4.495059 28.002916 C 3.5259311 27.600496 2.6688733 27.166376 2.6688733 26.630655 L 2.6688733 23.764656 C 2.6688733 23.004423 3.4833524 22.392397 4.495059 22.392397 z " stroke="#8c6f00" stroke-width="1" stroke-opacity="1" stroke-miterlimit="4"/>
        <path fill-opacity="1" fill="none" stroke-dasharray="none" d="M 4.551534 22.508177 C 4.0043697 22.508177 3.5957663 22.840384 3.5957663 23.285246 L 3.5957663 26.404156 C 3.6029215 26.871216 4.3978434 27.010386 4.8701234 27.228315 C 4.8888564 27.233936 4.9104342 27.220636 4.9280505 27.228315 C 7.6174264 28.400215 10.94393 28.485369 13.674779 27.251863 C 14.091073 26.995516 14.686079 26.855429 14.689958 26.536896 C 14.726695 25.628843 14.784787 24.235195 14.786005 23.285246 C 14.786005 22.840384 14.569499 22.508177 14.022331 22.508177 L 4.551534 22.508177 z " stroke="#ffffff" stroke-width="1" stroke-opacity="0.50196078" stroke-miterlimit="4"/>
        <path stroke-linecap="butt" fill="#edd400" fill-rule="evenodd" stroke-linejoin="miter" stroke-dasharray="none" d="M 9.625852 12.504556 L 15.770071 24.121956 " stroke="#8c6f00" stroke-width="1" stroke-opacity="1" stroke-miterlimit="4"/>
        <path fill-opacity="1" display="inline" stroke="#8c6f00" d="M -26.263968 29.716238 C -26.261827 31.124315 -28.051926 32.42582 -30.959448 33.13012 C -33.86697 33.83442 -37.4498 33.83442 -40.357323 33.13012 C -43.264843 32.42582 -45.054943 31.124315 -45.052803 29.716238 C -45.054943 28.30816 -43.264843 27.006657 -40.357323 26.302357 C -37.4498 25.59806 -33.86697 25.59806 -30.959448 26.302357 C -28.051926 27.006657 -26.261827 28.30816 -26.263968 29.716238 z " visibility="visible" stroke-linecap="butt" transform="matrix(0.6779867,0,0,0.5599566,33.334177,6.619236)" stroke-miterlimit="4" stroke-opacity="1" fill="url(#linearGradient12469)" stroke-dasharray="none" stroke-width="1.62297654" color="#000000" stroke-linejoin="miter" stroke-dashoffset="0" fill-rule="evenodd"/>
        <path fill-opacity="1" display="inline" stroke="#8c6f00" d="M -26.263968 29.716238 C -26.261827 31.124315 -28.051926 32.42582 -30.959448 33.13012 C -33.86697 33.83442 -37.4498 33.83442 -40.357323 33.13012 C -43.264843 32.42582 -45.054943 31.124315 -45.052803 29.716238 C -45.054943 28.30816 -43.264843 27.006657 -40.357323 26.302357 C -37.4498 25.59806 -33.86697 25.59806 -30.959448 26.302357 C -28.051926 27.006657 -26.261827 28.30816 -26.263968 29.716238 z " visibility="visible" stroke-linecap="butt" transform="matrix(1.0332177,0,0,1.0501976,61.375907,4.133856)" stroke-miterlimit="4" stroke-opacity="1" fill="#edd400" stroke-dasharray="none" stroke-width="0.95999414" color="#000000" stroke-linejoin="miter" stroke-dashoffset="0" fill-rule="evenodd"/>
        <path fill-opacity="1" display="inline" stroke="none" d="M 24.535004 31.083803 C 22.984882 31.083803 21.421656 31.228796 20.018944 31.545567 C 18.616236 31.862335 17.474442 32.310375 16.639185 32.876522 C 15.803927 33.44267 15.268468 34.178432 15.269799 34.99519 C 15.268468 35.811943 15.803927 36.520542 16.639185 37.086693 C 17.474442 37.652836 18.616234 38.10088 20.018944 38.41765 C 22.82437 39.051186 26.216503 39.051186 29.021929 38.41765 C 30.42464 38.10088 31.595566 37.652836 32.430824 37.086693 C 33.266083 36.520542 33.80154 35.811943 33.80021 34.99519 C 33.801544 34.178432 33.266083 33.44267 32.430824 32.876522 C 31.595566 32.310375 30.42464 31.862335 29.021929 31.545567 C 27.619217 31.228796 26.085129 31.083803 24.535004 31.083803 z M 24.535004 32.061653 C 26.010513 32.061653 27.480732 32.200844 28.78884 32.496246 C 30.096952 32.791656 31.142525 33.205727 31.818972 33.66423 C 32.495415 34.122738 32.781116 34.588047 32.780453 34.99519 C 32.781116 35.40233 32.495415 35.86764 31.818972 36.326145 C 31.142525 36.78465 30.096952 37.19872 28.78884 37.49413 C 26.172623 38.084934 22.897388 38.084934 20.281168 37.49413 C 18.97306 37.19872 17.927485 36.78465 17.251038 36.326145 C 16.574593 35.86764 16.28889 35.40233 16.289555 34.99519 C 16.28889 34.588047 16.574593 34.122738 17.251038 33.66423 C 17.927485 33.205727 18.97306 32.791656 20.281168 32.496246 C 21.589277 32.200844 23.059494 32.061653 24.535004 32.061653 z " visibility="visible" stroke-linecap="butt" stroke-miterlimit="4" stroke-opacity="1" fill="url(#linearGradient3301)" stroke-width="1.11084163" color="#000000" stroke-linejoin="miter" stroke-dashoffset="0" fill-rule="evenodd"/>
        <path fill-opacity="1" display="inline" stroke="none" d="M 24.191769 29.79082 C 22.752216 29.79082 21.303068 29.939943 20.000132 30.266533 C 18.697195 30.59312 17.64009 31.053194 16.863169 31.6377 C 16.086245 32.222206 15.563871 32.974163 15.565114 33.820377 C 15.563871 34.666584 16.086245 35.418545 16.863169 36.003048 C 17.64009 36.587555 18.697195 37.047623 20.000132 37.374214 C 22.606009 38.027393 25.777525 38.027397 28.3834 37.374214 C 29.686337 37.047623 30.74344 36.587555 31.520365 36.003048 C 32.297287 35.418545 32.81966 34.666584 32.818417 33.820377 C 32.81966 32.974163 32.297287 32.222206 31.520365 31.6377 C 30.74344 31.053194 29.686337 30.59312 28.3834 30.266533 C 27.080462 29.939943 25.631315 29.79082 24.191769 29.79082 z M 24.191769 30.79821 C 25.560492 30.79821 26.926872 30.941858 28.140017 31.245935 C 29.353155 31.55002 30.326284 32.006092 30.952463 32.477192 C 31.578648 32.948288 31.818443 33.405712 31.817837 33.820377 C 31.818443 34.235035 31.578648 34.69246 30.952463 35.16356 C 30.326284 35.634655 29.353155 36.062748 28.140017 36.36683 C 25.713728 36.97499 22.669804 36.97499 20.243517 36.36683 C 19.030376 36.062748 18.05725 35.63466 17.431068 35.16356 C 16.804884 34.69246 16.538046 34.235035 16.538654 33.820377 C 16.538046 33.405712 16.804884 32.948288 17.431068 32.477192 C 18.05725 32.006092 19.030376 31.550018 20.243517 31.245935 C 21.45666 30.941858 22.823038 30.79821 24.191769 30.79821 z " visibility="visible" stroke-linecap="butt" stroke-miterlimit="4" stroke-opacity="1" fill="url(#linearGradient3294)" stroke-width="1.13599658" color="#000000" stroke-linejoin="miter" stroke-dashoffset="0" fill-rule="evenodd"/>
        <path fill-opacity="1" fill="url(#radialGradient12443)" stroke-dasharray="none" d="M 27.672169 33.429787 L 26.455229 9.682856 C 26.414185 8.881956 25.840332 8.490296 24.537262 8.476276 C 23.234188 8.462246 22.660448 8.835036 22.617 9.682856 L 21.40006 33.429787 " stroke="#8c6f00" stroke-width="1" stroke-opacity="1" stroke-miterlimit="4"/>
        <path fill-opacity="0.68108108" fill="url(#linearGradient3287)" d="M 24.5625 10.6875 C 24.27426 10.6849 24.074984 10.702754 23.9375 10.71875 C 23.868755 10.726748 23.790922 10.741702 23.75 10.75 C 23.72954 10.754149 23.73426 10.74601 23.71875 10.75 C 23.710997 10.751995 23.69564 10.747612 23.6875 10.75 C 23.68343 10.751194 23.662807 10.747882 23.65625 10.75 C 23.652971 10.751059 23.656368 10.781208 23.65625 10.78125 C 23.656132 10.781292 23.59378 10.781234 23.59375 10.78125 C 23.593258 10.781507 23.486813 10.853045 23.4375 10.90625 C 23.388187 10.959455 23.371489 11.032455 23.34375 11.09375 C 23.288277 11.216339 23.261044 11.325431 23.25 11.5 L 22.0 33.53125 L 23.0 33.59375 L 24.25 11.71875 C 24.337294 11.7139 24.388018 11.686208 24.53125 11.6875 C 24.688812 11.688921 24.757288 11.711065 24.84375 11.71875 L 26.0 33.59375 L 27.0 33.53125 L 25.84375 11.5 C 25.834051 11.346688 25.838287 11.253722 25.78125 11.125 C 25.724213 10.996278 25.502558 10.813857 25.5 10.8125 C 25.344524 10.730031 25.329187 10.740442 25.1875 10.71875 C 25.045813 10.697058 24.850046 10.690092 24.5625 10.6875 z " stroke="none" stroke-width="1" stroke-opacity="1" stroke-miterlimit="4"/>
        <path fill-opacity="1" fill="url(#radialGradient12437)" stroke-dasharray="none" d="M 7.8355064 7.690502 C 7.8355064 7.690502 21.828749 4.545 24.61228 4.545 C 27.29202 4.545 41.389057 7.690502 41.389057 7.690502 C 42.78776 7.952748 42.32035 9.596786 42.5 10.736911 C 42.393547 11.738235 42.240486 12.945947 41.389057 12.602246 L 24.61228 10.532503 L 7.8355064 12.602246 C 7.1453986 12.602246 6.4999995 11.771243 6.4999995 10.899942 C 6.6161447 9.840241 6.311612 7.9762263 7.8355064 7.690502 z " stroke="#8c6f00" stroke-width="0.99999994" stroke-opacity="1" stroke-miterlimit="4"/>
        <path fill-opacity="1" fill="url(#linearGradient3280)" d="M 24.612284 4.943257 C 23.951832 4.943257 22.562237 5.1374087 20.8636 5.4302692 C 19.169868 5.7222853 17.149963 6.082117 15.226048 6.473868 C 11.385096 7.255966 7.903041 8.074053 7.903041 8.074053 L 7.757743 8.074053 L 7.699624 8.178412 L 7.6705647 8.213199 C 7.5154214 8.269625 7.333553 8.300403 7.234671 8.421919 C 7.060008 8.636563 7.021024 8.848605 6.973135 9.082865 C 6.860941 9.631687 6.8835487 10.218274 6.8278375 10.822196 L 6.8278375 10.856982 L 6.8278375 10.891769 C 6.8278375 11.315847 7.01388 11.551325 7.176552 11.761434 C 7.257888 11.866489 7.33978 11.96233 7.438088 12.039727 C 7.536396 12.117125 7.631954 12.213661 7.8449216 12.213661 L 7.8739815 12.213661 L 7.903041 12.213661 L 24.583223 10.16125 C 24.607212 10.158019 24.617355 10.158019 24.641344 10.16125 L 41.408703 12.213661 L 41.495884 12.213661 L 41.583065 12.178874 C 41.8166 12.099065 41.930664 11.877504 41.989895 11.726648 C 42.049133 11.575792 42.08617 11.437446 42.106136 11.309208 C 42.146057 11.052732 42.15771 10.820963 42.164257 10.787409 L 42.193314 10.683049 L 42.193314 10.578689 C 42.135975 9.990789 42.14635 9.418805 42.077076 8.943718 C 42.042583 8.707162 42.046383 8.543756 41.90272 8.352345 C 41.84417 8.274335 41.699783 8.212937 41.61212 8.178412 C 41.57754 8.164793 41.53132 8.15339 41.495884 8.143625 L 41.466824 8.074053 L 41.32153 8.074053 C 41.32153 8.074053 37.823647 7.2560225 33.96946 6.473868 C 32.03838 6.0819817 29.991243 5.7221985 28.302849 5.4302692 C 26.60917 5.137428 25.246923 4.943257 24.612284 4.943257 z M 24.612284 6.0564284 C 25.063824 6.0564284 26.506723 6.252985 28.186607 6.5434413 C 29.871777 6.834811 31.876644 7.1977153 33.795105 7.58704 C 37.563667 8.351818 40.866917 9.052681 41.001873 9.082865 L 41.059994 9.152437 L 41.205288 9.187224 C 41.22983 9.388119 41.19661 10.032869 41.26341 10.717836 C 41.24934 10.836645 41.21744 10.969365 41.205288 11.065702 L 24.757582 9.048079 C 24.665695 9.035704 24.558872 9.035704 24.466986 9.048079 L 7.903041 11.100489 C 7.8820095 11.080224 7.8689065 11.061894 7.8449216 11.030915 C 7.772969 10.93798 7.757743 10.786126 7.757743 10.891769 C 7.814534 10.217459 7.797421 9.593519 7.8449216 9.361157 C 7.88298 9.174987 7.9222274 9.127934 7.8739815 9.187224 C 7.846827 9.220595 7.8009415 9.22816 8.019279 9.187224 L 8.164577 9.152437 L 8.222696 9.082865 C 8.357547 9.052565 11.645246 8.351669 15.400405 7.58704 C 17.31272 7.1976514 19.291 6.834613 20.97984 6.5434413 C 22.66378 6.253114 24.125196 6.0564284 24.612284 6.0564284 z " stroke="none" stroke-width="0.98287767" stroke-opacity="1" stroke-miterlimit="4"/>
        <path stroke-linecap="butt" fill="#edd400" fill-rule="evenodd" stroke-linejoin="miter" stroke-dasharray="none" d="M 39.37241 12.504556 L 33.228188 24.121956 " stroke="#8c6f00" stroke-width="1" stroke-opacity="1" stroke-miterlimit="4"/>
        <path fill-opacity="1" fill="url(#linearGradient12481)" stroke-dasharray="none" d="M 35.17676 22.392397 L 44.503197 22.392397 C 45.514908 22.392397 46.329388 23.004423 46.329388 23.764656 L 46.329388 26.630655 C 46.329388 27.166376 45.556015 27.587637 44.503197 28.002916 C 41.578087 29.156729 38.25287 29.280266 35.17676 28.002916 C 34.207623 27.600496 33.350567 27.166376 33.350567 26.630655 L 33.350567 23.764656 C 33.350567 23.004423 34.165047 22.392397 35.17676 22.392397 z " stroke="#8c6f00" stroke-width="1" stroke-opacity="1" stroke-miterlimit="4"/>
        <path fill-opacity="1" fill="none" stroke-dasharray="none" d="M 35.233227 22.508177 C 34.68607 22.508177 34.277454 22.840384 34.277454 23.285246 L 34.277454 26.404156 C 34.284615 26.871216 35.079536 27.010386 35.551815 27.228315 C 35.57055 27.233936 35.59213 27.220636 35.60975 27.228315 C 38.29911 28.400215 41.62563 28.485369 44.356476 27.251863 C 44.772766 26.995516 45.367775 26.855415 45.371647 26.536896 C 45.408382 25.628843 45.466488 24.235195 45.467697 23.285246 C 45.467697 22.840384 45.2512 22.508177 44.70403 22.508177 L 35.233227 22.508177 z " stroke="#ffffff" stroke-width="1" stroke-opacity="0.50196078" stroke-miterlimit="4"/>
        <path stroke-linecap="butt" fill="#edd400" fill-rule="evenodd" stroke-linejoin="miter" stroke-dasharray="none" d="M 40.30755 12.504556 L 46.451767 24.121956 " stroke="#8c6f00" stroke-width="1" stroke-opacity="1" stroke-miterlimit="4"/>
        <path fill-opacity="1" display="inline" stroke="#8c6f00" d="M -26.263968 29.716238 C -26.261827 31.124315 -28.051926 32.42582 -30.959448 33.13012 C -33.86697 33.83442 -37.4498 33.83442 -40.357323 33.13012 C -43.264843 32.42582 -45.054943 31.124315 -45.052803 29.716238 C -45.054943 28.30816 -43.264843 27.006657 -40.357323 26.302357 C -37.4498 25.59806 -33.86697 25.59806 -30.959448 26.302357 C -28.051926 27.006657 -26.261827 28.30816 -26.263968 29.716238 z " visibility="visible" stroke-linecap="butt" transform="matrix(0.6779867,0,0,0.5599566,64.015877,6.619236)" stroke-miterlimit="4" stroke-opacity="1" fill="url(#linearGradient12483)" stroke-dasharray="none" stroke-width="1.62297654" color="#000000" stroke-linejoin="miter" stroke-dashoffset="0" fill-rule="evenodd"/>
    </g>
</svg>
