<?xml version="1.0" encoding="UTF-8"?>
<svg xmlns="http://www.w3.org/2000/svg" xmlns:xlink="http://www.w3.org/1999/xlink" contentScriptType="text/ecmascript" width="20" baseProfile="tiny" zoomAndPan="magnify" contentStyleType="text/css" viewBox="0 0 20 32" height="32" preserveAspectRatio="xMidYMid meet" version="1.0">
    <defs>
        <linearGradient gradientTransform="matrix(1.0000002,0,0,0.875,0,4)" id="linearGradient3237" gradientUnits="userSpaceOnUse" xlink:show="other" xlink:type="simple" x1="10" y1="4.2328043" x2="10" y2="14.645503" xlink:actuate="onLoad">
            <stop stop-opacity="1" stop-color="#ffffff" offset="0"/>
            <stop stop-opacity="1" stop-color="#ebece8" offset="1"/>
        </linearGradient>
        <linearGradient xlink:type="simple" xlink:actuate="onLoad" xlink:show="other">
            <stop stop-opacity="1" stop-color="#ffffff" offset="0"/>
            <stop stop-opacity="1" stop-color="#f1f2ef" offset="1"/>
        </linearGradient>
        <linearGradient x1="10" gradientTransform="matrix(1,0,0,1.0015,0,20)" y1="32" x2="10" gradientUnits="userSpaceOnUse" y2="5.7524" xlink:type="simple" xlink:actuate="onLoad" xlink:show="other">
            <stop stop-color="#ffffff" offset="0"/>
            <stop stop-color="#f7fcff" offset="0.0869"/>
            <stop stop-color="#cae7ff" offset="0.6348"/>
            <stop stop-color="#cae7ff" offset="1"/>
        </linearGradient>
        <linearGradient x1="9.9995" gradientTransform="scale(1,4.5714286)" y1="0.873" x2="9.9995" gradientUnits="userSpaceOnUse" y2="6.123" xlink:type="simple" xlink:actuate="onLoad" xlink:show="other">
            <stop stop-color="#ffffff" offset="0"/>
            <stop stop-color="#def0ff" offset="1"/>
        </linearGradient>
        <linearGradient x1="10" gradientTransform="matrix(1,0,0,0.875,0,4)" y1="4.2328043" x2="10" gradientUnits="userSpaceOnUse" y2="14.645503" xlink:type="simple" xlink:actuate="onLoad" id="linearGradient3237" xlink:show="other">
            <stop stop-opacity="1" stop-color="#ffffff" offset="0"/>
            <stop stop-opacity="1" stop-color="#ebece8" offset="1"/>
        </linearGradient>
        <linearGradient gradientTransform="matrix(1.0000002,0,0,0.875,0,4)" id="linearGradient3237" gradientUnits="userSpaceOnUse" xlink:show="other" xlink:type="simple" x1="10" y1="4.2328043" x2="10" y2="14.645503" xlink:actuate="onLoad">
            <stop stop-opacity="1" stop-color="#ffffff" offset="0"/>
            <stop stop-opacity="1" stop-color="#ebece8" offset="1"/>
        </linearGradient>
        <linearGradient gradientTransform="matrix(1.0000002,0,0,0.875,0,4)" id="linearGradient4436" gradientUnits="userSpaceOnUse" xlink:show="other" xlink:type="simple" x1="10" y1="4.2328043" y2="14.645503" x2="10" xlink:actuate="onLoad">
            <stop stop-opacity="1" stop-color="#ffffff" offset="0"/>
            <stop stop-opacity="1" stop-color="#ebece8" offset="1"/>
        </linearGradient>
    </defs>
    <path fill="url(#linearGradient4436)" d="M 0.0 8.000001 C 0.0 19.999996 0.0 24.0 0.0 32.0 L 20.0 32.0 C 20.0 16.0 20.0 12.000001 20.0 4.0 L 0.0 4.0 L 0.0 8.000001 z " fill-opacity="1" stroke="none"/>
    <polygon fill="#555753" fill-opacity="1" transform="matrix(1,0,0,1.2,0,-1.34e-2)" stroke-opacity="0.4" points="0,0.002 0,1 0,1.002 20,1.002 20,1 20,0.002 0,0.002 "/>
    <rect x="0" width="20" fill="none" y="0" height="32.048"/>
    <polygon fill="#ffffff" fill-opacity="1" transform="matrix(1,0,0,2.7619048,0,1.2325714)" stroke-opacity="0.4" points="0,0.002 0,1 0,1.002 20,1.002 20,1 20,0.002 0,0.002 "/>
    <polygon fill="#d3d7cf" fill-opacity="1" transform="matrix(1,0,0,1.1534391,0,2.9818201)" stroke-opacity="0.4" points="0,0.002 0,1 0,1.002 20,1.002 20,1 20,0.002 0,0.002 "/>
    <rect fill-opacity="1" display="inline" stroke="none" visibility="visible" stroke-linecap="square" width="20" stroke-miterlimit="4" stroke-opacity="1" fill="#729fcf" stroke-dasharray="none" stroke-width="1" color="#000000" height="2.9014678" x="0" stroke-linejoin="miter" y="1.1815321" stroke-dashoffset="0" fill-rule="nonzero"/>
</svg>
