<?xml version="1.0" encoding="UTF-8"?>
<svg xmlns="http://www.w3.org/2000/svg" xmlns:xlink="http://www.w3.org/1999/xlink" contentScriptType="text/ecmascript" width="28" baseProfile="tiny" zoomAndPan="magnify" contentStyleType="text/css" viewBox="0 0 20 32" height="32" preserveAspectRatio="xMidYMid meet" version="1.0">
    <defs>
        <linearGradient gradientTransform="matrix(1.0000002,0,0,0.875,0,4)" id="linearGradient3237" gradientUnits="userSpaceOnUse" xlink:show="other" xlink:type="simple" x1="10" y1="4.2328043" x2="10" y2="14.645503" xlink:actuate="onLoad">
            <stop stop-opacity="1" stop-color="#ffffff" offset="0"/>
            <stop stop-opacity="1" stop-color="#ebece8" offset="1"/>
        </linearGradient>
        <linearGradient xlink:type="simple" xlink:actuate="onLoad" xlink:show="other">
            <stop stop-opacity="1" stop-color="#ffffff" offset="0"/>
            <stop stop-opacity="1" stop-color="#f1f2ef" offset="1"/>
        </linearGradient>
        <linearGradient x1="10" gradientTransform="matrix(1,0,0,1.0015,0,20)" y1="32" x2="10" gradientUnits="userSpaceOnUse" y2="5.7523999" xlink:type="simple" xlink:actuate="onLoad" xlink:show="other">
            <stop stop-color="#ffffff" offset="0"/>
            <stop stop-color="#f7fcff" offset="0.0869"/>
            <stop stop-color="#cae7ff" offset="0.6348"/>
            <stop stop-color="#cae7ff" offset="1"/>
        </linearGradient>
        <linearGradient x1="9.9995003" gradientTransform="scale(1,4.5714286)" y1="0.87300003" x2="9.9995003" gradientUnits="userSpaceOnUse" y2="6.1230001" xlink:type="simple" xlink:actuate="onLoad" xlink:show="other">
            <stop stop-color="#ffffff" offset="0"/>
            <stop stop-color="#def0ff" offset="1"/>
        </linearGradient>
        <linearGradient x1="10" gradientTransform="matrix(1,0,0,0.875,0,4)" y1="4.2328043" x2="10" gradientUnits="userSpaceOnUse" y2="14.645503" xlink:type="simple" xlink:actuate="onLoad" id="linearGradient3237" xlink:show="other">
            <stop stop-opacity="1" stop-color="#ffffff" offset="0"/>
            <stop stop-opacity="1" stop-color="#ebece8" offset="1"/>
        </linearGradient>
        <linearGradient gradientTransform="matrix(1.0000002,0,0,0.875,0,4)" id="linearGradient3237" gradientUnits="userSpaceOnUse" xlink:show="other" xlink:type="simple" x1="10" y1="4.2328043" x2="10" y2="14.645503" xlink:actuate="onLoad">
            <stop stop-opacity="1" stop-color="#ffffff" offset="0"/>
            <stop stop-opacity="1" stop-color="#ebece8" offset="1"/>
        </linearGradient>
        <linearGradient gradientTransform="matrix(0.6150001,0,0,0.875,0,4)" id="linearGradient3237" gradientUnits="userSpaceOnUse" xlink:show="other" xlink:type="simple" x1="10" y1="4.2328043" x2="10" y2="14.645503" xlink:actuate="onLoad">
            <stop stop-opacity="1" stop-color="#ffffff" offset="0"/>
            <stop stop-opacity="1" stop-color="#ebece8" offset="1"/>
        </linearGradient>
        <linearGradient gradientTransform="matrix(-0.6150001,0,0,0.875,24,4)" id="linearGradient2531" gradientUnits="userSpaceOnUse" xlink:show="other" xlink:type="simple" x1="10" y1="4.2328043" y2="14.645503" x2="10" xlink:actuate="onLoad">
            <stop stop-opacity="1" stop-color="#ffffff" offset="0"/>
            <stop stop-opacity="1" stop-color="#ebece8" offset="1"/>
        </linearGradient>
    </defs>
    <path fill="url(#linearGradient2531)" d="M 24.0 8.000001 C 24.0 19.999996 24.0 24.0 24.0 32.0 L 11.7 32.0 C 11.7 16.0 11.7 12.000001 11.7 4.0 L 24.0 4.0 L 24.0 8.000001 z " fill-opacity="1" stroke="none"/>
    <polygon fill="#555753" fill-opacity="1" transform="matrix(-0.4616,0,0,1.2,24,-1.34e-2)" stroke-opacity="0.4" points="0,0.002 0,1 0,1.002 20,1.002 20,1 20,0.002 0,0.002 "/>
    <rect x="-24" y="0" transform="scale(-1,1)" fill="none" width="20" height="32.048"/>
    <polygon fill="#ffffff" fill-opacity="1" transform="matrix(-0.5927,0,0,2.7619048,24,1.2325714)" stroke-opacity="0.4" points="0,0.002 0,1 0,1.002 20,1.002 20,1 20,0.002 0,0.002 "/>
    <polygon fill="#d3d7cf" fill-opacity="1" transform="matrix(-0.615,0,0,1.1534391,24,2.9818201)" stroke-opacity="0.4" points="0,0.002 0,1 0,1.002 20,1.002 20,1 20,0.002 0,0.002 "/>
    <rect fill-opacity="1" display="inline" stroke="none" visibility="visible" stroke-linecap="square" width="11.854" transform="scale(-1,1)" stroke-miterlimit="4" stroke-opacity="1" fill="#729fcf" stroke-dasharray="none" stroke-width="1" color="#000000" height="2.9014678" x="-24" stroke-linejoin="miter" y="1.1815321" stroke-dashoffset="0" fill-rule="nonzero"/>
    <polygon fill="#555753" fill-opacity="1" transform="matrix(0,1.4207,-1.2,0,12.124925,3.586)" stroke-opacity="0.4" points="0,0.002 0,1 0,1.002 20,1.002 20,1 20,0.002 0,0.002 "/>
    <path transform="matrix(3.5063952,0,0,3.4087982,-77.39465,-1.6249864)" fill-opacity="1" fill="none" stroke-dasharray="none" d="M 25.36562 1.6775882 C 25.351536 1.402718 25.454376 1.1347154 25.648718 0.9398229 C 25.84306 0.7449304 26.110771 0.64133406 26.38568 0.6546399 " stroke="#555753" stroke-width="0.34709644" stroke-opacity="1" stroke-miterlimit="4"/>
</svg>
