<?xml version="1.0" encoding="UTF-8"?>
<svg xmlns="http://www.w3.org/2000/svg" xmlns:xlink="http://www.w3.org/1999/xlink" contentScriptType="text/ecmascript" width="84.001" baseProfile="tiny" zoomAndPan="magnify" contentStyleType="text/css" viewBox="0 0 84.001 72" height="72" preserveAspectRatio="xMidYMid meet" version="1.1">
    <defs>
        <linearGradient x1="27.90625" gradientTransform="translate(1.084646,0)" y1="18.057989" x2="28.84375" gradientUnits="userSpaceOnUse" y2="21.214239" xlink:type="simple" xlink:actuate="onLoad" id="linearGradient2448" xlink:show="other">
            <stop stop-opacity="1" stop-color="#2c65b9" offset="0"/>
            <stop stop-opacity="0" stop-color="#2c65b9" offset="1"/>
        </linearGradient>
        <linearGradient x1="28.625" gradientTransform="matrix(1,0,0,0.876289,1.084646,3.151418)" y1="25.296875" x2="28.625" gradientUnits="userSpaceOnUse" y2="28" xlink:type="simple" xlink:actuate="onLoad" id="linearGradient2446" xlink:show="other">
            <stop stop-opacity="1" stop-color="#e7e5e0" offset="0"/>
            <stop stop-opacity="1" stop-color="#ffffff" offset="1"/>
        </linearGradient>
        <linearGradient x1="28.513193" gradientTransform="translate(1.084646,0)" y1="37.765625" x2="28.421637" gradientUnits="userSpaceOnUse" y2="30.828125" xlink:type="simple" xlink:actuate="onLoad" id="linearGradient2444" xlink:show="other">
            <stop stop-opacity="1" stop-color="#ffffff" offset="0"/>
            <stop stop-opacity="0" stop-color="#ffffff" offset="1"/>
        </linearGradient>
        <radialGradient gradientTransform="matrix(1,0,0,1.28125,1.084646,-9.461426)" id="radialGradient2442" gradientUnits="userSpaceOnUse" xlink:show="other" xlink:type="simple" r="7.5" cx="28.0625" fx="28.0625" cy="36.908916" fy="36.908916" xlink:actuate="onLoad">
            <stop stop-opacity="1" stop-color="#e5d28f" offset="0"/>
            <stop stop-opacity="1" stop-color="#ab8f2a" offset="1"/>
        </radialGradient>
        <linearGradient x1="22.0625" gradientTransform="translate(1.084646,0)" y1="20.90625" x2="24.673225" gradientUnits="userSpaceOnUse" y2="20.90625" xlink:type="simple" xlink:actuate="onLoad" id="linearGradient2440" xlink:show="other">
            <stop stop-opacity="1" stop-color="#6a6352" offset="0"/>
            <stop stop-opacity="1" stop-color="#3b372e" offset="1"/>
        </linearGradient>
        <radialGradient gradientTransform="scale(1.925808,0.519262)" id="radialGradient2438" gradientUnits="userSpaceOnUse" xlink:show="other" xlink:type="simple" r="8.7662794" cx="12.575710" fx="12.575710" cy="67.501709" fy="67.501709" xlink:actuate="onLoad">
            <stop stop-opacity="1" stop-color="#000000" offset="0"/>
            <stop stop-opacity="0" stop-color="#000000" offset="1"/>
        </radialGradient>
        <linearGradient x1="16.528622" gradientTransform="translate(-0.707105,0)" y1="11.539805" x2="17.279921" gradientUnits="userSpaceOnUse" y2="11.407223" xlink:type="simple" xlink:actuate="onLoad" id="linearGradient2425" xlink:show="other">
            <stop stop-opacity="1" stop-color="#ffffff" offset="0"/>
            <stop stop-opacity="0" stop-color="#ffffff" offset="1"/>
        </linearGradient>
        <linearGradient x1="19.489631" gradientTransform="translate(-0.707105,0)" y1="15.23002" x2="20.727066" gradientUnits="userSpaceOnUse" y2="14.876466" xlink:type="simple" xlink:actuate="onLoad" id="linearGradient2405" xlink:show="other">
            <stop stop-opacity="1" stop-color="#ffffff" offset="0"/>
            <stop stop-opacity="0" stop-color="#ffffff" offset="1"/>
        </linearGradient>
        <linearGradient x1="23.493534" y1="29.476145" x2="23.493534" gradientUnits="userSpaceOnUse" y2="6.9308271" xlink:type="simple" xlink:actuate="onLoad" id="linearGradient4936" xlink:show="other">
            <stop stop-opacity="1" stop-color="#babdb6" offset="0"/>
            <stop stop-opacity="1" stop-color="#50544c" offset="1"/>
        </linearGradient>
        <linearGradient x1="21.6875" gradientTransform="translate(-0.707105,0)" y1="12.093906" x2="21.6875" gradientUnits="userSpaceOnUse" y2="7.7189064" xlink:type="simple" xlink:actuate="onLoad" id="linearGradient4908" xlink:show="other">
            <stop stop-opacity="1" stop-color="#204a87" offset="0"/>
            <stop stop-opacity="1" stop-color="#173561" offset="1"/>
        </linearGradient>
        <linearGradient x1="11.492236" gradientTransform="matrix(1.238977,0,0,0.895955,5.14233,1.54348)" y1="1.6537577" x2="17.199417" gradientUnits="userSpaceOnUse" y2="26.729263" xlink:type="simple" xlink:actuate="onLoad" id="linearGradient2315" xlink:show="other">
            <stop stop-opacity="1.0000000" stop-color="#ffffff" offset="0.0000000"/>
            <stop stop-opacity="0.0000000" stop-color="#fcfcff" offset="1.0000000"/>
        </linearGradient>
        <linearGradient x1="-35.122688" y1="34.242237" x2="-35.074745" gradientUnits="userSpaceOnUse" y2="30.962345" xlink:type="simple" xlink:actuate="onLoad" id="linearGradient2337" xlink:show="other">
            <stop stop-opacity="1.0000000" stop-color="#ffffff" offset="0.0000000"/>
            <stop stop-opacity="0.0000000" stop-color="#ffffff" offset="1.0000000"/>
        </linearGradient>
        <linearGradient x1="-35.658386" y1="33.416473" x2="-35.658386" gradientUnits="userSpaceOnUse" y2="28.205938" xlink:type="simple" xlink:actuate="onLoad" id="linearGradient2327" xlink:show="other">
            <stop stop-opacity="1" stop-color="#7b7f7a" offset="0"/>
            <stop stop-opacity="0" stop-color="#7b7f7a" offset="1"/>
        </linearGradient>
        <linearGradient x1="10.390738" gradientTransform="matrix(1.104397,0,0,0.905471,4.5,2.875)" y1="5.3817744" x2="32.536823" gradientUnits="userSpaceOnUse" y2="31.246054" xlink:type="simple" xlink:actuate="onLoad" id="linearGradient1561" xlink:show="other">
            <stop stop-opacity="1.0000000" stop-color="#8f8f8f" offset="0.0000000"/>
            <stop stop-opacity="1.0000000" stop-color="#494949" offset="1.0000000"/>
        </linearGradient>
        <linearGradient x1="34.300991" y1="3.9384086" x2="35.520542" gradientUnits="userSpaceOnUse" y2="3.8451097" xlink:type="simple" xlink:actuate="onLoad" id="linearGradient2733" xlink:show="other">
            <stop stop-opacity="1.0000000" stop-color="#909090" offset="0.0000000"/>
            <stop stop-opacity="0.0000000" stop-color="#bebebe" offset="1.0000000"/>
        </linearGradient>
        <linearGradient x1="34.300991" y1="3.9384086" x2="35.520542" gradientUnits="userSpaceOnUse" y2="3.8451097" xlink:type="simple" xlink:actuate="onLoad" id="linearGradient2729" xlink:show="other">
            <stop stop-opacity="1.0000000" stop-color="#909090" offset="0.0000000"/>
            <stop stop-opacity="0.0000000" stop-color="#bebebe" offset="1.0000000"/>
        </linearGradient>
        <linearGradient x1="34.300991" y1="3.9384086" x2="35.520542" gradientUnits="userSpaceOnUse" y2="3.8451097" xlink:type="simple" xlink:actuate="onLoad" id="linearGradient2725" xlink:show="other">
            <stop stop-opacity="1.0000000" stop-color="#909090" offset="0.0000000"/>
            <stop stop-opacity="0.0000000" stop-color="#bebebe" offset="1.0000000"/>
        </linearGradient>
        <linearGradient x1="34.300991" y1="3.9384086" x2="35.520542" gradientUnits="userSpaceOnUse" y2="3.8451097" xlink:type="simple" xlink:actuate="onLoad" id="linearGradient2721" xlink:show="other">
            <stop stop-opacity="1.0000000" stop-color="#909090" offset="0.0000000"/>
            <stop stop-opacity="0.0000000" stop-color="#bebebe" offset="1.0000000"/>
        </linearGradient>
        <linearGradient x1="34.300991" y1="3.9384086" x2="35.520542" gradientUnits="userSpaceOnUse" y2="3.8451097" xlink:type="simple" xlink:actuate="onLoad" id="linearGradient2717" xlink:show="other">
            <stop stop-opacity="1.0000000" stop-color="#909090" offset="0.0000000"/>
            <stop stop-opacity="0.0000000" stop-color="#bebebe" offset="1.0000000"/>
        </linearGradient>
        <linearGradient x1="12.206709" gradientTransform="matrix(1.816345,0,0,1.278927,2.5,-40.24508)" y1="53.535141" x2="12.127711" gradientUnits="userSpaceOnUse" y2="64.892525" xlink:type="simple" xlink:actuate="onLoad" id="linearGradient2707" xlink:show="other">
            <stop stop-opacity="1.0000000" stop-color="#585956" offset="0.0000000"/>
            <stop stop-opacity="1.0000000" stop-color="#bbbeb8" offset="1.0000000"/>
        </linearGradient>
        <linearGradient x1="3.7069976" gradientTransform="matrix(5.705159,0,0,0.17528,5.5,2.195627)" y1="171.29134" x2="3.7069974" gradientUnits="userSpaceOnUse" y2="162.45061" xlink:type="simple" xlink:actuate="onLoad" id="linearGradient2689" xlink:show="other">
            <stop stop-opacity="1" stop-color="#000000" offset="0"/>
            <stop stop-opacity="0" stop-color="#000000" offset="1"/>
        </linearGradient>
        <radialGradient gradientTransform="scale(1.925808,0.519262)" id="radialGradient2460" gradientUnits="userSpaceOnUse" xlink:show="other" xlink:type="simple" r="8.7662794" cx="12.575710" fx="12.575710" cy="67.501709" fy="67.501709" xlink:actuate="onLoad">
            <stop stop-opacity="1" stop-color="#000000" offset="0"/>
            <stop stop-opacity="0" stop-color="#000000" offset="1"/>
        </radialGradient>
        <linearGradient x1="17.698339" gradientTransform="matrix(1.108069,0,0,0.902471,5.5,3.875)" y1="13.004725" x2="34.974548" gradientUnits="userSpaceOnUse" y2="55.200756" xlink:type="simple" xlink:actuate="onLoad" id="linearGradient2421" xlink:show="other">
            <stop stop-opacity="1" stop-color="#ffffff" offset="0"/>
            <stop stop-opacity="0" stop-color="#ffffff" offset="1"/>
        </linearGradient>
        <linearGradient x1="8.6116238" gradientTransform="matrix(1.129863,0,0,0.885063,2.875,1.570628)" y1="7.2293582" x2="34.784473" gradientUnits="userSpaceOnUse" y2="33.339787" xlink:type="simple" xlink:actuate="onLoad" id="linearGradient2251" xlink:show="other">
            <stop stop-opacity="1.0000000" stop-color="#dde1d9" offset="0.0000000"/>
            <stop stop-opacity="1.0000000" stop-color="#cacdc6" offset="1.0000000"/>
        </linearGradient>
        <linearGradient xlink:type="simple" xlink:actuate="onLoad" xlink:show="other">
            <stop stop-opacity="1.0000000" stop-color="#dde1d9" offset="0.0000000"/>
            <stop stop-opacity="1.0000000" stop-color="#cacdc6" offset="1.0000000"/>
        </linearGradient>
        <linearGradient xlink:type="simple" xlink:actuate="onLoad" xlink:show="other">
            <stop stop-opacity="1.0000000" stop-color="#8f8f8f" offset="0.0000000"/>
            <stop stop-opacity="1.0000000" stop-color="#494949" offset="1.0000000"/>
        </linearGradient>
        <linearGradient xlink:type="simple" xlink:actuate="onLoad" xlink:show="other">
            <stop stop-opacity="1" stop-color="#ffffff" offset="0"/>
            <stop stop-opacity="0" stop-color="#ffffff" offset="1"/>
        </linearGradient>
        <linearGradient xlink:type="simple" xlink:actuate="onLoad" xlink:show="other">
            <stop stop-opacity="1" stop-color="#000000" offset="0"/>
            <stop stop-opacity="0" stop-color="#000000" offset="1"/>
        </linearGradient>
        <linearGradient xlink:type="simple" xlink:actuate="onLoad" xlink:show="other">
            <stop stop-opacity="1.0000000" stop-color="#ffffff" offset="0.0000000"/>
            <stop stop-opacity="0.0000000" stop-color="#fcfcff" offset="1.0000000"/>
        </linearGradient>
        <linearGradient xlink:type="simple" xlink:actuate="onLoad" xlink:show="other">
            <stop stop-opacity="1" stop-color="#000000" offset="0"/>
            <stop stop-opacity="0" stop-color="#000000" offset="1"/>
        </linearGradient>
        <linearGradient xlink:type="simple" xlink:actuate="onLoad" xlink:show="other">
            <stop stop-opacity="1.0000000" stop-color="#585956" offset="0.0000000"/>
            <stop stop-opacity="1.0000000" stop-color="#bbbeb8" offset="1.0000000"/>
        </linearGradient>
        <linearGradient xlink:type="simple" xlink:actuate="onLoad" xlink:show="other">
            <stop stop-opacity="1.0000000" stop-color="#909090" offset="0.0000000"/>
            <stop stop-opacity="0.0000000" stop-color="#bebebe" offset="1.0000000"/>
        </linearGradient>
        <linearGradient xlink:type="simple" xlink:actuate="onLoad" xlink:show="other">
            <stop stop-opacity="1" stop-color="#7b7f7a" offset="0"/>
            <stop stop-opacity="0" stop-color="#7b7f7a" offset="1"/>
        </linearGradient>
        <linearGradient xlink:type="simple" xlink:actuate="onLoad" xlink:show="other">
            <stop stop-opacity="1.0000000" stop-color="#ffffff" offset="0.0000000"/>
            <stop stop-opacity="0.0000000" stop-color="#ffffff" offset="1.0000000"/>
        </linearGradient>
        <linearGradient xlink:type="simple" xlink:actuate="onLoad" xlink:show="other">
            <stop stop-opacity="1" stop-color="#e5d28f" offset="0"/>
            <stop stop-opacity="1" stop-color="#ab8f2a" offset="1"/>
        </linearGradient>
        <linearGradient xlink:type="simple" xlink:actuate="onLoad" xlink:show="other">
            <stop stop-opacity="1" stop-color="#e7e5e0" offset="0"/>
            <stop stop-opacity="1" stop-color="#ffffff" offset="1"/>
        </linearGradient>
        <linearGradient xlink:type="simple" xlink:actuate="onLoad" xlink:show="other">
            <stop stop-opacity="1" stop-color="#ffffff" offset="0"/>
            <stop stop-opacity="0" stop-color="#ffffff" offset="1"/>
        </linearGradient>
        <linearGradient xlink:type="simple" xlink:actuate="onLoad" xlink:show="other">
            <stop stop-opacity="1" stop-color="#204a87" offset="0"/>
            <stop stop-opacity="1" stop-color="#173561" offset="1"/>
        </linearGradient>
        <linearGradient xlink:type="simple" xlink:actuate="onLoad" xlink:show="other">
            <stop stop-opacity="1" stop-color="#6a6352" offset="0"/>
            <stop stop-opacity="1" stop-color="#3b372e" offset="1"/>
        </linearGradient>
        <linearGradient xlink:type="simple" xlink:actuate="onLoad" xlink:show="other">
            <stop stop-opacity="1" stop-color="#2c65b9" offset="0"/>
            <stop stop-opacity="0" stop-color="#2c65b9" offset="1"/>
        </linearGradient>
        <linearGradient xlink:type="simple" xlink:actuate="onLoad" xlink:show="other">
            <stop stop-opacity="1" stop-color="#babdb6" offset="0"/>
            <stop stop-opacity="1" stop-color="#50544c" offset="1"/>
        </linearGradient>
        <linearGradient xlink:type="simple" xlink:actuate="onLoad" xlink:show="other">
            <stop stop-opacity="1" stop-color="#ffffff" offset="0"/>
            <stop stop-opacity="0" stop-color="#ffffff" offset="1"/>
        </linearGradient>
        <linearGradient gradientTransform="matrix(1.104397,0,0,0.905471,-9.0563535,2.875)" id="linearGradient1561" gradientUnits="userSpaceOnUse" xlink:show="other" xlink:type="simple" x1="10.390738" y1="5.3817744" x2="32.536823" y2="31.246054" xlink:actuate="onLoad">
            <stop stop-opacity="1.0000000" stop-color="#8f8f8f" offset="0.0000000"/>
            <stop stop-opacity="1.0000000" stop-color="#494949" offset="1.0000000"/>
        </linearGradient>
        <linearGradient gradientTransform="matrix(1.104397,0,0,0.905471,4.5,2.875)" id="linearGradient3411" gradientUnits="userSpaceOnUse" xlink:show="other" xlink:type="simple" x1="10.390738" y1="5.3817744" y2="31.246054" x2="32.536823" xlink:actuate="onLoad">
            <stop stop-opacity="1.0000000" stop-color="#8f8f8f" offset="0.0000000"/>
            <stop stop-opacity="1.0000000" stop-color="#494949" offset="1.0000000"/>
        </linearGradient>
        <linearGradient gradientTransform="matrix(1.108069,0,0,0.902471,5.5,3.875)" id="linearGradient3418" gradientUnits="userSpaceOnUse" xlink:show="other" xlink:type="simple" x1="17.698339" y1="13.004725" y2="55.200756" x2="34.974548" xlink:actuate="onLoad">
            <stop stop-opacity="1" stop-color="#ffffff" offset="0"/>
            <stop stop-opacity="0" stop-color="#ffffff" offset="1"/>
        </linearGradient>
        <linearGradient gradientTransform="matrix(0.837548,0,0,0.852655,54.17811,11.00615)" id="linearGradient3425" gradientUnits="userSpaceOnUse" xlink:show="other" xlink:type="simple" x1="-35.122688" y1="34.242237" y2="30.962345" x2="-35.074745" xlink:actuate="onLoad">
            <stop stop-opacity="1.0000000" stop-color="#ffffff" offset="0.0000000"/>
            <stop stop-opacity="0.0000000" stop-color="#ffffff" offset="1.0000000"/>
        </linearGradient>
        <linearGradient gradientTransform="matrix(0.902373,0,0,0.82765,56.55215,12.86792)" id="linearGradient3432" gradientUnits="userSpaceOnUse" xlink:show="other" xlink:type="simple" x1="-35.658386" y1="33.416473" y2="28.205938" x2="-35.658386" xlink:actuate="onLoad">
            <stop stop-opacity="1" stop-color="#7b7f7a" offset="0"/>
            <stop stop-opacity="0" stop-color="#7b7f7a" offset="1"/>
        </linearGradient>
        <linearGradient gradientTransform="translate(1.084646,0)" id="linearGradient3439" gradientUnits="userSpaceOnUse" xlink:show="other" xlink:type="simple" x1="28.513193" y1="37.765625" y2="30.828125" x2="28.421637" xlink:actuate="onLoad">
            <stop stop-opacity="1" stop-color="#ffffff" offset="0"/>
            <stop stop-opacity="0" stop-color="#ffffff" offset="1"/>
        </linearGradient>
    </defs>
    <g transform="matrix(1.475323,0,0,1.475323,5.9437632,1.7684386)">
        <path fill-opacity="0.50857143" display="inline" stroke="none" d="M 41.10058 35.051105 C 41.102844 36.677784 37.885616 38.181164 32.661324 38.99468 C 27.43703 39.808197 20.99978 39.808197 15.775488 38.99468 C 10.551194 38.181164 7.3339663 36.677784 7.3362336 35.051105 C 7.3339663 33.424427 10.551194 31.92105 15.775488 31.107533 C 20.99978 30.294016 27.43703 30.294016 32.661324 31.107533 C 37.885616 31.92105 41.102844 33.424427 41.10058 35.051105 z " visibility="visible" stroke-linecap="round" transform="matrix(1.050251,0,0,1.867888,-0.945558,-28.10611)" stroke-miterlimit="4" stroke-opacity="0.70063692" fill="url(#radialGradient2460)" stroke-width="1" color="#000000" stroke-linejoin="miter" stroke-dashoffset="0" fill-rule="evenodd"/>
        <path fill-opacity="1" display="inline" stroke="#4b4d4a" d="M -26.263968 29.716238 C -26.261827 31.124315 -28.051926 32.42582 -30.959448 33.13012 C -33.86697 33.83442 -37.4498 33.83442 -40.357323 33.13012 C -43.264843 32.42582 -45.054943 31.124315 -45.052803 29.716238 C -45.054943 28.30816 -43.264843 27.006657 -40.357323 26.302357 C -37.4498 25.59806 -33.86697 25.59806 -30.959448 26.302357 C -28.051926 27.006657 -26.261827 28.30816 -26.263968 29.716238 z " visibility="visible" stroke-linecap="butt" transform="translate(60.03339,8.07843)" stroke-miterlimit="4" stroke-opacity="1" fill="#adb0aa" stroke-width="1" color="#000000" stroke-linejoin="miter" stroke-dashoffset="0" fill-rule="evenodd"/>
        <path fill-opacity="1" display="inline" stroke="none" d="M 24.376911 33.71435 C 22.87512 33.71435 21.365566 33.877857 20.006044 34.17991 C 18.64652 34.48196 17.546549 34.906025 16.734941 35.447247 C 15.923334 35.98847 15.38008 36.6788 15.381382 37.464645 C 15.38008 38.25049 15.923334 38.94082 16.734941 39.48204 C 17.546549 40.02326 18.64652 40.447327 20.006044 40.74938 C 22.725088 41.353485 26.028736 41.353485 28.747782 40.74938 C 30.107304 40.447327 31.207275 40.02326 32.018883 39.48204 C 32.83049 38.94082 33.373745 38.25049 33.372444 37.464645 C 33.37375 36.6788 32.83049 35.98847 32.018883 35.447247 C 31.207275 34.906025 30.107304 34.48196 28.747782 34.17991 C 27.38826 33.877857 25.878704 33.71435 24.376911 33.71435 z M 24.376911 34.671326 C 25.80348 34.671326 27.229843 34.83015 28.49399 35.111015 C 29.758137 35.391876 30.747005 35.78872 31.398504 36.223167 C 32.05 36.65762 32.329704 37.08509 32.329075 37.464645 C 32.329704 37.844196 32.05 38.271667 31.398504 38.70612 C 30.747005 39.140568 29.758137 39.53741 28.49399 39.81827 C 25.965696 40.38 22.788128 40.379997 20.259836 39.81827 C 18.99569 39.53741 17.97862 39.140568 17.327124 38.70612 C 16.675627 38.271667 16.424122 37.844196 16.424751 37.464645 C 16.424122 37.08509 16.675627 36.65762 17.327124 36.223167 C 17.97862 35.78872 18.995691 35.391876 20.259836 35.111015 C 21.523981 34.83015 22.950344 34.671326 24.376911 34.671326 z " visibility="visible" stroke-linecap="butt" stroke-miterlimit="4" stroke-opacity="1" fill="url(#linearGradient3432)" stroke-width="1.15713382" color="#000000" stroke-linejoin="miter" stroke-dashoffset="0" fill-rule="evenodd"/>
        <path fill-opacity="1" display="inline" stroke="none" d="M 24.314287 32.4824 C 22.919592 32.4824 21.520275 32.623947 20.257416 32.93537 C 18.994558 33.246796 17.950115 33.708824 17.195131 34.267643 C 16.440145 34.826466 15.937594 35.531666 15.938809 36.345993 C 15.937594 37.160316 16.440145 37.86552 17.195131 38.424335 C 17.950115 38.983154 18.994558 39.445183 20.257416 39.75661 C 22.783134 40.37946 25.845444 40.37946 28.371162 39.75661 C 29.63402 39.445183 30.652288 38.983154 31.407274 38.424335 C 32.16226 37.86552 32.66481 37.160316 32.663597 36.345993 C 32.66481 35.531666 32.16226 34.826466 31.407274 34.267643 C 30.652288 33.708824 29.63402 33.246796 28.371162 32.93537 C 27.108303 32.623947 25.708984 32.4824 24.314287 32.4824 z M 24.314287 33.494926 C 25.637585 33.494926 26.963272 33.632153 28.135603 33.921253 C 29.307932 34.210354 30.228449 34.620674 30.83146 35.06701 C 31.434471 35.51334 31.695759 35.95971 31.69518 36.345993 C 31.695759 36.732273 31.434471 37.17864 30.83146 37.624973 C 30.228449 38.071304 29.307932 38.48163 28.135603 38.77073 C 25.790941 39.348927 22.837637 39.348927 20.492975 38.77073 C 19.320648 38.48163 18.40013 38.071304 17.79712 37.624973 C 17.194107 37.17864 16.93282 36.732273 16.933395 36.345993 C 16.93282 35.95971 17.194107 35.51334 17.79712 35.06701 C 18.40013 34.620674 19.320648 34.210354 20.492975 33.921253 C 21.665306 33.632153 22.990992 33.494926 24.314287 33.494926 z " visibility="visible" stroke-linecap="butt" stroke-miterlimit="4" stroke-opacity="1" fill="url(#linearGradient3425)" stroke-width="1.18333709" color="#000000" stroke-linejoin="miter" stroke-dashoffset="0" fill-rule="evenodd"/>
        <rect fill-opacity="1" display="inline" stroke="none" visibility="visible" stroke-linecap="butt" width="9.0396729" stroke-miterlimit="4" stroke-opacity="1" fill="url(#linearGradient2707)" stroke-width="0.60872948" color="#000000" height="6.3650389" x="19.972397" stroke-linejoin="miter" y="31.078613" stroke-dashoffset="0" fill-rule="evenodd"/>
        <path fill-opacity="1" display="inline" stroke="none" d="M 7.5809026 4.570622 L 41.169098 4.570622 C 42.08044 4.570622 42.793243 5.154104 42.83585 5.972209 L 44.167892 31.550323 C 44.226105 32.668056 43.26683 33.57063 42.147587 33.57063 L 6.602412 33.57063 C 5.483163 33.57063 4.523898 32.668056 4.5821066 31.550323 L 5.91415 5.972209 C 5.9544344 5.198674 6.461653 4.570622 7.5809026 4.570622 z " visibility="visible" stroke-linecap="butt" stroke-miterlimit="4" stroke-opacity="1" fill="url(#linearGradient2251)" stroke-width="1" color="#000000" stroke-linejoin="miter" stroke-dashoffset="0" fill-rule="evenodd"/>
        <path stroke-linecap="butt" fill-opacity="1" fill="url(#linearGradient4936)" fill-rule="evenodd" stroke-linejoin="round" stroke-dasharray="none" d="M 8.910535 7.180827 L 7.66834 29.226145 L 39.31873 29.226145 L 37.98371 7.274256 L 8.910535 7.180827 z " stroke="#555753" stroke-width="0.5" stroke-opacity="1" stroke-miterlimit="4"/>
        <path stroke-linecap="round" fill-opacity="0.75" fill="none" fill-rule="evenodd" stroke-linejoin="miter" d="M 6.677433 31.610788 L 42.10591 31.610788 " stroke="url(#linearGradient2689)" stroke-width="0.99618119" stroke-opacity="0.24840764" stroke-miterlimit="4"/>
        <path fill-opacity="0.70063692" display="inline" stroke="none" d="M 41.25 5.03125 L 7.40625 5.09375 C 7.1257305 5.094063 6.7628417 5.246695 6.59375 5.53125 C 6.424659 5.815805 6.395808 6.0838366 6.375 6.46875 L 5.03125 30.96875 C 4.9978094 31.587362 5.141486 32.15828 5.5 32.59375 C 5.858514 33.02922 6.4497 33.281254 7.09375 33.28125 L 41.59375 33.28125 C 42.23781 33.28125 42.81208 33.05487 43.1875 32.625 C 43.56292 32.19513 43.753265 31.597376 43.71875 30.96875 L 42.34375 6.15625 C 42.309425 5.531164 41.81319 5.0306206 41.25 5.03125 z M 41.25 6.03125 C 41.254208 6.031245 41.332462 6.013248 41.34375 6.21875 L 42.71875 31.03125 C 42.74227 31.459652 42.61112 31.769943 42.4375 31.96875 C 42.26388 32.167557 42.008312 32.28125 41.59375 32.28125 L 7.09375 32.28125 C 6.6791778 32.281254 6.4403024 32.161945 6.28125 31.96875 C 6.1221976 31.775557 6.0075474 31.469719 6.03125 31.03125 L 7.375 6.53125 C 7.390687 6.2410617 7.42684 6.129657 7.4375 6.09375 L 41.25 6.03125 z " visibility="visible" stroke-linecap="butt" stroke-miterlimit="4" stroke-opacity="1" fill="url(#linearGradient3418)" stroke-width="0.99999964" color="#000000" stroke-linejoin="miter" stroke-dashoffset="0" fill-rule="evenodd"/>
        <path fill-opacity="1" display="inline" stroke="none" d="M 35.620502 3.9384089 C 35.621143 4.2388268 35.46124 4.5166984 35.201176 4.6670923 C 34.941113 4.8174863 34.62052 4.8174863 34.360455 4.6670923 C 34.10039 4.5166984 33.940487 4.2388268 33.941128 3.9384089 C 33.940487 3.6379912 34.10039 3.360119 34.360455 3.2097254 C 34.62052 3.0593314 34.941113 3.0593314 35.201176 3.2097254 C 35.46124 3.360119 35.621143 3.6379912 35.620502 3.9384089 z " visibility="visible" stroke-linecap="butt" transform="matrix(1.331237,0,0,0.658449,-5.91933,5.728866)" stroke-miterlimit="4" stroke-opacity="1" fill="url(#linearGradient2717)" stroke-width="0.5" color="#000000" stroke-linejoin="miter" stroke-dashoffset="0" fill-rule="evenodd"/>
        <path fill-opacity="1" display="inline" stroke="none" d="M 35.620502 3.9384089 C 35.621143 4.2388268 35.46124 4.5166984 35.201176 4.6670923 C 34.941113 4.8174863 34.62052 4.8174863 34.360455 4.6670923 C 34.10039 4.5166984 33.940487 4.2388268 33.941128 3.9384089 C 33.940487 3.6379912 34.10039 3.360119 34.360455 3.2097254 C 34.62052 3.0593314 34.941113 3.0593314 35.201176 3.2097254 C 35.46124 3.360119 35.621143 3.6379912 35.620502 3.9384089 z " visibility="visible" stroke-linecap="butt" transform="matrix(1.331237,0,0,0.658449,-5.80573,7.83465)" stroke-miterlimit="4" stroke-opacity="1" fill="url(#linearGradient2721)" stroke-width="0.5" color="#000000" stroke-linejoin="miter" stroke-dashoffset="0" fill-rule="evenodd"/>
        <path fill-opacity="1" display="inline" stroke="none" d="M 35.620502 3.9384089 C 35.621143 4.2388268 35.46124 4.5166984 35.201176 4.6670923 C 34.941113 4.8174863 34.62052 4.8174863 34.360455 4.6670923 C 34.10039 4.5166984 33.940487 4.2388268 33.941128 3.9384089 C 33.940487 3.6379912 34.10039 3.360119 34.360455 3.2097254 C 34.62052 3.0593314 34.941113 3.0593314 35.201176 3.2097254 C 35.46124 3.360119 35.621143 3.6379912 35.620502 3.9384089 z " visibility="visible" stroke-linecap="butt" transform="matrix(1.331237,0,0,0.658449,-5.69213,9.83465)" stroke-miterlimit="4" stroke-opacity="1" fill="url(#linearGradient2725)" stroke-width="0.5" color="#000000" stroke-linejoin="miter" stroke-dashoffset="0" fill-rule="evenodd"/>
        <path fill-opacity="1" display="inline" stroke="none" d="M 35.620502 3.9384089 C 35.621143 4.2388268 35.46124 4.5166984 35.201176 4.6670923 C 34.941113 4.8174863 34.62052 4.8174863 34.360455 4.6670923 C 34.10039 4.5166984 33.940487 4.2388268 33.941128 3.9384089 C 33.940487 3.6379912 34.10039 3.360119 34.360455 3.2097254 C 34.62052 3.0593314 34.941113 3.0593314 35.201176 3.2097254 C 35.46124 3.360119 35.621143 3.6379912 35.620502 3.9384089 z " visibility="visible" stroke-linecap="butt" transform="matrix(1.331237,0,0,0.658449,-5.57853,11.83465)" stroke-miterlimit="4" stroke-opacity="1" fill="url(#linearGradient2729)" stroke-width="0.5" color="#000000" stroke-linejoin="miter" stroke-dashoffset="0" fill-rule="evenodd"/>
        <path fill-opacity="1" display="inline" stroke="none" d="M 35.620502 3.9384089 C 35.621143 4.2388268 35.46124 4.5166984 35.201176 4.6670923 C 34.941113 4.8174863 34.62052 4.8174863 34.360455 4.6670923 C 34.10039 4.5166984 33.940487 4.2388268 33.941128 3.9384089 C 33.940487 3.6379912 34.10039 3.360119 34.360455 3.2097254 C 34.62052 3.0593314 34.941113 3.0593314 35.201176 3.2097254 C 35.46124 3.360119 35.621143 3.6379912 35.620502 3.9384089 z " visibility="visible" stroke-linecap="butt" transform="matrix(1.331237,0,0,0.658449,-5.46493,13.83465)" stroke-miterlimit="4" stroke-opacity="1" fill="url(#linearGradient2733)" stroke-width="0.5" color="#000000" stroke-linejoin="miter" stroke-dashoffset="0" fill-rule="evenodd"/>
        <path stroke-linecap="butt" fill-opacity="0.53142856" fill="url(#linearGradient2315)" fill-rule="evenodd" stroke-linejoin="miter" d="M 9.263312 7.621363 L 8.460783 25.491692 C 19.50542 23.091064 23.882246 14.999494 37.614815 12.344943 L 37.453342 7.687427 L 9.263312 7.621363 z " stroke="none" stroke-width="0.25pt" stroke-opacity="1"/>
        <path fill-opacity="1" display="inline" stroke="none" d="M 12.752542 7.375 C 12.752542 7.375 13.065042 16.296875 13.065042 17.125 C 13.065042 17.890623 12.346292 19.15625 13.315042 19.15625 C 14.221292 19.15625 13.502542 17.859377 13.565042 17.125 C 13.622263 16.452656 13.752542 12.25 13.752542 12.25 C 13.752542 12.25 14.440042 12.34375 14.752542 11.4375 C 15.065042 10.53125 15.002542 8.625 15.002542 8.625 L 15.502542 9.375 C 16.502542 16.0 16.038265 20.218918 16.065042 20.71875 C 16.08848 21.15625 15.345878 23.125 16.377542 23.125 C 17.690456 23.125 16.735096 21.21082 16.752542 20.75 C 16.77117 20.257973 16.903748 16.640625 17.627542 12.375 C 18.726336 13.984375 18.042896 10.875 19.292896 17.5 L 34.417896 18.875 C 34.167896 12.25 32.00254 8.625 30.502542 7.5 C 30.502542 7.5 12.752542 7.375 12.752542 7.375 z " visibility="visible" stroke-linecap="butt" stroke-miterlimit="4" stroke-opacity="1" fill="url(#linearGradient4908)" stroke-dasharray="none" stroke-width="1" color="#000000" stroke-linejoin="miter" stroke-dashoffset="0" fill-rule="nonzero"/>
        <path fill-opacity="0.51461989" display="inline" stroke="none" d="M 30.25 36.5 C 30.25 37.12132 29.74632 37.625 29.125 37.625 C 28.50368 37.625 28.0 37.12132 28.0 36.5 C 28.0 35.87868 28.50368 35.375 29.125 35.375 C 29.74632 35.375 30.25 35.87868 30.25 36.5 z " visibility="visible" stroke-linecap="butt" transform="matrix(0.333333,0,0,0.333333,6.558675,10.20833)" stroke-miterlimit="4" stroke-opacity="1" fill="#ffffff" stroke-dasharray="none" stroke-width="1" color="#000000" stroke-linejoin="miter" stroke-dashoffset="0" fill-rule="nonzero"/>
        <path fill-opacity="0.51461989" display="inline" stroke="none" d="M 30.25 36.5 C 30.25 37.12132 29.74632 37.625 29.125 37.625 C 28.50368 37.625 28.0 37.12132 28.0 36.5 C 28.0 35.87868 28.50368 35.375 29.125 35.375 C 29.74632 35.375 30.25 35.87868 30.25 36.5 z " visibility="visible" stroke-linecap="butt" transform="matrix(0.250001,0,0,0.250001,5.892011,9.500001)" stroke-miterlimit="4" stroke-opacity="1" fill="#ffffff" stroke-dasharray="none" stroke-width="1" color="#000000" stroke-linejoin="miter" stroke-dashoffset="0" fill-rule="nonzero"/>
        <path fill-opacity="0.51461989" display="inline" stroke="none" d="M 18.672045 12.998214 L 19.66641 17.329245 L 20.461905 17.019884 C 20.461905 17.019884 19.865284 13.970486 19.29076 13.219185 C 18.716236 12.467884 18.60575 12.777243 18.009129 12.600467 C 18.009129 12.600467 18.451073 12.666758 18.672045 12.998214 z " visibility="visible" stroke-linecap="butt" stroke-miterlimit="4" stroke-opacity="1" fill="url(#linearGradient2405)" stroke-dasharray="none" stroke-width="1" color="#000000" stroke-linejoin="miter" stroke-dashoffset="0" fill-rule="nonzero"/>
        <path fill-opacity="1" display="inline" stroke="none" d="M 7.587603 4.0625 C 6.934456 4.0625 6.3722415 4.2717333 5.9938536 4.625 C 5.615465 4.9782667 5.4255486 5.4489083 5.4001036 5.9375 L 4.0876036 31.53125 C 4.01383 32.947857 5.1995506 34.0625 6.5876036 34.0625 L 42.150105 34.0625 C 43.538155 34.0625 44.75513 32.94786 44.68135 31.53125 L 43.337605 5.9375 C 43.280575 4.8424754 42.30611 4.0625 41.18135 4.0625 L 7.587603 4.0625 z M 7.587603 5.0625 L 41.18135 5.0625 C 41.87928 5.0625 42.30942 5.4588146 42.337605 6.0 L 43.68135 31.5625 C 43.724 32.381355 43.00055 33.0625 42.150105 33.0625 L 6.5876036 33.0625 C 5.737158 33.0625 5.0449595 32.38136 5.0876036 31.5625 L 6.4001036 6.0 C 6.4149427 5.715057 6.516249 5.497893 6.6813536 5.34375 C 6.846458 5.189607 7.1215014 5.0625 7.587603 5.0625 z " visibility="visible" stroke-linecap="butt" stroke-miterlimit="4" stroke-opacity="1" fill="url(#linearGradient3411)" stroke-width="1" color="#000000" stroke-linejoin="miter" stroke-dashoffset="0" fill-rule="evenodd"/>
        <g transform="matrix(1.124849,0,0,1.124849,-4.096023,-3.071291)">
            <path text-anchor="start" fill-opacity="1" stroke="none" d="M 23.584646 30.192663 L 23.866362 30.192663 C 23.950129 30.192669 24.014347 30.21133 24.059025 30.248655 C 24.103992 30.28569 24.126476 30.338594 24.126476 30.40737 C 24.126476 30.47644 24.103992 30.529638 24.059025 30.566963 C 24.014347 30.603998 23.950129 30.622517 23.866362 30.622517 L 23.75438 30.622517 L 23.75438 30.850883 L 23.584646 30.850883 L 23.584646 30.192663 M 23.75438 30.315668 L 23.75438 30.499512 L 23.848286 30.499512 C 23.881205 30.499512 23.906628 30.491575 23.924557 30.475704 C 23.942484 30.45954 23.95145 30.436762 23.95145 30.40737 C 23.95145 30.37798 23.942484 30.355349 23.924557 30.339476 C 23.906628 30.323605 23.881205 30.315668 23.848286 30.315668 L 23.75438 30.315668 M 24.546623 30.303764 C 24.494896 30.303766 24.454777 30.32287 24.426268 30.361078 C 24.397758 30.399288 24.383505 30.453074 24.383505 30.522436 C 24.383505 30.591509 24.397758 30.645144 24.426268 30.683355 C 24.454777 30.721563 24.494896 30.740667 24.546623 30.740667 C 24.598648 30.740667 24.638912 30.721563 24.667423 30.683355 C 24.695932 30.645144 24.710188 30.591509 24.710188 30.522436 C 24.710188 30.453074 24.695932 30.399288 24.667423 30.361078 C 24.638912 30.32287 24.598648 30.303766 24.546623 30.303764 M 24.546623 30.18076 C 24.652431 30.180763 24.735315 30.211037 24.795277 30.271582 C 24.855234 30.332129 24.885212 30.415749 24.885214 30.522436 C 24.885212 30.628834 24.855234 30.712303 24.795277 30.772852 C 24.735315 30.8334 24.652431 30.863672 24.546623 30.863672 C 24.44111 30.863672 24.358229 30.8334 24.297974 30.772852 C 24.238016 30.712303 24.208036 30.628834 24.208036 30.522436 C 24.208036 30.415749 24.238016 30.332129 24.297974 30.271582 C 24.358229 30.211037 24.44111 30.180763 24.546623 30.18076 M 25.013063 30.192663 L 25.20264 30.192663 L 25.442032 30.644115 L 25.442032 30.192663 L 25.602951 30.192663 L 25.602951 30.850883 L 25.413376 30.850883 L 25.173985 30.399431 L 25.173985 30.850883 L 25.013063 30.850883 L 25.013063 30.192663 M 25.676136 30.192663 L 25.86174 30.192663 L 26.011637 30.427208 L 26.161531 30.192663 L 26.34758 30.192663 L 26.096724 30.573578 L 26.096724 30.850883 L 25.92699 30.850883 L 25.92699 30.573578 L 25.676136 30.192663 " font-variant="normal" stroke-linecap="butt" stroke-opacity="1" fill="#4a4a4a" font-weight="bold" stroke-width="1pt" font-family="Bitstream Vera Sans" font-style="normal" stroke-linejoin="miter" font-stretch="normal" font-size="0.9029026px"/>
            <path fill-opacity="0.20467834" display="inline" stroke="none" d="M 41.10058 35.051105 C 41.102844 36.677784 37.885616 38.181164 32.661324 38.99468 C 27.43703 39.808197 20.99978 39.808197 15.775488 38.99468 C 10.551194 38.181164 7.3339663 36.677784 7.3362336 35.051105 C 7.3339663 33.424427 10.551194 31.92105 15.775488 31.107533 C 20.99978 30.294016 27.43703 30.294016 32.661324 31.107533 C 37.885616 31.92105 41.102844 33.424427 41.10058 35.051105 z " visibility="visible" stroke-linecap="round" transform="matrix(0.531953,0,0,0.657752,17.94145,18.44946)" stroke-miterlimit="4" stroke-opacity="0.70063692" fill="url(#radialGradient2438)" stroke-width="1" color="#000000" stroke-linejoin="miter" stroke-dashoffset="0" fill-rule="evenodd"/>
            <path fill-opacity="1" display="inline" stroke="#3a3a3a" d="M 23.397146 24.5 L 36.397144 24.5 C 36.397144 24.5 36.58465 19.75 35.33465 18.5625 C 34.148705 17.435856 32.459644 17.6875 32.459644 17.6875 L 32.397144 18.1875 C 32.397144 18.1875 31.772146 17.75 30.647146 17.6875 C 29.522146 17.625 28.709646 17.75 28.709646 17.75 L 29.084646 18.125 C 29.084646 18.125 27.522146 17.5 26.022146 17.5 C 24.522146 17.5 24.209646 17.5625 24.209646 17.5625 L 24.772146 17.875 C 24.772146 17.875 23.522146 17.3125 22.522146 17.3125 C 21.522146 17.3125 20.647146 17.75 20.647146 17.75 C 20.647146 17.75 22.084646 18.5 22.647146 19.5 C 23.209646 20.5 23.397146 24.5 23.397146 24.5 z " visibility="visible" stroke-linecap="butt" stroke-miterlimit="4" stroke-opacity="1" fill="url(#linearGradient2440)" stroke-dasharray="none" stroke-width="0.88900858" color="#000000" stroke-linejoin="miter" stroke-dashoffset="0" fill-rule="nonzero"/>
            <path fill-opacity="1" display="inline" stroke="#80754c" d="M 22.709646 24.53125 L 22.709646 28.90625 C 22.709646 29.854448 23.4802 30.625 24.428396 30.625 L 27.678396 30.625 C 27.439137 33.02329 26.965912 34.83116 27.084646 36.91535 C 27.15902 38.220886 28.2901 39.91535 30.084646 39.91535 C 31.69182 39.91535 32.84756 38.348827 32.959644 36.79035 C 33.084644 35.05231 32.306053 33.027832 31.959646 30.625 L 34.990894 30.625 C 35.939095 30.625 36.70965 29.854448 36.70965 28.90625 L 36.70965 24.53125 C 36.70965 24.53125 22.709646 24.53125 22.709646 24.53125 z " visibility="visible" stroke-linecap="butt" stroke-miterlimit="4" stroke-opacity="1" fill="url(#radialGradient2442)" stroke-dasharray="none" stroke-width="0.88900858" color="#000000" stroke-linejoin="miter" stroke-dashoffset="0" fill-rule="nonzero"/>
            <path fill-opacity="1" display="inline" stroke="none" d="M 28.3125 28.96875 L 28.28125 29.375 C 28.188208 30.307652 27.93802 31.668848 27.75 33.0 C 27.56198 34.331154 27.416723 35.61801 27.46875 36.53125 C 27.50268 37.12682 27.695448 37.79732 28.09375 38.375 C 28.492052 38.95268 29.134169 39.4375 30.0 39.4375 C 30.789143 39.4375 31.442028 38.998566 31.84375 38.4375 C 32.245472 37.876434 32.45028 37.191338 32.5 36.5 C 32.558628 35.684795 32.364887 34.41905 32.125 33.0625 C 31.885113 31.705952 31.572544 30.280478 31.4375 29.34375 L 31.40625 28.96875 L 31.0 28.96875 L 28.71875 28.96875 L 28.3125 28.96875 z M 29.09375 29.875 L 30.625 29.875 C 30.777409 30.831297 31.038305 32.021637 31.25 33.21875 C 31.487265 34.560455 31.63512 35.86227 31.59375 36.4375 C 31.553804 36.992943 31.40086 37.552223 31.125 37.9375 C 30.84914 38.322777 30.496595 38.53125 30.0 38.53125 C 29.430197 38.53125 29.088636 38.2755 28.8125 37.875 C 28.536364 37.4745 28.36932 36.917603 28.34375 36.46875 C 28.300789 35.71463 28.470152 34.442528 28.65625 33.125 C 28.821623 31.9542 28.983395 30.819548 29.09375 29.875 z " visibility="visible" stroke-linecap="butt" stroke-miterlimit="4" stroke-opacity="1" fill="url(#linearGradient3439)" stroke-width="0.88900858" color="#000000" stroke-linejoin="miter" stroke-dashoffset="0" fill-rule="nonzero"/>
            <path fill-opacity="1" display="inline" stroke="none" d="M 23.209646 24.982422 L 23.209646 28.779297 C 23.209646 29.60897 23.82138 30.126951 24.651052 30.126951 L 34.83074 30.126951 C 35.660416 30.126951 36.20965 29.608969 36.20965 28.779297 L 36.20965 24.982422 C 36.20965 24.982422 23.209646 24.982422 23.209646 24.982422 z " visibility="visible" stroke-linecap="butt" stroke-miterlimit="4" stroke-opacity="1" fill="#e8daa5" stroke-dasharray="none" stroke-width="1" color="#000000" stroke-linejoin="miter" stroke-dashoffset="0" fill-rule="nonzero"/>
            <path fill-opacity="1" display="inline" stroke="none" d="M 35.58465 25.03125 L 35.58465 26.948132 C 35.58465 27.35774 35.208336 27.6875 34.740894 27.6875 L 24.678396 27.6875 C 24.21096 27.6875 23.834646 27.35774 23.834646 26.948132 L 23.834646 25.03125 C 23.834646 25.03125 35.58465 25.03125 35.58465 25.03125 z " visibility="visible" stroke-linecap="butt" stroke-miterlimit="4" stroke-opacity="1" fill="url(#linearGradient2446)" stroke-width="1" color="#000000" stroke-linejoin="miter" stroke-dashoffset="0" fill-rule="nonzero"/>
            <path fill-opacity="1" display="inline" stroke="none" d="M 21.803396 17.875 C 21.803396 17.875 22.959646 18.59375 23.240896 19.65625 C 23.522146 20.71875 23.678396 21.75 23.678396 21.75 L 24.459646 20.03125 L 25.334646 20.875 L 25.647146 19.5 L 27.522146 20.0 L 27.022146 18.96875 L 29.022146 19.90625 L 28.959646 19.21875 L 29.803396 19.96875 L 30.490896 19.34375 L 31.990896 20.0 L 32.865894 19.15625 L 34.115894 19.96875 C 34.115894 19.96875 33.897144 19.40625 34.022144 19.4375 C 34.147144 19.46875 35.240894 19.84375 35.240894 19.84375 L 35.522144 20.1875 C 35.522144 20.1875 35.331604 19.229937 34.897144 18.84375 C 34.05339 18.09375 32.865894 18.15625 32.865894 18.15625 L 32.740894 19.03125 C 32.740894 19.03125 31.709646 18.3125 30.834646 18.1875 C 29.959646 18.0625 29.084646 18.21875 29.084646 18.21875 L 28.897146 18.59375 C 28.897146 18.59375 27.803396 18.15625 26.834646 18.0625 C 25.865896 17.96875 24.615896 18.0 24.615896 18.0 L 24.553396 18.34375 C 24.553396 18.34375 23.647146 17.90625 23.240896 17.875 C 22.834646 17.84375 21.834646 17.90625 21.803396 17.875 z " visibility="visible" stroke-linecap="butt" stroke-miterlimit="4" stroke-opacity="1" fill="url(#linearGradient2448)" stroke-dasharray="none" stroke-width="1" color="#000000" stroke-linejoin="miter" stroke-dashoffset="0" fill-rule="nonzero"/>
            <path fill-opacity="0.51461989" display="inline" stroke="none" d="M 30.25 36.5 C 30.25 37.12132 29.74632 37.625 29.125 37.625 C 28.50368 37.625 28.0 37.12132 28.0 36.5 C 28.0 35.87868 28.50368 35.375 29.125 35.375 C 29.74632 35.375 30.25 35.87868 30.25 36.5 z " visibility="visible" stroke-linecap="butt" transform="matrix(0.888889,0,0,0.888889,3.647723,4.055556)" stroke-miterlimit="4" stroke-opacity="1" fill="#ffffff" stroke-dasharray="none" stroke-width="1" color="#000000" stroke-linejoin="miter" stroke-dashoffset="0" fill-rule="nonzero"/>
        </g>
        <path fill-opacity="0.51461989" display="inline" stroke="none" d="M 15.755226 9.396389 C 15.755226 9.396389 16.373943 13.727418 16.285557 15.362603 C 16.48443 12.313205 16.086681 9.551069 16.086681 9.551069 L 15.070216 8.490409 L 15.755226 9.396389 z " visibility="visible" stroke-linecap="butt" stroke-miterlimit="4" stroke-opacity="1" fill="url(#linearGradient2425)" stroke-dasharray="none" stroke-width="1" color="#000000" stroke-linejoin="miter" stroke-dashoffset="0" fill-rule="nonzero"/>
    </g>
</svg>
