<?xml version="1.0" encoding="UTF-8"?>
<svg xmlns="http://www.w3.org/2000/svg" xmlns:xlink="http://www.w3.org/1999/xlink" contentScriptType="text/ecmascript" width="88" baseProfile="tiny" zoomAndPan="magnify" contentStyleType="text/css" viewBox="0 0 88 88" height="88" preserveAspectRatio="xMidYMid meet" version="1.0">
    <defs>
        <radialGradient gradientTransform="matrix(1.000000,0.000000,0.000000,0.242494,1.565588e-16,31.50606)" gradientUnits="userSpaceOnUse" xlink:type="simple" r="19.136078" xlink:actuate="onLoad" cx="24.35099" cy="41.591846" xlink:show="other" fx="24.35099" fy="41.591846">
            <stop stop-opacity="1" stop-color="#000000" offset="0"/>
            <stop stop-opacity="0" stop-color="#000000" offset="1"/>
        </radialGradient>
        <linearGradient x1="22.175976" y1="36.987999" x2="22.065331" gradientUnits="userSpaceOnUse" y2="32.050499" xlink:type="simple" xlink:actuate="onLoad" id="linearGradient9772" xlink:show="other">
            <stop stop-opacity="1" stop-color="#6194cb" offset="0"/>
            <stop stop-opacity="1" stop-color="#729fcf" offset="1"/>
        </linearGradient>
        <linearGradient x1="18.112709" y1="31.367750" x2="15.514889" gradientUnits="userSpaceOnUse" y2="6.1802502" xlink:type="simple" xlink:actuate="onLoad" id="linearGradient3104" xlink:show="other">
            <stop stop-opacity="1" stop-color="#424242" offset="0"/>
            <stop stop-opacity="1.0000000" stop-color="#777777" offset="1.0000000"/>
        </linearGradient>
        <linearGradient x1="13.035696" gradientTransform="matrix(1.317489,0,0,0.816256,-0.879573,-1.3181659)" y1="32.567184" x2="12.853771" gradientUnits="userSpaceOnUse" y2="46.689312" xlink:type="simple" xlink:actuate="onLoad" id="linearGradient322" xlink:show="other">
            <stop stop-opacity="0.35051546" stop-color="#ffffff" offset="0"/>
            <stop stop-opacity="0" stop-color="#ffffff" offset="1"/>
        </linearGradient>
        <linearGradient x1="6.2297964" gradientTransform="matrix(1.516844,0,0,0.708978,-0.879573,-1.318166)" y1="13.773066" x2="9.8980894" gradientUnits="userSpaceOnUse" y2="66.834053" xlink:type="simple" xlink:actuate="onLoad" id="linearGradient491" xlink:show="other">
            <stop stop-opacity="0.87628865" stop-color="#ffffff" offset="0.0000000"/>
            <stop stop-opacity="0.0000000" stop-color="#fffffe" offset="1.0000000"/>
        </linearGradient>
        <linearGradient xlink:type="simple" xlink:actuate="onLoad" xlink:show="other">
            <stop stop-opacity="0.87628865" stop-color="#ffffff" offset="0.0000000"/>
            <stop stop-opacity="0.0000000" stop-color="#fffffe" offset="1.0000000"/>
        </linearGradient>
        <radialGradient gradientTransform="matrix(1.055022,-2.734504e-2,0.177703,1.190929,-3.572177,-7.125301)" id="radialGradient238" gradientUnits="userSpaceOnUse" xlink:show="other" xlink:type="simple" r="30.905205" cx="20.706017" fx="20.706017" cy="37.517986" fy="37.517986" xlink:actuate="onLoad">
            <stop stop-opacity="1.0000000" stop-color="#202020" offset="0.0000000"/>
            <stop stop-opacity="1.0000000" stop-color="#b9b9b9" offset="1.0000000"/>
        </radialGradient>
        <linearGradient xlink:type="simple" xlink:actuate="onLoad" xlink:show="other">
            <stop stop-opacity="1.0000000" stop-color="#202020" offset="0.0000000"/>
            <stop stop-opacity="1.0000000" stop-color="#b9b9b9" offset="1.0000000"/>
        </linearGradient>
        <linearGradient xlink:type="simple" xlink:actuate="onLoad" xlink:show="other">
            <stop stop-opacity="1" stop-color="#ffffff" offset="0"/>
            <stop stop-opacity="0" stop-color="#ffffff" offset="1"/>
        </linearGradient>
        <linearGradient xlink:type="simple" xlink:actuate="onLoad" xlink:show="other">
            <stop stop-opacity="1" stop-color="#424242" offset="0"/>
            <stop stop-opacity="1.0000000" stop-color="#777777" offset="1.0000000"/>
        </linearGradient>
        <linearGradient xlink:type="simple" xlink:actuate="onLoad" xlink:show="other">
            <stop stop-opacity="1" stop-color="#6194cb" offset="0"/>
            <stop stop-opacity="1" stop-color="#729fcf" offset="1"/>
        </linearGradient>
        <linearGradient xlink:type="simple" xlink:actuate="onLoad" xlink:show="other">
            <stop stop-opacity="1" stop-color="#000000" offset="0"/>
            <stop stop-opacity="0" stop-color="#000000" offset="1"/>
        </linearGradient>
        <linearGradient x1="302.85715" gradientTransform="matrix(2.774389,0,0,1.969706,-1892.179,-872.8854)" y1="366.64789" x2="302.85715" gradientUnits="userSpaceOnUse" y2="609.50507" xlink:type="simple" xlink:actuate="onLoad" id="linearGradient6715" xlink:show="other">
            <stop stop-opacity="0" stop-color="#000000" offset="0"/>
            <stop stop-opacity="1" stop-color="#000000" offset="0.5"/>
            <stop stop-opacity="0" stop-color="#000000" offset="1"/>
        </linearGradient>
        <linearGradient xlink:type="simple" xlink:actuate="onLoad" xlink:show="other">
            <stop stop-opacity="0" stop-color="#000000" offset="0"/>
            <stop stop-opacity="1" stop-color="#000000" offset="0.5"/>
            <stop stop-opacity="0" stop-color="#000000" offset="1"/>
        </linearGradient>
        <radialGradient gradientTransform="matrix(2.774389,0,0,1.969706,-1891.633,-872.8854)" id="radialGradient6717" gradientUnits="userSpaceOnUse" xlink:show="other" xlink:type="simple" r="117.14286" cx="605.71429" fx="605.71429" cy="486.64789" fy="486.64789" xlink:actuate="onLoad">
            <stop stop-opacity="1" stop-color="#000000" offset="0"/>
            <stop stop-opacity="0" stop-color="#000000" offset="1"/>
        </radialGradient>
        <linearGradient xlink:type="simple" xlink:actuate="onLoad" xlink:show="other">
            <stop stop-opacity="1" stop-color="#000000" offset="0"/>
            <stop stop-opacity="0" stop-color="#000000" offset="1"/>
        </linearGradient>
        <radialGradient gradientTransform="matrix(-2.774389,0,0,1.969706,112.7623,-872.8854)" id="radialGradient6719" gradientUnits="userSpaceOnUse" xlink:show="other" xlink:type="simple" r="117.14286" cx="605.71429" fx="605.71429" cy="486.64789" fy="486.64789" xlink:actuate="onLoad">
            <stop stop-opacity="1" stop-color="#000000" offset="0"/>
            <stop stop-opacity="0" stop-color="#000000" offset="1"/>
        </radialGradient>
        <radialGradient gradientTransform="matrix(1.399258,-2.234445e-7,8.196178e-8,0.513264,4.365074,4.839285)" id="radialGradient2308" gradientUnits="userSpaceOnUse" xlink:show="other" xlink:type="simple" r="11.689870" cx="14.287618" fx="14.287618" cy="68.872971" fy="72.568001" xlink:actuate="onLoad">
            <stop stop-opacity="0.32673267" stop-color="#000000" offset="0.0000000"/>
            <stop stop-opacity="0" stop-color="#000000" offset="1"/>
        </radialGradient>
        <linearGradient gradientTransform="matrix(0.200685,0,0,0.200685,-0.585758,-1.050787)" id="linearGradient53551" gradientUnits="userSpaceOnUse" xlink:show="other" xlink:type="simple" x1="99.7773" y1="15.4238" y2="248.6311" x2="153.0005" xlink:actuate="onLoad">
            <stop offset="0" stop-color="#184375"/>
            <stop offset="1" stop-color="#c8bddc"/>
        </linearGradient>
        <linearGradient x1="99.7773" y1="15.4238" x2="153.0005" gradientUnits="userSpaceOnUse" y2="248.6311" xlink:type="simple" xlink:actuate="onLoad" id="aigrd1" xlink:show="other">
            <stop stop-color="#184375" offset="0"/>
            <stop stop-color="#c8bddc" offset="1"/>
        </linearGradient>
        <linearGradient xlink:type="simple" xlink:actuate="onLoad" id="linearGradient2300" xlink:show="other">
            <stop stop-opacity="0.32673267" stop-color="#000000" offset="0.0000000"/>
            <stop stop-opacity="0" stop-color="#000000" offset="1"/>
        </linearGradient>
        <linearGradient gradientTransform="matrix(1.317489,0,0,0.816256,-0.879573,-1.3181659)" id="linearGradient3882" gradientUnits="userSpaceOnUse" xlink:show="other" xlink:type="simple" x1="13.035696" y1="32.567184" y2="46.689312" x2="12.853771" xlink:actuate="onLoad">
            <stop stop-opacity="0.35051546" stop-color="#ffffff" offset="0"/>
            <stop stop-opacity="0" stop-color="#ffffff" offset="1"/>
        </linearGradient>
        <linearGradient x1="18.112709" y1="31.367750" x2="15.514889" gradientUnits="userSpaceOnUse" y2="6.1802502" xlink:type="simple" xlink:actuate="onLoad" id="linearGradient3892" xlink:show="other">
            <stop stop-opacity="1" stop-color="#424242" offset="0"/>
            <stop stop-opacity="1.0000000" stop-color="#777777" offset="1.0000000"/>
        </linearGradient>
    </defs>
    <g transform="matrix(1.7415462,0,0,1.7415462,4.4899087,4.752843)">
        <g>
            <g transform="matrix(2.262383e-2,0,0,2.086758e-2,43.38343,36.36962)" display="inline">
                <rect fill-opacity="0.40206185" display="inline" stroke="none" visibility="visible" stroke-linecap="round" width="1339.6335" stroke-miterlimit="4" stroke-opacity="1" fill="url(#linearGradient6715)" stroke-dasharray="none" stroke-width="1" color="#000000" height="478.35718" x="-1559.2523" stroke-linejoin="miter" y="-150.69685" stroke-dashoffset="0" fill-rule="nonzero"/>
                <path fill-opacity="0.40206185" display="inline" stroke="none" d="M -219.61876 -150.68037 C -219.61876 -150.68037 -219.61876 327.6504 -219.61876 327.6504 C -76.74459 328.55087 125.78146 220.48076 125.78138 88.45424 C 125.78138 -43.572304 -33.655437 -150.68036 -219.61876 -150.68037 z " visibility="visible" stroke-linecap="round" stroke-miterlimit="4" stroke-opacity="1" fill="url(#radialGradient6717)" stroke-dasharray="none" stroke-width="1" color="#000000" stroke-linejoin="miter" stroke-dashoffset="0" fill-rule="nonzero"/>
                <path fill-opacity="0.40206185" display="inline" stroke="none" d="M -1559.2523 -150.68037 C -1559.2523 -150.68037 -1559.2523 327.6504 -1559.2523 327.6504 C -1702.1263 328.55087 -1904.6523 220.48076 -1904.6523 88.45424 C -1904.6523 -43.572304 -1745.2156 -150.68036 -1559.2523 -150.68037 z " visibility="visible" stroke-linecap="round" stroke-miterlimit="4" stroke-opacity="1" fill="url(#radialGradient6719)" stroke-dasharray="none" stroke-width="1" color="#000000" stroke-linejoin="miter" stroke-dashoffset="0" fill-rule="nonzero"/>
            </g>
            <path stroke-linecap="round" fill-opacity="1" fill="url(#radialGradient238)" fill-rule="nonzero" stroke-linejoin="round" stroke-dasharray="none" d="M 4.5217805 38.687416 C 4.5435767 39.10372 4.9816856 39.520023 5.39799 39.520023 L 36.725018 39.520023 C 37.14131 39.520023 37.535824 39.10372 37.514027 38.687416 L 36.577583 11.460682 C 36.555782 11.044379 36.117687 10.628066 35.701385 10.628066 L 22.43051 10.628066 C 21.945452 10.628066 21.196035 10.312477 21.028866 9.521434 L 20.417477 6.6283627 C 20.262009 5.8926897 19.53526 5.590477 19.118956 5.590477 L 4.3400974 5.590477 C 3.9237847 5.590477 3.5292768 6.0067806 3.5510728 6.4230847 L 4.5217805 38.687416 z " stroke="none" stroke-width="1" stroke-opacity="1" stroke-miterlimit="4"/>
            <path fill-opacity="0.45142858" display="block" stroke="none" d="M 6.068343 38.864025 C 6.084686 39.17625 5.8874316 39.3844 5.5697584 39.280327 L 5.5697584 39.280327 C 5.2520766 39.17625 5.033027 38.9681 5.0166755 38.65587 L 4.068956 6.591384 C 4.0526133 6.279156 4.234142 6.0906134 4.54637 6.0906134 L 18.96842 6.0429196 C 19.280647 6.0429196 19.900364 6.3433924 20.101357 7.365102 L 20.674845 10.180636 C 20.247791 9.715379 20.255651 9.701017 20.037289 9.02393 L 19.631191 7.764748 C 19.412142 7.037101 18.932993 6.932848 18.620764 6.932848 L 5.732989 6.932848 C 5.420761 6.932848 5.2235074 7.141 5.2398586 7.4532366 L 6.1778636 38.9681 L 6.068343 38.864025 z " visibility="visible" stroke-linecap="butt" stroke-miterlimit="4" stroke-opacity="1" fill="url(#linearGradient491)" stroke-width="1.21380496" color="#000000" stroke-linejoin="miter" stroke-dashoffset="0" fill-rule="nonzero"/>
            <g transform="matrix(1.040764,0,5.449252e-2,1.040764,-8.670199,2.670594)" fill-opacity="0.75706213" fill="#ffffff" fill-rule="nonzero" stroke="none" stroke-width="0.99946535" stroke-miterlimit="4">
                <path fill="#ffffff" d="M 42.417183 8.515178 C 42.422268 8.418064 42.289024 8.268189 42.182064 8.268172 L 29.150663 8.266053 C 29.150663 8.266053 30.06238 8.854007 31.352476 8.862296 L 42.405975 8.933317 C 42.41706 8.721589 42.408695 8.677285 42.417183 8.515178 z " fill-opacity="0.50847461"/>
            </g>
            <path stroke-linecap="round" fill-opacity="1" fill="url(#linearGradient3892)" fill-rule="nonzero" stroke-linejoin="round" stroke-dasharray="none" d="M 4.34375 5.09375 C 3.9689305 5.09375 3.6347263 5.2589025 3.40625 5.5 C 3.1777737 5.7410975 3.0429118 6.0633645 3.0625 6.4375 L 4.03125 38.6875 C 4.0309243 38.69791 4.0309243 38.708336 4.03125 38.71875 C 4.0508385 39.092888 4.2280216 39.39625 4.46875 39.625 C 4.7094784 39.85375 5.0314317 40.03125 5.40625 40.03125 L 36.71875 40.03125 C 37.093567 40.03125 37.427776 39.834846 37.65625 39.59375 C 37.884724 39.352657 38.01959 39.030388 38.0 38.65625 L 37.0625 11.4375 C 37.042908 11.063369 36.865723 10.760002 36.625 10.53125 C 36.384277 10.302498 36.06232 10.125 35.6875 10.125 L 22.4375 10.125 C 22.303408 10.125 22.053827 10.086986 21.875 9.96875 C 21.696173 9.850513 21.586365 9.667051 21.53125 9.40625 L 20.90625 6.53125 C 20.798792 6.0227637 20.496115 5.6311345 20.15625 5.40625 C 19.816385 5.1813655 19.454142 5.09375 19.125 5.09375 L 4.34375 5.09375 z M 4.34375 6.09375 L 19.125 6.09375 C 19.212162 6.09375 19.427296 6.1398597 19.59375 6.25 C 19.760204 6.3601403 19.889488 6.4915633 19.9375 6.71875 L 20.53125 9.625 C 20.643305 10.155242 20.984812 10.543931 21.34375 10.78125 C 21.702688 11.018569 22.086535 11.125 22.4375 11.125 L 35.6875 11.125 C 35.72898 11.125 35.84965 11.166519 35.9375 11.25 C 36.02535 11.333481 36.091545 11.457828 36.09375 11.5 L 37.0 38.71875 C 37.00221 38.760918 36.973656 38.83512 36.90625 38.90625 C 36.83884 38.977383 36.760223 39.03125 36.71875 39.03125 L 5.40625 39.03125 C 5.364764 39.03125 5.244101 38.989727 5.15625 38.90625 C 5.077184 38.83112 5.0409737 38.736885 5.03125 38.6875 L 4.0625 6.40625 C 4.060292 6.3640814 4.0888433 6.2586303 4.15625 6.1875 C 4.2236567 6.1163697 4.3022566 6.09375 4.34375 6.09375 z " stroke="none" stroke-width="1" stroke-opacity="1" stroke-miterlimit="4"/>
            <path fill-opacity="1" display="block" stroke="none" d="M 39.78353 39.51062 C 40.927425 39.466557 41.74661 38.41432 41.830566 37.189617 C 42.622353 25.640928 43.48993 15.957666 43.48993 15.957666 C 43.56208 15.710182 43.322018 15.462699 43.00979 15.462699 L 8.638631 15.462699 C 8.638631 15.462699 6.788311 37.329594 6.788311 37.329594 C 6.673756 38.311657 6.322304 39.134308 5.238476 39.513306 L 39.78353 39.51062 z " visibility="visible" stroke-linecap="butt" stroke-miterlimit="4" stroke-opacity="1" fill="url(#linearGradient9772)" stroke-dasharray="none" stroke-width="0.68904287" color="#000000" stroke-linejoin="round" stroke-dashoffset="0" fill-rule="nonzero"/>
            <path stroke-linecap="round" fill-opacity="1" fill="url(#linearGradient3882)" fill-rule="evenodd" stroke-linejoin="miter" d="M 9.15625 15.96875 L 9.125 16.4375 L 7.40625 36.875 C 7.40558 36.882996 7.3909664 37.006073 7.34375 37.1875 C 7.2965336 37.368927 7.195885 37.570568 7.15625 37.625 L 6.59375 38.4375 L 7.5625 38.4375 C 10.275298 38.4375 37.091476 38.46875 38.96875 38.46875 C 39.721546 38.46875 40.286705 38.37567 40.71875 38.03125 C 41.150795 37.68683 41.29749 37.150387 41.34375 36.5625 L 42.90625 16.5625 L 42.9375 16.03125 L 42.40625 16.03125 L 9.625 15.96875 L 9.15625 15.96875 z M 10.09375 16.96875 L 41.875 17.03125 L 40.34375 36.5 C 40.30569 36.983624 40.221455 37.148193 40.09375 37.25 C 39.96604 37.351807 39.63793 37.46875 38.96875 37.46875 C 37.147575 37.46875 12.063958 37.438976 8.3125 37.4375 C 8.374097 37.20082 8.40558 36.976746 8.40625 36.96875 L 10.09375 16.96875 z " stroke="none" stroke-width="0.9999997px" stroke-opacity="1"/>
            <path stroke-linecap="butt" fill-opacity="0.0892857" fill="#ffffff" fill-rule="evenodd" stroke-linejoin="miter" d="M 9.620248 16.223183 L 8.453602 31.866451 C 8.453602 31.866451 16.749756 27.718376 27.119947 27.718376 C 37.490143 27.718376 42.67524 16.223183 42.67524 16.223183 L 9.620248 16.223183 z " stroke="none" stroke-width="1px" stroke-opacity="1"/>
            <path fill-opacity="1" display="block" stroke="#3465a4" d="M 39.78353 39.51062 C 40.927425 39.466557 41.74661 38.41432 41.830566 37.189617 C 42.622353 25.640928 43.48993 15.957666 43.48993 15.957666 C 43.56208 15.710182 43.322018 15.462699 43.00979 15.462699 L 8.638631 15.462699 C 8.638631 15.462699 6.788311 37.329594 6.788311 37.329594 C 6.673756 38.311657 6.322304 39.134308 5.238476 39.513306 L 39.78353 39.51062 z " visibility="visible" stroke-linecap="butt" stroke-miterlimit="4" stroke-opacity="1" fill="none" stroke-dasharray="none" stroke-width="0.68904287" color="#000000" stroke-linejoin="round" stroke-dashoffset="0" fill-rule="nonzero"/>
        </g>
    </g>
    <g transform="translate(36.17196,37.913459)">
        <g>
            <path fill-opacity="1" display="inline" stroke="none" d="M 44.285717 38.714287 C 44.285717 44.147247 35.36339 48.551533 24.357143 48.551533 C 13.350898 48.551533 4.4285717 44.147247 4.4285717 38.714287 C 4.4285717 33.281326 13.350898 28.87704 24.357143 28.87704 C 35.36339 28.87704 44.285717 33.281326 44.285717 38.714287 z " visibility="visible" stroke-linecap="round" transform="matrix(1.18638,0,0,1.18638,-4.539687,-7.794678)" stroke-miterlimit="4" stroke-opacity="1" fill="url(#radialGradient2308)" stroke-width="0.50000042" color="#000000" stroke-linejoin="miter" stroke-dashoffset="0" fill-rule="evenodd"/>
        </g>
        <g>
            <path stroke-linecap="round" fill="url(#linearGradient53551)" fill-rule="nonzero" stroke-linejoin="round" d="M 24.2858 43.19636 L 4.3751874 23.285744 L 24.2858 3.3751292 L 44.196415 23.285744 L 24.2858 43.19636 L 24.2858 43.19636 z " stroke="#3f4561" stroke-width="1" stroke-opacity="1" stroke-miterlimit="4"/>
            <path fill-opacity="0.72000002" fill="#ffffff" fill-rule="nonzero" d="M 43.505062 23.285744 L 24.2858 4.066482 L 5.06654 23.285744 L 5.8476076 23.910675 L 24.45724 5.482543 L 43.505257 23.285744 L 43.505062 23.285744 z " stroke="none" stroke-opacity="0.72000002" stroke-miterlimit="4"/>
            <path fill-opacity="0.5" fill="#ffffff" fill-rule="nonzero" d="M 8.925773 27.145172 L 9.664223 26.120989 C 10.300972 26.38948 10.964841 26.606056 11.650406 26.765871 L 11.644594 28.342731 C 12.072322 28.431067 12.507604 28.498869 12.948699 28.547102 L 13.430473 27.045212 C 13.774514 27.07369 14.122237 27.08938 14.473834 27.08938 C 14.825043 27.08938 15.172958 27.073883 15.517 27.045212 L 15.998775 28.547102 C 16.440063 28.498869 16.875153 28.431067 17.30288 28.342731 L 17.296873 26.76568 C 17.982632 26.606056 18.646309 26.38948 19.283056 26.120989 L 20.205536 27.40049 C 20.607887 27.218395 20.999777 27.0179 21.380432 26.799969 L 20.887613 25.301952 C 21.484844 24.939701 22.049335 24.528631 22.575085 24.07398 L 23.847225 25.00576 C 24.172865 24.709179 24.484556 24.397488 24.780943 24.071848 L 23.849356 22.799902 C 24.304205 22.274155 24.715273 21.709856 25.077524 21.112236 L 26.575539 21.605247 C 26.79347 21.2244 26.99416 20.832315 27.175867 20.43016 L 25.89656 19.507872 C 26.165052 18.871124 26.381628 18.207256 26.541637 17.521496 L 28.1183 17.527308 C 28.206636 17.09958 28.274439 16.664297 28.32248 16.22301 L 26.820784 15.741236 C 26.849648 15.397388 26.864952 15.049472 26.864952 14.698069 C 26.864952 14.346666 26.84926 13.998944 26.820784 13.654708 L 28.32248 13.172934 C 28.274632 12.73184 28.206442 12.296751 28.118496 11.86883 L 26.541445 11.874835 C 26.381628 11.189076 26.165052 10.525208 25.896751 9.888655 L 27.17606 8.966366 C 26.994354 8.564014 26.79347 8.172124 26.575926 7.791275 L 25.077717 8.2842865 C 24.715466 7.6868625 24.304398 7.1225634 23.849745 6.5970097 L 24.78133 5.3248687 C 24.502958 5.018989 24.210253 4.726864 23.905922 4.4467487 L 5.0669274 23.285938 L 6.073869 24.29288 L 6.372581 24.074175 C 6.8983297 24.528828 7.462628 24.939896 8.060051 25.302147 L 7.8180985 26.037304 L 8.926161 27.145365 L 8.925773 27.145172 z " stroke="none" stroke-opacity="0.5" stroke-miterlimit="4"/>
            <path fill-opacity="0.5" fill="#ffffff" fill-rule="nonzero" d="M 28.448977 32.191116 C 28.448977 25.706434 32.68286 20.211649 38.536217 18.317093 L 36.309242 16.089926 C 36.29239 16.0969 36.275345 16.102905 36.258682 16.110073 L 36.07717 15.858241 L 34.66517 14.446237 C 34.20199 14.665137 33.748497 14.900697 33.30585 15.153885 L 33.999943 17.263079 C 33.158627 17.772749 32.364193 18.351768 31.624195 18.99181 L 29.833084 17.680153 C 29.374365 18.097612 28.935787 18.536188 28.51852 18.994717 L 29.829987 20.78563 C 29.189943 21.525824 28.611118 22.320257 28.101255 23.161379 L 25.991867 22.467287 C 25.685213 23.003693 25.402777 23.555592 25.146873 24.12202 L 26.948055 25.420315 C 26.570114 26.316645 26.265203 27.251328 26.040298 28.216816 L 23.8203 28.208292 C 23.696129 28.810556 23.60043 29.42348 23.532824 30.044342 L 25.647245 30.72274 C 25.606953 31.207031 25.585257 31.69675 25.585257 32.19131 C 25.585257 32.686066 25.606953 33.17578 25.647245 33.660072 L 23.532824 34.337887 C 23.60043 34.95914 23.696129 35.57187 23.820492 36.174137 L 26.040298 36.165806 C 26.265203 37.13129 26.570114 38.065975 26.948055 38.962303 L 25.146873 40.26079 C 25.289255 40.575584 25.440744 40.885723 25.59901 41.191216 L 29.403032 37.38758 C 28.787012 35.773335 28.448784 34.021744 28.448784 32.19131 L 28.448977 32.191116 z " stroke="none" stroke-opacity="0.5" stroke-miterlimit="4"/>
            <path fill-opacity="0.35" fill="#000000" fill-rule="nonzero" d="M 5.205048 23.424252 L 24.2858 42.505005 L 43.505062 23.285744 L 42.789963 22.603523 L 24.310314 41.041676 L 5.205048 23.42406 L 5.205048 23.424252 z " stroke="none" stroke-opacity="0.35" stroke-miterlimit="4"/>
        </g>
    </g>
</svg>
