<?xml version="1.0" encoding="UTF-8"?>
<svg xmlns="http://www.w3.org/2000/svg" xmlns:xlink="http://www.w3.org/1999/xlink" contentScriptType="text/ecmascript" width="88" baseProfile="tiny" zoomAndPan="magnify" contentStyleType="text/css" viewBox="0 0 88 88.001" height="88.001" preserveAspectRatio="xMidYMid meet" version="1.0">
    <defs>
        <linearGradient gradientTransform="matrix(1.444094,0,0,0.692475,-0.875,-0.75)" id="linearGradient3973" gradientUnits="userSpaceOnUse" xlink:show="other" xlink:type="simple" x1="5.9931116" y1="21.552934" y2="50.644868" x2="27.987149" xlink:actuate="onLoad">
            <stop stop-opacity="1.0000000" stop-color="#c1c3ae" offset="0.0000000"/>
            <stop stop-opacity="1.0000000" stop-color="#818373" offset="1.0000000"/>
        </linearGradient>
        <linearGradient gradientTransform="matrix(1.094203,0,0,0.913907,-2.051744,-0.893632)" id="linearGradient3939" gradientUnits="userSpaceOnUse" xlink:show="other" xlink:type="simple" x1="6.5210196" y1="35.292295" y2="37.514895" x2="6.5972647" xlink:actuate="onLoad">
            <stop stop-opacity="1" stop-color="#5a7aa4" offset="0"/>
            <stop stop-opacity="1.0000000" stop-color="#3b516c" offset="1.0000000"/>
        </linearGradient>
        <linearGradient gradientTransform="matrix(-1.094203,0,0,0.913907,49.47622,-0.893632)" id="linearGradient3937" gradientUnits="userSpaceOnUse" xlink:show="other" xlink:type="simple" x1="6.5210196" y1="35.292295" y2="37.514895" x2="6.5972647" xlink:actuate="onLoad">
            <stop stop-opacity="1" stop-color="#5a7aa4" offset="0"/>
            <stop stop-opacity="1.0000000" stop-color="#3b516c" offset="1.0000000"/>
        </linearGradient>
        <linearGradient gradientTransform="matrix(-1.094203,0,0,0.913907,49.42097,-0.75)" id="linearGradient3935" gradientUnits="userSpaceOnUse" xlink:show="other" xlink:type="simple" x1="6.5210196" y1="35.292295" y2="37.514895" x2="6.5972647" xlink:actuate="onLoad">
            <stop stop-opacity="1" stop-color="#5a7aa4" offset="0"/>
            <stop stop-opacity="1.0000000" stop-color="#3b516c" offset="1.0000000"/>
        </linearGradient>
        <linearGradient gradientTransform="matrix(-1.094203,0,0,0.913907,49.42097,-0.75)" id="linearGradient3933" gradientUnits="userSpaceOnUse" xlink:show="other" xlink:type="simple" x1="6.5210196" y1="35.292295" y2="37.514895" x2="6.5972647" xlink:actuate="onLoad">
            <stop stop-opacity="1" stop-color="#5a7aa4" offset="0"/>
            <stop stop-opacity="1.0000000" stop-color="#3b516c" offset="1.0000000"/>
        </linearGradient>
        <linearGradient gradientTransform="matrix(1.444094,0,0,0.692475,-0.875,-0.75)" id="linearGradient6976" gradientUnits="userSpaceOnUse" xlink:show="other" xlink:type="simple" x1="5.9931116" y1="21.552934" x2="27.987149" y2="50.644868" xlink:actuate="onLoad">
            <stop stop-opacity="1.0000000" stop-color="#c1c3ae" offset="0.0000000"/>
            <stop stop-opacity="1.0000000" stop-color="#818373" offset="1.0000000"/>
        </linearGradient>
        <linearGradient gradientTransform="matrix(-1.094203,0.000000,0.000000,0.913907,49.42097,-0.750000)" id="linearGradient2736" gradientUnits="userSpaceOnUse" xlink:show="other" xlink:type="simple" x1="6.5210196" y1="35.292295" x2="6.5972647" y2="37.514895" xlink:actuate="onLoad">
            <stop stop-opacity="1" stop-color="#5a7aa4" offset="0"/>
            <stop stop-opacity="1.0000000" stop-color="#3b516c" offset="1.0000000"/>
        </linearGradient>
        <linearGradient gradientTransform="matrix(1.094203,0.000000,0.000000,0.913907,-2.051744,-0.893632)" id="linearGradient2736" gradientUnits="userSpaceOnUse" xlink:show="other" xlink:type="simple" x1="6.5210196" y1="35.292295" x2="6.5972647" y2="37.514895" xlink:actuate="onLoad">
            <stop stop-opacity="1" stop-color="#5a7aa4" offset="0"/>
            <stop stop-opacity="1.0000000" stop-color="#3b516c" offset="1.0000000"/>
        </linearGradient>
        <linearGradient gradientTransform="matrix(-1.094203,0.000000,0.000000,0.913907,49.47622,-0.893632)" id="linearGradient2736" gradientUnits="userSpaceOnUse" xlink:show="other" xlink:type="simple" x1="6.5210196" y1="35.292295" x2="6.5972647" y2="37.514895" xlink:actuate="onLoad">
            <stop stop-opacity="1" stop-color="#5a7aa4" offset="0"/>
            <stop stop-opacity="1.0000000" stop-color="#3b516c" offset="1.0000000"/>
        </linearGradient>
        <linearGradient gradientTransform="matrix(-1.094203,0.000000,0.000000,0.913907,49.42097,-0.750000)" id="linearGradient2736" gradientUnits="userSpaceOnUse" xlink:show="other" xlink:type="simple" x1="6.5210196" y1="35.292295" x2="6.5972647" y2="37.514895" xlink:actuate="onLoad">
            <stop stop-opacity="1" stop-color="#5a7aa4" offset="0"/>
            <stop stop-opacity="1.0000000" stop-color="#3b516c" offset="1.0000000"/>
        </linearGradient>
        <linearGradient gradientTransform="matrix(1.444094,0.000000,0.000000,0.692475,-0.875000,-0.750000)" id="linearGradient6976" gradientUnits="userSpaceOnUse" xlink:show="other" xlink:type="simple" x1="5.9931116" y1="21.552934" x2="27.987149" y2="50.644868" xlink:actuate="onLoad">
            <stop stop-opacity="1.0000000" stop-color="#c1c3ae" offset="0.0000000"/>
            <stop stop-opacity="1.0000000" stop-color="#818373" offset="1.0000000"/>
        </linearGradient>
        <linearGradient xlink:type="simple" xlink:actuate="onLoad" id="linearGradient6976" xlink:show="other">
            <stop stop-opacity="1.0000000" stop-color="#c1c3ae" offset="0.0000000"/>
            <stop stop-opacity="1.0000000" stop-color="#818373" offset="1.0000000"/>
        </linearGradient>
        <linearGradient xlink:type="simple" xlink:actuate="onLoad" id="linearGradient2736" xlink:show="other">
            <stop stop-opacity="1" stop-color="#5a7aa4" offset="0"/>
            <stop stop-opacity="1.0000000" stop-color="#3b516c" offset="1.0000000"/>
        </linearGradient>
        <radialGradient gradientTransform="matrix(1.000000,0.000000,0.000000,0.284916,-7.147040e-16,30.08928)" id="linearGradient4542" gradientUnits="userSpaceOnUse" xlink:show="other" xlink:type="simple" r="15.821514" cx="24.306795" fx="24.306795" cy="42.07798" fy="42.07798" xlink:actuate="onLoad">
            <stop stop-opacity="1" stop-color="#000000" offset="0"/>
            <stop stop-opacity="0" stop-color="#000000" offset="1"/>
        </radialGradient>
        <linearGradient xlink:type="simple" xlink:actuate="onLoad" id="linearGradient4542" xlink:show="other">
            <stop stop-opacity="1" stop-color="#000000" offset="0"/>
            <stop stop-opacity="0" stop-color="#000000" offset="1"/>
        </linearGradient>
        <linearGradient gradientTransform="matrix(2.774389,0,0,1.969706,-1892.179,-872.8854)" id="linearGradient6715" gradientUnits="userSpaceOnUse" xlink:show="other" xlink:type="simple" x1="302.85715" y1="366.64789" y2="609.50507" x2="302.85715" xlink:actuate="onLoad">
            <stop stop-opacity="0" stop-color="#000000" offset="0"/>
            <stop stop-opacity="1" stop-color="#000000" offset="0.5"/>
            <stop stop-opacity="0" stop-color="#000000" offset="1"/>
        </linearGradient>
        <linearGradient xlink:type="simple" xlink:actuate="onLoad" id="linearGradient5048" xlink:show="other">
            <stop stop-opacity="0" stop-color="#000000" offset="0"/>
            <stop stop-opacity="1" stop-color="#000000" offset="0.5"/>
            <stop stop-opacity="0" stop-color="#000000" offset="1"/>
        </linearGradient>
        <radialGradient gradientTransform="matrix(2.774389,0,0,1.969706,-1891.633,-872.8854)" id="radialGradient6717" gradientUnits="userSpaceOnUse" xlink:show="other" xlink:type="simple" r="117.14286" cx="605.71429" fx="605.71429" cy="486.64789" fy="486.64789" xlink:actuate="onLoad">
            <stop stop-opacity="1" stop-color="#000000" offset="0"/>
            <stop stop-opacity="0" stop-color="#000000" offset="1"/>
        </radialGradient>
        <linearGradient xlink:type="simple" xlink:actuate="onLoad" id="linearGradient5060" xlink:show="other">
            <stop stop-opacity="1" stop-color="#000000" offset="0"/>
            <stop stop-opacity="0" stop-color="#000000" offset="1"/>
        </linearGradient>
        <radialGradient gradientTransform="matrix(-2.774389,0,0,1.969706,112.7623,-872.8854)" id="radialGradient6719" gradientUnits="userSpaceOnUse" xlink:show="other" xlink:type="simple" r="117.14286" cx="605.71429" fx="605.71429" cy="486.64789" fy="486.64789" xlink:actuate="onLoad">
            <stop stop-opacity="1" stop-color="#000000" offset="0"/>
            <stop stop-opacity="0" stop-color="#000000" offset="1"/>
        </radialGradient>
    </defs>
    <g transform="matrix(1.7521453,0,0,1.7521453,2.1818306,1.2994258)">
        <g>
            <g transform="matrix(2.364027e-2,0,0,2.086758e-2,45.02649,30.76443)" display="inline">
                <rect fill-opacity="0.40206185" display="inline" stroke="none" visibility="visible" stroke-linecap="round" width="1339.6335" stroke-miterlimit="4" stroke-opacity="1" fill="url(#linearGradient6715)" stroke-dasharray="none" stroke-width="1" color="#000000" height="478.35718" x="-1559.2523" stroke-linejoin="miter" y="-150.69685" stroke-dashoffset="0" fill-rule="nonzero"/>
                <path fill-opacity="0.40206185" display="inline" stroke="none" d="M -219.61876 -150.68037 C -219.61876 -150.68037 -219.61876 327.6504 -219.61876 327.6504 C -76.74459 328.55087 125.78146 220.48076 125.78138 88.45424 C 125.78138 -43.572304 -33.655437 -150.68036 -219.61876 -150.68037 z " visibility="visible" stroke-linecap="round" stroke-miterlimit="4" stroke-opacity="1" fill="url(#radialGradient6717)" stroke-dasharray="none" stroke-width="1" color="#000000" stroke-linejoin="miter" stroke-dashoffset="0" fill-rule="nonzero"/>
                <path fill-opacity="0.40206185" display="inline" stroke="none" d="M -1559.2523 -150.68037 C -1559.2523 -150.68037 -1559.2523 327.6504 -1559.2523 327.6504 C -1702.1263 328.55087 -1904.6523 220.48076 -1904.6523 88.45424 C -1904.6523 -43.572304 -1745.2156 -150.68036 -1559.2523 -150.68037 z " visibility="visible" stroke-linecap="round" stroke-miterlimit="4" stroke-opacity="1" fill="url(#radialGradient6719)" stroke-dasharray="none" stroke-width="1" color="#000000" stroke-linejoin="miter" stroke-dashoffset="0" fill-rule="nonzero"/>
            </g>
            <g transform="matrix(1.00103,0,0,0.997645,-3.421675e-3,0.205326)">
                <path stroke-linecap="round" transform="matrix(0.97258,0,0,1.014707,0.392838,-0.586934)" fill-opacity="1" fill="url(#linearGradient3973)" fill-rule="evenodd" stroke-linejoin="round" d="M 9.57758 15.426169 L 3.5668795 32.45819 C 3.3971317 32.939194 3.7834048 33.468464 4.252723 33.467987 L 43.63484 33.428173 C 44.32279 33.427475 44.810165 32.65764 44.53189 31.976967 L 37.83221 15.58921 C 37.642178 15.124365 37.002544 14.723838 36.385136 14.723253 L 10.832201 14.699061 C 10.348838 14.698603 9.796573 14.805627 9.57758 15.426169 z " stroke="#404040" stroke-width="1.00729263" stroke-opacity="1" stroke-miterlimit="4"/>
                <path stroke-linecap="butt" transform="matrix(0.97258,0,0,1.014707,0.392838,-0.586934)" fill-opacity="0.40935669" fill="#ffffff" fill-rule="evenodd" stroke-linejoin="miter" d="M 4.125 32.875 L 10.0625 15.5625 L 10.9375 15.1875 L 36.4375 15.25 L 37.3125 16.0625 L 11.3125 16.0625 L 10.9375 16.25 L 5.625 31.75 L 4.125 32.875 z " stroke="none" stroke-width="1px" stroke-opacity="1"/>
                <path stroke-linecap="butt" transform="matrix(0.97258,0,0,1.014707,0.392838,-0.586934)" fill-opacity="0.12865499" fill="#000000" fill-rule="evenodd" stroke-linejoin="miter" d="M 4.375 33.25 L 43.625 33.3125 L 44.1875 32.625 L 37.375 15.6875 L 43.5 31.8125 L 5.375 31.9375 L 4.375 33.25 z " stroke="none" stroke-width="1px" stroke-opacity="1"/>
            </g>
            <g>
                <path fill-opacity="1" display="inline" stroke="#272840" d="M 4.046875 28.34375 C 4.1409135 28.12828 4.3632708 27.972761 4.6875 27.976562 L 6.6875 28.0 L 9.875 31.78125 C 9.875 31.78125 9.34999 33.07629 9.571695 33.903706 C 10.027775 34.309242 9.5625 34.578125 9.5625 34.578125 C 9.5625 34.578125 3.5625 34.578125 3.0625 34.578125 C 2.5625 34.578125 1.9388005 33.31304 2.25 32.5625 C 3.046875 30.640623 3.175918 30.33938 4.046875 28.34375 z " visibility="visible" stroke-linecap="round" transform="matrix(0.97258,0,0,1.014707,0.392838,-0.586934)" stroke-miterlimit="4" stroke-opacity="1" fill="url(#linearGradient3933)" stroke-width="1.00662374" color="#000000" stroke-linejoin="round" stroke-dashoffset="0" fill-rule="evenodd"/>
                <path stroke-linecap="butt" transform="matrix(0.97258,0,0,1.014707,0.392838,-0.586934)" fill-opacity="0.48538011" fill="#ffffff" fill-rule="evenodd" stroke-linejoin="miter" d="M 4.53125 28.53125 L 2.703125 32.75 L 8.921875 32.75 L 3.515625 32.21875 L 5.0 28.859377 L 6.453125 28.515623 L 4.53125 28.53125 z " stroke="none" stroke-width="1px" stroke-opacity="1"/>
            </g>
            <g>
                <path fill-opacity="1" display="inline" stroke="#272840" d="M 44.499084 28.34375 C 44.405045 28.12828 44.18269 27.972761 43.858456 27.976562 L 41.858456 28.0 L 38.67096 31.78125 C 38.67096 31.78125 39.19597 33.07629 38.974262 33.903706 C 38.518185 34.309242 38.983456 34.578125 38.983456 34.578125 C 38.983456 34.578125 44.983456 34.578125 45.483456 34.578125 C 45.983456 34.578125 46.60716 33.31304 46.29596 32.5625 C 45.499084 30.640623 45.37004 30.33938 44.499084 28.34375 z " visibility="visible" stroke-linecap="round" transform="matrix(0.97258,0,0,1.014707,0.392838,-0.586934)" stroke-miterlimit="4" stroke-opacity="1" fill="url(#linearGradient3935)" stroke-width="1.00662374" color="#000000" stroke-linejoin="round" stroke-dashoffset="0" fill-rule="evenodd"/>
                <path fill-opacity="0.48538011" display="inline" stroke="none" d="M 43.937893 28.489573 L 42.103832 28.489573 L 39.231213 31.870428 C 39.231213 31.870428 39.47428 32.68802 39.518475 33.12996 C 39.562668 33.571903 39.40799 34.12433 39.40799 34.12433 C 39.40799 34.12433 40.070904 33.21835 39.982513 32.732216 C 39.894123 32.24608 39.78364 31.84833 39.78364 31.84833 L 42.324802 28.754738 L 43.937893 28.489573 z " visibility="visible" stroke-linecap="butt" transform="matrix(0.97258,0,0,1.014707,0.392838,-0.586934)" stroke-miterlimit="4" stroke-opacity="1" fill="#ffffff" stroke-width="1px" color="#000000" stroke-linejoin="miter" stroke-dashoffset="0" fill-rule="evenodd"/>
            </g>
            <g>
                <path fill-opacity="1" display="inline" stroke="#272840" d="M 8.891912 17.407879 L 14.31675 14.756228 C 14.676779 14.580246 14.01038 13.783956 13.609643 13.783956 L 9.278614 13.783956 L 8.041174 16.965937 C 7.8650575 17.418808 8.372302 18.836807 8.53836 18.38015 L 8.891912 17.407879 z " visibility="visible" stroke-linecap="round" transform="matrix(0.97258,0,0,1.014707,0.392838,-0.586934)" stroke-miterlimit="4" stroke-opacity="1" fill="url(#linearGradient3937)" stroke-width="0.80529904" color="#000000" stroke-linejoin="round" stroke-dashoffset="0" fill-rule="evenodd"/>
                <path fill-opacity="0.48538011" display="inline" stroke="none" d="M 8.505214 17.89402 C 8.373761 17.618725 8.318931 17.31835 8.494164 16.877554 L 9.565874 14.181709 L 13.576495 14.192758 L 9.996768 14.623651 L 8.693038 16.921747 C 8.371541 17.488457 8.4558525 17.547476 8.505214 17.89402 z " visibility="visible" stroke-linecap="butt" transform="matrix(0.97258,0,0,1.014707,0.392838,-0.586934)" stroke-miterlimit="4" stroke-opacity="1" fill="#ffffff" stroke-width="1px" color="#000000" stroke-linejoin="miter" stroke-dashoffset="0" fill-rule="evenodd"/>
            </g>
            <g>
                <path fill-opacity="1" display="inline" stroke="#272840" d="M 38.532562 17.407879 L 33.107727 14.756228 C 32.747696 14.580246 33.414097 13.783956 33.81483 13.783956 L 38.145863 13.783956 L 39.383305 16.965937 C 39.55942 17.418808 39.052177 18.836807 38.886116 18.38015 L 38.532562 17.407879 z " visibility="visible" stroke-linecap="round" transform="matrix(0.97258,0,0,1.014707,0.392838,-0.586934)" stroke-miterlimit="4" stroke-opacity="1" fill="url(#linearGradient3939)" stroke-width="0.80529904" color="#000000" stroke-linejoin="round" stroke-dashoffset="0" fill-rule="evenodd"/>
                <path fill-opacity="0.48538011" display="inline" stroke="none" d="M 37.875 14.203125 C 37.875 14.203125 34.09375 14.15625 33.859375 14.171875 C 33.625 14.1875 33.46875 14.46875 33.46875 14.46875 C 33.46875 14.46875 38.59375 16.96875 38.71875 17.046877 C 38.84375 17.125 38.96875 17.40625 38.96875 17.40625 C 38.96875 17.40625 39.015625 17.0 38.78125 16.8125 C 38.546875 16.625 34.768433 14.638735 34.09375 14.390625 C 36.201206 14.213454 36.536457 14.260417 37.875 14.203125 z " visibility="visible" stroke-linecap="butt" transform="matrix(0.97258,0,0,1.014707,0.392838,-0.586934)" stroke-miterlimit="4" stroke-opacity="1" fill="#ffffff" stroke-width="1px" color="#000000" stroke-linejoin="miter" stroke-dashoffset="0" fill-rule="evenodd"/>
            </g>
        </g>
    </g>
</svg>
