<?xml version="1.0" encoding="UTF-8"?>
<svg xmlns="http://www.w3.org/2000/svg" xmlns:xlink="http://www.w3.org/1999/xlink" contentScriptType="text/ecmascript" width="88" baseProfile="tiny" zoomAndPan="magnify" contentStyleType="text/css" viewBox="0 0 88 87.999" height="87.999" preserveAspectRatio="xMidYMid meet" version="1.0">
    <defs>
        <linearGradient gradientTransform="matrix(1.072527,0,0,0.932378,0.5,0.75)" id="linearGradient2503" gradientUnits="userSpaceOnUse" xlink:show="other" xlink:type="simple" x1="11.562314" y1="8.0809259" y2="53.658985" x2="30.750120" xlink:actuate="onLoad">
            <stop stop-opacity="0.60824740" stop-color="#ffffff" offset="0.0000000"/>
            <stop stop-opacity="0" stop-color="#ffffff" offset="1"/>
        </linearGradient>
        <linearGradient gradientTransform="matrix(1.411264,0,0,0.708585,-1.517853,-5.016059)" id="linearGradient2479" gradientUnits="userSpaceOnUse" xlink:show="other" xlink:type="simple" x1="5.1625452" y1="50.805511" y2="50.805479" x2="26.171595" xlink:actuate="onLoad">
            <stop stop-opacity="1.0000000" stop-color="#adadad" offset="0.0000000"/>
            <stop stop-opacity="1.0000000" stop-color="#747474" offset="1.0000000"/>
        </linearGradient>
        <radialGradient gradientTransform="scale(1.287593,0.776643)" id="radialGradient19496" gradientUnits="userSpaceOnUse" xlink:show="other" xlink:type="simple" r="3.2488604" cx="30.873167" fx="30.873167" cy="31.265368" fy="31.265368" xlink:actuate="onLoad">
            <stop stop-opacity="1.0000000" stop-color="#ffffff" offset="0.0000000"/>
            <stop stop-opacity="1.0000000" stop-color="#939393" offset="1.0000000"/>
        </radialGradient>
        <radialGradient gradientTransform="scale(1.287593,0.776643)" id="radialGradient19494" gradientUnits="userSpaceOnUse" xlink:show="other" xlink:type="simple" r="3.2488604" cx="30.873167" fx="30.873167" cy="31.265368" fy="31.265368" xlink:actuate="onLoad">
            <stop stop-opacity="1.0000000" stop-color="#ffffff" offset="0.0000000"/>
            <stop stop-opacity="1.0000000" stop-color="#939393" offset="1.0000000"/>
        </radialGradient>
        <radialGradient gradientTransform="scale(1.287593,0.776643)" id="radialGradient19488" gradientUnits="userSpaceOnUse" xlink:show="other" xlink:type="simple" r="3.2488604" cx="30.873167" fx="30.873167" cy="31.265368" fy="31.265368" xlink:actuate="onLoad">
            <stop stop-opacity="1.0000000" stop-color="#ffffff" offset="0.0000000"/>
            <stop stop-opacity="1.0000000" stop-color="#939393" offset="1.0000000"/>
        </radialGradient>
        <radialGradient gradientTransform="scale(1.287593,0.776643)" id="radialGradient19480" gradientUnits="userSpaceOnUse" xlink:show="other" xlink:type="simple" r="3.2488604" cx="30.873167" fx="30.873167" cy="31.265368" fy="31.265368" xlink:actuate="onLoad">
            <stop stop-opacity="1.0000000" stop-color="#ffffff" offset="0.0000000"/>
            <stop stop-opacity="1.0000000" stop-color="#939393" offset="1.0000000"/>
        </radialGradient>
        <radialGradient gradientTransform="scale(1.357519,0.736638)" id="radialGradient19284" gradientUnits="userSpaceOnUse" xlink:show="other" xlink:type="simple" r="16.798437" cx="17.579761" fx="17.579761" cy="47.402553" fy="47.402553" xlink:actuate="onLoad">
            <stop stop-opacity="1" stop-color="#000000" offset="0"/>
            <stop stop-opacity="0" stop-color="#000000" offset="1"/>
        </radialGradient>
        <linearGradient gradientTransform="matrix(1.411264,0,0,0.708585,-1.517853,-6.857043)" id="linearGradient19243" gradientUnits="userSpaceOnUse" xlink:show="other" xlink:type="simple" x1="5.1625452" y1="50.805511" y2="50.805479" x2="26.171595" xlink:actuate="onLoad">
            <stop stop-opacity="1.0000000" stop-color="#adadad" offset="0.0000000"/>
            <stop stop-opacity="1.0000000" stop-color="#747474" offset="1.0000000"/>
        </linearGradient>
        <linearGradient gradientTransform="matrix(1.70088,0,0,0.587931,-1.374996,-7.214286)" id="linearGradient19175" gradientUnits="userSpaceOnUse" xlink:show="other" xlink:type="simple" x1="6.8835502" y1="56.288612" y2="68.766663" x2="16.294504" xlink:actuate="onLoad">
            <stop stop-opacity="1.0000000" stop-color="#aaaaaa" offset="0.0000000"/>
            <stop stop-opacity="1.0000000" stop-color="#505050" offset="1.0000000"/>
        </linearGradient>
        <radialGradient gradientTransform="scale(1.347925,0.741881)" id="radialGradient19161" gradientUnits="userSpaceOnUse" xlink:show="other" xlink:type="simple" r="26.594908" cx="25.940556" fx="25.940556" cy="41.706387" fy="41.706387" xlink:actuate="onLoad">
            <stop stop-opacity="1.0000000" stop-color="#adadad" offset="0.0000000"/>
            <stop stop-opacity="1.0000000" stop-color="#747474" offset="1.0000000"/>
        </radialGradient>
        <radialGradient gradientTransform="scale(1.347925,0.741881)" id="radialGradient19155" gradientUnits="userSpaceOnUse" xlink:show="other" xlink:type="simple" r="15.231354" cx="16.331211" fx="16.331211" cy="34.833511" fy="34.833511" xlink:actuate="onLoad">
            <stop stop-opacity="1.0000000" stop-color="#adadad" offset="0.0000000"/>
            <stop stop-opacity="1.0000000" stop-color="#747474" offset="1.0000000"/>
        </radialGradient>
        <linearGradient xlink:type="simple" xlink:actuate="onLoad" id="linearGradient19149" xlink:show="other">
            <stop stop-opacity="1.0000000" stop-color="#adadad" offset="0.0000000"/>
            <stop stop-opacity="1.0000000" stop-color="#747474" offset="1.0000000"/>
        </linearGradient>
        <linearGradient xlink:type="simple" xlink:actuate="onLoad" id="linearGradient19270" xlink:show="other">
            <stop stop-opacity="1.0000000" stop-color="#aaaaaa" offset="0.0000000"/>
            <stop stop-opacity="1.0000000" stop-color="#505050" offset="1.0000000"/>
        </linearGradient>
        <linearGradient xlink:type="simple" xlink:actuate="onLoad" id="linearGradient19278" xlink:show="other">
            <stop stop-opacity="1" stop-color="#000000" offset="0"/>
            <stop stop-opacity="0" stop-color="#000000" offset="1"/>
        </linearGradient>
        <linearGradient xlink:type="simple" xlink:actuate="onLoad" id="linearGradient19474" xlink:show="other">
            <stop stop-opacity="1.0000000" stop-color="#ffffff" offset="0.0000000"/>
            <stop stop-opacity="1.0000000" stop-color="#939393" offset="1.0000000"/>
        </linearGradient>
        <linearGradient xlink:type="simple" xlink:actuate="onLoad" id="linearGradient2497" xlink:show="other">
            <stop stop-opacity="0.60824740" stop-color="#ffffff" offset="0.0000000"/>
            <stop stop-opacity="0" stop-color="#ffffff" offset="1"/>
        </linearGradient>
    </defs>
    <g transform="matrix(1.6125231,0,0,1.6125231,5.9125485,9.9112531)">
        <path fill-opacity="1" display="inline" stroke="#4c4c4c" d="M 24.0625 5.583946 C 19.883144 5.583946 15.987925 6.392384 12.75 7.7401967 C 12.091421 7.430663 11.40059 7.1151967 10.53125 7.1151967 C 8.306759 7.1151967 6.5 8.302444 6.5 9.771446 C 6.5 10.288319 6.769623 10.76923 7.15625 11.177697 C 4.934063 13.221121 3.625 16.032282 3.625 18.6875 C 3.625 20.6985 4.423012 22.411724 5.75 24.104471 C 4.449857 24.65442 3.5625 25.572388 3.5625 27.108915 C 3.5625 28.816578 5.63286 30.202665 8.21875 30.202663 C 8.591863 30.202663 8.933265 30.100924 9.28125 30.046415 C 9.170532 30.417048 9.0625 30.78535 9.0625 31.171415 C 9.0625 31.867205 9.0625 32.70786 9.0625 33.40365 C 9.0625 37.615417 15.892816 41.02865 24.28125 41.02865 C 32.669685 41.02865 39.46875 37.615417 39.46875 33.40365 C 39.46875 32.706165 39.46875 31.868898 39.46875 31.171415 C 39.46875 30.763092 39.37306 30.374844 39.25 29.983915 C 39.77829 30.120373 40.33629 30.202663 40.9375 30.202663 C 43.523388 30.202663 45.713387 28.816578 45.713387 27.108915 C 45.713387 25.260727 44.352913 24.237474 42.59375 23.791971 C 43.7751 22.177336 44.46875 20.577984 44.46875 18.6875 C 44.46875 16.24939 43.337048 13.647412 41.4375 11.708947 C 42.19699 11.224865 42.6875 10.523021 42.6875 9.771446 C 42.6875 8.3024435 40.88074 7.1151967 38.65625 7.1151967 C 37.52379 7.1151967 36.513565 7.4305 35.78125 7.9276967 C 32.45678 6.46299 28.436228 5.583946 24.0625 5.583946 z " visibility="visible" stroke-linecap="butt" stroke-miterlimit="4" stroke-opacity="1" fill="url(#linearGradient2479)" stroke-width="2" color="#000000" stroke-linejoin="miter" stroke-dashoffset="0" fill-rule="evenodd"/>
        <path fill-opacity="1" display="inline" stroke="none" d="M 46.66905 34.91853 C 46.66905 41.752705 36.459263 47.2929 23.864855 47.2929 C 11.270447 47.2929 1.0606613 41.752705 1.0606613 34.91853 C 1.0606613 28.084354 11.270447 22.544159 23.864855 22.544159 C 36.459263 22.544159 46.66905 28.084354 46.66905 34.91853 z " visibility="visible" stroke-linecap="butt" transform="translate(0.332106,-0.646447)" stroke-miterlimit="4" stroke-opacity="1" fill="url(#radialGradient19284)" stroke-width="4" color="#000000" stroke-linejoin="miter" stroke-dashoffset="0" fill-rule="evenodd"/>
        <path fill-opacity="1" display="inline" stroke="none" d="M 24.294647 21.455456 C 15.906213 21.455456 9.075897 24.86869 9.075897 29.080456 C 9.075897 29.776245 9.075897 32.384666 9.075897 33.080456 C 9.075897 37.292225 15.906213 40.705456 24.294647 40.705456 C 32.683083 40.705456 39.482147 37.292225 39.482147 33.080456 C 39.482147 32.382973 39.482147 29.77794 39.482147 29.080456 C 39.482147 24.868692 32.683083 21.455456 24.294647 21.455456 z " visibility="visible" stroke-linecap="butt" stroke-miterlimit="4" stroke-opacity="1" fill="url(#linearGradient19243)" stroke-width="2" color="#000000" stroke-linejoin="miter" stroke-dashoffset="0" fill-rule="evenodd"/>
        <path fill-opacity="0.5964912" display="inline" stroke="none" d="M 39.142857 35.142857 C 39.144176 37.28682 36.421623 39.268158 32.001064 40.3403 C 27.58051 41.41244 22.133778 41.41244 17.71322 40.3403 C 13.292664 39.268158 10.57011 37.28682 10.571429 35.142857 C 10.57011 32.998894 13.292664 31.017553 17.71322 29.945412 C 22.133778 28.873272 27.58051 28.873272 32.001064 29.945412 C 36.421623 31.017553 39.144176 32.998894 39.142857 35.142857 z " visibility="visible" stroke-linecap="butt" transform="translate(-0.483935,-6.734736)" stroke-miterlimit="4" stroke-opacity="1" fill="#ffffff" stroke-width="4" color="#000000" stroke-linejoin="miter" stroke-dashoffset="0" fill-rule="evenodd"/>
        <path fill-opacity="1" display="inline" stroke="none" d="M 39.142857 35.142857 C 39.144176 37.28682 36.421623 39.268158 32.001064 40.3403 C 27.58051 41.41244 22.133778 41.41244 17.71322 40.3403 C 13.292664 39.268158 10.57011 37.28682 10.571429 35.142857 C 10.57011 32.998894 13.292664 31.017553 17.71322 29.945412 C 22.133778 28.873272 27.58051 28.873272 32.001064 29.945412 C 36.421623 31.017553 39.144176 32.998894 39.142857 35.142857 z " visibility="visible" stroke-linecap="butt" transform="translate(-0.660711,-6.9999)" stroke-miterlimit="4" stroke-opacity="1" fill="#afafaf" stroke-width="4" color="#000000" stroke-linejoin="miter" stroke-dashoffset="0" fill-rule="evenodd"/>
        <path fill-opacity="1" display="inline" stroke="none" d="M 43.482147 20.5 L 37.76786 30.071428 C 31.910719 34.785713 18.33929 35.071426 10.910718 30.214287 L 5.1964326 21.357143 L 43.482147 20.5 z " visibility="visible" stroke-linecap="butt" stroke-miterlimit="4" stroke-opacity="1" fill="url(#linearGradient19175)" stroke-width="2" color="#000000" stroke-linejoin="miter" stroke-dashoffset="0" fill-rule="evenodd"/>
        <path fill-opacity="1" display="inline" stroke="none" d="M 24.0625 6.306218 C 12.785933 6.306218 3.625 12.008361 3.625 19.056215 C 3.625 21.067217 4.423012 22.957216 5.75 24.649965 C 4.449857 25.199915 3.5625 26.117882 3.5625 27.212465 C 3.5625 28.920128 5.63286 30.306215 8.21875 30.306215 C 9.652973 30.306215 10.890466 29.852324 11.75 29.181215 C 15.181878 30.813627 19.420156 31.837465 24.0625 31.837465 C 29.019138 31.837465 33.492367 30.674744 37.03125 28.837465 C 37.860077 29.70923 39.264816 30.306215 40.9375 30.306215 C 43.523388 30.306215 45.625 28.920128 45.625 27.212465 C 45.625 25.894608 44.352913 24.782969 42.59375 24.337465 C 43.7751 22.722828 44.46875 20.9467 44.46875 19.056215 C 44.46875 12.008362 35.339066 6.306218 24.0625 6.306218 z " visibility="visible" stroke-linecap="butt" stroke-miterlimit="4" stroke-opacity="1" fill="#737373" stroke-width="2.23437405" color="#000000" stroke-linejoin="miter" stroke-dashoffset="0" fill-rule="evenodd"/>
        <path fill-opacity="1" display="inline" stroke="none" d="M 47.729706 28.819729 C 47.73046 29.925295 46.83775 30.947094 45.388027 31.500021 C 43.9383 32.052948 42.151947 32.052948 40.70222 31.500021 C 39.2525 30.947094 38.359787 29.925295 38.360542 28.819729 C 38.359787 27.714163 39.2525 26.692364 40.70222 26.139437 C 42.151947 25.58651 43.9383 25.58651 45.388027 26.139437 C 46.83775 26.692364 47.73046 27.714163 47.729706 28.819729 z " visibility="visible" stroke-linecap="butt" transform="translate(-34.81183,-2.226137)" stroke-miterlimit="4" stroke-opacity="1" fill="#cbcbcb" stroke-width="2.23437405" color="#000000" stroke-linejoin="miter" stroke-dashoffset="0" fill-rule="evenodd"/>
        <path fill-opacity="1" display="inline" stroke="none" d="M 47.729706 28.819729 C 47.73046 29.925295 46.83775 30.947094 45.388027 31.500021 C 43.9383 32.052948 42.151947 32.052948 40.70222 31.500021 C 39.2525 30.947094 38.359787 29.925295 38.360542 28.819729 C 38.359787 27.714163 39.2525 26.692364 40.70222 26.139437 C 42.151947 25.58651 43.9383 25.58651 45.388027 26.139437 C 46.83775 26.692364 47.73046 27.714163 47.729706 28.819729 z " visibility="visible" stroke-linecap="butt" transform="matrix(0.860242,0,0,0.860242,-26.51038,-14.90547)" stroke-miterlimit="4" stroke-opacity="1" fill="#cbcbcb" stroke-width="2.23437405" color="#000000" stroke-linejoin="miter" stroke-dashoffset="0" fill-rule="evenodd"/>
        <path fill-opacity="1" display="inline" stroke="none" d="M 43.857143 23.714285 C 43.8582 27.79776 40.37319 31.57133 34.715137 33.613255 C 29.057085 35.655186 22.085772 35.655186 16.42772 33.613255 C 10.769666 31.57133 7.2846584 27.79776 7.2857137 23.714285 C 7.2846584 19.63081 10.769666 15.857242 16.42772 13.815313 C 22.085772 11.773386 29.057085 11.773386 34.715137 13.815313 C 40.37319 15.857242 43.8582 19.63081 43.857143 23.714285 z " visibility="visible" stroke-linecap="butt" transform="matrix(1.117187,0,0,1.117187,-4.514504,-8.045078)" stroke-miterlimit="4" stroke-opacity="1" fill="#cbcbcb" stroke-width="2" color="#000000" stroke-linejoin="miter" stroke-dashoffset="0" fill-rule="evenodd"/>
        <path fill-opacity="1" display="inline" stroke="none" d="M 47.729706 28.819729 C 47.73046 29.925295 46.83775 30.947094 45.388027 31.500021 C 43.9383 32.052948 42.151947 32.052948 40.70222 31.500021 C 39.2525 30.947094 38.359787 29.925295 38.360542 28.819729 C 38.359787 27.714163 39.2525 26.692364 40.70222 26.139437 C 42.151947 25.58651 43.9383 25.58651 45.388027 26.139437 C 46.83775 26.692364 47.73046 27.714163 47.729706 28.819729 z " visibility="visible" stroke-linecap="butt" transform="translate(-2.104706,-2.226137)" stroke-miterlimit="4" stroke-opacity="1" fill="#cbcbcb" stroke-width="2.23437405" color="#000000" stroke-linejoin="miter" stroke-dashoffset="0" fill-rule="evenodd"/>
        <path fill-opacity="1" display="inline" stroke="none" d="M 47.729706 28.819729 C 47.73046 29.925295 46.83775 30.947094 45.388027 31.500021 C 43.9383 32.052948 42.151947 32.052948 40.70222 31.500021 C 39.2525 30.947094 38.359787 29.925295 38.360542 28.819729 C 38.359787 27.714163 39.2525 26.692364 40.70222 26.139437 C 42.151947 25.58651 43.9383 25.58651 45.388027 26.139437 C 46.83775 26.692364 47.73046 27.714163 47.729706 28.819729 z " visibility="visible" stroke-linecap="butt" transform="matrix(0.860242,0,0,0.860242,1.625659,-14.90547)" stroke-miterlimit="4" stroke-opacity="1" fill="#cbcbcb" stroke-width="2.23437405" color="#000000" stroke-linejoin="miter" stroke-dashoffset="0" fill-rule="evenodd"/>
        <path fill-opacity="1" display="inline" stroke="none" d="M 43.857143 23.714285 C 43.8582 27.79776 40.37319 31.57133 34.715137 33.613255 C 29.057085 35.655186 22.085772 35.655186 16.42772 33.613255 C 10.769666 31.57133 7.2846584 27.79776 7.2857137 23.714285 C 7.2846584 19.63081 10.769666 15.857242 16.42772 13.815313 C 22.085772 11.773386 29.057085 11.773386 34.715137 13.815313 C 40.37319 15.857242 43.8582 19.63081 43.857143 23.714285 z " visibility="visible" stroke-linecap="butt" transform="translate(-1.517853,-5.266059)" stroke-miterlimit="4" stroke-opacity="1" fill="url(#radialGradient19161)" stroke-width="2" color="#000000" stroke-linejoin="miter" stroke-dashoffset="0" fill-rule="evenodd"/>
        <path fill-opacity="1" display="inline" stroke="none" d="M 35.428574 28.071428 C 35.428574 30.872301 31.303196 33.142857 26.214287 33.142857 C 21.125378 33.142857 17.0 30.872301 17.0 28.071428 C 17.0 25.270555 21.125378 23.0 26.214287 23.0 C 31.303196 23.0 35.428574 25.270555 35.428574 28.071428 z " visibility="visible" stroke-linecap="butt" transform="matrix(0.901236,0,0,1.02817,0.552644,-6.002357)" stroke-miterlimit="4" stroke-opacity="1" fill="url(#radialGradient19155)" stroke-width="2" color="#000000" stroke-linejoin="miter" stroke-dashoffset="0" fill-rule="evenodd"/>
        <path fill-opacity="0.85964912" display="inline" stroke="none" d="M 38.839287 11.785714 C 50.385742 23.087751 25.849808 36.99874 8.276786 24.129463 C 11.43565 27.555058 17.281736 29.879463 24.058037 29.879463 C 34.151752 29.879463 42.339283 24.750536 42.339287 18.441963 C 42.339287 15.943648 41.01813 13.667046 38.839287 11.785714 z " visibility="visible" stroke-linecap="butt" stroke-miterlimit="4" stroke-opacity="1" fill="#ffffff" stroke-width="2" color="#000000" stroke-linejoin="miter" stroke-dashoffset="0" fill-rule="evenodd"/>
        <path fill-opacity="1" display="inline" stroke="none" d="M 43.39868 25.195808 C 43.39868 26.123304 42.152138 26.875189 40.61445 26.875189 C 39.076756 26.875189 37.83021 26.123304 37.83021 25.195808 C 37.83021 24.268312 39.076756 23.516428 40.61445 23.516428 C 42.152138 23.516428 43.39868 24.268312 43.39868 25.195808 z " visibility="visible" stroke-linecap="butt" transform="matrix(0.795827,0,0,0.947763,9.518711,3.245336)" stroke-miterlimit="4" stroke-opacity="1" fill="url(#radialGradient19480)" stroke-width="4" color="#000000" stroke-linejoin="miter" stroke-dashoffset="0" fill-rule="evenodd"/>
        <path fill-opacity="1" display="inline" stroke="none" d="M 43.39868 25.195808 C 43.39868 26.123304 42.152138 26.875189 40.61445 26.875189 C 39.076756 26.875189 37.83021 26.123304 37.83021 25.195808 C 37.83021 24.268312 39.076756 23.516428 40.61445 23.516428 C 42.152138 23.516428 43.39868 24.268312 43.39868 25.195808 z " visibility="visible" stroke-linecap="butt" transform="matrix(0.795827,0,0,0.947763,-24.91284,3.245336)" stroke-miterlimit="4" stroke-opacity="1" fill="url(#radialGradient19488)" stroke-width="4" color="#000000" stroke-linejoin="miter" stroke-dashoffset="0" fill-rule="evenodd"/>
        <path fill-opacity="1" display="inline" stroke="none" d="M 43.39868 25.195808 C 43.39868 26.123304 42.152138 26.875189 40.61445 26.875189 C 39.076756 26.875189 37.83021 26.123304 37.83021 25.195808 C 37.83021 24.268312 39.076756 23.516428 40.61445 23.516428 C 42.152138 23.516428 43.39868 24.268312 43.39868 25.195808 z " visibility="visible" stroke-linecap="butt" transform="matrix(0.672594,0,0,0.801003,12.18531,-11.0271)" stroke-miterlimit="4" stroke-opacity="1" fill="url(#radialGradient19494)" stroke-width="4" color="#000000" stroke-linejoin="miter" stroke-dashoffset="0" fill-rule="evenodd"/>
        <path fill-opacity="1" display="inline" stroke="none" d="M 43.39868 25.195808 C 43.39868 26.123304 42.152138 26.875189 40.61445 26.875189 C 39.076756 26.875189 37.83021 26.123304 37.83021 25.195808 C 37.83021 24.268312 39.076756 23.516428 40.61445 23.516428 C 42.152138 23.516428 43.39868 24.268312 43.39868 25.195808 z " visibility="visible" stroke-linecap="butt" transform="matrix(0.672594,0,0,0.801003,-17.56469,-11.0271)" stroke-miterlimit="4" stroke-opacity="1" fill="url(#radialGradient19496)" stroke-width="4" color="#000000" stroke-linejoin="miter" stroke-dashoffset="0" fill-rule="evenodd"/>
        <path fill-opacity="1" display="inline" stroke="url(#linearGradient2503)" d="M 24.083696 6.16755 C 20.0711 6.16755 16.0813 7.0687304 12.972569 8.362765 C 12.340267 8.065582 11.677 7.7627025 10.842347 7.7627025 C 8.7066145 7.7627025 7.096945 8.777578 7.096946 10.187968 C 7.096946 10.684216 7.48081 11.145939 7.8520103 11.538108 C 5.718489 13.499999 4.0866585 15.859547 4.0866585 18.408821 C 4.0866585 20.339584 5.2278295 22.654173 6.5018706 24.27938 C 5.253603 24.807384 4.026652 25.688725 4.026652 26.739635 C 4.026652 28.379162 6.3894043 29.709944 8.872117 29.709944 C 9.230342 29.709944 9.558122 29.612265 9.892222 29.559929 C 9.785922 29.915771 9.6822 30.26938 9.6822 30.64004 C 9.6822 31.308067 9.6822 32.133034 9.6822 32.80106 C 9.6822 36.844776 16.239985 40.12182 24.29372 40.12182 C 32.34745 40.121822 38.875233 36.844776 38.875233 32.80106 C 38.875233 32.13141 38.875233 31.309694 38.875233 30.64004 C 38.875233 30.248013 38.783363 29.875252 38.66521 29.499922 C 39.17242 29.630936 39.708157 29.709944 40.28538 29.709944 C 42.768093 29.709944 45.160847 28.379162 45.160847 26.739635 C 45.160847 25.47436 43.56452 24.407074 41.875546 23.979347 C 43.00976 22.429136 43.92573 20.223873 43.92573 18.408821 C 43.92573 16.067993 42.589188 13.909281 40.76543 12.048161 C 41.494617 11.583394 41.965557 10.909554 41.965557 10.187968 C 41.965557 8.777577 40.855885 7.7627034 38.720154 7.7627025 C 37.632877 7.7627025 36.66296 8.065425 35.959866 8.542784 C 32.76804 7.1365194 28.282911 6.1675496 24.083696 6.16755 z " visibility="visible" stroke-linecap="butt" stroke-miterlimit="4" stroke-opacity="1" fill="none" stroke-width="0.96009976" color="#000000" stroke-linejoin="miter" stroke-dashoffset="0" fill-rule="evenodd"/>
    </g>
</svg>
