<?xml version="1.0" encoding="UTF-8"?>
<svg xmlns="http://www.w3.org/2000/svg" xmlns:xlink="http://www.w3.org/1999/xlink" xmlns:sodipodi="http://sodipodi.sourceforge.net/DTD/sodipodi-0.dtd" contentScriptType="text/ecmascript" zoomAndPan="magnify" baseProfile="tiny" contentStyleType="text/css" version="1.0" width="48px" preserveAspectRatio="xMidYMid meet" viewBox="0 0 48 48" height="48px">
    <defs>
        <linearGradient x1="19.648342" gradientTransform="matrix(0.87827,0,0,0.87827,2.536988,4.967681)" y1="42.253601" x2="20.631224" gradientUnits="userSpaceOnUse" y2="6.7758031" xlink:type="simple" xlink:actuate="onLoad" id="linearGradient3055" xlink:show="other">
            <stop stop-opacity="1" stop-color="#b6b6b6" offset="0"/>
            <stop stop-opacity="1" stop-color="#f2f2f2" offset="0.5"/>
            <stop stop-opacity="1" stop-color="#fafafa" offset="0.67612958"/>
            <stop stop-opacity="1" stop-color="#d8d8d8" offset="0.84051722"/>
            <stop stop-opacity="1" stop-color="#f2f2f2" offset="0.875"/>
            <stop stop-opacity="1" stop-color="#dbdbdb" offset="1"/>
        </linearGradient>
        <linearGradient gradientTransform="matrix(1.1900424,0,0,1.1900424,27.442114,34.467761)" id="linearGradient2756" gradientUnits="userSpaceOnUse" xlink:show="other" xlink:type="simple" x1="19.648342" y1="42.253601" y2="6.7758031" x2="20.631224" xlink:actuate="onLoad">
            <stop stop-opacity="1" stop-color="#b6b6b6" offset="0"/>
            <stop stop-opacity="1" stop-color="#f2f2f2" offset="0.5"/>
            <stop stop-opacity="1" stop-color="#fafafa" offset="0.67612958"/>
            <stop stop-opacity="1" stop-color="#d8d8d8" offset="0.84051722"/>
            <stop stop-opacity="1" stop-color="#f2f2f2" offset="0.875"/>
            <stop stop-opacity="1" stop-color="#dbdbdb" offset="1"/>
        </linearGradient>
        <radialGradient gradientTransform="matrix(1,0,0,0.374558,0,24.47041)" id="radialGradient2260" gradientUnits="userSpaceOnUse" xlink:show="other" xlink:type="simple" r="17.6875" cx="24.8125" fx="24.8125" cy="39.125" fy="39.125" xlink:actuate="onLoad">
            <stop stop-opacity="1" stop-color="#000000" offset="0"/>
            <stop stop-opacity="0" stop-color="#000000" offset="1"/>
        </radialGradient>
        <radialGradient gradientTransform="matrix(1.0177534,0,0,0.2937036,47.094652,73.161826)" id="radialGradient2762" gradientUnits="userSpaceOnUse" xlink:show="other" xlink:type="simple" r="17.6875" cx="24.8125" fx="24.8125" cy="39.125" fy="39.125" xlink:actuate="onLoad">
            <stop stop-opacity="1" stop-color="#000000" offset="0"/>
            <stop stop-opacity="0" stop-color="#000000" offset="1"/>
        </radialGradient>
        <linearGradient xlink:type="simple" xlink:actuate="onLoad" id="linearGradient7197" xlink:show="other">
            <stop stop-opacity="1" stop-color="#000000" offset="0"/>
            <stop stop-opacity="0" stop-color="#000000" offset="1"/>
        </linearGradient>
        <linearGradient xlink:type="simple" xlink:actuate="onLoad" id="linearGradient8838" xlink:show="other">
            <stop stop-opacity="1" stop-color="#000000" offset="0"/>
            <stop stop-opacity="0" stop-color="#000000" offset="1"/>
        </linearGradient>
        <radialGradient gradientTransform="matrix(1,0,0,0.341176,0,3.047059)" id="linearGradient8838" gradientUnits="userSpaceOnUse" xlink:show="other" xlink:type="simple" r="10.625" cx="62.625" fx="62.625" cy="4.625" fy="4.625" xlink:actuate="onLoad">
            <stop stop-opacity="1" stop-color="#000000" offset="0"/>
            <stop stop-opacity="0" stop-color="#000000" offset="1"/>
        </radialGradient>
        <linearGradient xlink:type="simple" xlink:actuate="onLoad" id="linearGradient5048" xlink:show="other">
            <stop stop-opacity="0" stop-color="#000000" offset="0"/>
            <stop stop-opacity="1" stop-color="#000000" offset="0.5"/>
            <stop stop-opacity="0" stop-color="#000000" offset="1"/>
        </linearGradient>
        <linearGradient xlink:type="simple" xlink:actuate="onLoad" id="linearGradient2825" xlink:show="other">
            <stop stop-opacity="1" stop-color="#555753" offset="0"/>
            <stop stop-opacity="0" stop-color="#555753" offset="1"/>
        </linearGradient>
        <linearGradient xlink:type="simple" xlink:actuate="onLoad" id="linearGradient2781" xlink:show="other">
            <stop stop-opacity="1" stop-color="#babdb6" offset="0"/>
            <stop stop-opacity="0" stop-color="#888a85" offset="1"/>
        </linearGradient>
        <linearGradient xlink:type="simple" xlink:actuate="onLoad" id="linearGradient2760" xlink:show="other">
            <stop stop-opacity="1" stop-color="#555753" offset="0"/>
            <stop stop-opacity="0" stop-color="#555753" offset="1"/>
        </linearGradient>
        <linearGradient gradientTransform="matrix(4.372486e-2,0,0,4.94117e-2,8.196586,14.88328)" id="linearGradient2798" gradientUnits="userSpaceOnUse" xlink:show="other" xlink:type="simple" x1="302.85715" y1="366.64789" y2="609.50507" x2="302.85715" xlink:actuate="onLoad">
            <stop stop-opacity="0" stop-color="#000000" offset="0"/>
            <stop stop-opacity="1" stop-color="#000000" offset="0.5"/>
            <stop stop-opacity="0" stop-color="#000000" offset="1"/>
        </linearGradient>
        <radialGradient gradientTransform="matrix(4.372486e-2,0,0,4.94117e-2,8.205191,14.88328)" id="radialGradient2800" gradientUnits="userSpaceOnUse" xlink:show="other" xlink:type="simple" r="117.14286" cx="605.71429" fx="605.71429" cy="486.64789" fy="486.64789" xlink:actuate="onLoad">
            <stop stop-opacity="1" stop-color="#000000" offset="0"/>
            <stop stop-opacity="0" stop-color="#000000" offset="1"/>
        </radialGradient>
        <radialGradient gradientTransform="matrix(-4.372486e-2,0,0,4.94117e-2,39.7948,14.88328)" id="radialGradient2802" gradientUnits="userSpaceOnUse" xlink:show="other" xlink:type="simple" r="117.14286" cx="605.71429" fx="605.71429" cy="486.64789" fy="486.64789" xlink:actuate="onLoad">
            <stop stop-opacity="1" stop-color="#000000" offset="0"/>
            <stop stop-opacity="0" stop-color="#000000" offset="1"/>
        </radialGradient>
        <linearGradient x1="8.0709476" y1="48.705471" x2="15.535567" gradientUnits="userSpaceOnUse" y2="1.6899378" xlink:type="simple" xlink:actuate="onLoad" id="linearGradient2804" xlink:show="other">
            <stop stop-opacity="1" stop-color="#babdb6" offset="0"/>
            <stop stop-opacity="0" stop-color="#888a85" offset="1"/>
        </linearGradient>
        <linearGradient x1="41.254765" y1="40.666004" x2="1.4042226" gradientUnits="userSpaceOnUse" y2="4.4110031" xlink:type="simple" xlink:actuate="onLoad" id="linearGradient2806" xlink:show="other">
            <stop stop-opacity="1" stop-color="#555753" offset="0"/>
            <stop stop-opacity="0" stop-color="#555753" offset="1"/>
        </linearGradient>
        <linearGradient x1="28.590591" y1="18.790939" x2="8.4578934" gradientUnits="userSpaceOnUse" y2="4.914638" xlink:type="simple" xlink:actuate="onLoad" id="linearGradient2808" xlink:show="other">
            <stop stop-opacity="1" stop-color="#555753" offset="0"/>
            <stop stop-opacity="0" stop-color="#555753" offset="1"/>
        </linearGradient>
    </defs>
    <g>
        <g transform="matrix(0.7550069,0,0,0.7550069,5.8798352,5.50291)">
            <g transform="matrix(1.4375,0,0,0.416669,-10.49999,29.24992)" display="inline">
                <rect fill-opacity="0.40206185" display="inline" stroke="none" visibility="visible" stroke-linecap="round" width="21.112856" stroke-miterlimit="4" stroke-opacity="1" fill="url(#linearGradient2798)" stroke-dasharray="none" stroke-width="1" height="11.999987" x="13.443567" stroke-linejoin="miter" y="32.999989" stroke-dashoffset="0" fill-rule="nonzero"/>
                <path fill-opacity="0.40206185" display="inline" stroke="none" d="M 34.556423 33.0004 C 34.556423 33.0004 34.556423 44.99973 34.556423 44.99973 C 36.808144 45.022312 39.999992 42.311287 39.999992 38.99929 C 39.999992 35.687298 37.48724 33.0004 34.556423 33.0004 z " visibility="visible" stroke-linecap="round" stroke-miterlimit="4" stroke-opacity="1" fill="url(#radialGradient2800)" stroke-dasharray="none" stroke-width="1" stroke-linejoin="miter" stroke-dashoffset="0" fill-rule="nonzero"/>
                <path fill-opacity="0.40206185" display="inline" stroke="none" d="M 13.443568 33.0004 C 13.443568 33.0004 13.443568 44.99973 13.443568 44.99973 C 11.191846 45.022312 8.000001 42.311287 8.000001 38.99929 C 8.000001 35.687298 10.512752 33.0004 13.443568 33.0004 z " visibility="visible" stroke-linecap="round" stroke-miterlimit="4" stroke-opacity="1" fill="url(#radialGradient2802)" stroke-dasharray="none" stroke-width="1" stroke-linejoin="miter" stroke-dashoffset="0" fill-rule="nonzero"/>
            </g>
            <path fill-opacity="1" display="inline" stroke="#888a85" d="M 47.071426 24.785715 C 47.073696 32.851223 42.772102 40.30503 35.787548 44.33844 C 28.80299 48.37185 20.197008 48.37185 13.212451 44.33844 C 6.227895 40.30503 1.9263015 32.851223 1.9285716 24.785715 C 1.9263015 16.720207 6.227895 9.2664 13.212451 5.2329907 C 20.197008 1.1995815 28.80299 1.1995815 35.787548 5.2329907 C 42.772102 9.2664 47.073696 16.720207 47.071426 24.785715 z " visibility="visible" stroke-linecap="butt" transform="matrix(0.996904,0,0,0.996904,-0.424149,-0.70898)" stroke-miterlimit="4" stroke-opacity="1" fill="#ffffff" stroke-dasharray="none" stroke-width="1.00310552" stroke-linejoin="miter" stroke-dashoffset="0" fill-rule="evenodd"/>
            <path fill-opacity="1" display="inline" stroke="url(#linearGradient2806)" d="M 47.071426 24.785715 C 47.073696 32.851223 42.772102 40.30503 35.787548 44.33844 C 28.80299 48.37185 20.197008 48.37185 13.212451 44.33844 C 6.227895 40.30503 1.9263015 32.851223 1.9285716 24.785715 C 1.9263015 16.720207 6.227895 9.2664 13.212451 5.2329907 C 20.197008 1.1995815 28.80299 1.1995815 35.787548 5.2329907 C 42.772102 9.2664 47.073696 16.720207 47.071426 24.785715 z " visibility="visible" stroke-linecap="butt" transform="matrix(0.953563,0,0,0.953563,0.636153,0.363705)" stroke-miterlimit="4" stroke-opacity="1" fill="url(#linearGradient2804)" stroke-dasharray="none" stroke-width="1.04869807" stroke-linejoin="miter" stroke-dashoffset="0" fill-rule="evenodd"/>
            <path fill-opacity="1" display="inline" stroke="url(#linearGradient2808)" d="M 28.285713 15.964286 C 28.285713 24.106285 22.010763 31.074032 15.110764 31.074032 L 16.511375 24.327879 L 19.505608 24.337692 L 19.58241 29.323683 L 23.5323 21.958588 L 19.44425 15.134391 L 19.44425 19.886354 L 16.548605 19.879446 L 14.599944 11.647209 L 11.655641 11.647209 L 11.622559 15.595095 L 7.5358815 9.340801 L 11.489664 2.3447 L 11.57878 6.979831 L 14.439648 6.9797583 L 16.0273 1.0240546 L 16.337946 0.9970747 C 22.248144 0.4837673 28.285713 7.8222866 28.285713 15.964286 z " visibility="visible" stroke-linecap="butt" transform="matrix(1.64,0,0,1.389831,-1.88857,1.812348)" stroke-miterlimit="4" stroke-opacity="1" fill="#2e3436" stroke-width="0.66236478" stroke-linejoin="miter" stroke-dashoffset="0" fill-rule="evenodd"/>
        </g>
        <g transform="matrix(0.4199342,0,0,0.4199342,2.4401209,7.8430138)">
            <path fill-opacity="0.19886367" display="inline" stroke="none" d="M 90.34917 84.652985 C 90.34917 87.52205 82.28962 89.84787 72.34766 89.84787 C 62.405697 89.84787 54.346146 87.52205 54.346146 84.652985 C 54.346146 81.78393 62.405697 79.4581 72.34766 79.4581 C 82.28962 79.4581 90.34917 81.78393 90.34917 84.652985 z " visibility="visible" stroke-linecap="butt" stroke-miterlimit="4" stroke-opacity="1" fill="url(#radialGradient2762)" stroke-dasharray="none" stroke-width="1" color="#000000" stroke-linejoin="miter" stroke-dashoffset="0" fill-rule="nonzero"/>
            <path fill-opacity="1" display="inline" stroke="#888a85" d="M 48.267857 56.483543 L 74.002525 82.81323 C 75.043816 84.00328 78.34324 84.92303 80.54776 82.81323 C 82.676605 80.77586 82.184074 77.90431 80.10149 75.82174 L 55.408108 49.343292 C 58.456825 40.874638 52.286377 33.76155 44.32584 35.28591 L 42.61515 36.84784 L 47.970345 41.90552 L 48.267857 46.368183 L 44.26951 50.017975 L 39.491295 49.492046 L 34.582367 44.88063 C 34.582367 44.88063 32.861374 46.58101 32.861374 46.58101 C 32.0609 54.224903 40.05326 61.056618 48.267857 56.483543 z " visibility="visible" stroke-linecap="butt" stroke-miterlimit="4" stroke-opacity="1" fill="url(#linearGradient2756)" stroke-dasharray="none" stroke-width="1.35498428" color="#000000" stroke-linejoin="miter" stroke-dashoffset="0" fill-rule="nonzero"/>
            <path fill-opacity="0.42613639" display="inline" stroke="#ffffff" d="M 48.55331 54.75516 L 74.57293 81.89227 C 75.37901 82.81352 77.93319 83.52552 79.63978 81.89227 C 81.28778 80.31508 80.90649 78.092125 79.294304 76.47995 L 54.238564 49.893585 C 56.27104 41.086185 51.719933 36.337456 44.94501 36.50683 L 44.578987 36.87725 L 49.46089 41.262344 L 49.637268 46.928608 L 44.740463 51.398 L 38.992203 50.777138 L 34.687984 46.72373 L 34.210167 47.30645 C 33.78673 55.394016 43.006344 59.074173 48.55331 54.75516 z " visibility="visible" stroke-linecap="butt" stroke-miterlimit="4" stroke-opacity="0.63815792" fill="none" stroke-dasharray="none" stroke-width="1.35498357" color="#000000" stroke-linejoin="miter" stroke-dashoffset="0" fill-rule="nonzero"/>
            <rect fill-opacity="0.17045456" display="inline" stroke="#888a85" visibility="visible" stroke-linecap="butt" width="31.528152" transform="matrix(0.6979381,0.7161581,-0.7161581,0.6979381,0,0)" stroke-miterlimit="4" stroke-opacity="1" fill="none" stroke-dasharray="none" stroke-width="1.35498071" color="#000000" height="2.7851586" x="74.808182" stroke-linejoin="miter" rx="1.1976447" y="-1.3805491" ry="1.1976447" stroke-dashoffset="0" fill-rule="nonzero"/>
            <path fill-opacity="0.51973685" display="inline" stroke="#a1a1a1" d="M 78.762695 79.2431 C 78.762695 80.14681 78.03009 80.87942 77.12638 80.87942 C 76.22268 80.87942 75.49008 80.14681 75.49008 79.2431 C 75.49008 78.3394 76.22268 77.6068 77.12638 77.6068 C 78.03009 77.6068 78.762695 78.3394 78.762695 79.2431 z " visibility="visible" stroke-linecap="butt" stroke-miterlimit="4" stroke-opacity="1" fill="#ffffff" stroke-dasharray="none" stroke-width="1.35498428" color="#000000" stroke-linejoin="miter" stroke-dashoffset="0" fill-rule="nonzero"/>
        </g>
    </g>
</svg>
