<?xml version="1.0" encoding="UTF-8"?>
<svg xmlns="http://www.w3.org/2000/svg" xmlns:xlink="http://www.w3.org/1999/xlink" contentScriptType="text/ecmascript" width="100" baseProfile="tiny" zoomAndPan="magnify" contentStyleType="text/css" viewBox="0 0 100 100" height="100" preserveAspectRatio="xMidYMid meet" version="1.0">
    <defs>
        <linearGradient xlink:type="simple" xlink:actuate="onLoad" id="linearGradient3169" xlink:show="other">
            <stop stop-opacity="1" stop-color="#6e97ca" offset="0"/>
            <stop stop-opacity="1" stop-color="#638dc2" offset="1"/>
        </linearGradient>
        <linearGradient xlink:type="simple" xlink:actuate="onLoad" id="linearGradient3155" xlink:show="other">
            <stop stop-opacity="1" stop-color="#729acc" offset="0"/>
            <stop stop-opacity="1" stop-color="#7da3d4" offset="1"/>
        </linearGradient>
        <linearGradient x1="50" y1="50" x2="50" gradientUnits="userSpaceOnUse" y2="0" xlink:type="simple" xlink:actuate="onLoad" id="linearGradient3155" xlink:show="other">
            <stop stop-opacity="1" stop-color="#729acc" offset="0"/>
            <stop stop-opacity="1" stop-color="#7da3d4" offset="1"/>
        </linearGradient>
        <linearGradient gradientTransform="translate(-5.442543e-8,49.999998)" id="linearGradient3169" gradientUnits="userSpaceOnUse" xlink:show="other" xlink:type="simple" x1="46.261135" y1="-0.5" x2="46.261135" y2="50.5" xlink:actuate="onLoad">
            <stop stop-opacity="1" stop-color="#6e97ca" offset="0"/>
            <stop stop-opacity="1" stop-color="#638dc2" offset="1"/>
        </linearGradient>
    </defs>
    <g>
        <path stroke-linecap="butt" fill-opacity="1" fill="#86abd9" fill-rule="evenodd" stroke-linejoin="round" stroke-dasharray="none" d="M 10.78125 0.0 C 7.9213824 -0.0016386111 5.178178 1.1337136 3.1559455 3.1559455 C 1.1337136 5.178178 -0.0016386111 7.9213824 8.177655E-18 10.78125 L 0.0 89.21875 C -0.0016386111 92.07861 1.1337136 94.82182 3.1559455 96.844055 C 5.178178 98.86629 7.9213824 100.00164 10.78125 100.0 L 89.21875 100.0 C 92.07861 100.00164 94.82182 98.86629 96.844055 96.844055 C 98.86629 94.82182 100.00164 92.07861 100.0 89.21875 L 100.0 10.78125 C 100.00164 7.9213824 98.86629 5.178178 96.844055 3.1559455 C 94.82182 1.1337136 92.07861 -0.0016386111 89.21875 0.0 L 10.78125 0.0 z " stroke="none" stroke-width="21.54800034" stroke-opacity="1" stroke-miterlimit="4"/>
    </g>
</svg>
