<?xml version="1.0" encoding="UTF-8"?>
<svg xmlns="http://www.w3.org/2000/svg" xmlns:xlink="http://www.w3.org/1999/xlink" contentScriptType="text/ecmascript" width="88" baseProfile="tiny" zoomAndPan="magnify" contentStyleType="text/css" viewBox="0 0 88 88" height="88" preserveAspectRatio="xMidYMid meet" version="1.0">
    <defs>
        <radialGradient gradientTransform="matrix(1,0,0,0.201878,0,36.03783)" id="radialGradient4156" gradientUnits="userSpaceOnUse" xlink:show="other" xlink:type="simple" r="13.474453" cx="30.428225" fx="30.428225" cy="45.153286" fy="45.153286" xlink:actuate="onLoad">
            <stop stop-opacity="1" stop-color="#000000" offset="0"/>
            <stop stop-opacity="0" stop-color="#000000" offset="1"/>
        </radialGradient>
        <radialGradient gradientTransform="matrix(2.1402445,0,0,0.6056442,-21.123842,49.224588)" id="radialGradient17790" gradientUnits="userSpaceOnUse" xlink:show="other" xlink:type="simple" r="13.474453" cx="30.428225" fx="30.428225" cy="45.153286" fy="45.153286" xlink:actuate="onLoad">
            <stop stop-opacity="1" stop-color="#000000" offset="0"/>
            <stop stop-opacity="0" stop-color="#000000" offset="1"/>
        </radialGradient>
        <linearGradient xlink:type="simple" xlink:actuate="onLoad" id="linearGradient2257" xlink:show="other">
            <stop stop-color="#ef2929" offset="0"/>
            <stop stop-color="#cc0000" offset="1"/>
        </linearGradient>
        <linearGradient xlink:type="simple" xlink:actuate="onLoad" id="linearGradient3340" xlink:show="other">
            <stop stop-opacity="1" stop-color="#ffffff" offset="0"/>
            <stop stop-opacity="0" stop-color="#ffffff" offset="1"/>
        </linearGradient>
        <linearGradient xlink:type="simple" xlink:actuate="onLoad" id="linearGradient5464" xlink:show="other">
            <stop stop-opacity="1" stop-color="#729fcf" offset="0"/>
            <stop stop-opacity="1" stop-color="#afc9e4" offset="1"/>
        </linearGradient>
        <linearGradient gradientTransform="matrix(1.106909,-0.258404,0.259748,1.101665,-27.829632,-8.232804)" id="linearGradient17443" gradientUnits="userSpaceOnUse" xlink:show="other" xlink:type="simple" x1="21.587093" y1="23.499001" y2="2.8163671" x2="21.587093" xlink:actuate="onLoad">
            <stop stop-opacity="1" stop-color="#729fcf" offset="0"/>
            <stop stop-opacity="1" stop-color="#afc9e4" offset="1"/>
        </linearGradient>
        <linearGradient xlink:type="simple" xlink:actuate="onLoad" id="linearGradient5195" xlink:show="other">
            <stop stop-opacity="1" stop-color="#fef6b3" offset="0"/>
            <stop stop-opacity="1" stop-color="#dbc40b" offset="0.58336526"/>
            <stop stop-opacity="1" stop-color="#fff48f" offset="1"/>
        </linearGradient>
        <linearGradient xlink:type="simple" xlink:actuate="onLoad" xlink:show="other">
            <stop stop-opacity="1.0000000" stop-color="#8a8a8a" offset="0.0000000"/>
            <stop stop-opacity="1.0000000" stop-color="#484848" offset="1.0000000"/>
        </linearGradient>
        <linearGradient xlink:type="simple" xlink:actuate="onLoad" xlink:show="other">
            <stop stop-opacity="1" stop-color="#7d7d7d" offset="0"/>
            <stop stop-opacity="1.0000000" stop-color="#b1b1b1" offset="0.50000000"/>
            <stop stop-opacity="1.0000000" stop-color="#686868" offset="1.0000000"/>
        </linearGradient>
        <linearGradient xlink:type="simple" xlink:actuate="onLoad" id="linearGradient4454" xlink:show="other">
            <stop stop-opacity="0.01960784" stop-color="#729fcf" offset="0"/>
            <stop stop-opacity="0.40392157" stop-color="#729fcf" offset="1"/>
        </linearGradient>
        <linearGradient xlink:type="simple" xlink:actuate="onLoad" id="linearGradient4467" xlink:show="other">
            <stop stop-opacity="1" stop-color="#ffffff" offset="0"/>
            <stop stop-opacity="0.24761905" stop-color="#ffffff" offset="1.0000000"/>
        </linearGradient>
        <radialGradient gradientUnits="userSpaceOnUse" xlink:type="simple" r="29.889715" xlink:actuate="onLoad" cx="8.7468252" cy="6.8283234" xlink:show="other" fx="8.7468252" fy="6.8283234">
            <stop stop-opacity="1.0000000" stop-color="#9497b3" offset="0.0000000"/>
            <stop stop-opacity="1.0000000" stop-color="#4c4059" offset="1.0000000"/>
        </radialGradient>
        <linearGradient x1="19.667364" y1="4.2570662" x2="20.329933" gradientUnits="userSpaceOnUse" y2="5.2845874" xlink:type="simple" xlink:actuate="onLoad" xlink:show="other">
            <stop stop-opacity="1" stop-color="#c4a000" offset="0"/>
            <stop stop-opacity="0" stop-color="#c4a000" offset="1"/>
        </linearGradient>
        <radialGradient gradientTransform="matrix(3.63042,0,0,3.742066,-61.48607,-29.18618)" gradientUnits="userSpaceOnUse" xlink:type="simple" r="3.3478092" xlink:actuate="onLoad" cx="23.375" cy="10.972863" xlink:show="other" fx="23.375" fy="10.972863">
            <stop stop-opacity="1" stop-color="#c4a000" offset="0"/>
            <stop stop-opacity="0" stop-color="#c4a000" offset="1"/>
        </radialGradient>
        <linearGradient x1="6.3422160" y1="7.7893324" x2="22.218424" gradientUnits="userSpaceOnUse" y2="25.884274" xlink:type="simple" xlink:actuate="onLoad" xlink:show="other">
            <stop stop-opacity="1.0000000" stop-color="#a0a0a0" offset="0.0000000"/>
            <stop stop-opacity="1.0000000" stop-color="#ffffff" offset="1.0000000"/>
        </linearGradient>
        <radialGradient gradientUnits="userSpaceOnUse" xlink:type="simple" r="29.292715" xlink:actuate="onLoad" cx="11.901996" cy="10.045444" xlink:show="other" fx="11.901996" fy="10.045444">
            <stop stop-opacity="1.0000000" stop-color="#fffffd" offset="0.0000000"/>
            <stop stop-opacity="1.0000000" stop-color="#cbcbc9" offset="1.0000000"/>
        </radialGradient>
        <radialGradient gradientUnits="userSpaceOnUse" xlink:type="simple" r="15.532059" xlink:actuate="onLoad" cx="11.329200" cy="10.583970" xlink:show="other" fx="11.329200" fy="10.583970">
            <stop stop-opacity="1.0000000" stop-color="#f3f4ff" offset="0.0000000"/>
            <stop stop-opacity="1.0000000" stop-color="#9193af" offset="1.0000000"/>
        </radialGradient>
        <linearGradient x1="8.9156475" gradientTransform="matrix(3.123841,0,0,0.969691,-31.88758,-19.59492)" y1="37.197018" x2="9.8855033" gradientUnits="userSpaceOnUse" y2="52.090678" xlink:type="simple" xlink:actuate="onLoad" xlink:show="other">
            <stop stop-opacity="1.0000000" stop-color="#9aa29a" offset="0.0000000"/>
            <stop stop-opacity="1.0000000" stop-color="#b5beb5" offset="1.0000000"/>
        </linearGradient>
        <radialGradient gradientUnits="userSpaceOnUse" xlink:type="simple" r="8.6620579" xlink:actuate="onLoad" cx="31.112698" cy="19.008621" xlink:show="other" fx="31.112698" fy="19.008621">
            <stop stop-opacity="1" stop-color="#000000" offset="0"/>
            <stop stop-opacity="0" stop-color="#000000" offset="1"/>
        </radialGradient>
        <linearGradient xlink:type="simple" xlink:actuate="onLoad" xlink:show="other">
            <stop stop-opacity="1" stop-color="#000000" offset="0"/>
            <stop stop-opacity="0" stop-color="#000000" offset="1"/>
        </linearGradient>
        <linearGradient xlink:type="simple" xlink:actuate="onLoad" xlink:show="other">
            <stop stop-opacity="1.0000000" stop-color="#9aa29a" offset="0.0000000"/>
            <stop stop-opacity="1.0000000" stop-color="#b5beb5" offset="1.0000000"/>
        </linearGradient>
        <linearGradient xlink:type="simple" xlink:actuate="onLoad" xlink:show="other">
            <stop stop-opacity="1.0000000" stop-color="#9497b3" offset="0.0000000"/>
            <stop stop-opacity="1.0000000" stop-color="#4c4059" offset="1.0000000"/>
        </linearGradient>
        <linearGradient xlink:type="simple" xlink:actuate="onLoad" xlink:show="other">
            <stop stop-opacity="1.0000000" stop-color="#fffffd" offset="0.0000000"/>
            <stop stop-opacity="1.0000000" stop-color="#cbcbc9" offset="1.0000000"/>
        </linearGradient>
        <linearGradient xlink:type="simple" xlink:actuate="onLoad" xlink:show="other">
            <stop stop-opacity="1.0000000" stop-color="#a0a0a0" offset="0.0000000"/>
            <stop stop-opacity="1.0000000" stop-color="#ffffff" offset="1.0000000"/>
        </linearGradient>
        <linearGradient xlink:type="simple" xlink:actuate="onLoad" xlink:show="other">
            <stop stop-opacity="1.0000000" stop-color="#f3f4ff" offset="0.0000000"/>
            <stop stop-opacity="1.0000000" stop-color="#9193af" offset="1.0000000"/>
        </linearGradient>
        <linearGradient xlink:type="simple" xlink:actuate="onLoad" xlink:show="other">
            <stop stop-opacity="1.0000000" stop-color="#ffffff" offset="0.0000000"/>
            <stop stop-opacity="0.89108908" stop-color="#fff520" offset="0.50000000"/>
            <stop stop-opacity="0.0000000" stop-color="#fff300" offset="1.0000000"/>
        </linearGradient>
        <linearGradient xlink:type="simple" xlink:actuate="onLoad" xlink:show="other">
            <stop stop-opacity="1" stop-color="#c4a000" offset="0"/>
            <stop stop-opacity="0" stop-color="#c4a000" offset="1"/>
        </linearGradient>
        <linearGradient xlink:type="simple" xlink:actuate="onLoad" xlink:show="other">
            <stop stop-opacity="1" stop-color="#c4a000" offset="0"/>
            <stop stop-opacity="0" stop-color="#c4a000" offset="1"/>
        </linearGradient>
        <radialGradient gradientTransform="matrix(1.357654,0,0,1.357654,1.769896,-0.493735)" gradientUnits="userSpaceOnUse" xlink:type="simple" r="15.532059" xlink:actuate="onLoad" cx="11.329200" cy="10.583970" xlink:show="other" fx="11.329200" fy="10.583970">
            <stop stop-opacity="1.0000000" stop-color="#f3f4ff" offset="0.0000000"/>
            <stop stop-opacity="1.0000000" stop-color="#9193af" offset="1.0000000"/>
        </radialGradient>
        <linearGradient x1="19.667364" gradientTransform="matrix(1.769951,0,0,1.769951,-29.909696,1.610741)" y1="4.2570662" x2="20.329933" gradientUnits="userSpaceOnUse" y2="5.2845874" xlink:type="simple" xlink:actuate="onLoad" xlink:show="other">
            <stop stop-opacity="1" stop-color="#c4a000" offset="0"/>
            <stop stop-opacity="0" stop-color="#c4a000" offset="1"/>
        </linearGradient>
        <linearGradient x1="19.667364" gradientTransform="matrix(1.769951,0,0,1.769951,-17.02424,1.610741)" y1="4.2570662" x2="20.329933" gradientUnits="userSpaceOnUse" y2="5.2845874" xlink:type="simple" xlink:actuate="onLoad" xlink:show="other">
            <stop stop-opacity="1" stop-color="#c4a000" offset="0"/>
            <stop stop-opacity="0" stop-color="#c4a000" offset="1"/>
        </linearGradient>
        <linearGradient x1="6.3422160" gradientTransform="matrix(1.163838,0,0,1.163838,17.710257,2.777556)" y1="7.7893324" x2="22.218424" gradientUnits="userSpaceOnUse" y2="25.884274" xlink:type="simple" xlink:actuate="onLoad" xlink:show="other">
            <stop stop-opacity="1.0000000" stop-color="#a0a0a0" offset="0.0000000"/>
            <stop stop-opacity="1.0000000" stop-color="#ffffff" offset="1.0000000"/>
        </linearGradient>
        <linearGradient x1="6.3422160" gradientTransform="matrix(1.163838,0,0,1.163838,4.8248007,2.777556)" y1="7.7893324" x2="22.218424" gradientUnits="userSpaceOnUse" y2="25.884274" xlink:type="simple" xlink:actuate="onLoad" xlink:show="other">
            <stop stop-opacity="1.0000000" stop-color="#a0a0a0" offset="0.0000000"/>
            <stop stop-opacity="1.0000000" stop-color="#ffffff" offset="1.0000000"/>
        </linearGradient>
        <radialGradient gradientTransform="matrix(1.1507659,0,0,1.1503249,-1.1993352,-0.3654346)" id="radialGradient17427" gradientUnits="userSpaceOnUse" xlink:show="other" xlink:type="simple" r="7.6684914" cx="7.9549513" fx="7.9549513" cy="5.9379601" fy="5.9379601" xlink:actuate="onLoad">
            <stop stop-opacity="1" stop-color="#fef6b3" offset="0"/>
            <stop stop-opacity="1" stop-color="#dbc40b" offset="0.58336526"/>
            <stop stop-opacity="1" stop-color="#fff48f" offset="1"/>
        </radialGradient>
        <radialGradient gradientTransform="matrix(2.365562,0,0,2.202845,-30.72517,-34.23996)" id="radialGradient17503" gradientUnits="userSpaceOnUse" xlink:show="other" xlink:type="simple" r="14.537862" cx="22.5" fx="22.5" cy="28.116049" fy="28.116049" xlink:actuate="onLoad">
            <stop offset="0" stop-color="#ef2929"/>
            <stop offset="1" stop-color="#cc0000"/>
        </radialGradient>
        <radialGradient gradientTransform="matrix(2.0540119,0,0,1.1681231,27.682988,101.16123)" id="radialGradient17505" gradientUnits="userSpaceOnUse" xlink:show="other" xlink:type="simple" r="13" cx="21.929186" fx="21.929186" cy="-3.2182934" fy="-3.2182934" xlink:actuate="onLoad">
            <stop stop-opacity="1" stop-color="#ffffff" offset="0"/>
            <stop stop-opacity="0" stop-color="#ffffff" offset="1"/>
        </radialGradient>
        <radialGradient id="radialGradient17515" gradientUnits="userSpaceOnUse" xlink:show="other" xlink:type="simple" r="8.3085051" cx="18.240929" fx="18.240929" cy="21.817987" fy="21.817987" xlink:actuate="onLoad">
            <stop stop-opacity="0.01960784" stop-color="#729fcf" offset="0"/>
            <stop stop-opacity="0.40392157" stop-color="#729fcf" offset="1"/>
        </radialGradient>
        <radialGradient gradientTransform="matrix(5.5039595,0,0,4.7804344,-48.539608,-34.805589)" id="radialGradient17520" gradientUnits="userSpaceOnUse" xlink:show="other" xlink:type="simple" r="6.6562500" cx="15.414371" fx="15.414371" cy="13.078408" fy="13.078408" xlink:actuate="onLoad">
            <stop stop-opacity="1" stop-color="#ffffff" offset="0"/>
            <stop stop-opacity="0.24761905" stop-color="#ffffff" offset="1.0000000"/>
        </radialGradient>
    </defs>
    <path stroke-linecap="round" fill-opacity="0.44999994" display="inline" fill="url(#radialGradient17790)" stroke-linejoin="round" stroke-dasharray="none" d="M 72.83862 76.571434 C 72.83862 81.07847 59.92713 84.73216 44.0 84.73216 C 28.072866 84.73216 15.161374 81.07847 15.161374 76.571434 C 15.161374 72.064384 28.072866 68.410706 44.0 68.410706 C 59.92713 68.410706 72.83862 72.064384 72.83862 76.571434 z " stroke="none" stroke-width="1.79999995" stroke-opacity="1" stroke-miterlimit="4"/>
    <path fill-opacity="1" display="inline" stroke="#8a8a8a" d="M 44.193398 12.072249 C 26.916847 12.072249 12.895306 25.318388 12.895306 42.594936 C 12.895306 59.87148 26.916847 74.668434 44.193398 74.668434 C 61.09428 74.668434 75.10469 59.5906 75.10469 42.887924 C 75.10469 25.611376 61.46994 12.072249 44.193398 12.072249 z M 44.03289 14.675011 C 60.24881 14.675011 72.24671 24.83938 72.24671 42.887924 C 72.24671 61.302174 59.899895 71.10265 44.03289 71.10265 C 28.531265 71.10265 15.819073 59.474564 15.819073 42.88883 C 15.819073 25.941343 28.182756 14.675011 44.03289 14.675011 z " visibility="visible" stroke-linecap="round" stroke-miterlimit="10" stroke-opacity="1" fill="#dcdcdc" stroke-dasharray="none" stroke-width="6.38062572000000030" stroke-linejoin="miter" stroke-dashoffset="0" fill-rule="evenodd"/>
    <path fill-opacity="1" display="inline" stroke="none" d="M 44.14104 11.938098 C 26.808647 11.938098 12.741778 26.004969 12.741778 43.33736 C 12.741778 60.66975 26.808647 74.736626 44.14104 74.736626 C 61.881207 74.73363 75.14409 57.961674 75.540306 43.33736 C 75.540306 26.004969 61.47343 11.938098 44.14104 11.938098 z M 43.98002 18.701015 C 57.31263 18.701015 68.13329 29.521685 68.13329 42.854298 C 68.13329 56.186905 57.31263 67.00757 43.98002 67.00757 C 30.64741 67.00757 19.82674 56.186905 19.82674 42.854298 C 19.82674 29.521685 30.64741 18.701015 43.98002 18.701015 z " visibility="visible" stroke-linecap="round" stroke-miterlimit="10" stroke-opacity="1" fill="#dcdcdc" stroke-dasharray="none" stroke-width="1.00000036" stroke-linejoin="miter" stroke-dashoffset="0" fill-rule="evenodd"/>
    <path fill-opacity="1" display="inline" stroke="#ffffff" d="M 28.549437 18.920233 C 28.549437 25.022175 23.602835 29.968777 17.500893 29.968777 C 11.398951 29.968777 6.4523487 25.022175 6.4523487 18.920233 C 6.4523487 12.818291 11.398951 7.871689 17.500893 7.871689 C 23.602835 7.871689 28.549437 12.818291 28.549437 18.920233 z " visibility="visible" stroke-linecap="round" transform="matrix(2.6442795,0,0,2.6442795,-2.6172821,-7.7121199)" stroke-miterlimit="10" stroke-opacity="0.39215686" fill="none" stroke-dasharray="none" stroke-width="1.20643401" stroke-linejoin="miter" stroke-dashoffset="0" fill-rule="evenodd"/>
    <g transform="translate(3.636053e-7,-52.571429)">
        <path fill-opacity="1" display="inline" stroke="#c4a000" d="M 7.954952 15.20505 C 7.218873 15.20505 6.082224 10.958749 5.5617375 10.438263 C 5.0412507 9.917776 0.79494953 8.781128 0.79494953 8.045049 C 0.79494953 7.3089695 5.041251 6.1723213 5.5617375 5.651835 C 6.082224 5.1313486 7.218872 0.88504696 7.9549513 0.88504696 C 8.6910305 0.88504696 9.827679 5.1313486 10.348165 5.651835 C 10.868652 6.1723213 15.114953 7.3089695 15.114953 8.045049 C 15.114953 8.781128 10.868652 9.917776 10.348165 10.438263 C 9.827679 10.958749 8.6910305 15.20505 7.954952 15.20505 z " visibility="visible" stroke-linecap="butt" transform="matrix(3.0842382,0,0,3.0850906,19.465035,70.227917)" stroke-miterlimit="4" stroke-opacity="1" fill="url(#radialGradient17427)" stroke-dasharray="none" stroke-width="0.51159608px" stroke-linejoin="miter" stroke-dashoffset="0" fill-rule="nonzero"/>
        <path fill-opacity="0.5" display="inline" stroke="#ffffff" d="M 44.06035 74.697495 C 43.678368 75.579994 43.366215 76.229485 42.97417 77.22278 C 42.13599 79.346436 41.222855 81.559875 40.43977 83.47586 C 40.04824 84.43385 39.752014 85.3229 39.353607 86.12139 C 38.955185 86.91991 38.636787 87.55715 37.664 88.52642 C 36.68398 89.50294 36.054398 89.815735 35.250294 90.20996 C 34.446182 90.60417 33.557663 90.90762 32.595196 91.29222 C 30.670277 92.06142 28.330263 92.87674 26.198864 93.69725 C 25.24962 94.062675 24.636211 94.42184 23.78514 94.77951 C 24.670835 95.16012 25.32267 95.47115 26.31954 95.86179 C 28.450865 96.69695 30.67231 97.60681 32.595196 98.38707 C 33.556656 98.77719 34.4489 99.07234 35.250294 99.46934 C 36.05168 99.86632 36.691223 100.18356 37.664 101.15285 C 38.636787 102.12214 38.955185 102.75938 39.353607 103.5579 C 39.752014 104.3564 40.04824 105.24544 40.43977 106.20343 C 41.222855 108.1194 42.13599 110.33285 42.97417 112.45651 C 43.366215 113.4498 43.678368 114.0993 44.06035 114.98179 C 44.419315 114.13378 44.779774 113.52259 45.146523 112.57677 C 45.969994 110.45302 46.788258 108.12142 47.56023 106.20343 C 47.946217 105.24443 48.250774 104.3591 48.646408 103.5579 C 49.042034 102.75668 49.35597 102.12937 50.336 101.15285 C 51.308792 100.18356 51.948334 99.86632 52.749725 99.46934 C 53.5511 99.07234 54.44336 98.77719 55.404804 98.38707 C 57.327705 97.60681 59.549137 96.69695 61.680454 95.86179 C 62.677345 95.47115 63.32918 95.16012 64.21486 94.77951 C 63.36379 94.42184 62.750397 94.062675 61.80115 93.69725 C 59.66975 92.87674 57.329723 92.06142 55.404804 91.29222 C 54.44235 90.90762 53.553818 90.60417 52.749725 90.20996 C 51.94562 89.815735 51.316036 89.50294 50.336 88.52642 C 49.35597 87.54993 49.042034 86.9226 48.646408 86.12139 C 48.250774 85.32019 47.946217 84.43486 47.56023 83.47586 C 46.788258 81.55785 45.969994 79.22626 45.146523 77.10253 C 44.779774 76.156685 44.419315 75.54549 44.06035 74.697495 z " visibility="visible" stroke-linecap="round" stroke-miterlimit="4" stroke-opacity="1" fill="none" stroke-dasharray="none" stroke-width="1.57810235" stroke-linejoin="round" stroke-dashoffset="0" fill-rule="nonzero"/>
        <g transform="matrix(0.4749587,0,0,0.4749587,45.776029,86.373176)">
            <path fill-opacity="1" display="inline" stroke="#173563" d="M -1.5703614 20.25308 L -7.2841344 15.599544 L -19.73504 30.78324 L -23.54422 27.680883 L -31.489489 52.865223 L -10.212084 38.539135 L -14.021269 35.43678 L -1.5703614 20.25308 z " visibility="visible" stroke-linecap="butt" stroke-miterlimit="4" stroke-opacity="1" fill="#386ea7" stroke-dasharray="none" stroke-width="1.0938834" stroke-linejoin="miter" stroke-dashoffset="0" fill-rule="nonzero"/>
            <path fill-opacity="1" display="inline" stroke="#3465a4" d="M -6.81312 14.811328 L -0.917588 19.606192 L 11.92939 3.961363 L 15.859745 7.15794 L 24.057764 -18.791248 L 2.103506 -4.030077 L 6.033858 -0.833501 L -6.81312 14.811328 z " visibility="visible" stroke-linecap="butt" stroke-miterlimit="4" stroke-opacity="1" fill="url(#linearGradient17443)" stroke-dasharray="none" stroke-width="0.99999911" stroke-linejoin="miter" stroke-dashoffset="0" fill-rule="nonzero"/>
        </g>
        <g transform="matrix(0.661435,0,0,0.661435,-6.3950473,23.600831)">
            <path fill-opacity="1" display="inline" stroke="#cc0000" d="M 36.5 22.0 C 36.5 29.1797 30.231987 35.0 22.5 35.0 C 14.768014 35.0 8.5 29.1797 8.5 22.0 C 8.5 14.820298 14.768014 9.0 22.5 9.0 C 30.231987 9.0 36.5 14.820298 36.5 22.0 z " visibility="visible" stroke-linecap="square" transform="matrix(0.5023635,0,0,0.542131,64.887297,95.490271)" stroke-miterlimit="4" stroke-opacity="1" fill="url(#radialGradient17503)" stroke-dasharray="none" stroke-width="1.0757246" stroke-linejoin="round" stroke-dashoffset="0" fill-rule="evenodd"/>
            <path stroke-linecap="butt" fill-opacity="0.6" display="inline" fill="url(#radialGradient17505)" fill-rule="evenodd" stroke-linejoin="miter" d="M 76.10794 100.68051 C 72.582695 100.72519 69.70565 103.48299 69.47656 106.96102 C 72.911026 108.37391 77.26323 106.14633 82.46818 105.06248 C 82.08171 103.51946 79.91122 100.68051 76.195656 100.68051 C 76.16663 100.68051 76.13688 100.68015 76.10794 100.68051 z " stroke="none" stroke-width="0.25pt" stroke-opacity="1"/>
        </g>
    </g>
    <path fill-opacity="1" stroke="#3063a3" d="M 25.897785 18.478292 C 25.899529 21.447796 24.316317 24.192478 21.744942 25.677732 C 19.173565 27.162989 16.004995 27.162989 13.43362 25.677732 C 10.862245 24.192478 9.279034 21.447796 9.280776 18.478292 C 9.279034 15.508788 10.862245 12.764108 13.43362 11.278852 C 16.004995 9.793597 19.173565 9.793597 21.744942 11.278852 C 24.316317 12.764108 25.899529 15.508788 25.897785 18.478292 z " visibility="visible" stroke-linecap="round" transform="matrix(2.9687716,0,0,2.9687716,-8.5585707,-12.216229)" stroke-miterlimit="10" stroke-opacity="1" fill="url(#radialGradient17515)" stroke-width="1.07456946000000000" stroke-linejoin="miter" stroke-dashoffset="0" fill-rule="evenodd"/>
    <path fill-opacity="0.83422457" display="inline" stroke="none" d="M 43.19436 21.100183 C 32.140457 21.100183 23.18932 30.05132 23.18932 41.105225 C 23.18932 44.29764 24.081488 47.234962 25.412102 49.91403 C 28.070473 50.89387 30.8944 51.56053 33.89161 51.56053 C 46.9904 51.56053 57.451523 41.240967 58.25988 28.344809 C 54.585648 24.002855 49.323433 21.100183 43.19436 21.100183 z " visibility="visible" stroke-linecap="round" stroke-miterlimit="10" stroke-opacity="1" fill="url(#radialGradient17520)" stroke-dasharray="none" stroke-width="1" stroke-linejoin="miter" stroke-dashoffset="0" fill-rule="evenodd"/>
</svg>
