<?xml version="1.0" encoding="UTF-8"?>
<svg xmlns="http://www.w3.org/2000/svg" xmlns:xlink="http://www.w3.org/1999/xlink" contentScriptType="text/ecmascript" width="84" baseProfile="tiny" zoomAndPan="magnify" contentStyleType="text/css" viewBox="0 0 84 72" height="72" preserveAspectRatio="xMidYMid meet" version="1.1">
    <defs>
        <linearGradient gradientTransform="matrix(-1,0,0,1,48,0)" id="linearGradient7552" gradientUnits="userSpaceOnUse" xlink:show="other" xlink:type="simple" x1="24" y1="19.505583" y2="19.550226" x2="19.982143" xlink:actuate="onLoad">
            <stop offset="0" stop-color="#888a85"/>
            <stop stop-opacity="0" stop-color="#d3d7cf" offset="1"/>
        </linearGradient>
        <linearGradient gradientTransform="matrix(-1,0,0,1,48,0)" id="linearGradient7550" gradientUnits="userSpaceOnUse" xlink:show="other" xlink:type="simple" x1="24" y1="19.996655" y2="19.90625" x2="32" xlink:actuate="onLoad">
            <stop offset="0" stop-color="#babdb6"/>
            <stop stop-opacity="0" stop-color="#d3d7cf" offset="1"/>
        </linearGradient>
        <linearGradient x1="19.940901" y1="10.918805" x2="24" gradientUnits="userSpaceOnUse" y2="22.750927" xlink:type="simple" xlink:actuate="onLoad" id="linearGradient7548" xlink:show="other">
            <stop stop-opacity="1" stop-color="#cccccc" offset="0"/>
            <stop stop-opacity="1" stop-color="#9b9b9b" offset="1"/>
        </linearGradient>
        <linearGradient x1="15.714286" y1="16.82852" x2="36.482143" gradientUnits="userSpaceOnUse" y2="20.667807" xlink:type="simple" xlink:actuate="onLoad" id="linearGradient7546" xlink:show="other">
            <stop stop-opacity="1" stop-color="#ffffff" offset="0"/>
            <stop stop-opacity="1" stop-color="#e3e3e3" offset="1"/>
        </linearGradient>
        <linearGradient x1="6.7230334" y1="37.683041" x2="37.804565" gradientUnits="userSpaceOnUse" y2="29.096745" xlink:type="simple" xlink:actuate="onLoad" id="linearGradient7544" xlink:show="other">
            <stop stop-opacity="1" stop-color="#ffffff" offset="0"/>
            <stop stop-opacity="0" stop-color="#ffffff" offset="1"/>
        </linearGradient>
        <linearGradient x1="37.535713" y1="34.196426" x2="9.9285688" gradientUnits="userSpaceOnUse" y2="20.089285" xlink:type="simple" xlink:actuate="onLoad" id="linearGradient7542" xlink:show="other">
            <stop stop-opacity="1" stop-color="#babdb6" offset="0"/>
            <stop stop-opacity="1" stop-color="#8f9488" offset="1"/>
        </linearGradient>
        <radialGradient gradientTransform="matrix(1,0,0,0.3,0,25.725)" id="radialGradient7540" gradientUnits="userSpaceOnUse" xlink:show="other" xlink:type="simple" r="22.5" cx="24" fx="24" cy="36.75" fy="36.75" xlink:actuate="onLoad">
            <stop offset="0" stop-color="#555753"/>
            <stop stop-opacity="0" stop-color="#555753" offset="1"/>
        </radialGradient>
        <radialGradient gradientTransform="matrix(2.592963,-7.7469e-24,-5.714443e-24,2.252104,-25.05975,-18.941)" id="linearGradient4467" gradientUnits="userSpaceOnUse" xlink:show="other" xlink:type="simple" r="6.6562500" cx="15.414371" fx="15.414371" cy="13.078408" fy="13.078408" xlink:actuate="onLoad">
            <stop stop-opacity="1" stop-color="#ffffff" offset="0"/>
            <stop stop-opacity="0.24761905" stop-color="#ffffff" offset="1.0000000"/>
        </radialGradient>
        <radialGradient id="linearGradient4454" gradientUnits="userSpaceOnUse" xlink:show="other" xlink:type="simple" r="8.3085051" cx="18.240929" fx="18.240929" cy="21.817987" fy="21.817987" xlink:actuate="onLoad">
            <stop stop-opacity="0.20784314" stop-color="#729fcf" offset="0.0000000"/>
            <stop stop-opacity="0.67619050" stop-color="#729fcf" offset="1.0000000"/>
        </radialGradient>
        <linearGradient x1="18.292673" y1="13.602121" x2="17.500893" gradientUnits="userSpaceOnUse" y2="25.743469" xlink:type="simple" xlink:actuate="onLoad" id="linearGradient2366" xlink:show="other">
            <stop stop-opacity="1" stop-color="#ffffff" offset="0"/>
            <stop stop-opacity="0.21904762" stop-color="#ffffff" offset="0.50000000"/>
            <stop stop-opacity="1.0000000" stop-color="#ffffff" offset="1.0000000"/>
        </linearGradient>
        <linearGradient gradientTransform="matrix(1.334593,0,0,1.291292,-6.973842,-7.460658)" id="linearGradient4440" gradientUnits="userSpaceOnUse" xlink:show="other" xlink:type="simple" x1="30.656250" y1="34.000000" x2="33.218750" y2="31.062500" xlink:actuate="onLoad">
            <stop stop-opacity="1" stop-color="#7d7d7d" offset="0"/>
            <stop stop-opacity="1.0000000" stop-color="#b1b1b1" offset="0.50000000"/>
            <stop stop-opacity="1.0000000" stop-color="#686868" offset="1.0000000"/>
        </linearGradient>
        <linearGradient x1="27.366341" y1="26.580296" x2="31.335964" gradientUnits="userSpaceOnUse" y2="30.557772" xlink:type="simple" xlink:actuate="onLoad" id="linearGradient2846" xlink:show="other">
            <stop stop-opacity="1.0000000" stop-color="#8a8a8a" offset="0.0000000"/>
            <stop stop-opacity="1.0000000" stop-color="#484848" offset="1.0000000"/>
        </linearGradient>
        <radialGradient gradientTransform="matrix(1,0,0,0.237968,-1.864568e-14,28.93278)" id="linearGradient4477" gradientUnits="userSpaceOnUse" xlink:show="other" xlink:type="simple" r="16.528622" cx="24.130018" fx="24.130018" cy="37.967922" fy="37.967922" xlink:actuate="onLoad">
            <stop stop-opacity="1" stop-color="#000000" offset="0"/>
            <stop stop-opacity="0" stop-color="#000000" offset="1"/>
        </radialGradient>
        <linearGradient xlink:type="simple" xlink:actuate="onLoad" id="linearGradient2184" xlink:show="other">
            <stop stop-opacity="1" stop-color="#ffffff" offset="0"/>
            <stop stop-opacity="1" stop-color="#e3e3e3" offset="1"/>
        </linearGradient>
        <linearGradient xlink:type="simple" xlink:actuate="onLoad" id="linearGradient2221" xlink:show="other">
            <stop stop-color="#babdb6" offset="0"/>
            <stop stop-opacity="0" stop-color="#d3d7cf" offset="1"/>
        </linearGradient>
        <linearGradient xlink:type="simple" xlink:actuate="onLoad" id="linearGradient2229" xlink:show="other">
            <stop stop-color="#888a85" offset="0"/>
            <stop stop-opacity="0" stop-color="#d3d7cf" offset="1"/>
        </linearGradient>
        <linearGradient xlink:type="simple" xlink:actuate="onLoad" id="linearGradient2235" xlink:show="other">
            <stop stop-opacity="1" stop-color="#cccccc" offset="0"/>
            <stop stop-opacity="1" stop-color="#9b9b9b" offset="1"/>
        </linearGradient>
        <linearGradient xlink:type="simple" xlink:actuate="onLoad" id="linearGradient2276" xlink:show="other">
            <stop stop-opacity="1" stop-color="#babdb6" offset="0"/>
            <stop stop-opacity="1" stop-color="#8f9488" offset="1"/>
        </linearGradient>
        <linearGradient xlink:type="simple" xlink:actuate="onLoad" id="linearGradient2286" xlink:show="other">
            <stop stop-color="#555753" offset="0"/>
            <stop stop-opacity="0" stop-color="#555753" offset="1"/>
        </linearGradient>
        <linearGradient xlink:type="simple" xlink:actuate="onLoad" id="linearGradient2309" xlink:show="other">
            <stop stop-opacity="1" stop-color="#ffffff" offset="0"/>
            <stop stop-opacity="0" stop-color="#ffffff" offset="1"/>
        </linearGradient>
        <linearGradient xlink:type="simple" xlink:actuate="onLoad" id="linearGradient4477" xlink:show="other">
            <stop stop-opacity="1" stop-color="#000000" offset="0"/>
            <stop stop-opacity="0" stop-color="#000000" offset="1"/>
        </linearGradient>
        <linearGradient xlink:type="simple" xlink:actuate="onLoad" id="linearGradient2846" xlink:show="other">
            <stop stop-opacity="1.0000000" stop-color="#8a8a8a" offset="0.0000000"/>
            <stop stop-opacity="1.0000000" stop-color="#484848" offset="1.0000000"/>
        </linearGradient>
        <linearGradient xlink:type="simple" xlink:actuate="onLoad" id="linearGradient4440" xlink:show="other">
            <stop stop-opacity="1" stop-color="#7d7d7d" offset="0"/>
            <stop stop-opacity="1.0000000" stop-color="#b1b1b1" offset="0.50000000"/>
            <stop stop-opacity="1.0000000" stop-color="#686868" offset="1.0000000"/>
        </linearGradient>
        <linearGradient xlink:type="simple" xlink:actuate="onLoad" id="linearGradient2366" xlink:show="other">
            <stop stop-opacity="1" stop-color="#ffffff" offset="0"/>
            <stop stop-opacity="0.21904762" stop-color="#ffffff" offset="0.50000000"/>
            <stop stop-opacity="1.0000000" stop-color="#ffffff" offset="1.0000000"/>
        </linearGradient>
        <linearGradient xlink:type="simple" xlink:actuate="onLoad" id="linearGradient4454" xlink:show="other">
            <stop stop-opacity="0.20784314" stop-color="#729fcf" offset="0.0000000"/>
            <stop stop-opacity="0.67619050" stop-color="#729fcf" offset="1.0000000"/>
        </linearGradient>
        <linearGradient xlink:type="simple" xlink:actuate="onLoad" id="linearGradient4467" xlink:show="other">
            <stop stop-opacity="1" stop-color="#ffffff" offset="0"/>
            <stop stop-opacity="0.24761905" stop-color="#ffffff" offset="1.0000000"/>
        </linearGradient>
        <linearGradient x1="42.1875" y1="31" x2="45" gradientUnits="userSpaceOnUse" y2="39.984692" xlink:type="simple" xlink:actuate="onLoad" id="linearGradient8177" xlink:show="other">
            <stop stop-opacity="1" stop-color="#bbbdba" offset="0"/>
            <stop stop-opacity="1" stop-color="#70746e" offset="1"/>
        </linearGradient>
        <linearGradient gradientTransform="translate(5.14757,-3.034792)" id="linearGradient8169" gradientUnits="userSpaceOnUse" xlink:show="other" xlink:type="simple" x1="35.996582" y1="40.458221" y2="37.770721" x2="33.664921" xlink:actuate="onLoad">
            <stop stop-opacity="1" stop-color="#7c7c7c" offset="0"/>
            <stop stop-opacity="1" stop-color="#b8b8b8" offset="1"/>
        </linearGradient>
        <linearGradient gradientTransform="translate(5.14757,-3.409792)" id="linearGradient8166" gradientUnits="userSpaceOnUse" xlink:show="other" xlink:type="simple" x1="33.396004" y1="36.921333" y2="38.070381" x2="34.170048" xlink:actuate="onLoad">
            <stop stop-opacity="1" stop-color="#ffffff" offset="0"/>
            <stop stop-opacity="0" stop-color="#ffffff" offset="1"/>
        </linearGradient>
        <radialGradient gradientTransform="matrix(1.710531,0,0,1.124849,-11.56833,1.802582)" id="radialGradient8161" gradientUnits="userSpaceOnUse" xlink:show="other" xlink:type="simple" r="19.96875" cx="12.700491" fx="12.700491" cy="10.404876" fy="10.404876" xlink:actuate="onLoad">
            <stop stop-opacity="1" stop-color="#ffffff" offset="0"/>
            <stop stop-opacity="0" stop-color="#ffffff" offset="1"/>
        </radialGradient>
        <linearGradient gradientTransform="matrix(1.434003,0,0,0.990087,52.32167,2.838918)" id="linearGradient8148" gradientUnits="userSpaceOnUse" stroke-miterlimit="4.0000000" xlink:show="other" xlink:type="simple" stroke-dasharray="none" x1="12.4873" y1="3.7319" stroke-width="1.2166667" y2="36.0328" x2="31.0813" xlink:actuate="onLoad">
            <stop stop-color="#d2d2d2" stroke-dasharray="none" stroke-width="1.2166667" stroke-miterlimit="4.0000000" offset="0"/>
            <stop stop-color="#ededed" stroke-dasharray="none" stroke-width="1.2166667" stroke-miterlimit="4.0000000" offset="1"/>
        </linearGradient>
        <linearGradient gradientTransform="matrix(1.098989,0,0,1.106697,-1.953865,-4.922453)" id="linearGradient7673" gradientUnits="userSpaceOnUse" stroke-miterlimit="4.0000000" xlink:show="other" xlink:type="simple" stroke-dasharray="none" x1="21.9326" y1="24.6274" stroke-width="1.2166667" y2="7.1091" x2="21.9326" xlink:actuate="onLoad">
            <stop stop-color="#d0d6e5" stroke-dasharray="none" stroke-width="1.2166667" stroke-miterlimit="4.0000000" offset="0"/>
            <stop stop-color="#093a80" stroke-dasharray="none" stroke-width="1.2166667" stroke-miterlimit="4.0000000" offset="1"/>
        </linearGradient>
        <linearGradient gradientTransform="matrix(1.098989,0,0,-0.797757,-1.953865,37.324)" id="linearGradient7671" gradientUnits="userSpaceOnUse" stroke-miterlimit="4.0000000" xlink:show="other" xlink:type="simple" stroke-dasharray="none" x1="21.9326" y1="24.627399" stroke-width="1.2166667" y2="7.1090999" x2="21.9326" xlink:actuate="onLoad">
            <stop stop-opacity="1" stop-color="#8595bc" offset="0"/>
            <stop stop-opacity="1" stop-color="#041a3b" offset="1"/>
        </linearGradient>
        <radialGradient gradientTransform="matrix(1.000000,0.000000,0.000000,0.184000,0.000000,33.97501)" id="linearGradient12129" gradientUnits="userSpaceOnUse" xlink:show="other" xlink:type="simple" r="22.097088" cx="24.218407" fx="24.218407" cy="41.636040" fy="41.636040" xlink:actuate="onLoad">
            <stop stop-opacity="1" stop-color="#000000" offset="0"/>
            <stop stop-opacity="0" stop-color="#000000" offset="1"/>
        </radialGradient>
        <linearGradient id="aigrd3" gradientUnits="userSpaceOnUse" stroke-miterlimit="4.0000000" xlink:show="other" xlink:type="simple" stroke-dasharray="none" y1="24.6274" x1="21.9326" y2="7.1091" x2="21.9326" stroke-width="1.2166667" xlink:actuate="onLoad">
            <stop stroke-width="1.2166667" stroke-miterlimit="4.0000000" stroke-dasharray="none" stop-color="#d0d6e5" offset="0"/>
            <stop stroke-width="1.2166667" stroke-miterlimit="4.0000000" stroke-dasharray="none" stop-color="#093a80" offset="1"/>
        </linearGradient>
        <linearGradient gradientUnits="userSpaceOnUse" stroke-miterlimit="4.0000000" xlink:show="other" xlink:type="simple" stroke-dasharray="none" x1="21.877" y1="30.3413" y2="22.5769" x2="21.9168" stroke-width="1.2166667" xlink:actuate="onLoad">
            <stop stop-opacity="1.0000000" stop-color="#5e4f07" offset="0.0000000"/>
            <stop stop-opacity="1.0000000" stop-color="#348a31" offset="1.0000000"/>
        </linearGradient>
        <linearGradient id="aigrd1" gradientUnits="userSpaceOnUse" stroke-miterlimit="4.0000000" xlink:show="other" xlink:type="simple" stroke-dasharray="none" y1="3.7319" x1="12.4873" y2="36.0328" x2="31.0813" stroke-width="1.2166667" xlink:actuate="onLoad">
            <stop stroke-width="1.2166667" stroke-miterlimit="4.0000000" stroke-dasharray="none" stop-color="#d2d2d2" offset="0"/>
            <stop stroke-width="1.2166667" stroke-miterlimit="4.0000000" stroke-dasharray="none" stop-color="#ededed" offset="1"/>
        </linearGradient>
        <linearGradient xlink:type="simple" xlink:actuate="onLoad" id="linearGradient12129" xlink:show="other">
            <stop stop-opacity="1" stop-color="#000000" offset="0"/>
            <stop stop-opacity="0" stop-color="#000000" offset="1"/>
        </linearGradient>
        <linearGradient xlink:type="simple" xlink:actuate="onLoad" xlink:show="other">
            <stop stop-opacity="1.0000000" stop-color="#715b26" offset="0.0000000"/>
            <stop stop-opacity="1.0000000" stop-color="#312710" offset="1.0000000"/>
        </linearGradient>
        <linearGradient id="linearGradient7648" gradientUnits="userSpaceOnUse" stroke-miterlimit="4.0000000" xlink:show="other" xlink:type="simple" stroke-dasharray="none" y1="24.6274" x1="21.9326" y2="7.1091" x2="21.9326" stroke-width="1.2166667" xlink:actuate="onLoad">
            <stop stop-opacity="1" stop-color="#8595bc" offset="0"/>
            <stop stop-opacity="1" stop-color="#041a3b" offset="1"/>
        </linearGradient>
        <linearGradient xlink:type="simple" xlink:actuate="onLoad" id="linearGradient2251" xlink:show="other">
            <stop stop-opacity="1" stop-color="#ffffff" offset="0"/>
            <stop stop-opacity="0" stop-color="#ffffff" offset="1"/>
        </linearGradient>
        <linearGradient xlink:type="simple" xlink:actuate="onLoad" id="linearGradient2224" xlink:show="other">
            <stop stop-opacity="1" stop-color="#7c7c7c" offset="0"/>
            <stop stop-opacity="1" stop-color="#b8b8b8" offset="1"/>
        </linearGradient>
        <linearGradient xlink:type="simple" xlink:actuate="onLoad" id="linearGradient8155" xlink:show="other">
            <stop stop-opacity="1" stop-color="#ffffff" offset="0"/>
            <stop stop-opacity="0" stop-color="#ffffff" offset="1"/>
        </linearGradient>
        <linearGradient xlink:type="simple" xlink:actuate="onLoad" id="linearGradient8171" xlink:show="other">
            <stop stop-opacity="1" stop-color="#bbbdba" offset="0"/>
            <stop stop-opacity="1" stop-color="#70746e" offset="1"/>
        </linearGradient>
        <linearGradient gradientTransform="matrix(2.774389,0,0,1.969706,-1892.179,-872.8854)" id="linearGradient6715" gradientUnits="userSpaceOnUse" xlink:show="other" xlink:type="simple" x1="302.85715" y1="366.64789" y2="609.50507" x2="302.85715" xlink:actuate="onLoad">
            <stop stop-opacity="0" stop-color="#000000" offset="0"/>
            <stop stop-opacity="1" stop-color="#000000" offset="0.5"/>
            <stop stop-opacity="0" stop-color="#000000" offset="1"/>
        </linearGradient>
        <linearGradient xlink:type="simple" xlink:actuate="onLoad" id="linearGradient5048" xlink:show="other">
            <stop stop-opacity="0" stop-color="#000000" offset="0"/>
            <stop stop-opacity="1" stop-color="#000000" offset="0.5"/>
            <stop stop-opacity="0" stop-color="#000000" offset="1"/>
        </linearGradient>
        <radialGradient gradientTransform="matrix(2.774389,0,0,1.969706,-1891.633,-872.8854)" id="radialGradient6717" gradientUnits="userSpaceOnUse" xlink:show="other" xlink:type="simple" r="117.14286" cx="605.71429" fx="605.71429" cy="486.64789" fy="486.64789" xlink:actuate="onLoad">
            <stop stop-opacity="1" stop-color="#000000" offset="0"/>
            <stop stop-opacity="0" stop-color="#000000" offset="1"/>
        </radialGradient>
        <linearGradient xlink:type="simple" xlink:actuate="onLoad" id="linearGradient5060" xlink:show="other">
            <stop stop-opacity="1" stop-color="#000000" offset="0"/>
            <stop stop-opacity="0" stop-color="#000000" offset="1"/>
        </linearGradient>
        <radialGradient gradientTransform="matrix(-2.774389,0,0,1.969706,112.7623,-872.8854)" id="radialGradient6719" gradientUnits="userSpaceOnUse" xlink:show="other" xlink:type="simple" r="117.14286" cx="605.71429" fx="605.71429" cy="486.64789" fy="486.64789" xlink:actuate="onLoad">
            <stop stop-opacity="1" stop-color="#000000" offset="0"/>
            <stop stop-opacity="0" stop-color="#000000" offset="1"/>
        </radialGradient>
    </defs>
    <g transform="matrix(1.5192058,0,0,1.5192058,5.8247633,-5.2428371)">
        <g transform="matrix(1.0365688,0,0,1.0365688,-0.8776515,2.9605111)">
            <path fill-opacity="0.50196078" display="block" stroke="none" d="M 46.5 36.75 C 46.5 40.47792 36.426407 43.5 24.0 43.5 C 11.573593 43.5 1.5 40.47792 1.5 36.75 C 1.5 33.02208 11.573593 30.0 24.0 30.0 C 36.426407 30.0 46.5 33.02208 46.5 36.75 z " visibility="visible" stroke-linecap="round" transform="matrix(1.066667,0,0,0.962963,-1.600001,1.111111)" stroke-miterlimit="4" stroke-opacity="1" fill="url(#radialGradient7540)" stroke-dasharray="none" stroke-width="1" color="#000000" stroke-linejoin="miter" stroke-dashoffset="17.85" fill-rule="nonzero"/>
            <path fill-opacity="1" display="block" stroke="#3e263b" d="M 4.5 11.5 L 43.5 11.5 L 47.5 38.5 L 29.0 38.5 L 28.0 37.5 C 26.0 39.0 22.0 39.0 20.0 37.5 L 19.0 38.5 L 0.5 38.5 L 4.5 11.5 z " visibility="visible" id="rect1304" stroke-linecap="round" stroke-miterlimit="4" stroke-opacity="1" fill="#523856" stroke-dasharray="none" stroke-width="1" color="#000000" stroke-linejoin="round" stroke-dashoffset="17.85" fill-rule="nonzero"/>
            <path fill-opacity="0.13333333" display="block" stroke="#ffffff" d="M 5.28125 12.40625 L 1.5625 37.59375 L 18.59375 37.59375 L 19.34375 36.84375 C 19.667152 36.507336 20.191452 36.467007 20.5625 36.75 C 21.327469 37.323727 22.653015 37.71875 24.0 37.71875 C 25.346985 37.71875 26.672531 37.323727 27.4375 36.75 C 27.808548 36.467007 28.332848 36.507336 28.65625 36.84375 L 29.40625 37.59375 L 46.4375 37.59375 L 42.71875 12.40625 L 5.28125 12.40625 z " visibility="visible" stroke-linecap="round" stroke-miterlimit="4" stroke-opacity="1" fill="none" stroke-dasharray="none" stroke-width="1" color="#000000" stroke-linejoin="round" xlink:href="#rect1304" stroke-dashoffset="17.85" fill-rule="nonzero"/>
            <path fill-opacity="1" stroke="#888a85" d="M 2.0 36.5 C 7.666667 36.5 16.0 35.0 19.0 36.5 C 22.0 34.0 26.0 34.0 29.0 36.5 C 32.0 35.0 41.0 36.5 46.0 36.5 L 45.5 34.0 C 38.5 31.5 29.0 28.5 24.0 33.0 C 19.0 28.5 9.5 31.5 2.5 34.0 L 2.0 36.5 z " id="path2180" stroke-linecap="butt" stroke-miterlimit="4" stroke-opacity="1" fill="url(#linearGradient7542)" stroke-dasharray="none" stroke-width="1" stroke-linejoin="miter" fill-rule="evenodd"/>
            <path fill-opacity="0.30196078" stroke="url(#linearGradient7544)" d="M 14.125 31.9375 C 10.58845 32.39383 6.767423 33.623882 3.40625 34.8125 L 3.3125 35.375 C 5.8346972 35.295406 8.678905 35.038338 11.4375 34.875 C 14.331687 34.703632 16.846628 34.699177 18.78125 35.40625 C 20.133116 34.409775 21.661646 33.894157 23.21875 33.75 C 21.053265 31.84142 17.820494 31.460663 14.125 31.9375 z M 28.6875 31.9375 C 27.15954 32.214977 25.855251 32.803413 24.78125 33.75 C 26.338354 33.894157 27.866884 34.409775 29.21875 35.40625 C 31.197569 34.6847 33.83505 34.703224 36.8125 34.875 C 39.629963 35.037544 42.386124 35.2625 44.6875 35.34375 L 44.59375 34.8125 C 41.232574 33.623882 37.41155 32.39383 33.875 31.9375 C 32.012337 31.697157 30.240328 31.655508 28.6875 31.9375 z " stroke-linecap="butt" stroke-miterlimit="4" stroke-opacity="1" fill="none" stroke-dasharray="none" stroke-width="1" stroke-linejoin="miter" xlink:href="#path2180" fill-rule="evenodd"/>
            <path fill-opacity="1" stroke="url(#linearGradient7548)" d="M 2.5 34.0 C 9.0 31.5 20.0 29.0 24.0 33.0 C 28.0 29.0 39.0 31.5 45.5 34.0 L 42.5 10.5 C 37.0 8.0 27.5 6.0 24.0 9.0 C 20.0 6.0 12.0 8.0 5.5 10.5 L 2.5 34.0 z " id="path2182" stroke-linecap="butt" stroke-miterlimit="4" stroke-opacity="1" fill="url(#linearGradient7546)" stroke-dasharray="none" stroke-width="1" stroke-linejoin="miter" fill-rule="evenodd"/>
            <path fill-opacity="1" display="block" stroke="none" d="M 24.0 9.5 C 22.0 8.0 19.5 7.5 16.0 8.0 L 16.0 30.5 C 18.0 29.5 22.0 30.5 24.0 32.5 L 24.0 9.5 z " visibility="visible" stroke-linecap="round" stroke-miterlimit="4" stroke-opacity="1" fill="url(#linearGradient7550)" stroke-width="1" color="#000000" stroke-linejoin="miter" stroke-dashoffset="17.85" fill-rule="nonzero"/>
            <path fill-opacity="1" display="block" stroke="none" d="M 24.0 9.5 C 25.221264 8.803878 26.327772 7.906932 28.0 8.0 L 29.0 30.5 C 27.5 30.0 25.5 31.5 24.0 32.5 L 24.0 9.5 z " visibility="visible" stroke-linecap="round" stroke-miterlimit="4" stroke-opacity="1" fill="url(#linearGradient7552)" stroke-width="1" color="#000000" stroke-linejoin="miter" stroke-dashoffset="17.85" fill-rule="nonzero"/>
            <path fill-opacity="0.65098039" stroke="#ffffff" d="M 17.0 8.5 C 13.686857 8.771486 9.831006 9.909934 6.34375 11.21875 L 3.59375 32.65625 C 6.7156262 31.555996 10.446534 30.517776 14.09375 30.125 C 17.9428 29.710487 21.586231 30.019594 24.0 31.90625 C 26.413769 30.019594 30.0572 29.710487 33.90625 30.125 C 37.553463 30.517776 41.284374 31.555996 44.40625 32.65625 L 41.65625 11.1875 C 39.04206 10.053977 35.59032 8.995665 32.375 8.59375 C 28.988396 8.170424 25.951176 8.555242 24.59375 9.71875 C 24.262672 9.997242 23.783138 10.010203 23.4375 9.75 C 22.596584 9.119313 21.522982 8.711392 20.21875 8.53125 C 19.242489 8.396407 18.155605 8.405307 17.0 8.5 z " stroke-linecap="butt" stroke-miterlimit="4" stroke-opacity="1" fill="none" stroke-dasharray="none" stroke-width="1" stroke-linejoin="miter" xlink:href="#path2182" fill-rule="evenodd"/>
        </g>
    </g>
    <g transform="matrix(1.0603807,0,0,1.0603807,33.257379,24.870838)">
        <g transform="matrix(2.175112e-2,0,0,2.493263e-2,42.41049,33.81117)" display="inline">
            <rect fill-opacity="0.40206185" display="inline" stroke="none" visibility="visible" stroke-linecap="round" width="1339.6335" stroke-miterlimit="4" stroke-opacity="1" fill="url(#linearGradient6715)" stroke-dasharray="none" stroke-width="1" color="#000000" height="478.35718" x="-1559.2523" stroke-linejoin="miter" y="-150.69685" stroke-dashoffset="0" fill-rule="nonzero"/>
            <path fill-opacity="0.40206185" display="inline" stroke="none" d="M -219.61876 -150.68037 C -219.61876 -150.68037 -219.61876 327.6504 -219.61876 327.6504 C -76.74459 328.55087 125.78146 220.48076 125.78138 88.45424 C 125.78138 -43.572304 -33.655437 -150.68036 -219.61876 -150.68037 z " visibility="visible" stroke-linecap="round" stroke-miterlimit="4" stroke-opacity="1" fill="url(#radialGradient6717)" stroke-dasharray="none" stroke-width="1" color="#000000" stroke-linejoin="miter" stroke-dashoffset="0" fill-rule="nonzero"/>
            <path fill-opacity="0.40206185" display="inline" stroke="none" d="M -1559.2523 -150.68037 C -1559.2523 -150.68037 -1559.2523 327.6504 -1559.2523 327.6504 C -1702.1263 328.55087 -1904.6523 220.48076 -1904.6523 88.45424 C -1904.6523 -43.572304 -1745.2156 -150.68036 -1559.2523 -150.68037 z " visibility="visible" stroke-linecap="round" stroke-miterlimit="4" stroke-opacity="1" fill="url(#radialGradient6719)" stroke-dasharray="none" stroke-width="1" color="#000000" stroke-linejoin="miter" stroke-dashoffset="0" fill-rule="nonzero"/>
        </g>
        <path fill-opacity="1" display="inline" stroke="#bbbfbb" d="M 2.7177715 6.454775 L 43.379543 6.454775 C 44.002792 6.454775 44.504543 6.956525 44.504543 7.5797744 L 44.504543 31.48058 C 44.504543 32.103832 36.04784 39.49987 35.42459 39.49987 L 2.7177715 39.49987 C 2.094522 39.49987 1.5927727 38.99812 1.5927727 38.37487 L 1.5927727 7.5797744 C 1.5927727 6.956525 2.094522 6.454775 2.7177715 6.454775 z " visibility="visible" stroke-linecap="butt" stroke-miterlimit="4" stroke-opacity="1" fill="url(#linearGradient8148)" stroke-width="0.99999994" color="#000000" stroke-linejoin="miter" stroke-dashoffset="0" fill-rule="nonzero"/>
        <g transform="matrix(1.054774,0,0,1.049989,-0.814647,4.485012)">
            <path fill-opacity="1" fill="url(#linearGradient7671)" fill-rule="nonzero" d="M 5.512695 30.0 L 39.64323 30.0 L 39.64323 19.627377 L 5.512695 19.627377 L 5.512695 30.0 z " stroke="none" stroke-width="1.2166667" stroke-miterlimit="4"/>
            <path fill="url(#linearGradient7673)" fill-rule="nonzero" d="M 5.512695 5.237844 L 39.64323 5.237844 L 39.64323 19.627377 L 5.512695 19.627377 L 5.512695 5.237844 z " stroke="none" stroke-width="1.2166667" stroke-miterlimit="4"/>
            <g stroke-width="1.15611064" stroke-miterlimit="4" fill-rule="nonzero" transform="matrix(1.189217,0,0,1.189217,-3.525355,-6.535408)" stroke="#000000">
                <g>
                    <path fill="#e8f52f" d="M 18.4 15.4 C 18.4 17.6 16.6 19.5 14.3 19.5 C 12.1 19.5 10.2 17.7 10.2 15.4 C 10.2 13.2 12.0 11.3 14.3 11.3 C 16.5 11.3 18.4 13.1 18.4 15.4 z " fill-opacity="0.04999994" stroke-opacity="0.04999994" stroke="none"/>
                    <path fill="#ecf751" d="M 18.0 15.4 C 18.0 17.4 16.4 19.1 14.3 19.1 C 12.3 19.1 10.6 17.5 10.6 15.4 C 10.6 13.4 12.2 11.7 14.3 11.7 C 16.3 11.7 18.0 13.3 18.0 15.4 L 18.0 15.4 z " fill-opacity="0.20829994" stroke-opacity="0.20829994" stroke="none"/>
                    <path fill="#f0f972" d="M 17.6 15.4 C 17.6 17.2 16.1 18.7 14.3 18.7 C 12.5 18.7 11.0 17.2 11.0 15.4 C 11.0 13.6 12.5 12.1 14.3 12.1 C 16.1 12.1 17.6 13.6 17.6 15.4 L 17.6 15.4 z " fill-opacity="0.36669994" stroke-opacity="0.36669994" stroke="none"/>
                    <path fill="#f4fa95" d="M 17.2 15.4 C 17.2 17.0 15.9 18.3 14.3 18.3 C 12.7 18.3 11.4 17.0 11.4 15.4 C 11.4 13.8 12.7 12.5 14.3 12.5 C 15.9 12.5 17.2 13.8 17.2 15.4 z " fill-opacity="0.525" stroke-opacity="0.525" stroke="none"/>
                    <path fill="#f7fcb7" d="M 16.8 15.4 C 16.8 16.8 15.7 17.9 14.3 17.9 C 12.9 17.9 11.8 16.8 11.8 15.4 C 11.8 14.0 12.9 12.9 14.3 12.9 C 15.7 12.9 16.8 14.0 16.8 15.4 L 16.8 15.4 z " fill-opacity="0.6833" stroke-opacity="0.6833" stroke="none"/>
                    <path fill="#fbfddb" d="M 16.4 15.4 C 16.4 16.6 15.4 17.5 14.3 17.5 C 13.2 17.5 12.2 16.5 12.2 15.4 C 12.2 14.3 13.2 13.3 14.3 13.3 C 15.4 13.3 16.4 14.3 16.4 15.4 z " fill-opacity="0.8417" stroke-opacity="0.8417" stroke="none"/>
                    <path fill="#ffffff" d="M 16.0 15.4 C 16.0 16.4 15.2 17.2 14.2 17.2 C 13.2 17.2 12.4 16.4 12.4 15.4 C 12.4 14.4 13.2 13.6 14.2 13.6 C 15.2 13.6 16.0 14.4 16.0 15.4 L 16.0 15.4 z " stroke="none"/>
                </g>
            </g>
            <path fill-opacity="0.3" fill-rule="nonzero" d="M 25.01586 21.649044 L 33.697147 21.649044 L 35.362053 22.124731 L 32.50793 22.124731 C 32.50793 22.124731 35.362053 22.362574 36.789116 24.1464 C 38.216175 25.811304 35.12421 27.832975 35.12421 27.832975 C 35.12421 27.832975 35.12421 27.832975 35.12421 27.832975 C 35.005287 27.47621 34.291756 24.622087 32.864697 23.43287 C 31.7944 22.481497 30.605183 22.243652 30.605183 22.243652 L 25.01586 22.243652 L 25.01586 21.767965 L 25.01586 21.649044 z " stroke="none" stroke-width="1.2166667" stroke-opacity="0.3" stroke-miterlimit="4"/>
            <path fill-opacity="0.3" fill-rule="nonzero" d="M 30.724106 22.362574 L 25.729391 22.362574 L 35.005287 27.595133 L 30.724106 22.362574 L 30.724106 22.362574 z " stroke="none" stroke-width="1.2166667" stroke-opacity="0.3" stroke-miterlimit="4"/>
            <path fill="#515151" fill-rule="nonzero" d="M 25.01586 21.767965 L 33.697147 21.767965 L 35.005287 20.935513 L 32.15117 20.935513 C 32.15117 20.935513 34.767445 20.459827 35.12421 17.486782 C 35.480972 14.513739 31.080868 11.183931 31.080868 11.183931 C 31.080868 11.183931 31.080868 11.183931 31.080868 11.302853 C 31.19979 12.016383 32.389008 17.011095 31.556557 18.913845 C 31.19979 20.578749 30.129496 20.935513 30.129496 20.935513 L 24.659094 20.935513 L 24.896938 21.767965 L 25.01586 21.767965 z " stroke="none" stroke-width="1.2166667" stroke-miterlimit="4"/>
            <path fill="#515151" fill-rule="nonzero" d="M 30.248419 20.459827 L 25.253704 20.459827 L 31.19979 11.421773 L 30.248419 20.459827 z " stroke="none" stroke-width="1.2166667" stroke-miterlimit="4"/>
        </g>
        <path fill-opacity="1" display="inline" stroke="#ffffff" d="M 2.8042316 7.4528584 L 43.233986 7.4528584 C 43.38437 7.4528584 43.505432 7.573923 43.505432 7.7243047 L 43.505432 31.422651 C 43.505432 32.368526 36.401688 38.5 36.251305 38.5 L 2.8042316 38.5 C 2.6538508 38.5 2.532786 38.378937 2.532786 38.228554 L 2.532786 7.7243047 C 2.532786 7.573923 2.6538508 7.4528584 2.8042316 7.4528584 z " visibility="visible" stroke-linecap="butt" stroke-miterlimit="4" stroke-opacity="1" fill="none" stroke-width="0.99999976" color="#000000" stroke-linejoin="miter" stroke-dashoffset="0" fill-rule="nonzero"/>
        <rect fill-opacity="0.84659095" display="inline" stroke="#4f4f4f" visibility="visible" stroke-linecap="butt" width="35.0625" stroke-miterlimit="4" stroke-opacity="1" fill="none" stroke-dasharray="none" stroke-width="1" color="#000000" height="25.0625" x="5.5" stroke-linejoin="miter" y="10.5" stroke-dashoffset="0" fill-rule="nonzero"/>
        <path fill-opacity="1" display="inline" stroke="url(#linearGradient8177)" d="M 35.206654 39.468765 C 37.23707 39.79866 44.795444 34.93883 44.491062 30.97092 C 42.9278 33.394016 39.73254 32.257656 35.623783 32.416668 C 35.623783 32.416668 36.019154 38.968765 35.206654 39.468765 z " visibility="visible" stroke-linecap="butt" stroke-miterlimit="4" stroke-opacity="1" fill="url(#linearGradient8169)" stroke-dasharray="none" stroke-width="1.00000024" color="#000000" stroke-linejoin="miter" stroke-dashoffset="0" fill-rule="evenodd"/>
        <path fill-opacity="0.36931817" display="inline" stroke="url(#linearGradient8166)" d="M 36.65709 37.27726 C 38.026867 36.593433 41.085335 35.130795 42.38472 33.24979 C 40.788624 33.929848 39.43691 33.45929 36.682384 33.440197 C 36.682384 33.440197 36.844707 36.502293 36.65709 37.27726 z " visibility="visible" stroke-linecap="butt" stroke-miterlimit="4" stroke-opacity="1" fill="none" stroke-dasharray="none" stroke-width="0.99999982" color="#000000" stroke-linejoin="miter" stroke-dashoffset="0" fill-rule="evenodd"/>
        <path fill-opacity="0.30113639" display="inline" stroke="none" d="M 3.0625 8.0 L 3.0625 30.0625 C 25.38858 30.95086 27.884634 17.0 43.0 17.0 L 43.0 8.0 L 3.0625 8.0 z " visibility="visible" stroke-linecap="butt" stroke-miterlimit="4" stroke-opacity="1" fill="url(#radialGradient8161)" stroke-dasharray="none" stroke-width="1" color="#000000" stroke-linejoin="miter" stroke-dashoffset="0" fill-rule="nonzero"/>
    </g>
</svg>
