<?xml version="1.0" encoding="UTF-8"?>
<!DOCTYPE svg PUBLIC "-//W3C//DTD SVG 1.1 Tiny//EN" "http://www.w3.org/Graphics/SVG/1.1/DTD/svg11-tiny.dtd">
<svg baseProfile="tiny" xmlns="http://www.w3.org/2000/svg" xmlns:xlink="http://www.w3.org/1999/xlink" width="12" height="32" viewBox="0 0 12 32">
<g>
<g>
<g>
<linearGradient id="XMLID_3_" gradientUnits="userSpaceOnUse" x1="6.5" y1="27" x2="6.5" y2="9.0005">
<stop offset="0" style="stop-color:#FFFFFF"/>
<stop offset="0.8202" style="stop-color:#CAE7FF"/>
<stop offset="1" style="stop-color:#CAE7FF"/>
</linearGradient>
<path fill="url(#XMLID_3_)" d="M6.5,27C4.016,27,2,25.049,2,22.587v-9.126C2,10.998,4.016,9,6.5,9l0,0       c2.486,0,4.5,1.998,4.5,4.461v9.126C11,25.049,8.986,27,6.5,27L6.5,27z"/>
<g>
<linearGradient id="XMLID_4_" gradientUnits="userSpaceOnUse" x1="6.5" y1="9" x2="6.5" y2="17.3472">
<stop offset="0" style="stop-color:#FFFFFF"/>
<stop offset="0.105" style="stop-color:#F9FCFF"/>
<stop offset="1" style="stop-color:#CCE8FF"/>
</linearGradient>
<path fill="url(#XMLID_4_)" d="M6.5,9C4.016,9,2,10.998,2,13.461v3.886h1v-3.472c0-1.916,1.566-3.422,3.5-3.422        s3.5,1.506,3.5,3.422v3.472h1v-3.886C11,10.998,8.986,9,6.5,9z"/>
</g>
<path fill-opacity="0.7" stroke-opacity="0.7" fill="#003184" d="M1,13.461v9.126C1,25.598,3.467,28,6.5,28c3.031,0,5.5-2.402,5.5-5.413v-9.126       C12,10.45,9.531,8,6.5,8C3.467,8,1,10.45,1,13.461z M2,22.587v-9.126C2,11.002,4.018,9,6.5,9c2.48,0,4.5,2.002,4.5,4.461v9.126       C11,25.047,8.98,27,6.5,27C4.018,27,2,25.047,2,22.587z"/>
</g>
<path fill-opacity="0.8" stroke-opacity="0.8" fill="#CAE7FF" d="M10,22.578C10,24.494,8.434,26,6.5,26S3,24.494,3,22.578v-5.279H2v5.288      C2,25.049,4.016,27,6.5,27c2.486,0,4.5-1.951,4.5-4.413v-5.288h-1V22.578z"/>
</g>
<rect fill="none" width="12" height="32"/>
</g>
</svg>
