<?xml version="1.0" encoding="UTF-8"?>
<svg xmlns="http://www.w3.org/2000/svg" xmlns:xlink="http://www.w3.org/1999/xlink" contentScriptType="text/ecmascript" width="88" baseProfile="tiny" zoomAndPan="magnify" contentStyleType="text/css" viewBox="0 0 88 88" height="88" preserveAspectRatio="xMidYMid meet" version="1.0">
    <defs>
        <linearGradient x1="34.797703" gradientTransform="matrix(0.903401,0,0,0.903401,2.335437,2.177737)" y1="29.173397" x2="17.444614" gradientUnits="userSpaceOnUse" y2="-6.8890476" xlink:type="simple" xlink:actuate="onLoad" id="linearGradient3117" xlink:show="other">
            <stop stop-opacity="0.28865978" stop-color="#ffffff" offset="0"/>
            <stop stop-opacity="0" stop-color="#ffffff" offset="1"/>
        </linearGradient>
        <radialGradient gradientTransform="matrix(1,0,0,0.351613,0,16.55413)" id="radialGradient3107" gradientUnits="userSpaceOnUse" xlink:show="other" xlink:type="simple" r="9.6875" cx="17.3125" fx="17.3125" cy="25.53125" fy="25.53125" xlink:actuate="onLoad">
            <stop stop-opacity="1" stop-color="#000000" offset="0"/>
            <stop stop-opacity="0" stop-color="#000000" offset="1"/>
        </radialGradient>
        <linearGradient x1="18.711395" gradientTransform="matrix(2.151235,0.000000,0.000000,1.154539,-0.778091,-3.220331)" y1="34.807064" x2="11.413211" gradientUnits="userSpaceOnUse" y2="31.452499" xlink:type="simple" xlink:actuate="onLoad" xlink:show="other">
            <stop stop-opacity="0.0000000" stop-color="#f5a108" offset="0.0000000"/>
            <stop stop-opacity="0.74251497" stop-color="#fefdc3" offset="1.0000000"/>
        </linearGradient>
        <linearGradient x1="11.355036" gradientTransform="matrix(2.012297,0,0,1.079974,0.835129,-1.340661)" y1="32.756931" x2="6.3578372" gradientUnits="userSpaceOnUse" y2="6.1003184" xlink:type="simple" xlink:actuate="onLoad" id="linearGradient1697" xlink:show="other">
            <stop stop-opacity="0.0000000" stop-color="#f5a108" offset="0.0000000"/>
            <stop stop-opacity="0.74251497" stop-color="#fefdc3" offset="1.0000000"/>
        </linearGradient>
        <linearGradient x1="22.819513" gradientTransform="matrix(0.946979,0,0,0.487322,3.734953,4.049714)" y1="28.829224" x2="12.849945" gradientUnits="userSpaceOnUse" y2="12.239423" xlink:type="simple" xlink:actuate="onLoad" id="linearGradient7881" xlink:show="other">
            <stop stop-opacity="0.0000000" stop-color="#f5a108" offset="0.0000000"/>
            <stop stop-opacity="0.74251497" stop-color="#fefdc3" offset="1.0000000"/>
        </linearGradient>
        <linearGradient xlink:type="simple" xlink:actuate="onLoad" xlink:show="other">
            <stop stop-opacity="0.0000000" stop-color="#f5a108" offset="0.0000000"/>
            <stop stop-opacity="0.74251497" stop-color="#fefdc3" offset="1.0000000"/>
        </linearGradient>
        <linearGradient x1="13.567193" gradientTransform="scale(1.365022,0.732589)" y1="21.47023" x2="7.5337296" gradientUnits="userSpaceOnUse" y2="8.8090458" xlink:type="simple" xlink:actuate="onLoad" xlink:show="other">
            <stop stop-opacity="0.0000000" stop-color="#f5a108" offset="0.0000000"/>
            <stop stop-opacity="0.74251497" stop-color="#fefdc3" offset="1.0000000"/>
        </linearGradient>
        <linearGradient xlink:type="simple" xlink:actuate="onLoad" xlink:show="other">
            <stop stop-opacity="0.0000000" stop-color="#f5a108" offset="0.0000000"/>
            <stop stop-opacity="0.74251497" stop-color="#fefdc3" offset="1.0000000"/>
        </linearGradient>
        <linearGradient xlink:type="simple" xlink:actuate="onLoad" xlink:show="other">
            <stop stop-opacity="1" stop-color="#000000" offset="0"/>
            <stop stop-opacity="0" stop-color="#000000" offset="1"/>
        </linearGradient>
        <linearGradient xlink:type="simple" xlink:actuate="onLoad" xlink:show="other">
            <stop stop-opacity="1" stop-color="#ffffff" offset="0"/>
            <stop stop-opacity="0" stop-color="#ffffff" offset="1"/>
        </linearGradient>
    </defs>
    <g transform="matrix(1.7155769,0,0,1.7155769,1.4409557,4.392071)">
        <path fill-opacity="0.40909089" display="inline" stroke="none" d="M 27.0 25.53125 C 27.0 27.41247 22.662758 28.9375 17.3125 28.9375 C 11.962241 28.9375 7.625 27.41247 7.625 25.53125 C 7.625 23.65003 11.962241 22.125 17.3125 22.125 C 22.662758 22.125 27.0 23.65003 27.0 25.53125 z " visibility="visible" stroke-linecap="butt" transform="matrix(2.182912,0,0,2.182912,-13.52704,-17.29028)" stroke-miterlimit="4" stroke-opacity="1" fill="url(#radialGradient3107)" stroke-dasharray="none" stroke-width="1.10533953" color="#000000" stroke-linejoin="miter" stroke-dashoffset="0" fill-rule="nonzero"/>
        <path stroke-linecap="butt" fill-opacity="1" fill="#d4572d" fill-rule="evenodd" stroke-linejoin="miter" d="M 22.261974 36.308952 C 22.319548 36.22266 23.258747 37.420746 23.258747 37.420746 C 27.376818 32.94006 37.887672 24.56812 40.75498 17.585917 C 34.956432 24.017036 25.48232 34.363323 22.261974 36.308952 z " stroke="none" stroke-width="1pt" stroke-opacity="1"/>
        <path stroke-linecap="butt" fill-opacity="1" fill="url(#linearGradient7881)" fill-rule="evenodd" stroke-linejoin="miter" d="M 15.165635 7.4843984 C 10.367349 7.2482185 8.131964 10.330635 6.9227943 13.262905 C 5.722845 17.12432 7.419068 24.417624 15.731363 23.862782 C 20.472656 23.862782 22.35715 19.000528 24.852468 17.738312 C 27.12024 16.880852 27.298723 16.80411 29.694664 16.80411 C 33.024277 16.80411 39.045483 14.394449 39.045483 12.003505 C 38.02204 10.084917 35.30493 6.668209 30.312073 7.2505474 C 27.133917 7.6204424 24.127188 9.892215 23.341787 11.022656 C 21.41782 9.325696 18.961206 7.4843984 15.165635 7.4843984 z " stroke="none" stroke-width="1pt" stroke-opacity="1"/>
        <path stroke-linecap="butt" fill-opacity="1" fill="#c71807" fill-rule="evenodd" stroke-linejoin="miter" stroke-dasharray="none" d="M 23.924948 9.003216 C 32.22797 0.70019066 43.63827 8.353124 43.563217 16.227493 C 43.4946 23.42604 38.00829 26.873512 24.225168 39.677567 C 9.7984 27.766132 4.715331 25.019308 4.7903867 16.478476 C 4.8654423 7.6374207 14.633621 1.0021667 23.924948 9.003216 z " stroke="#820000" stroke-width="1.00000012" stroke-opacity="1" stroke-miterlimit="4"/>
        <path stroke-linecap="butt" fill-opacity="0.625" fill="url(#linearGradient1697)" fill-rule="evenodd" stroke-linejoin="miter" d="M 5.078193 16.18862 C 4.8602033 23.368555 5.8728347 22.230972 7.702467 24.505644 C 9.501155 26.741844 17.344378 25.334404 24.384714 18.69633 C 31.50914 11.97897 38.771297 15.781074 42.2916 12.040936 C 39.669106 7.5441046 31.483974 2.095637 23.948408 9.645705 C 14.291385 0.91854006 5.296183 8.928831 5.078193 16.18862 z " stroke="none" stroke-width="1pt" stroke-opacity="1"/>
        <path stroke-linecap="butt" fill-opacity="0.39204544" fill="none" fill-rule="evenodd" stroke-linejoin="miter" stroke-dasharray="none" d="M 24.022024 10.249144 C 31.916622 1.7157434 42.705887 8.845032 42.635963 16.180607 C 42.57205 22.8866 37.06187 26.57728 24.221851 38.505234 C 10.782221 27.408825 5.647706 24.4507 5.717626 16.494267 C 5.787546 8.25815 15.366447 1.7575068 24.022024 10.249144 z " stroke="url(#linearGradient3117)" stroke-width="1.00000072" stroke-opacity="1" stroke-miterlimit="4"/>
    </g>
</svg>
