<?xml version="1.0" encoding="UTF-8"?>
<svg xmlns="http://www.w3.org/2000/svg" xmlns:xlink="http://www.w3.org/1999/xlink" contentScriptType="text/ecmascript" width="13" baseProfile="tiny" zoomAndPan="magnify" contentStyleType="text/css" viewBox="0 0 13 13" height="13" preserveAspectRatio="xMidYMid meet" version="1.0">
    <defs>
        <linearGradient xlink:type="simple" xlink:actuate="onLoad" id="linearGradient2315" xlink:show="other">
            <stop stop-opacity="1" stop-color="#ffffff" offset="0"/>
            <stop stop-opacity="0" stop-color="#ffffff" offset="1"/>
        </linearGradient>
        <radialGradient gradientTransform="matrix(1,0,0,0.509804,0,16.05392)" id="radialGradient4710" gradientUnits="userSpaceOnUse" xlink:show="other" xlink:type="simple" r="6.3750000" cx="4.3920336" fx="4.3920336" cy="32.307854" fy="32.307854" xlink:actuate="onLoad">
            <stop stop-opacity="1" stop-color="#ffffff" offset="0"/>
            <stop stop-opacity="0" stop-color="#ffffff" offset="1"/>
        </radialGradient>
    </defs>
    <path fill-opacity="1" display="block" stroke="#596616" d="M 10.397487 1.0467923 C 9.464646 1.1614491 6.8125 1.5 6.8125 1.5 L 6.8125 9.25 C 6.227393 9.051765 5.4219856 9.004097 4.53125 9.1875 C 2.9826603 9.506356 1.8926296 10.335802 2.0625 11.0625 C 2.2323704 11.789198 3.6076596 12.131357 5.15625 11.8125 C 6.6196404 11.511187 7.903968 10.728775 7.875 10.03125 L 7.90625 3.28125 C 7.90625 3.28125 10.004331 2.9577763 10.397487 2.8905425 L 10.397487 1.0467923 z " visibility="visible" stroke-linecap="round" stroke-miterlimit="4" stroke-opacity="1" fill="#9db029" stroke-width="0.35548171" color="#000000" stroke-linejoin="round" stroke-dashoffset="0" fill-rule="nonzero"/>
    <path fill-opacity="1" display="block" stroke="#ffffff" d="M 10.053571 1.4530423 C 9.313892 1.5520297 7.1875 1.875 7.1875 1.875 L 7.1875 9.65625 C 4.49819 8.978948 2.307208 10.308931 2.46875 11.0 C 2.719162 12.179856 7.558798 11.382596 7.53125 9.875 L 7.59375 2.96875 C 7.59375 2.96875 9.510558 2.6301105 10.053571 2.5467925 L 10.053571 1.4530423 z " visibility="visible" stroke-linecap="butt" stroke-miterlimit="4" stroke-opacity="0.40131578" fill="none" stroke-dasharray="none" stroke-width="0.35548171" color="#000000" stroke-linejoin="miter" stroke-dashoffset="0" fill-rule="nonzero"/>
    <path fill-opacity="0.51176471" display="block" stroke="none" d="M 12.25 32.75 C 12.25 34.544926 9.395815 36.0 5.875 36.0 C 2.3541846 36.0 -0.5 34.544926 -0.5 32.75 C -0.5 30.955074 2.3541846 29.5 5.875 29.5 C 9.395815 29.5 12.25 30.955074 12.25 32.75 z " visibility="visible" stroke-linecap="butt" transform="matrix(0.261107,-3.9687754e-2,3.9687754e-2,0.261107,1.6158743,2.0660938)" stroke-miterlimit="4" stroke-opacity="1" fill="url(#radialGradient4710)" stroke-dasharray="none" stroke-width="1" color="#000000" stroke-linejoin="miter" stroke-dashoffset="0" fill-rule="nonzero"/>
</svg>
