<?xml version="1.0" encoding="UTF-8"?>
<svg xmlns="http://www.w3.org/2000/svg" xmlns:xlink="http://www.w3.org/1999/xlink" contentScriptType="text/ecmascript" width="88" baseProfile="tiny" zoomAndPan="magnify" contentStyleType="text/css" viewBox="0 0 88 88" height="88" preserveAspectRatio="xMidYMid meet" version="1.0">
    <defs>
        <linearGradient x1="23.379572" y1="28.369167" x2="24.24518" gradientUnits="userSpaceOnUse" y2="6.0000024" xlink:type="simple" xlink:actuate="onLoad" id="linearGradient10026" xlink:show="other">
            <stop stop-opacity="1" stop-color="#ffffff" offset="0"/>
            <stop stop-opacity="0" stop-color="#ffffff" offset="1"/>
        </linearGradient>
        <linearGradient x1="-17.863041" y1="30.827509" x2="-20.821646" gradientUnits="userSpaceOnUse" y2="25.015009" xlink:type="simple" xlink:actuate="onLoad" id="linearGradient10016" xlink:show="other">
            <stop stop-opacity="1" stop-color="#73d216" offset="0"/>
            <stop stop-opacity="1.0000000" stop-color="#d5f7b3" offset="1.0000000"/>
        </linearGradient>
        <linearGradient x1="-16.387411" y1="24.453547" x2="-9.7352734" gradientUnits="userSpaceOnUse" y2="28.195539" xlink:type="simple" xlink:actuate="onLoad" id="linearGradient10014" xlink:show="other">
            <stop stop-opacity="1.0000000" stop-color="#5b8ccb" offset="0.0000000"/>
            <stop stop-opacity="1.0000000" stop-color="#3465a4" offset="1.0000000"/>
        </linearGradient>
        <linearGradient x1="-22.976406" y1="18.516047" x2="-14.360273" gradientUnits="userSpaceOnUse" y2="33.016045" xlink:type="simple" xlink:actuate="onLoad" id="linearGradient10012" xlink:show="other">
            <stop stop-opacity="1.0000000" stop-color="#ff7171" offset="0.0000000"/>
            <stop stop-opacity="1.0000000" stop-color="#cc0000" offset="1.0000000"/>
        </linearGradient>
        <linearGradient x1="-20.750000" y1="29.000000" x2="-19.500000" gradientUnits="userSpaceOnUse" y2="18.750000" xlink:type="simple" xlink:actuate="onLoad" id="linearGradient10002" xlink:show="other">
            <stop stop-opacity="1" stop-color="#ffffff" offset="0"/>
            <stop stop-opacity="0" stop-color="#ffffff" offset="1"/>
        </linearGradient>
        <linearGradient gradientTransform="matrix(1.905258,0,0,2.521777,-22.82065,-13.24604)" id="linearGradient9224" gradientUnits="userSpaceOnUse" xlink:show="other" xlink:type="simple" x1="24.919374" y1="6.1478682" y2="7.4600263" x2="24.919374" xlink:actuate="onLoad">
            <stop offset="0" stop-color="#f0f0f0"/>
            <stop offset="1" stop-color="#686868"/>
        </linearGradient>
        <radialGradient gradientTransform="matrix(1,0,0,0.181159,0,36.04743)" id="radialGradient9220" gradientUnits="userSpaceOnUse" xlink:show="other" xlink:type="simple" r="12.197592" cx="26.162951" fx="26.162951" cy="44.022526" fy="44.022526" xlink:actuate="onLoad">
            <stop stop-opacity="1" stop-color="#5b5b5b" offset="0"/>
            <stop stop-opacity="0" stop-color="#5b5b5b" offset="1"/>
        </radialGradient>
        <radialGradient gradientTransform="matrix(3.502527,0,0,3.502527,-61.93009,-72.87696)" id="radialGradient1537" gradientUnits="userSpaceOnUse" xlink:show="other" xlink:type="simple" r="0.5902" cx="24.7744" fx="24.7744" cy="30.9912" fy="30.9912" xlink:actuate="onLoad">
            <stop offset="0" stop-color="#f0f0f0"/>
            <stop offset="1" stop-color="#848484"/>
        </radialGradient>
        <radialGradient gradientUnits="userSpaceOnUse" xlink:type="simple" r="0.5902" xlink:actuate="onLoad" cx="24.7744" id="aigrd7" cy="30.9912" xlink:show="other" fx="24.7744" fy="30.9912">
            <stop stop-color="#f0f0f0" offset="0"/>
            <stop stop-color="#848484" offset="1"/>
        </radialGradient>
        <linearGradient x1="24.6035" y1="9.3433" x2="24.6035" gradientUnits="userSpaceOnUse" y2="10.4377" xlink:type="simple" xlink:actuate="onLoad" id="aigrd6" xlink:show="other">
            <stop stop-color="#f0f0f0" offset="0"/>
            <stop stop-color="#686868" offset="1"/>
        </linearGradient>
        <linearGradient gradientTransform="matrix(1.868867,0,0,1.5088,-20.39097,-10.01652)" id="linearGradient1553" gradientUnits="userSpaceOnUse" xlink:show="other" xlink:type="simple" x1="27.2949" y1="25.4727" y2="11.0039" x2="20.9453" xlink:actuate="onLoad">
            <stop stop-opacity="1" stop-color="#f5f5f5" offset="0"/>
            <stop stop-opacity="1" stop-color="#e1e1e1" offset="1"/>
        </linearGradient>
        <linearGradient x1="27.2949" y1="25.4727" x2="20.9453" gradientUnits="userSpaceOnUse" y2="11.0039" xlink:type="simple" xlink:actuate="onLoad" id="aigrd5" xlink:show="other">
            <stop stop-opacity="1" stop-color="#f5f5f5" offset="0"/>
            <stop stop-opacity="1" stop-color="#e1e1e1" offset="1"/>
        </linearGradient>
        <linearGradient xlink:type="simple" xlink:actuate="onLoad" id="linearGradient9214" xlink:show="other">
            <stop stop-opacity="1" stop-color="#5b5b5b" offset="0"/>
            <stop stop-opacity="0" stop-color="#5b5b5b" offset="1"/>
        </linearGradient>
        <linearGradient xlink:type="simple" xlink:actuate="onLoad" id="linearGradient6699" xlink:show="other">
            <stop stop-opacity="1.0000000" stop-color="#ff7171" offset="0.0000000"/>
            <stop stop-opacity="1.0000000" stop-color="#cc0000" offset="1.0000000"/>
        </linearGradient>
        <linearGradient xlink:type="simple" xlink:actuate="onLoad" id="linearGradient6711" xlink:show="other">
            <stop stop-opacity="1.0000000" stop-color="#5b8ccb" offset="0.0000000"/>
            <stop stop-opacity="1.0000000" stop-color="#3465a4" offset="1.0000000"/>
        </linearGradient>
        <linearGradient xlink:type="simple" xlink:actuate="onLoad" id="linearGradient6719" xlink:show="other">
            <stop stop-opacity="1" stop-color="#73d216" offset="0"/>
            <stop stop-opacity="1.0000000" stop-color="#d5f7b3" offset="1.0000000"/>
        </linearGradient>
        <linearGradient xlink:type="simple" xlink:actuate="onLoad" id="linearGradient6687" xlink:show="other">
            <stop stop-opacity="1" stop-color="#ffffff" offset="0"/>
            <stop stop-opacity="0" stop-color="#ffffff" offset="1"/>
        </linearGradient>
        <radialGradient gradientTransform="scale(1.164226,0.85894)" id="radialGradient2462" gradientUnits="userSpaceOnUse" xlink:show="other" xlink:type="simple" r="13.804391" cx="28.283663" fx="28.283663" cy="47.400623" fy="47.400623" xlink:actuate="onLoad">
            <stop stop-opacity="1" stop-color="#000000" offset="0"/>
            <stop stop-opacity="0" stop-color="#000000" offset="1"/>
        </radialGradient>
        <linearGradient xlink:type="simple" xlink:actuate="onLoad" id="linearGradient2456" xlink:show="other">
            <stop stop-opacity="1" stop-color="#000000" offset="0"/>
            <stop stop-opacity="0" stop-color="#000000" offset="1"/>
        </linearGradient>
        <linearGradient xlink:type="simple" xlink:actuate="onLoad" id="linearGradient10020" xlink:show="other">
            <stop stop-opacity="1" stop-color="#ffffff" offset="0"/>
            <stop stop-opacity="0" stop-color="#ffffff" offset="1"/>
        </linearGradient>
    </defs>
    <g transform="matrix(1.6405258,0,0,1.6405258,1.5919664,5.3502745)">
        <path fill="#a4a4a4" fill-rule="nonzero" d="M 26.482037 37.62156 L 24.499994 37.62156 L 24.499994 6.0 L 26.482037 6.0 L 26.482037 37.620113 L 26.482037 37.62156 z " stroke="#555753" stroke-opacity="1" stroke-miterlimit="4"/>
        <path fill="#a4a4a4" d="M 26.0 37.62156 L 24.982042 37.62156 L 24.982042 6.0 L 26.0 6.0 L 26.0 37.620113 L 26.0 37.62156 z " stroke-miterlimit="4" fill-rule="nonzero" stroke="none"/>
        <path fill="url(#linearGradient1553)" fill-rule="nonzero" stroke-linejoin="round" d="M 43.499996 32.49998 L 7.5 32.49998 L 7.5 5.4999943 L 43.499996 5.4999943 L 43.499996 32.49998 L 43.499996 32.49998 z " stroke="#888a85" stroke-opacity="1" stroke-miterlimit="4"/>
        <path fill-opacity="0.39010991" display="inline" stroke="none" d="M 38.360542 44.02253 C 38.360542 45.242916 32.899494 46.23224 26.16295 46.23224 C 19.426407 46.23224 13.965359 45.242916 13.965359 44.02253 C 13.965359 42.802143 19.426407 41.81282 26.16295 41.81282 C 32.899494 41.81282 38.360542 42.802143 38.360542 44.02253 z " visibility="visible" stroke-linecap="round" transform="matrix(1.749254,0,0,1.452548,-20.38301,-20.43749)" stroke-miterlimit="4" stroke-opacity="1" fill="url(#radialGradient9220)" stroke-dasharray="none" stroke-width="0.5" color="#000000" stroke-linejoin="miter" stroke-dashoffset="0" fill-rule="nonzero"/>
        <g transform="matrix(1.539016,0,0,1.539016,-12.89862,-11.05731)" fill="#a4a4a4" fill-rule="nonzero" stroke="#555753" stroke-opacity="1" stroke-miterlimit="4">
            <path d="M 31.492 35.959 L 25.217 31.321 L 25.151306 31.665949 L 30.016 35.955 L 31.492 35.959 z " stroke-opacity="1" stroke="#555753"/>
            <path d="M 18.408 35.959 L 24.683 31.321 L 24.63283 31.72338 L 19.883 35.955 L 18.408 35.959 z " stroke-opacity="1" stroke="#555753"/>
        </g>
        <path fill="none" fill-rule="nonzero" stroke-linejoin="miter" d="M 42.48351 31.5 L 8.5 31.5 L 8.5 6.5000024 L 42.48351 6.5000024 L 42.48351 31.5 L 42.48351 31.5 z " stroke="url(#linearGradient10026)" stroke-opacity="1" stroke-miterlimit="4"/>
        <path fill-opacity="0.15999995" fill="#000000" fill-rule="nonzero" d="M 37.64607 5.8376813 L 8.0 5.8376813 L 8.0 8.0 C 9.671372 5.651461 37.64607 5.8376813 37.64607 5.8376813 z " stroke="none" stroke-opacity="0.15999995" stroke-miterlimit="4"/>
        <rect fill-opacity="0.22807013" display="inline" stroke="none" visibility="visible" stroke-linecap="butt" width="9" stroke-miterlimit="4" stroke-opacity="1" fill="#000000" stroke-width="0.99813098" color="#000000" height="1" x="31" stroke-linejoin="miter" y="9" stroke-dashoffset="0" fill-rule="nonzero"/>
        <rect fill-opacity="1" display="inline" stroke="#555753" visibility="visible" stroke-linecap="butt" width="40.779099" stroke-miterlimit="4" stroke-opacity="1" fill="url(#linearGradient9224)" stroke-dasharray="none" stroke-width="1" color="#000000" height="4" x="5.1403117" stroke-linejoin="miter" rx="1.941476" y="1.5" ry="1.9414761" stroke-dashoffset="0" fill-rule="nonzero"/>
        <rect fill-opacity="0.22807013" display="inline" stroke="none" visibility="visible" stroke-linecap="butt" width="9" stroke-miterlimit="4" stroke-opacity="1" fill="#000000" stroke-width="0.99813098" color="#000000" height="1" x="31" stroke-linejoin="miter" y="11" stroke-dashoffset="0" fill-rule="nonzero"/>
        <rect fill-opacity="0.22807013" display="inline" stroke="none" visibility="visible" stroke-linecap="butt" width="9" stroke-miterlimit="4" stroke-opacity="1" fill="#000000" stroke-width="0.99813098" color="#000000" height="1" x="31" stroke-linejoin="miter" y="13" stroke-dashoffset="0" fill-rule="nonzero"/>
        <rect fill-opacity="0.22807013" display="inline" stroke="none" visibility="visible" stroke-linecap="butt" width="9" stroke-miterlimit="4" stroke-opacity="1" fill="#000000" stroke-width="0.99813098" color="#000000" height="1" x="31" stroke-linejoin="miter" y="15" stroke-dashoffset="0" fill-rule="nonzero"/>
        <rect fill-opacity="0.22807013" display="inline" stroke="none" visibility="visible" stroke-linecap="butt" width="6" stroke-miterlimit="4" stroke-opacity="1" fill="#000000" stroke-width="0.99813098" color="#000000" height="1" x="31" stroke-linejoin="miter" y="17" stroke-dashoffset="0" fill-rule="nonzero"/>
        <rect fill-opacity="0.22807013" display="inline" stroke="none" visibility="visible" stroke-linecap="butt" width="23" stroke-miterlimit="4" stroke-opacity="1" fill="#000000" stroke-width="0.99813098" color="#000000" height="1" x="11" stroke-linejoin="miter" y="22" stroke-dashoffset="0" fill-rule="nonzero"/>
        <rect fill-opacity="0.22807013" display="inline" stroke="none" visibility="visible" stroke-linecap="butt" width="23" stroke-miterlimit="4" stroke-opacity="1" fill="#000000" stroke-width="0.99813098" color="#000000" height="1" x="11" stroke-linejoin="miter" y="24" stroke-dashoffset="0" fill-rule="nonzero"/>
        <rect fill-opacity="0.22807013" display="inline" stroke="none" visibility="visible" stroke-linecap="butt" width="23" stroke-miterlimit="4" stroke-opacity="1" fill="#000000" stroke-width="0.99813098" color="#000000" height="1" x="11" stroke-linejoin="miter" y="26" stroke-dashoffset="0" fill-rule="nonzero"/>
        <rect fill-opacity="0.22807013" display="inline" stroke="none" visibility="visible" stroke-linecap="butt" width="16" stroke-miterlimit="4" stroke-opacity="1" fill="#000000" stroke-width="0.99813098" color="#000000" height="1" x="11" stroke-linejoin="miter" y="28" stroke-dashoffset="0" fill-rule="nonzero"/>
        <path stroke-linecap="butt" transform="matrix(0.512138,0,0,0.512138,2.997478,-5.778852)" fill-opacity="1" display="inline" fill="url(#radialGradient2462)" fill-rule="evenodd" stroke-linejoin="miter" d="M 49.0 40.714287 C 49.0 47.262806 41.804577 52.57143 32.92857 52.57143 C 24.052565 52.57143 16.85714 47.262806 16.85714 40.714287 C 16.85714 34.165768 24.052565 28.857143 32.92857 28.857143 C 41.804577 28.857143 49.0 34.165768 49.0 40.714287 z " stroke="none" stroke-width="1px" stroke-opacity="1"/>
        <g transform="matrix(0.587368,0,0,0.587368,30.84597,-1.301179)" display="inline">
            <path fill-opacity="1" fill="#670000" fill-rule="nonzero" d="M -27.528542 18.092794 C -30.097576 19.791124 -31.511477 22.097832 -31.511477 24.590696 L -31.511477 26.659988 C -31.511477 29.150827 -30.097576 31.458212 -27.528542 33.15654 C -25.102053 34.760445 -21.895416 35.64401 -18.49936 35.64401 C -15.104587 35.64401 -11.89795 34.760445 -9.470178 33.15654 C -6.902427 31.458212 -5.488528 29.151505 -5.488528 26.659988 L -5.488528 24.590696 C -5.488528 22.097832 -6.9030695 19.79045 -9.470178 18.092794 C -11.897308 16.490238 -15.103945 15.606001 -18.49936 15.606001 C -21.895416 15.606001 -25.102053 16.490238 -27.528542 18.092794 z " stroke="none" stroke-miterlimit="4"/>
            <path fill="#a40000" d="M -7.0244265 24.453548 C -8.40301 21.067003 -13.077484 18.573463 -18.636768 18.573463 C -24.196053 18.573463 -28.870525 21.067003 -30.249111 24.453548 L -30.663906 24.453548 L -30.663906 26.523514 C -30.663906 30.913677 -25.27863 34.472214 -18.636768 34.472214 C -11.994265 34.472214 -6.610273 30.913677 -6.610273 26.523514 L -6.610273 24.453548 L -7.0244265 24.453548 L -7.0244265 24.453548 z " stroke-miterlimit="4" fill-rule="nonzero" stroke="none"/>
            <path fill-opacity="1" fill="url(#linearGradient10012)" fill-rule="nonzero" d="M -6.610273 24.453548 C -6.610273 28.844383 -11.994265 32.40292 -18.636768 32.40292 C -25.279272 32.40292 -30.663906 28.844383 -30.663906 24.453548 C -30.663906 20.062708 -25.27863 16.504173 -18.636768 16.504173 C -11.994265 16.504173 -6.610273 20.062708 -6.610273 24.453548 L -6.610273 24.453548 z " stroke="none" stroke-miterlimit="4"/>
            <path fill="#204a87" d="M -6.610273 26.833097 L -6.6256833 24.66668 C -7.929784 29.16746 -10.862246 31.074203 -14.549173 32.00768 L -14.549173 34.002106 C -10.558534 32.998486 -6.987184 30.713358 -6.610273 26.833097 L -6.610273 26.833097 z " stroke-miterlimit="4" fill-rule="nonzero" stroke="none"/>
            <path fill-opacity="1" fill="url(#linearGradient10014)" fill-rule="nonzero" d="M -6.610273 24.453548 C -6.8857327 29.533024 -13.16802 31.849176 -14.571646 31.937532 L -18.637411 24.453548 L -6.610915 24.453548 L -6.610273 24.453548 z " stroke="none" stroke-miterlimit="4"/>
            <path fill="#4e9a06" d="M -21.154436 34.2982 L -21.154436 32.228905 C -18.89104 32.52365 -16.814493 32.57559 -14.571646 32.015095 L -14.549173 34.002777 C -16.428593 34.619247 -19.36876 34.64825 -21.154436 34.298874 L -21.154436 34.2982 z " stroke-miterlimit="4" fill-rule="nonzero" stroke="none"/>
            <path fill-opacity="1" fill="url(#linearGradient10016)" fill-rule="nonzero" d="M -18.637411 24.45422 L -14.571646 31.937532 C -17.06106 32.88652 -21.154436 32.228905 -21.154436 32.228905 L -18.637411 24.45422 z " stroke="none" stroke-miterlimit="4"/>
            <path fill-opacity="0.31111115" display="block" stroke="url(#linearGradient10002)" d="M -6.875 24.375 C -6.875 28.655207 -12.135654 32.125 -18.625 32.125 C -25.114346 32.125 -30.375 28.655207 -30.375 24.375 C -30.375 20.094793 -25.114346 16.625 -18.625 16.625 C -12.135654 16.625 -6.875 20.094793 -6.875 24.375 z " visibility="visible" stroke-linecap="butt" transform="matrix(0.946982,0,0,0.889701,-0.987461,2.688545)" stroke-miterlimit="4" stroke-opacity="1" fill="none" stroke-dasharray="none" stroke-width="1.85479879" color="#000000" stroke-linejoin="miter" stroke-dashoffset="0" fill-rule="evenodd"/>
        </g>
        <g fill="#a4a4a4" stroke-miterlimit="4" fill-rule="nonzero" transform="matrix(1.539016,0,0,1.539016,-12.89862,-11.05731)" stroke="none">
            <path d="M 30.015 35.956 L 31.492 35.959 L 25.217 31.321 L 24.778 31.307 L 30.016 35.955 L 30.015 35.956 z "/>
            <path d="M 19.884 35.956 L 18.408 35.959 L 24.683 31.321 L 25.121 31.307 L 19.883 35.955 L 19.884 35.956 z "/>
        </g>
        <path fill="url(#radialGradient1537)" fill-rule="nonzero" d="M 27.839687 36.499985 C 27.839687 37.792416 26.79243 38.839676 25.499998 38.839676 C 24.207563 38.839676 23.160309 37.792416 23.160309 36.499985 C 23.160309 35.211056 24.207563 34.1603 25.499998 34.1603 C 26.79243 34.1603 27.839687 35.211056 27.839687 36.499985 z " stroke="#555753" stroke-opacity="1" stroke-miterlimit="4"/>
    </g>
</svg>
