<?xml version="1.0" encoding="UTF-8"?>
<svg xmlns="http://www.w3.org/2000/svg" xmlns:xlink="http://www.w3.org/1999/xlink" contentScriptType="text/ecmascript" width="55" baseProfile="tiny" zoomAndPan="magnify" contentStyleType="text/css" viewBox="0 0 84 72" height="39" preserveAspectRatio="xMidYMid meet" version="1.0">
    <defs>
        <radialGradient gradientTransform="matrix(1,0,0,0.25,0,31.22703)" id="radialGradient23425" gradientUnits="userSpaceOnUse" xlink:show="other" xlink:type="simple" r="22.627417" cx="23.334524" fx="23.334524" cy="41.63604" fy="41.63604" xlink:actuate="onLoad">
            <stop stop-opacity="1" stop-color="#000000" offset="0"/>
            <stop stop-opacity="0" stop-color="#000000" offset="1"/>
        </radialGradient>
        <linearGradient x1="14.9966" gradientTransform="matrix(1.190476,0,0,1.190476,-4.224424,-2.5)" y1="11.1885" x2="32.511002" gradientUnits="userSpaceOnUse" y2="34.307499" xlink:type="simple" xlink:actuate="onLoad" id="linearGradient23400" xlink:show="other">
            <stop stop-color="#ebebeb" offset="0"/>
            <stop stop-color="#ffffff" offset="0.5"/>
            <stop stop-color="#ebebeb" offset="1"/>
        </linearGradient>
        <linearGradient x1="12.2744" gradientTransform="matrix(1.190476,0,0,1.190476,-4.224424,-2.500001)" y1="32.4165" x2="35.391201" gradientUnits="userSpaceOnUse" y2="14.2033" xlink:type="simple" xlink:actuate="onLoad" id="linearGradient23397" xlink:show="other">
            <stop stop-color="#fbfbfb" offset="0"/>
            <stop stop-color="#b6b6b6" offset="0.5"/>
            <stop stop-color="#e4e4e4" offset="1"/>
        </linearGradient>
        <linearGradient x1="21.125" gradientTransform="matrix(1.25,0,0,1.25,-5.652995,-2.604165)" y1="14.625" x2="29" gradientUnits="userSpaceOnUse" y2="28" xlink:type="simple" xlink:actuate="onLoad" id="linearGradient23393" xlink:show="other">
            <stop stop-opacity="0.32673267" stop-color="#ffffff" offset="0.0000000"/>
            <stop stop-opacity="0.60396039" stop-color="#ffffff" offset="1.0000000"/>
        </linearGradient>
        <linearGradient x1="21.125" gradientTransform="matrix(1.25,0,0,1.25,-5.652995,-2.604165)" y1="14.625" x2="29" gradientUnits="userSpaceOnUse" y2="28" xlink:type="simple" xlink:actuate="onLoad" id="linearGradient23390" xlink:show="other">
            <stop stop-opacity="0.32673267" stop-color="#ffffff" offset="0.0000000"/>
            <stop stop-opacity="0.60396039" stop-color="#ffffff" offset="1.0000000"/>
        </linearGradient>
        <linearGradient x1="10.50172" y1="3.6100161" x2="48.798885" gradientUnits="userSpaceOnUse" y2="54.698483" xlink:type="simple" xlink:actuate="onLoad" id="linearGradient23387" xlink:show="other">
            <stop stop-opacity="1" stop-color="#ffffff" offset="0"/>
            <stop stop-opacity="0" stop-color="#ffffff" offset="1"/>
        </linearGradient>
        <radialGradient gradientTransform="matrix(0.848684,0.95802,-0.782119,0.692834,18.69147,-20.52578)" id="radialGradient23383" gradientUnits="userSpaceOnUse" xlink:show="other" xlink:type="simple" y1="32.4165" x1="12.2744" y2="14.2033" x2="35.391201" r="21.333334" cx="37.751469" fx="37.751469" cy="27.569166" fy="27.569166" xlink:actuate="onLoad">
            <stop stop-opacity="1.0000000" stop-color="#fff307" offset="0.0000000"/>
            <stop stop-opacity="1.0000000" stop-color="#166eff" offset="0.50000000"/>
            <stop stop-opacity="0.0000000" stop-color="#ffffff" offset="1.0000000"/>
        </radialGradient>
        <radialGradient gradientTransform="matrix(0.769501,-1.2425,0.6703,0.415141,-21.77857,41.36563)" id="radialGradient23380" gradientUnits="userSpaceOnUse" xlink:show="other" xlink:type="simple" y1="32.4165" x1="12.2744" y2="14.2033" x2="35.391201" r="21.333334" cx="26.137741" fx="26.137741" cy="38.807304" fy="38.807304" xlink:actuate="onLoad">
            <stop stop-opacity="0.82178217" stop-color="#b307ff" offset="0.0000000"/>
            <stop stop-opacity="0.64356434" stop-color="#f0ff8b" offset="1.0000000"/>
            <stop stop-opacity="0.0000000" stop-color="#ffffff" offset="1.0000000"/>
        </radialGradient>
        <radialGradient gradientTransform="matrix(0.15845,-0.158988,0.432907,0.431441,-2.723645,15.00107)" id="radialGradient23377" gradientUnits="userSpaceOnUse" xlink:show="other" xlink:type="simple" y1="32.4165" x1="12.2744" y2="14.2033" x2="35.391201" r="21.333334" cx="53.556889" fx="53.556889" cy="48.23827" fy="48.23827" xlink:actuate="onLoad">
            <stop stop-opacity="1.0000000" stop-color="#ffffff" offset="0.0000000"/>
            <stop stop-opacity="0.0000000" stop-color="#b8c04c" offset="1.0000000"/>
        </radialGradient>
        <radialGradient gradientTransform="matrix(5.184267e-3,-0.12286,0.544548,2.297824e-2,0.957234,26.30756)" id="radialGradient23374" gradientUnits="userSpaceOnUse" xlink:show="other" xlink:type="simple" y1="32.4165" x1="12.2744" y2="14.2033" x2="35.391201" r="21.333334" cx="16.885271" fx="16.885271" cy="33.377594" fy="33.377594" xlink:actuate="onLoad">
            <stop stop-opacity="1.0000000" stop-color="#ffffc8" offset="0.0000000"/>
            <stop stop-opacity="0.0000000" stop-color="#9a91ef" offset="1.0000000"/>
        </radialGradient>
        <radialGradient gradientTransform="matrix(0.105916,-1.91424e-2,0.104789,0.579807,17.13693,7.115158)" id="radialGradient23371" gradientUnits="userSpaceOnUse" xlink:show="other" xlink:type="simple" y1="32.4165" x1="12.2744" y2="14.2033" x2="35.391201" r="21.333334" cx="35.511295" fx="35.511295" cy="21.618015" fy="21.618015" xlink:actuate="onLoad">
            <stop stop-opacity="1.0000000" stop-color="#ffffc8" offset="0.0000000"/>
            <stop stop-opacity="0.0000000" stop-color="#9a91ef" offset="1.0000000"/>
        </radialGradient>
        <radialGradient gradientTransform="matrix(-5.04822e-2,1.387847e-2,-0.12844,-0.467196,35.41257,39.44172)" id="radialGradient23368" gradientUnits="userSpaceOnUse" xlink:show="other" xlink:type="simple" y1="32.4165" x1="12.2744" y2="14.2033" x2="35.391201" r="21.333334" cx="133.84108" fx="133.84108" cy="23.914305" fy="23.914305" xlink:actuate="onLoad">
            <stop stop-opacity="1.0000000" stop-color="#ffffc8" offset="0.0000000"/>
            <stop stop-opacity="0.0000000" stop-color="#9a91ef" offset="1.0000000"/>
        </radialGradient>
        <radialGradient gradientTransform="matrix(-5.04822e-2,1.387847e-2,-0.12844,-0.467196,35.41257,39.44172)" gradientUnits="userSpaceOnUse" xlink:show="other" xlink:type="simple" y1="32.4165" x1="12.2744" y2="14.2033" x2="35.391201" r="21.333334" cx="133.84108" fx="133.84108" cy="23.914305" fy="23.914305" xlink:actuate="onLoad">
            <stop stop-opacity="1.0000000" stop-color="#ffffc8" offset="0.0000000"/>
            <stop stop-opacity="0.0000000" stop-color="#9a91ef" offset="1.0000000"/>
        </radialGradient>
        <radialGradient gradientTransform="matrix(0.105916,-1.91424e-2,0.104789,0.579807,17.13693,7.115158)" gradientUnits="userSpaceOnUse" xlink:show="other" xlink:type="simple" y1="32.4165" x1="12.2744" y2="14.2033" x2="35.391201" r="21.333334" cx="35.511295" fx="35.511295" cy="21.618015" fy="21.618015" xlink:actuate="onLoad">
            <stop stop-opacity="1.0000000" stop-color="#ffffc8" offset="0.0000000"/>
            <stop stop-opacity="0.0000000" stop-color="#9a91ef" offset="1.0000000"/>
        </radialGradient>
        <radialGradient gradientTransform="matrix(5.184267e-3,-0.12286,0.544548,2.297824e-2,0.957234,26.30756)" gradientUnits="userSpaceOnUse" xlink:show="other" xlink:type="simple" y1="32.4165" x1="12.2744" y2="14.2033" x2="35.391201" r="21.333334" cx="16.885271" fx="16.885271" cy="33.377594" fy="33.377594" xlink:actuate="onLoad">
            <stop stop-opacity="1.0000000" stop-color="#ffffc8" offset="0.0000000"/>
            <stop stop-opacity="0.0000000" stop-color="#9a91ef" offset="1.0000000"/>
        </radialGradient>
        <radialGradient gradientTransform="matrix(0.15845,-0.158988,0.432907,0.431441,-2.723645,15.00107)" gradientUnits="userSpaceOnUse" xlink:show="other" xlink:type="simple" y1="32.4165" x1="12.2744" y2="14.2033" x2="35.391201" r="21.333334" cx="53.556889" fx="53.556889" cy="48.23827" fy="48.23827" xlink:actuate="onLoad">
            <stop stop-opacity="1.0000000" stop-color="#ffffff" offset="0.0000000"/>
            <stop stop-opacity="0.0000000" stop-color="#b8c04c" offset="1.0000000"/>
        </radialGradient>
        <radialGradient gradientTransform="matrix(0.769501,-1.2425,0.6703,0.415141,-21.77857,41.36563)" gradientUnits="userSpaceOnUse" xlink:show="other" xlink:type="simple" y1="32.4165" x1="12.2744" y2="14.2033" x2="35.391201" r="21.333334" cx="26.137741" fx="26.137741" cy="38.807304" fy="38.807304" xlink:actuate="onLoad">
            <stop stop-opacity="0.82178217" stop-color="#b307ff" offset="0.0000000"/>
            <stop stop-opacity="0.64356434" stop-color="#f0ff8b" offset="1.0000000"/>
            <stop stop-opacity="0.0000000" stop-color="#ffffff" offset="1.0000000"/>
        </radialGradient>
        <radialGradient gradientTransform="matrix(0.848684,0.95802,-0.782119,0.692834,18.69147,-20.52578)" gradientUnits="userSpaceOnUse" xlink:show="other" xlink:type="simple" y1="32.4165" x1="12.2744" y2="14.2033" x2="35.391201" r="21.333334" cx="37.751469" fx="37.751469" cy="27.569166" fy="27.569166" xlink:actuate="onLoad">
            <stop stop-opacity="1.0000000" stop-color="#fff307" offset="0.0000000"/>
            <stop stop-opacity="1.0000000" stop-color="#166eff" offset="0.50000000"/>
            <stop stop-opacity="0.0000000" stop-color="#ffffff" offset="1.0000000"/>
        </radialGradient>
        <linearGradient x1="28.702885" y1="31.494707" x2="17.742729" gradientUnits="userSpaceOnUse" y2="18.366575" xlink:type="simple" xlink:actuate="onLoad" id="linearGradient23353" xlink:show="other">
            <stop stop-opacity="1" stop-color="#ffffff" offset="0"/>
            <stop stop-opacity="0" stop-color="#ffffff" offset="1"/>
        </linearGradient>
        <linearGradient x1="10.50172" y1="3.6100161" x2="48.798885" gradientUnits="userSpaceOnUse" y2="54.698483" xlink:type="simple" xlink:actuate="onLoad" xlink:show="other">
            <stop stop-opacity="1" stop-color="#ffffff" offset="0"/>
            <stop stop-opacity="0" stop-color="#ffffff" offset="1"/>
        </linearGradient>
        <linearGradient x1="21.125" gradientTransform="matrix(1.25,0,0,1.25,-5.652995,-2.604165)" y1="14.625" x2="29" gradientUnits="userSpaceOnUse" y2="28" xlink:type="simple" xlink:actuate="onLoad" xlink:show="other">
            <stop stop-opacity="0.32673267" stop-color="#ffffff" offset="0.0000000"/>
            <stop stop-opacity="0.60396039" stop-color="#ffffff" offset="1.0000000"/>
        </linearGradient>
        <linearGradient x1="21.125" gradientTransform="matrix(1.25,0,0,1.25,-5.652995,-2.604165)" y1="14.625" x2="29" gradientUnits="userSpaceOnUse" y2="28" xlink:type="simple" xlink:actuate="onLoad" xlink:show="other">
            <stop stop-opacity="0.32673267" stop-color="#ffffff" offset="0.0000000"/>
            <stop stop-opacity="0.60396039" stop-color="#ffffff" offset="1.0000000"/>
        </linearGradient>
        <linearGradient x1="12.2744" gradientTransform="matrix(1.190476,0,0,1.190476,-4.224424,-2.500001)" y1="32.4165" x2="35.391201" gradientUnits="userSpaceOnUse" y2="14.2033" xlink:type="simple" xlink:actuate="onLoad" xlink:show="other">
            <stop stop-color="#fbfbfb" offset="0"/>
            <stop stop-color="#b6b6b6" offset="0.5"/>
            <stop stop-color="#e4e4e4" offset="1"/>
        </linearGradient>
        <linearGradient x1="14.9966" gradientTransform="matrix(1.190476,0,0,1.190476,-4.224424,-2.5)" y1="11.1885" x2="32.511002" gradientUnits="userSpaceOnUse" y2="34.307499" xlink:type="simple" xlink:actuate="onLoad" xlink:show="other">
            <stop stop-color="#ebebeb" offset="0"/>
            <stop stop-color="#ffffff" offset="0.5"/>
            <stop stop-color="#ebebeb" offset="1"/>
        </linearGradient>
        <radialGradient gradientTransform="matrix(0.769501,-1.2425,0.6703,0.415141,-21.77857,41.36563)" gradientUnits="userSpaceOnUse" xlink:show="other" xlink:type="simple" y1="32.4165" x1="12.2744" y2="14.2033" x2="35.391201" r="21.333334" cx="26.137741" fx="26.137741" cy="38.807304" fy="38.807304" xlink:actuate="onLoad">
            <stop stop-opacity="0.82178217" stop-color="#b307ff" offset="0.0000000"/>
            <stop stop-opacity="0.64356434" stop-color="#f0ff8b" offset="1.0000000"/>
            <stop stop-opacity="0.0000000" stop-color="#ffffff" offset="1.0000000"/>
        </radialGradient>
        <radialGradient gradientTransform="matrix(-5.04822e-2,1.387847e-2,-0.12844,-0.467196,35.41257,39.44172)" gradientUnits="userSpaceOnUse" xlink:show="other" xlink:type="simple" y1="32.4165" x1="12.2744" y2="14.2033" x2="35.391201" r="21.333334" cx="133.84108" fx="133.84108" cy="23.914305" fy="23.914305" xlink:actuate="onLoad">
            <stop stop-opacity="1.0000000" stop-color="#ffffc8" offset="0.0000000"/>
            <stop stop-opacity="0.0000000" stop-color="#9a91ef" offset="1.0000000"/>
        </radialGradient>
        <radialGradient gradientTransform="matrix(0.105916,-1.91424e-2,0.104789,0.579807,17.13693,7.115158)" gradientUnits="userSpaceOnUse" xlink:show="other" xlink:type="simple" y1="32.4165" x1="12.2744" y2="14.2033" x2="35.391201" r="21.333334" cx="35.511295" fx="35.511295" cy="21.618015" fy="21.618015" xlink:actuate="onLoad">
            <stop stop-opacity="1.0000000" stop-color="#ffffc8" offset="0.0000000"/>
            <stop stop-opacity="0.0000000" stop-color="#9a91ef" offset="1.0000000"/>
        </radialGradient>
        <radialGradient gradientTransform="matrix(5.184267e-3,-0.12286,0.544548,2.297824e-2,0.957234,26.30756)" gradientUnits="userSpaceOnUse" xlink:show="other" xlink:type="simple" y1="32.4165" x1="12.2744" y2="14.2033" x2="35.391201" r="21.333334" cx="16.885271" fx="16.885271" cy="33.377594" fy="33.377594" xlink:actuate="onLoad">
            <stop stop-opacity="1.0000000" stop-color="#ffffc8" offset="0.0000000"/>
            <stop stop-opacity="0.0000000" stop-color="#9a91ef" offset="1.0000000"/>
        </radialGradient>
        <radialGradient gradientTransform="matrix(0.15845,-0.158988,0.432907,0.431441,-2.723645,15.00107)" gradientUnits="userSpaceOnUse" xlink:show="other" xlink:type="simple" y1="32.4165" x1="12.2744" y2="14.2033" x2="35.391201" r="21.333334" cx="53.556889" fx="53.556889" cy="48.23827" fy="48.23827" xlink:actuate="onLoad">
            <stop stop-opacity="1.0000000" stop-color="#ffffff" offset="0.0000000"/>
            <stop stop-opacity="0.0000000" stop-color="#b8c04c" offset="1.0000000"/>
        </radialGradient>
        <radialGradient gradientTransform="matrix(0.848684,0.95802,-0.782119,0.692834,18.69147,-20.52578)" gradientUnits="userSpaceOnUse" xlink:show="other" xlink:type="simple" y1="32.4165" x1="12.2744" y2="14.2033" x2="35.391201" r="21.333334" cx="37.751469" fx="37.751469" cy="27.569166" fy="27.569166" xlink:actuate="onLoad">
            <stop stop-opacity="1.0000000" stop-color="#fff307" offset="0.0000000"/>
            <stop stop-opacity="1.0000000" stop-color="#166eff" offset="0.50000000"/>
            <stop stop-opacity="0.0000000" stop-color="#ffffff" offset="1.0000000"/>
        </radialGradient>
        <linearGradient x1="10.50172" y1="3.6100161" x2="48.798885" gradientUnits="userSpaceOnUse" y2="54.698483" xlink:type="simple" xlink:actuate="onLoad" xlink:show="other">
            <stop stop-opacity="1" stop-color="#ffffff" offset="0"/>
            <stop stop-opacity="0" stop-color="#ffffff" offset="1"/>
        </linearGradient>
        <linearGradient x1="28.702885" y1="31.494707" x2="17.742729" gradientUnits="userSpaceOnUse" y2="18.366575" xlink:type="simple" xlink:actuate="onLoad" xlink:show="other">
            <stop stop-opacity="1" stop-color="#ffffff" offset="0"/>
            <stop stop-opacity="0" stop-color="#ffffff" offset="1"/>
        </linearGradient>
        <linearGradient x1="12.2744" gradientTransform="matrix(1.190476,0,0,1.190476,-4.224424,-2.500001)" y1="32.4165" x2="35.391201" gradientUnits="userSpaceOnUse" y2="14.2033" xlink:type="simple" xlink:actuate="onLoad" xlink:show="other">
            <stop stop-color="#fbfbfb" offset="0"/>
            <stop stop-color="#b6b6b6" offset="0.5"/>
            <stop stop-color="#e4e4e4" offset="1"/>
        </linearGradient>
        <linearGradient x1="21.125" gradientTransform="matrix(1.25,0,0,1.25,-5.652995,-2.604165)" y1="14.625" x2="29" gradientUnits="userSpaceOnUse" y2="28" xlink:type="simple" xlink:actuate="onLoad" xlink:show="other">
            <stop stop-opacity="0.32673267" stop-color="#ffffff" offset="0.0000000"/>
            <stop stop-opacity="0.60396039" stop-color="#ffffff" offset="1.0000000"/>
        </linearGradient>
        <linearGradient x1="21.125" gradientTransform="matrix(1.25,0,0,1.25,-5.652995,-2.604165)" y1="14.625" x2="29" gradientUnits="userSpaceOnUse" y2="28" xlink:type="simple" xlink:actuate="onLoad" xlink:show="other">
            <stop stop-opacity="0.32673267" stop-color="#ffffff" offset="0.0000000"/>
            <stop stop-opacity="0.60396039" stop-color="#ffffff" offset="1.0000000"/>
        </linearGradient>
        <linearGradient x1="14.9966" gradientTransform="matrix(1.190476,0,0,1.190476,-4.224424,-2.5)" y1="11.1885" x2="32.511002" gradientUnits="userSpaceOnUse" y2="34.307499" xlink:type="simple" xlink:actuate="onLoad" xlink:show="other">
            <stop stop-color="#ebebeb" offset="0"/>
            <stop stop-color="#ffffff" offset="0.5"/>
            <stop stop-color="#ebebeb" offset="1"/>
        </linearGradient>
        <linearGradient x1="14.9966" y1="11.1885" x2="32.511002" gradientUnits="userSpaceOnUse" y2="34.307499" xlink:type="simple" xlink:actuate="onLoad" xlink:show="other">
            <stop stop-color="#ebebeb" offset="0"/>
            <stop stop-color="#ffffff" offset="0.5"/>
            <stop stop-color="#ebebeb" offset="1"/>
        </linearGradient>
        <linearGradient x1="12.2744" y1="32.4165" x2="35.391201" gradientUnits="userSpaceOnUse" y2="14.2033" xlink:type="simple" xlink:actuate="onLoad" xlink:show="other">
            <stop stop-color="#fbfbfb" offset="0"/>
            <stop stop-color="#b6b6b6" offset="0.5"/>
            <stop stop-color="#e4e4e4" offset="1"/>
        </linearGradient>
        <linearGradient xlink:type="simple" xlink:actuate="onLoad" xlink:show="other">
            <stop stop-opacity="0.32673267" stop-color="#ffffff" offset="0.0000000"/>
            <stop stop-opacity="0.60396039" stop-color="#ffffff" offset="1.0000000"/>
        </linearGradient>
        <linearGradient xlink:type="simple" xlink:actuate="onLoad" xlink:show="other">
            <stop stop-opacity="1" stop-color="#ffffff" offset="0"/>
            <stop stop-opacity="0" stop-color="#ffffff" offset="1"/>
        </linearGradient>
        <linearGradient xlink:type="simple" xlink:actuate="onLoad" xlink:show="other">
            <stop stop-opacity="1" stop-color="#ffffff" offset="0"/>
            <stop stop-opacity="0" stop-color="#ffffff" offset="1"/>
        </linearGradient>
        <linearGradient x1="12.2744" y1="32.4165" x2="35.391201" gradientUnits="userSpaceOnUse" y2="14.2033" xlink:type="simple" xlink:actuate="onLoad" xlink:show="other">
            <stop stop-opacity="1.0000000" stop-color="#fff307" offset="0.0000000"/>
            <stop stop-opacity="1.0000000" stop-color="#166eff" offset="0.50000000"/>
            <stop stop-opacity="0.0000000" stop-color="#ffffff" offset="1.0000000"/>
        </linearGradient>
        <linearGradient x1="12.2744" y1="32.4165" x2="35.391201" gradientUnits="userSpaceOnUse" y2="14.2033" xlink:type="simple" xlink:actuate="onLoad" xlink:show="other">
            <stop stop-opacity="0.82178217" stop-color="#b307ff" offset="0.0000000"/>
            <stop stop-opacity="0.64356434" stop-color="#f0ff8b" offset="1.0000000"/>
            <stop stop-opacity="0.0000000" stop-color="#ffffff" offset="1.0000000"/>
        </linearGradient>
        <linearGradient x1="12.2744" y1="32.4165" x2="35.391201" gradientUnits="userSpaceOnUse" y2="14.2033" xlink:type="simple" xlink:actuate="onLoad" xlink:show="other">
            <stop stop-opacity="1.0000000" stop-color="#ffffff" offset="0.0000000"/>
            <stop stop-opacity="0.0000000" stop-color="#b8c04c" offset="1.0000000"/>
        </linearGradient>
        <linearGradient x1="12.2744" y1="32.4165" x2="35.391201" gradientUnits="userSpaceOnUse" y2="14.2033" xlink:type="simple" xlink:actuate="onLoad" xlink:show="other">
            <stop stop-opacity="1.0000000" stop-color="#ffffc8" offset="0.0000000"/>
            <stop stop-opacity="0.0000000" stop-color="#9a91ef" offset="1.0000000"/>
        </linearGradient>
        <linearGradient xlink:type="simple" xlink:actuate="onLoad" xlink:show="other">
            <stop stop-opacity="1" stop-color="#000000" offset="0"/>
            <stop stop-opacity="0" stop-color="#000000" offset="1"/>
        </linearGradient>
    </defs>
    <g transform="matrix(1.2161913,0,0,1.4648442,12.096872,-1.7267847)">
        <path fill-opacity="0.55" display="inline" stroke="none" d="M 45.96194 41.63604 C 45.96194 44.760235 35.831303 47.292892 23.334524 47.292892 C 10.837747 47.292892 0.70710754 44.760235 0.70710754 41.63604 C 0.70710754 38.511845 10.837747 35.979187 23.334524 35.979187 C 35.831303 35.979187 45.96194 38.511845 45.96194 41.63604 z " visibility="visible" stroke-linecap="butt" transform="matrix(1,0,0,1.066291,1,-2.885106)" stroke-miterlimit="4" stroke-opacity="1" fill="url(#radialGradient23425)" stroke-dasharray="none" stroke-width="2" color="#000000" stroke-linejoin="miter" stroke-dashoffset="0" fill-rule="evenodd"/>
        <path fill="url(#linearGradient23400)" d="M 24.347006 4.166667 C 12.799386 4.166667 3.513672 13.452381 3.513672 25.0 C 3.513672 36.54762 12.799386 45.833336 24.347006 45.833336 C 35.894623 45.833336 45.18034 36.54762 45.18034 25.0 C 45.18034 13.452381 35.894623 4.166667 24.347006 4.166667 L 24.347006 4.166667 z M 24.347006 30.0 C 21.608912 30.0 19.347006 27.738096 19.347006 25.0 C 19.347006 22.261904 21.608912 20.0 24.347006 20.0 C 27.0851 20.0 29.347006 22.261904 29.347006 25.0 C 29.347006 27.738096 27.0851 30.0 24.347006 30.0 z " stroke-miterlimit="4" fill-rule="nonzero" stroke="none"/>
        <path fill="url(#linearGradient23397)" fill-rule="nonzero" d="M 24.347006 4.1666665 C 12.799386 4.1666665 3.513672 13.452381 3.513672 25.0 C 3.513672 36.54762 12.799386 45.833336 24.347006 45.833336 C 35.894623 45.833336 45.18034 36.54762 45.18034 25.0 C 45.18034 13.452381 35.894623 4.1666665 24.347006 4.1666665 L 24.347006 4.1666665 z M 24.347006 30.0 C 21.608912 30.0 19.347006 27.738096 19.347006 25.0 C 19.347006 22.261904 21.608912 20.0 24.347006 20.0 C 27.0851 20.0 29.347006 22.261904 29.347006 25.0 C 29.347006 27.738096 27.0851 30.0 24.347006 30.0 z " stroke="#808080" stroke-opacity="1" stroke-miterlimit="4"/>
        <path fill-opacity="0.10999995" fill-rule="nonzero" d="M 24.347006 14.895835 C 18.70442 14.895835 14.24284 19.488638 14.24284 25.0 C 14.24284 30.642588 18.835644 35.104168 24.347006 35.104168 C 29.989592 35.104168 34.45117 30.511364 34.45117 25.0 C 34.45117 19.357414 29.858368 14.895835 24.347006 14.895835 L 24.347006 14.895835 z M 24.347006 30.511364 C 21.32888 30.511364 18.835644 28.018127 18.835644 25.0 C 18.835644 21.981873 21.32888 19.488638 24.347006 19.488638 C 27.365131 19.488638 29.858368 21.981873 29.858368 25.0 C 29.858368 28.018127 27.365131 30.511364 24.347006 30.511364 z " stroke="none" stroke-opacity="0.10999995" stroke-miterlimit="4"/>
        <path fill-opacity="1" fill="url(#linearGradient23393)" fill-rule="nonzero" d="M 29.922112 5.669234 L 26.325518 19.663897 C 27.450222 19.963411 28.34966 20.659369 28.960646 21.622438 L 41.352863 14.073153 C 38.817616 9.943439 34.748657 6.9050856 29.922112 5.669234 z " stroke="none" stroke-opacity="1" stroke-miterlimit="4"/>
        <path fill-opacity="1" fill="url(#linearGradient23390)" fill-rule="nonzero" d="M 17.307823 43.766056 L 22.04308 30.114555 C 20.946815 29.723566 20.107656 28.956003 19.577936 27.945951 L 6.6068754 34.4506 C 8.793933 38.77481 12.599255 42.13748 17.307823 43.766056 z " stroke="none" stroke-opacity="1" stroke-miterlimit="4"/>
        <path fill-opacity="0.54644811" fill="none" fill-rule="nonzero" d="M 24.347002 5.2023654 C 13.373458 5.2023654 4.5493712 14.026454 4.5493712 24.999996 C 4.5493712 35.97354 13.373458 44.797623 24.347002 44.797623 C 35.320545 44.797623 44.14463 35.97354 44.14463 24.999996 C 44.14463 14.026454 35.320545 5.2023654 24.347002 5.2023654 L 24.347002 5.2023654 z " stroke="url(#linearGradient23387)" stroke-opacity="1" stroke-miterlimit="4"/>
        <path fill-opacity="0.31638417" display="inline" stroke="url(#linearGradient23353)" d="M 30.405592 24.93064 C 30.405592 28.298912 27.675068 31.029434 24.306795 31.029434 C 20.938524 31.029434 18.208 28.298912 18.208 24.93064 C 18.208 21.562366 20.938524 18.831844 24.306795 18.831844 C 27.675068 18.831844 30.405592 21.562366 30.405592 24.93064 z " visibility="visible" stroke-linecap="butt" transform="translate(8.838835e-2,8.838865e-2)" stroke-miterlimit="4" stroke-opacity="1" fill="none" stroke-width="0.93053865" color="#000000" stroke-linejoin="miter" stroke-dashoffset="0" fill-rule="nonzero"/>
        <path fill-opacity="0.1142857" fill="url(#radialGradient23383)" fill-rule="nonzero" d="M 24.347006 4.1666665 C 12.799386 4.1666665 3.513672 13.452381 3.513672 25.0 C 3.513672 36.54762 12.799386 45.833336 24.347006 45.833336 C 35.894623 45.833336 45.18034 36.54762 45.18034 25.0 C 45.18034 13.452381 35.894623 4.1666665 24.347006 4.1666665 L 24.347006 4.1666665 z M 24.347006 30.0 C 21.608912 30.0 19.347006 27.738096 19.347006 25.0 C 19.347006 22.261904 21.608912 20.0 24.347006 20.0 C 27.0851 20.0 29.347006 22.261904 29.347006 25.0 C 29.347006 27.738096 27.0851 30.0 24.347006 30.0 z " stroke="none" stroke-opacity="1" stroke-miterlimit="4"/>
        <path fill-opacity="0.09714284" fill="url(#radialGradient23380)" fill-rule="nonzero" d="M 24.347006 4.1666665 C 12.799386 4.1666665 3.513672 13.452381 3.513672 25.0 C 3.513672 36.54762 12.799386 45.833336 24.347006 45.833336 C 35.894623 45.833336 45.18034 36.54762 45.18034 25.0 C 45.18034 13.452381 35.894623 4.1666665 24.347006 4.1666665 L 24.347006 4.1666665 z M 24.347006 30.0 C 21.608912 30.0 19.347006 27.738096 19.347006 25.0 C 19.347006 22.261904 21.608912 20.0 24.347006 20.0 C 27.0851 20.0 29.347006 22.261904 29.347006 25.0 C 29.347006 27.738096 27.0851 30.0 24.347006 30.0 z " stroke="none" stroke-opacity="1" stroke-miterlimit="4"/>
        <path fill-opacity="0.71428576" fill="url(#radialGradient23377)" fill-rule="nonzero" d="M 24.347006 4.1666665 C 12.799386 4.1666665 3.513672 13.452381 3.513672 25.0 C 3.513672 36.54762 12.799386 45.833336 24.347006 45.833336 C 35.894623 45.833336 45.18034 36.54762 45.18034 25.0 C 45.18034 13.452381 35.894623 4.1666665 24.347006 4.1666665 L 24.347006 4.1666665 z M 24.347006 30.0 C 21.608912 30.0 19.347006 27.738096 19.347006 25.0 C 19.347006 22.261904 21.608912 20.0 24.347006 20.0 C 27.0851 20.0 29.347006 22.261904 29.347006 25.0 C 29.347006 27.738096 27.0851 30.0 24.347006 30.0 z " stroke="none" stroke-opacity="1" stroke-miterlimit="4"/>
        <path fill-opacity="0.62285713" fill="url(#radialGradient23374)" fill-rule="nonzero" d="M 24.347006 4.1666665 C 12.799386 4.1666665 3.513672 13.452381 3.513672 25.0 C 3.513672 36.54762 12.799386 45.833336 24.347006 45.833336 C 35.894623 45.833336 45.18034 36.54762 45.18034 25.0 C 45.18034 13.452381 35.894623 4.1666665 24.347006 4.1666665 L 24.347006 4.1666665 z M 24.347006 30.0 C 21.608912 30.0 19.347006 27.738096 19.347006 25.0 C 19.347006 22.261904 21.608912 20.0 24.347006 20.0 C 27.0851 20.0 29.347006 22.261904 29.347006 25.0 C 29.347006 27.738096 27.0851 30.0 24.347006 30.0 z " stroke="none" stroke-opacity="1" stroke-miterlimit="4"/>
        <path fill-opacity="0.37142861" fill="url(#radialGradient23371)" fill-rule="nonzero" d="M 24.347006 4.1666665 C 12.799386 4.1666665 3.513672 13.452381 3.513672 25.0 C 3.513672 36.54762 12.799386 45.833336 24.347006 45.833336 C 35.894623 45.833336 45.18034 36.54762 45.18034 25.0 C 45.18034 13.452381 35.894623 4.1666665 24.347006 4.1666665 L 24.347006 4.1666665 z M 24.347006 30.0 C 21.608912 30.0 19.347006 27.738096 19.347006 25.0 C 19.347006 22.261904 21.608912 20.0 24.347006 20.0 C 27.0851 20.0 29.347006 22.261904 29.347006 25.0 C 29.347006 27.738096 27.0851 30.0 24.347006 30.0 z " stroke="none" stroke-opacity="1" stroke-miterlimit="4"/>
        <path fill-opacity="0.23428572" fill="url(#radialGradient23368)" fill-rule="nonzero" d="M 24.347006 4.1666665 C 12.799386 4.1666665 3.513672 13.452381 3.513672 25.0 C 3.513672 36.54762 12.799386 45.833336 24.347006 45.833336 C 35.894623 45.833336 45.18034 36.54762 45.18034 25.0 C 45.18034 13.452381 35.894623 4.1666665 24.347006 4.1666665 L 24.347006 4.1666665 z M 24.347006 30.0 C 21.608912 30.0 19.347006 27.738096 19.347006 25.0 C 19.347006 22.261904 21.608912 20.0 24.347006 20.0 C 27.0851 20.0 29.347006 22.261904 29.347006 25.0 C 29.347006 27.738096 27.0851 30.0 24.347006 30.0 z " stroke="none" stroke-opacity="1" stroke-miterlimit="4"/>
    </g>
</svg>
