<?xml version="1.0" encoding="UTF-8"?>
<svg xmlns="http://www.w3.org/2000/svg" xmlns:xlink="http://www.w3.org/1999/xlink" contentScriptType="text/ecmascript" width="20" baseProfile="tiny" zoomAndPan="magnify" contentStyleType="text/css" viewBox="0 0 20 20" height="20" preserveAspectRatio="xMidYMid meet" version="1.0">
    <defs>
        <radialGradient gradientTransform="matrix(1.995058,-1.383691e-32,0,1.67151,28.3785,-53.54954)" id="linearGradient11520" gradientUnits="userSpaceOnUse" xlink:show="other" xlink:type="simple" r="20.530962" cx="24.445690" fx="24.445690" cy="35.878170" fy="35.878170" xlink:actuate="onLoad">
            <stop stop-opacity="1.0000000" stop-color="#ffffff" offset="0.0000000"/>
            <stop stop-opacity="1.0000000" stop-color="#dcdcdc" offset="1.0000000"/>
        </radialGradient>
        <linearGradient gradientTransform="matrix(1.061966,0,0,0.837825,51.18857,-24.35659)" id="linearGradient11594" gradientUnits="userSpaceOnUse" xlink:show="other" xlink:type="simple" x1="20.092352" y1="8.9471626" x2="31.799011" y2="38.947163" xlink:actuate="onLoad">
            <stop stop-opacity="1" stop-color="#ffffff" offset="0"/>
            <stop stop-opacity="1.0000000" stop-color="#d1d1d1" offset="1.0000000"/>
        </linearGradient>
        <linearGradient gradientTransform="matrix(1,0,0,0.837825,52.70338,-24.35659)" id="linearGradient11602" gradientUnits="userSpaceOnUse" xlink:show="other" xlink:type="simple" x1="24.445671" y1="12.947163" x2="24.445671" y2="39.447163" xlink:actuate="onLoad">
            <stop stop-opacity="1.0000000" stop-color="#f6f6f6" offset="0.0000000"/>
            <stop stop-opacity="1.0000000" stop-color="#e0e0e0" offset="1.0000000"/>
        </linearGradient>
        <radialGradient gradientTransform="matrix(3.070491,2.727143e-15,-3.444813e-15,3.878514,0.31613,-107.1787)" id="linearGradient11615" gradientUnits="userSpaceOnUse" xlink:show="other" xlink:type="simple" r="4.7500000" cx="25.000000" fx="25.000000" cy="27.749998" fy="27.749998" xlink:actuate="onLoad">
            <stop stop-opacity="1.0000000" stop-color="#636363" offset="0.0000000"/>
            <stop stop-opacity="1.0000000" stop-color="#000000" offset="1.0000000"/>
        </radialGradient>
        <linearGradient gradientTransform="matrix(0.985,0,0,1.022813,53.90276,-31.16009)" id="linearGradient11625" gradientUnits="userSpaceOnUse" xlink:show="other" xlink:type="simple" x1="21.500000" y1="30.000000" x2="21.500000" y2="27.375000" xlink:actuate="onLoad">
            <stop stop-opacity="1" stop-color="#fce94f" offset="0"/>
            <stop stop-opacity="0" stop-color="#fce94f" offset="1"/>
        </linearGradient>
        <linearGradient gradientTransform="matrix(0.985,0,0,1,55.89338,-30.52133)" id="linearGradient11625" gradientUnits="userSpaceOnUse" xlink:show="other" xlink:type="simple" x1="21.500000" y1="30.000000" x2="21.500000" y2="27.375000" xlink:actuate="onLoad">
            <stop stop-opacity="1" stop-color="#fce94f" offset="0"/>
            <stop stop-opacity="0" stop-color="#fce94f" offset="1"/>
        </linearGradient>
        <linearGradient gradientTransform="matrix(1.01625,0,0,1,57.23713,-30.52133)" id="linearGradient11625" gradientUnits="userSpaceOnUse" xlink:show="other" xlink:type="simple" x1="21.500000" y1="30.000000" x2="21.500000" y2="27.375000" xlink:actuate="onLoad">
            <stop stop-opacity="1" stop-color="#fce94f" offset="0"/>
            <stop stop-opacity="0" stop-color="#fce94f" offset="1"/>
        </linearGradient>
        <linearGradient xlink:type="simple" xlink:actuate="onLoad" id="linearGradient12836" xlink:show="other">
            <stop stop-opacity="1" stop-color="#515152" offset="0"/>
            <stop stop-opacity="0" stop-color="#515152" offset="1"/>
        </linearGradient>
        <linearGradient xlink:type="simple" xlink:actuate="onLoad" id="linearGradient12828" xlink:show="other">
            <stop stop-opacity="1.0000000" stop-color="#cccccd" offset="0.0000000"/>
            <stop stop-opacity="1.0000000" stop-color="#adadae" offset="0.0000000"/>
            <stop stop-opacity="0.0000000" stop-color="#8f8f90" offset="1.0000000"/>
        </linearGradient>
        <linearGradient xlink:type="simple" xlink:actuate="onLoad" id="linearGradient12810" xlink:show="other">
            <stop stop-opacity="1" stop-color="#ffffff" offset="0"/>
            <stop stop-opacity="1.0000000" stop-color="#e5e5e5" offset="1.0000000"/>
        </linearGradient>
        <linearGradient xlink:type="simple" xlink:actuate="onLoad" id="linearGradient11625" xlink:show="other">
            <stop stop-opacity="1" stop-color="#fce94f" offset="0"/>
            <stop stop-opacity="0" stop-color="#fce94f" offset="1"/>
        </linearGradient>
        <linearGradient xlink:type="simple" xlink:actuate="onLoad" id="linearGradient11615" xlink:show="other">
            <stop stop-opacity="1.0000000" stop-color="#636363" offset="0.0000000"/>
            <stop stop-opacity="1.0000000" stop-color="#000000" offset="1.0000000"/>
        </linearGradient>
        <linearGradient xlink:type="simple" xlink:actuate="onLoad" id="linearGradient11602" xlink:show="other">
            <stop stop-opacity="1.0000000" stop-color="#f6f6f6" offset="0.0000000"/>
            <stop stop-opacity="1.0000000" stop-color="#e0e0e0" offset="1.0000000"/>
        </linearGradient>
        <linearGradient xlink:type="simple" xlink:actuate="onLoad" id="linearGradient11594" xlink:show="other">
            <stop stop-opacity="1" stop-color="#ffffff" offset="0"/>
            <stop stop-opacity="1.0000000" stop-color="#d1d1d1" offset="1.0000000"/>
        </linearGradient>
        <linearGradient xlink:type="simple" xlink:actuate="onLoad" id="linearGradient11520" xlink:show="other">
            <stop stop-opacity="1.0000000" stop-color="#ffffff" offset="0.0000000"/>
            <stop stop-opacity="1.0000000" stop-color="#dcdcdc" offset="1.0000000"/>
        </linearGradient>
        <linearGradient xlink:type="simple" xlink:actuate="onLoad" id="linearGradient11508" xlink:show="other">
            <stop stop-opacity="1" stop-color="#000000" offset="0"/>
            <stop stop-opacity="0" stop-color="#000000" offset="1"/>
        </linearGradient>
        <radialGradient gradientTransform="matrix(1.995058,-1.383691e-32,0,1.67151,-27.19988,-29.02822)" id="linearGradient11520" gradientUnits="userSpaceOnUse" xlink:show="other" xlink:type="simple" r="20.530962" cx="24.445690" fx="24.445690" cy="35.878170" fy="35.878170" xlink:actuate="onLoad">
            <stop stop-opacity="1.0000000" stop-color="#ffffff" offset="0.0000000"/>
            <stop stop-opacity="1.0000000" stop-color="#dcdcdc" offset="1.0000000"/>
        </radialGradient>
        <radialGradient gradientTransform="matrix(1,0,0,0.338462,-5.637071e-14,29.48178)" id="linearGradient11508" gradientUnits="userSpaceOnUse" xlink:show="other" xlink:type="simple" r="6.5659914" cx="30.203562" fx="30.203562" cy="44.565483" fy="44.565483" xlink:actuate="onLoad">
            <stop stop-opacity="1" stop-color="#000000" offset="0"/>
            <stop stop-opacity="0" stop-color="#000000" offset="1"/>
        </radialGradient>
        <linearGradient gradientTransform="matrix(1.061966,0,0,0.837825,-4.389811,0.164729)" id="linearGradient11594" gradientUnits="userSpaceOnUse" xlink:show="other" xlink:type="simple" x1="20.092352" y1="8.9471626" x2="31.799011" y2="38.947163" xlink:actuate="onLoad">
            <stop stop-opacity="1" stop-color="#ffffff" offset="0"/>
            <stop stop-opacity="1.0000000" stop-color="#d1d1d1" offset="1.0000000"/>
        </linearGradient>
        <linearGradient gradientTransform="matrix(1,0,0,0.837825,-2.875,0.164729)" id="linearGradient11602" gradientUnits="userSpaceOnUse" xlink:show="other" xlink:type="simple" x1="24.445671" y1="12.947163" x2="24.445671" y2="39.447163" xlink:actuate="onLoad">
            <stop stop-opacity="1.0000000" stop-color="#f6f6f6" offset="0.0000000"/>
            <stop stop-opacity="1.0000000" stop-color="#e0e0e0" offset="1.0000000"/>
        </linearGradient>
        <radialGradient gradientTransform="matrix(3.070491,2.727143e-15,-3.444813e-15,3.878514,-55.26225,-82.65742)" id="linearGradient11615" gradientUnits="userSpaceOnUse" xlink:show="other" xlink:type="simple" r="4.7500000" cx="25.000000" fx="25.000000" cy="27.749998" fy="27.749998" xlink:actuate="onLoad">
            <stop stop-opacity="1.0000000" stop-color="#636363" offset="0.0000000"/>
            <stop stop-opacity="1.0000000" stop-color="#000000" offset="1.0000000"/>
        </radialGradient>
        <linearGradient gradientTransform="matrix(1.01625,0,0,1,1.65875,-6.000012)" id="linearGradient11625" gradientUnits="userSpaceOnUse" xlink:show="other" xlink:type="simple" x1="21.500000" y1="30.000000" x2="21.500000" y2="27.375000" xlink:actuate="onLoad">
            <stop stop-opacity="1" stop-color="#fce94f" offset="0"/>
            <stop stop-opacity="0" stop-color="#fce94f" offset="1"/>
        </linearGradient>
        <linearGradient gradientTransform="matrix(0.985,0,0,1,0.315001,-6.000012)" id="linearGradient11625" gradientUnits="userSpaceOnUse" xlink:show="other" xlink:type="simple" x1="21.500000" y1="30.000000" x2="21.500000" y2="27.375000" xlink:actuate="onLoad">
            <stop stop-opacity="1" stop-color="#fce94f" offset="0"/>
            <stop stop-opacity="0" stop-color="#fce94f" offset="1"/>
        </linearGradient>
        <linearGradient gradientTransform="matrix(0.985,0,0,1.022813,-1.675625,-6.638771)" id="linearGradient11625" gradientUnits="userSpaceOnUse" xlink:show="other" xlink:type="simple" x1="21.500000" y1="30.000000" x2="21.500000" y2="27.375000" xlink:actuate="onLoad">
            <stop stop-opacity="1" stop-color="#fce94f" offset="0"/>
            <stop stop-opacity="0" stop-color="#fce94f" offset="1"/>
        </linearGradient>
        <linearGradient gradientTransform="matrix(0.755725,0,0,0.755725,-25.19847,17.09924)" id="linearGradient12810" gradientUnits="userSpaceOnUse" xlink:show="other" xlink:type="simple" x1="84.998962" y1="25.209778" x2="62.591469" y2="12.022278" xlink:actuate="onLoad">
            <stop stop-opacity="1" stop-color="#ffffff" offset="0"/>
            <stop stop-opacity="1.0000000" stop-color="#e5e5e5" offset="1.0000000"/>
        </linearGradient>
        <radialGradient gradientTransform="matrix(0.732463,0.172296,-0.147115,0.625415,-17.70794,5.185566)" id="linearGradient12828" gradientUnits="userSpaceOnUse" xlink:show="other" xlink:type="simple" r="7.0056136" cx="88.593018" fx="88.593018" cy="33.398670" fy="33.398670" xlink:actuate="onLoad">
            <stop stop-opacity="1.0000000" stop-color="#cccccd" offset="0.0000000"/>
            <stop stop-opacity="1.0000000" stop-color="#adadae" offset="0.0000000"/>
            <stop stop-opacity="0.0000000" stop-color="#8f8f90" offset="1.0000000"/>
        </radialGradient>
        <linearGradient gradientTransform="matrix(0.755725,0,0,0.755725,-24.84491,17.27602)" id="linearGradient12836" gradientUnits="userSpaceOnUse" xlink:show="other" xlink:type="simple" x1="88.750000" y1="31.656250" x2="92.062500" y2="36.656250" xlink:actuate="onLoad">
            <stop stop-opacity="1" stop-color="#515152" offset="0"/>
            <stop stop-opacity="0" stop-color="#515152" offset="1"/>
        </linearGradient>
        <linearGradient gradientTransform="matrix(0.755725,0,0,0.755725,-25.19847,17.09924)" id="linearGradient12810" gradientUnits="userSpaceOnUse" xlink:show="other" xlink:type="simple" x1="65.623963" y1="21.459777" x2="87.528968" y2="21.459777" xlink:actuate="onLoad">
            <stop stop-opacity="1" stop-color="#ffffff" offset="0"/>
            <stop stop-opacity="1.0000000" stop-color="#e5e5e5" offset="1.0000000"/>
        </linearGradient>
        <radialGradient gradientTransform="matrix(1,1.166195e-16,-4.328308e-17,0.338462,-4.615251e-14,29.48178)" id="linearGradient11508" gradientUnits="userSpaceOnUse" xlink:show="other" xlink:type="simple" r="6.5659914" cx="30.203562" fx="30.203562" cy="44.565483" fy="44.565483" xlink:actuate="onLoad">
            <stop stop-opacity="1" stop-color="#000000" offset="0"/>
            <stop stop-opacity="0" stop-color="#000000" offset="1"/>
        </radialGradient>
        <linearGradient x1="9.485774" y1="22.107626" x2="7.378232" gradientUnits="userSpaceOnUse" y2="22.637957" xlink:type="simple" xlink:actuate="onLoad" id="linearGradient3510" xlink:show="other">
            <stop stop-opacity="1" stop-color="#ffffff" offset="0"/>
            <stop stop-opacity="0" stop-color="#ffffff" offset="1"/>
        </linearGradient>
        <radialGradient gradientTransform="matrix(13.39869,-4.118282e-6,6.831725e-6,22.22678,-456.6246,-518.5208)" id="linearGradient3498" gradientUnits="userSpaceOnUse" xlink:show="other" xlink:type="simple" r="1.2404949" cx="36.82843" fx="36.82843" cy="24.427677" fy="24.427671" xlink:actuate="onLoad">
            <stop stop-opacity="1" stop-color="#3465a4" offset="0"/>
            <stop stop-opacity="0" stop-color="#3465a4" offset="1"/>
        </radialGradient>
        <radialGradient gradientTransform="matrix(21.09444,2.34445e-15,1.470518e-12,22.22672,-740.0468,-518.5196)" id="linearGradient3498" gradientUnits="userSpaceOnUse" xlink:show="other" xlink:type="simple" r="1.2404949" cx="36.82843" fx="36.82843" cy="24.427683" fy="24.427683" xlink:actuate="onLoad">
            <stop stop-opacity="1" stop-color="#3465a4" offset="0"/>
            <stop stop-opacity="0" stop-color="#3465a4" offset="1"/>
        </radialGradient>
        <radialGradient gradientTransform="matrix(13.39869,-4.118282e-6,6.831725e-6,22.22678,-456.6246,-518.5208)" id="linearGradient3498" gradientUnits="userSpaceOnUse" xlink:show="other" xlink:type="simple" r="1.2404949" cx="36.82843" fx="36.82843" cy="24.427677" fy="24.427671" xlink:actuate="onLoad">
            <stop stop-opacity="1" stop-color="#3465a4" offset="0"/>
            <stop stop-opacity="0" stop-color="#3465a4" offset="1"/>
        </radialGradient>
        <linearGradient x1="4.6831215" y1="24.665476" x2="8.3712559" gradientUnits="userSpaceOnUse" y2="24.317278" xlink:type="simple" xlink:actuate="onLoad" id="linearGradient3281" xlink:show="other">
            <stop stop-opacity="1" stop-color="#ffffff" offset="0"/>
            <stop stop-opacity="0" stop-color="#ffffff" offset="1"/>
        </linearGradient>
        <linearGradient gradientTransform="matrix(1.296181,0,0,1.296181,-4.978245,-7.324566)" id="linearGradient4099" gradientUnits="userSpaceOnUse" xlink:show="other" xlink:type="simple" x1="11.125889" y1="25.559732" x2="9.346509" y2="25.736509" xlink:actuate="onLoad">
            <stop stop-opacity="1" stop-color="#6f726f" offset="0"/>
            <stop stop-opacity="0" stop-color="#6f726f" offset="1"/>
        </linearGradient>
        <linearGradient x1="7.5763841" y1="20.301662" x2="7.3215322" gradientUnits="userSpaceOnUse" y2="27.345011" xlink:type="simple" xlink:actuate="onLoad" id="linearGradient4097" xlink:show="other">
            <stop stop-opacity="1" stop-color="#eaeae9" offset="0"/>
            <stop stop-opacity="1" stop-color="#a5a7a2" offset="1"/>
        </linearGradient>
        <linearGradient x1="7.5763841" y1="20.301662" x2="7.3215322" gradientUnits="userSpaceOnUse" y2="27.345011" xlink:type="simple" xlink:actuate="onLoad" id="linearGradient4095" xlink:show="other">
            <stop stop-opacity="1" stop-color="#eaeae9" offset="0"/>
            <stop stop-opacity="1" stop-color="#a5a7a2" offset="1"/>
        </linearGradient>
        <linearGradient gradientTransform="translate(-64.70027,0)" id="linearGradient3788" gradientUnits="userSpaceOnUse" xlink:show="other" xlink:type="simple" x1="8.0536165" y1="11.030003" x2="10.4375" y2="11.030003" xlink:actuate="onLoad">
            <stop stop-opacity="1" stop-color="#cccdcb" offset="0"/>
            <stop stop-opacity="1" stop-color="#888a85" offset="1"/>
        </linearGradient>
        <radialGradient gradientTransform="matrix(1.525791,0,-1.480441e-8,1.768964,-8.162983e-2,6.066255)" id="linearGradient3674" gradientUnits="userSpaceOnUse" xlink:show="other" xlink:type="simple" r="2.9831069" cx="5.0822492" fx="5.0822492" cy="12.516305" fy="12.516305" xlink:actuate="onLoad">
            <stop stop-opacity="0" stop-color="#ffffff" offset="0"/>
            <stop stop-opacity="1" stop-color="#ffffff" offset="1"/>
        </radialGradient>
        <linearGradient gradientTransform="translate(-64.70027,0)" id="linearGradient3657" gradientUnits="userSpaceOnUse" xlink:show="other" xlink:type="simple" x1="10.4375" y1="8.2899637" x2="10.4375" y2="18.984955" xlink:actuate="onLoad">
            <stop stop-opacity="1" stop-color="#fafafa" offset="0"/>
            <stop stop-opacity="1" stop-color="#bfbfbf" offset="1"/>
        </linearGradient>
        <linearGradient xlink:type="simple" xlink:actuate="onLoad" id="linearGradient4608" xlink:show="other">
            <stop stop-color="#eeeeec" offset="0"/>
            <stop stop-opacity="1" stop-color="#8a8c87" offset="1"/>
        </linearGradient>
        <linearGradient gradientTransform="matrix(0.997993,0,0,1,-97.71685,-9.352993)" id="linearGradient4608" gradientUnits="userSpaceOnUse" spreadMethod="reflect" xlink:show="other" xlink:type="simple" x1="58.015995" y1="35.01503" y2="40.9986" x2="57.954308" xlink:actuate="onLoad">
            <stop offset="0" stop-color="#eeeeec"/>
            <stop stop-opacity="1" stop-color="#8a8c87" offset="1"/>
        </linearGradient>
        <linearGradient gradientTransform="matrix(1.769913,0,0,1.769913,-88.34438,10.67235)" id="linearGradient4608" gradientUnits="userSpaceOnUse" xlink:show="other" xlink:type="simple" x1="56.302975" y1="4.9369388" x2="56.609135" y2="8.6796741" xlink:actuate="onLoad">
            <stop offset="0" stop-color="#eeeeec"/>
            <stop stop-opacity="1" stop-color="#8a8c87" offset="1"/>
        </linearGradient>
        <linearGradient xlink:type="simple" xlink:actuate="onLoad" id="linearGradient3657" xlink:show="other">
            <stop stop-opacity="1" stop-color="#fafafa" offset="0"/>
            <stop stop-opacity="1" stop-color="#bfbfbf" offset="1"/>
        </linearGradient>
        <linearGradient xlink:type="simple" xlink:actuate="onLoad" id="linearGradient3674" xlink:show="other">
            <stop stop-opacity="0" stop-color="#ffffff" offset="0"/>
            <stop stop-opacity="1" stop-color="#ffffff" offset="1"/>
        </linearGradient>
        <linearGradient xlink:type="simple" xlink:actuate="onLoad" id="linearGradient3788" xlink:show="other">
            <stop stop-opacity="1" stop-color="#cccdcb" offset="0"/>
            <stop stop-opacity="1" stop-color="#888a85" offset="1"/>
        </linearGradient>
        <radialGradient gradientTransform="matrix(-0.127582,1.416065,-1.630141,-0.146854,17.48751,15.56121)" id="linearGradient3676" gradientUnits="userSpaceOnUse" xlink:show="other" xlink:type="simple" r="9.9205227" cx="-1.0016617" fx="-1.0016617" cy="0.99004257" fy="0.99004257" xlink:actuate="onLoad">
            <stop offset="0" stop-color="#eeeeec"/>
            <stop offset="1" stop-color="#555753"/>
        </radialGradient>
        <linearGradient xlink:type="simple" xlink:actuate="onLoad" id="linearGradient3676" xlink:show="other">
            <stop stop-color="#eeeeec" offset="0"/>
            <stop stop-color="#555753" offset="1"/>
        </linearGradient>
        <linearGradient x1="17.0625" y1="34.950001" x2="20.3125" gradientUnits="userSpaceOnUse" y2="5.375" xlink:type="simple" xlink:actuate="onLoad" id="linearGradient1557" xlink:show="other">
            <stop stop-opacity="1" stop-color="#2e3436" offset="0"/>
            <stop offset="1" stop-color="#888a85"/>
        </linearGradient>
        <linearGradient xlink:type="simple" xlink:actuate="onLoad" id="linearGradient1557" xlink:show="other">
            <stop stop-opacity="1" stop-color="#2e3436" offset="0"/>
            <stop stop-color="#888a85" offset="1"/>
        </linearGradient>
        <radialGradient gradientTransform="matrix(-0.310032,2.110862,-2.082775,-0.305867,17.75288,16.41459)" id="linearGradient3730" gradientUnits="userSpaceOnUse" xlink:show="other" xlink:type="simple" r="9.9205227" cx="-1.0016617" fx="-1.0016617" cy="0.99004257" fy="0.99004257" xlink:actuate="onLoad">
            <stop offset="0" stop-color="#eeeeec"/>
            <stop offset="1" stop-color="#888a85"/>
        </radialGradient>
        <linearGradient xlink:type="simple" xlink:actuate="onLoad" id="linearGradient3730" xlink:show="other">
            <stop stop-color="#eeeeec" offset="0"/>
            <stop stop-color="#888a85" offset="1"/>
        </linearGradient>
        <radialGradient gradientTransform="matrix(6.370852e-2,-1.424475,1.547293,6.92112e-2,-9.530629,30.98681)" id="linearGradient3628" gradientUnits="userSpaceOnUse" xlink:show="other" xlink:type="simple" r="9.375" cx="12.704856" fx="12.704856" cy="13.847466" fy="13.847466" xlink:actuate="onLoad">
            <stop offset="0" stop-color="#d3d7cf"/>
            <stop offset="1" stop-color="#555753"/>
        </radialGradient>
        <linearGradient xlink:type="simple" xlink:actuate="onLoad" id="linearGradient3628" xlink:show="other">
            <stop stop-color="#d3d7cf" offset="0"/>
            <stop stop-color="#555753" offset="1"/>
        </linearGradient>
        <linearGradient x1="-0.51990569" y1="-0.51990569" x2="-0.51990569" gradientUnits="userSpaceOnUse" y2="19.269905" xlink:type="simple" xlink:actuate="onLoad" id="linearGradient3692" xlink:show="other">
            <stop stop-opacity="1" stop-color="#2e3436" offset="0"/>
            <stop offset="1" stop-color="#babdb6"/>
        </linearGradient>
        <linearGradient xlink:type="simple" xlink:actuate="onLoad" id="linearGradient3692" xlink:show="other">
            <stop stop-opacity="1" stop-color="#2e3436" offset="0"/>
            <stop stop-color="#babdb6" offset="1"/>
        </linearGradient>
        <radialGradient gradientTransform="matrix(1.240749,0,0,1.157631,-1.713645,-1.134736)" id="linearGradient3670" gradientUnits="userSpaceOnUse" xlink:show="other" xlink:type="simple" r="9.375" cx="6.8797626" fx="6.8797626" cy="7.1986876" fy="7.1986876" xlink:actuate="onLoad">
            <stop offset="0" stop-color="#d3d7cf"/>
            <stop offset="1" stop-color="#555753"/>
        </radialGradient>
        <linearGradient xlink:type="simple" xlink:actuate="onLoad" id="linearGradient3670" xlink:show="other">
            <stop stop-color="#d3d7cf" offset="0"/>
            <stop stop-color="#555753" offset="1"/>
        </linearGradient>
        <linearGradient xlink:type="simple" xlink:actuate="onLoad" id="linearGradient4068" xlink:show="other">
            <stop stop-opacity="1" stop-color="#eaeae9" offset="0"/>
            <stop stop-opacity="1" stop-color="#a5a7a2" offset="1"/>
        </linearGradient>
        <linearGradient xlink:type="simple" xlink:actuate="onLoad" id="linearGradient4099" xlink:show="other">
            <stop stop-opacity="1" stop-color="#6f726f" offset="0"/>
            <stop stop-opacity="0" stop-color="#6f726f" offset="1"/>
        </linearGradient>
        <linearGradient xlink:type="simple" xlink:actuate="onLoad" id="linearGradient3281" xlink:show="other">
            <stop stop-opacity="1" stop-color="#ffffff" offset="0"/>
            <stop stop-opacity="0" stop-color="#ffffff" offset="1"/>
        </linearGradient>
        <linearGradient xlink:type="simple" xlink:actuate="onLoad" id="linearGradient3498" xlink:show="other">
            <stop stop-opacity="1" stop-color="#3465a4" offset="0"/>
            <stop stop-opacity="0" stop-color="#3465a4" offset="1"/>
        </linearGradient>
        <linearGradient xlink:type="simple" xlink:actuate="onLoad" id="linearGradient3510" xlink:show="other">
            <stop stop-opacity="1" stop-color="#ffffff" offset="0"/>
            <stop stop-opacity="0" stop-color="#ffffff" offset="1"/>
        </linearGradient>
        <radialGradient gradientTransform="matrix(0.6401008,0,0,0.7421168,-0.5691202,1.9131917)" id="linearGradient3674" gradientUnits="userSpaceOnUse" xlink:show="other" xlink:type="simple" r="2.9831069" cx="5.0822492" fx="5.0822492" cy="12.516305" fy="12.516305" xlink:actuate="onLoad">
            <stop stop-opacity="0" stop-color="#ffffff" offset="0"/>
            <stop stop-opacity="1" stop-color="#ffffff" offset="1"/>
        </radialGradient>
        <linearGradient gradientTransform="matrix(0.4195206,0,0,0.4195206,-0.5348748,-0.6317272)" id="linearGradient3510" gradientUnits="userSpaceOnUse" xlink:show="other" xlink:type="simple" x1="9.485774" y1="22.107626" x2="7.378232" y2="22.637957" xlink:actuate="onLoad">
            <stop stop-opacity="1" stop-color="#ffffff" offset="0"/>
            <stop stop-opacity="0" stop-color="#ffffff" offset="1"/>
        </linearGradient>
        <linearGradient gradientTransform="matrix(0.742515,0,0,0.742515,-37.597162,3.845543)" id="linearGradient9380" gradientUnits="userSpaceOnUse" xlink:show="other" xlink:type="simple" x1="56.302975" y1="4.9369388" y2="8.6796741" x2="56.609135" xlink:actuate="onLoad">
            <stop offset="0" stop-color="#eeeeec"/>
            <stop stop-opacity="1" stop-color="#8a8c87" offset="1"/>
        </linearGradient>
        <linearGradient x1="-0.51990569" y1="-0.51990569" x2="-0.51990569" gradientUnits="userSpaceOnUse" y2="19.269905" xlink:type="simple" xlink:actuate="onLoad" id="linearGradient3692" xlink:show="other">
            <stop stop-opacity="1" stop-color="#2e3436" offset="0"/>
            <stop offset="1" stop-color="#babdb6"/>
        </linearGradient>
        <linearGradient gradientTransform="matrix(0.846982,0,0,0.911415,16.71027,15.44956)" id="linearGradient9397" gradientUnits="userSpaceOnUse" xlink:show="other" xlink:type="simple" x1="-0.51990569" y1="-0.51990569" y2="19.269905" x2="-0.51990569" xlink:actuate="onLoad">
            <stop stop-opacity="1" stop-color="#2e3436" offset="0"/>
            <stop offset="1" stop-color="#babdb6"/>
        </linearGradient>
        <linearGradient gradientTransform="translate(43.462237,0)" id="linearGradient1557" gradientUnits="userSpaceOnUse" xlink:show="other" xlink:type="simple" x1="17.0625" y1="34.950001" x2="20.3125" y2="5.375" xlink:actuate="onLoad">
            <stop stop-opacity="1" stop-color="#2e3436" offset="0"/>
            <stop offset="1" stop-color="#888a85"/>
        </linearGradient>
        <linearGradient x1="17.0625" y1="34.950001" x2="20.3125" gradientUnits="userSpaceOnUse" y2="5.375" xlink:type="simple" xlink:actuate="onLoad" id="linearGradient9409" xlink:show="other">
            <stop stop-opacity="1" stop-color="#2e3436" offset="0"/>
            <stop offset="1" stop-color="#888a85"/>
        </linearGradient>
        <radialGradient gradientTransform="matrix(-0.127582,1.416065,-1.630141,-0.146854,17.48751,15.56121)" id="radialGradient9411" gradientUnits="userSpaceOnUse" xlink:show="other" xlink:type="simple" r="9.9205227" cx="-1.0016617" fx="-1.0016617" cy="0.99004257" fy="0.99004257" xlink:actuate="onLoad">
            <stop offset="0" stop-color="#eeeeec"/>
            <stop offset="1" stop-color="#555753"/>
        </radialGradient>
        <radialGradient gradientTransform="matrix(-0.310032,2.110862,-2.082775,-0.305867,17.75288,16.41459)" id="radialGradient9413" gradientUnits="userSpaceOnUse" xlink:show="other" xlink:type="simple" r="9.9205227" cx="-1.0016617" fx="-1.0016617" cy="0.99004257" fy="0.99004257" xlink:actuate="onLoad">
            <stop offset="0" stop-color="#eeeeec"/>
            <stop offset="1" stop-color="#888a85"/>
        </radialGradient>
        <radialGradient gradientTransform="matrix(6.370852e-2,-1.424475,1.547293,6.92112e-2,-9.530629,30.98681)" id="radialGradient9415" gradientUnits="userSpaceOnUse" xlink:show="other" xlink:type="simple" r="9.375" cx="12.704856" fx="12.704856" cy="13.847466" fy="13.847466" xlink:actuate="onLoad">
            <stop offset="0" stop-color="#d3d7cf"/>
            <stop offset="1" stop-color="#555753"/>
        </radialGradient>
        <radialGradient gradientTransform="matrix(1.240749,0,0,1.157631,-1.713645,-1.134736)" id="radialGradient9417" gradientUnits="userSpaceOnUse" xlink:show="other" xlink:type="simple" r="9.375" cx="6.8797626" fx="6.8797626" cy="7.1986876" fy="7.1986876" xlink:actuate="onLoad">
            <stop offset="0" stop-color="#d3d7cf"/>
            <stop offset="1" stop-color="#555753"/>
        </radialGradient>
        <linearGradient gradientTransform="matrix(0.5437746,0,0,0.5437746,3.376649,-3.7045335)" id="linearGradient4099" gradientUnits="userSpaceOnUse" xlink:show="other" xlink:type="simple" x1="11.125889" y1="25.559732" x2="9.346509" y2="25.736509" xlink:actuate="onLoad">
            <stop stop-opacity="1" stop-color="#6f726f" offset="0"/>
            <stop stop-opacity="0" stop-color="#6f726f" offset="1"/>
        </linearGradient>
        <linearGradient gradientTransform="matrix(0.5437746,0,0,0.5437746,-2.623351,-3.7045335)" id="linearGradient9429" gradientUnits="userSpaceOnUse" xlink:show="other" xlink:type="simple" x1="11.125889" y1="25.559732" y2="25.736509" x2="9.346509" xlink:actuate="onLoad">
            <stop stop-opacity="1" stop-color="#6f726f" offset="0"/>
            <stop stop-opacity="0" stop-color="#6f726f" offset="1"/>
        </linearGradient>
        <linearGradient gradientTransform="matrix(1.1807,0,0,1.076971,-0.608944,-1.721744)" id="linearGradient9435" gradientUnits="userSpaceOnUse" xlink:show="other" xlink:type="simple" x1="4.6831215" y1="24.665476" y2="24.317278" x2="8.3712559" xlink:actuate="onLoad">
            <stop stop-opacity="1" stop-color="#ffffff" offset="0"/>
            <stop stop-opacity="0" stop-color="#ffffff" offset="1"/>
        </linearGradient>
    </defs>
    <g>
        <g transform="matrix(0.5437751,0,0,0.5437751,-2.286909,-3.7045339)">
            <path fill-opacity="1" display="inline" stroke="#5d615f" d="M 12.374369 24.665476 C 12.374369 28.180195 10.7518835 31.029438 8.750446 31.029438 C 6.749009 31.029438 5.126524 28.180195 5.126524 24.665476 C 5.126524 21.150757 6.749009 18.301514 8.750446 18.301514 C 10.7518835 18.301514 12.374369 21.150757 12.374369 24.665476 z " visibility="visible" stroke-linecap="round" transform="matrix(1.415965,0,0,1.258558,-2.667614,-6.200669)" stroke-miterlimit="4" stroke-opacity="1" fill="url(#linearGradient4095)" stroke-dasharray="none" stroke-width="0.57792485" color="#000000" stroke-linejoin="round" stroke-dashoffset="0" fill-rule="nonzero"/>
            <path fill-opacity="1" display="inline" stroke="none" d="M 12.374369 24.665476 C 12.374369 28.180195 10.7518835 31.029438 8.750446 31.029438 C 6.749009 31.029438 5.126524 28.180195 5.126524 24.665476 C 5.126524 21.150757 6.749009 18.301514 8.750446 18.301514 C 10.7518835 18.301514 12.374369 21.150757 12.374369 24.665476 z " visibility="visible" stroke-linecap="round" transform="matrix(1.154526,0,0,1.154526,-0.379902,-3.63468)" stroke-miterlimit="4" stroke-opacity="1" fill="url(#linearGradient4097)" stroke-dasharray="none" stroke-width="0.86615634" color="#000000" stroke-linejoin="round" stroke-dashoffset="0" fill-rule="nonzero"/>
            <path fill-opacity="1" display="inline" stroke="none" d="M 12.374369 24.665476 C 12.374369 28.180195 10.7518835 31.029438 8.750446 31.029438 C 6.749009 31.029438 5.126524 28.180195 5.126524 24.665476 C 5.126524 21.150757 6.749009 18.301514 8.750446 18.301514 C 10.7518835 18.301514 12.374369 21.150757 12.374369 24.665476 z " visibility="visible" stroke-linecap="round" transform="matrix(1.081355,0,0,1.081355,1.232653,-1.829889)" stroke-miterlimit="4" stroke-opacity="1" fill="#93958f" stroke-dasharray="none" stroke-width="0.86615634" color="#000000" stroke-linejoin="round" stroke-dashoffset="0" fill-rule="nonzero"/>
            <path fill-opacity="1" display="inline" stroke="none" d="M 9.722181 17.63008 C 8.349359 17.63008 7.1827054 18.507164 6.3645654 19.817677 C 5.546425 21.128187 5.036278 22.883919 5.036278 24.832321 C 5.036278 26.780725 5.546425 28.570112 6.3645654 29.880625 C 7.1827054 31.191135 8.349359 32.06822 9.722181 32.06822 C 11.095004 32.06822 12.298553 31.191135 13.116694 29.880625 C 13.934834 28.570112 14.408084 26.780725 14.408084 24.832321 C 14.408084 22.883919 13.934834 21.128187 13.116694 19.817677 C 12.298553 18.507164 11.095004 17.63008 9.722181 17.63008 z M 9.722181 18.370497 C 10.711237 18.370497 11.647983 19.01732 12.378756 20.187883 C 13.109529 21.358448 13.596353 22.997429 13.596353 24.832321 C 13.596353 26.667215 13.109529 28.339851 12.378756 29.510416 C 11.647983 30.68098 10.711236 31.327805 9.722181 31.327805 C 8.733126 31.327805 7.796379 30.68098 7.065606 29.510416 C 6.334833 28.339851 5.848009 26.667215 5.848009 24.832321 C 5.848009 22.997429 6.334833 21.358448 7.065606 20.187883 C 7.796379 19.01732 8.733126 18.370497 9.722181 18.370497 z " visibility="visible" stroke-linecap="round" stroke-miterlimit="4" stroke-opacity="1" fill="url(#linearGradient9435)" stroke-dasharray="none" stroke-width="0.68416733" color="#000000" stroke-linejoin="round" stroke-dashoffset="0" fill-rule="nonzero"/>
        </g>
        <path fill-opacity="1" display="inline" stroke="none" d="M 3.4424655 7.021424 L 6.416736 4.452192 L 6.320609 14.974961 L 3.2982757 12.657086 C 2.2408814 11.791944 2.0486279 7.934628 3.4424655 7.021424 z " visibility="visible" stroke-linecap="round" stroke-miterlimit="4" stroke-opacity="1" fill="url(#linearGradient9380)" stroke-width="0.41952071" color="#000000" stroke-linejoin="miter" stroke-dashoffset="0" fill-rule="evenodd"/>
        <path fill-opacity="1" display="inline" stroke="none" d="M 6.625 4.0 L 6.28125 4.28125 L 3.3125 6.875 C 2.514727 7.4158983 2.243863 8.631516 2.25 9.84375 C 2.253095 10.455117 2.317085 11.073116 2.46875 11.59375 C 2.620415 12.114384 2.835188 12.549812 3.15625 12.8125 L 6.1875 15.15625 L 6.53125 15.40625 L 6.53125 14.96875 L 6.625 4.46875 L 6.625 4.0 z M 6.21875 4.9375 L 6.125 14.5625 L 4.185451 13.074009 L 3.4375 12.5 C 3.229865 12.330117 3.013217 11.943222 2.875 11.46875 C 2.736783 10.994278 2.659163 10.419006 2.65625 9.84375 C 2.650425 8.693238 2.982522 7.567486 3.5625 7.1875 L 3.59375 7.1875 L 6.21875 4.9375 z " visibility="visible" stroke-linecap="round" stroke-miterlimit="4" stroke-opacity="1" fill="url(#linearGradient9429)" stroke-width="0.41952071" color="#000000" stroke-linejoin="miter" stroke-dashoffset="0" fill-rule="evenodd"/>
        <g transform="matrix(0.4601696,0,0,0.6331703,-2.303973,-5.7155282)" display="inline">
            <path fill-opacity="1" display="inline" stroke="none" d="M 23.725264 13.25 C 21.821005 13.298262 20.093563 13.929765 18.569012 14.84375 C 18.12006 14.518253 17.60056 14.25 17.006512 14.25 C 16.959827 14.25 16.892376 14.250246 16.881512 14.25 C 16.889952 14.25006 16.84392 14.234761 16.694014 14.25 C 15.308998 14.390796 14.256513 15.597307 14.256513 17.0 C 14.256512 17.603012 14.484578 18.141232 14.819013 18.59375 C 13.874508 20.183426 13.256513 22.008717 13.256513 24.0 C 13.256512 26.047865 13.883638 27.9346 14.881513 29.5625 C 14.591771 30.004059 14.256513 30.44434 14.256513 31.0 C 14.256511 32.50349 15.503023 33.75 17.006512 33.75 C 17.60056 33.75 18.12006 33.481747 18.569012 33.15625 C 20.166637 34.113552 22.00024 34.75 24.006512 34.75 C 26.014492 34.75 27.845488 34.11501 29.444012 33.15625 C 29.892967 33.481747 30.412464 33.75 31.006512 33.75 C 32.510002 33.75 33.725266 32.503487 33.725266 31.0 C 33.725266 30.396986 33.497196 29.858768 33.162766 29.40625 C 34.10801 27.816113 34.725266 25.992151 34.725266 24.0 C 34.725266 22.007849 34.10801 20.183887 33.162766 18.59375 C 33.4972 18.14123 33.725266 17.60301 33.725266 17.0 C 33.725266 15.496508 32.510002 14.25 31.006512 14.25 C 30.95983 14.25 30.892374 14.250246 30.881512 14.25 C 30.88996 14.25006 30.843927 14.23476 30.694012 14.25 C 30.21942 14.298245 29.87734 14.615211 29.506512 14.875 C 27.893583 13.895761 26.036734 13.25 24.006512 13.25 C 23.932743 13.25 23.834757 13.247225 23.725264 13.25 z M 23.756512 14.75 C 23.818321 14.748433 23.90794 14.75 24.006512 14.75 C 25.880869 14.75 27.606167 15.318282 29.069012 16.28125 C 29.069431 16.281527 29.224764 16.34357 29.225264 16.34375 L 29.631512 16.625 L 30.037764 16.15625 C 30.236055 15.934036 30.539156 15.781626 30.850264 15.75 C 30.750751 15.760116 30.817083 15.74954 30.881512 15.75 C 30.945976 15.751462 30.9842 15.75 31.006512 15.75 C 31.711021 15.75 32.256516 16.295492 32.25651 17.0 C 32.25651 17.388445 32.09151 17.701427 31.819012 17.9375 L 31.350264 18.375 L 31.694012 18.90625 C 32.669533 20.376596 33.256516 22.116371 33.25651 24.0 C 33.25651 25.88363 32.669537 27.623407 31.694012 29.09375 L 31.350264 29.625 L 31.819012 30.0625 C 32.09151 30.298573 32.256516 30.61156 32.25651 31.0 C 32.25651 31.704512 31.711025 32.25 31.006512 32.25 C 30.618073 32.25 30.305088 32.116253 30.069012 31.84375 L 29.631512 31.34375 L 29.100264 31.6875 C 27.629917 32.66302 25.890144 33.25 24.006512 33.25 C 22.122885 33.25 20.383104 32.66302 18.912764 31.6875 L 18.381512 31.34375 L 17.944012 31.84375 C 17.707941 32.11625 17.394955 32.25 17.006512 32.25 C 16.302004 32.25 15.725262 31.70451 15.725263 31.0 C 15.725263 30.60189 15.904912 30.29331 16.162764 30.0625 L 16.631514 29.625 L 16.256514 29.09375 C 15.288498 27.630903 14.725262 25.885572 14.725263 24.0 C 14.725263 22.116371 15.312242 20.376595 16.287764 18.90625 L 16.662764 18.375 L 16.162764 17.9375 C 15.890263 17.701427 15.725262 17.38844 15.725263 17.0 C 15.725263 16.332695 16.219067 15.814166 16.850264 15.75 C 16.750761 15.760115 16.817083 15.74954 16.881512 15.75 C 16.945974 15.751462 16.984196 15.75 17.006512 15.75 C 17.394957 15.75 17.70794 15.883749 17.944012 16.15625 L 18.381512 16.65625 L 18.912764 16.3125 C 20.321169 15.378074 21.96576 14.795386 23.756512 14.75 z " visibility="visible" stroke-linecap="round" stroke-miterlimit="4" stroke-opacity="1" fill="url(#linearGradient9409)" stroke-dasharray="none" stroke-width="1.47668338" color="#000000" stroke-linejoin="miter" stroke-dashoffset="0" fill-rule="evenodd"/>
            <path fill-opacity="1" display="inline" stroke="none" d="M 23.75 14.0 C 21.81001 14.049168 20.013367 14.683436 18.5 15.6875 C 18.13319 15.264088 17.60375 15.0 17.0 15.0 C 16.9655 15.0 16.912663 15.000854 16.875 15.0 C 16.847008 14.9998 16.806452 14.997438 16.78125 15.0 C 15.773145 15.102481 15.0 15.965001 15.0 17.0 C 15.0 17.60375 15.264088 18.13319 15.6875 18.5 C 14.639107 20.08018 14.0 21.962011 14.0 24.0 C 14.0 26.03368 14.611921 27.921827 15.65625 29.5 C 15.243427 29.869532 15.0 30.40164 15.0 31.0 C 15.0 32.104 15.896 33.0 17.0 33.0 C 17.60375 33.0 18.13319 32.735912 18.5 32.3125 C 20.08018 33.360893 21.962011 34.0 24.0 34.0 C 26.03799 34.0 27.91982 33.360893 29.5 32.3125 C 29.86681 32.735912 30.396252 33.0 31.0 33.0 C 32.104 33.0 33.0 32.104 33.0 31.0 C 33.0 30.39625 32.735912 29.86681 32.3125 29.5 C 33.360893 27.91982 34.0 26.03799 34.0 24.0 C 34.0 21.962011 33.360893 20.08018 32.3125 18.5 C 32.735912 18.13319 33.0 17.60375 33.0 17.0 C 33.0 15.896 32.104 15.0 31.0 15.0 C 30.9655 15.0 30.912663 15.000854 30.875 15.0 C 30.847008 14.9998 30.806452 14.997438 30.78125 15.0 C 30.277199 15.05124 29.8193 15.298435 29.5 15.65625 C 29.493313 15.651825 29.475449 15.660659 29.46875 15.65625 C 27.894623 14.620029 26.025064 14.0 24.0 14.0 C 23.913828 14.0 23.835651 13.997829 23.75 14.0 z " visibility="visible" stroke-linecap="round" stroke-miterlimit="4" stroke-opacity="1" fill="url(#radialGradient9411)" stroke-dasharray="none" stroke-width="1.47668338" color="#000000" stroke-linejoin="miter" stroke-dashoffset="0" fill-rule="evenodd"/>
            <path fill-opacity="1" display="inline" stroke="none" d="M 23.75 14.0 C 21.81001 14.049168 20.013367 14.683436 18.5 15.6875 C 18.13319 15.264088 17.60375 15.0 17.0 15.0 C 16.9655 15.0 16.912663 15.000854 16.875 15.0 C 16.847008 14.9998 16.806452 14.997438 16.78125 15.0 C 15.773145 15.102481 15.0 15.965001 15.0 17.0 C 15.0 17.60375 15.264088 18.13319 15.6875 18.5 C 14.639107 20.08018 14.0 21.962011 14.0 24.0 C 14.0 26.03368 14.611921 27.921827 15.65625 29.5 C 15.243427 29.869532 15.0 30.40164 15.0 31.0 C 15.0 32.104 15.896 33.0 17.0 33.0 C 17.60375 33.0 18.13319 32.735912 18.5 32.3125 C 20.08018 33.360893 21.962011 34.0 24.0 34.0 C 26.03799 34.0 27.91982 33.360893 29.5 32.3125 C 29.86681 32.735912 30.396252 33.0 31.0 33.0 C 32.104 33.0 33.0 32.104 33.0 31.0 C 33.0 30.39625 32.735912 29.86681 32.3125 29.5 C 33.360893 27.91982 34.0 26.03799 34.0 24.0 C 34.0 21.962011 33.360893 20.08018 32.3125 18.5 C 32.735912 18.13319 33.0 17.60375 33.0 17.0 C 33.0 15.896 32.104 15.0 31.0 15.0 C 30.9655 15.0 30.912663 15.000854 30.875 15.0 C 30.847008 14.9998 30.806452 14.997438 30.78125 15.0 C 30.277199 15.05124 29.8193 15.298435 29.5 15.65625 C 29.493313 15.651825 29.475449 15.660659 29.46875 15.65625 C 27.894623 14.620029 26.025064 14.0 24.0 14.0 C 23.913828 14.0 23.835651 13.997829 23.75 14.0 z " visibility="visible" stroke-linecap="round" stroke-miterlimit="4" stroke-opacity="1" fill="url(#radialGradient9413)" stroke-dasharray="none" stroke-width="1.09104455" color="#000000" stroke-linejoin="miter" stroke-dashoffset="0" fill-rule="evenodd"/>
            <path fill-opacity="1" display="inline" stroke="none" d="M 18.75 9.375 C 18.75 14.55267 14.55267 18.75 9.375 18.75 C 4.1973305 18.75 1.7763568E-15 14.55267 0.0 9.375 C 0.0 4.1973305 4.1973305 1.7763568E-15 9.375 0.0 C 14.55267 0.0 18.75 4.1973305 18.75 9.375 z " visibility="visible" stroke-linecap="round" transform="matrix(0.846982,0,0,0.911415,16.71027,15.44956)" stroke-miterlimit="4" stroke-opacity="1" fill="url(#radialGradient9415)" stroke-dasharray="none" stroke-width="0.8383193" color="#000000" stroke-linejoin="miter" stroke-dashoffset="0" fill-rule="evenodd"/>
            <path fill-opacity="1" display="inline" stroke="none" d="M 18.75 9.375 C 18.75 14.55267 14.55267 18.75 9.375 18.75 C 4.1973305 18.75 1.7763568E-15 14.55267 0.0 9.375 C 0.0 4.1973305 4.1973305 1.7763568E-15 9.375 0.0 C 14.55267 0.0 18.75 4.1973305 18.75 9.375 z " visibility="visible" stroke-linecap="round" transform="matrix(0.367272,0,0,0.32,18.56254,21.125)" stroke-miterlimit="4" stroke-opacity="1" fill="url(#radialGradient9417)" stroke-dasharray="none" stroke-width="6.57905483" color="#000000" stroke-linejoin="miter" stroke-dashoffset="0" fill-rule="evenodd"/>
            <path fill-opacity="1" display="inline" stroke="none" d="M 17.0 16.5 C 17.0 16.776142 16.776142 17.0 16.5 17.0 C 16.223858 17.0 16.0 16.776142 16.0 16.5 C 16.0 16.223858 16.223858 16.0 16.5 16.0 C 16.776142 16.0 17.0 16.223858 17.0 16.5 z " visibility="visible" stroke-linecap="round" transform="matrix(1.3125,0,0,1.3125,-4.657679,-5.09375)" stroke-miterlimit="4" stroke-opacity="1" fill="#2e3436" stroke-dasharray="none" stroke-width="1.10000002" color="#000000" stroke-linejoin="miter" stroke-dashoffset="0" fill-rule="evenodd"/>
            <path fill-opacity="1" display="inline" stroke="none" d="M 17.0 16.5 C 17.0 16.776142 16.776142 17.0 16.5 17.0 C 16.223858 17.0 16.0 16.776142 16.0 16.5 C 16.0 16.223858 16.223858 16.0 16.5 16.0 C 16.776142 16.0 17.0 16.223858 17.0 16.5 z " visibility="visible" stroke-linecap="round" transform="translate(15.22159,0.25)" stroke-miterlimit="4" stroke-opacity="1" fill="#2e3436" stroke-dasharray="none" stroke-width="1.10000002" color="#000000" stroke-linejoin="miter" stroke-dashoffset="0" fill-rule="evenodd"/>
            <path fill-opacity="1" display="inline" stroke="none" d="M 17.0 16.5 C 17.0 16.776142 16.776142 17.0 16.5 17.0 C 16.223858 17.0 16.0 16.776142 16.0 16.5 C 16.0 16.223858 16.223858 16.0 16.5 16.0 C 16.776142 16.0 17.0 16.223858 17.0 16.5 z " visibility="visible" stroke-linecap="round" transform="translate(15.22159,14.96875)" stroke-miterlimit="4" stroke-opacity="1" fill="#2e3436" stroke-dasharray="none" stroke-width="1.10000002" color="#000000" stroke-linejoin="miter" stroke-dashoffset="0" fill-rule="evenodd"/>
            <path fill-opacity="1" display="inline" stroke="none" d="M 17.0 16.5 C 17.0 16.776142 16.776142 17.0 16.5 17.0 C 16.223858 17.0 16.0 16.776142 16.0 16.5 C 16.0 16.223858 16.223858 16.0 16.5 16.0 C 16.776142 16.0 17.0 16.223858 17.0 16.5 z " visibility="visible" stroke-linecap="round" transform="matrix(1.375,0,0,1.375,-5.688929,8.8125)" stroke-miterlimit="4" stroke-opacity="1" fill="#2e3436" stroke-dasharray="none" stroke-width="1.10000002" color="#000000" stroke-linejoin="miter" stroke-dashoffset="0" fill-rule="evenodd"/>
            <path fill-opacity="1" display="inline" stroke="none" d="M 24.650726 15.079298 C 20.075506 15.079298 16.366184 19.070803 16.366184 23.994076 C 16.366184 28.91735 20.075506 32.908855 24.650726 32.908855 C 29.225948 32.908855 32.93527 28.91735 32.93527 23.994076 C 32.93527 19.070803 29.225948 15.079298 24.650726 15.079298 z M 24.650726 15.819822 C 28.841768 15.819822 32.247097 19.484203 32.247097 23.994076 C 32.247097 28.503948 28.841768 32.168327 24.650726 32.168327 C 20.459684 32.168327 17.054356 28.503948 17.054356 23.994076 C 17.054356 19.484203 20.459684 15.819822 24.650726 15.819822 z " visibility="visible" stroke-linecap="round" stroke-miterlimit="4" stroke-opacity="1" fill="url(#linearGradient9397)" stroke-dasharray="none" stroke-width="0.8383193" color="#000000" stroke-linejoin="miter" stroke-dashoffset="0" fill-rule="evenodd"/>
        </g>
    </g>
    <g>
        <rect fill-opacity="1" display="inline" stroke="#a40000" visibility="visible" stroke-linecap="square" width="8.3904123" stroke-miterlimit="4" stroke-opacity="1" fill="#cc0000" stroke-dasharray="none" stroke-width="0.41952059" color="#000000" height="7.9708915" x="10.629461" stroke-linejoin="round" rx="0.92701834" y="10.926334" ry="0.92701834" stroke-dashoffset="0" fill-rule="evenodd"/>
        <g transform="matrix(0.3268187,0,0,0.3268187,10.711621,2.8194854)">
            <path fill-opacity="1" display="inline" stroke="#ffffff" d="M 8.0 32.0 L 18.0 42.0 " visibility="visible" stroke-linecap="round" stroke-miterlimit="4" stroke-opacity="1" fill="none" stroke-dasharray="none" stroke-width="2.56729817" color="#000000" stroke-linejoin="round" stroke-dashoffset="0" fill-rule="evenodd"/>
            <path fill-opacity="1" display="inline" stroke="#ffffff" d="M 18.0 32.0 L 8.0 42.0 " visibility="visible" stroke-linecap="round" stroke-miterlimit="4" stroke-opacity="1" fill="none" stroke-dasharray="none" stroke-width="2.56729817" color="#000000" stroke-linejoin="round" stroke-dashoffset="0" fill-rule="evenodd"/>
        </g>
        <rect fill-opacity="1" display="inline" stroke="#ffffff" visibility="visible" stroke-linecap="square" width="7.5913258" stroke-miterlimit="4" stroke-opacity="0.44078944" fill="none" stroke-dasharray="none" stroke-width="0.41952065" color="#000000" height="7.2117596" x="11.029005" stroke-linejoin="round" rx="0.66481805" y="11.305902" ry="0.66481805" stroke-dashoffset="0" fill-rule="evenodd"/>
    </g>
</svg>
