<?xml version="1.0" encoding="UTF-8" standalone="no"?>
<svg
   xmlns:dc="http://purl.org/dc/elements/1.1/"
   xmlns:cc="http://web.resource.org/cc/"
   xmlns:rdf="http://www.w3.org/1999/02/22-rdf-syntax-ns#"
   xmlns:svg="http://www.w3.org/2000/svg"
   xmlns="http://www.w3.org/2000/svg"
   xmlns:xlink="http://www.w3.org/1999/xlink"
   xmlns:sodipodi="http://sodipodi.sourceforge.net/DTD/sodipodi-0.dtd"
   xmlns:inkscape="http://www.inkscape.org/namespaces/inkscape"
   contentScriptType="text/ecmascript"
   width="24.1"
   baseProfile="tiny"
   zoomAndPan="magnify"
   contentStyleType="text/css"
   viewBox="0 0 24.1 26.1"
   height="26.1"
   preserveAspectRatio="xMidYMid meet"
   version="1.0"
   id="svg83439"
   sodipodi:version="0.32"
   inkscape:version="0.45.1"
   sodipodi:docname="qgn_indi_find_title.svg"
   inkscape:output_extension="org.inkscape.output.svg.inkscape"
   sodipodi:docbase="C:\Documents and Settings\user1\Desktop\Carbide.UI Themes\workspace\tango-theme-s60">
  <metadata
     id="metadata83511">
    <rdf:RDF>
      <cc:Work
         rdf:about="">
        <dc:format>image/svg+xml</dc:format>
        <dc:type
           rdf:resource="http://purl.org/dc/dcmitype/StillImage" />
      </cc:Work>
    </rdf:RDF>
  </metadata>
  <sodipodi:namedview
     inkscape:window-height="579"
     inkscape:window-width="748"
     inkscape:pageshadow="2"
     inkscape:pageopacity="0.0"
     guidetolerance="10.0"
     gridtolerance="10.0"
     objecttolerance="10.0"
     borderopacity="1.0"
     bordercolor="#666666"
     pagecolor="#ffffff"
     id="base"
     inkscape:zoom="14.482758"
     inkscape:cx="12.05"
     inkscape:cy="13.05"
     inkscape:window-x="48"
     inkscape:window-y="53"
     inkscape:current-layer="g83496" />
  <defs
     id="defs83441">
    <linearGradient
       gradientTransform="matrix(0.903401,0,0,0.903401,2.335437,2.177737)"
       id="linearGradient3117"
       gradientUnits="userSpaceOnUse"
       xlink:show="other"
       xlink:type="simple"
       x1="34.797703"
       y1="29.173397"
       y2="-6.8890476"
       x2="17.444614"
       xlink:actuate="onLoad">
      <stop
         stop-opacity="1"
         stop-color="#ffffff"
         offset="0"
         id="stop83444"
         style="stop-color:#ffffff;stop-opacity:0.49484536;" />
      <stop
         stop-opacity="0"
         stop-color="#ffffff"
         offset="1"
         id="stop83446" />
    </linearGradient>
    <radialGradient
       gradientTransform="matrix(1,0,0,0.351613,0,16.55413)"
       id="radialGradient3107"
       gradientUnits="userSpaceOnUse"
       xlink:show="other"
       xlink:type="simple"
       r="9.6875"
       cx="17.3125"
       fx="17.3125"
       cy="25.53125"
       fy="25.53125"
       xlink:actuate="onLoad">
      <stop
         stop-opacity="1"
         stop-color="#000000"
         offset="0"
         id="stop83449" />
      <stop
         stop-opacity="0"
         stop-color="#000000"
         offset="1"
         id="stop83451" />
    </radialGradient>
    <linearGradient
       gradientTransform="matrix(2.151235,0.000000,0.000000,1.154539,-0.778091,-3.220331)"
       id="linearGradient6621"
       gradientUnits="userSpaceOnUse"
       xlink:show="other"
       xlink:type="simple"
       x1="18.711395"
       y1="34.807064"
       x2="11.413211"
       y2="31.452499"
       xlink:actuate="onLoad">
      <stop
         stop-opacity="0.0000000"
         stop-color="#f5a108"
         offset="0.0000000"
         id="stop83454" />
      <stop
         stop-opacity="0.74251497"
         stop-color="#fefdc3"
         offset="1.0000000"
         id="stop83456" />
    </linearGradient>
    <linearGradient
       gradientTransform="matrix(2.012297,0,0,1.079974,0.835129,-1.340661)"
       id="linearGradient1697"
       gradientUnits="userSpaceOnUse"
       xlink:show="other"
       xlink:type="simple"
       x1="11.355036"
       y1="32.756931"
       y2="6.1003184"
       x2="6.3578372"
       xlink:actuate="onLoad">
      <stop
         stop-opacity="0.0000000"
         stop-color="#f5a108"
         offset="0.0000000"
         id="stop83459" />
      <stop
         stop-opacity="0.74251497"
         stop-color="#fefdc3"
         offset="1.0000000"
         id="stop83461" />
    </linearGradient>
    <linearGradient
       gradientTransform="matrix(0.946979,0,0,0.487322,3.734953,4.049714)"
       id="linearGradient7881"
       gradientUnits="userSpaceOnUse"
       xlink:show="other"
       xlink:type="simple"
       x1="22.819513"
       y1="28.829224"
       y2="12.239423"
       x2="12.849945"
       xlink:actuate="onLoad">
      <stop
         stop-opacity="0.0000000"
         stop-color="#f5a108"
         offset="0.0000000"
         id="stop83464" />
      <stop
         stop-opacity="0.74251497"
         stop-color="#fefdc3"
         offset="1.0000000"
         id="stop83466" />
    </linearGradient>
    <linearGradient
       xlink:type="simple"
       xlink:actuate="onLoad"
       id="linearGradient83468"
       xlink:show="other">
      <stop
         stop-opacity="0.0000000"
         stop-color="#f5a108"
         offset="0.0000000"
         id="stop83470" />
      <stop
         stop-opacity="0.74251497"
         stop-color="#fefdc3"
         offset="1.0000000"
         id="stop83472" />
    </linearGradient>
    <linearGradient
       gradientTransform="scale(1.365022,0.732589)"
       id="linearGradient83474"
       gradientUnits="userSpaceOnUse"
       xlink:show="other"
       xlink:type="simple"
       x1="13.567193"
       y1="21.47023"
       x2="7.5337296"
       y2="8.8090458"
       xlink:actuate="onLoad">
      <stop
         stop-opacity="0.0000000"
         stop-color="#f5a108"
         offset="0.0000000"
         id="stop83476" />
      <stop
         stop-opacity="0.74251497"
         stop-color="#fefdc3"
         offset="1.0000000"
         id="stop83478" />
    </linearGradient>
    <linearGradient
       xlink:type="simple"
       xlink:actuate="onLoad"
       xlink:show="other"
       id="linearGradient83480">
      <stop
         stop-opacity="0.0000000"
         stop-color="#f5a108"
         offset="0.0000000"
         id="stop83482" />
      <stop
         stop-opacity="0.74251497"
         stop-color="#fefdc3"
         offset="1.0000000"
         id="stop83484" />
    </linearGradient>
    <linearGradient
       xlink:type="simple"
       xlink:actuate="onLoad"
       id="linearGradient3101"
       xlink:show="other">
      <stop
         stop-opacity="1"
         stop-color="#000000"
         offset="0"
         id="stop83487" />
      <stop
         stop-opacity="0"
         stop-color="#000000"
         offset="1"
         id="stop83489" />
    </linearGradient>
    <linearGradient
       xlink:type="simple"
       xlink:actuate="onLoad"
       id="linearGradient3111"
       xlink:show="other">
      <stop
         stop-opacity="1"
         stop-color="#ffffff"
         offset="0"
         id="stop83492" />
      <stop
         stop-opacity="0"
         stop-color="#ffffff"
         offset="1"
         id="stop83494" />
    </linearGradient>
    <linearGradient
       inkscape:collect="always"
       xlink:href="#linearGradient3117"
       id="linearGradient84487"
       gradientUnits="userSpaceOnUse"
       gradientTransform="matrix(0.903401,0,0,0.903401,2.335437,2.177737)"
       x1="34.797703"
       y1="29.173397"
       x2="17.444614"
       y2="-6.8890476" />
  </defs>
  <g
     transform="matrix(0.5239251,0,0,0.5239251,-1.1858035,0.642991)"
     id="g83496">
    <path
       fill-opacity="0.40909089"
       display="inline"
       stroke="none"
       d="M 27.0 25.53125 C 27.0 27.41247 22.662758 28.9375 17.3125 28.9375 C 11.962241 28.9375 7.625 27.41247 7.625 25.53125 C 7.625 23.65003 11.962241 22.125 17.3125 22.125 C 22.662758 22.125 27.0 23.65003 27.0 25.53125 z "
       visibility="visible"
       stroke-linecap="butt"
       transform="matrix(2.182912,0,0,2.182912,-13.52704,-17.29028)"
       stroke-miterlimit="4"
       stroke-opacity="1"
       fill="url(#radialGradient3107)"
       stroke-dasharray="none"
       stroke-width="1.10533953"
       color="#000000"
       stroke-linejoin="miter"
       stroke-dashoffset="0"
       fill-rule="nonzero"
       id="path83498" />
    <path
       stroke-linecap="butt"
       fill-opacity="1"
       fill="#d4572d"
       fill-rule="evenodd"
       stroke-linejoin="miter"
       d="M 22.261974 36.308952 C 22.319548 36.22266 23.258747 37.420746 23.258747 37.420746 C 27.376818 32.94006 37.887672 24.56812 40.75498 17.585917 C 34.956432 24.017035 25.48232 34.363323 22.261974 36.308952 z "
       stroke="none"
       stroke-width="1pt"
       stroke-opacity="1"
       id="path83500" />
    <path
       stroke-linecap="butt"
       fill-opacity="1"
       fill="url(#linearGradient7881)"
       fill-rule="evenodd"
       stroke-linejoin="miter"
       d="M 15.165635 7.4843984 C 10.367349 7.2482185 8.131964 10.330635 6.9227943 13.262905 C 5.722845 17.12432 7.419068 24.417625 15.731363 23.862782 C 20.472656 23.862782 22.35715 19.000528 24.852468 17.738312 C 27.120241 16.880852 27.298723 16.80411 29.694664 16.80411 C 33.024277 16.80411 39.045483 14.394449 39.045483 12.003505 C 38.02204 10.084917 35.30493 6.668209 30.312073 7.2505474 C 27.133915 7.6204424 24.127188 9.892215 23.341787 11.022656 C 21.41782 9.325696 18.961206 7.4843984 15.165635 7.4843984 z "
       stroke="none"
       stroke-width="1pt"
       stroke-opacity="1"
       id="path83502" />
    <path
       stroke-linecap="butt"
       fill-opacity="1"
       fill="#c71807"
       fill-rule="evenodd"
       stroke-linejoin="miter"
       stroke-dasharray="none"
       d="M 23.924948 9.003216 C 32.22797 0.70019066 43.63827 8.353124 43.563217 16.227493 C 43.4946 23.426039 38.008286 26.873512 24.225168 39.677567 C 9.7984 27.766132 4.715331 25.019308 4.7903867 16.478476 C 4.8654423 7.6374207 14.633621 1.0021667 23.924948 9.003216 z "
       stroke="#820000"
       stroke-width="0.95433487"
       stroke-opacity="1"
       stroke-miterlimit="4"
       id="path83504" />
    <path
       stroke-linecap="butt"
       fill-opacity="0.625"
       fill="url(#linearGradient1697)"
       fill-rule="evenodd"
       stroke-linejoin="miter"
       d="M 5.078193 16.18862 C 4.8602033 23.368555 5.8728347 22.230972 7.702467 24.505644 C 9.501155 26.741844 17.344378 25.334404 24.384714 18.69633 C 31.50914 11.97897 38.771297 15.781074 42.2916 12.040936 C 39.669106 7.5441046 31.483974 2.095637 23.948408 9.645705 C 14.291385 0.91854006 5.296183 8.928831 5.078193 16.18862 z "
       stroke="none"
       stroke-width="1pt"
       stroke-opacity="1"
       id="path83506" />
    <path
       style="fill:url(#linearGradient84487);fill-opacity:1;fill-rule:evenodd;stroke:none;stroke-width:1.00000072;stroke-linecap:butt;stroke-linejoin:miter;stroke-miterlimit:4;stroke-opacity:1"
       d="M 14.375,5.84375 C 13.33755,5.9581349 12.355287,6.2367195 11.4375,6.65625 C 7.7663535,8.334372 5.2553459,12.18924 5.21875,16.5 C 5.1828401,20.586303 6.5254089,23.481245 9.53125,26.65625 C 12.537091,29.831255 17.193719,33.364061 23.90625,38.90625 L 24.25,39.15625 L 24.5625,38.875 C 30.975218,32.917795 35.565744,29.011409 38.59375,25.71875 C 41.621756,22.426091 43.091747,19.67655 43.125,16.1875 C 43.162313,12.273066 40.374581,8.5196877 36.53125,6.8125 C 32.791765,5.1514399 28.006249,5.551492 24,9.625 C 20.778557,6.62827 17.37311,5.5131909 14.375,5.84375 z M 14.5,6.8125 C 17.298419,6.4894037 20.493921,7.491317 23.65625,10.59375 L 24.03125,10.96875 L 24.375,10.59375 C 28.198054,6.4613485 32.61753,6.1607497 36.125,7.71875 C 39.63247,9.2767503 42.157611,12.766359 42.125,16.1875 C 42.09434,19.404442 40.796816,21.820082 37.84375,25.03125 C 34.955517,28.171919 30.394884,32.091909 24.1875,37.84375 C 17.677374,32.480496 13.126787,28.974429 10.28125,25.96875 C 7.3774057,22.901482 6.1847399,20.37013 6.21875,16.5 C 6.252074,12.574644 8.5440717,9.0708197 11.84375,7.5625 C 12.66867,7.1854201 13.567194,6.9201988 14.5,6.8125 z "
       id="path83508" />
  </g>
</svg>
