<?xml version="1.0" encoding="UTF-8"?>
<svg xmlns="http://www.w3.org/2000/svg" xmlns:xlink="http://www.w3.org/1999/xlink" contentScriptType="text/ecmascript" width="100" baseProfile="tiny" zoomAndPan="magnify" contentStyleType="text/css" viewBox="0 0 100 100" height="100" preserveAspectRatio="none" version="1.0">
    <defs>
        <linearGradient gradientTransform="matrix(-0.968165,-0.250313,0.173998,-0.672993,38.04157,31.33871)" id="linearGradient6536" gradientUnits="userSpaceOnUse" spreadMethod="reflect" xlink:show="other" xlink:type="simple" y1="14.84375" x1="14.671875" y2="14.83101" x2="16.190348" xlink:actuate="onLoad">
            <stop stop-opacity="0.62626261" stop-color="#FFFFFF" offset="0"/>
            <stop stop-opacity="0" stop-color="#FFFFFF" offset="1"/>
        </linearGradient>
        <linearGradient gradientTransform="matrix(-0.968165,-0.250313,0.173998,-0.672993,39.909,24.36653)" id="linearGradient6534" gradientUnits="userSpaceOnUse" spreadMethod="reflect" xlink:show="other" xlink:type="simple" y1="14.84375" x1="14.671875" y2="14.83101" x2="16.190348" xlink:actuate="onLoad">
            <stop stop-opacity="0.62626261" stop-color="#FFFFFF" offset="0"/>
            <stop stop-opacity="0" stop-color="#FFFFFF" offset="1"/>
        </linearGradient>
        <linearGradient gradientTransform="matrix(0.968165,0.250313,-0.173998,0.672993,8.974424,-4.598414)" id="linearGradient6532" gradientUnits="userSpaceOnUse" spreadMethod="reflect" xlink:show="other" xlink:type="simple" y1="14.84375" x1="14.671875" y2="14.83101" x2="16.190348" xlink:actuate="onLoad">
            <stop stop-opacity="0.62626261" stop-color="#FFFFFF" offset="0"/>
            <stop stop-opacity="0" stop-color="#FFFFFF" offset="1"/>
        </linearGradient>
        <linearGradient gradientTransform="matrix(0.968165,0.250313,-0.173998,0.672993,7.151197,2.197078)" id="linearGradient6530" gradientUnits="userSpaceOnUse" spreadMethod="reflect" xlink:show="other" xlink:type="simple" y1="14.84375" x1="14.671875" y2="14.83101" x2="16.190348" xlink:actuate="onLoad">
            <stop stop-opacity="0.62626261" stop-color="#FFFFFF" offset="0"/>
            <stop stop-opacity="0" stop-color="#FFFFFF" offset="1"/>
        </linearGradient>
        <radialGradient gradientTransform="matrix(1,0,0,0.242494,0,31.50606)" id="radialGradient6528" gradientUnits="userSpaceOnUse" xlink:show="other" xlink:type="simple" r="19.136078" cx="24.35099" fx="24.35099" cy="41.591846" fy="41.591846" xlink:actuate="onLoad">
            <stop stop-opacity="1" stop-color="#000000" offset="0"/>
            <stop stop-opacity="0" stop-color="#000000" offset="1"/>
        </radialGradient>
        <linearGradient x1="33.431175" y1="31.964777" x2="21.747974" gradientUnits="userSpaceOnUse" y2="11.780679" xlink:type="simple" xlink:actuate="onLoad" id="linearGradient2187" xlink:show="other">
            <stop stop-opacity="0.22680412" stop-color="#ffffff" offset="0"/>
            <stop stop-opacity="0.2783505" stop-color="#ffffff" offset="1"/>
        </linearGradient>
        <linearGradient gradientTransform="translate(55.749,-15.11378)" id="linearGradient4254" gradientUnits="userSpaceOnUse" xlink:show="other" xlink:type="simple" x1="12.378357" y1="4.4331360" x2="44.096100" y2="47.620636" xlink:actuate="onLoad">
            <stop stop-opacity="1" stop-color="#ffffff" offset="0"/>
            <stop stop-opacity="0" stop-color="#ffffff" offset="1"/>
        </linearGradient>
        <linearGradient gradientTransform="translate(55.749,-15.11378)" id="linearGradient2183" gradientUnits="userSpaceOnUse" xlink:show="other" xlink:type="simple" x1="23.688078" y1="11.318835" y2="26.357183" x2="23.688078" xlink:actuate="onLoad">
            <stop stop-opacity="0.25490198" stop-color="#ffffff" offset="0.0000000"/>
            <stop stop-opacity="0.61855668" stop-color="#ffffff" offset="1"/>
        </linearGradient>
        <linearGradient gradientTransform="translate(55.749,-15.11378)" id="linearGradient4236" gradientUnits="userSpaceOnUse" xlink:show="other" xlink:type="simple" x1="12.277412" y1="37.205811" x2="12.221823" y2="33.758667" xlink:actuate="onLoad">
            <stop stop-opacity="1" stop-color="#eeeeee" offset="0"/>
            <stop stop-opacity="0" stop-color="#eeeeee" offset="1"/>
        </linearGradient>
        <linearGradient gradientTransform="translate(56.54449,-16.4396)" id="linearGradient2179" gradientUnits="userSpaceOnUse" xlink:show="other" xlink:type="simple" x1="7.0625000" y1="35.281250" y2="35.281250" x2="24.687500" xlink:actuate="onLoad">
            <stop stop-opacity="1.0000000" stop-color="#838383" offset="0.0000000"/>
            <stop stop-opacity="0.0000000" stop-color="#bbbbbb" offset="1.0000000"/>
        </linearGradient>
        <radialGradient gradientTransform="matrix(1.286242,0.781698,-0.710782,1.169552,53.39465,-19.99064)" id="radialGradient2177" gradientUnits="userSpaceOnUse" xlink:show="other" xlink:type="simple" r="20.935817" cx="15.571491" fx="15.571491" cy="2.9585190" fy="2.9585190" xlink:actuate="onLoad">
            <stop stop-opacity="1.0000000" stop-color="#e4e4e4" offset="0.0000000"/>
            <stop stop-opacity="1.0000000" stop-color="#d3d3d3" offset="1.0000000"/>
        </radialGradient>
        <linearGradient gradientTransform="translate(55.749,-15.11378)" id="linearGradient2175" gradientUnits="userSpaceOnUse" xlink:show="other" xlink:type="simple" x1="7.6046205" y1="28.481176" y2="40.943935" x2="36.183067" xlink:actuate="onLoad">
            <stop stop-opacity="1.0000000" stop-color="#bbbbbb" offset="0.0000000"/>
            <stop stop-opacity="1.0000000" stop-color="#9f9f9f" offset="1.0000000"/>
        </linearGradient>
        <linearGradient xlink:type="simple" xlink:actuate="onLoad" id="linearGradient2555" xlink:show="other">
            <stop stop-opacity="0.22680412" stop-color="#ffffff" offset="0"/>
            <stop stop-opacity="0.2783505" stop-color="#ffffff" offset="1"/>
        </linearGradient>
        <linearGradient xlink:type="simple" xlink:actuate="onLoad" id="linearGradient4274" xlink:show="other">
            <stop stop-opacity="0.25490198" stop-color="#ffffff" offset="0.0000000"/>
            <stop stop-opacity="0.61855668" stop-color="#ffffff" offset="1"/>
        </linearGradient>
        <linearGradient xlink:type="simple" xlink:actuate="onLoad" id="linearGradient4254" xlink:show="other">
            <stop stop-opacity="1" stop-color="#ffffff" offset="0"/>
            <stop stop-opacity="0" stop-color="#ffffff" offset="1"/>
        </linearGradient>
        <linearGradient xlink:type="simple" xlink:actuate="onLoad" id="linearGradient4244" xlink:show="other">
            <stop stop-opacity="1.0000000" stop-color="#e4e4e4" offset="0.0000000"/>
            <stop stop-opacity="1.0000000" stop-color="#d3d3d3" offset="1.0000000"/>
        </linearGradient>
        <linearGradient xlink:type="simple" xlink:actuate="onLoad" id="linearGradient4236" xlink:show="other">
            <stop stop-opacity="1" stop-color="#eeeeee" offset="0"/>
            <stop stop-opacity="0" stop-color="#eeeeee" offset="1"/>
        </linearGradient>
        <linearGradient xlink:type="simple" xlink:actuate="onLoad" id="linearGradient4228" xlink:show="other">
            <stop stop-opacity="1.0000000" stop-color="#bbbbbb" offset="0.0000000"/>
            <stop stop-opacity="1.0000000" stop-color="#9f9f9f" offset="1.0000000"/>
        </linearGradient>
        <linearGradient xlink:type="simple" xlink:actuate="onLoad" id="linearGradient4184" xlink:show="other">
            <stop stop-opacity="1.0000000" stop-color="#838383" offset="0.0000000"/>
            <stop stop-opacity="0.0000000" stop-color="#bbbbbb" offset="1.0000000"/>
        </linearGradient>
        <radialGradient gradientTransform="matrix(1,0,0,0.242494,0,31.50606)" id="radialGradient9812" gradientUnits="userSpaceOnUse" xlink:show="other" xlink:type="simple" r="19.136078" cx="24.35099" fx="24.35099" cy="41.591846" fy="41.591846" xlink:actuate="onLoad">
            <stop stop-opacity="1" stop-color="#000000" offset="0"/>
            <stop stop-opacity="0" stop-color="#000000" offset="1"/>
        </radialGradient>
        <linearGradient xlink:type="simple" xlink:actuate="onLoad" id="linearGradient9806" xlink:show="other">
            <stop stop-opacity="1" stop-color="#000000" offset="0"/>
            <stop stop-opacity="0" stop-color="#000000" offset="1"/>
        </linearGradient>
        <linearGradient gradientTransform="matrix(0.810817,0,0,1.233324,0.457491,-0.852254)" id="linearGradient1437" gradientUnits="userSpaceOnUse" xlink:show="other" xlink:type="simple" x1="28.632685" y1="29.943159" y2="31.490198" x2="28.783722" xlink:actuate="onLoad">
            <stop stop-opacity="0.50299400" stop-color="#000000" offset="0.0000000"/>
            <stop stop-opacity="0.0000000" stop-color="#000000" offset="1.0000000"/>
        </linearGradient>
        <linearGradient xlink:type="simple" xlink:actuate="onLoad" id="linearGradient264" xlink:show="other">
            <stop stop-opacity="0.50299400" stop-color="#000000" offset="0.0000000"/>
            <stop stop-opacity="0.0000000" stop-color="#000000" offset="1.0000000"/>
        </linearGradient>
        <linearGradient gradientTransform="matrix(1.138691,0,0,1.732051,-19.96021,-0.977254)" id="linearGradient1439" gradientUnits="userSpaceOnUse" xlink:show="other" xlink:type="simple" x1="36.373066" y1="22.227985" y2="22.227985" x2="38.105118" xlink:actuate="onLoad">
            <stop stop-opacity="0.44910181" stop-color="#ffffff" offset="0.0000000"/>
            <stop stop-opacity="0.0000000" stop-color="#ffffff" offset="1.0000000"/>
        </linearGradient>
        <linearGradient xlink:type="simple" xlink:actuate="onLoad" id="linearGradient218" xlink:show="other">
            <stop stop-opacity="0.44910181" stop-color="#ffffff" offset="0.0000000"/>
            <stop stop-opacity="0.0000000" stop-color="#ffffff" offset="1.0000000"/>
        </linearGradient>
        <linearGradient gradientTransform="matrix(0.983801,0,0,1.016466,0.457491,0.522745)" id="linearGradient203" gradientUnits="userSpaceOnUse" xlink:show="other" xlink:type="simple" x1="23.100046" y1="38.296745" y2="43.915466" x2="23.100046" xlink:actuate="onLoad">
            <stop stop-opacity="1.0000000" stop-color="#7a7a7a" offset="0.0000000"/>
            <stop stop-opacity="1.0000000" stop-color="#c5c5c5" offset="0.19801980"/>
            <stop stop-opacity="1.0000000" stop-color="#626262" offset="0.59900987"/>
            <stop stop-opacity="1.0000000" stop-color="#888888" offset="1.0000000"/>
        </linearGradient>
        <linearGradient xlink:type="simple" xlink:actuate="onLoad" id="linearGradient204" xlink:show="other">
            <stop stop-opacity="1.0000000" stop-color="#7a7a7a" offset="0.0000000"/>
            <stop stop-opacity="1.0000000" stop-color="#c5c5c5" offset="0.19801980"/>
            <stop stop-opacity="1.0000000" stop-color="#626262" offset="0.59900987"/>
            <stop stop-opacity="1.0000000" stop-color="#888888" offset="1.0000000"/>
        </linearGradient>
        <linearGradient gradientTransform="matrix(2.740165,0,0,0.147685,0.457491,24.70863)" id="linearGradient1441" gradientUnits="userSpaceOnUse" xlink:show="other" xlink:type="simple" x1="1.6422368" y1="117.82710" y2="117.82710" x2="15.343062" xlink:actuate="onLoad">
            <stop stop-opacity="0.0000000" stop-color="#ffffff" offset="0.0000000"/>
            <stop stop-opacity="0.70658684" stop-color="#ffffff" offset="0.10827128"/>
            <stop stop-opacity="0.70658684" stop-color="#ffffff" offset="0.92053902"/>
            <stop stop-opacity="0.0000000" stop-color="#ffffff" offset="1.0000000"/>
        </linearGradient>
        <linearGradient xlink:type="simple" xlink:actuate="onLoad" id="linearGradient178" xlink:show="other">
            <stop stop-opacity="0.0000000" stop-color="#ffffff" offset="0.0000000"/>
            <stop stop-opacity="0.70658684" stop-color="#ffffff" offset="0.10827128"/>
            <stop stop-opacity="0.70658684" stop-color="#ffffff" offset="0.92053902"/>
            <stop stop-opacity="0.0000000" stop-color="#ffffff" offset="1.0000000"/>
        </linearGradient>
        <linearGradient gradientTransform="matrix(8.168597,0,0,0.228621,0.457491,-36.56817)" id="linearGradient1443" gradientUnits="userSpaceOnUse" xlink:show="other" xlink:type="simple" x1="0.61210024" y1="372.57819" y2="372.57819" x2="5.0856376" xlink:actuate="onLoad">
            <stop stop-opacity="0.0000000" stop-color="#474747" offset="0.0000000"/>
            <stop stop-opacity="1.0000000" stop-color="#474747" offset="0.10000000"/>
            <stop stop-opacity="1.0000000" stop-color="#474747" offset="0.89999998"/>
            <stop stop-opacity="0.0000000" stop-color="#474747" offset="1.0000000"/>
        </linearGradient>
        <linearGradient xlink:type="simple" xlink:actuate="onLoad" id="linearGradient272" xlink:show="other">
            <stop stop-opacity="0.0000000" stop-color="#474747" offset="0.0000000"/>
            <stop stop-opacity="1.0000000" stop-color="#474747" offset="0.10000000"/>
            <stop stop-opacity="1.0000000" stop-color="#474747" offset="0.89999998"/>
            <stop stop-opacity="0.0000000" stop-color="#474747" offset="1.0000000"/>
        </linearGradient>
        <linearGradient gradientTransform="matrix(8.168597,0,0,0.22121,0.457491,-37.86827)" id="linearGradient1445" gradientUnits="userSpaceOnUse" xlink:show="other" xlink:type="simple" x1="0.61210024" y1="372.57819" y2="372.57819" x2="5.0856376" xlink:actuate="onLoad">
            <stop stop-opacity="0.0000000" stop-color="#474747" offset="0.0000000"/>
            <stop stop-opacity="1.0000000" stop-color="#474747" offset="0.10000000"/>
            <stop stop-opacity="1.0000000" stop-color="#474747" offset="0.89999998"/>
            <stop stop-opacity="0.0000000" stop-color="#474747" offset="1.0000000"/>
        </linearGradient>
        <linearGradient gradientTransform="matrix(2.740165,0,0,0.364942,0.457491,-0.477254)" id="linearGradient1447" gradientUnits="userSpaceOnUse" xlink:show="other" xlink:type="simple" x1="1.6422368" y1="117.82710" y2="117.82710" x2="15.343062" xlink:actuate="onLoad">
            <stop stop-opacity="0.0000000" stop-color="#686868" offset="0.0000000"/>
            <stop stop-opacity="1.0000000" stop-color="#686868" offset="0.23762377"/>
            <stop stop-opacity="1.0000000" stop-color="#686868" offset="0.78109992"/>
            <stop stop-opacity="0.0000000" stop-color="#686868" offset="1.0000000"/>
        </linearGradient>
        <linearGradient xlink:type="simple" xlink:actuate="onLoad" id="linearGradient158" xlink:show="other">
            <stop stop-opacity="0.0000000" stop-color="#686868" offset="0.0000000"/>
            <stop stop-opacity="1.0000000" stop-color="#686868" offset="0.23762377"/>
            <stop stop-opacity="1.0000000" stop-color="#686868" offset="0.78109992"/>
            <stop stop-opacity="0.0000000" stop-color="#686868" offset="1.0000000"/>
        </linearGradient>
        <linearGradient xlink:type="simple" xlink:actuate="onLoad" id="linearGradient4699" xlink:show="other">
            <stop stop-opacity="0.62626261" stop-color="#FFFFFF" offset="0"/>
            <stop stop-opacity="0" stop-color="#FFFFFF" offset="1"/>
        </linearGradient>
        <linearGradient gradientTransform="translate(55.749,-15.11378)" id="linearGradient6843" gradientUnits="userSpaceOnUse" xlink:show="other" xlink:type="simple" x1="12.378357" y1="4.4331360" y2="47.620636" x2="44.096100" xlink:actuate="onLoad">
            <stop stop-opacity="1" stop-color="#ffffff" offset="0"/>
            <stop stop-opacity="0" stop-color="#ffffff" offset="1"/>
        </linearGradient>
    </defs>
    <g>
        <rect x="0" width="100%" fill="none" y="0" height="100%"/>
    </g>
    <g transform="matrix(1.8930866,0,0,1.8930866,4.5290542,4.8380192)">
        <g>
            <rect fill-opacity="1" display="block" stroke="none" visibility="visible" stroke-linecap="butt" width="36.542522" stroke-miterlimit="4" stroke-opacity="1" fill="url(#linearGradient1447)" stroke-width="1" color="#000000" height="4" x="5.4574776" stroke-linejoin="miter" y="40.522766" stroke-dashoffset="0" fill-rule="nonzero"/>
            <rect fill-opacity="1" display="block" stroke="none" visibility="visible" stroke-linecap="butt" width="36.542522" stroke-miterlimit="4" stroke-opacity="1" fill="url(#linearGradient1445)" stroke-width="1" color="#000000" height="0.98959237" x="5.4574776" stroke-linejoin="miter" y="44.055054" stroke-dashoffset="0" fill-rule="nonzero"/>
            <rect fill-opacity="1" display="block" stroke="none" visibility="visible" stroke-linecap="butt" width="36.542522" stroke-miterlimit="4" stroke-opacity="1" fill="url(#linearGradient1443)" stroke-width="1" color="#000000" height="1.022747" x="5.4574776" stroke-linejoin="miter" y="40" stroke-dashoffset="0" fill-rule="nonzero"/>
            <rect fill-opacity="1" display="block" stroke="none" visibility="visible" stroke-linecap="butt" width="36.542522" stroke-miterlimit="4" stroke-opacity="1" fill="url(#linearGradient1441)" stroke-width="1" color="#000000" height="1.6187184" x="5.4574776" stroke-linejoin="miter" y="41.300476" stroke-dashoffset="0" fill-rule="nonzero"/>
            <path fill-opacity="1" display="block" stroke="#434343" d="M 21.923477 29.991507 C 21.139997 29.991507 20.517227 30.614277 20.517227 31.397757 L 20.517227 38.991505 L 17.454727 38.991505 C 16.671247 38.991505 16.048477 39.614277 16.048477 40.397755 L 16.048477 44.116505 C 16.048477 44.899975 16.671247 45.522755 17.454727 45.522755 L 29.642227 45.522755 C 30.425697 45.522755 31.048477 44.899975 31.048477 44.116505 L 31.048477 40.397755 C 31.048477 39.614277 30.425697 38.991505 29.642227 38.991505 L 27.048477 38.991505 L 27.048477 31.397757 C 27.048477 30.614277 26.425697 29.991507 25.642227 29.991507 L 21.923477 29.991507 z " visibility="visible" stroke-linecap="butt" stroke-miterlimit="4" stroke-opacity="1" fill="url(#linearGradient203)" stroke-width="1" color="#000000" stroke-linejoin="miter" stroke-dashoffset="0" fill-rule="nonzero"/>
            <rect fill-opacity="1" display="block" stroke="none" visibility="visible" stroke-linecap="butt" width="1.9722718" stroke-miterlimit="4" stroke-opacity="1" fill="url(#linearGradient1439)" stroke-width="1" color="#000000" height="3" x="21.457478" stroke-linejoin="miter" rx="0.29955584" y="36.022766" ry="0.29955584" stroke-dashoffset="0" fill-rule="nonzero"/>
            <path fill-opacity="1" display="block" stroke="none" d="M 26.551237 35.975876 L 21.019987 35.975876 C 21.019987 35.975876 21.019987 37.663376 21.019987 38.147755 C 21.566858 36.366505 26.551237 35.975876 26.551237 35.975876 z " visibility="visible" stroke-linecap="butt" stroke-miterlimit="4" stroke-opacity="1" fill="url(#linearGradient1437)" stroke-width="1" color="#000000" stroke-linejoin="miter" stroke-dashoffset="0" fill-rule="nonzero"/>
            <path fill-opacity="0.55681817" display="inline" stroke="none" d="M 43.48707 41.591846 C 43.48707 44.154663 34.919556 46.232235 24.35099 46.232235 C 13.782426 46.232235 5.2149124 44.154663 5.2149124 41.591846 C 5.2149124 39.02903 13.782426 36.951458 24.35099 36.951458 C 34.919556 36.951458 43.48707 39.02903 43.48707 41.591846 z " visibility="visible" stroke-linecap="round" transform="matrix(0.914503,0,0,1.010469,1.230945,-6.71624)" stroke-miterlimit="4" stroke-opacity="1" fill="url(#radialGradient9812)" stroke-dasharray="none" stroke-width="1" color="#000000" stroke-linejoin="round" stroke-dashoffset="0" fill-rule="nonzero"/>
            <g transform="translate(-56.215,10.96016)">
                <path stroke-linecap="round" fill-opacity="1" fill="none" fill-rule="evenodd" stroke-linejoin="round" stroke-dasharray="none" d="M 67.03469 -7.151152 C 66.40969 -7.151152 66.00344 -6.860972 65.75344 -6.3073993 C 65.75344 -6.3073993 59.28469 10.796158 59.28469 10.796158 C 59.28469 10.796158 59.03469 11.467717 59.03469 12.577408 C 59.03469 12.577408 59.03469 22.227377 59.03469 22.227377 C 59.03469 23.309988 59.692474 23.852379 60.690945 23.852377 L 99.25344 23.852377 C 100.23829 23.852377 100.84719 23.134195 100.84719 22.008627 L 100.84719 12.358658 C 100.84719 12.358658 100.95315 11.588235 100.75344 11.046158 L 94.03469 -6.151149 C 93.85017 -6.6630554 93.39778 -7.1392474 92.90969 -7.151152 L 67.03469 -7.151152 z " stroke="#535353" stroke-width="2" stroke-opacity="1" stroke-miterlimit="4"/>
                <path stroke-linecap="butt" fill-opacity="1" fill="url(#linearGradient2175)" fill-rule="evenodd" stroke-linejoin="miter" d="M 59.02259 11.883032 L 59.787193 11.190817 L 97.39688 11.253317 L 100.85929 11.570615 L 100.85929 22.009148 C 100.85929 23.134716 100.25227 23.852478 99.267426 23.852478 L 60.684433 23.852478 C 59.685966 23.852478 59.02259 23.310429 59.02259 22.227814 L 59.02259 11.883032 z " stroke="none" stroke-width="1.02044296px" stroke-opacity="1"/>
                <path stroke-linecap="butt" fill-opacity="1" fill="url(#radialGradient2177)" fill-rule="evenodd" stroke-linejoin="miter" d="M 59.298084 10.800624 C 58.5838 12.26491 59.297466 13.193481 60.3338 13.193481 C 60.3338 13.193481 99.3338 13.193481 99.3338 13.193481 C 100.45284 13.169671 101.17903 12.181576 100.76237 11.050623 L 94.04808 -6.1600757 C 93.86356 -6.6719823 93.39332 -7.1481743 92.90523 -7.160079 L 67.04808 -7.160079 C 66.42308 -7.160079 66.01237 -6.856506 65.76237 -6.302933 C 65.76237 -6.302933 59.298084 10.800624 59.298084 10.800624 z " stroke="none" stroke-width="1px" stroke-opacity="1"/>
                <rect fill-opacity="1" display="inline" stroke="none" visibility="visible" stroke-linecap="round" width="17.625" stroke-miterlimit="4" stroke-opacity="1" fill="url(#linearGradient2179)" stroke-dasharray="none" stroke-width="2.40899992" color="#000000" height="5.5625" x="63.606995" stroke-linejoin="round" y="16.060404" stroke-dashoffset="0" fill-rule="evenodd"/>
                <path stroke-linecap="butt" fill-opacity="1" fill="#ffffff" fill-rule="evenodd" stroke-linejoin="miter" d="M 100.54516 10.514908 C 100.60868 11.764882 100.13116 12.830748 99.223045 12.858658 C 99.223045 12.858658 61.10433 12.858657 61.10433 12.858658 C 59.815098 12.858658 59.23659 12.533711 59.02028 11.990602 C 59.11204 12.934934 59.846096 13.639908 61.10433 13.639908 C 61.10433 13.639907 99.223045 13.639908 99.223045 13.639908 C 100.29905 13.606837 100.97585 12.215884 100.57521 10.645117 L 100.54516 10.514908 z " stroke="none" stroke-width="1px" stroke-opacity="1"/>
                <path fill-opacity="1" display="inline" stroke="none" d="M 66.71775 -4.95753 C 66.67168 -4.757209 66.53025 -4.570733 66.53025 -4.36378 C 66.53025 -3.415175 67.12123 -2.574306 67.874 -1.77003 C 68.11427 -1.924105 68.23912 -2.124438 68.499 -2.27003 C 67.558685 -3.086034 66.9456 -3.986612 66.71775 -4.95753 z M 93.374 -4.95753 C 93.14527 -3.987914 92.53199 -3.085104 91.59275 -2.27003 C 91.8669 -2.116448 91.996735 -1.90179 92.249 -1.73878 C 93.00626 -2.545436 93.5615 -3.411824 93.5615 -4.36378 C 93.5615 -4.570733 93.41991 -4.757209 93.374 -4.95753 z M 95.5615 3.47997 C 94.947716 7.520081 88.262886 10.72997 80.03025 10.72997 C 71.818 10.729971 65.1701 7.537184 64.53025 3.51122 C 64.497894 3.708352 64.40525 3.903102 64.40525 4.10497 C 64.40525 8.422917 71.394356 11.948721 80.03025 11.94872 C 88.666145 11.94872 95.68649 8.422918 95.6865 4.10497 C 95.6865 3.892046 95.59745 3.687614 95.5615 3.47997 z " visibility="visible" stroke-linecap="round" stroke-miterlimit="4" stroke-opacity="1" fill="url(#linearGradient2183)" stroke-dasharray="none" stroke-width="2" color="#000000" stroke-linejoin="round" stroke-dashoffset="0" fill-rule="evenodd"/>
                <path fill-opacity="0.45762706" display="inline" stroke="none" d="M 8.57367 25.593554 C 8.57367 26.154932 7.960292 26.61002 7.2036505 26.61002 C 6.4470096 26.61002 5.833631 26.154932 5.833631 25.593554 C 5.833631 25.032175 6.4470096 24.577087 7.2036505 24.577087 C 7.960292 24.577087 8.57367 25.032175 8.57367 25.593554 z " visibility="visible" stroke-linecap="round" transform="translate(55.83739,-14.937)" stroke-miterlimit="4" stroke-opacity="1" fill="#ffffff" stroke-dasharray="none" stroke-width="2" color="#000000" stroke-linejoin="round" stroke-dashoffset="0" fill-rule="evenodd"/>
                <path fill-opacity="0.45762706" display="inline" stroke="none" d="M 8.57367 25.593554 C 8.57367 26.154932 7.960292 26.61002 7.2036505 26.61002 C 6.4470096 26.61002 5.833631 26.154932 5.833631 25.593554 C 5.833631 25.032175 6.4470096 24.577087 7.2036505 24.577087 C 7.960292 24.577087 8.57367 25.032175 8.57367 25.593554 z " visibility="visible" stroke-linecap="round" transform="translate(89.71605,-15.02539)" stroke-miterlimit="4" stroke-opacity="1" fill="#ffffff" stroke-dasharray="none" stroke-width="2" color="#000000" stroke-linejoin="round" stroke-dashoffset="0" fill-rule="evenodd"/>
                <path stroke-linecap="round" fill-opacity="1" fill="url(#linearGradient6843)" fill-rule="evenodd" stroke-linejoin="round" stroke-dasharray="none" d="M 67.40625 -7.1875 C 66.649796 -7.1875 65.984825 -6.75212 65.6875 -6.09375 C 65.68718 -6.083336 65.68718 -6.072914 65.6875 -6.0625 C 65.6875 -6.0625 59.28125 10.53125 59.28125 10.53125 C 59.28125 10.53125 59.0 11.262846 59.0 12.40625 C 59.0 12.40625 59.0 21.71875 59.0 21.71875 C 59.0 22.45075 59.12101 23.024076 59.53125 23.40625 C 59.94149 23.788424 60.479107 23.84375 61.09375 23.84375 L 98.78125 23.84375 C 99.13196 23.84375 99.44235 23.821735 99.71875 23.75 C 99.995155 23.678265 100.25325 23.53986 100.4375 23.3125 C 100.806 22.857782 100.8125 22.283688 100.8125 21.5 L 100.8125 12.28125 C 100.8125 12.28125 100.81203 12.221377 100.8125 12.21875 C 100.82338 12.157896 100.94174 11.471358 100.6875 10.78125 C 100.68783 10.770836 100.68783 10.760414 100.6875 10.75 L 94.09375 -6.03125 C 93.86479 -6.6664395 93.32477 -7.170432 92.625 -7.1875 L 67.40625 -7.1875 z M 67.40625 -6.1875 L 92.625 -6.1875 C 92.86502 -6.1816454 93.02993 -6.0379434 93.15625 -5.6875 L 99.75 11.125 C 99.8693 11.448827 99.8125 12.15625 99.8125 12.15625 C 99.8112 12.177063 99.8112 12.197937 99.8125 12.21875 L 99.8125 21.5 C 99.8125 22.237408 99.72413 22.603746 99.65625 22.6875 C 99.622314 22.729376 99.60408 22.746128 99.46875 22.78125 C 99.33343 22.816372 99.0921 22.84375 98.78125 22.84375 L 61.09375 22.84375 C 60.557964 22.84375 60.318146 22.74884 60.21875 22.65625 C 60.11936 22.56366 60.0 22.34149 60.0 21.71875 C 60.0 21.71875 60.0 12.40625 60.0 12.40625 C 60.0 11.413038 60.21875 10.875 60.21875 10.875 C 60.21875 10.875 66.60405 -5.6333146 66.625 -5.6875 C 66.80902 -6.094987 66.95932 -6.1875 67.40625 -6.1875 z " stroke="none" stroke-width="1.00000024" stroke-opacity="1" stroke-miterlimit="4"/>
                <path stroke-linecap="square" fill-opacity="0.75" fill="none" fill-rule="evenodd" stroke-linejoin="miter" d="M 96.249 16.315386 L 96.249 21.33632 " stroke="#ffffff" stroke-width="1.00000048px" stroke-opacity="0.42372885"/>
                <path stroke-linecap="square" fill-opacity="0.75" fill="none" fill-rule="evenodd" stroke-linejoin="miter" d="M 94.249 16.375162 L 94.249 21.396097 " stroke="#ffffff" stroke-width="1.00000048px" stroke-opacity="0.42372885"/>
                <path stroke-linecap="square" fill-opacity="0.75" fill="none" fill-rule="evenodd" stroke-linejoin="miter" d="M 92.249 16.375162 L 92.249 21.396097 " stroke="#ffffff" stroke-width="1.00000048px" stroke-opacity="0.42372885"/>
                <path stroke-linecap="square" fill-opacity="0.75" fill="none" fill-rule="evenodd" stroke-linejoin="miter" d="M 90.249 16.375162 L 90.249 21.396097 " stroke="#ffffff" stroke-width="1.00000048px" stroke-opacity="0.42372885"/>
                <path stroke-linecap="square" fill-opacity="0.75" fill="none" fill-rule="evenodd" stroke-linejoin="miter" d="M 88.249 16.375162 L 88.249 21.396097 " stroke="#ffffff" stroke-width="1.00000048px" stroke-opacity="0.42372885"/>
                <path stroke-linecap="square" fill-opacity="0.75" fill="none" fill-rule="evenodd" stroke-linejoin="miter" d="M 86.249 16.375162 L 86.249 21.396097 " stroke="#ffffff" stroke-width="1.00000048px" stroke-opacity="0.42372885"/>
                <path stroke-linecap="square" fill-opacity="0.75" fill="none" fill-rule="evenodd" stroke-linejoin="miter" d="M 95.249 16.365286 L 95.249 21.38622 " stroke="#000000" stroke-width="1.00000048px" stroke-opacity="0.1118421"/>
                <path stroke-linecap="square" fill-opacity="0.75" fill="none" fill-rule="evenodd" stroke-linejoin="miter" d="M 93.249 16.425062 L 93.249 21.445995 " stroke="#000000" stroke-width="1.00000048px" stroke-opacity="0.1118421"/>
                <path stroke-linecap="square" fill-opacity="0.75" fill="none" fill-rule="evenodd" stroke-linejoin="miter" d="M 91.249 16.425062 L 91.249 21.445995 " stroke="#000000" stroke-width="1.00000048px" stroke-opacity="0.1118421"/>
                <path stroke-linecap="square" fill-opacity="0.75" fill="none" fill-rule="evenodd" stroke-linejoin="miter" d="M 89.249 16.425062 L 89.249 21.445995 " stroke="#000000" stroke-width="1.00000048px" stroke-opacity="0.1118421"/>
                <path stroke-linecap="square" fill-opacity="0.75" fill="none" fill-rule="evenodd" stroke-linejoin="miter" d="M 87.249 16.425062 L 87.249 21.445995 " stroke="#000000" stroke-width="1.00000048px" stroke-opacity="0.1118421"/>
                <path fill-opacity="1" display="inline" stroke="none" d="M 39.875 19.5625 C 39.875 23.255905 33.215237 26.25 25.0 26.25 C 16.784765 26.25 10.125 23.255905 10.125 19.5625 C 10.125 15.869096 16.784765 12.875 25.0 12.875 C 33.215237 12.875 39.875 15.869096 39.875 19.5625 z " visibility="visible" stroke-linecap="square" transform="matrix(1.037815,0,0,1.060747,54.11612,-17.20841)" stroke-miterlimit="4" stroke-opacity="0.42372879" fill="url(#linearGradient2187)" stroke-dasharray="none" stroke-width="0.93365198" color="#000000" stroke-linejoin="round" stroke-dashoffset="0" fill-rule="evenodd"/>
            </g>
            <g transform="matrix(1.167164,0,0,1.167164,-2.566796,-0.426121)">
                <path fill-opacity="0.55681817" display="inline" stroke="none" d="M 43.48707 41.591846 C 43.48707 44.154663 34.919556 46.232235 24.35099 46.232235 C 13.782426 46.232235 5.2149124 44.154663 5.2149124 41.591846 C 5.2149124 39.02903 13.782426 36.951458 24.35099 36.951458 C 34.919556 36.951458 43.48707 39.02903 43.48707 41.591846 z " visibility="visible" stroke-linecap="round" transform="matrix(0.487869,0,0,0.539064,10.08081,-6.547156)" stroke-miterlimit="4" stroke-opacity="1" fill="url(#radialGradient6528)" stroke-dasharray="none" stroke-width="1" color="#000000" stroke-linejoin="round" stroke-dashoffset="0" fill-rule="nonzero"/>
                <g transform="translate(-0.25,-5.125)">
                    <path stroke-linecap="butt" fill-opacity="1" fill="#ef2929" fill-rule="evenodd" stroke-linejoin="miter" stroke-dasharray="none" d="M 18.491253 6.802969 C 20.369411 6.040817 22.574207 6.013597 24.615688 6.966287 L 22.900845 12.437451 C 20.941025 11.403102 19.120518 11.569633 17.109774 12.14155 L 18.491253 6.802969 z " stroke="#a40000" stroke-width="1" stroke-opacity="1" stroke-miterlimit="4"/>
                    <path stroke-linecap="butt" fill-opacity="1" fill="#729fcf" fill-rule="evenodd" stroke-linejoin="miter" stroke-dasharray="none" d="M 16.662674 13.592842 C 18.540836 12.83069 20.745632 12.80347 22.787111 13.75616 L 21.072268 19.227324 C 19.112448 18.192974 17.070972 18.138536 15.192809 19.064005 L 16.662674 13.592842 z " stroke="#3465a4" stroke-width="1" stroke-opacity="1" stroke-miterlimit="4"/>
                    <path stroke-linecap="butt" fill-opacity="1" fill="#9db029" fill-rule="evenodd" stroke-linejoin="miter" stroke-dasharray="none" d="M 30.55738 12.624836 C 28.148888 13.82893 26.386034 13.723567 24.344555 12.770877 L 26.059399 7.2997127 C 28.019217 8.334062 30.060696 8.388501 31.938856 7.4630313 L 30.55738 12.624836 z " stroke="#727e0a" stroke-width="1" stroke-opacity="1" stroke-miterlimit="4"/>
                    <path stroke-linecap="butt" fill-opacity="1" fill="#fcaf3e" fill-rule="evenodd" stroke-linejoin="miter" stroke-dasharray="none" d="M 28.485956 19.863203 C 26.607794 20.625357 24.402998 20.652576 22.361519 19.699886 L 24.076363 14.228722 C 26.03618 15.263071 28.07766 15.317511 29.95582 14.39204 L 28.485956 19.863203 z " stroke="#f57900" stroke-width="1" stroke-opacity="1" stroke-miterlimit="4"/>
                    <path stroke-linecap="round" fill-opacity="1" stroke-dashoffset="0" fill="url(#linearGradient6530)" stroke-linejoin="miter" d="M 17.850632 13.791606 C 18.880304 13.497658 19.878723 13.45371 20.939644 13.659762 L 19.820784 18.052143 C 18.593197 17.898176 17.92811 17.837955 16.606773 18.058989 L 17.850632 13.791606 z " stroke="none" stroke-width="0.5" stroke-opacity="1" stroke-miterlimit="4"/>
                    <path stroke-linecap="round" fill-opacity="1" stroke-dashoffset="0" fill="url(#linearGradient6532)" stroke-linejoin="miter" d="M 19.673857 6.9961104 C 20.703527 6.7021623 21.701948 6.6582146 22.762869 6.8642664 L 21.644009 11.256652 C 20.41642 11.102683 19.751333 11.042465 18.429996 11.263496 L 19.673857 6.9961104 z " stroke="none" stroke-width="0.5" stroke-opacity="1" stroke-miterlimit="4"/>
                    <path stroke-linecap="round" fill-opacity="1" stroke-dashoffset="0" fill="url(#linearGradient6534)" stroke-linejoin="miter" d="M 29.209648 12.77204 C 28.17998 13.065988 27.18156 13.109936 26.12064 12.903884 L 27.2395 8.511506 C 28.467087 8.665475 29.132172 8.725693 30.453508 8.5046625 L 29.209648 12.77204 z " stroke="none" stroke-width="0.5" stroke-opacity="1" stroke-miterlimit="4"/>
                    <path stroke-linecap="round" fill-opacity="1" stroke-dashoffset="0" fill="url(#linearGradient6536)" stroke-linejoin="miter" d="M 27.342232 19.744308 C 26.31256 20.038256 25.31414 20.082205 24.25322 19.876152 L 25.37208 15.483774 C 26.599669 15.637743 27.264753 15.697961 28.586092 15.47693 L 27.342232 19.744308 z " stroke="none" stroke-width="0.5" stroke-opacity="1" stroke-miterlimit="4"/>
                </g>
            </g>
        </g>
    </g>
</svg>
